<?xml version="1.0" encoding="utf-8"?>
<!DOCTYPE svg PUBLIC "-//W3C//DTD SVG 1.1//EN" "http://www.w3.org/Graphics/SVG/1.1/DTD/svg11.dtd">
<svg version="1.1" id="Calque_1" xmlns="http://www.w3.org/2000/svg" xmlns:xlink="http://www.w3.org/1999/xlink" x="0px" y="0px"
	 width="69.424px" height="36.523px" viewBox="0 0 69.424 36.523" enable-background="new 0 0 69.424 36.523" xml:space="preserve">
<path fill="#275668" d="M24.606,0c-0.203,0-0.414,0.007-0.626,0.021c-2.727,0.185-5.199,1.367-7.347,3.515
	c-2.641,2.643-3.548,5.47-2.772,8.647l0.072,0.293l-0.226,0.2c-1.129,1.011-2.005,1.912-2.642,2.587
	c-2.214,2.342-3.441,4.875-3.85,6.465c-1.4,5.435,1.176,8.604,2.276,9.957c1.201,1.479,2.681,2.603,4.4,3.342
	c1.743,0.748,3.704,1.225,5.831,1.414c2.126,0.188,4.204,0.053,6.182-0.368c6.235-1.328,9.011-5.576,9.558-6.487
	c0.402-0.671,0.159-0.811-0.261-1.139c-0.096-0.076-0.204-0.86-0.395-0.612c-0.552,0.716-1.611,3.291-6.46,5.785
	c-1.566,0.806-3.251,1.153-4.942,1.153c-1.769,0-3.61-0.426-5.473-1.267c-3.165-1.401-5.364-3.524-6.533-6.308
	c-1.628-3.906-0.635-7.765,2.949-11.47l0.475-0.49l0.328,0.599c1.04,1.902,2.307,2.989,3.767,3.232
	c1.861,0.347,3.736-0.384,4.973-1.88c1.253-1.491,1.652-3.615,0.973-5.168c-0.552-1.26-2.238-2.537-4.394-2.537
	c-1.143,0-2.285,0.354-3.396,1.056l-0.735,0.464l-0.035-0.866c-0.004-0.092-0.074-2.218,1.417-4.246
	c0.997-1.358,1.883-2.347,3.214-3.069c1.209-0.659,2.468-1.007,3.638-1.007h0.044c0.241,0.002,1.494,0.046,2.46,0.808
	c1.039,0.821,0.838,1.74,0.705,2.35c-0.161,0.73-0.565,1.297-0.735,1.483c-0.312,0.342-0.786,0.601-1.009,0.957
	c-0.238,0.383-0.226,0.783,0.035,1.158c0.21,0.301,0.506,0.386,0.738,0.398c1.743-0.535,2.479-2.08,2.723-2.63
	c0.472-1.061,0.603-2.291,0.235-3.181C28.897,1.063,27.16,0,24.606,0 M19.767,16.603H19.71c-2.097-0.021-2.839-2.799-2.869-2.918
	l-0.066-0.256l0.174-0.201c0.056-0.063,1.396-1.572,3.351-1.572c0.449,0,0.898,0.08,1.334,0.24c0.41,0.148,0.712,0.451,0.872,0.871
	c0.296,0.775,0.058,1.814-0.309,2.502C21.703,16.192,20.953,16.603,19.767,16.603"/>
<path fill="#275668" d="M35.711,17.438c0.384-0.086,1.252-0.671,1.83-1.496c0.556-0.793,1.31-2.594,1.449-3.029
	c0.032-0.1-0.72,2.23-0.604,2.283c0.112,0.051,0.194,0.078,0.247,0.078c0.017,0.729-0.223,1.404-0.717,2.021
	c-0.496,0.617-1.123,1.082-1.879,1.396c-0.755,0.313-1.539,0.508-2.347,0.588c-0.808,0.078-1.565-0.054-2.269-0.394
	c-0.704-0.339-1.213-0.848-1.526-1.524c0.261-0.694,0.887-0.547,1.878,0.443c0.157,0.087,0.304,0.147,0.444,0.184
	c0.138,0.035,0.312,0.063,0.521,0.09c0.209,0.027,0.348,0.049,0.417,0.065c0.47-0.47,0.752-1.043,0.848-1.722
	c0.095-0.679,0.03-1.347-0.196-2.009c-0.226-0.66-0.491-1.264-0.795-1.813c-0.305-0.548-0.639-1.021-1.004-1.421
	c-0.139,0.277-0.361,0.747-0.665,1.407c-0.305,0.661-0.565,1.209-0.783,1.645c-0.217,0.435-0.512,0.887-0.886,1.354
	c-0.374,0.471-0.779,0.818-1.213,1.044c-0.035,0-0.1-0.079-0.195-0.234c-0.096-0.156-0.188-0.218-0.274-0.184
	c0.191-0.765,0.695-1.825,1.512-3.181c0.817-1.356,1.339-2.383,1.565-3.078c1.026-0.121,1.921,0.188,2.686,0.926
	s1.313,1.695,1.643,2.869C35.729,14.922,35.834,16.153,35.711,17.438"/>
<path fill="#275668" d="M36.554,23.161c0.887-4.221,0.924-7.052,0.924-7.052c-0.019-0.188,0.797-1.369,1.199-2.335
	c0.383-0.922,0.581-1.873,0.651-2.829c0.053-0.017,0.116-0.052,0.194-0.104c0.078-0.052,0.152-0.086,0.224-0.104
	c0.067,0.019,0.135,0.035,0.194,0.052c0.062,0.019,0.113,0.035,0.156,0.053c0.043,0.019,0.096,0.05,0.156,0.093
	s0.104,0.073,0.131,0.091c0.025,0.019,0.068,0.057,0.131,0.116c0.062,0.063,0.101,0.093,0.117,0.093
	c0.018,0.139-0.006,0.282-0.064,0.43c-0.063,0.147-0.092,0.239-0.092,0.274c1.043-1.252,2.111-1.582,3.207-0.991
	c0.869,0.47,1.469,1.321,1.799,2.556c0.384,1.547,0.131,2.903-0.756,4.068c0.244-0.053,0.461-0.188,0.652-0.404
	c0.189-0.218,0.49-0.508,0.596-0.733c0.104-0.227,2.896-4.515,2.813-4.188c-0.746,2.97-1.811,4.727-2.209,5.3
	c-0.4,0.573-0.926,1.043-1.578,1.407c-0.65,0.365-1.338,0.63-2.061,0.796c-0.722,0.165-1.422,0.14-2.101-0.078
	c-0.678-0.218-1.207-0.621-1.59-1.213c0.713,0.191,1.36,0.195,1.942,0.015c0.582-0.185,1.078-0.535,1.486-1.059
	c0.408-0.521,0.717-1.095,0.926-1.721s0.295-1.286,0.26-1.981c-0.034-0.694-0.207-1.305-0.521-1.826
	c-0.956,0.384-1.757,0.982-2.399,1.8c-0.644,0.817-1.112,1.714-1.407,2.687c-0.295,0.975-0.57,2.063-0.822,3.261
	c-0.252,1.199-0.465,2.343-0.639,3.429c-0.175,1.088-0.847,3.104-1.267,4.192c-0.729,1.899-1.826,3.238-2.481,3.922
	c-0.264,0.274,0.403-2.232,0.267-2.893c-0.022-0.104,0.063-0.186,0.109-0.283C35.708,25.866,36.06,25.513,36.554,23.161"/>
<path fill="#275668" d="M52.083,11.153c-1.461,3.582-1.426,5.895,0.104,6.938c0.349-0.067,0.545-0.184,0.737-0.393
	c0.724-0.787,1.079-2.787,1.132-2.875c0.155-0.035,0.318,1.111,0.465,1.182c0.148,0.068,0.258,0.104,0.326,0.104
	c0.035,0.104,0.035,0.399,0,0.887c-0.678,1.443-1.582,2.086-2.711,1.93c-0.904-0.104-1.652-0.678-2.244-1.721
	c-0.766-1.321-0.869-2.748-0.313-4.276c0.086-0.208,0.184-0.418,0.287-0.627c-0.521,0.141-0.869,0.157-1.043,0.055
	c-0.227,0.729-0.404,1.268-0.535,1.616c-0.131,0.347-0.321,0.791-0.573,1.328c-0.252,0.54-0.526,0.992-0.821,1.357
	c-0.121,0.017-1.041-0.047-1.406,0.381c0.679-0.799,1.638-3.416,1.837-4.059c0.198-0.645,0.291-1.313,0.272-2.009
	c0.191-0.141,0.426-0.165,0.705-0.078c0.277,0.087,0.451,0.226,0.521,0.417c0.313,0.036,0.646-0.004,1.004-0.117
	c0.355-0.113,0.646-0.229,0.873-0.353c0.226-0.12,0.465-0.169,0.717-0.143S51.892,10.876,52.083,11.153"/>
<path fill="#275668" d="M58.577,15.247c1.72-2.99,1.666-3.135,1.535-2.906c-0.1,0.175-0.115,2.64-0.963,3.82
	c-0.361,0.501-0.685,0.986-1.058,1.396c-0.374,0.409-0.776,0.766-1.213,1.068c-0.437,0.307-0.873,0.405-1.315,0.3
	c-0.443-0.104-0.83-0.45-1.16-1.043c-0.229-0.521-0.371-1.047-0.432-1.577c-0.062-0.529-0.021-1.082,0.117-1.656
	c0.141-0.573,0.27-1.043,0.393-1.407c0.119-0.365,0.324-0.874,0.611-1.526c0.287-0.651,0.475-1.099,0.563-1.343
	c0.572,0.069,0.969,0.218,1.186,0.444c0.217,0.226,0.281,0.517,0.195,0.873c-0.086,0.355-0.238,0.744-0.457,1.16
	c-0.217,0.418-0.441,0.855-0.678,1.316c-0.233,0.461-0.42,0.908-0.561,1.343c-0.14,0.437-0.14,0.854,0,1.252
	c0.141,0.4,0.436,0.73,0.887,0.991C56.489,17.613,57.827,16.554,58.577,15.247 M57.167,7.606c-0.609,0.069-1-0.062-1.174-0.392
	c-0.018-0.226,0.031-0.474,0.145-0.741c0.112-0.271,0.16-0.5,0.143-0.692c0.505-0.365,0.888-0.295,1.148,0.209
	c0.242,0.452,0.242,0.896,0,1.33C57.358,7.442,57.272,7.538,57.167,7.606"/>
<path fill="#275668" d="M62.793,7.868c-0.035,0-0.054,0.018-0.054,0.052C62.774,7.938,62.793,7.92,62.793,7.868
	c0.644-0.33,1.351-0.604,2.125-0.821c0.772-0.218,1.59-0.287,2.451-0.209c0.86,0.077,1.508,0.388,1.942,0.927
	c0.156,0.66-0.174,1.13-0.99,1.407c-0.227-0.209-0.475-0.374-0.743-0.496C67.31,8.555,67,8.497,66.653,8.507
	c-0.35,0.01-0.656,0.021-0.926,0.039c-0.271,0.019-0.613,0.087-1.031,0.209s-0.717,0.213-0.898,0.273
	c-0.182,0.062-0.49,0.174-0.926,0.34c-0.436,0.164-0.68,0.256-0.73,0.272c-0.018,0.156-0.086,0.5-0.209,1.03
	c-0.121,0.53-0.213,0.964-0.272,1.304c-0.062,0.341-0.14,0.786-0.234,1.343c-0.096,0.558-0.153,1.041-0.17,1.448
	c-0.019,0.408-0.022,0.839-0.014,1.291c0.01,0.451,0.065,0.847,0.17,1.187c0.104,0.338,0.252,0.621,0.442,0.848
	c0.4,0.07,0.738,0.021,1.019-0.145c0.276-0.164,0.496-0.377,0.651-0.638c0.156-0.262,0.304-0.526,0.443-0.796
	c0.139-0.271,0.32-0.479,0.547-0.627c0.228-0.146,0.496-0.187,0.81-0.115c0,0.383-0.066,0.737-0.195,1.067
	c-0.131,0.331-0.271,0.583-0.418,0.756c-0.147,0.175-0.356,0.396-0.625,0.665c-0.271,0.271-0.465,0.475-0.588,0.612
	c-1.808,0.767-2.998,0.148-3.572-1.85c-0.436-1.582-0.436-3.461,0-5.634c0.121-0.627,0.269-1.155,0.443-1.592
	c-0.054,0-0.14-0.01-0.261-0.024c-0.123,0-0.219-0.005-0.287-0.015c-0.069-0.009-0.17-0.021-0.301-0.039
	c-0.129-0.018-0.229-0.034-0.299-0.053c-0.07-0.018-0.162-0.039-0.275-0.064C58.834,9.574,58.75,9.546,58.7,9.51
	c-0.053-0.034-0.119-0.073-0.197-0.116c-0.078-0.044-0.135-0.101-0.17-0.17c-0.033-0.068-0.064-0.144-0.09-0.223
	c-0.027-0.078-0.039-0.165-0.039-0.261s0.018-0.203,0.051-0.326c0.297-0.034,0.666,0.027,1.109,0.184s0.863,0.209,1.264,0.156
	c0.176-0.539,0.488-1.815,0.939-3.834c0.592-0.155,1.129-0.061,1.617,0.287C63.202,6.338,63.071,7.225,62.793,7.868"/>
<path fill="#275668" d="M42.515,27.539c0,0.792,0.43,0.813,0.93,0.813h0.156v0.293c-0.498,0-0.988-0.039-1.486-0.039
	c-0.537,0-1.064,0.039-1.623,0.039v-0.293h0.156c0.293,0,0.617-0.011,0.617-0.793v-4.673c0-0.653-0.188-0.771-0.656-0.771h-0.117
	V21.82c0.352,0,0.869,0.039,1.369,0.039c0.508,0,0.986-0.039,1.427-0.039c1.33,0,2.298,0.439,2.298,1.866
	c0,1.145-0.813,1.877-1.887,1.985c-0.303,0.02-0.557,0.02-0.782,0.02v-0.294h0.205c0.792,0,1.153-0.703,1.153-1.672
	c0-0.938-0.469-1.554-1.476-1.554h-0.284V27.539L42.515,27.539z"/>
<path fill="#275668" d="M47.825,27.246c-0.1,0.332-0.217,0.587-0.217,0.763c0,0.293,0.41,0.343,0.733,0.343h0.107v0.293
	c-0.392-0.021-0.794-0.039-1.185-0.039c-0.352,0-0.703,0.02-1.055,0.039v-0.293h0.059c0.381,0,0.703-0.226,0.851-0.636l1.563-4.486
	c0.127-0.362,0.303-0.852,0.361-1.212c0.313-0.108,0.705-0.304,0.891-0.422c0.029-0.011,0.049-0.02,0.078-0.02s0.049,0,0.068,0.029
	c0.027,0.077,0.059,0.166,0.088,0.243l1.799,5.112c0.117,0.343,0.234,0.705,0.361,0.998c0.117,0.273,0.322,0.392,0.645,0.392h0.06
	v0.293c-0.438-0.021-0.88-0.039-1.349-0.039c-0.479,0-0.969,0.02-1.467,0.039V28.35h0.107c0.225,0,0.605-0.039,0.605-0.283
	c0-0.127-0.089-0.392-0.195-0.704l-0.381-1.134h-2.221L47.825,27.246z M49.25,22.915h-0.021l-0.908,2.767h1.828L49.25,22.915z"/>
<path fill="#275668" d="M55.176,22.856c0-0.714-0.392-0.743-0.694-0.743h-0.176V21.82c0.313,0,0.92,0.039,1.516,0.039
	c0.587,0,1.057-0.039,1.574-0.039c1.231,0,2.326,0.332,2.326,1.72c0,0.881-0.586,1.418-1.359,1.723l1.672,2.502
	c0.273,0.41,0.471,0.527,0.949,0.587v0.293c-0.323,0-0.637-0.039-0.959-0.039c-0.303,0-0.615,0.039-0.918,0.039
	c-0.754-0.986-1.398-2.043-2.035-3.167h-0.646v2.092c0,0.753,0.353,0.782,0.804,0.782h0.176v0.293c-0.559,0-1.125-0.039-1.682-0.039
	c-0.47,0-0.929,0.039-1.418,0.039v-0.293h0.176c0.36,0,0.694-0.166,0.694-0.527V22.856z M56.426,25.124h0.479
	c0.978,0,1.507-0.371,1.507-1.523c0-0.87-0.56-1.428-1.429-1.428c-0.293,0-0.42,0.029-0.559,0.039L56.426,25.124L56.426,25.124z"/>
<path fill="#275668" d="M68.472,23.834c-0.273-0.948-0.724-1.729-2.189-1.729c-1.604,0-2.444,1.261-2.444,2.972
	c0,1.632,0.831,3.284,2.679,3.284c1.047,0,1.74-0.655,1.994-1.633l0.274,0.039c-0.127,0.528-0.196,1.056-0.245,1.584
	c-0.566,0.244-1.339,0.438-2.238,0.438c-2.199,0-3.832-1.201-3.832-3.656c0-2.188,1.77-3.459,3.783-3.459
	c1.145,0,1.516,0.352,2.434,0.487c-0.01,0.538,0.01,1.085,0.078,1.634L68.472,23.834z"/>
<path fill="#275668" d="M43.426,33.082l0.009-0.009v-1.788c0-0.39-0.271-0.448-0.414-0.448h-0.104v-0.142
	c0.224,0,0.442,0.019,0.667,0.019c0.195,0,0.391-0.019,0.586-0.019v0.142h-0.07c-0.201,0-0.424,0.039-0.424,0.606v2.168
	c0,0.167,0.004,0.334,0.027,0.48h-0.182l-2.453-2.734v1.963c0,0.415,0.08,0.558,0.447,0.558h0.082v0.144
	c-0.205,0-0.41-0.019-0.615-0.019c-0.215,0-0.435,0.019-0.648,0.019v-0.144h0.066c0.33,0,0.43-0.224,0.43-0.604v-2.006
	c0-0.268-0.219-0.431-0.434-0.431h-0.063v-0.142c0.183,0,0.367,0.019,0.548,0.019c0.145,0,0.281-0.019,0.426-0.019L43.426,33.082z"
	/>
<path fill="#275668" d="M45.39,33.339c-0.048,0.162-0.104,0.287-0.104,0.373c0,0.144,0.2,0.166,0.358,0.166h0.051v0.145
	c-0.189-0.012-0.385-0.021-0.575-0.021c-0.173,0-0.345,0.01-0.515,0.021v-0.145h0.026c0.187,0,0.345-0.108,0.415-0.31l0.764-2.188
	c0.062-0.178,0.146-0.416,0.176-0.592c0.152-0.053,0.344-0.146,0.435-0.205c0.015-0.004,0.022-0.01,0.038-0.01
	c0.014,0,0.023,0,0.033,0.014c0.014,0.039,0.029,0.082,0.043,0.121l0.877,2.492c0.057,0.166,0.113,0.342,0.176,0.485
	c0.057,0.133,0.157,0.189,0.314,0.189h0.029v0.145c-0.216-0.012-0.431-0.021-0.658-0.021c-0.233,0-0.473,0.01-0.715,0.021v-0.145
	h0.053c0.109,0,0.295-0.019,0.295-0.139c0-0.062-0.043-0.189-0.096-0.343l-0.187-0.553h-1.081L45.39,33.339z M46.085,31.229h-0.01
	l-0.443,1.349h0.893L46.085,31.229z"/>
<path fill="#275668" d="M48.735,30.933c-0.356,0-0.371,0.086-0.442,0.435h-0.144c0.02-0.134,0.043-0.267,0.058-0.405
	c0.019-0.134,0.028-0.267,0.028-0.405h0.115c0.037,0.144,0.155,0.14,0.284,0.14h2.46c0.129,0,0.247-0.005,0.258-0.148l0.113,0.02
	c-0.02,0.13-0.037,0.258-0.053,0.387c-0.01,0.129-0.01,0.257-0.01,0.386l-0.143,0.053c-0.011-0.177-0.035-0.457-0.354-0.457h-0.781
	v2.535c0,0.366,0.166,0.409,0.395,0.409h0.092v0.144c-0.186,0-0.521-0.02-0.776-0.02c-0.286,0-0.62,0.02-0.806,0.02v-0.144h0.091
	c0.262,0,0.396-0.022,0.396-0.399v-2.545h-0.781V30.933z"/>
<path fill="#275668" d="M52.047,33.878h0.067c0.171,0,0.353-0.022,0.353-0.271v-2.498c0-0.248-0.182-0.271-0.353-0.271h-0.067
	v-0.144c0.187,0,0.474,0.02,0.705,0.02c0.239,0,0.524-0.02,0.75-0.02v0.144h-0.067c-0.172,0-0.353,0.022-0.353,0.271v2.498
	c0,0.248,0.181,0.271,0.353,0.271h0.067v0.144c-0.229,0-0.517-0.02-0.754-0.02c-0.233,0-0.515,0.02-0.701,0.02V33.878z"/>
<path fill="#275668" d="M55.976,30.622c1.016,0,1.824,0.631,1.824,1.646c0,1.097-0.787,1.824-1.802,1.824
	c-1.011,0-1.782-0.688-1.782-1.711C54.216,31.391,54.983,30.622,55.976,30.622 M56.046,33.883c0.924,0,1.086-0.814,1.086-1.511
	s-0.376-1.539-1.167-1.539c-0.834,0-1.082,0.744-1.082,1.382C54.883,33.067,55.274,33.883,56.046,33.883"/>
<path fill="#275668" d="M61.608,33.082l0.01-0.009v-1.788c0-0.39-0.271-0.448-0.414-0.448h-0.105v-0.142
	c0.226,0,0.443,0.019,0.668,0.019c0.195,0,0.392-0.019,0.586-0.019v0.142H62.28c-0.199,0-0.424,0.039-0.424,0.606v2.168
	c0,0.167,0.006,0.334,0.027,0.48h-0.181l-2.454-2.734v1.963c0,0.415,0.081,0.558,0.447,0.558h0.08v0.144
	c-0.205,0-0.409-0.019-0.614-0.019c-0.213,0-0.433,0.019-0.647,0.019v-0.144h0.067c0.328,0,0.429-0.224,0.429-0.604v-2.006
	c0-0.268-0.219-0.431-0.435-0.431h-0.062v-0.142c0.18,0,0.366,0.019,0.547,0.019c0.145,0,0.281-0.019,0.424-0.019L61.608,33.082z"/>
<path fill="#275668" d="M63.573,33.339c-0.047,0.162-0.105,0.287-0.105,0.373c0,0.144,0.199,0.166,0.357,0.166h0.053v0.145
	c-0.189-0.012-0.387-0.021-0.576-0.021c-0.172,0-0.344,0.01-0.516,0.021v-0.145h0.027c0.188,0,0.346-0.108,0.416-0.31l0.764-2.188
	c0.063-0.178,0.146-0.416,0.176-0.592c0.152-0.053,0.344-0.146,0.434-0.205c0.015-0.004,0.023-0.01,0.039-0.01
	c0.014,0,0.021,0,0.032,0.014c0.015,0.039,0.028,0.082,0.043,0.121l0.878,2.492c0.057,0.166,0.113,0.342,0.176,0.485
	c0.058,0.133,0.156,0.189,0.314,0.189h0.027v0.145c-0.213-0.012-0.43-0.021-0.658-0.021c-0.232,0-0.471,0.01-0.713,0.021v-0.145
	h0.051c0.111,0,0.297-0.019,0.297-0.139c0-0.062-0.043-0.189-0.096-0.343l-0.188-0.553h-1.08L63.573,33.339z M64.269,31.229h-0.011
	l-0.442,1.349h0.891L64.269,31.229z"/>
<path fill="#275668" d="M67.767,33.554c0,0.19,0.133,0.247,0.287,0.268c0.193,0.014,0.408,0.014,0.629-0.01
	c0.198-0.023,0.371-0.14,0.457-0.258c0.075-0.105,0.118-0.238,0.146-0.344h0.138c-0.052,0.272-0.118,0.538-0.176,0.811
	c-0.419,0-0.839-0.02-1.259-0.02s-0.84,0.02-1.258,0.02v-0.144h0.066c0.172,0,0.357-0.022,0.357-0.317v-2.451
	c0-0.246-0.186-0.271-0.357-0.271h-0.066v-0.144c0.252,0,0.5,0.02,0.752,0.02c0.244,0,0.481-0.02,0.726-0.02v0.144H68.09
	c-0.181,0-0.323,0.004-0.323,0.258V33.554z"/>
<path fill="#F19005" d="M26.306,30.246l0.037,0.04l0.041-0.038C26.347,30.208,26.306,30.246,26.306,30.246"/>
<path fill="#F19005" d="M33.106,26.575c0.037,0.039,0.037,0.039,0.075,0.08C33.147,26.536,33.147,26.536,33.106,26.575"/>
<polygon fill="#F19005" points="20.443,21.169 20.44,21.247 20.481,21.21 "/>
<path fill="#F19005" d="M34.068,25.942c0.007-0.185-0.081-0.277-0.074-0.457c-0.093,0.086-0.181-0.008-0.276,0.08
	c-0.081-0.278-0.081-0.278-0.318-1.287c0.088,0.094,0.088,0.094,0.183,0.006c-0.333-0.543-0.858-0.579-1.208-0.926
	c0.037-0.015,0.072-0.029,0.107-0.063c0.002-0.078-0.035-0.119-0.033-0.196c0.079,0.004,0.12-0.035,0.198-0.031
	c0.038,0.041,0.038,0.041,0.035,0.119c0.041-0.039,0.041-0.039,0.081-0.076l0.003-0.078c0.2-0.11,0.241-0.148,0.322-0.223
	c0.003-0.08-0.073-0.16-0.07-0.238c0.281-0.188,0.319-0.146,0.212-0.424c-0.076-0.08-0.235-0.009-0.354,0.024
	c0.002-0.076-0.036-0.117-0.073-0.157l-0.078-0.005c0,0-0.037-0.039,0.003-0.075c-0.079-0.005-0.079-0.005-0.119,0.031
	c0.003-0.077-0.035-0.117-0.073-0.158c-0.078-0.002-0.078-0.002-0.119,0.035c-0.075-0.082-0.11-0.199-0.186-0.281
	c-0.158,0.071-0.28,0.187-0.559,0.293c0.038,0.041,0.038,0.041,0.035,0.119c-0.119,0.034-0.239,0.069-0.357,0.104
	c0.069,0.238,0.029,0.277,0.06,0.474c0,0-0.04,0.038-0.077-0.003c0.002-0.077,0.009-0.233,0.011-0.313
	c-0.038-0.041-0.078-0.004-0.078-0.004c-0.038-0.041-0.038-0.041-0.035-0.117c-0.119,0.033-0.119,0.033-0.078-0.004l0.04-0.037
	c0.003-0.08,0.006-0.156-0.07-0.238c-0.075-0.081-0.075-0.081-0.072-0.16c0.115,0.044,0.194,0.048,0.352,0.054
	c-0.074-0.16-0.152-0.162-0.227-0.244c-0.119,0.035-0.16,0.074-0.319,0.146c0.037,0.041-0.004,0.079-0.006,0.155
	c-0.038-0.039-0.075-0.079-0.113-0.12L30.697,21.7c-0.038-0.039-0.038-0.039-0.116-0.041c-0.076-0.082-0.035-0.12-0.07-0.239
	c-0.04,0.038-0.165,0.229-0.168,0.309c-0.078-0.002-0.078-0.002-0.198,0.031c-0.037-0.041-0.037-0.041-0.075-0.08
	c-0.077-0.004-0.118,0.034-0.237,0.069c-0.038-0.041-0.076-0.082-0.116-0.045c0.04-0.037,0.04-0.037,0.081-0.075
	c-0.076-0.081-0.076-0.081-0.151-0.162c-0.003,0.078-0.003,0.078-0.006,0.156c-0.041,0.038-0.079-0.002-0.119,0.036
	c-0.003,0.078-0.003,0.078,0.035,0.119c-0.154-0.086-0.194-0.047-0.392-0.015c0.038,0.04,0.038,0.04,0.075,0.08
	c-0.077-0.003-0.118,0.035-0.196,0.031c-0.038-0.04,0.081-0.075,0.125-0.19l-0.079-0.002c0.041-0.039,0.041-0.039,0.082-0.076
	c-0.108-0.279-0.187-0.281-0.378-0.406c0.041-0.037,0.081-0.075,0.159-0.072c-0.04,0.038-0.002,0.078-0.002,0.078
	c0.04-0.038,0.119-0.034,0.119-0.034c0.002-0.079-0.036-0.118-0.074-0.159c0.042-0.038,0.042-0.038,0.082-0.075
	c-0.037-0.041-0.034-0.119-0.072-0.16c0,0-0.041,0.039-0.081,0.076c-0.004,0.078-0.006,0.156,0.031,0.196
	c-0.078-0.003-0.078-0.003-0.235-0.009c-0.185-0.281-0.371-0.562-0.516-0.882c-0.081,0.076-0.159,0.072-0.278,0.107
	c0.035,0.118,0.106,0.278,0.139,0.477c-0.038-0.041-0.078-0.004-0.078-0.004c-0.041,0.037-0.041,0.037-0.003,0.078
	c0.081-0.074,0.081-0.074,0.237-0.069c-0.002,0.079-0.002,0.079,0.032,0.198c0.079,0.002,0.157,0.006,0.236,0.008
	c0,0,0.037,0.039-0.004,0.078c0.041-0.039,0.041-0.039,0.12-0.034c-0.045,0.116-0.047,0.194-0.009,0.235l-0.786,0.049
	c-0.032-0.197-0.067-0.316-0.14-0.475c-0.116-0.045-0.194-0.049-0.275,0.026c-0.043,0.115-0.085,0.154-0.165,0.23
	c-0.038-0.041-0.038-0.041-0.076-0.082l-0.04,0.037c-0.038-0.041-0.038-0.041-0.076-0.08c-0.005,0.156-0.008,0.233-0.09,0.31
	l-0.433,0.024c0.048-0.195-0.066-0.317-0.379-0.328c0.037,0.041,0.037,0.041,0.075,0.082c-0.04,0.037-0.04,0.037-0.118,0.033
	c0.002-0.078,0.005-0.156,0.005-0.156c0.04-0.037,0.081-0.075,0.122-0.113c-0.037-0.04-0.035-0.119-0.032-0.197
	c0,0,0.078,0.004,0.119-0.034c0,0-0.038-0.039-0.035-0.117c-0.04,0.037-0.081,0.074-0.159,0.071c0,0-0.038-0.041,0.002-0.077
	c0.041-0.039,0.041-0.039,0.043-0.117c-0.04,0.037-0.04,0.037-0.081,0.076c0.004-0.078-0.035-0.119-0.032-0.197
	c0.198-0.032,0.315,0.011,0.508,0.058c-0.035-0.118,0.009-0.234-0.026-0.354c-0.116-0.043-0.116-0.043-0.113-0.121
	c0.041-0.039-0.238,0.068-0.247,0.305c-0.159,0.072-0.278,0.107-0.429-0.055l-0.04,0.037c-0.038-0.041-0.076-0.082-0.035-0.119
	c0,0-0.041,0.037-0.078-0.004c0.037,0.041,0.075,0.082,0.035,0.119c-0.041,0.039-0.041,0.039-0.082,0.076
	c-0.003,0.077-0.006,0.156,0.032,0.197c0.197-0.032,0.273,0.048,0.427,0.133c-0.041,0.037-0.082,0.075-0.123,0.113
	c0,0-0.037-0.04-0.076-0.082l-0.04,0.038c-0.002,0.078,0.073,0.16,0.071,0.236l-0.041,0.039c-0.041,0.037-0.003,0.078-0.006,0.157
	c-0.159,0.071-0.162,0.149-0.322,0.224l0.038,0.041l-0.354,0.023c-0.035-0.117-0.07-0.236-0.067-0.314
	c-0.041,0.037-0.041,0.037-0.081,0.076L24.994,21.1c-0.081,0.074-0.119,0.033-0.276,0.028c0.037,0.04-0.003,0.077,0.035,0.118
	l-0.627-0.021c0.119-0.035,0.122-0.113,0.088-0.232c0.119-0.035,0.197-0.032,0.275-0.029c-0.038-0.041-0.075-0.081-0.113-0.122
	c0.087-0.23,0.166-0.229,0.403-0.299c0.041-0.037,0.041-0.037,0.081-0.075c0.116,0.045,0.195,0.047,0.27,0.128l0.041-0.037
	c0.002-0.078,0.002-0.078,0.281-0.188c0.006-0.155-0.108-0.277-0.18-0.437l-0.041,0.038l-0.002,0.076
	c-0.038-0.04-0.078-0.003-0.157-0.006l0.003-0.078c-0.079-0.003-0.116-0.044-0.116-0.044L25,19.884c0,0-0.037-0.04,0.003-0.075
	c-0.04,0.035-0.118,0.032-0.118,0.032c0.031,0.198,0.028,0.275-0.097,0.47c-0.194-0.048-0.278,0.104-0.475,0.139
	c-0.116-0.043-0.114-0.123-0.107-0.278c-0.16,0.071-0.125,0.19-0.206,0.268c-0.038-0.041-0.076-0.082-0.113-0.121
	c0.035,0.119,0.072,0.158,0.069,0.236c-0.159,0.072-0.278,0.106-0.287,0.344c-0.119,0.033-0.235-0.01-0.354,0.023
	c-0.31-0.089-0.394,0.065-0.6,0.332l-0.038-0.041c-0.156-0.006-0.194-0.046-0.548-0.021c-0.075-0.08-0.075-0.08-0.116-0.043
	l0.035,0.119l-1.607-0.021L4.782,21.216c-0.194-0.047-1.494,0.103-1.494,0.103C1.391,21.72-0.004,23.394,0,25.433
	c-0.034,1.998,1.481,4.12,3.898,4.12c0,0,0.498,0.009,1.588,0.007c1.09-0.002,12.488,0.105,12.488,0.105
	c0.038,0.04-0.003,0.077-0.003,0.077l0.079,0.005l-0.038-0.042l0.786-0.049c-0.082,0.076-0.122,0.113-0.203,0.188
	c0.067,0.315,0.299,0.403,0.488,0.606c-0.081,0.074-0.161,0.072-0.279,0.107c0.037,0.039,0.037,0.039,0.036,0.117
	c0.04-0.035,0.158-0.07,0.199-0.109c-0.003,0.078,0.035,0.119,0.072,0.16c0.277-0.029,0.279-0.109,0.511-0.021
	c0.041-0.038,0.003-0.078-0.035-0.119c0.041-0.038,0.079,0.003,0.079,0.003c0.041-0.038,0.003-0.079,0.003-0.079
	c0.078,0.004,0.078,0.004,0.116,0.045c0.122-0.113,0.122-0.113,0.203-0.189c0,0-0.038-0.039-0.035-0.118
	c-0.239,0.069-0.435,0.104-0.673,0.172c-0.229-0.166-0.462-0.253-0.609-0.493c0.041-0.037,0.081-0.073,0.121-0.112l-0.002,0.078
	c0.554-0.138,1.244,0.28,1.801,0.065c0.041-0.038,0.041-0.038,0.043-0.116c0.038,0.041,0.116,0.043,0.157,0.006
	c0.034,0.118-0.044,0.116-0.122,0.112c-0.002,0.079,0.035,0.119,0.073,0.16c-0.16,0.072-0.317,0.066-0.473,0.062
	c-0.037-0.039-0.037-0.039,0.003-0.078c-0.119,0.035-0.119,0.035-0.16,0.072c0.038,0.041,0.079,0.004,0.079,0.004
	c-0.006,0.155-0.047,0.193-0.128,0.27c-0.003,0.078,0.035,0.119,0.111,0.199c0.197-0.031,0.238-0.068,0.388,0.094
	c0,0,0.04-0.039,0.078,0.002c0.047-0.194,0.087-0.23,0.168-0.307c0.003-0.078,0.003-0.078-0.035-0.119l-0.04,0.037l-0.037-0.039
	c0.156,0.004,0.234,0.008,0.391,0.014c0.127-0.27,1.047,0.313,1.03-0.275c0.118-0.034,0.237-0.069,0.356-0.104
	c-0.034-0.119,0.046-0.194,0.087-0.232l0.511-0.02l0.035,0.117c0.04-0.037,0.04-0.037,0.081-0.074l0.002-0.078l0.158,0.006
	l0.034,0.119c0,0,0.041-0.038,0.079,0.002l-0.035-0.118l0.235,0.009c-0.041,0.037-0.041,0.037-0.081,0.074
	c0,0,0.037,0.041-0.004,0.079c-0.081,0.075-0.084,0.153-0.089,0.313c-0.038-0.041-0.078-0.005-0.119,0.034
	c-0.113-0.122-0.189-0.204-0.302-0.325c-0.041,0.037-0.078-0.004-0.119,0.034c0.003-0.077-0.034-0.118-0.072-0.159l-0.041,0.039
	c-0.046,0.192-0.05,0.271-0.017,0.469c0.078,0.002,0.116,0.043,0.153,0.084l-0.04,0.037c0,0-0.003,0.08,0.034,0.119
	c0.041-0.037,0.082-0.074,0.082-0.074c0.04-0.039,0.003-0.08,0.006-0.158c0.037,0.041,0.077,0.004,0.118-0.034
	c-0.003,0.079-0.003,0.079,0.035,0.12l-0.078-0.004c-0.003,0.078,0.035,0.119-0.005,0.156c0.04-0.037,0.04-0.037,0.162-0.149
	l-0.038-0.041c0.079,0.003,0.119-0.035,0.16-0.072c-0.003,0.077,0.035,0.118,0.072,0.158c-0.04,0.038-0.081,0.075-0.081,0.075
	c0.035,0.121,0.076,0.082,0.154,0.085c0.038,0.04,0.075,0.081,0.075,0.081s0.041-0.038,0.079,0.003l-0.003,0.077
	c-0.158-0.004-0.158-0.004-0.27-0.125c-0.119,0.033-0.119,0.033-0.122,0.113c0.003-0.08-0.035-0.121-0.035-0.121
	c-0.235-0.008-0.235-0.008-0.507-0.059c0.043-0.115,0.043-0.115-0.029-0.273c-0.23-0.166-0.316,0.064-0.322,0.223
	c-0.079-0.004-0.157-0.006-0.235-0.01l-0.003,0.08c0.116,0.043,0.116,0.043,0.276-0.029c0.072,0.158,0.191,0.124,0.266,0.205
	c0.079,0.003,0.157,0.007,0.235,0.009l-0.003,0.078c-0.04,0.038-0.081,0.075-0.118,0.034c0.075,0.082,0.113,0.123,0.188,0.203
	c0.041-0.037,0.041-0.037,0.119-0.033c0.003-0.079,0.006-0.156,0.008-0.236c0.039,0.042,0.039,0.042,0.076,0.082l0.078,0.004
	c-0.084,0.152-0.084,0.152-0.049,0.271c0.081-0.075,0.16-0.072,0.279-0.107c0.04-0.036,0.002-0.077,0.002-0.077
	c0.082-0.076,0.435-0.103,0.552-0.06c0.038,0.041,0.038,0.041-0.004,0.078c0.079,0.002,0.119-0.034,0.119-0.034
	c0.038,0.04,0.038,0.04,0.076,0.081c0.081-0.075,0.081-0.075,0.24-0.147c0.004-0.078-0.072-0.16-0.069-0.238
	c-0.55,0.059-0.55,0.059-0.588,0.019c0.399-0.222,0.322-0.224,0.22-0.658c0.078,0.003,0.078,0.003,0.041-0.037
	c-0.079-0.004-0.079-0.004-0.236-0.01c-0.035-0.117-0.073-0.158-0.111-0.199c0.042-0.039,0.042-0.039,0.12-0.035l0.156,0.006
	c0.116,0.043,0.192,0.125,0.348,0.131c-0.04,0.037-0.043,0.115-0.084,0.154c0.078,0.002,0.078,0.002,0.119-0.035
	c0.073,0.16,0.073,0.16,0.14,0.476c0.037,0.04-0.003,0.077-0.003,0.077l-0.037-0.04c-0.038-0.041-0.08-0.003-0.08-0.003
	c0.036,0.119,0.073,0.16,0.108,0.279l0.041-0.039c0.037,0.041,0.075,0.082,0.072,0.16l0.041-0.037l0.038,0.041
	c0.078,0.002,0.119-0.037,0.159-0.074c-0.073-0.158-0.07-0.237-0.183-0.358c0.04-0.037,0.044-0.115,0.008-0.234l0.041-0.037
	c-0.038-0.041-0.078-0.004-0.156-0.006c0.002-0.078,0.002-0.078,0.006-0.156c0.041-0.039,0.081-0.076,0.159-0.073
	c-0.037-0.041,0.004-0.078-0.034-0.118c0.04-0.038,0.078,0.003,0.078,0.003l-0.036-0.119l0.746-0.013
	c-0.002,0.078-0.002,0.078,0.036,0.119c0.037,0.039,0.077,0.002,0.155,0.006c0.038,0.04,0.036,0.119,0.073,0.158
	c0.04-0.036,0.12-0.033,0.16-0.07l0.037,0.039l0.041-0.037c0.075,0.081,0.075,0.081,0.148,0.24c0.079,0.003,0.079,0.003,0.157,0.007
	c0,0-0.003,0.077,0.034,0.117l0.041-0.037c0.038,0.041,0.038,0.041,0.035,0.119c0.041-0.037,0.119-0.035,0.119-0.035
	c0.04-0.037,0.003-0.077,0.003-0.077l0.041-0.038c-0.004,0.078,0.034,0.119,0.032,0.196c0.078,0.003,0.078,0.003,0.118-0.034
	c0.038,0.041-0.003,0.077-0.003,0.077c0.276-0.026,0.314,0.013,0.424,0.213c0.079,0.004,0.119-0.034,0.197-0.03
	c0.035,0.118,0.07,0.235,0.186,0.281c-0.003,0.076-0.005,0.154,0.03,0.272L27.565,31.2c-0.003,0.078-0.003,0.078,0.034,0.119
	c0.088-0.232,0.125-0.192,0.363-0.262c0.072,0.159,0.229,0.165,0.38,0.326c0.079,0.004,0.157,0.007,0.235,0.01
	c0.003-0.078-0.032-0.197-0.029-0.275c0.078,0.002,0.078,0.002,0.119-0.035c-0.037-0.04-0.075-0.081-0.035-0.118
	c-0.119,0.034-0.197,0.032-0.238,0.069c-0.15-0.162-0.226-0.244-0.501-0.215c-0.152-0.162-0.262-0.361-0.413-0.524
	c0,0-0.037-0.041-0.078-0.003c0.038,0.039,0.075,0.08,0.114,0.121c-0.041,0.039-0.041,0.039-0.12,0.035
	c0.003-0.078-0.035-0.119-0.072-0.158c0.003-0.079,0.043-0.117,0.046-0.194c0.04-0.037,0.119-0.035,0.159-0.072l0.003-0.078
	c-0.078-0.004-0.118,0.034-0.16,0.072c-0.072-0.16-0.109-0.199-0.145-0.32l0.158,0.006c0.037,0.041,0.077,0.004,0.156,0.006
	l0.902-0.006c-0.04,0.039-0.16,0.074-0.2,0.111c0.035,0.118,0.07,0.236,0.107,0.276c0.039,0.041,0.116,0.044,0.154,0.085
	c-0.002,0.078,0.032,0.196,0.07,0.237c0.156,0.006,0.275-0.028,0.432-0.022c-0.003,0.078,0.035,0.119,0.032,0.196l-0.041,0.037
	c0.075,0.082,0.075,0.082,0.113,0.123c0.041-0.037,0.041-0.037,0.082-0.075l-0.003,0.077c0.081-0.075,0.081-0.075,0.125-0.19
	c0.038,0.041,0.075,0.081,0.113,0.122l0.04-0.037c0.117,0.043,0.192,0.124,0.308,0.167c-0.041,0.038-0.003,0.079-0.044,0.116
	c-0.04,0.037-0.118,0.034-0.159,0.072c-0.003,0.078,0.032,0.197,0.028,0.275c0.157,0.006,0.277-0.029,0.355-0.027
	c0.006-0.155,0.128-0.269,0.284-0.264c0.038,0.041,0.075,0.082,0.113,0.123c0.041-0.039,0.081-0.076,0.122-0.113
	c0.038,0.039,0.076,0.08,0.154,0.084c-0.038-0.041-0.038-0.041-0.035-0.119c-0.153-0.084-0.153-0.084-0.226-0.243
	c0.078,0.003,0.157,0.006,0.197-0.031c-0.038-0.04-0.035-0.119-0.073-0.16c-0.038-0.041-0.078-0.003-0.116-0.043
	c-0.035-0.119-0.032-0.197,0.012-0.313c-0.04,0.037-0.081,0.074-0.119,0.033c-0.003,0.08-0.047,0.194-0.049,0.273
	c-0.079-0.003-0.16,0.071-0.238,0.069l0.037,0.039c-0.159,0.074-0.199,0.111-0.312-0.01c0.04-0.039,0.118-0.035,0.159-0.074
	c-0.111-0.199-0.111-0.199-0.148-0.239c-0.079-0.003-0.119,0.034-0.238,0.069c0.038,0.041,0.035,0.119,0.072,0.16
	c-0.194-0.047-0.307-0.168-0.504-0.137c-0.038-0.041,0.003-0.078,0.003-0.078s0.04-0.037,0.081-0.076c0,0,0.003-0.078-0.035-0.119
	c0.078,0.004,0.157,0.007,0.197-0.031l0.076,0.081c0.003-0.078,0.046-0.193,0.049-0.271c0.113,0.121,0.113,0.121,0.151,0.162
	c0.118-0.035,0.238-0.07,0.319-0.146c0.002-0.079-0.032-0.198-0.067-0.315c0,0-0.04,0.036-0.119,0.033
	c0.041-0.037,0.041-0.037,0.003-0.078c-0.16,0.073-0.2,0.11-0.284,0.266l-0.037-0.041c0.005-0.156,0.008-0.235-0.065-0.396
	c-0.081,0.075-0.159,0.072-0.24,0.148c-0.076-0.082-0.11-0.201-0.186-0.283l0.04-0.036l0.004-0.078
	c-0.041,0.038-0.081,0.075-0.12,0.034c0,0-0.037-0.041-0.075-0.081c-0.041,0.038-0.003,0.077-0.044,0.116l-0.038-0.041l-0.034-0.118
	l0.038,0.041c-0.038-0.041,0.003-0.079,0.003-0.079l-0.038-0.041l0.002-0.077c0.16-0.072,0.279-0.107,0.401-0.221
	c-0.003,0.077,0.034,0.118,0.072,0.159l-0.078-0.004c0,0-0.041,0.039-0.003,0.078l0.041-0.037c0.113,0.121,0.107,0.279,0.26,0.362
	c0.004-0.077,0.004-0.077-0.028-0.274c0.038,0.039,0.078,0.002,0.078,0.002c0.003-0.077,0.009-0.233,0.011-0.313
	c0.041-0.038,0.041-0.038,0.12-0.034l0.037,0.041c0,0,0.079,0.002,0.119-0.035c-0.038-0.041-0.038-0.041-0.035-0.119
	c0,0,0.078,0.002,0.119-0.035l-0.037-0.04c0.04-0.037,0.04-0.037,0.147,0.241c-0.041,0.037-0.041,0.037-0.081,0.074
	c0,0,0.037,0.041,0.036,0.119c0.04-0.037,0.04-0.037,0.08-0.074c0.038,0.039,0.038,0.039,0.035,0.119
	c0.04-0.039,0.119-0.035,0.16-0.074c-0.003,0.078,0.034,0.119,0.034,0.119c0.038,0.041,0.079,0.002,0.079,0.002
	c0.038,0.041,0.038,0.041-0.003,0.08c0.078,0.002,0.119-0.035,0.159-0.074c-0.003,0.08-0.003,0.08,0.035,0.121
	c-0.04,0.037-0.119,0.033-0.119,0.033c-0.003,0.079,0.072,0.16,0.07,0.237c0.078,0.004,0.119-0.034,0.16-0.072
	c-0.038-0.04,0.002-0.077,0.005-0.155c0,0,0.079,0.002,0.157,0.004l0.003-0.078c0.159-0.072,0.316-0.065,0.472-0.059
	c0,0,0.041-0.039,0.003-0.08c-0.078-0.002-0.078-0.002-0.156-0.006c0.04-0.037,0.081-0.074,0.159-0.072l0.003-0.078
	c0.041-0.037,0.082-0.075,0.122-0.113c0.041-0.036,0.002-0.077,0.006-0.156c0,0,0.078,0.003,0.119-0.034
	c0.002-0.078,0.002-0.078,0.005-0.156c0,0,0.041-0.039,0.079,0.002c-0.032-0.197-0.067-0.315-0.062-0.473
	c0.081-0.076,0.081-0.076,0.087-0.232c0.017,0.002,0.03,0.002,0.04,0.002c0.021,0.014,0.042,0.025,0.063,0.039
	c-0.009,0.091,0.024,0.178,0.083,0.242c0.078,0.002,0.116,0.043,0.157,0.004c0.023-0.063,0.033-0.114,0.028-0.174
	c0.101-0.055,0.251-0.076,0.411-0.224c0.006-0.179-0.159-0.362-0.243-0.631c0.023,0.009,0.046,0.019,0.076,0.019
	c0.001-0.031-0.006-0.054-0.012-0.078c0.097-0.043,0.226-0.054,0.3-0.123c-0.019-0.02-0.031-0.045-0.043-0.07
	c0.035,0.008,0.076,0.011,0.118,0.013c-0.038-0.041,0.003-0.08-0.035-0.119c-0.031,0.027-0.079,0.025-0.119,0.01
	c-0.007-0.021-0.014-0.041-0.021-0.063c0.073-0.008,0.159-0.025,0.221-0.023c0.038,0.041,0.035,0.119,0.035,0.119
	c0.054,0.002,0.07,0.002,0.075,0.002c0.015,0.018,0.03,0.034,0.045,0.051c0,0,0.058,0,0.124-0.012
	c0.02,0.066,0.041,0.137,0.061,0.205l-0.041,0.038l-0.002,0.078c0.04-0.037,0.118-0.035,0.197-0.032l0.037,0.04l0.041-0.038
	c0.003-0.076,0.003-0.076-0.035-0.117c0.04-0.037,0.003-0.078,0.043-0.115c0.003-0.079-0.034-0.12-0.069-0.237
	c0.037,0.039,0.078,0.002,0.078,0.002l0.003-0.078c-0.079-0.004-0.079-0.004-0.157-0.006l-0.002-0.005
	c-0.004-0.104-0.021-0.2-0.077-0.262C33.349,25.735,33.703,25.929,34.068,25.942 M31.577,23.707
	c-0.003-0.005-0.009-0.011-0.011-0.013c0.01,0,0.018-0.004,0.027-0.006C31.588,23.694,31.583,23.7,31.577,23.707 M32.166,23.362
	l0.038,0.041c0.021-0.006,0.04-0.01,0.058-0.015c-0.027,0.019-0.055,0.038-0.084,0.052C32.165,23.403,32.166,23.362,32.166,23.362
	 M32.276,26.305c-0.011-0.024-0.023-0.049-0.04-0.065c0.014-0.014,0.023-0.021,0.033-0.03c0.022,0.002,0.044,0,0.065,0.022
	c0.002-0.037,0.003-0.058,0.003-0.066c0.036-0.012,0.081-0.012,0.176-0.008c-0.002,0.047,0.002,0.086,0.011,0.123
	C32.457,26.287,32.389,26.293,32.276,26.305 M32.603,26.438L32.603,26.438c0.004,0.002,0.006,0.006,0.008,0.008L32.603,26.438z"/>
<path fill="#F19005" d="M31.141,28.854c0.041-0.037,0.041-0.037,0.003-0.078l-0.041,0.037L31.141,28.854z"/>
<path fill="#F19005" d="M21.987,30.401l0.038,0.041c0.077,0.002,0.077,0.002,0.156,0.004c-0.038-0.039-0.038-0.039-0.075-0.08
	C22.065,30.403,22.027,30.364,21.987,30.401"/>
<path fill="#F19005" d="M25.107,30.829c0.037,0.041,0.076,0.082,0.15,0.162c0.041-0.037,0.12-0.033,0.16-0.072
	c0.038,0.041,0.038,0.041,0.076,0.082c-0.078-0.004-0.119,0.035-0.119,0.035c-0.044,0.115-0.044,0.115-0.087,0.23
	c-0.037-0.04-0.037-0.04-0.075-0.081c-0.041,0.038-0.119,0.036-0.198,0.031c-0.002,0.078,0.036,0.119,0.036,0.119l0.078,0.002
	c0.037,0.041,0.035,0.119,0.035,0.119l0.078,0.004c-0.038-0.041-0.076-0.082-0.035-0.119c0.081-0.075,0.116,0.044,0.153,0.084
	c0.079,0.003,0.12-0.034,0.198-0.03c-0.035-0.12-0.032-0.197-0.029-0.275c0.038,0.039,0.038,0.039,0.156,0.004l0.041-0.037
	c0.041-0.037,0.119-0.035,0.16-0.071c0.005-0.156-0.03-0.275-0.142-0.396c-0.08-0.004-0.117-0.043-0.195-0.047
	c0.037,0.041,0.035,0.118,0.073,0.159c-0.04,0.038-0.079-0.004-0.12,0.034c-0.034-0.118-0.034-0.118-0.113-0.121
	c-0.156-0.006-0.315,0.065-0.475,0.139c0.038,0.041,0.075,0.082,0.073,0.159C25.027,30.905,25.066,30.868,25.107,30.829"/>
<path fill="#FFFFFF" d="M7.563,24.28c-0.187-0.647-0.494-1.182-1.496-1.182c-1.096,0-1.67,0.86-1.67,2.029
	c0,1.116,0.568,2.245,1.83,2.245c0.715,0,1.189-0.448,1.363-1.116l0.187,0.026c-0.087,0.361-0.134,0.722-0.167,1.082
	c-0.388,0.168-0.915,0.302-1.53,0.302c-1.503,0-2.618-0.821-2.618-2.499c0-1.496,1.209-2.363,2.585-2.363
	c0.781,0,1.035,0.239,1.663,0.334c-0.007,0.366,0.007,0.74,0.053,1.114L7.563,24.28z"/>
<path fill="#FFFFFF" d="M10.709,26.832c-0.267,0.468-0.721,0.835-1.282,0.835c-0.842,0-1.296-0.772-1.296-1.536
	c0-0.842,0.568-1.663,1.476-1.663c0.688,0,1.062,0.509,1.049,1.171l-0.08,0.071H8.772c0,0.683,0.314,1.355,1.036,1.355
	c0.32,0,0.581-0.119,0.794-0.359L10.709,26.832z M9.547,25.51c0.361,0,0.414-0.008,0.414-0.247c0-0.255-0.167-0.556-0.467-0.556
	c-0.408,0-0.635,0.39-0.709,0.803H9.547z M8.859,23.88l0.982-0.987c0.06-0.062,0.18-0.16,0.274-0.16
	c0.167,0,0.234,0.094,0.234,0.254c0,0.1-0.121,0.207-0.194,0.246L9.126,23.88H8.859z"/>
<path fill="#FFFFFF" d="M11.184,25.016c-0.08-0.229-0.134-0.247-0.327-0.247h-0.054v-0.201c0.254,0.014,0.515,0.027,0.768,0.027
	c0.254,0,0.508-0.015,0.762-0.027v0.201h-0.207c-0.08,0-0.134,0.008-0.134,0.088c0,0.024,0.027,0.111,0.074,0.239l0.561,1.488h0.013
	c0.074-0.246,0.635-1.409,0.635-1.608c0-0.207-0.147-0.207-0.314-0.207h-0.08v-0.201c0.207,0.014,0.414,0.027,0.621,0.027
	c0.154,0,0.3-0.015,0.454-0.027v0.201h-0.04c-0.187,0-0.274,0.18-0.341,0.327l-1.028,2.33c-0.034,0.074-0.067,0.154-0.101,0.24
	h-0.18L11.184,25.016z"/>
<path fill="#FFFFFF" d="M16.749,26.833c-0.267,0.467-0.721,0.834-1.282,0.834c-0.842,0-1.296-0.772-1.296-1.536
	c0-0.842,0.568-1.663,1.476-1.663c0.688,0,1.062,0.509,1.049,1.171l-0.08,0.071h-1.804c0,0.683,0.314,1.355,1.036,1.355
	c0.32,0,0.581-0.119,0.794-0.359L16.749,26.833z M15.586,25.51c0.361,0,0.414-0.007,0.414-0.246c0-0.255-0.167-0.556-0.467-0.556
	c-0.408,0-0.635,0.39-0.708,0.802H15.586z"/>
<path fill="#FFFFFF" d="M16.896,27.366h0.047c0.193,0,0.347,0,0.347-0.199v-1.891c0-0.107-0.013-0.147-0.16-0.188
	c-0.08-0.02-0.154-0.047-0.234-0.065v-0.16c0.207-0.053,0.434-0.135,0.608-0.194c0.153-0.054,0.314-0.14,0.461-0.2l0.073,0.062
	v0.428c0.294-0.201,0.635-0.488,1.042-0.488c0.481,0,0.829,0.234,0.829,0.862v1.851c0,0.187,0.167,0.187,0.327,0.187h0.08v0.201
	c-0.254-0.014-0.501-0.026-0.755-0.026c-0.267,0-0.528,0.014-0.795,0.026v-0.201h0.067c0.134,0,0.327,0,0.327-0.174v-1.67
	c0-0.406-0.207-0.562-0.507-0.562c-0.221,0-0.468,0.135-0.615,0.228v2.019c0,0.159,0.154,0.159,0.321,0.159h0.1v0.201
	c-0.254-0.014-0.508-0.026-0.761-0.026c-0.274,0-0.541,0.014-0.802,0.026V27.366z"/>
<path fill="#FFFFFF" d="M20.477,27.366h0.047c0.193,0,0.347,0,0.347-0.199v-1.891c0-0.107-0.013-0.147-0.16-0.188
	c-0.08-0.02-0.154-0.047-0.234-0.065v-0.16c0.207-0.053,0.434-0.135,0.608-0.194c0.153-0.054,0.314-0.14,0.461-0.2l0.073,0.062
	v0.428c0.294-0.201,0.635-0.488,1.042-0.488c0.481,0,0.829,0.234,0.829,0.862v1.851c0,0.187,0.167,0.187,0.327,0.187h0.08v0.201
	c-0.254-0.014-0.501-0.026-0.755-0.026c-0.267,0-0.527,0.014-0.795,0.026v-0.201h0.067c0.134,0,0.327,0,0.327-0.174v-1.67
	c0-0.406-0.207-0.562-0.507-0.562c-0.221,0-0.468,0.135-0.615,0.228v2.019c0,0.159,0.154,0.159,0.321,0.159h0.1v0.201
	c-0.254-0.014-0.508-0.026-0.761-0.026c-0.274,0-0.541,0.014-0.802,0.026V27.366z"/>
<path fill="#FFFFFF" d="M26.742,26.833c-0.267,0.467-0.721,0.834-1.282,0.834c-0.842,0-1.296-0.772-1.296-1.536
	c0-0.842,0.568-1.663,1.476-1.663c0.688,0,1.062,0.509,1.049,1.171l-0.08,0.071h-1.804c0,0.683,0.314,1.355,1.036,1.355
	c0.32,0,0.581-0.119,0.794-0.359L26.742,26.833z M25.58,25.51c0.361,0,0.414-0.007,0.414-0.246c0-0.255-0.167-0.556-0.467-0.556
	c-0.408,0-0.635,0.39-0.708,0.802H25.58z"/>
<path fill="#FFFFFF" d="M28.707,25.37c-0.033-0.375-0.174-0.662-0.601-0.662c-0.227,0-0.454,0.142-0.454,0.4
	c0,0.729,1.382,0.563,1.382,1.577c0,0.722-0.581,0.98-1.135,0.98c-0.321,0-0.561-0.094-0.788-0.174l-0.061-0.74l0.187-0.04
	c0.04,0.366,0.261,0.714,0.655,0.714c0.261,0,0.501-0.146,0.501-0.438c0-0.644-1.343-0.535-1.343-1.564
	c0-0.588,0.455-0.955,1.069-0.955c0.301,0,0.535,0.066,0.788,0.161c-0.02,0.239-0.033,0.475-0.013,0.708L28.707,25.37z"/>
</svg>
