<?xml version="1.0" encoding="utf-8"?>
<!DOCTYPE svg PUBLIC "-//W3C//DTD SVG 1.1//EN" "http://www.w3.org/Graphics/SVG/1.1/DTD/svg11.dtd">
<svg version="1.1" id="Calque_1" xmlns="http://www.w3.org/2000/svg" xmlns:xlink="http://www.w3.org/1999/xlink" x="0px" y="0px"
	 width="19.074px" height="19.076px" viewBox="0 0 19.074 19.076" enable-background="new 0 0 19.074 19.076" xml:space="preserve">
<path fill="#3B3A3A" d="M9.538,0C4.27,0,0,4.271,0,9.538c0,5.268,4.27,9.538,9.538,9.538c5.267,0,9.536-4.27,9.536-9.538
	C19.074,4.271,14.805,0,9.538,0z M9.482,15.312c-0.61,0.467-1.206,0.701-1.789,0.701c-0.584,0-0.875-0.305-0.875-0.914
	c0-0.336,0.295-1.373,0.885-3.111c0.59-1.738,0.884-2.703,0.884-2.897c0-0.298-0.097-0.447-0.292-0.447
	c-0.207,0-0.466,0.155-0.777,0.467c-0.234,0.246-0.467,0.493-0.7,0.739L6.429,9.382c1.543-1.789,2.748-2.683,3.616-2.683
	c0.713,0,1.07,0.343,1.07,1.03c0,0.35-0.334,1.423-1.002,3.217c-0.667,1.795-1.001,2.818-1.001,3.063
	c0,0.17,0.078,0.254,0.234,0.254c0.22,0,0.784-0.453,1.691-1.361l0.369,0.428C10.643,14.263,10,14.923,9.482,15.312z M11.494,5.114
	c-0.24,0.241-0.521,0.361-0.846,0.361c-0.325,0-0.606-0.12-0.846-0.361c-0.241-0.24-0.36-0.521-0.36-0.845
	c0-0.324,0.119-0.606,0.36-0.847c0.239-0.239,0.521-0.359,0.846-0.359c0.324,0,0.605,0.12,0.846,0.359
	c0.24,0.24,0.359,0.522,0.359,0.847C11.854,4.593,11.734,4.874,11.494,5.114z"/>
</svg>
