<?xml version="1.0" encoding="UTF-8" standalone="no"?>
<svg
   xmlns:dc="http://purl.org/dc/elements/1.1/"
   xmlns:cc="http://creativecommons.org/ns#"
   xmlns:rdf="http://www.w3.org/1999/02/22-rdf-syntax-ns#"
   xmlns:svg="http://www.w3.org/2000/svg"
   xmlns="http://www.w3.org/2000/svg"
   height="100"
   width="100"
   id="svg10"
   xml:space="preserve"
   enable-background="new 0 0 100 100"
   viewBox="0 0 100 100"
   y="0px"
   x="0px"
   version="1.0"><metadata
     id="metadata16"><rdf:RDF><cc:Work
         rdf:about=""><dc:format>image/svg+xml</dc:format><dc:type
           rdf:resource="http://purl.org/dc/dcmitype/StillImage" /><dc:title></dc:title></cc:Work></rdf:RDF></metadata><defs
     id="defs14" /><path
     style="fill:#ffffff;fill-opacity:1;opacity:1"
     id="path2"
     d="m 82.726322,65.734797 c -3.415,0 -6.342,2.057 -7.631,5 h -14.648 c -1.377,-3.881 -5.039,-6.667 -9.388,-6.667 -4.349,0 -8.008,2.786 -9.388,6.667 h -14.648 c -1.289,-2.943 -4.216,-5 -7.631,-5 -4.603,0 -8.333,3.73 -8.333,8.333 0,4.603 3.73,8.333 8.333,8.333 3.418,0 6.345,-2.063 7.631,-5 h 14.648 c 1.377,3.874 5.039,6.667 9.388,6.667 4.349,0 8.011,-2.793 9.388,-6.667 h 14.648 c 1.286,2.937 4.213,5 7.631,5 4.603,0 8.333,-3.73 8.333,-8.333 0,-4.603 -3.73,-8.333 -8.333,-8.333 z m -31.667,11.666 c -1.843,0 -3.333,-1.49 -3.333,-3.333 0,-1.843 1.49,-3.333 3.333,-3.333 1.843,0 3.333,1.49 3.333,3.333 0,1.843 -1.49,3.333 -3.333,3.333 z" /><path
     style="opacity:1;fill:#ffffff;fill-opacity:1"
     id="path4"
     d="m 51.059322,4.0677966 c -12.881,0 -23.333,10.4420004 -23.333,23.3330004 0,6.439 2.61,12.272 6.836,16.498 l 16.497,15.169 16.501,-15.176 c 4.225,-4.219 6.836,-10.052 6.832,-16.497 0,-12.878 -10.445,-23.3270004 -23.333,-23.3270004 z m 0,33.3330004 c -5.521,0 -10,-4.479 -10,-10 0,-5.521 4.479,-10 10,-10 5.524,0 10,4.479 10,10 0,5.521 -4.476,10 -10,10 z" /></svg>