<?xml version="1.0" encoding="utf-8"?>
<!DOCTYPE svg PUBLIC "-//W3C//DTD SVG 1.1//EN" "http://www.w3.org/Graphics/SVG/1.1/DTD/svg11.dtd">
<svg version="1.1" id="Calque_1" xmlns="http://www.w3.org/2000/svg" xmlns:xlink="http://www.w3.org/1999/xlink" x="0px" y="0px"
	 width="92.181px" height="92.2px" viewBox="16.81 16.2 92.181 92.2" enable-background="new 16.81 16.2 92.181 92.2"
	 xml:space="preserve">
<g id="logos">
	<g>
		<circle fill="#B4CC1B" cx="62.9" cy="62.3" r="46.1"/>
		<g>
			<g>
				<g>
					<path fill="#114814" d="M33.9,51.5c0-5.4,4-9.1,9.5-9.1c2.3,0,3.8,0.5,5.3,1.3v3.6c-1.7-1.1-3.3-1.5-5-1.5c-3.6,0-6,2.3-6,5.8
						c0,3.6,2.6,5.7,5.7,5.7c1.3,0,2.6-0.3,3.5-1.2v-6h3.6v7.7c-1.4,1.5-4,2.8-7.1,2.8C38,60.6,33.9,56.9,33.9,51.5z"/>
					<path fill="#114814" d="M56.2,42.7H69V46h-9.3v3.4h7.5v3.2h-7.5V57h9.5v3.2h-13V42.7z"/>
					<path fill="#114814" d="M82.799,42.4c-5.299,0-9.1,4-9.1,9.1c0,5,3.801,9.1,9.1,9.1c5.301,0,9.101-4.1,9.101-9.1
						S88.1,42.4,82.799,42.4z M82.799,57.2c-3.1,0-5.399-2.4-5.399-5.7s2.3-5.7,5.399-5.7c3.101,0,5.4,2.4,5.4,5.7
						S85.9,57.2,82.799,57.2z"/>
				</g>
				<g>
					<path fill="#FFFFFF" d="M39.3,69.2h-5.4V67.5h12.6V69.2h-5.4v14.1h-1.8V69.2z"/>
					<path fill="#FFFFFF" d="M57.9,76.1c2.4-0.4,3.7-2,3.7-4.2c0-2.5-1.8-4.3-5-4.3h-7.1v15.699h1.8v-7h4.6l4.9,7H63L57.9,76.1z
						 M51.3,74.7v-5.4h5.1c2.1,0,3.3,1,3.3,2.701c0,1.699-1.2,2.699-3.3,2.699H51.3z"/>
					<path fill="#FFFFFF" d="M66,67.6H76.9v1.699h-9V74h7.399V75.7H67.9v5.9h9.399v1.699H66V67.6z"/>
					<path fill="#FFFFFF" d="M82.2,74.299l7.1-6.699h2.4l-7.6,7.199l8.8,8.5h-2.5L82.2,75.4v7.899h-1.8V67.6h1.8V74.299z"/>
				</g>
			</g>
			<g>
				<polygon fill="#DADADA" points="94.7,38.3 80.7,48.8 71.299,63.1 86.2,53.9"/>
				<g>
					<g>
						<polygon fill="#ED6C4B" points="85.1,52.8 80.7,48.8 94.7,38.3 94.7,38.3 94.7,38.3"/>
						<polygon fill="#FFFFFF" points="85.1,52.8 71.299,63.1 80.7,48.8"/>
						<polygon fill="#EDECE8" points="80.7,48.8 71.299,63.1 83,50.8"/>
						<polygon fill="#F5AA8D" points="83,50.8 94.7,38.3 85.1,52.8"/>
					</g>
				</g>
			</g>
		</g>
	</g>
</g>
</svg>
