<?xml version="1.0" encoding="UTF-8" standalone="no"?>
<svg
   xmlns:dc="http://purl.org/dc/elements/1.1/"
   xmlns:cc="http://creativecommons.org/ns#"
   xmlns:rdf="http://www.w3.org/1999/02/22-rdf-syntax-ns#"
   xmlns:svg="http://www.w3.org/2000/svg"
   xmlns="http://www.w3.org/2000/svg"
   id="svg12"
   xml:space="preserve"
   enable-background="new -38.535 3.879 21.768 30"
   viewBox="-38.535 3.879 35 35"
   height="35"
   width="35"
   y="0px"
   x="0px"
   class="treks"
   version="1.1"><metadata
   id="metadata18"><rdf:RDF><cc:Work
       rdf:about=""><dc:format>image/svg+xml</dc:format><dc:type
         rdf:resource="http://purl.org/dc/dcmitype/StillImage" /><dc:title></dc:title></cc:Work></rdf:RDF></metadata><defs
   id="defs16" />
<g
   style="fill:#ffffff;fill-opacity:1"
   transform="translate(7.2457627,2.9661017)"
   id="g10"
   class="base">
	<path
   style="fill:#ffffff;fill-opacity:1"
   id="path2"
   d="m -30.844,25.049 c 0,-2.439 0.004,-4.877 -0.007,-7.314 -0.004,-0.365 0.057,-0.66 0.384,-0.864 1.001,-0.627 1.395,-1.525 1.202,-2.69 -0.038,-0.234 -0.038,-0.488 0.007,-0.723 0.153,-0.821 -0.12,-1.391 -0.912,-1.7 -0.328,-0.128 -0.466,-0.378 -0.476,-0.729 -0.054,-1.884 -0.129,-3.763 -0.163,-5.646 -0.013,-0.568 0.125,-1.125 0.736,-1.375 0.687,-0.281 1.337,-0.054 1.938,0.262 0.328,0.169 0.294,1.539 -0.075,1.78 -0.832,0.54 -0.955,1.307 -0.884,2.191 0.031,0.433 0.031,0.872 -0.017,1.303 -0.099,0.882 0.102,1.663 0.679,2.344 0.283,0.332 0.339,0.716 0.319,1.147 -0.059,1.059 -0.124,2.124 -0.102,3.184 0.012,0.562 -0.146,0.931 -0.668,1.123 -0.806,0.295 -1.038,0.854 -0.926,1.685 0.108,0.785 0.113,1.592 0.102,2.388 -0.007,0.44 0.139,0.668 0.563,0.749 0.165,0.031 0.316,0.125 0.481,0.156 0.563,0.104 0.742,0.396 0.735,0.998 -0.036,2.606 -0.005,5.216 0,7.82 0,0.531 0,1.059 -0.151,1.58 -0.238,0.833 -0.707,1.223 -1.423,1.154 -0.816,-0.076 -1.348,-0.645 -1.353,-1.506 -0.01,-2.439 -0.005,-4.879 -0.005,-7.316" />
	<path
   style="fill:#ffffff;fill-opacity:1"
   id="path4"
   d="m -16.767,9.043 c -1.056,0.814 -2.032,1.561 -3.002,2.314 -0.205,0.163 -0.424,0.196 -0.672,0.198 -2.316,0.034 -4.633,0.077 -6.949,0.113 -0.602,0.009 -1.148,-0.521 -1.153,-1.119 -0.009,-1.014 -0.012,-2.03 0,-3.042 0.005,-0.592 0.441,-1.052 1.035,-1.043 2.463,0.032 4.923,0.092 7.386,0.136 0.203,0.004 0.37,0.063 0.528,0.188 0.92,0.74 1.846,1.475 2.827,2.255" />
	<path
   style="fill:#ffffff;fill-opacity:1"
   id="path6"
   d="m -25.331,17.768 c 0.867,0 1.732,0.002 2.599,0 0.669,0 1.058,0.528 1.556,0.846 0.44,0.277 1.154,0.517 1.197,0.945 0.045,0.434 -0.705,0.688 -1.034,1.086 -0.832,0.996 -1.853,1.388 -3.17,1.256 -1.143,-0.115 -2.312,-0.031 -3.467,-0.021 -0.323,0.001 -0.608,-0.079 -0.905,-0.194 -0.44,-0.174 -0.629,-0.432 -0.596,-0.924 0.042,-0.576 0.005,-1.156 -0.009,-1.736 -0.019,-0.879 0.471,-1.385 1.372,-1.389 0.82,-0.005 1.638,-0.003 2.458,-0.003" />
	<path
   style="fill:#ffffff;fill-opacity:1"
   id="path8"
   d="m -33.575,16.225 c -0.123,0 -0.243,-0.018 -0.36,0.002 -1.747,0.289 -3.125,-0.396 -4.348,-1.568 -0.257,-0.248 -0.386,-0.366 -0.045,-0.638 0.526,-0.426 1.023,-0.885 1.518,-1.346 0.195,-0.184 0.408,-0.218 0.657,-0.218 1.69,-0.007 3.379,-0.028 5.069,-0.031 0.95,-0.002 1.14,0.199 1.126,1.127 -0.005,0.434 -0.014,0.872 -0.021,1.303 -0.017,0.945 -0.45,1.368 -1.423,1.37 -0.724,0.001 -1.45,-10e-4 -2.173,-10e-4" />
</g>
</svg>