<?xml version="1.0" encoding="utf-8"?>
<!-- Generator: Adobe Illustrator 18.0.0, SVG Export Plug-In . SVG Version: 6.00 Build 0)  -->
<!DOCTYPE svg PUBLIC "-//W3C//DTD SVG 1.1//EN" "http://www.w3.org/Graphics/SVG/1.1/DTD/svg11.dtd">
<svg version="1.1" id="restaurant" xmlns="http://www.w3.org/2000/svg" xmlns:xlink="http://www.w3.org/1999/xlink" x="0px" y="0px"
	 width="16.5px" height="30px" viewBox="0 0 16.5 30" enable-background="new 0 0 16.5 30" xml:space="preserve">
<g class="base">
	<path  d="M16,16.5L16,16.5L16,0c-5,0-4,16.5-4,16.5h0.9c-0.2,4.8-0.4,11.1-0.4,11.7c0,0.9,1.1,1.8,2,1.8
		s2.1-0.9,2-1.8C16.5,27.6,16.2,21.3,16,16.5z"/>
	<path d="M8.2,1.2C7.7,1.2,7.4,1.6,7.4,2v7.4c0,0.5-0.3,0.9-0.6,0.9H6.2V2c0-0.4-0.4-0.8-0.8-0.8
		C5,1.2,4.7,1.6,4.7,2v8.3H3.9V2c0-0.4-0.4-0.8-0.8-0.8C2.7,1.2,2.4,1.6,2.4,2v8.3H2.1c-0.3,0-0.6-0.4-0.6-0.9V2
		c0-0.4-0.4-0.8-0.8-0.8C0.4,1.2,0,1.6,0,2v7.4c0,1.4,1,2.5,2.1,2.5H3c-0.1,3.3-0.5,15.5-0.5,16.3c0,0.9,1.1,1.8,2,1.8
		c1,0,2-0.9,2-1.8c0-0.8-0.5-13-0.7-16.3h1C8,11.9,9,10.8,9,9.4V2C9,1.6,8.6,1.2,8.2,1.2z"/>
</g>
</svg>
