<?xml version="1.0" encoding="utf-8"?>
<!-- Generator: Adobe Illustrator 18.0.0, SVG Export Plug-In . SVG Version: 6.00 Build 0)  -->
<!DOCTYPE svg PUBLIC "-//W3C//DTD SVG 1.1//EN" "http://www.w3.org/Graphics/SVG/1.1/DTD/svg11.dtd">
<svg version="1.1" id="afaire" xmlns="http://www.w3.org/2000/svg" xmlns:xlink="http://www.w3.org/1999/xlink" x="0px" y="0px"
	 width="48.5px" height="30px" viewBox="0 0 48.5 30" enable-background="new 0 0 48.5 30" xml:space="preserve">
<g class="base">
	<ellipse cx="24.2" cy="6.3" rx="5.7" ry="5.8"/>
	<path d="M47.6,0.9c-1.1-1.2-3-1.2-4.1,0L29.9,14.7c-1-0.6-2.2-0.9-3.4-0.9H22c-1.2,0-2.4,0.3-3.4,0.9L5,0.9
		c-1.1-1.2-3-1.2-4.1,0s-1.1,3,0,4.2l14.3,14.5C15.1,20,15,20.4,15,20.9V30h18.4v-9.1c0-0.5,0-0.9-0.1-1.3L47.6,5.1
		C48.7,3.9,48.7,2,47.6,0.9z"/>
</g>
</svg>
