<?xml version="1.0" encoding="utf-8"?>
<!-- Generator: Adobe Illustrator 18.0.0, SVG Export Plug-In . SVG Version: 6.00 Build 0)  -->
<!DOCTYPE svg PUBLIC "-//W3C//DTD SVG 1.1//EN" "http://www.w3.org/Graphics/SVG/1.1/DTD/svg11.dtd">
<svg version="1.1"
	 id="svg3041" sodipodi:docname="difficulty-easy.svg" inkscape:version="0.48.4 r9939" xmlns:inkscape="http://www.inkscape.org/namespaces/inkscape" xmlns:sodipodi="http://sodipodi.sourceforge.net/DTD/sodipodi-0.dtd" xmlns:cc="http://creativecommons.org/ns#" xmlns:dc="http://purl.org/dc/elements/1.1/" xmlns:rdf="http://www.w3.org/1999/02/22-rdf-syntax-ns#" xmlns:svg="http://www.w3.org/2000/svg"
	 xmlns="http://www.w3.org/2000/svg" xmlns:xlink="http://www.w3.org/1999/xlink" x="0px" y="0px" width="128px" height="128px"
	 viewBox="0 0 128 128" enable-background="new 0 0 128 128" xml:space="preserve">
<g class="base">
		<path d="M17.6,28c-4.2,0-5.2,0.9-5.2,5c0,10.8,0,21.5,0,32.3c0,0.5,0,0.9,0,1.4c0.2,2.3,1.3,3.7,3.7,3.6c2.4-0.1,3.5-1.6,3.5-3.8
		c0-7.6,0-15.1,0-22.7c0-1.2,0.1-2.4,0.2-3.5c0.3,0,0.7-0.1,1-0.1c0.2,1.2,0.4,2.4,0.4,3.6c0,20.4,0,40.8,0,61.1c0,0.8,0,1.6,0,2.4
		c0.2,3.3,2.3,5.5,5,5.5c2.8-0.1,4.8-2.3,4.8-5.6c0.1-6,0-11.9,0-17.9V67.7c3.3-0.8,2.6,1.5,2.6,2.8c0,11,0,22,0,33
		c0,0.9,0,1.8,0,2.7c0.1,4.2,1.9,6.5,5,6.4c3-0.1,4.7-2.4,4.7-6.4c0-20.4,0-40.7,0-61.1v-5c0.4,0,0.8-0.1,1.2-0.1
		c0.1,1.1,0.4,2.1,0.4,3.2c0,7.3,0.1,14.7-0.1,22c0,2.5,0.7,4.1,3,5.2c2.5,1.1,4.7,2.8,7.2,4c2,1,2.5,2.1,1.8,4.3
		c-1.8,5.4-3.3,10.9-5,16.6c1.9,0.2,3.4,0.4,5.4,0.7c0,4.1,0.1,8.2,0,12.2c-0.1,2.4,0.7,4.3,3.2,4.4c2.8,0.1,3.5-2.1,3.5-4.5
		c0-4.1,0-8.1,0-12.2l0.4-26.1c-3.2,0-6.3-0.9-9.3-2.9c-2.1-1.4-2.9-2.7-2.8-5.1c0.1-9.4,0.1-18.8,0.1-28.2c0-4.7-1-5.7-5.6-5.7
		C37.1,28,27.4,28,17.6,28L17.6,28z M65,96c0,4.1,0,8.1,0,12.2c0,2.4,0.7,4.6,3.5,4.5c2.5-0.1,3.3-2,3.2-4.4c-0.1-4.1,0-8.2,0-12.2
		c2-0.2,3.6-0.4,5.4-0.7c-1.7-5.8-3.2-11.3-5-16.6c-0.8-2.2-0.3-3.3,1.7-4.3c2.5-1.2,4.7-2.9,7.2-4c2.4-1.1,3.1-2.7,3-5.1
		c-0.1-7.3-0.1-14.7,0-22c0-1.1,0.2-2.1,0.4-3.2c0.4,0,0.8,0.1,1.2,0.1v5c0,20.4,0,40.8,0,61.1c0,4,1.8,6.3,4.7,6.4
		c3.1,0.1,4.9-2.3,5-6.4c0-0.9,0-1.8,0-2.8c0-11,0-22,0-33c0-1.4-0.7-3.6,2.6-2.8v21.5c0,6-0.1,11.9,0,17.8c0,3.3,2.1,5.5,4.8,5.6
		c2.7,0.1,4.8-2.2,5-5.4c0-0.8,0-1.6,0-2.4c0-20.4,0-40.8,0.1-61.1c0-1.2,0.3-2.4,0.4-3.6c0.3,0,0.7,0.1,1,0.1
		c0.1,1.2,0.2,2.4,0.2,3.6c0,7.6,0,15.1,0,22.7c0,2.3,1.1,3.7,3.4,3.8c2.4,0.1,3.5-1.3,3.7-3.6c0-0.5,0.1-0.9,0.1-1.4
		c0-10.8,0-21.5,0-32.3c0-4-1-5-5.2-5c-9.7,0-19.5,0-29.2,0c-4.6,0-5.6,1-5.6,5.7c0,9.4-0.1,18.8,0,28.2c0,2.4-0.7,3.7-2.8,5.1
		c-2.9,2-6.1,2.9-9.3,2.9C64.1,81.4,61.1,96.1,65,96L65,96z"/>
	<path d="M96.7,25.6c-5.4,0-9.7-4.1-9.8-9.4c-0.1-5.4,4.4-9.9,9.8-9.8
		c5.3,0,9.5,4.3,9.5,9.7C106.2,21.5,102.1,25.6,96.7,25.6z"/>
	<path d="M64.5,53.2c-0.1,0-0.2,0-0.4,0c-3.9,0.3-6.9,3.8-6.6,7.8
		c0.2,3.9,3.3,6.9,7,7.1c3.6-0.2,6.7-3.2,7-7.1c0.2-3.9-2.7-7.4-6.6-7.8C64.8,53.2,64.6,53.2,64.5,53.2L64.5,53.2z"/>
	<path d="M32.3,25.6c5.4,0,9.7-4.1,9.8-9.4c0.1-5.4-4.4-9.9-9.8-9.8
		c-5.3,0-9.5,4.3-9.5,9.7C22.8,21.5,26.9,25.6,32.3,25.6z"/>
</g>
</svg>
