<?xml version="1.0" encoding="utf-8"?>
<!-- Generator: Adobe Illustrator 18.0.0, SVG Export Plug-In . SVG Version: 6.00 Build 0)  -->
<!DOCTYPE svg PUBLIC "-//W3C//DTD SVG 1.1//EN" "http://www.w3.org/Graphics/SVG/1.1/DTD/svg11.dtd">
<svg version="1.1"
	 id="hard" sodipodi:docname="difficulty-hard.svg" inkscape:version="0.48.4 r9939" xmlns:inkscape="http://www.inkscape.org/namespaces/inkscape" xmlns:sodipodi="http://sodipodi.sourceforge.net/DTD/sodipodi-0.dtd" xmlns:cc="http://creativecommons.org/ns#" xmlns:dc="http://purl.org/dc/elements/1.1/" xmlns:rdf="http://www.w3.org/1999/02/22-rdf-syntax-ns#" xmlns:svg="http://www.w3.org/2000/svg"
	 xmlns="http://www.w3.org/2000/svg" xmlns:xlink="http://www.w3.org/1999/xlink" x="0px" y="0px" width="128px" height="128px"
	 viewBox="0 0 128 128" enable-background="new 0 0 128 128" xml:space="preserve">
<g class="base">
	<path d="M99.5,54.4l-14.6-5.2l-6.6-18c-1.6-3.1-4.3-5.3-7.3-5.9c-7.2-1.4-9.8,6.9-9.8,6.9l-5.4,22.7l15.3-8.9
		l-1.4-3c-0.3-0.7,0-1.4,0.6-1.7c0.7-0.3,1.4,0,1.7,0.6l1.8,3.9c0,0,0,0,0,0c0,0,0,0,0,0.1l3.5,7.6l0.4,0.7c0.2,0.4,1,1.2,1.6,1.5
		l14.2,5.4l-9.1,15.6L72.8,65.5l2.4-10.9l-2.9-6.2L55,58.4l-6.7,28l-14.1,22.1c-0.5,0.7-0.8,1.6-0.8,2.7c-0.2,1.8,0.3,3.3,1.4,4.6
		c1.1,1.3,2.6,2.1,4.4,2.3c2.6,0.2,4.6-0.8,5.9-3.1l15.1-23.7c0.3-0.6,0.7-1.5,1.3-2.7l3-12.6l13.9,11.4l-16.5,28.3
		c-0.4,0.8-0.2,1.8,0.6,2.2c0.3,0.2,0.5,0.2,0.8,0.2c0.6,0,1.1-0.3,1.4-0.8l14.1-24.2l0,19.2c0.6,3,2.6,4.7,5.8,5
		c1.8,0.1,3.3-0.4,4.6-1.6c1.3-1.2,2-2.6,2.1-4.2c0-0.3,0-0.8,0-1.4l-0.1-23.9c0-1.9-0.4-3.8-1.6-5l-2.5-2.3l9.8-16.9
		c2.6,0.2,4.5-1.3,4.9-3.9C102,56.5,100.9,54.9,99.5,54.4L99.5,54.4z"/>
	<path d="M49,10c-7.1-1.7-14.2,2.6-15.9,9.7l-5.7,23.8l19.3,4.8L46,50.8L26.7,46l-1.9,7.7c-1.4,5.7,1,8.4,6.7,9.9
		c0.8,0.2,9.9,2.3,13.5,3.1l-1.4,5.7c-0.2,0.9,0.3,1.8,1.2,2c0.1,0,0.6,0.1,0.7,0.1c0.7,0,1.4-0.5,1.6-1.3l11.6-47.5
		C60.4,18.8,56.1,11.7,49,10L49,10z M49.8,37.3l-14.1-3.5L38.6,22l2.3,0.6L38.7,32l9.4,2.3l2.4-9.4l2.3,0.6L49.8,37.3L49.8,37.3z"/>
	<path d="M89.5,16.7c0,5-4,9-9,9c-4.9,0-9-4-9-9c0-4.9,4-9,9-9C85.5,7.7,89.5,11.7,89.5,16.7z"/>
</g>
</svg>
