<?xml version="1.0" encoding="UTF-8" standalone="no"?>
<!-- Created with Inkscape (http://www.inkscape.org/) -->

<svg
   xmlns:dc="http://purl.org/dc/elements/1.1/"
   xmlns:cc="http://creativecommons.org/ns#"
   xmlns:rdf="http://www.w3.org/1999/02/22-rdf-syntax-ns#"
   xmlns:svg="http://www.w3.org/2000/svg"
   xmlns="http://www.w3.org/2000/svg"
   xmlns:sodipodi="http://sodipodi.sourceforge.net/DTD/sodipodi-0.dtd"
   xmlns:inkscape="http://www.inkscape.org/namespaces/inkscape"
   version="1.1"
   width="128"
   height="128"
   id="svg3041"
   inkscape:version="0.48.4 r9939"
   sodipodi:docname="difficulty-easy.svg">
  <sodipodi:namedview
     pagecolor="#ffffff"
     bordercolor="#666666"
     borderopacity="1"
     objecttolerance="10"
     gridtolerance="10"
     guidetolerance="10"
     inkscape:pageopacity="0"
     inkscape:pageshadow="2"
     inkscape:window-width="1918"
     inkscape:window-height="1059"
     id="namedview3033"
     showgrid="false"
     inkscape:zoom="3.4335938"
     inkscape:cx="86.08209"
     inkscape:cy="35.461765"
     inkscape:window-x="0"
     inkscape:window-y="19"
     inkscape:window-maximized="0"
     inkscape:current-layer="svg3041" />
  <defs
     id="defs3043" />
  <metadata
     id="metadata3046">
    <rdf:RDF>
      <cc:Work
         rdf:about="">
        <dc:format>image/svg+xml</dc:format>
        <dc:type
           rdf:resource="http://purl.org/dc/dcmitype/StillImage" />
        <dc:title></dc:title>
      </cc:Work>
    </rdf:RDF>
  </metadata>
  <path
     inkscape:connector-curvature="0"
     style="fill:#000000;fill-opacity:1;stroke:none;display:inline;enable-background:new"
     id="path3-9-3"
     d="m 17.620282,28.02697 c -4.184037,0.007 -5.197241,0.93459 -5.21304,4.9648 -0.04148,10.763801 -0.0079,21.535031 0,32.298761 0,0.4593 -0.01061,0.9248 0.02758,1.3791 0.194213,2.2666 1.311557,3.67787 3.696018,3.58577 2.363134,-0.093 3.467416,-1.56517 3.47536,-3.83397 0.02574,-7.55647 0.0098,-15.11392 0.02758,-22.67259 0.0023,-1.17767 0.126843,-2.35061 0.193075,-3.53052 0.336788,-0.0251 0.656193,-0.0564 0.99296,-0.0827 0.150443,1.20236 0.440169,2.38228 0.441316,3.58569 0.03237,20.37913 0.02096,40.76959 0.02758,61.149689 0,0.8016 -0.01718,1.6015 0.02758,2.3997 0.181861,3.268 2.253652,5.5408 4.9648,5.4613 2.770646,-0.081 4.755193,-2.2881 4.799307,-5.6268 0.07769,-5.9533 0.02873,-11.918699 0.02758,-17.873199 l 0,-21.48656 c 3.325224,-0.7668 2.559498,1.4594 2.565147,2.81336 0.04937,10.9915 0.02758,21.9978 0.02758,32.988299 0,0.9149 -0.01448,1.8147 0,2.7307 0.06287,4.1604 1.914141,6.5346 4.992382,6.4266 2.952515,-0.1021 4.739641,-2.421 4.744142,-6.3715 0.02578,-20.378999 0.02096,-40.743059 0.02758,-61.122149 l 0,-5.01996 c 0.388431,-0.0395 0.771121,-0.0984 1.158453,-0.13791 0.139184,1.06646 0.408084,2.13195 0.413733,3.19954 0.03161,7.32737 0.05821,14.65675 -0.05516,21.98302 -0.0393,2.4641 0.67989,4.0902 3.034044,5.15786 2.488868,1.1282 4.73704,2.7728 7.19896,3.9718 2.017374,0.9823 2.525277,2.0609 1.765262,4.3028 -1.822028,5.374 -3.304582,10.8664 -5.019964,16.6322 1.866937,0.2299 3.41635,0.4124 5.433698,0.6619 0,4.067299 0.07572,8.162399 -0.02758,12.246499 -0.06174,2.4003 0.710676,4.3243 3.199538,4.4132 2.786369,0.099 3.510886,-2.0542 3.502942,-4.496 -0.01438,-4.0549 0,-8.1099 0,-12.163699 l 0.441316,-26.06516 c -3.152343,0 -6.34606,-0.8546 -9.295209,-2.8685 -2.098191,-1.4336 -2.875868,-2.6807 -2.840969,-5.13034 0.133722,-9.38735 0.07886,-18.77179 0.05516,-28.161451 -0.01235,-4.70495 -0.972839,-5.67576 -5.599191,-5.68194 -9.734312,-0.0167 -19.476387,-0.0473 -29.209573,-0.0275 z m 47.331092,67.935231 c 0,4.053799 0.01455,8.109799 0,12.163799 -0.0079,2.4427 0.716579,4.5935 3.502943,4.4959 2.488867,-0.089 3.260156,-2.0118 3.199537,-4.4131 -0.103302,-4.083 -0.02758,-8.1793 -0.02758,-12.246599 2.01736,-0.2495 3.566765,-0.4327 5.433698,-0.6619 -1.715403,-5.7659 -3.199062,-11.2581 -5.019965,-16.6321 -0.760015,-2.2419 -0.278567,-3.3205 1.73768,-4.3029 2.461928,-1.1978 4.710091,-2.87 7.19896,-3.9994 2.355275,-1.06637 3.072218,-2.66607 3.034045,-5.13027 -0.113374,-7.32661 -0.05918,-14.65589 -0.02758,-21.98327 0.0053,-1.06653 0.24809,-2.133 0.386152,-3.19954 0.388454,0.0395 0.770025,0.0971 1.158453,0.13791 l 0,4.99239 c 0.0079,20.37911 0.0026,40.76958 0.02758,61.149779 0.0053,3.9505 1.791635,6.2693 4.744142,6.3714 3.077126,0.1081 4.929521,-2.265 4.992382,-6.4266 0.01448,-0.9149 0,-1.8433 0,-2.7582 0,-10.991699 -0.0218,-21.969099 0.02754,-32.960799 0.0062,-1.35387 -0.733617,-3.57897 2.592725,-2.81337 l 0,21.48657 c -8.83e-4,5.9556 -0.079,11.891299 0,17.845699 0.04281,3.3387 2.056239,5.5448 4.826884,5.6267 2.71002,0.079 4.78181,-2.1657 4.9648,-5.4336 0.0448,-0.7993 0,-1.5981 0,-2.3997 0.006,-20.380099 0.0236,-40.771769 0.0552,-61.149739 0.003,-1.2046 0.26329,-2.41092 0.41374,-3.61327 0.33677,0.0263 0.68487,0.0564 1.02054,0.0827 0.0662,1.17984 0.18965,2.38044 0.19308,3.55811 0.0191,7.5586 3e-4,15.1162 0.0275,22.67263 0.006,2.2688 1.08465,3.7418 3.44778,3.83387 2.38334,0.093 3.50068,-1.31907 3.69602,-3.58567 0.0369,-0.4556 0.0552,-0.9211 0.0552,-1.3791 0.006,-10.76383 0.0409,-21.53508 0,-32.298801 -0.0158,-4.03022 -1.03012,-4.9569 -5.21304,-4.9648 -9.73431,-0.0198 -19.474123,-0.0167 -29.209561,0 -4.625225,0.006 -5.586852,0.977 -5.599191,5.68194 -0.02374,9.389661 -0.106154,18.801591 0.02758,28.189031 0.03486,2.44953 -0.742778,3.66813 -2.840969,5.10273 -2.948024,2.014 -6.144792,2.86731 -9.296009,2.86291 -0.343931,11.56297 -3.354505,26.24836 0.469734,26.09866 z"
     sodipodi:nodetypes="cccccccccccccccccscccccccccccccccccccscccccccccccccccccccccsccccccccccccccccccccccc" />
  <path
     inkscape:connector-curvature="0"
     style="fill:#000000;fill-opacity:1;stroke:none;display:inline;enable-background:new"
     id="path7-7-3"
     d="m 96.734334,25.63889 c -5.375136,0.0198 -9.67031,-4.12121 -9.769103,-9.414409 -0.09995,-5.35715 4.400702,-9.8891905 9.774717,-9.8409405 5.325742,0.0461 9.500792,4.2940405 9.501922,9.6602105 0,5.425669 -4.11555,9.577169 -9.507536,9.595139 z" />
  <path
     inkscape:connector-curvature="0"
     style="fill:#000000;fill-opacity:1;stroke:none;display:inline;enable-background:new"
     id="path9-2-1"
     d="m 64.510059,53.209541 c -0.118971,0.007 -0.240717,0.0214 -0.358569,0.0275 -3.853985,0.33342 -6.851027,3.8394 -6.619733,7.75061 0.227895,3.86854 3.338735,6.93394 6.978302,7.08864 3.638441,-0.1547 6.721698,-3.2488 6.95072,-7.11623 0.231293,-3.91129 -2.738166,-7.41719 -6.592151,-7.7506 -0.117852,-0.006 -0.240717,0.007 -0.358569,0 z" />
  <path
     inkscape:connector-curvature="0"
     style="fill:#000000;fill-opacity:1;stroke:none;display:inline;enable-background:new"
     id="path17-73-1"
     d="m 32.27189,25.64673 c 5.375142,0.0198 9.669197,-4.12121 9.769115,-9.413229 0.09988,-5.35721 -4.400708,-9.8892605 -9.77473,-9.8410005 -5.32575,0.0461 -9.500807,4.2941005 -9.501926,9.6613805 -0.0011,5.423379 4.113313,9.574869 9.507541,9.592849 z" />
</svg>
