<?xml version="1.0" encoding="utf-8"?>
<!DOCTYPE svg PUBLIC "-//W3C//DTD SVG 1.1//EN" "http://www.w3.org/Graphics/SVG/1.1/DTD/svg11.dtd">
<svg version="1.1" id="Calque_1" xmlns="http://www.w3.org/2000/svg" xmlns:xlink="http://www.w3.org/1999/xlink" x="0px" y="0px"
	 width="139.521px" height="63.198px" viewBox="0 0 139.521 63.198" enable-background="new 0 0 139.521 63.198"
	 xml:space="preserve">
<path fill="#004461" d="M139.521,20.45c-4.069-2.07-9.102-4.4-15.061-6.715C77.972-4.316,21.539-3.453,0,9.797l17.8,53.4
	c25.44-15.65,42.438-19.291,106.661-15.402c5.812,0.352,10.899,0.789,15.061,1.207V20.45z"/>
<path fill="#AFCA00" d="M139.521,49.055c-4.162-0.416-9.25-0.867-15.061-1.26c-60.663-4.115-79.771,0.496-98.004,10.383h113.064
	V49.055z"/>
<path fill="#FFFFFF" d="M37.394,18.588c-0.617,0.615-1.338,0.916-2.206,0.916s-1.59-0.301-2.207-0.916
	c-0.616-0.617-0.915-1.338-0.915-2.207c0-0.861,0.299-1.58,0.915-2.197c0.624-0.621,1.345-0.924,2.207-0.924
	s1.583,0.303,2.205,0.924c0.625,0.625,0.927,1.342,0.927,2.197C38.319,17.243,38.018,17.965,37.394,18.588 M35.188,10.596
	c-1.583,0-2.959,0.574-4.09,1.705c-1.124,1.125-1.695,2.498-1.695,4.08s0.571,2.955,1.696,4.08c1.123,1.119,2.5,1.686,4.089,1.686
	c1.582,0,2.957-0.566,4.089-1.686c1.133-1.131,1.706-2.506,1.706-4.08s-0.573-2.947-1.706-4.08
	C38.146,11.17,36.771,10.596,35.188,10.596"/>
<rect x="42.607" y="10.768" fill="#FFFFFF" width="2.653" height="11.209"/>
<rect x="42.607" y="7.063" fill="#FFFFFF" width="2.653" height="2.654"/>
<path fill="#FFFFFF" d="M48.849,12.053c-1.016,0.953-1.531,2.123-1.531,3.475v6.449h2.663v-6.449c0-0.658,0.229-1.188,0.706-1.615
	c0.477-0.439,1.042-0.652,1.733-0.652h0.303v-2.666h-0.304C51.074,10.602,49.871,11.094,48.849,12.053"/>
<polygon fill="#FFFFFF" points="36.552,26.067 33.888,26.067 33.888,29.768 32.181,29.768 32.181,32.432 33.888,32.432 
	33.888,40.979 36.552,40.979 36.552,32.432 38.268,32.432 38.268,29.768 36.552,29.768 "/>
<rect x="40.12" y="26.067" fill="#FFFFFF" width="2.654" height="14.912"/>
<path fill="#FFFFFF" d="M52.392,37.59c-0.619,0.617-1.34,0.916-2.207,0.916c-0.868,0-1.591-0.299-2.207-0.916
	c-0.615-0.615-0.915-1.338-0.915-2.207c0-0.859,0.3-1.578,0.915-2.197c0.624-0.621,1.345-0.924,2.207-0.924
	c0.86,0,1.583,0.303,2.207,0.924c0.622,0.625,0.923,1.346,0.923,2.197C53.314,36.245,53.014,36.967,52.392,37.59 M50.185,29.598
	c-1.583,0-2.959,0.574-4.09,1.707c-1.126,1.123-1.696,2.496-1.696,4.078c0,1.566,0.549,2.932,1.632,4.057
	c1.091,1.135,2.434,1.709,3.983,1.709c1.232,0,2.343-0.365,3.301-1.086v0.916h2.665v-5.596c0-1.574-0.574-2.947-1.706-4.078
	C53.144,30.172,51.768,29.598,50.185,29.598"/>
<path fill="#FFFFFF" d="M62.524,29.598c-1.301,0-2.463,0.5-3.448,1.486c-0.983,0.984-1.481,2.143-1.481,3.447v6.447h2.662v-6.447
	c0-0.619,0.221-1.141,0.674-1.594c0.455-0.455,0.975-0.676,1.594-0.676c0.62,0,1.141,0.221,1.593,0.676
	c0.455,0.451,0.676,0.975,0.676,1.594v6.447h2.664v-6.447c0-1.297-0.503-2.455-1.495-3.447
	C64.978,30.098,63.82,29.598,62.524,29.598"/>
<polygon fill="#FFFFFF" points="72.589,26.067 69.927,26.067 69.927,29.77 68.219,29.77 68.219,32.432 69.927,32.432 69.927,40.979 
	72.589,40.979 72.589,32.432 74.307,32.432 74.307,29.77 72.589,29.77 "/>
<rect x="75.498" y="29.77" fill="#FFFFFF" width="2.654" height="11.209"/>
<rect x="75.498" y="26.067" fill="#FFFFFF" width="2.654" height="2.654"/>
<path fill="#FFFFFF" d="M87.769,37.59c-0.618,0.617-1.341,0.916-2.208,0.916c-0.868,0-1.591-0.299-2.206-0.916
	c-0.616-0.615-0.915-1.338-0.915-2.207c0-0.859,0.299-1.578,0.915-2.197c0.624-0.621,1.344-0.924,2.206-0.924
	c0.861,0,1.583,0.303,2.208,0.924c0.621,0.625,0.924,1.346,0.924,2.197C88.692,36.245,88.39,36.967,87.769,37.59 M85.561,29.598
	c-1.581,0-2.958,0.574-4.09,1.707c-1.124,1.123-1.694,2.496-1.694,4.078c0,1.566,0.549,2.932,1.63,4.057
	c1.093,1.135,2.434,1.709,3.986,1.709c1.231,0,2.341-0.365,3.3-1.086v6.26h2.666V35.383c0-1.574-0.575-2.947-1.707-4.078
	C88.521,30.172,87.144,29.598,85.561,29.598"/>
<path fill="#FFFFFF" d="M100.171,36.239c0,0.617-0.219,1.141-0.674,1.594s-0.977,0.674-1.596,0.674
	c-0.615,0-1.136-0.221-1.594-0.674c-0.452-0.455-0.674-0.979-0.674-1.594V29.77h-2.662v6.469c0,1.301,0.499,2.457,1.483,3.436
	c0.985,0.979,2.146,1.475,3.446,1.475c1.289,0,2.445-0.496,3.437-1.475c0.994-0.977,1.498-2.135,1.498-3.436V29.77h-2.665V36.239z"
	/>
<path fill="#FFFFFF" d="M55.715,16.401c0-0.869,0.296-1.594,0.907-2.219c0.609-0.619,1.33-0.924,2.205-0.924
	c0.599,0,1.142,0.156,1.65,0.471l-4.728,3.068C55.728,16.657,55.715,16.526,55.715,16.401 M61.054,18.557
	c-0.582,0.637-1.302,0.947-2.196,0.947c-0.605,0-1.149-0.154-1.653-0.469l7.104-4.619l-0.103-0.234
	c-0.476-1.086-1.205-1.965-2.168-2.611c-0.964-0.646-2.045-0.975-3.21-0.975c-1.598,0-2.974,0.574-4.093,1.707
	c-1.118,1.133-1.684,2.51-1.684,4.098c0,1.604,0.572,2.977,1.696,4.084c1.126,1.102,2.508,1.662,4.11,1.662
	c1.624,0,3.004-0.582,4.104-1.73c0.773-0.807,1.274-1.742,1.51-2.785h-2.817C61.506,17.961,61.314,18.272,61.054,18.557"/>
<path fill="#FFFFFF" d="M106.641,35.403c0-0.867,0.297-1.594,0.907-2.217c0.609-0.621,1.33-0.924,2.203-0.924
	c0.602,0,1.144,0.152,1.651,0.471l-4.727,3.066C106.653,35.661,106.641,35.528,106.641,35.403 M112.578,36.633
	c-0.146,0.332-0.339,0.643-0.598,0.928c-0.582,0.637-1.301,0.947-2.199,0.947c-0.604,0-1.148-0.156-1.651-0.471l7.103-4.619
	l-0.101-0.234c-0.478-1.084-1.205-1.963-2.168-2.611c-0.966-0.646-2.045-0.975-3.213-0.975c-1.596,0-2.972,0.574-4.09,1.707
	c-1.117,1.131-1.685,2.51-1.685,4.098c0,1.604,0.57,2.979,1.698,4.082c1.123,1.105,2.507,1.664,4.106,1.664
	c1.624,0,3.006-0.582,4.105-1.73c0.771-0.807,1.273-1.74,1.51-2.785H112.578z"/>
<polygon fill="#FFFFFF" points="23.079,7.075 20.308,7.075 20.308,21.977 29.189,21.977 29.189,19.217 23.079,19.217 "/>
<path fill="#FFFFFF" d="M24.172,35.997l2.06-5.643l2.057,5.643H24.172z M30.1,40.969h2.966l-5.287-14.908h-3.083l-5.265,14.908
	h2.926l0.906-2.482h5.933L30.1,40.969z"/>
</svg>
