<?xml version="1.0" encoding="utf-8"?>
<!-- Generator: Adobe Illustrator 18.0.0, SVG Export Plug-In . SVG Version: 6.00 Build 0)  -->
<!DOCTYPE svg PUBLIC "-//W3C//DTD SVG 1.1//EN" "http://www.w3.org/Graphics/SVG/1.1/DTD/svg11.dtd">
<svg version="1.1" id="vtt" xmlns="http://www.w3.org/2000/svg" xmlns:xlink="http://www.w3.org/1999/xlink" x="0px" y="0px"
	 width="38px" height="30px" viewBox="12 10.2 38 30" enable-background="new 12 10.2 38 30" xml:space="preserve">
<g class="base">
	<path  d="M19.9,20.2c0,0.1,0,0.2,0,0.2c0,0.1,0,0.1,0,0.2c0,0,0,0,0,0c0,0.1,0,0.1,0.1,0.2c0,0.1,0,0.1,0.1,0.2
		c0,0,0,0,0,0l2.5,4.1l0.6,4.7c0.1,0.6,0.6,1,1.2,0.9c0.1,0,0.1,0,0.2-0.1c0.5-0.2,0.8-0.6,0.7-1.1l-0.6-4.3c0.2,0.4,0.6,0.6,1,0.6
		c0.1,0,0.2,0,0.3-0.1c0.4-0.2,0.8-0.6,0.7-1.1L26.5,20c0-0.3-0.2-0.6-0.4-0.8c-0.2-0.2-0.5-0.3-0.8-0.3l-1.1,0.1l1.7-2.8l4.1,4.2
		c0.2,0.2,0.5,0.3,0.8,0.3c0.2,0,0.4-0.1,0.5-0.3c0.4-0.4,0.4-1,0-1.3L26.3,14c-0.1-0.1-0.2-0.2-0.3-0.2l-0.7-0.4
		c-0.5-0.3-1.2-0.1-1.5,0.4l-3.9,6.3L19.9,20.2C19.9,20.2,19.9,20.2,19.9,20.2z M24.4,21.2l0.2,3.3c0-0.1,0-0.2-0.1-0.2l-1.7-2.8
		l0-0.1L24.4,21.2z"/>
	<path  d="M29,14.1c1.1-0.4,1.6-1.5,1.3-2.5s-1.5-1.6-2.6-1.2c-1.1,0.4-1.6,1.5-1.3,2.5C26.8,13.9,28,14.5,29,14.1z"
		/>
	<path  d="M12.7,40.2H50c0,0-2.3-3-3.7-3.9c-1.4-0.9-3.6-1-5.9-0.3c-2.3,0.6-4-0.5-6.9-3c-0.5-0.4-1-0.8-1.6-1
		c0.7,0.2,1.4,0.2,2.1,0.1c2.8-0.4,4.8-3,4.3-5.8c-0.4-2.8-3.1-4.7-5.9-4.3c-2.8,0.4-4.8,3-4.3,5.8c0.3,1.9,1.6,3.4,3.3,4
		c-2.7-0.7-5.8,0.4-6.8,0.5c-1.1,0.2-2.8,0.7-4.5,1.4c1.7-1,2.7-3,2.4-5.1c-0.4-2.8-3.1-4.7-5.9-4.3c-2.8,0.4-4.8,3-4.3,5.8
		s3.1,4.7,5.9,4.3c0.3,0,0.6,0.1,0.9,0C16.1,35.9,13.4,37.7,12.7,40.2z"/>
</g>
</svg>
