<?xml version="1.0" encoding="utf-8"?>
<!-- Generator: Adobe Illustrator 18.0.0, SVG Export Plug-In . SVG Version: 6.00 Build 0)  -->
<!DOCTYPE svg PUBLIC "-//W3C//DTD SVG 1.1//EN" "http://www.w3.org/Graphics/SVG/1.1/DTD/svg11.dtd">
<svg version="1.1" id="equestre" xmlns="http://www.w3.org/2000/svg" xmlns:xlink="http://www.w3.org/1999/xlink" x="0px" y="0px"
	 width="38px" height="30px" viewBox="10.9 9.9 38 30" enable-background="new 10.9 9.9 38 30" xml:space="preserve">
<g class="base">
	<path d="M48.4,14.8c-0.1-0.1-1.7-1.3-4.5-1c-0.1,0-0.2,0-0.3,0L42.8,13c-0.3-0.3-0.9-0.4-1.2,0
		c-0.3,0.3-0.4,0.8,0,1.2l0.2,0.2c-0.4,0.1-0.8,0.3-1.2,0.5L39.5,14c-0.4-0.3-0.9-0.3-1.2,0.1C38,14.4,38,15,38.4,15.3l0.5,0.4
		c-0.4,0.3-0.9,0.6-1.3,1L36.6,16c-0.4-0.3-0.9-0.2-1.2,0.1c-0.3,0.4-0.2,0.9,0.1,1.2l0.7,0.5c-1,1-2.1,2.1-3.1,3.4l-3.9-4.8
		c0,0-0.9-1.1-2.4-1c0,0-0.9,0.2-2,1.1L17,21.9c-0.1,0.2-0.3,0.4-0.3,0.6c-0.2,1,0.1,2,0.8,2.6l1.3,1.2c-2.6-0.1-5.3,0-7.6,1.7
		c-0.4,0.3-0.5,0.9-0.2,1.3c0.2,0.2,0.5,0.4,0.8,0.4c0.2,0,0.4-0.1,0.6-0.2c2.1-1.6,4.8-1.4,7.6-1.2l0.1,0c0,0,0.1,0,0.1,0
		c0.2,0,0.4,0,0.7,0l2.5,2.3l-1.9,7c-0.3,1,0.3,2,1.4,2.3c1,0.3,2.1-0.3,2.3-1.3l2.3-8.8c0,0,0.5-1.2-0.6-2.3
		c0.6-0.2,1.3-0.4,1.9-0.6c1.6-0.6,2.9-1.5,4.1-2.6c0,0,0.1,0,0.1,0.1v0l4.3,1.6c1.7,1,3-1.2,1.3-2.2l-3.8-1.5c4-5,7.3-6.3,9.3-6.6
		c1.3-0.2,2.9,0.2,2.9,0.4v7c0,0.5,0.4,1,0.9,1s0.9-0.4,0.9-1v-7.5C48.9,15.2,48.6,15,48.4,14.8z M25.3,25.9l-2-1.7l5.7-3.4l2.3,2.3
		C29.8,24.5,27.8,25.4,25.3,25.9z"/>
	<ellipse cx="45" cy="18.7" rx="0.7" ry="0.7"/>
	<path d="M32,16.3c1.8-0.2,3.1-1.8,2.9-3.6c-0.2-1.8-1.9-3-3.7-2.8c-1.8,0.2-3.1,1.9-2.9,3.6
		C28.5,15.3,30.1,16.6,32,16.3z"/>
</g>
</svg>
