<?xml version="1.0" encoding="utf-8"?>
<!-- Generator: Adobe Illustrator 18.0.0, SVG Export Plug-In . SVG Version: 6.00 Build 0)  -->
<!DOCTYPE svg PUBLIC "-//W3C//DTD SVG 1.1//EN" "http://www.w3.org/Graphics/SVG/1.1/DTD/svg11.dtd">
<svg version="1.1" id="pedestre" xmlns="http://www.w3.org/2000/svg" xmlns:xlink="http://www.w3.org/1999/xlink" x="0px" y="0px"
	 width="14px" height="30px" viewBox="23 9.9 14 30" enable-background="new 23 9.9 14 30" xml:space="preserve">
<g class="base">
	<ellipse  cx="32.5" cy="12.6" rx="2.9" ry="2.7"/>
	<path  d="M36.6,21.5c-0.3-0.1-0.6,0.1-0.7,0.3l-0.4,1.3l-3.2-1.5l0.1-4.2c0-0.1,0-0.2-0.1-0.3l0-0.3
		c0.1-0.8-0.5-1.5-1.3-1.6l-1.4-0.2c-0.8-0.1-1.6,0.4-1.7,1.2c-0.9,0.5-2.9,1.7-3.2,3.4c-0.4,2.1,0.6,4,2,4.4l-0.3,2.1l0,0l-0.8,6.1
		L23.1,38c-0.3,0.7,0.1,1.6,0.9,1.8c0.2,0.1,0.4,0.1,0.6,0.1c0.6,0,1.2-0.3,1.4-0.9l2.6-6.1l0.6-4.1l2.1,6.5l-1.2,3.5
		c-0.1,0.3,0.1,0.6,0.4,0.7c0.1,0,0.1,0,0.2,0c0.2,0,0.5-0.1,0.5-0.4l0.7-2l0.3,1c0.2,0.6,0.8,1,1.5,1c0.1,0,0.3,0,0.4-0.1
		c0.8-0.2,1.3-1,1-1.8l-1.6-5l2.3-6.6c0.4-0.1,0.8-0.3,1-0.7c0.3-0.5,0.1-1-0.3-1.4l0.5-1.5C37.1,21.9,36.9,21.6,36.6,21.5z
		 M31.1,24.9l0.1-1l3.4,1.6l-1.8,5L31.1,24.9z"/>
</g>
</svg>
