<?xml version="1.0" encoding="utf-8"?>
<!-- Generator: Adobe Illustrator 18.0.0, SVG Export Plug-In . SVG Version: 6.00 Build 0)  -->
<!DOCTYPE svg PUBLIC "-//W3C//DTD SVG 1.1//EN" "http://www.w3.org/Graphics/SVG/1.1/DTD/svg11.dtd">
<svg version="1.1" id="velo" xmlns="http://www.w3.org/2000/svg" xmlns:xlink="http://www.w3.org/1999/xlink" x="0px" y="0px"
	 width="41.8px" height="30px" viewBox="9.1 10 41.8 30" enable-background="new 9.1 10 41.8 30" xml:space="preserve">
<g class="base">
	<path  d="M35.2,21c-0.2-0.4-0.6-0.6-1-0.7l-1.5-0.3l2.7-2.2l0,3.1l5.3,2.6c0.2,0.1,0.4,0.1,0.6,0.1
		c0.5,0,0.9-0.3,1.2-0.7c0.3-0.6,0.1-1.4-0.6-1.7l-3.9-1.9l0.1-4.4c0-0.4-0.2-0.8-0.5-1l-0.8-1c-0.5-0.6-1.5-0.7-2.1-0.2l-7.7,6.4
		c0,0-0.1,0-0.1,0.1c0,0-0.1,0.1-0.1,0.1c0,0-0.1,0.1-0.1,0.1c0,0-0.1,0.1-0.1,0.1c0,0,0,0.1-0.1,0.1c0,0-0.1,0.1-0.1,0.1
		c0,0,0,0.1-0.1,0.1c0,0,0,0.1,0,0.1c0,0,0,0,0,0c0,0.1,0,0.1,0,0.2c0,0,0,0.1,0,0.1c0,0,0,0.1,0,0.1c0,0.1,0,0.1,0,0.2c0,0,0,0,0,0
		l1.4,6.5l-1.4,6.5c-0.2,0.8,0.4,1.6,1.2,1.8c0.1,0,0.2,0,0.3,0c0.7,0,1.3-0.5,1.5-1.2l1.3-5.9c0.1,0.6,0.5,1,1.1,1.2
		c0.1,0,0.3,0.1,0.4,0.1c0.6,0,1.3-0.4,1.4-1.1l1.9-6.3C35.4,21.8,35.4,21.3,35.2,21z M30.7,27.1c0-0.1,0-0.2,0-0.2l-0.9-4.5
		l0.1-0.1l2.2,0.5L30.7,27.1z"/>
	<ellipse  cx="41.3" cy="12.8" rx="2.8" ry="2.8"/>
	<ellipse  cx="17.1" cy="32.1" rx="8" ry="7.9"/>
	<ellipse  cx="42.9" cy="32.1" rx="8" ry="7.9"/>
</g>
</svg>
