<?xml version="1.0" encoding="utf-8"?>
<!-- Generator: Adobe Illustrator 18.0.0, SVG Export Plug-In . SVG Version: 6.00 Build 0)  -->
<!DOCTYPE svg PUBLIC "-//W3C//DTD SVG 1.1//EN" "http://www.w3.org/Graphics/SVG/1.1/DTD/svg11.dtd">
<svg version="1.1"
	 id="loop" xmlns:cc="http://creativecommons.org/ns#" xmlns:dc="http://purl.org/dc/elements/1.1/" xmlns:rdf="http://www.w3.org/1999/02/22-rdf-syntax-ns#" xmlns:svg="http://www.w3.org/2000/svg"
	 xmlns="http://www.w3.org/2000/svg" xmlns:xlink="http://www.w3.org/1999/xlink" x="0px" y="0px" width="128px" height="128px"
	 viewBox="0 0 128 128" enable-background="new 0 0 128 128" xml:space="preserve">
<g class="base">
	<path d="M65.1,119.4L65.1,119.4c-7.2,0-13.1-5.9-13.1-13.1c0-7.2,5.9-13.1,13.1-13.1c7.2,0,13.1,5.9,13.1,13.1
		C78.2,113.5,72.3,119.4,65.1,119.4z M65.1,103.2c-1.7,0-3.1,1.4-3.1,3.1c0,1.7,1.4,3.1,3.1,3.1c1.7,0,3.1-1.4,3.1-3.1
		S66.8,103.2,65.1,103.2z"/>
	<path d="M72.7,113.1c-1,0-2-0.4-2.7-1.2c-1.3-1.5-1.1-3.7,0.4-4.9c0.4-0.3,40.1-35,41.6-64.3c0.4-7.9-2-14.6-7.4-20.2
		c-16.3-17.3-28.8-8.8-47.9,6.5C46,37.4,35.1,46.2,22.5,47.5c-2.8,0.3-4.5,1.1-4.9,2.4c-0.6,1.7-0.9,8.8,18,30.2
		c10.6,12,22,22.5,22.1,22.6c1.4,1.3,1.5,3.5,0.2,4.9c-1.3,1.4-3.5,1.5-4.9,0.2c-0.1-0.1-11.7-10.8-22.6-23.1
		C9.7,61.4,9.4,52.4,11,47.7c0.9-2.9,3.6-6.4,10.9-7.1c10.5-1,20.6-9.2,30.5-17.1C69.1,10,88.1-5.2,109.7,17.6
		c6.7,7,9.8,15.6,9.3,25.4c-1.6,32.3-42.2,67.7-44,69.2C74.3,112.8,73.5,113.1,72.7,113.1z"/>
</g>
</svg>
