<?xml version="1.0" encoding="utf-8"?>
<!-- Generator: Adobe Illustrator 18.0.0, SVG Export Plug-In . SVG Version: 6.00 Build 0)  -->
<!DOCTYPE svg PUBLIC "-//W3C//DTD SVG 1.1//EN" "http://www.w3.org/Graphics/SVG/1.1/DTD/svg11.dtd">
<svg version="1.1" id="vignoble" xmlns="http://www.w3.org/2000/svg" xmlns:xlink="http://www.w3.org/1999/xlink" x="0px" y="0px"
	 width="50px" height="35px" viewBox="0 0 50 35" enable-background="new 0 0 50 35" xml:space="preserve">
<path class="base"  d="M35,14.4c0-1.5-1-2.8-2.5-3.2c-0.4-1.4-1.7-2.3-3.2-2.3c-0.2,0-0.4,0-0.6,0.1
	c0.1-0.2,0.1-0.4,0.2-0.7c0.1-0.6,0.1-1.3-0.1-1.8c-0.1-0.5-0.4-0.9-0.6-1.3c-0.8-1.5-1.7-2.6-2.1-3.4C26.1,1.4,26,1.1,26,1.1
	C26,0.9,26,1,26,1c0,0-0.1,0-0.1,0c-0.7-0.2-1.3,0.4-1.8,0.2C23.6,1,23.2,0.1,23,0.3c-0.1,0.1-0.1,0.1-0.1,0.1c0,0-0.1,0.5,0,1
	c0.1,0.6,0.3,1.1,0.6,1.7C24,4.4,25,5.5,25.6,6.6c0.3,0.5,0.4,1,0.4,1c0,0.1-0.1,0.3-0.2,0.5c-0.1,0.2-0.2,0.4-0.3,0.6
	c-0.1,0.1-0.1,0.2-0.2,0.2c-0.1,0-0.2,0-0.3,0c-0.1,0-0.2,0-0.2,0c-0.5-1.2-1.7-2.1-3.1-2.1c-1.8,0-3.3,1.5-3.3,3.3
	c0,0.1,0,0.2,0,0.3c-1.2,0.5-2,1.7-2,3c0,0.6,0.2,1.3,0.5,1.8c-1.1,0.5-1.9,1.6-1.9,2.9c0,1.4,0.9,2.6,2.2,3.1
	c-0.5,0.6-0.9,1.3-0.9,2.2c0,0.4,0.1,0.8,0.2,1.2c-0.1,0.3-0.2,0.7-0.2,1.1c0,0.9,0.5,1.8,1.2,2.2c-0.6,0.5-1,1.2-1,2.1
	c0,1.3,0.9,2.3,2.1,2.6c0.3,1.2,1.4,2.1,2.7,2.1c1.5,0,2.7-1.2,2.7-2.7c0-0.5-0.1-0.9-0.4-1.3C25,30.2,26,29,26,27.5
	c0-0.1,0-0.2,0-0.3c0,0,0,0,0,0c1.8,0,3.3-1.5,3.3-3.3c0-0.2,0-0.4-0.1-0.6c0,0,0.1,0,0.1,0c1.8,0,3.3-1.5,3.3-3.3
	c0-0.9-0.4-1.8-1-2.4c0,0,0,0,0,0C33.5,17.7,35,16.2,35,14.4z"/>
</svg>
