<?xml version="1.0" encoding="utf-8"?>
<!-- Generator: Adobe Illustrator 18.0.0, SVG Export Plug-In . SVG Version: 6.00 Build 0)  -->
<!DOCTYPE svg PUBLIC "-//W3C//DTD SVG 1.1//EN" "http://www.w3.org/Graphics/SVG/1.1/DTD/svg11.dtd">
<svg version="1.1" id="littoral" xmlns="http://www.w3.org/2000/svg" xmlns:xlink="http://www.w3.org/1999/xlink" x="0px" y="0px"
	 width="50px" height="35px" viewBox="0 0 50 35" enable-background="new 0 0 50 35" xml:space="preserve">
<g class="base">
	<path  d="M28.5,5.7h-1.6V5c0-1.1-0.8-2.1-2-2.3c0.1-0.1,0.2-0.3,0.2-0.4c0-0.4-0.4-0.7-0.8-0.7s-0.8,0.3-0.8,0.7
		c0,0.2,0.1,0.3,0.2,0.4c-1.1,0.3-2,1.2-2,2.3v0.8h-1.6v2.4h8.3C28.5,8.1,28.5,5.7,28.5,5.7z"/>
	<polygon  points="36.9,32.5 35.9,30.9 32.6,30.4 29.3,29.7 28.4,29.6 28.2,24.1 20.5,24.1 20.2,29.1 19.3,29.2 
		18.5,30.7 16.9,31.9 15.2,30.8 12.4,31.3 10,33.5 20,33.5 28.6,33.5 40,33.5 	"/>
	<polygon  points="20.8,17.2 27.9,17.2 27.7,14.3 20.9,14.3 	"/>
	<polygon  points="21.2,9.5 21,12.3 27.6,12.3 27.5,9.5 	"/>
	<polygon  points="20.6,22 28.1,22 28,19.2 20.7,19.2 	"/>
</g>
</svg>
