<?xml version="1.0" encoding="utf-8"?>
<!-- Generator: Adobe Illustrator 18.0.0, SVG Export Plug-In . SVG Version: 6.00 Build 0)  -->
<!DOCTYPE svg PUBLIC "-//W3C//DTD SVG 1.1//EN" "http://www.w3.org/Graphics/SVG/1.1/DTD/svg11.dtd">
<svg version="1.1" id="rivieres" xmlns="http://www.w3.org/2000/svg" xmlns:xlink="http://www.w3.org/1999/xlink" x="0px" y="0px"
	 width="50px" height="35px" viewBox="0 0 50 35" enable-background="new 0 0 50 35" xml:space="preserve">
<path class="base"  d="M44.2,20.2c1.4-0.6,2.3-1.1,4.3-1.1v-1.9c-2,0-3.7,0.7-5.1,1.3c-1.1,0.4-1.9,0.8-2.9,0.9V5h-28
	v11.8c0,0,0.3,0,0.1,0c-1.8,0-3.7,0.7-5.2,1.3c-1.6,0.7-2.9,1.4-5.9,1.4v1.9c3,0,5.3-0.8,7.1-1.6c1.4-0.6,2.9-1.1,4.3-1.1
	c2.4,0,4,0.7,5.5,1.5c1.2,0.6,2.5,1.2,4,1.2c1.6,0,3.1-0.7,4.5-1.3c1.5-0.7,2.6-1.4,4.2-1.4c1,0,1.5,0.2,2.5,0.6v2.5
	c-1-0.3-1.4-0.5-2.4-0.5c-2.1,0-3.7,0.8-5.3,1.6c-1.3,0.6-2.4,1.1-3.5,1.1c-1,0-1.8-0.4-2.9-1c-1.5-0.8-3.3-1.7-6.2-1.7
	c-1.8,0-4,0.7-5.5,1.3C6.1,23.2,4.5,24,1.5,24v1.9c3,0,5.3-0.8,7.1-1.6c1.4-0.6,2.9-1.1,4.3-1.1c2.4,0,4,0.7,5.5,1.5
	c1.2,0.6,2.5,1.2,4,1.2c1.6,0,3.1-0.7,4.5-1.3c1.5-0.7,2.6-1.4,4.2-1.4c1,0,1.5,0.2,2.5,0.6v3c-1-0.3-1.4-0.5-2.4-0.5
	c-2.1,0-3.7,0.8-5.3,1.6c-1.3,0.6-2.4,1.1-3.5,1.1c-1,0-1.8-0.4-2.9-1c-1.5-0.8-3.3-1.7-6.2-1.7c-1.8,0-4,0.7-5.5,1.3
	C6.1,28.3,4.5,29,1.5,29V31c3,0,5.3-0.8,7.1-1.6c1.4-0.6,2.9-1.1,4.3-1.1c2.4,0,4,0.7,5.5,1.5c1.2,0.6,2.5,1.2,4,1.2
	c1.6,0,3.1-0.7,4.5-1.3c1.5-0.7,3-1.4,4.7-1.4c1.8,0,3.6,0.8,5.2,1.5c1.5,0.6,2.7,1.2,3.9,1.2c1.9,0,2.5-0.6,3.9-1.1
	c1.4-0.6,2-1.1,4-1.1v-1.9c-2,0-3.7,0.7-5.1,1.3c-1.1,0.4-1.9,0.8-2.9,0.9v-3.2c1-0.1,2.5-0.6,3.7-1.1c1.4-0.6,2.3-1.1,4.3-1.1v-1.9
	c-2,0-3.7,0.7-5.1,1.3c-1.1,0.4-1.9,0.8-2.9,0.9v-2.6C41.5,21.2,43,20.7,44.2,20.2z M26,18.3c-1.3,0.6-3.1,1.1-4.2,1.1
	c-0.6,0-1.3-0.2-2.3-0.4v-1.5c0-3.6,3.7-6.6,7.5-6.6c3.7,0,7,2.8,7.2,6.3c-0.9-0.3-1.7-0.5-2.8-0.5C29.3,16.7,27.6,17.6,26,18.3z"/>
</svg>
