<?xml version="1.0" encoding="utf-8"?>
<!-- Generator: Adobe Illustrator 18.0.0, SVG Export Plug-In . SVG Version: 6.00 Build 0)  -->
<!DOCTYPE svg PUBLIC "-//W3C//DTD SVG 1.1//EN" "http://www.w3.org/Graphics/SVG/1.1/DTD/svg11.dtd">
<svg version="1.1" id="campagne" xmlns="http://www.w3.org/2000/svg" xmlns:xlink="http://www.w3.org/1999/xlink" x="0px" y="0px"
	 width="50px" height="35px" viewBox="0 0 50 35" enable-background="new 0 0 50 35" xml:space="preserve">
<path class="base"  d="M34.5,20.6c3.1,0,4.5-1.4,4.5-3.1s-1.3-3.1-4.5-3.1c-1.7,0-3.5,0.9-4.9,1.7
	c-0.1-0.3-0.2-0.6-0.4-0.9c1.5-0.4,3.5-1.1,4.6-2.2c2.2-2.2,2.2-4.1,0.9-5.4c-1.2-1.2-3.1-1.3-5.4,0.9c-1.2,1.2-1.9,3.1-2.2,4.6
	c-0.3-0.1-0.6-0.3-0.9-0.4c0.8-1.4,1.7-3.2,1.7-4.9c0-3.1-1.4-4.5-3.1-4.5c-1.7,0-3.1,1.3-3.1,4.5c0,1.7,0.9,3.5,1.7,4.9
	c-0.3,0.1-0.6,0.2-0.9,0.4c-0.4-1.5-1.1-3.5-2.2-4.6c-2.2-2.2-4.1-2.2-5.4-0.9c-1.2,1.2-1.3,3.1,0.9,5.4c1.2,1.2,3.1,1.9,4.6,2.2
	c-0.1,0.3-0.3,0.6-0.4,0.9c-1.4-0.8-3.2-1.7-4.9-1.7c-3.1,0-4.5,1.4-4.5,3.1c0,1.7,1.3,3.1,4.5,3.1c1.7,0,3.5-0.9,4.9-1.7
	c0.1,0.3,0.2,0.6,0.4,0.9c-1.5,0.4-3.5,1.1-4.6,2.2c-2.2,2.2-2.2,4.1-0.9,5.4s3.1,1.3,5.4-0.9c1.2-1.2,1.9-3.1,2.2-4.6
	c0.3,0.1,0.6,0.3,0.9,0.4c-0.8,1.4-1.7,3.2-1.7,4.9c0,3.1,1.4,4.5,3.1,4.5c1.7,0,3.1-1.3,3.1-4.5c0-1.7-0.9-3.5-1.7-4.9
	c0.3-0.1,0.6-0.2,0.9-0.4c0.4,1.5,1.1,3.5,2.2,4.6c2.2,2.2,4.1,2.2,5.4,0.9c1.2-1.2,1.3-3.1-0.9-5.4c-1.2-1.2-3.1-1.9-4.6-2.2
	c0.1-0.3,0.3-0.6,0.4-0.9C31.1,19.7,32.9,20.6,34.5,20.6z"/>
</svg>
