<?xml version="1.0" encoding="utf-8"?>
<!-- Generator: Adobe Illustrator 18.0.0, SVG Export Plug-In . SVG Version: 6.00 Build 0)  -->
<!DOCTYPE svg PUBLIC "-//W3C//DTD SVG 1.1//EN" "http://www.w3.org/Graphics/SVG/1.1/DTD/svg11.dtd">
<svg version="1.1" id="marais" xmlns="http://www.w3.org/2000/svg" xmlns:xlink="http://www.w3.org/1999/xlink" x="0px" y="0px"
	 width="50px" height="35px" viewBox="0 0 50 35" enable-background="new 0 0 50 35" xml:space="preserve">
<path class="base"  d="M27.2,31.9c0.4-1.2,2-4.7,6.4-5.8c-2.3-0.1-4.3,0.9-5.8,2.1c1.6-2.3,4.4-4.8,9.4-6.4
	c-4.3,0.4-7.3,2.1-9.3,4c1.5-5.9,4.3-14.3,9.3-19.6c-5.4,2.5-9.5,13.6-11.7,20.6c0.3-4.3,0.8-9.3,1.4-13.8c0.5-0.2,0.8-0.6,0.9-1.1
	l1.2-6.4c0.1-0.6-0.1-1.1-0.6-1.4c0.2-0.9,0.4-1.6,0.6-2.1c0.1-0.3,0-0.5-0.3-0.6c-0.3-0.1-0.5,0-0.6,0.3C28,2.3,27.8,3.1,27.6,4
	c-0.7,0-1.2,0.5-1.3,1.2L25,11.5c-0.1,0.7,0.3,1.4,1,1.6c-0.6,4.2-1.1,8.9-1.4,13.1c-2-4.7-5.2-10.3-9.1-11.8
	c3.3,2.7,5.4,6.6,6.9,10.2c-2.1-2.4-5.1-4.5-9.5-5c6.5,2.4,9.3,6.9,10.5,10c-1.6-0.8-3.8-1.4-5.9-0.5c3.3-0.2,5.3,1.6,6.2,2.8
	c-6.3,0-11.2,0.4-11.2,0.8c0,0.5,5.6,0.8,12.5,0.8c6.9,0,12.5-0.4,12.5-0.8C37.5,32.3,33.1,31.9,27.2,31.9z"/>
</svg>
