<?xml version="1.0" encoding="utf-8"?>
<!-- Generator: Adobe Illustrator 16.0.0, SVG Export Plug-In . SVG Version: 6.00 Build 0)  -->
<!DOCTYPE svg PUBLIC "-//W3C//DTD SVG 1.1//EN" "http://www.w3.org/Graphics/SVG/1.1/DTD/svg11.dtd">
<svg version="1.1" id="Calque_1" xmlns="http://www.w3.org/2000/svg" xmlns:xlink="http://www.w3.org/1999/xlink" x="0px" y="0px"
	 width="36.41px" height="36.409px" viewBox="0 0 36.41 36.409" enable-background="new 0 0 36.41 36.409" xml:space="preserve">
<path fill="#FFFFFF" d="M26.637,10.464H25.1V8.201c0-0.656-0.467-1.188-1.045-1.188s-1.047,0.532-1.047,1.188v2.263h-9.163V8.201
	c0-0.656-0.469-1.188-1.046-1.188s-1.046,0.532-1.046,1.188v2.263h-1.472c-0.705,0-1.276,0.637-1.276,1.423v14.747
	c0,0.786,0.571,1.423,1.276,1.423h16.356c0.705,0,1.277-0.637,1.277-1.423V11.887C27.914,11.102,27.342,10.464,26.637,10.464z
	 M23.008,11.849v0.002c0,0.656,0.469,1.188,1.047,1.188s1.045-0.532,1.045-1.188v-0.003c0.305,0.32,0.498,0.774,0.498,1.282
	c0,0.967-0.691,1.752-1.543,1.752c-0.854,0-1.545-0.785-1.545-1.752C22.51,12.623,22.703,12.169,23.008,11.849z M11.752,11.849
	v0.002c0,0.656,0.468,1.188,1.046,1.188c0.578,0,1.046-0.532,1.046-1.188V11.85c0.304,0.32,0.497,0.773,0.497,1.281
	c0,0.967-0.691,1.752-1.543,1.752s-1.544-0.785-1.544-1.752C11.255,12.623,11.448,12.169,11.752,11.849z M26.82,26.237
	c0,0.295-0.211,0.534-0.471,0.534h-1.744l2.215-2.601V26.237z M26.82,22.706l-0.176,0.205H24.84c-0.707,0-1.277,0.529-1.277,1.419
	v2.202l-0.205,0.239H10.644c-0.26,0-0.471-0.239-0.471-0.534V15.622H26.82V22.706z M20.947,20.487h-1.814v2.035h1.814V20.487z
	 M13.687,23.836h-1.815v2.037h1.815V23.836z M20.947,23.836h-1.814v2.037h1.814V23.836z M20.947,17.135h-1.814v2.037h1.814V17.135z
	 M17.317,17.135h-1.815v2.037h1.815V17.135z M13.687,17.135h-1.815v2.036h1.815V17.135z M13.687,20.487h-1.815v2.035h1.815V20.487z
	 M17.317,23.836h-1.815v2.037h1.815V23.836z M17.317,20.487h-1.815v2.035h1.815V20.487z"/>
</svg>
