<?xml version="1.0" encoding="UTF-8" standalone="no"?>
<!-- Created with Inkscape (http://www.inkscape.org/) -->
<svg xmlns:dc="http://purl.org/dc/elements/1.1/" xmlns:cc="http://creativecommons.org/ns#" xmlns:rdf="http://www.w3.org/1999/02/22-rdf-syntax-ns#" xmlns:svg="http://www.w3.org/2000/svg" xmlns="http://www.w3.org/2000/svg" xmlns:xlink="http://www.w3.org/1999/xlink" xmlns:sodipodi="http://sodipodi.sourceforge.net/DTD/sodipodi-0.dtd" xmlns:inkscape="http://www.inkscape.org/namespaces/inkscape" width="188.87991mm" height="197.15051mm" viewBox="0 0 188.87991 197.15051" version="1.1" id="svg705" inkscape:version="0.92.5 (2060ec1f9f, 2020-04-08)" sodipodi:docname="picto-equipment.svg">
  <defs id="defs699">
    <symbol overflow="visible" id="v" style="overflow:visible">
      <path id="path707" d="M 1.8281,-0.10938 C 1.73435,-0.054692 1.63279,-0.019536 1.53122,0 1.43747,0.019531 1.332,0.03125 1.21872,0.03125 c -0.33594,0 -0.60156,-0.085938 -0.79688,-0.26562 -0.1875,-0.1875 -0.28125,-0.44141 -0.28125,-0.76562 0,-0.3125 0.09375,-0.5625 0.28125,-0.75 0.19531,-0.1875 0.46094,-0.28125 0.79688,-0.28125 0.11328,0 0.21875,0.015625 0.3125,0.046875 0.10156,0.023437 0.20312,0.058594 0.29688,0.10938 v 0.40625 C 1.73435,-1.531235 1.6406,-1.578115 1.54685,-1.609355 1.4531,-1.640595 1.35154,-1.65623 1.24997,-1.65623 c -0.17969,0 -0.32031,0.0625 -0.42188,0.1875 -0.10547,0.11719 -0.15625,0.27344 -0.15625,0.46875 0,0.21094 0.050781,0.375 0.15625,0.5 0.10156,0.11719 0.24219,0.17188 0.42188,0.17188 0.10156,0 0.20312,-0.015625 0.29688,-0.046875 0.09376,-0.03125 0.1875,-0.078125 0.28125,-0.14062 z" inkscape:connector-curvature="0"/>
    </symbol>
    <symbol overflow="visible" id="f" style="overflow:visible">
      <path id="path710" d="M 1.3438,-1.0938 C 1.300831,-1.113331 1.257862,-1.12505 1.2188,-1.12505 1.175831,-1.132862 1.132862,-1.140675 1.0938,-1.140675 c -0.125,0 -0.22656,0.042969 -0.29688,0.125 -0.0625,0.074219 -0.09375,0.18359 -0.09375,0.32812 v 0.6875 H 0.23442 v -1.5 h 0.46875 v 0.25 c 0.0625,-0.09375 0.12891,-0.16016 0.20312,-0.20312 C 0.988321,-1.503956 1.08598,-1.5313 1.20317,-1.5313 h 0.046875 c 0.019531,0 0.050781,0.00781 0.09375,0.015625 z" inkscape:connector-curvature="0"/>
    </symbol>
    <symbol overflow="visible" id="a" style="overflow:visible">
      <path id="path713" d="m 1.7188,-0.75 v 0.14062 H 0.6094 c 0.007813,0.10547 0.046875,0.1875 0.10938,0.25 0.070312,0.054687 0.17188,0.078125 0.29688,0.078125 0.10156,0 0.20703,-0.015625 0.3125,-0.046875 0.10156,-0.03125 0.21094,-0.070313 0.32812,-0.125 v 0.35938 C 1.53909,-0.050781 1.42581,-0.019531 1.31253,0 1.19534,0.019531 1.08206,0.03125 0.96878,0.03125 c -0.27344,0 -0.48047,-0.066406 -0.625,-0.20312 -0.14844,-0.13281 -0.21875,-0.32812 -0.21875,-0.57812 0,-0.23828 0.070312,-0.42578 0.21875,-0.5625 0.14453,-0.14453 0.34766,-0.21875 0.60938,-0.21875 0.22656,0 0.41016,0.074219 0.54688,0.21875 0.14453,0.13672 0.21875,0.32422 0.21875,0.5625 z M 1.23442,-0.90625 C 1.23442,-1 1.207076,-1.07031 1.156295,-1.125 c -0.054688,-0.0625 -0.125,-0.09375 -0.21875,-0.09375 -0.085938,0 -0.15625,0.027344 -0.21875,0.078125 -0.0625,0.054687 -0.10156,0.13281 -0.10938,0.23438 z" inkscape:connector-curvature="0"/>
    </symbol>
    <symbol overflow="visible" id="e" style="overflow:visible">
      <path id="path716" d="m 0.90625,-0.67188 c -0.10547,0 -0.18359,0.015625 -0.23438,0.046875 -0.054687,0.03125 -0.078125,0.085938 -0.078125,0.15625 0,0.0625 0.019531,0.10938 0.0625,0.14062 0.039062,0.03125 0.097656,0.046875 0.17188,0.046875 0.09375,0 0.16406,-0.03125 0.21875,-0.09375 0.0625,-0.0625 0.09375,-0.14453 0.09375,-0.25 V -0.671885 Z M 1.625,-0.85938 V 0 H 1.14062 V -0.21875 C 1.07812,-0.125 1.0039,-0.05469 0.92187,-0.01563 0.847651,0.01562 0.7539,0.031245 0.64062,0.031245 c -0.15625,0 -0.28125,-0.039062 -0.375,-0.125 -0.09375,-0.09375 -0.14062,-0.21094 -0.14062,-0.35938 0,-0.17578 0.054688,-0.30078 0.17188,-0.375 0.125,-0.082031 0.3125,-0.125 0.5625,-0.125 H 1.14063 V -1.00001 c 0,-0.070312 -0.03125,-0.125 -0.09375,-0.15625 -0.054687,-0.039062 -0.14062,-0.0625 -0.26562,-0.0625 -0.10547,0 -0.20312,0.011719 -0.29688,0.03125 C 0.398443,-1.164072 0.32032,-1.132822 0.25,-1.09376 v -0.35938 c 0.10156,-0.03125 0.20703,-0.050781 0.3125,-0.0625 0.10156,-0.00781 0.20312,-0.015625 0.29688,-0.015625 0.26953,0 0.46094,0.054688 0.57812,0.15625 0.125,0.10547 0.1875,0.27734 0.1875,0.51562 z" inkscape:connector-curvature="0"/>
    </symbol>
    <symbol overflow="visible" id="d" style="overflow:visible">
      <path id="path719" d="m 0.75,-1.9219 v 0.42188 h 0.5 v 0.34375 h -0.5 v 0.64062 c 0,0.0625 0.007812,0.10938 0.03125,0.14062 0.03125,0.023438 0.085938,0.03125 0.17188,0.03125 h 0.25 V -3e-5 H 0.79688 C 0.60938,-3e-5 0.47266,-0.035186 0.39063,-0.10941 0.316411,-0.191441 0.28125,-0.32816 0.28125,-0.51566 v -0.64062 h -0.25 v -0.34375 h 0.25 v -0.42188 z" inkscape:connector-curvature="0"/>
    </symbol>
    <symbol overflow="visible" id="k" style="overflow:visible">
      <path id="path722" d="M 1.25,-1.2812 V -2.07808 H 1.73438 V 2e-5 H 1.25 V -0.21873 C 1.175781,-0.12498 1.09766,-0.05467 1.01562,-0.01561 0.941401,0.01564 0.85156,0.031265 0.75,0.031265 c -0.17969,0 -0.32812,-0.070312 -0.45312,-0.21875 -0.11719,-0.14453 -0.17188,-0.33203 -0.17188,-0.5625 0,-0.22656 0.054688,-0.41406 0.17188,-0.5625 0.125,-0.14453 0.27344,-0.21875 0.45312,-0.21875 0.10156,0 0.19141,0.023438 0.26562,0.0625 0.082031,0.042969 0.16016,0.10547 0.23438,0.1875 z m -0.3125,0.96875 c 0.09375,0 0.16406,-0.035156 0.21875,-0.10938 C 1.21875,-0.492143 1.25,-0.60152 1.25,-0.74995 c 0,-0.13281 -0.03125,-0.23828 -0.09375,-0.3125 -0.054688,-0.082031 -0.125,-0.125 -0.21875,-0.125 -0.10547,0 -0.18359,0.042969 -0.23438,0.125 -0.054687,0.074219 -0.078125,0.17969 -0.078125,0.3125 0,0.14844 0.023438,0.25781 0.078125,0.32812 0.050781,0.074219 0.12891,0.10938 0.23438,0.10938 z" inkscape:connector-curvature="0"/>
    </symbol>
    <symbol overflow="visible" id="j" style="overflow:visible">
      <path id="path725" d="m 1.0312,-0.3125 c 0.09375,0 0.16406,-0.035156 0.21875,-0.10938 0.0625,-0.070313 0.09375,-0.17969 0.09375,-0.32812 0,-0.13281 -0.03125,-0.23828 -0.09375,-0.3125 -0.054688,-0.082031 -0.125,-0.125 -0.21875,-0.125 -0.10547,0 -0.1875,0.042969 -0.25,0.125 -0.054688,0.074219 -0.078125,0.17969 -0.078125,0.3125 0,0.14844 0.023437,0.25781 0.078125,0.32812 0.0625,0.074219 0.14453,0.10938 0.25,0.10938 z M 0.70308,-1.28125 c 0.070313,-0.082031 0.14453,-0.14453 0.21875,-0.1875 0.082031,-0.039062 0.17578,-0.0625 0.28125,-0.0625 0.1875,0 0.33594,0.074219 0.45312,0.21875 0.11328,0.14844 0.17188,0.33594 0.17188,0.5625 0,0.23047 -0.058594,0.41797 -0.17188,0.5625 -0.11719,0.14844 -0.26562,0.21875 -0.45312,0.21875 -0.10547,0 -0.19922,-0.015625 -0.28125,-0.046875 -0.074219,-0.039062 -0.14844,-0.10938 -0.21875,-0.20312 V 5e-6 H 0.23433 v -2.0781 h 0.46875 z" inkscape:connector-curvature="0"/>
    </symbol>
    <symbol overflow="visible" id="i" style="overflow:visible">
      <path id="path728" d="M 0.03125,-1.5 H 0.51563 L 0.90625,-0.4844 1.25,-1.5 h 0.48438 l -0.625,1.6406 C 1.04688,0.30466 0.96876,0.42185 0.875,0.48435 0.789062,0.554663 0.67969,0.59373 0.54688,0.59373 H 0.28126 v -0.3125 h 0.14062 c 0.082031,0 0.14062,-0.015625 0.17188,-0.046875 0.039062,-0.023437 0.070312,-0.070313 0.09375,-0.14062 l 0.015625,-0.03125 z" inkscape:connector-curvature="0"/>
    </symbol>
    <symbol overflow="visible" id="c" style="overflow:visible">
      <path id="path731" d="m 1.3906,-1.4531 v 0.375 C 1.29685,-1.128881 1.19529,-1.164037 1.09372,-1.18748 0.99997,-1.207011 0.91013,-1.21873 0.8281,-1.21873 c -0.085937,0 -0.15234,0.015625 -0.20312,0.046875 -0.042969,0.023437 -0.0625,0.054687 -0.0625,0.09375 0,0.042969 0.015625,0.074219 0.046875,0.09375 0.03125,0.023437 0.09375,0.039063 0.1875,0.046875 l 0.078125,0.015625 c 0.25,0.03125 0.41406,0.085937 0.5,0.15625 0.082031,0.0625 0.125,0.17188 0.125,0.32812 0,0.15624 -0.0625,0.27734 -0.1875,0.35938 -0.11719,0.074219 -0.28906,0.10938 -0.51562,0.10938 -0.10547,0 -0.21094,-0.011719 -0.3125,-0.03125 -0.10547,-0.0078125 -0.21094,-0.03125 -0.3125,-0.0625 v -0.35938 c 0.09375,0.054687 0.1875,0.089844 0.28125,0.10938 0.10156,0.023438 0.20703,0.03125 0.3125,0.03125 0.09375,0 0.16016,-0.007812 0.20312,-0.03125 0.050781,-0.03125 0.078125,-0.070312 0.078125,-0.125 0,-0.039062 -0.015625,-0.070312 -0.046875,-0.09375 C 0.96873,-0.550756 0.89842,-0.566381 0.79686,-0.5781 L 0.718735,-0.593725 c -0.21875,-0.019531 -0.37109,-0.066406 -0.45312,-0.14062 -0.085937,-0.070313 -0.125,-0.17969 -0.125,-0.32812 0,-0.15625 0.050781,-0.26953 0.15625,-0.34375 0.11328,-0.082031 0.28125,-0.125 0.5,-0.125 0.09375,0 0.1875,0.011719 0.28125,0.03125 0.10156,0.011719 0.20703,0.027344 0.3125,0.046875 z" inkscape:connector-curvature="0"/>
    </symbol>
    <symbol overflow="visible" id="b" style="overflow:visible">
      <path id="path734" d="M 1.7344,-0.90625 V 0 H 1.25002 v -0.6875 c 0,-0.13281 -0.00781,-0.22266 -0.015625,-0.26562 0,-0.050781 -0.00781,-0.09375 -0.015625,-0.125 -0.023438,-0.03125 -0.046875,-0.050781 -0.078125,-0.0625 -0.03125,-0.019531 -0.070313,-0.03125 -0.10938,-0.03125 -0.10547,0 -0.1875,0.042969 -0.25,0.125 -0.054688,0.074219 -0.078125,0.17969 -0.078125,0.3125 V 1e-5 H 0.23439 v -2.0781 h 0.46875 v 0.79688 c 0.070313,-0.082031 0.14844,-0.14453 0.23438,-0.1875 0.082031,-0.039062 0.17188,-0.0625 0.26562,-0.0625 0.17578,0 0.30469,0.054688 0.39062,0.15625 0.09375,0.10547 0.14062,0.26172 0.14062,0.46875 z" inkscape:connector-curvature="0"/>
    </symbol>
    <symbol overflow="visible" id="h" style="overflow:visible">
      <path id="path737" d="M 1.7344,-0.90625 V 0 H 1.25002 v -0.70312 c 0,-0.125 -0.00781,-0.20703 -0.015625,-0.25 0,-0.050781 -0.00781,-0.09375 -0.015625,-0.125 -0.023438,-0.03125 -0.046875,-0.050781 -0.078125,-0.0625 -0.03125,-0.019531 -0.070313,-0.03125 -0.10938,-0.03125 -0.10547,0 -0.1875,0.042969 -0.25,0.125 -0.054688,0.074219 -0.078125,0.17969 -0.078125,0.3125 V 1e-5 H 0.23439 v -1.5 h 0.46875 v 0.21875 c 0.070313,-0.082031 0.14844,-0.14453 0.23438,-0.1875 0.082031,-0.039062 0.17188,-0.0625 0.26562,-0.0625 0.17578,0 0.30469,0.054688 0.39062,0.15625 0.09375,0.10547 0.14062,0.26172 0.14062,0.46875 z" inkscape:connector-curvature="0"/>
    </symbol>
    <symbol overflow="visible" id="u" style="overflow:visible">
      <path id="path740" d="m 0.23438,-2.0781 h 0.46875 v 1.125 l 0.54688,-0.54688 h 0.5625 L 1.07813,-0.81248 1.87501,2e-5 H 1.29689 l -0.59375,-0.625 V 2e-5 H 0.23439 Z" inkscape:connector-curvature="0"/>
    </symbol>
    <symbol overflow="visible" id="t" style="overflow:visible">
      <path id="path743" d="M 0.23438,-1.5 H 0.70313 V 0 H 0.23438 Z m 0,-0.57812 H 0.70313 V -1.6875 H 0.23438 Z" inkscape:connector-curvature="0"/>
    </symbol>
    <symbol overflow="visible" id="s" style="overflow:visible">
      <path id="path746" d="M 1.25,-0.25 C 1.175781,-0.164062 1.09766,-0.10156 1.01562,-0.0625 0.941401,-0.019531 0.85156,0 0.75,0 0.57031,0 0.42188,-0.070312 0.29688,-0.21875 0.17969,-0.36328 0.125,-0.54687 0.125,-0.76563 c 0,-0.21876 0.054688,-0.39844 0.17188,-0.54688 0.125,-0.14453 0.27344,-0.21875 0.45312,-0.21875 0.10156,0 0.19141,0.023438 0.26562,0.0625 0.082031,0.042969 0.16016,0.10547 0.23438,0.1875 v -0.21875 h 0.48438 v 1.3438 C 1.73438,0.08207 1.656255,0.26567 1.5,0.39067 1.34375,0.52348 1.125,0.59379 0.84375,0.59379 0.75,0.59379 0.65625,0.582071 0.5625,0.56254 0.476562,0.550821 0.39453,0.53129 0.3125,0.50004 v -0.375 c 0.082031,0.050781 0.16016,0.085938 0.23438,0.10938 0.082031,0.03125 0.16406,0.046875 0.25,0.046875 0.15625,0 0.26953,-0.039062 0.34375,-0.10938 0.070313,-0.074219 0.10938,-0.17969 0.10938,-0.32812 z M 0.9375,-1.1875 c -0.10547,0 -0.18359,0.039062 -0.23438,0.10938 -0.054687,0.074219 -0.078125,0.17969 -0.078125,0.3125 0,0.13672 0.023438,0.24219 0.078125,0.3125 0.050781,0.074219 0.12891,0.10938 0.23438,0.10938 0.09375,0 0.16406,-0.035156 0.21875,-0.10938 C 1.21875,-0.523433 1.25,-0.6289 1.25,-0.76562 1.25,-0.89843 1.21875,-1.0039 1.15625,-1.07812 1.101562,-1.148433 1.03125,-1.1875 0.9375,-1.1875 Z" inkscape:connector-curvature="0"/>
    </symbol>
    <symbol overflow="visible" id="r" style="overflow:visible">
      <path id="path749" d="m 1.2188,-2.0781 v 0.3125 H 0.95318 c -0.074219,0 -0.125,0.015625 -0.15625,0.046875 -0.023437,0.023438 -0.03125,0.0625 -0.03125,0.125 v 0.09375 h 0.40625 v 0.34375 H 0.76568 v 1.1562 H 0.29693 v -1.1562 h -0.25 v -0.34375 h 0.25 v -0.09375 c 0,-0.16406 0.039063,-0.28516 0.125,-0.35938 0.09375,-0.082031 0.23438,-0.125 0.42188,-0.125 z" inkscape:connector-curvature="0"/>
    </symbol>
    <symbol overflow="visible" id="g" style="overflow:visible">
      <path id="path752" d="m 0.9375,-1.1875 c -0.10547,0 -0.1875,0.039062 -0.25,0.10938 -0.054688,0.074219 -0.078125,0.18359 -0.078125,0.32812 0,0.14844 0.023437,0.26172 0.078125,0.34375 0.0625,0.074219 0.14453,0.10938 0.25,0.10938 0.10156,0 0.17969,-0.035156 0.23438,-0.10938 0.0625,-0.082031 0.09375,-0.19531 0.09375,-0.34375 0,-0.14453 -0.03125,-0.25391 -0.09375,-0.32812 C 1.117193,-1.148433 1.03907,-1.1875 0.9375,-1.1875 Z m 0,-0.34375 c 0.25781,0 0.46094,0.074219 0.60938,0.21875 0.14453,0.13672 0.21875,0.32422 0.21875,0.5625 0,0.25 -0.074219,0.44531 -0.21875,0.57812 C 1.39844,-0.03516 1.19532,0.03124 0.9375,0.03124 0.67578,0.03124 0.47266,-0.035166 0.32812,-0.17188 0.1914,-0.30469 0.125,-0.5 0.125,-0.75 c 0,-0.23828 0.066406,-0.42578 0.20312,-0.5625 0.14453,-0.14453 0.34766,-0.21875 0.60938,-0.21875 z" inkscape:connector-curvature="0"/>
    </symbol>
    <symbol overflow="visible" id="q" style="overflow:visible">
      <path id="path755" d="m 1.6094,-1.25 c 0.0625,-0.09375 0.13281,-0.16016 0.21875,-0.20312 0.082031,-0.050781 0.17578,-0.078125 0.28125,-0.078125 0.16406,0 0.29688,0.054688 0.39062,0.15625 0.09375,0.10547 0.14062,0.26172 0.14062,0.46875 V 5e-6 H 2.15626 v -0.78125 -0.03125 -0.0625 c 0,-0.10156 -0.015625,-0.17578 -0.046875,-0.21875 -0.03125,-0.050781 -0.085937,-0.078125 -0.15625,-0.078125 -0.085937,0 -0.15234,0.039063 -0.20312,0.10938 C 1.695327,-0.988271 1.67189,-0.8789 1.67189,-0.73437 V 1e-5 H 1.18751 v -0.78125 c 0,-0.16406 -0.015625,-0.26953 -0.046875,-0.3125 -0.023437,-0.050781 -0.070313,-0.078125 -0.14062,-0.078125 -0.09375,0 -0.16797,0.042969 -0.21875,0.125 -0.054688,0.074219 -0.078125,0.17969 -0.078125,0.3125 V 1.5e-5 H 0.23439 v -1.5 h 0.46875 v 0.21875 c 0.0625,-0.082031 0.12891,-0.14453 0.20312,-0.1875 0.082031,-0.039062 0.16406,-0.0625 0.25,-0.0625 0.10156,0 0.19141,0.027344 0.26562,0.078125 0.082031,0.054687 0.14453,0.12109 0.1875,0.20312 z" inkscape:connector-curvature="0"/>
    </symbol>
    <symbol overflow="visible" id="p" style="overflow:visible">
      <path id="path758" d="m 0.25,-2 h 0.57812 l 0.71875,1.375 V -2 H 2.03125 V 0 H 1.46875 L 0.73437,-1.375 V 0 H 0.24999 Z" inkscape:connector-curvature="0"/>
    </symbol>
    <symbol overflow="visible" id="o" style="overflow:visible">
      <path id="path761" d="M 0.21875,-0.57812 V -1.5 H 0.6875 v 0.15625 0.3125 0.23438 0.26562 c 0.007812,0.054688 0.023438,0.089844 0.046875,0.10938 0.019531,0.03125 0.046875,0.058594 0.078125,0.078125 0.03125,0.011719 0.066406,0.015625 0.10938,0.015625 0.09375,0 0.16406,-0.035156 0.21875,-0.10938 0.0625,-0.070312 0.09375,-0.17578 0.09375,-0.3125 V -1.5 H 1.71876 V 0 H 1.23438 V -0.21875 C 1.160161,-0.125 1.08204,-0.05469 1,-0.01563 0.925781,0.01562 0.84375,0.031245 0.75,0.031245 c -0.17969,0 -0.3125,-0.050781 -0.40625,-0.15625 -0.085938,-0.10156 -0.125,-0.25391 -0.125,-0.45312 z" inkscape:connector-curvature="0"/>
    </symbol>
    <symbol overflow="visible" id="n" style="overflow:visible">
      <path id="path764" d="m 0.25,-2 h 0.85938 c 0.25,0 0.44141,0.058594 0.57812,0.17188 0.13281,0.11719 0.20312,0.27734 0.20312,0.48438 0,0.21094 -0.070313,0.37109 -0.20312,0.48438 -0.13672,0.11719 -0.32812,0.17188 -0.57812,0.17188 H 0.76563 V 2e-5 H 0.25001 Z m 0.51562,0.375 v 0.5625 h 0.28125 c 0.10156,0 0.17969,-0.019531 0.23438,-0.0625 0.050781,-0.050781 0.078125,-0.125 0.078125,-0.21875 0,-0.09375 -0.027344,-0.16016 -0.078125,-0.20312 C 1.226562,-1.597651 1.14844,-1.624995 1.04687,-1.624995 Z" inkscape:connector-curvature="0"/>
    </symbol>
    <symbol overflow="visible" id="m" style="overflow:visible">
      <path id="path767" d="m 0.23438,-1.5 h 0.46875 v 1.4688 c 0,0.20703 -0.046875,0.36328 -0.14062,0.46875 C 0.46876,0.53911 0.32813,0.5938 0.14063,0.5938 H -0.09375 V 0.2813 h 0.078125 c 0.09375,0 0.15625,-0.023438 0.1875,-0.0625 0.039063,-0.042969 0.0625,-0.125 0.0625,-0.25 z m 0,-0.57812 H 0.70313 V -1.6875 H 0.23438 Z" inkscape:connector-curvature="0"/>
    </symbol>
    <symbol overflow="visible" id="l" style="overflow:visible">
      <path id="path770" d="m 1.4375,-1.4531 v 0.39062 C 1.375,-1.101542 1.30469,-1.132792 1.23438,-1.15623 1.17188,-1.175761 1.10157,-1.18748 1.03126,-1.18748 c -0.125,0 -0.23047,0.042969 -0.3125,0.125 -0.074219,0.074219 -0.10938,0.17969 -0.10938,0.3125 0,0.14844 0.035156,0.26172 0.10938,0.34375 0.082031,0.074219 0.1875,0.10938 0.3125,0.10938 0.082031,0 0.15625,-0.007813 0.21875,-0.03125 0.070312,-0.03125 0.13281,-0.066406 0.1875,-0.10938 v 0.39062 C 1.363291,-0.01561 1.28517,0.003921 1.20313,0.01564 1.128911,0.0234525 1.05469,0.031265 0.98438,0.031265 c -0.27344,0 -0.48438,-0.066406 -0.64062,-0.20312 -0.14844,-0.13281 -0.21875,-0.32812 -0.21875,-0.57812 0,-0.23828 0.070312,-0.42578 0.21875,-0.5625 0.15625,-0.14453 0.36719,-0.21875 0.64062,-0.21875 0.070313,0 0.14453,0.011719 0.21875,0.03125 0.082031,0.011719 0.16016,0.027344 0.23438,0.046875 z" inkscape:connector-curvature="0"/>
    </symbol>
  </defs>
  <sodipodi:namedview id="base" pagecolor="#ffffff" bordercolor="#666666" borderopacity="1.0" inkscape:pageopacity="0.0" inkscape:pageshadow="2" inkscape:zoom="0.35" inkscape:cx="-27.347299" inkscape:cy="235.42504" inkscape:document-units="mm" inkscape:current-layer="layer1" showgrid="false" inkscape:window-width="1848" inkscape:window-height="1016" inkscape:window-x="72" inkscape:window-y="27" inkscape:window-maximized="1"/>
  <metadata id="metadata702">
    <rdf:RDF>
      <cc:Work rdf:about="">
        <dc:format>image/svg+xml</dc:format>
        <dc:type rdf:resource="http://purl.org/dc/dcmitype/StillImage"/>
        <dc:title/>
      </cc:Work>
    </rdf:RDF>
  </metadata>
  <g inkscape:label="Calque 1" inkscape:groupmode="layer" id="layer1" transform="translate(61.934003,-13.972362)">
    <g id="g871" transform="matrix(0.35277777,0,0,0.35277777,-86.645003,9.4993385)">
      <path id="path775" d="m 503.34,221.32 v 28.602 68.305 82.305 70.547 c 0,11.047 0.10938,22.094 0,33.141 0,1.3672 -0.10938,2.6797 -0.27344,4.0469 0.21875,-1.4766 0.38281,-2.8984 0.60156,-4.375 -0.32812,2.1875 -0.92969,4.2656 -1.75,6.3438 l 1.6406,-3.9375 c -0.65625,1.5312 -1.4219,3.0078 -2.3516,4.4297 -0.92969,1.4219 -2.1875,1.9141 0.875,-1.0391 -0.60156,0.54688 -1.0938,1.2578 -1.6953,1.8594 -0.16406,0.16406 -1.6953,1.75 -1.8594,1.6953 0.0547,0.0547 3.9922,-2.8438 1.0391,-0.875 -1.4219,0.92969 -2.8984,1.6953 -4.4297,2.3516 l 3.9375,-1.6406 c -2.0781,0.82031 -4.1562,1.4219 -6.3438,1.75 1.4766,-0.21875 2.8984,-0.38281 4.375,-0.60156 -3.5,0.4375 -7.1641,0.27344 -10.719,0.27344 h -20.672 -68.742 -84.109 -71.969 c -11.375,0 -22.75,0.10938 -34.07,0 -1.3672,0 -2.6797,-0.10938 -4.0469,-0.27344 1.4766,0.21875 2.8984,0.38281 4.375,0.60156 -2.1875,-0.32812 -4.2656,-0.92969 -6.3438,-1.75 l 3.9375,1.6406 c -1.5312,-0.65625 -3.0078,-1.4219 -4.4297,-2.3516 -1.4219,-0.92969 -1.9141,-2.1875 1.0391,0.875 -0.54688,-0.60156 -1.2578,-1.0938 -1.8594,-1.6953 -0.16406,-0.16406 -1.75,-1.6953 -1.6953,-1.8594 -0.0547,0.0547 2.8438,3.9922 0.875,1.0391 -0.92969,-1.4219 -1.6953,-2.8984 -2.3516,-4.4297 l 1.6406,3.9375 c -0.82031,-2.0781 -1.4219,-4.1562 -1.75,-6.3438 0.21875,1.4766 0.38281,2.8984 0.60156,4.375 -0.4375,-3.4453 -0.27344,-7 -0.27344,-10.5 v -20.18 -67.43 -82.25 -71.367 c 0,-11.594 0.32812,-23.242 0,-34.781 v -0.49219 l -16.406,16.406 h 33.797 81.102 98.109 84.766 c 13.672,0 27.398,0.27344 41.125,0 h 0.54688 c 8.5859,0 16.789,-7.5469 16.406,-16.406 -0.38281,-8.9141 -7.2188,-16.406 -16.406,-16.406 h -33.797 -81.102 -98.109 -84.766 c -13.672,0 -27.398,-0.27344 -41.125,0 h -0.54688 c -8.8594,0 -16.406,7.4922 -16.406,16.406 v 18.32 46.539 62.016 64.859 54.852 32.648 c 0,4.1016 0.16406,7.9297 0.875,12.086 3.2812,20.016 22.094,34.453 41.945,34.672 6.2891,0.0547 12.633,0 18.977,0 h 46.648 61.961 64.914 55.344 33.906 4.9766 c 10.883,-0.10937 20.781,-4.2109 28.93,-11.32 8.3125,-7.2734 12.523,-17.719 13.672,-28.438 0.71094,-6.6172 0.16406,-13.562 0.16406,-20.18 v -45.773 -61.742 -64.969 -55.344 -33.578 -4.5938 c 0,-8.5859 -7.5469,-16.789 -16.406,-16.406 -8.8047,0.38281 -16.297,7.1641 -16.297,16.406 z" inkscape:connector-curvature="0"/>
      <path id="path777" d="m 137.54,377.67 h 42.711 l -16.406,-16.406 v 48.508 77.164 17.555 l 16.406,-16.406 h -22.695 c -7.7656,0 -15.969,0.71094 -23.734,-0.27344 1.4766,0.21875 2.8984,0.38281 4.375,0.60156 -2.1875,-0.32812 -4.2656,-0.92969 -6.3438,-1.75 1.3125,0.54688 2.625,1.0938 3.9375,1.6406 -1.5312,-0.65625 -3.0078,-1.4219 -4.4297,-2.3516 -1.4219,-0.9297 -1.9141,-2.1875 1.0391,0.875 -0.54688,-0.60156 -1.2578,-1.0938 -1.8594,-1.6953 -0.16406,-0.16406 -1.75,-1.6953 -1.6953,-1.8594 -0.0547,0.0547 2.8438,3.9922 0.875,1.0391 -0.92969,-1.4219 -1.6953,-2.8984 -2.3516,-4.4297 0.54687,1.3125 1.0938,2.625 1.6406,3.9375 -0.82031,-2.0781 -1.4219,-4.1562 -1.75,-6.3438 0.21875,1.4766 0.38281,2.8984 0.60156,4.375 -0.49219,-3.8281 -0.27344,-7.8203 -0.27344,-11.703 v -22.039 -50.312 c 0,-4.5938 -0.32813,-9.3516 0.27344,-13.945 -0.21875,1.4766 -0.38281,2.8984 -0.60156,4.375 0.32813,-2.1875 0.92969,-4.2656 1.75,-6.3438 -0.54687,1.3125 -1.0938,2.625 -1.6406,3.9375 0.65625,-1.5312 1.4219,-3.0078 2.3516,-4.4297 0.9297,-1.4219 2.1875,-1.9141 -0.875,1.0391 0.60156,-0.54688 1.0938,-1.2578 1.6953,-1.8594 0.16406,-0.16406 1.6953,-1.75 1.8594,-1.6953 -0.0547,-0.0547 -3.9922,2.8438 -1.0391,0.875 1.4219,-0.92969 2.8984,-1.6953 4.4297,-2.3516 -1.3125,0.54687 -2.625,1.0938 -3.9375,1.6406 2.0781,-0.82031 4.1562,-1.4219 6.3438,-1.75 -1.4766,0.21875 -2.8984,0.38281 -4.375,0.60156 1.2578,-0.10938 2.4609,-0.21875 3.7188,-0.21875 8.5859,-0.10938 16.789,-7.4375 16.406,-16.406 -0.38281,-8.8047 -7.2188,-16.516 -16.406,-16.406 -18.375,0.27344 -33.906,11.648 -40.305,28.711 -2.2969,6.0156 -2.4609,12.359 -2.4609,18.703 v 43.641 40.086 c 0,9.2422 1.9141,18.539 7.4375,26.141 8.5859,11.922 21.438,18.812 36.203,18.812 13.945,0.0547 27.891,0 41.836,0 8.8594,0 16.406,-7.4922 16.406,-16.406 v -48.508 -77.164 -17.555 c 0,-8.8594 -7.4922,-16.406 -16.406,-16.406 h -42.711 c -8.5859,0 -16.789,7.5469 -16.406,16.406 0.4375,8.8047 7.2188,16.352 16.406,16.352 z" inkscape:connector-curvature="0"/>
      <path id="path779" d="m 572.41,387.62 v 80.664 c 0,4.4844 0.32813,9.1328 -0.27344,13.562 0.21875,-1.4766 0.38281,-2.8984 0.60156,-4.375 -0.32813,2.1875 -0.92969,4.2656 -1.75,6.3438 0.54687,-1.3125 1.0938,-2.625 1.6406,-3.9375 -0.65625,1.5312 -1.4219,3.0078 -2.3516,4.4297 -0.9297,1.4219 -2.1875,1.9141 0.875,-1.0391 -0.60156,0.54687 -1.0938,1.2578 -1.6953,1.8594 -0.16406,0.16406 -1.6953,1.75 -1.8594,1.6953 0.0547,0.0547 3.9922,-2.8438 1.0391,-0.875 -1.4219,0.92969 -2.8984,1.6953 -4.4297,2.3516 1.3125,-0.54688 2.625,-1.0938 3.9375,-1.6406 -2.0781,0.82031 -4.1562,1.4219 -6.3438,1.75 1.4766,-0.21875 2.8984,-0.38281 4.375,-0.60156 -7.7656,0.98438 -15.969,0.27344 -23.734,0.27344 h -22.695 l 16.406,16.406 v -48.508 -77.164 -17.555 l -16.406,16.406 h 22.695 c 7.7656,0 15.969,-0.71094 23.734,0.27344 -1.4766,-0.21875 -2.8984,-0.38281 -4.375,-0.60156 2.1875,0.32812 4.2656,0.92969 6.3438,1.75 l -3.9375,-1.6406 c 1.5312,0.65625 3.0078,1.4219 4.4297,2.3516 1.4219,0.92969 1.9141,2.1875 -1.0391,-0.875 0.54688,0.60156 1.2578,1.0938 1.8594,1.6953 0.16406,0.16406 1.75,1.6953 1.6953,1.8594 0.0547,-0.0547 -2.8438,-3.9922 -0.875,-1.0391 0.92969,1.4219 1.6953,2.8984 2.3516,4.4297 -0.54687,-1.3125 -1.0938,-2.625 -1.6406,-3.9375 0.82031,2.0781 1.4219,4.1562 1.75,6.3438 -0.21875,-1.4766 -0.38281,-2.8984 -0.60156,-4.375 0.16406,1.2578 0.27344,2.4609 0.27344,3.7188 0.10938,8.5859 7.4375,16.789 16.406,16.406 8.8047,-0.38281 16.516,-7.2188 16.406,-16.406 -0.32812,-23.68 -19.633,-42.711 -43.312,-42.766 -10.281,-0.0547 -20.562,0 -30.789,0 h -11.375 c -8.8594,0 -16.406,7.4922 -16.406,16.406 v 48.508 77.164 17.555 c 0,8.8594 7.4922,16.406 16.406,16.406 h 34.125 c 6.125,0 12.086,0.10937 18.156,-1.0938 14.766,-3.0078 26.25,-14.766 31.117,-28.602 3.3359,-9.4062 2.0781,-21.109 2.0781,-30.953 v -43.641 -28.93 c 0,-8.5859 -7.5469,-16.789 -16.406,-16.406 -8.8594,0.38281 -16.406,7.1641 -16.406,16.352 z" inkscape:connector-curvature="0"/>
      <path id="path781" d="m 561.37,99.914 v 32.977 51.68 c 0,4.6484 0.32812,9.4609 -0.27344,14.109 0.21875,-1.4766 0.38281,-2.8984 0.60156,-4.375 -0.32812,2.1875 -0.92969,4.2656 -1.75,6.3438 0.54688,-1.3125 1.0938,-2.625 1.6406,-3.9375 -0.65625,1.5312 -1.4219,3.0078 -2.3516,4.4297 -0.9297,1.4219 -2.1875,1.9141 0.875,-1.0391 -0.60156,0.54688 -1.0938,1.2578 -1.6953,1.8594 -0.16406,0.16406 -1.6953,1.75 -1.8594,1.6953 0.0547,0.0547 3.9922,-2.8438 1.0391,-0.875 -1.4219,0.92969 -2.8984,1.6953 -4.4297,2.3516 1.3125,-0.54687 2.625,-1.0938 3.9375,-1.6406 -2.0781,0.82031 -4.1562,1.4219 -6.3438,1.75 1.4766,-0.21875 2.8984,-0.38281 4.375,-0.60156 -4.5391,0.60156 -9.2422,0.27344 -13.781,0.27344 h -28.93 -43.477 -53.32 -58.242 -59.062 -55.016 -46.102 -33.031 -15.094 c -1.4219,0 -2.7891,-0.10937 -4.2109,-0.27344 1.4766,0.21875 2.8984,0.38281 4.375,0.60156 -2.1875,-0.32813 -4.2656,-0.92969 -6.3438,-1.75 1.3125,0.54687 2.625,1.0938 3.9375,1.6406 -1.5312,-0.65625 -3.0078,-1.4219 -4.4297,-2.3516 -1.4219,-0.9297 -1.9141,-2.1875 1.0391,0.875 -0.54687,-0.60156 -1.2578,-1.0938 -1.8594,-1.6953 -0.16406,-0.16406 -1.75,-1.6953 -1.6953,-1.8594 -0.0547,0.0547 2.8438,3.9922 0.875,1.0391 -0.92969,-1.4219 -1.6953,-2.8984 -2.3516,-4.4297 0.54688,1.3125 1.0938,2.625 1.6406,3.9375 -0.82031,-2.0781 -1.4219,-4.1562 -1.75,-6.3438 0.21875,1.4766 0.38281,2.8984 0.60156,4.375 -0.49219,-3.9922 -0.27344,-8.1484 -0.27344,-12.195 v -22.969 -52.883 c 0,-4.7578 -0.32812,-9.7344 0.27344,-14.438 -0.21875,1.4766 -0.38281,2.8984 -0.60156,4.375 0.32812,-2.1875 0.92969,-4.2656 1.75,-6.3438 -0.54688,1.3125 -1.0938,2.625 -1.6406,3.9375 0.65625,-1.5312 1.4219,-3.0078 2.3516,-4.4297 0.9297,-1.4219 2.1875,-1.9141 -0.875,1.0391 0.60156,-0.54688 1.0938,-1.2578 1.6953,-1.8594 0.16406,-0.16406 1.6953,-1.75 1.8594,-1.6953 -0.0547,-0.05469 -3.9922,2.8438 -1.0391,0.875 1.4219,-0.92969 2.8984,-1.6953 4.4297,-2.3516 -1.3125,0.54687 -2.625,1.0938 -3.9375,1.6406 2.0781,-0.82031 4.1562,-1.4219 6.3438,-1.75 -1.4766,0.21875 -2.8984,0.38281 -4.375,0.60156 4.5391,-0.60156 9.2422,-0.27344 13.781,-0.27344 h 28.93 43.477 53.32 58.242 59.062 55.016 46.102 33.031 15.094 c 1.4219,0 2.7891,0.10937 4.2109,0.27344 -1.4766,-0.21875 -2.8984,-0.38281 -4.375,-0.60156 2.1875,0.32813 4.2656,0.92969 6.3438,1.75 -1.3125,-0.54687 -2.625,-1.0938 -3.9375,-1.6406 1.5312,0.65625 3.0078,1.4219 4.4297,2.3516 1.4219,0.9297 1.9141,2.1875 -1.0391,-0.875 0.54687,0.60156 1.2578,1.0938 1.8594,1.6953 0.16406,0.16406 1.75,1.6953 1.6953,1.8594 0.0547,-0.05469 -2.8438,-3.9922 -0.875,-1.0391 0.92969,1.4219 1.6953,2.8984 2.3516,4.4297 -0.54688,-1.3125 -1.0938,-2.625 -1.6406,-3.9375 0.82031,2.0781 1.4219,4.1562 1.75,6.3438 -0.21875,-1.4766 -0.38281,-2.8984 -0.60156,-4.375 0.16406,1.2031 0.27344,2.4609 0.27344,3.7188 0.10937,8.5859 7.4375,16.789 16.406,16.406 8.8047,-0.38281 16.516,-7.2188 16.406,-16.406 -0.32813,-23.461 -19.359,-42.547 -42.875,-42.766 h -6.3984 -38.062 -62.672 -76.453 -78.695 -70.109 -50.641 c -6.5625,0 -13.18,-0.05469 -19.742,0 -23.57,0.27344 -42.547,19.469 -42.82,43.039 -0.0547,7 0,14.055 0,21.055 v 69.016 c 0,1.8047 -0.0547,3.6094 0,5.4141 0.4375,14.164 7.4375,26.414 18.812,34.617 7.6016,5.4688 16.898,7.4375 26.141,7.4375 h 30.406 57.914 73.938 79.078 73.445 56.219 28.219 c 12.469,0 25.156,-4.6484 33.305,-14.383 6.8906,-8.2031 10.773,-17.883 10.883,-28.711 v -7.2188 -70.438 -17.062 c 0,-8.5859 -7.5469,-16.789 -16.406,-16.406 -8.75,0.38281 -16.297,7.2188 -16.297,16.406 z" inkscape:connector-curvature="0"/>
      <path id="path783" d="m 402.01,55.508 v 18.047 l 16.406,-16.406 h -46.375 -73.555 -16.844 l 16.406,16.406 c 0,-7.1641 -0.65625,-14.656 0.27344,-21.82 -0.21875,1.4766 -0.38281,2.8984 -0.60156,4.375 0.32812,-2.1875 0.92969,-4.2656 1.75,-6.3438 l -1.6406,3.9375 c 0.65625,-1.5312 1.4219,-3.0078 2.3516,-4.4297 0.92969,-1.4219 2.1875,-1.9141 -0.875,1.0391 0.60156,-0.54688 1.0938,-1.2578 1.6953,-1.8594 0.16406,-0.16406 1.6953,-1.75 1.8594,-1.6953 -0.0547,-0.05469 -3.9922,2.8438 -1.0391,0.875 1.4219,-0.92969 2.8984,-1.6953 4.4297,-2.3516 l -3.9375,1.6406 c 2.0781,-0.82031 4.1562,-1.4219 6.3438,-1.75 -1.4766,0.21875 -2.8984,0.38281 -4.375,0.60156 3.6641,-0.49219 7.3828,-0.27344 11.102,-0.27344 h 20.508 46.867 c 4.3203,0 8.8047,-0.27344 13.125,0.27344 -1.4766,-0.21875 -2.8984,-0.38281 -4.375,-0.60156 2.1875,0.32812 4.2656,0.92969 6.3438,1.75 l -3.9375,-1.6406 c 1.5312,0.65625 3.0078,1.4219 4.4297,2.3516 1.4219,0.92969 1.9141,2.1875 -1.0391,-0.875 0.54687,0.60156 1.2578,1.0938 1.8594,1.6953 0.16406,0.16406 1.75,1.6953 1.6953,1.8594 0.0547,-0.05469 -2.8438,-3.9922 -0.875,-1.0391 0.92969,1.4219 1.6953,2.8984 2.3516,4.4297 -0.54688,-1.3125 -1.0938,-2.625 -1.6406,-3.9375 0.82031,2.0781 1.4219,4.1562 1.75,6.3438 -0.21875,-1.4766 -0.38281,-2.8984 -0.60156,-4.375 0.0547,1.2578 0.10938,2.5156 0.16406,3.7734 0.10938,8.5859 7.4375,16.789 16.406,16.406 8.8047,-0.38281 16.516,-7.2188 16.406,-16.406 -0.21875,-14.82 -7.7109,-28 -20.016,-36.203 -7.1094,-4.7031 -15.695,-6.6172 -24.062,-6.6172 h -30.188 -40.141 c -12.414,0 -24.992,-0.54688 -35.82,7 -12.086,8.4766 -19.359,21.383 -19.414,36.258 v 17.555 c 0,8.8594 7.4922,16.406 16.406,16.406 h 46.375 73.555 16.844 c 8.8594,0 16.406,-7.4922 16.406,-16.406 v -18.047 c 0,-8.5859 -7.5469,-16.789 -16.406,-16.406 -8.8594,0.4375 -16.352,7.2734 -16.352,16.461 z" inkscape:connector-curvature="0"/>
      <path id="path785" d="m 430.94,73.555 v 20.562 49.055 59.555 51.297 c 0,8.3125 -0.16406,16.68 0,24.992 v 0.38281 c 0,8.5859 7.5469,16.789 16.406,16.406 8.9141,-0.38281 16.406,-7.2188 16.406,-16.406 v -20.562 -49.055 -59.555 -51.297 c 0,-8.3125 0.16406,-16.68 0,-24.992 V 73.555 c 0,-8.5859 -7.5469,-16.789 -16.406,-16.406 -8.9141,0.38281 -16.406,7.2188 -16.406,16.406 z" inkscape:connector-curvature="0"/>
      <path id="path787" d="m 236.25,73.555 v 20.562 49.055 59.555 51.297 c 0,8.3125 -0.16406,16.68 0,24.992 v 0.38281 c 0,8.5859 7.5469,16.789 16.406,16.406 8.9141,-0.38281 16.406,-7.2188 16.406,-16.406 v -20.562 -49.055 -59.555 -51.297 c 0,-8.3125 0.16406,-16.68 0,-24.992 V 73.555 c 0,-8.5859 -7.5469,-16.789 -16.406,-16.406 -8.8594,0.38281 -16.406,7.2188 -16.406,16.406 z" inkscape:connector-curvature="0"/>
      <path id="path789" d="m 308,454.56 h 73.555 10.5 c 8.5859,0 16.789,-7.5469 16.406,-16.406 -0.38281,-8.9141 -7.2188,-16.406 -16.406,-16.406 H 318.5 308 c -8.5859,0 -16.789,7.5469 -16.406,16.406 0.38281,8.9141 7.1641,16.406 16.406,16.406 z" inkscape:connector-curvature="0"/>
      <use id="use791" xlink:href="#v" y="568.20312" x="70" width="100%" height="100%"/>
      <use id="use793" xlink:href="#f" y="568.20312" x="72.007812" width="100%" height="100%"/>
      <use id="use795" xlink:href="#a" y="568.20312" x="73.355469" width="100%" height="100%"/>
      <use id="use797" xlink:href="#e" y="568.20312" x="75.210938" width="100%" height="100%"/>
      <use id="use799" xlink:href="#d" y="568.20312" x="77.054688" width="100%" height="100%"/>
      <use id="use801" xlink:href="#a" y="568.20312" x="78.363281" width="100%" height="100%"/>
      <use id="use803" xlink:href="#k" y="568.20312" x="80.214844" width="100%" height="100%"/>
      <use id="use805" xlink:href="#j" y="568.20312" x="83.125" width="100%" height="100%"/>
      <use id="use807" xlink:href="#i" y="568.20312" x="85.082031" width="100%" height="100%"/>
      <use id="use809" xlink:href="#c" y="568.20312" x="87.816406" width="100%" height="100%"/>
      <use id="use811" xlink:href="#b" y="568.20312" x="89.445312" width="100%" height="100%"/>
      <use id="use813" xlink:href="#e" y="568.20312" x="91.390625" width="100%" height="100%"/>
      <use id="use815" xlink:href="#c" y="568.20312" x="93.238281" width="100%" height="100%"/>
      <use id="use817" xlink:href="#b" y="568.20312" x="94.863281" width="100%" height="100%"/>
      <use id="use819" xlink:href="#e" y="568.20312" x="96.8125" width="100%" height="100%"/>
      <use id="use821" xlink:href="#h" y="568.20312" x="98.65625" width="100%" height="100%"/>
      <use id="use823" xlink:href="#u" y="568.20312" x="100.60156" width="100%" height="100%"/>
      <use id="use825" xlink:href="#c" y="568.20312" x="103.375" width="100%" height="100%"/>
      <use id="use827" xlink:href="#t" y="568.20312" x="105" width="100%" height="100%"/>
      <use id="use829" xlink:href="#h" y="568.20312" x="105.9375" width="100%" height="100%"/>
      <use id="use831" xlink:href="#s" y="568.20312" x="107.88281" width="100%" height="100%"/>
      <use id="use833" xlink:href="#b" y="568.20312" x="109.84375" width="100%" height="100%"/>
      <use id="use835" xlink:href="#r" y="570.9375" x="70" width="100%" height="100%"/>
      <use id="use837" xlink:href="#f" y="570.9375" x="71.191406" width="100%" height="100%"/>
      <use id="use839" xlink:href="#g" y="570.9375" x="72.539062" width="100%" height="100%"/>
      <use id="use841" xlink:href="#q" y="570.9375" x="74.417969" width="100%" height="100%"/>
      <use id="use843" xlink:href="#d" y="570.9375" x="78.21875" width="100%" height="100%"/>
      <use id="use845" xlink:href="#b" y="570.9375" x="79.523438" width="100%" height="100%"/>
      <use id="use847" xlink:href="#a" y="570.9375" x="81.472656" width="100%" height="100%"/>
      <use id="use849" xlink:href="#p" y="570.9375" x="84.277344" width="100%" height="100%"/>
      <use id="use851" xlink:href="#g" y="570.9375" x="86.566406" width="100%" height="100%"/>
      <use id="use853" xlink:href="#o" y="570.9375" x="88.445312" width="100%" height="100%"/>
      <use id="use855" xlink:href="#h" y="570.9375" x="90.390625" width="100%" height="100%"/>
      <use id="use857" xlink:href="#n" y="570.9375" x="93.289062" width="100%" height="100%"/>
      <use id="use859" xlink:href="#f" y="570.9375" x="95.292969" width="100%" height="100%"/>
      <use id="use861" xlink:href="#g" y="570.9375" x="96.644531" width="100%" height="100%"/>
      <use id="use863" xlink:href="#m" y="570.9375" x="98.519531" width="100%" height="100%"/>
      <use id="use865" xlink:href="#a" y="570.9375" x="99.457031" width="100%" height="100%"/>
      <use id="use867" xlink:href="#l" y="570.9375" x="101.3125" width="100%" height="100%"/>
      <use id="use869" xlink:href="#d" y="570.9375" x="102.93359" width="100%" height="100%"/>
    </g>
  </g>
</svg>