<?xml version="1.0" encoding="UTF-8"?>
<svg class="ng-scope" version="1.1" id="Layer_1" xmlns="http://www.w3.org/2000/svg" xmlns:xlink="http://www.w3.org/1999/xlink" x="0px" y="0px" width="20px" height="30px" viewBox="0 0 20 30" enable-background="new 0 0 20 30" xml:space="preserve">
<g>
        <path d="M3.882,29.064c0,0,2.081-9.598,3.271-9.616c1.268-0.021,5.055,9.698,5.055,9.698s1.824,0.116,3.268-0.078
                c0.612-0.081-4.729-12.171-4.729-12.171l0.556-3.792c1.074,0.731,1.823,1.549,3.134,1.97c1.364,0.211,2.134,0.342,4.305,0.395
                l0.037,13.588l1.1-0.031L19.859,10.41h-1.117l-0.005,2.53c-1.39-0.134-1.864,0.047-2.937-0.633c-1.364-1-2.248-3.505-3.61-5.377
                L8.327,5.822c-1.66,1.557-2.117,1.533-3.002,4.266c-0.879,2.736-0.154-0.359-1.908,7.317L0.722,29.059h3.16V29.064z"></path>
        <path d="M14.055,3.812c0,1.653-1.39,2.992-3.108,2.992c-1.714,0-3.1-1.339-3.1-2.992c0-1.651,1.386-2.993,3.1-2.993
                C12.665,0.819,14.055,2.159,14.055,3.812"></path>
        <rect x="1.781" y="4.558" transform="matrix(0.9511 0.3089 -0.3089 0.9511 3.4219 -0.6825)" width="4.17" height="11.816"></rect>
</g>
</svg>
