<?xml version="1.0" encoding="utf-8"?>
<!-- Generator: Adobe Illustrator 16.0.0, SVG Export Plug-In . SVG Version: 6.00 Build 0)  -->
<!DOCTYPE svg PUBLIC "-//W3C//DTD SVG 1.1//EN" "http://www.w3.org/Graphics/SVG/1.1/DTD/svg11.dtd">
<svg version="1.1" class="treks" xmlns="http://www.w3.org/2000/svg" xmlns:xlink="http://www.w3.org/1999/xlink" x="0px" y="0px"
	 width="21.768px" height="30px" viewBox="-38.535 3.879 21.768 30" enable-background="new -38.535 3.879 21.768 30"
	 xml:space="preserve">
<g class="base">
	<path d="M-30.844,25.049c0-2.439,0.004-4.877-0.007-7.314c-0.004-0.365,0.057-0.66,0.384-0.864c1.001-0.627,1.395-1.525,1.202-2.69
		c-0.038-0.234-0.038-0.488,0.007-0.723c0.153-0.821-0.12-1.391-0.912-1.7c-0.328-0.128-0.466-0.378-0.476-0.729
		c-0.054-1.884-0.129-3.763-0.163-5.646c-0.013-0.568,0.125-1.125,0.736-1.375c0.687-0.281,1.337-0.054,1.938,0.262
		c0.328,0.169,0.294,1.539-0.075,1.78c-0.832,0.54-0.955,1.307-0.884,2.191c0.031,0.433,0.031,0.872-0.017,1.303
		c-0.099,0.882,0.102,1.663,0.679,2.344c0.283,0.332,0.339,0.716,0.319,1.147c-0.059,1.059-0.124,2.124-0.102,3.184
		c0.012,0.562-0.146,0.931-0.668,1.123c-0.806,0.295-1.038,0.854-0.926,1.685c0.108,0.785,0.113,1.592,0.102,2.388
		c-0.007,0.44,0.139,0.668,0.563,0.749c0.165,0.031,0.316,0.125,0.481,0.156c0.563,0.104,0.742,0.396,0.735,0.998
		c-0.036,2.606-0.005,5.216,0,7.82c0,0.531,0,1.059-0.151,1.58c-0.238,0.833-0.707,1.223-1.423,1.154
		c-0.816-0.076-1.348-0.645-1.353-1.506c-0.01-2.439-0.005-4.879-0.005-7.316"/>
	<path d="M-16.767,9.043c-1.056,0.814-2.032,1.561-3.002,2.314c-0.205,0.163-0.424,0.196-0.672,0.198
		c-2.316,0.034-4.633,0.077-6.949,0.113c-0.602,0.009-1.148-0.521-1.153-1.119c-0.009-1.014-0.012-2.03,0-3.042
		c0.005-0.592,0.441-1.052,1.035-1.043c2.463,0.032,4.923,0.092,7.386,0.136c0.203,0.004,0.37,0.063,0.528,0.188
		C-18.674,7.528-17.748,8.263-16.767,9.043"/>
	<path d="M-25.331,17.768c0.867,0,1.732,0.002,2.599,0c0.669,0,1.058,0.528,1.556,0.846c0.44,0.277,1.154,0.517,1.197,0.945
		c0.045,0.434-0.705,0.688-1.034,1.086c-0.832,0.996-1.853,1.388-3.17,1.256c-1.143-0.115-2.312-0.031-3.467-0.021
		c-0.323,0.001-0.608-0.079-0.905-0.194c-0.44-0.174-0.629-0.432-0.596-0.924c0.042-0.576,0.005-1.156-0.009-1.736
		c-0.019-0.879,0.471-1.385,1.372-1.389c0.82-0.005,1.638-0.003,2.458-0.003"/>
	<path d="M-33.575,16.225c-0.123,0-0.243-0.018-0.36,0.002c-1.747,0.289-3.125-0.396-4.348-1.568
		c-0.257-0.248-0.386-0.366-0.045-0.638c0.526-0.426,1.023-0.885,1.518-1.346c0.195-0.184,0.408-0.218,0.657-0.218
		c1.69-0.007,3.379-0.028,5.069-0.031c0.95-0.002,1.14,0.199,1.126,1.127c-0.005,0.434-0.014,0.872-0.021,1.303
		c-0.017,0.945-0.45,1.368-1.423,1.37C-32.126,16.227-32.852,16.225-33.575,16.225"/>
</g>
</svg>
