<?xml version="1.0" encoding="utf-8"?>
<!-- Generator: Adobe Illustrator 16.0.0, SVG Export Plug-In . SVG Version: 6.00 Build 0)  -->
<!DOCTYPE svg PUBLIC "-//W3C//DTD SVG 1.1//EN" "http://www.w3.org/Graphics/SVG/1.1/DTD/svg11.dtd">
<svg version="1.1"
	 id="svg4948" xmlns:dc="http://purl.org/dc/elements/1.1/" xmlns:sodipodi="http://sodipodi.sourceforge.net/DTD/sodipodi-0.dtd" xmlns:cc="http://creativecommons.org/ns#" xmlns:rdf="http://www.w3.org/1999/02/22-rdf-syntax-ns#" xmlns:inkscape="http://www.inkscape.org/namespaces/inkscape" xmlns:svg="http://www.w3.org/2000/svg" sodipodi:docname="Android_robot.svg" inkscape:version="0.48.4 r9939"
	 xmlns="http://www.w3.org/2000/svg" xmlns:xlink="http://www.w3.org/1999/xlink" x="0px" y="0px" width="297.16px"
	 height="348.939px" viewBox="0 0 297.16 348.939" enable-background="new 0 0 297.16 348.939" xml:space="preserve">
<sodipodi:namedview  id="base" bordercolor="#666666" inkscape:zoom="1" borderopacity="1.0" inkscape:cx="144.13106" showgrid="false" inkscape:cy="189.65948" pagecolor="#ffffff" inkscape:window-width="1280" inkscape:window-maximized="1" inkscape:current-layer="layer1" inkscape:pageshadow="2" inkscape:pageopacity="0.0" inkscape:window-y="-8" inkscape:document-units="px" inkscape:window-x="-8" inkscape:window-height="750">
	</sodipodi:namedview>
<g id="layer1" transform="translate(0,-703.42214)" inkscape:label="Layer 1" inkscape:groupmode="layer">
	<path id="rect3027-1" inkscape:connector-curvature="0" fill="#FFFFFF" d="M91.25,703.421c-1.635,0.016-3.332,0.41-4.877,1.267
		c-4.91,2.722-6.71,9.03-3.991,13.937l11.085,20.018c-26.708,16.524-44.405,44.75-44.405,76.965c0,0.135,0,0.338,0,0.538
		c0,0.071-0.001,0.111,0,0.19c0,0.105,0,0.259,0,0.285v4.973c-5.129-5.902-12.67-9.629-21.094-9.629
		C12.533,811.964,0,824.498,0,839.932v86.15c0,15.434,12.533,27.967,27.967,27.967c8.424,0,15.965-3.727,21.094-9.629v12.067
		c0,16.27,13.313,29.583,29.583,29.583h7.506v38.324c0,15.435,12.533,27.967,27.967,27.967c15.434,0,27.967-12.532,27.967-27.967
		v-38.324h12.985v38.324c0,15.435,12.533,27.967,27.967,27.967c15.436,0,27.968-12.532,27.968-27.967v-38.324h7.507
		c16.27,0,29.582-13.313,29.582-29.583V944.42c5.13,5.902,12.67,9.629,21.094,9.629c15.436,0,27.968-12.533,27.968-27.967v-86.15
		c0-15.435-12.532-27.968-27.968-27.968c-8.424,0-15.964,3.727-21.094,9.629v-4.878v-0.095c0.001-0.152,0-0.305,0-0.285
		c0.002-0.304,0-0.546,0-0.729c0-32.209-17.736-60.407-44.438-76.934l11.117-20.049c2.721-4.906,0.92-11.215-3.99-13.937
		c-1.546-0.856-3.242-1.251-4.877-1.267c-3.626-0.035-7.185,1.876-9.059,5.258l-11.625,20.999
		c-11.365-4.194-23.732-6.493-36.645-6.493c-12.899,0-25.289,2.275-36.646,6.462l-11.624-20.968
		C98.434,705.297,94.875,703.386,91.25,703.421L91.25,703.421z"/>
	<path id="rect3981-7" inkscape:connector-curvature="0" fill="#FFFFFF" d="M27.968,819.25c-11.518,0-20.682,9.164-20.682,20.683
		v86.15c0,11.518,9.165,20.682,20.682,20.682S48.65,937.6,48.65,926.083v-86.15C48.65,828.415,39.485,819.25,27.968,819.25z
		 M269.189,819.25c-11.518,0-20.684,9.164-20.684,20.683v86.15c0,11.518,9.166,20.682,20.684,20.682s20.682-9.164,20.682-20.682
		v-86.15C289.871,828.415,280.707,819.25,269.189,819.25z"/>
	<path id="c-4-0" inkscape:connector-curvature="0" fill="#FFFFFF" d="M114.118,917.562c-11.518,0-20.683,9.165-20.683,20.683v86.15
		c0,11.518,9.165,20.682,20.683,20.682s20.682-9.164,20.682-20.682v-86.15C134.8,926.727,125.635,917.562,114.118,917.562
		L114.118,917.562z M183.037,917.562c-11.518,0-20.682,9.165-20.682,20.683v86.15c0,11.518,9.164,20.682,20.682,20.682
		c11.519,0,20.684-9.164,20.684-20.682v-86.15C203.721,926.727,194.556,917.562,183.037,917.562L183.037,917.562z"/>
	<path id="ellipse3033" inkscape:connector-curvature="0" fill="#FFFFFF" d="M91.313,710.707c-0.489,0.005-0.944,0.131-1.394,0.38
		c-1.475,0.817-1.96,2.512-1.14,3.99l14.569,26.32c-28.031,14.586-46.964,42.304-47.002,74.115h184.462
		c-0.037-31.812-18.971-59.529-47.002-74.115l14.57-26.32c0.818-1.479,0.334-3.173-1.141-3.99c-0.449-0.249-0.904-0.376-1.395-0.38
		c-1.046-0.011-2.038,0.513-2.597,1.52l-14.759,26.605c-12.074-5.355-25.617-8.361-39.909-8.361
		c-14.291,0-27.834,3.006-39.908,8.361l-14.76-26.605C93.352,711.219,92.36,710.696,91.313,710.707z M56.346,822.796v133.691
		c0,12.354,9.945,22.298,22.298,22.298h139.868c12.354,0,22.297-9.944,22.297-22.298V822.796H56.346z"/>
	<path id="circle3041" inkscape:connector-curvature="0" fill="#FFFFFF" d="M106.009,766.356c-4.211,0-7.697,3.485-7.697,7.696
		s3.486,7.696,7.697,7.696s7.696-3.485,7.696-7.696S110.22,766.356,106.009,766.356z M191.146,766.356
		c-4.211,0-7.697,3.485-7.697,7.696s3.486,7.696,7.697,7.696s7.695-3.485,7.695-7.696S195.357,766.356,191.146,766.356z"/>
</g>
</svg>
