<?xml version="1.0" encoding="utf-8"?>
<!-- Generator: Adobe Illustrator 16.0.0, SVG Export Plug-In . SVG Version: 6.00 Build 0)  -->
<!DOCTYPE svg PUBLIC "-//W3C//DTD SVG 1.1//EN" "http://www.w3.org/Graphics/SVG/1.1/DTD/svg11.dtd">
<svg version="1.1" id="Calque_1" xmlns="http://www.w3.org/2000/svg" xmlns:xlink="http://www.w3.org/1999/xlink" x="0px" y="0px"
	 width="326px" height="176px" viewBox="0 0 326 176" enable-background="new 0 0 326 176" xml:space="preserve">
<path fill="#253B90" d="M192.652,158.67c-0.525,1.466-1.971,2.405-3.689,2.405h-40.267c-1.719,0-3.164-0.939-3.69-2.405H65.4v2.4
	c0,4.23,3.43,7.221,7.662,7.221h191.535c4.232,0,7.662-2.99,7.662-7.221v-2.4H192.652z"/>
<rect x="120.722" y="69.672" fill="#253B90" width="60.134" height="4.811"/>
<rect x="120.722" y="62.457" fill="#253B90" width="55.323" height="4.811"/>
<rect x="120.722" y="76.889" fill="#253B90" width="50.512" height="4.811"/>
<g>
	<path fill="#253B90" d="M281.969,7.806c0.726-0.724,0.726-1.903,0-2.631l-2.631-2.631c-0.729-0.726-1.907-0.726-2.631,0
		l-63.14,57.878c-0.727,0.726-0.727,1.903,0,2.631l7.892,7.892c0.729,0.726,1.905,0.726,2.631,0L281.969,7.806z"/>
</g>
<g>
	<path fill="#253B90" d="M191.746,97.23c3.575-1.785,4.421,1.217,4.421,1.217s13.892-8.839,21.467-23.992
		c-2.525-2.527-3.789-3.789-3.789-3.789s-1.7-1.701-4.226-4.226c-15.153,7.578-23.938,21.521-23.938,21.521s3.059,0.901,1.273,4.475
		c-1.785,3.572-9.95-0.521-13.736,8.317c-3.148,7.343-7.357,17.899-7.357,17.899s10.336-4.431,17.679-7.578
		C192.38,107.289,188.176,99.016,191.746,97.23z M178.55,105.964c-1.362-1.362-1.362-3.57,0-4.931s3.57-1.36,4.931,0
		c1.359,1.36,1.359,3.568,0,4.931C182.12,107.326,179.912,107.326,178.55,105.964z"/>
</g>
<g>
	<path fill="#253B90" d="M250.277,49.279c0.192,0.348,0.334,0.724,0.334,1.151v91.402c0,1.33-1.076,2.405-2.406,2.405H89.453
		c-1.33,0-2.405-1.075-2.405-2.405V50.43c0-1.329,1.076-2.405,2.405-2.405h130.738l10.5-9.621H87.048c-4.811,0-9.621,0-9.621,4.811
		v110.646h182.806V43.214c0-2.358-0.007-3.552-0.573-4.167L250.277,49.279z"/>
</g>
<g>
	<path fill="#253B90" d="M198.751,102.506l-4.658,2.965c-0.59,2.41-1.8,5.188-4.529,7.498h32.184v4.811h-41.633l-12.355,5.297
		l-3.74,1.602v5.128h-43.296v-21.648h43.296v2.206c1.442-3.54,3.242-7.913,4.778-11.503c0.052-0.117,0.112-0.209,0.164-0.324H91.859
		v40.891h153.942V98.536H204.05C201.083,100.998,198.976,102.363,198.751,102.506z M202.504,124.995h-26.458v-4.811h26.458V124.995z
		"/>
</g>
</svg>
