<?xml version="1.0" encoding="utf-8"?>
<!-- Generator: Adobe Illustrator 16.0.0, SVG Export Plug-In . SVG Version: 6.00 Build 0)  -->
<!DOCTYPE svg PUBLIC "-//W3C//DTD SVG 1.1//EN" "http://www.w3.org/Graphics/SVG/1.1/DTD/svg11.dtd">
<svg version="1.1" id="Calque_1" xmlns="http://www.w3.org/2000/svg" xmlns:xlink="http://www.w3.org/1999/xlink" x="0px" y="0px"
	 width="326px" height="176px" viewBox="0 0 326 176" enable-background="new 0 0 326 176" xml:space="preserve">
<g>
	<circle fill="#5774B8" cx="163.781" cy="19.382" r="3.365"/>
	<path fill="#5774B8" d="M114.406,64.046l9.682-11.803c0.818-0.996,0.672-2.466-0.322-3.282c-0.995-0.818-2.467-0.671-3.283,0.322
		l-11.023,13.438c-0.761,0.926-0.694,2.282,0.154,3.13l12.006,12.002c0.456,0.457,1.052,0.686,1.648,0.686
		c0.598,0,1.193-0.229,1.648-0.686c0.911-0.911,0.911-2.387,0-3.298L114.406,64.046z"/>
	<path fill="#5774B8" d="M155.24,61.117l-12.005-12.004c-0.911-0.911-2.386-0.911-3.298,0c-0.911,0.912-0.911,2.389,0,3.3
		l10.51,10.509l-9.682,11.803c-0.816,0.995-0.67,2.466,0.326,3.283c0.433,0.356,0.956,0.528,1.479,0.528
		c0.674,0,1.346-0.292,1.805-0.852l11.021-13.44C156.154,63.317,156.09,61.965,155.24,61.117z"/>
	<path fill="#5774B8" d="M225.564,8.942H100.437c-7.812,0-14.914,6.356-14.914,14.167v87.925c0,7.814,7.102,14.914,14.914,14.914
		h49.457c0.251,3.162,0.491,13.072-0.511,16.395c-1.839,2.734-21.33,8.484-38.207,12.418c-1.05,0.248-1.936,0.998-1.936,2.078v7.895
		c0,1.283,1.32,2.324,2.604,2.324h102.312c1.284,0,2.604-1.041,2.604-2.324v-7.895c0-1.08-0.884-2.02-1.937-2.266
		c-16.97-3.932-36.497-9.5-38.268-12.057c-1.07-3.48-1.025-13.406-0.845-16.568h49.854c7.811,0,14.913-7.1,14.913-14.914V23.109
		C240.478,15.298,233.375,8.942,225.564,8.942z M212.016,158.683v3.633h-98.031v-3.635c17.393-4.17,38.102-9.678,39.68-14.803
		c1.371-4.471,1.107-14.768,0.889-17.93h16.504c-0.165,3.162-0.298,13.461,1.078,17.934
		C173.71,149.007,194.623,154.511,212.016,158.683z M235.734,111.687c0,5.26-5.843,9.518-11.1,9.518H99.785
		c-5.258,0-9.519-4.258-9.519-9.518V23.203c0-5.256,4.261-9.517,9.519-9.517h124.85c5.257,0,11.1,4.261,11.1,9.517V111.687z"/>
	<path fill="#5774B8" d="M225.503,27.916H100.499c-1.284,0-2.326,1.042-2.326,2.326v69.663c0,1.285,1.042,2.324,2.326,2.324h125.004
		c1.284,0,2.325-1.039,2.325-2.324V30.242C227.828,28.958,226.787,27.916,225.503,27.916z M102.916,32.659h58.503v64.828h-58.503
		V32.659z M223.084,97.487h-56.922V32.659h56.922V97.487z"/>
	<path fill="#5774B8" d="M171.696,65.864h45.854c1.31,0,2.372-1.061,2.372-2.372V38.193c0-1.311-1.063-2.372-2.372-2.372h-45.854
		c-1.31,0-2.372,1.061-2.372,2.372v25.299C169.324,64.803,170.387,65.864,171.696,65.864z M174.068,40.565h41.11V61.12h-41.11
		V40.565z"/>
	<path fill="#5774B8" d="M216.76,70.607h-44.273c-1.309,0-2.371,1.061-2.371,2.372s1.063,2.372,2.371,2.372h44.273
		c1.309,0,2.371-1.061,2.371-2.372S218.068,70.607,216.76,70.607z"/>
	<path fill="#5774B8" d="M216.76,80.094h-44.273c-1.309,0-2.371,1.061-2.371,2.372s1.063,2.372,2.371,2.372h44.273
		c1.309,0,2.371-1.061,2.371-2.372S218.068,80.094,216.76,80.094z"/>
	<path fill="#5774B8" d="M216.76,89.581h-44.273c-1.309,0-2.371,1.063-2.371,2.373c0,1.309,1.063,2.371,2.371,2.371h44.273
		c1.309,0,2.371-1.063,2.371-2.371C219.131,90.644,218.068,89.581,216.76,89.581z"/>
</g>
</svg>
