<?xml version="1.0" encoding="utf-8"?>
<!-- Generator: Adobe Illustrator 16.0.0, SVG Export Plug-In . SVG Version: 6.00 Build 0)  -->
<!DOCTYPE svg PUBLIC "-//W3C//DTD SVG 1.1//EN" "http://www.w3.org/Graphics/SVG/1.1/DTD/svg11.dtd">
<svg version="1.1" id="Calque_1" xmlns="http://www.w3.org/2000/svg" xmlns:xlink="http://www.w3.org/1999/xlink" x="0px" y="0px"
	 width="326px" height="176px" viewBox="0 0 326 176" enable-background="new 0 0 326 176" xml:space="preserve">
<g>
	<path fill="#9C9CA0" d="M196.813,99.021l-2.211-12.513l-18.998-3.106l-5.744-9.947l6.811-18.005l-9.734-8.166l-16.546,9.832
		l-10.794-3.929l-6.359-18.17h-12.706l-6.359,18.17l-10.793,3.926l-16.549-9.83l-9.733,8.167l6.809,18.009l-5.741,9.943
		l-18.998,3.106L56.96,99.021l16.789,9.418l1.994,11.308L63.185,134.34l6.354,11.003l18.919-3.575l8.794,7.381l-0.241,19.25
		l11.943,4.346l12.188-14.898h11.484l12.189,14.901l11.94-4.349l-0.24-19.25l8.802-7.381l18.916,3.579l6.348-11.007l-12.557-14.593
		l1.994-11.31L196.813,99.021z M141.707,104.903c0,8.187-6.637,14.824-14.824,14.824s-14.825-6.638-14.825-14.824
		c0-8.188,6.637-14.824,14.825-14.824S141.707,96.715,141.707,104.903z"/>
	<path fill="#9C9CA0" d="M253.947,45.308l11.76-13.26l-6.355-11.007l-17.363,3.555l-7.85-4.531l-5.604-16.813h-12.707l-5.605,16.813
		l-7.846,4.534l-17.367-3.553l-6.352,11.002l11.758,13.26v9.067l-11.76,13.261l6.354,11.002l17.361-3.556l7.852,4.532l5.605,16.818
		h12.707l5.604-16.814l7.848-4.533l17.365,3.553l6.354-11.002l-11.758-13.261V45.308z M211.592,49.842
		c0-5.849,4.74-10.589,10.588-10.589c5.85,0,10.592,4.74,10.592,10.589c0,5.849-4.742,10.589-10.592,10.589
		C216.332,60.431,211.592,55.691,211.592,49.842z"/>
</g>
</svg>
