<?xml version="1.0" encoding="utf-8"?>
<!-- Generator: Adobe Illustrator 16.0.0, SVG Export Plug-In . SVG Version: 6.00 Build 0)  -->
<!DOCTYPE svg PUBLIC "-//W3C//DTD SVG 1.1//EN" "http://www.w3.org/Graphics/SVG/1.1/DTD/svg11.dtd">
<svg version="1.1" id="图层_1" xmlns="http://www.w3.org/2000/svg" xmlns:xlink="http://www.w3.org/1999/xlink" x="0px" y="0px"
	 width="456.008px" height="560.033px" viewBox="0 0 456.008 560.033" enable-background="new 0 0 456.008 560.033"
	 xml:space="preserve">
<path fill="#FFFFFF" d="M380.844,297.529c0.787,84.751,74.349,112.954,75.164,113.314c-0.622,1.989-11.754,40.191-38.757,79.652
	c-23.342,34.116-47.567,68.107-85.73,68.812c-37.499,0.69-49.557-22.237-92.429-22.237c-42.859,0-56.256,21.533-91.753,22.928
	c-36.837,1.395-64.888-36.892-88.424-70.883C10.822,419.585-25.931,292.64,23.419,206.949
	c24.516-42.554,68.328-69.501,115.882-70.191c36.173-0.69,70.316,24.336,92.429,24.336c22.1,0,63.59-30.096,107.208-25.676
	c18.26,0.76,69.516,7.376,102.429,55.552C438.715,192.614,380.208,226.674,380.844,297.529 M310.368,89.418
	C329.926,65.745,343.089,32.79,339.497,0C311.308,1.133,277.22,18.785,257,42.445c-18.121,20.952-33.991,54.487-29.709,86.628
	C258.712,131.504,290.811,113.106,310.368,89.418"/>
</svg>
