<?xml version="1.0" encoding="utf-8"?>
<!-- Generator: Adobe Illustrator 15.0.0, SVG Export Plug-In . SVG Version: 6.00 Build 0)  -->
<!DOCTYPE svg PUBLIC "-//W3C//DTD SVG 1.1//EN" "http://www.w3.org/Graphics/SVG/1.1/DTD/svg11.dtd">
<svg version="1.1"
	 id="Layer_1" xmlns:rdf="http://www.w3.org/1999/02/22-rdf-syntax-ns#" xmlns:inkscape="http://www.inkscape.org/namespaces/inkscape" xmlns:cc="http://creativecommons.org/ns#" xmlns:svg="http://www.w3.org/2000/svg" xmlns:dc="http://purl.org/dc/elements/1.1/" xmlns:sodipodi="http://sodipodi.sourceforge.net/DTD/sodipodi-0.dtd" inkscape:version="0.48.3.1 r9886" sodipodi:docname="troncons4.svg"
	 xmlns="http://www.w3.org/2000/svg" xmlns:xlink="http://www.w3.org/1999/xlink" x="0px" y="0px" width="595px" height="350px"
	 viewBox="0 0 595 350" enable-background="new 0 0 595 350" xml:space="preserve">
<sodipodi:namedview  id="namedview126" gridtolerance="10" guidetolerance="10" inkscape:cx="251.22794" pagecolor="#ffffff" inkscape:cy="211.47773" borderopacity="1" showgrid="false" objecttolerance="10" bordercolor="#666666" inkscape:zoom="1.3763068" inkscape:current-layer="Layer_1" inkscape:window-y="19" inkscape:window-x="0" inkscape:window-height="1059" inkscape:window-width="1918" inkscape:pageshadow="2" inkscape:pageopacity="0" inkscape:window-maximized="0">
	</sodipodi:namedview>
<rect id="rect32" x="-0.953" y="286.266" fill="none" width="594.5" height="310.332"/>
<rect id="rect34" x="-1.453" y="298.458" fill="none" width="595" height="305.14"/>
<path id="path88" sodipodi:nodetypes="cccc" inkscape:connector-curvature="0" fill="none" stroke="#F4981A" stroke-width="4.56" stroke-linecap="round" stroke-miterlimit="8" d="
	M305.225,190.741c-11.232,1.442-25.907-1.73-23.102,8.655c6.689,6.098,8.387,17.799,5.51,31.012
	c-2.159,9.912-5.312,18.658-6.522,24.002"/>
<text id="text90" transform="matrix(1 0 0 1 380.792 328.0879)" fill="#29235C" font-family="'Calibri-Bold'" font-size="18"> </text>
<text id="text92" transform="matrix(1 0 0 1 403.582 328.0879)" fill="#29235C" font-family="'Calibri-Bold'" font-size="18"> </text>
<text id="text94" transform="matrix(1 0 0 1 372.4277 112.9785)" fill="#29235C" font-family="'Calibri-Bold'" font-size="18"> </text>
<text id="text96" transform="matrix(1 0 0 1 394.9844 112.9785)" fill="#29235C" font-family="'Calibri-Bold'" font-size="18"> </text>
<text id="text112" transform="matrix(1 0 0 1 395.3027 392.1035)" fill="#3076B8" font-family="'Calibri-Bold'" font-size="18"> </text>
<text id="text114" transform="matrix(1 0 0 1 254.4893 396.666)" fill="#010202" font-family="'Calibri-Bold'" font-size="18"> </text>
<path id="path88-4" sodipodi:nodetypes="cc" inkscape:connector-curvature="0" fill="none" stroke="#F4981A" stroke-width="4.56" stroke-linecap="round" stroke-miterlimit="8" d="
	M459.191,291.614c-52.648,1.862-83.273-30.599-114.084-24.616"/>
<path id="path3897" sodipodi:ry="4.6319613" sodipodi:rx="4.8136067" sodipodi:cy="279.43069" sodipodi:type="arc" sodipodi:cx="177.92181" fill="#F4981A" d="
	M182.735,279.771c0.001,2.746-2.153,4.973-4.812,4.975c-2.658,0.001-4.814-2.225-4.815-4.971c0-0.002,0-0.002,0-0.004
	c-0.001-2.746,2.153-4.976,4.811-4.977c2.659-0.002,4.815,2.225,4.816,4.971C182.735,279.77,182.735,279.77,182.735,279.771z"/>
<path id="path3897-5" sodipodi:ry="4.6319613" sodipodi:rx="4.8136067" sodipodi:cy="279.43069" sodipodi:type="arc" sodipodi:cx="177.92181" fill="#F4981A" d="
	M499.575,266.77c0.001,2.746-2.153,4.975-4.813,4.977c-2.656,0.001-4.813-2.227-4.813-4.973c0-0.002,0-0.002,0-0.004
	c-0.001-2.746,2.15-4.975,4.812-4.975c2.658-0.002,4.814,2.225,4.815,4.971C499.575,266.766,499.575,266.768,499.575,266.77z"/>
<line fill="none" stroke="#F4981A" stroke-width="4.56" stroke-miterlimit="8" x1="14.908" y1="329.984" x2="87.588" y2="329.984"/>
<g>
	<rect x="96.456" y="324.051" fill="none" width="196.711" height="18.479"/>
	
		<text transform="matrix(0.9742 0 0 1 96.4556 337.2061)" fill="#F49739" font-family="'SourceSansPro-Regular'" font-size="18.4762">Travaux</text>
</g>
</svg>
