<?xml version="1.0" encoding="utf-8"?>
<!-- Generator: Adobe Illustrator 15.0.0, SVG Export Plug-In . SVG Version: 6.00 Build 0)  -->
<!DOCTYPE svg PUBLIC "-//W3C//DTD SVG 1.1//EN" "http://www.w3.org/Graphics/SVG/1.1/DTD/svg11.dtd">
<svg version="1.1"
	 id="Layer_1" xmlns:rdf="http://www.w3.org/1999/02/22-rdf-syntax-ns#" xmlns:inkscape="http://www.inkscape.org/namespaces/inkscape" xmlns:cc="http://creativecommons.org/ns#" xmlns:svg="http://www.w3.org/2000/svg" xmlns:dc="http://purl.org/dc/elements/1.1/" xmlns:sodipodi="http://sodipodi.sourceforge.net/DTD/sodipodi-0.dtd" inkscape:version="0.48.3.1 r9886" sodipodi:docname="troncons4.svg"
	 xmlns="http://www.w3.org/2000/svg" xmlns:xlink="http://www.w3.org/1999/xlink" x="0px" y="0px" width="595px" height="350px"
	 viewBox="0 0 595 350" enable-background="new 0 0 595 350" xml:space="preserve">
<sodipodi:namedview  id="namedview126" gridtolerance="10" guidetolerance="10" inkscape:cx="251.22794" pagecolor="#ffffff" inkscape:cy="211.47773" borderopacity="1" showgrid="false" objecttolerance="10" bordercolor="#666666" inkscape:zoom="1.3763068" inkscape:current-layer="Layer_1" inkscape:window-y="19" inkscape:window-x="0" inkscape:window-height="1059" inkscape:window-width="1918" inkscape:pageshadow="2" inkscape:pageopacity="0" inkscape:window-maximized="0">
	</sodipodi:namedview>
<rect id="rect32" x="-0.953" y="286.266" fill="none" width="594.5" height="310.332"/>
<rect id="rect34" x="-1.453" y="298.458" fill="none" width="595" height="305.14"/>
<g id="g38" transform="translate(-1.4531644,1.5974498)">
	
		<path id="path42" sodipodi:nodetypes="cc" inkscape:connector-curvature="0" fill="none" stroke="#41729D" stroke-width="4" stroke-dasharray="1.9825,1.9825" d="
		M178.664,345.846c29.775-14.063,50.394,3.482,68.535-23.445"/>
	<path id="path44" inkscape:connector-curvature="0" fill="none" stroke="#41729D" stroke-width="4" d="M245.324,325.45
		c0.097-0.316,0.19-0.64,0.28-0.96"/>
</g>
<g id="g46" transform="translate(-1.4531644,1.5974498)">
	<g id="g48">
		
			<path id="path52" sodipodi:nodetypes="cccc" inkscape:connector-curvature="0" fill="none" stroke="#41729D" stroke-width="4" stroke-dasharray="2.0113,2.0113" d="
			M591.118,348.943c-23.75-50.555-33.344-33.305-46.508-63.286c-13.384-22.336-27.61-20.321-49.268-19.871
			c-43.981-20.444-32.148-48.422-30.466-61.375"/>
		<path id="path54" inkscape:connector-curvature="0" fill="none" stroke="#41729D" stroke-width="4" d="M465.031,203.414
			c0.063-0.369,0.139-0.694,0.216-0.973"/>
	</g>
</g>
<g id="g56" transform="translate(-1.4531644,1.5974498)">
	<g id="g58">
		<path id="path60" inkscape:connector-curvature="0" fill="none" stroke="#41729D" stroke-width="4" d="M315.088,152.881
			c0.082,0.323,0.164,0.646,0.246,0.969"/>
		
			<path id="path62" inkscape:connector-curvature="0" fill="none" stroke="#41729D" stroke-width="4" stroke-dasharray="1.9486,1.9486" d="
			M315.811,155.741c2.592,10.381,4.621,20.369-0.043,25.654c-5.092,5.771-25.454,2.604-31.224,6.11
			c-4.757,2.892-3.822,9.246-3.475,12.973"/>
		<path id="path64" inkscape:connector-curvature="0" fill="none" stroke="#41729D" stroke-width="4" d="M281.145,201.446
			c0.022,0.381,0.027,0.715,0.005,0.996"/>
	</g>
</g>
<g id="g66" transform="translate(-1.4531644,1.5974498)">
	<g id="g68">
		<path id="path70" inkscape:connector-curvature="0" fill="none" stroke="#41729D" stroke-width="4" d="M277.877,202.44
			c-0.229,0.243-0.458,0.485-0.686,0.729"/>
		
			<path id="path72" inkscape:connector-curvature="0" fill="none" stroke="#41729D" stroke-width="4" stroke-dasharray="2.0167,2.0167" d="
			M275.806,204.633c-9.576,10.113-19.313,19.837-31.432,23.77c-12.993,4.215-33.825-8.653-44.455-0.666
			c-10.034,7.539-13.085,35.938-18.362,46.847"/>
		<path id="path74" inkscape:connector-curvature="0" fill="none" stroke="#41729D" stroke-width="4" d="M181.097,275.479
			c-0.167,0.305-0.335,0.588-0.507,0.855"/>
	</g>
</g>
<g id="g76" transform="translate(-1.4531644,1.5974498)">
	<g id="g78">
		<path id="path80" inkscape:connector-curvature="0" fill="none" stroke="#41729D" stroke-width="4" d="M584.999,289.334
			c-0.332,0.031-0.664,0.063-0.995,0.094"/>
		
			<path id="path82" inkscape:connector-curvature="0" fill="none" stroke="#41729D" stroke-width="4" stroke-dasharray="1.997,1.997" d="
			M582.016,289.615c-70.946,6.708-141.648,12.973-194.644-12.282c-53.731-25.612-95.866,15.058-157.598,10.354
			c-60.981-4.646-157.459-51.881-210.846-39.063"/>
		<path id="path84" inkscape:connector-curvature="0" fill="none" stroke="#41729D" stroke-width="4" d="M17.962,248.865
			c-0.323,0.084-0.644,0.168-0.963,0.256"/>
	</g>
</g>
<path id="path86" sodipodi:nodetypes="cccc" inkscape:connector-curvature="0" fill="none" stroke="#41729D" stroke-width="4" stroke-dasharray="1.997,1.997" d="
	M227.367,109.598c-24.615,24.794-49.229,49.588-40.063,66.117c9.167,16.529,85.444,7.959,95.063,33.061
	c9.62,25.101-31.531,96.63-38.887,118.058"/>
<text id="text90" transform="matrix(1 0 0 1 380.792 328.0879)" fill="#29235C" font-family="'Calibri-Bold'" font-size="18"> </text>
<text id="text92" transform="matrix(1 0 0 1 403.582 328.0879)" fill="#29235C" font-family="'Calibri-Bold'" font-size="18"> </text>
<text id="text94" transform="matrix(1 0 0 1 372.4277 112.9785)" fill="#29235C" font-family="'Calibri-Bold'" font-size="18"> </text>
<text id="text96" transform="matrix(1 0 0 1 394.9844 112.9785)" fill="#29235C" font-family="'Calibri-Bold'" font-size="18"> </text>
<text id="text112" transform="matrix(1 0 0 1 395.3027 392.1035)" fill="#3076B8" font-family="'Calibri-Bold'" font-size="18"> </text>
<text id="text114" transform="matrix(1 0 0 1 254.4893 396.666)" fill="#010202" font-family="'Calibri-Bold'" font-size="18"> </text>
<g>
	<g>
		<line fill="none" stroke="#4770B6" stroke-width="4" x1="14.908" y1="293.744" x2="15.908" y2="293.744"/>
		
			<line fill="none" stroke="#4770B6" stroke-width="4" stroke-dasharray="2.0194,2.0194" x1="17.928" y1="293.744" x2="85.578" y2="293.746"/>
		<line fill="none" stroke="#4770B6" stroke-width="4" x1="86.588" y1="293.746" x2="87.588" y2="293.746"/>
	</g>
</g>
<g>
	<rect x="96.457" y="284.746" fill="none" width="196.71" height="18"/>
	
		<text transform="matrix(0.9742 0 0 1 96.4556 297.957)" fill="#41739E" font-family="'SourceSansPro-Regular'" font-size="18.4762">Sentiers</text>
</g>
</svg>
