<?xml version="1.0" encoding="utf-8"?>
<!-- Generator: Adobe Illustrator 15.0.0, SVG Export Plug-In . SVG Version: 6.00 Build 0)  -->
<!DOCTYPE svg PUBLIC "-//W3C//DTD SVG 1.1//EN" "http://www.w3.org/Graphics/SVG/1.1/DTD/svg11.dtd">
<svg version="1.1"
	 id="Layer_1" xmlns:rdf="http://www.w3.org/1999/02/22-rdf-syntax-ns#" xmlns:inkscape="http://www.inkscape.org/namespaces/inkscape" xmlns:cc="http://creativecommons.org/ns#" xmlns:svg="http://www.w3.org/2000/svg" xmlns:dc="http://purl.org/dc/elements/1.1/" xmlns:sodipodi="http://sodipodi.sourceforge.net/DTD/sodipodi-0.dtd" inkscape:version="0.48.3.1 r9886" sodipodi:docname="troncons4.svg"
	 xmlns="http://www.w3.org/2000/svg" xmlns:xlink="http://www.w3.org/1999/xlink" x="0px" y="0px" width="595px" height="350px"
	 viewBox="0 0 595 350" enable-background="new 0 0 595 350" xml:space="preserve">
<sodipodi:namedview  id="namedview126" gridtolerance="10" guidetolerance="10" inkscape:cx="251.22794" pagecolor="#ffffff" inkscape:cy="211.47773" borderopacity="1" showgrid="false" objecttolerance="10" bordercolor="#666666" inkscape:zoom="1.3763068" inkscape:current-layer="Layer_1" inkscape:window-y="19" inkscape:window-x="0" inkscape:window-height="1059" inkscape:window-width="1918" inkscape:pageshadow="2" inkscape:pageopacity="0" inkscape:window-maximized="0">
	</sodipodi:namedview>
<rect id="rect32" x="-0.953" y="286.266" fill="none" width="594.5" height="310.332"/>
<rect id="rect34" x="-1.453" y="298.458" fill="none" width="595" height="305.14"/>
<path id="path86" sodipodi:nodetypes="cccc" inkscape:connector-curvature="0" fill="none" stroke="#29235C" stroke-width="6" stroke-linecap="round" stroke-miterlimit="8" d="
	M227.367,109.598c-24.615,24.794-49.229,49.588-40.063,66.117c9.167,16.529,85.444,7.959,95.063,33.061
	c9.62,25.102-31.531,96.631-38.887,118.059"/>
<text id="text90" transform="matrix(1 0 0 1 380.792 328.0879)" fill="#29235C" font-family="'Calibri-Bold'" font-size="18"> </text>
<text id="text92" transform="matrix(1 0 0 1 403.582 328.0879)" fill="#29235C" font-family="'Calibri-Bold'" font-size="18"> </text>
<text id="text94" transform="matrix(1 0 0 1 372.4277 112.9785)" fill="#29235C" font-family="'Calibri-Bold'" font-size="18"> </text>
<text id="text96" transform="matrix(1 0 0 1 394.9844 112.9785)" fill="#29235C" font-family="'Calibri-Bold'" font-size="18"> </text>
<text id="text112" transform="matrix(1 0 0 1 395.3027 392.1035)" fill="#3076B8" font-family="'Calibri-Bold'" font-size="18"> </text>
<text id="text114" transform="matrix(1 0 0 1 254.4893 396.666)" fill="#010202" font-family="'Calibri-Bold'" font-size="18"> </text>
<line fill="none" stroke="#29235C" stroke-width="4.56" stroke-miterlimit="8" x1="14.907" y1="311.865" x2="87.588" y2="311.865"/>
<g>
	<rect x="96.457" y="304.82" fill="none" width="196.71" height="18"/>
	
		<text transform="matrix(0.9742 0 0 1 96.4551 318.5625)" fill="#29235C" font-family="'SourceSansPro-Regular'" font-size="18.4762">Randonnée</text>
</g>
</svg>
