<?xml version="1.0" encoding="UTF-8" standalone="no"?>
<!-- Generator: Adobe Illustrator 15.0.0, SVG Export Plug-In . SVG Version: 6.00 Build 0)  -->

<svg
   xmlns:dc="http://purl.org/dc/elements/1.1/"
   xmlns:cc="http://creativecommons.org/ns#"
   xmlns:rdf="http://www.w3.org/1999/02/22-rdf-syntax-ns#"
   xmlns:svg="http://www.w3.org/2000/svg"
   xmlns="http://www.w3.org/2000/svg"
   xmlns:sodipodi="http://sodipodi.sourceforge.net/DTD/sodipodi-0.dtd"
   xmlns:inkscape="http://www.inkscape.org/namespaces/inkscape"
   version="1.1"
   id="Layer_1"
   inkscape:version="0.48.3.1 r9886"
   sodipodi:docname="troncons-anim-1.svg"
   x="0px"
   y="0px"
   width="595px"
   height="350px"
   viewBox="0 0 595 350"
   enable-background="new 0 0 595 350"
   xml:space="preserve"><metadata
   id="metadata25"><rdf:RDF><cc:Work
       rdf:about=""><dc:format>image/svg+xml</dc:format><dc:type
         rdf:resource="http://purl.org/dc/dcmitype/StillImage" /></cc:Work></rdf:RDF></metadata><defs
   id="defs23" />
<sodipodi:namedview
   id="namedview126"
   gridtolerance="10"
   guidetolerance="10"
   inkscape:cx="388.66758"
   pagecolor="#ffffff"
   inkscape:cy="408.22403"
   borderopacity="1"
   showgrid="false"
   objecttolerance="10"
   bordercolor="#666666"
   inkscape:zoom="0.6881534"
   inkscape:current-layer="Layer_1"
   inkscape:window-y="19"
   inkscape:window-x="0"
   inkscape:window-height="1059"
   inkscape:window-width="1918"
   inkscape:pageshadow="2"
   inkscape:pageopacity="1"
   inkscape:window-maximized="0"
   showborder="true">
	</sodipodi:namedview>
<rect
   style="color:#000000;fill:#ffffff;fill-opacity:1;fill-rule:nonzero;stroke:none;stroke-width:1;marker:none;visibility:visible;display:inline;overflow:visible;enable-background:accumulate"
   id="rect2998"
   width="595.0708"
   height="350.21262"
   x="-0.52971083"
   y="0.51398385" /><g
   id="g5"
   transform="translate(-0.81095041,1.2899839)">
	<rect
   id="rect12"
   x="0.5"
   y="-0.77600002"
   width="595.27502"
   height="149.42999"
   style="fill:#88dfff" />
	<polygon
   id="polygon19"
   points="504.567,141.842 493.883,140.501 481.904,135.469 476.202,129.162 455.874,123.113 437.623,126.172 422.603,132.649 413.813,134.601 404.596,129.864 395.871,128.694 387.897,123.223 366.522,117.183 350.811,116.901 338.171,113.293 311.18,116.799 271.583,109.737 257.852,108.388 245.876,108.894 225.237,115.378 199.52,112.266 177.605,106.366 159.906,95.409 138.834,108.051 108.492,116.479 94.164,124.908 57.921,132.916 24.208,121.115 4.401,117.323 0.5,117.409 0.5,224.363 595.775,224.363 595.775,126.241 591.408,125.846 580.921,121.508 571.729,112.059 558.15,107.63 545.545,122.836 529.352,131.729 521.907,133.336 512.08,135.707 "
   style="fill:#32a2d3" />
	
		<linearGradient
   id="polygon26_1_"
   gradientUnits="userSpaceOnUse"
   x1="1020.4717"
   y1="1234.137"
   x2="1020.4717"
   y2="1075.7336"
   gradientTransform="translate(-722.334,-979.4824)">
		<stop
   offset="0"
   style="stop-color:#53B0D7"
   id="stop8" />
		<stop
   offset="1"
   style="stop-color:#0069A9"
   id="stop10" />
	</linearGradient>
	<polygon
   id="polygon26"
   points="111.14,140.937 123.411,148.201 143.47,154.408 210.477,153.565 254.304,111.422 265.583,108.508 277.118,100.215 288.018,96.251 297.786,99.705 320.68,115.426 332.277,118.958 346.617,120.209 362.188,128.28 392.531,153.565 400.281,154.764 408.518,152.679 417.816,144.293 432.961,137.9 446.052,127.858 452.522,128.877 462.614,133.571 478.923,147.665 500.415,155.25 515.796,158.22 523.171,155.248 528.229,156.093 540.015,161.903 550.143,170.422 565.735,174.636 579.359,168.38 586.672,159.858 595.775,154.239 595.775,253.072 0.5,254.655 0.5,132.744 4.542,134.142 14.515,139.236 33.486,123.662 47.693,117.941 60.239,110.58 67.358,116.106 77.086,126.279 94.996,136.595 "
   style="fill:url(#polygon26_1_)" />
	<polygon
   id="polygon28"
   points="110.581,133.037 126.806,121.026 134.286,125.03 138.5,130.086 158.202,119.34 167.473,117.76 185.172,105.012 195.813,101.114 206.771,91 219.097,83.309 224.47,94.266 239.009,109.121 255.55,117.76 263.768,129.244 274.198,136.303 282.205,129.666 292.003,126.715 298.957,121.658 306.331,127.769 312.022,135.565 321.081,140.833 329.932,135.986 339.835,125.872 348.264,121.026 354.795,112.387 361.327,106.065 372.811,119.34 391.67,136.197 399.887,150.315 409.158,158.322 415.27,171.07 419.272,172.018 424.33,180.656 434.76,176.97 442.24,168.542 453.964,161.306 458.887,154.108 467.736,147.365 478.271,162.326 490.282,172.861 503.663,177.181 510.721,186.768 519.992,195.302 524.207,203.625 529.686,208.155 536.85,200.675 548.544,194.143 565.717,207.839 575.094,221.746 582.89,223.748 590.792,233.335 593.018,234.514 593.018,293.612 -2.258,293.612 -2.258,180.431 4.804,174.968 17.236,167.172 29.457,173.072 37.885,182.554 55.164,170.333 74.549,162.536 84.242,155.372 97.306,148.208 "
   style="fill:#ffffff" />
	<path
   id="path30"
   inkscape:connector-curvature="0"
   d="m 200.784,168.314 -3.582,2.95 -1.686,2.318 -1.896,2.738 4.003,-0.631 1.264,-3.792 3.582,-2.739 2.107,-3.793 -3.792,2.949 0,0 z m 141.4,27.967 1.82,-8.565 -0.334,-4.707 2.495,-6.06 1.138,-6.498 -1.824,-6.171 1.146,-7.033 4.213,-3.307 1.729,2.825 9.388,-8.172 -0.093,-10.854 3.18,-6.616 -2.105,-2.212 2.948,-3.898 3.479,-2.529 -2.698,-2.665 -1.938,-3.34 -1.264,-3.161 0.632,-4.003 11.483,13.275 18.854,16.857 8.223,14.118 9.271,8.007 6.111,12.75 4.003,0.947 5.058,8.639 2.212,6.217 8.112,8.639 3.069,4.518 3.938,2.797 4.921,6.1 0.653,2.928 -1.824,-1.832 -2.211,0.209 -1.888,2.516 -2.429,-2.896 -3.896,1.633 -0.478,3.32 -3.576,-1.043 -0.946,-5.697 0.579,-4.16 -1.473,-4.352 -2.611,-3.678 -1.104,1.156 -0.223,2.615 -0.729,-2.272 -1.296,-4.556 -6.379,-8.533 -0.781,5.613 -3.104,3.506 -0.94,2.291 -3.354,0.615 0.074,2.365 3.26,1.008 2.438,2.643 1.623,0.146 0.125,3.577 2.354,3.125 4.716,3.518 2.396,2.784 1.896,2.753 -3.563,0.924 -1.688,3.446 -2.302,1.339 -1.666,1.784 -0.928,-0.63 -1.729,0.292 1.214,-2.49 -2.806,-1.407 0.319,-1.404 -3.918,-0.15 -1.442,-2.039 -3.899,-3.344 -3.901,4.275 1.638,-10.076 2.038,-5.121 1.731,-3.655 -0.41,-6.545 0.615,-0.637 0.746,-1.999 -0.58,-1.277 0.313,-0.982 1.42,-1.39 2.125,-2.43 -2.438,-0.289 -1.438,0.746 -0.935,2.435 -0.163,-2.632 1.292,-2.534 1.951,-0.541 -2.049,-0.992 -1.433,0.332 -0.812,5.176 -0.084,8.846 -0.797,8.002 -3.992,7.425 -0.873,7.878 0.18,6.2 -4.604,-1.593 -2.318,-3.594 -5.393,-0.324 4.762,6.471 -1.75,2.818 3.929,7.98 -5.688,-5.715 -3.412,-4.967 -0.846,-5.641 -2.355,-3.127 -4.818,-0.977 -2.539,-2.479 -3.146,0.275 -2.948,-5.516 -8.409,-0.059 -9.088,-10.309 -8.209,-1.547 -0.391,-0.447 -1.688,-0.467 -2.063,1.087 -2.013,-1.364 -3.183,2.814 -0.467,-3.346 1.229,-0.657 0.02,-1.194 -3.814,1.135 -2.438,-1.756 -0.146,-2.367 -1.576,-0.773 -0.806,-1.68 0.905,-1.39 -1.838,-0.985 -2.403,-3.689 1.108,5.275 -0.701,1.793 1.633,2.182 1.832,2.329 0.83,2.481 -2.379,-2.604 -1.395,0.009 1.391,2.27 -0.188,4.173 -2.632,-2.13 -4.396,-5.428 -0.889,-2.463 -2.759,-3.861 -2.503,-2.769 -1.856,-3.171 -1.483,1.125 0.68,-1.837 1.188,-0.338 1.174,-1.851 -1.551,-0.321 2.051,-0.567 -0.104,-0.643 -2.521,0.209 0.08,-1.381 -1.104,-0.549 -1.146,2.104 0.401,-2.607 -1.179,-3.179 -3.012,0.586 -0.979,2.251 -2.046,0.665 -1.775,2.333 -1.939,0.786 -0.438,1.907 -1.151,0.281 -0.052,-2.063 -1.482,0.123 -1.307,1.528 -1.207,3.658 0.303,-3.227 1.227,-2.51 1.493,-0.389 0.354,-1.779 -0.498,-0.4 0.835,-2.014 1.114,-1.589 1.091,-0.506 -0.021,-2.615 1.687,0.055 0.479,-0.772 0.839,0.237 0.818,-0.669 0.194,1.553 0.922,-0.253 1.023,-1.563 1.868,-1.243 0.823,-3.938 -3.129,-2.629 0.472,3.187 -1.207,2.491 -1.938,1.666 -2.109,-0.473 1.41,-0.407 -0.606,-0.981 1.364,-1.484 0.164,0.896 0.742,-0.316 0.65,-3.555 -1.516,-2.326 -2.481,4.68 -0.525,3.274 -0.939,1.445 -0.387,-2.006 -1.634,-1.145 -0.769,1.494 -0.058,1.966 -0.876,2.183 0.262,4.945 -1.284,2.809 -1.897,0.912 -1.632,2.588 -0.102,2.293 -0.839,-2.105 1.358,-2.964 -0.998,-0.888 -0.435,-2.002 -1.293,-0.613 1.252,-0.477 -0.052,-2.946 -1.265,-0.428 0.845,-0.663 -0.748,-1.089 -1.476,0.079 0.401,-2.142 0.988,-0.22 -0.125,-1.17 -1.304,-0.468 2.042,-1.969 3.75,-0.144 2.212,-0.753 3.464,0.277 -0.202,-1.388 -3.233,-0.414 -3.413,0.313 2.241,-2.957 1.405,-4.812 3.791,-4.222 3.287,-3.112 -2.236,-0.288 1.75,-1.764 1.135,1.345 2.652,-2.118 -0.242,-2.14 1.321,-3.032 1.897,-0.317 -0.235,-3.361 -2.265,-0.623 1.144,-4.239 -4.041,-6.095 7.374,6.111 5.689,7.796 9.061,5.268 -1.188,5.056 0.754,6.304 -1.67,1.81 -0.105,9.482 3.999,10.027 -0.103,6.299 1.783,2.492 3.397,3.249 4.731,3.651 0.352,0.982 2.759,0.324 1.251,2.109 2.392,0.405 0,0 0,0 z m 128.31,-45.666 10.535,14.961 12.011,10.536 13.381,4.319 7.059,9.587 9.271,8.534 4.215,8.323 5.479,4.529 5.066,4.299 -1.598,0.231 -3.514,-2.677 0.451,1.738 1.446,2.357 2.271,2.633 1.604,3.227 0.409,-2.566 1.082,2.211 2.894,2.957 3.676,-0.379 4.264,2.182 1.286,3.277 1.197,-1.674 1.051,1.902 3.684,3.139 2.021,3.727 2.465,3.242 2.789,-0.43 -2.485,-2.18 -1.562,-5.312 -2.91,-2.021 2.185,-0.606 0.943,-4.034 2.264,-2.672 -1.07,-4.85 2.389,-3.18 -0.499,-3.385 -5.002,-6.277 -5.24,-3.713 -2.689,-5.182 17.178,13.696 9.379,13.907 7.797,2.002 7.896,9.587 2.229,1.179 v 16.16 l -0.492,-0.943 -0.458,-2.814 -2.761,-2.896 -3.059,0.303 -3.584,-1.057 -1.979,-0.354 -0.928,-1.668 -1.729,-0.992 -1.531,-2.73 -3.297,-4.215 1.605,5.021 2.078,4.063 1.715,0.33 1.464,0.872 -0.636,0.634 -1.913,0.293 2.188,0.738 1.688,-0.834 5.662,1.801 3.063,4.848 -1.595,2.291 -4.108,-2.674 -5.282,-0.09 -3.518,-0.723 -2.078,1.141 -2.202,3.229 -1.148,-0.729 -0.307,-1.91 -3.313,0.576 -1.389,-2.3 -3.06,0.524 -5.312,-0.467 0.876,-2.791 3.141,0.262 0.979,1.021 1.729,-0.772 -2.04,-2.203 1.668,0.016 1.407,0.813 1.761,-1.234 -1.387,-2.58 -0.963,0.422 -0.507,-1.267 2.39,-1.606 0.406,-1.785 -2.086,0.291 -2.147,2.586 -3.357,2.145 -0.663,-2.003 0.564,-2.36 -2.052,-2.336 -3.951,0.844 0.069,-2.975 -0.174,-2.289 -1.521,3.34 -1.422,1.451 -0.161,-4.955 -1.76,-1.506 0.087,2.723 -1.42,1.391 1.09,2.576 3.713,3.639 2.354,4.311 -1.915,-1.666 -2.79,-3.138 -1.714,0.183 -2.503,-0.857 -4.979,0.104 -7.639,-8.77 -0.219,-2.85 -1.058,-0.904 -2.161,2.408 -1.063,0.321 2.208,-2.401 0.471,-2.243 -0.938,-4.468 -1.122,-2.078 0.223,-1.757 -2.297,-3.025 -1.927,0.544 -1.896,-2.465 -0.92,3.571 -3.591,1.105 -2.118,1.948 2.328,-4.269 1.863,-0.088 0.811,-2.828 -1.991,-3.797 -2.017,0.428 0.396,-1.631 -1.813,-0.354 -3.728,1.729 -3.468,3.412 -4.691,0.549 4.061,-1.586 1.871,-2.088 0.979,-2.119 1.969,-1.815 1.821,-0.278 -1.886,-3.484 -4.172,-4.059 -2.81,2.268 -4.154,-0.571 3.451,-0.946 1.913,-2.307 -3.109,-2.163 -4.896,0.455 -4.058,1.864 -7.043,-1.765 -6.322,-1.114 -5.729,-5.681 3.961,2.49 4.634,0.291 7.129,-2.045 3.229,-2.569 -3.156,-5.337 -7.688,-3.799 -5.737,-8.138 -5.306,-3.227 -4.491,-10.991 0.092,-5.74 0,0 0,0 z m 29.816,40.247 1.58,0.209 0.633,-1.264 0.429,1.264 1.791,-0.209 -1.369,-0.737 -0.211,-0.843 0.94,-0.422 1.369,1.369 3.161,-0.316 -0.633,-1.475 1.896,-0.632 -0.638,-1.581 -1.58,-0.421 -0.104,-1.476 -2.107,-0.947 -1.264,-1.37 0.104,2.423 -0.636,2.529 -2.212,1.369 -1.149,2.53 0,0 0,0 z m -279.72,-87.131 3.056,-0.843 -3.056,-5.162 1.897,-1.896 -2.95,-4.109 2.318,-5.163 5.373,10.957 14.539,14.855 16.541,8.639 8.217,11.484 10.43,7.059 0.843,12.326 3.266,9.904 0.211,8.428 2.95,8.429 -2.099,2.569 -0.075,8.399 -1.184,6.414 2.01,12.943 -4.437,-4.741 -3.697,-5.253 -5.794,-11.801 -0.572,-7.883 -2.191,5.158 -0.937,6.133 0.096,5.908 -1.677,3.453 -0.015,4.232 -3.942,-3.346 -1.81,0.678 -4.212,-7.608 -1.922,-2.108 1.976,5.546 1.888,5.255 -5.026,-3.498 -3.554,-5.301 0.067,-5.119 1.452,-1.289 -0.282,-3.439 -1.966,1.854 -0.146,-3.728 1.596,-1.793 -2.195,-2.115 -1.181,1.938 -0.519,2.778 -1.91,-2.417 -1.458,-0.507 1.469,-1.383 -0.301,-2.179 -2.546,-0.596 -2.63,-3.456 -0.066,3.969 -3.278,-1.535 -2.763,-2.929 1.485,3.383 -0.579,3.785 1.472,3.994 -4.826,-5.088 -4.939,-7.546 -1.469,1.84 -0.027,2.643 -2.607,-4.328 -3.135,-2.145 5.871,-6.584 2.827,-4.668 3.967,-3.951 1.477,-3.559 2.548,-1.214 0.383,-4.251 3.555,-4.452 0.798,-7.381 2.337,-5.531 3.604,-3.884 -0.324,-5.328 1.312,-3.071 -3.723,-2.241 -5.079,-3.016 -5.147,-0.722 -4.837,0.615 -0.558,1.756 -4.931,2.37 -2.432,-1.917 -2.527,2.027 -1.148,1.932 -1.046,-2.32 3.468,-2.652 -1.218,-1.101 2.028,-3.488 2.632,-0.052 0.984,-1.966 0,0 0,0 z m -45.302,19.81 0.422,1.894 1.369,0.949 0.041,1.292 1.352,0.102 -1.533,0.604 -2.256,1.008 -0.935,1.775 0.9,1.54 -1.164,2.003 0.739,2.853 -1.34,2.413 2.25,-0.408 1.107,0.041 0.282,-1.381 1.41,0.053 1.144,-0.483 0.32,2.287 -0.423,1.792 -1.458,0.545 -1.341,2.532 -0.754,2.105 -0.994,0.226 -0.124,1.794 -1.762,1.307 2.686,-0.65 3.398,-1.93 1.497,-2.154 2.115,-0.691 2.113,-2.015 -1.387,2.058 -2.137,1.093 0.203,1.788 1.824,-0.131 1.863,0.463 1.422,-2.411 1.223,-1.052 1.698,-3.161 1.399,-2.456 2.529,-1.475 1.581,-2.845 2.107,-0.527 v -2.318 l 2.107,-1.896 0.474,-2.052 1.001,-1.736 0.579,2.651 1.843,-1.797 1.582,-0.648 -0.422,2.634 -1.264,2.107 -2.164,3.149 0.89,3.063 -2.519,2.216 -1.896,3.161 2.423,-0.211 3.363,0.388 4.562,-0.178 6.195,-2.228 -5.616,2.999 -7.988,1.219 -3.968,1.2 -0.604,1.607 -0.474,-2.056 -0.632,0.737 -1.265,-1.054 -1.896,0.316 -0.527,2.107 v 2.001 l -1.053,1.265 -0.105,-1.054 -1.37,-0.316 -1.686,1.475 -0.737,2.739 -3.161,0.948 v 1.581 l -1.896,0.105 -2.002,2.528 -2.107,0.738 h -4.109 l -1.475,-1.686 -0.105,1.37 1.054,1.475 2.107,-0.105 0.948,0.738 -1.475,0.526 -0.105,1.475 -1.896,0.843 -1.791,-0.422 0.316,-1.37 -1.686,-1.686 -1.475,0.527 -0.527,2.423 0.527,2.318 -0.843,2.423 -0.632,1.264 -1.896,1.581 0.316,2.107 -0.527,2.739 0.737,1.265 -0.527,2.633 -0.632,2.002 -1.475,1.055 -2.739,0.632 -1.37,2.317 -2.95,0.527 -2.002,1.896 0.21,-3.792 0.105,-3.266 -0.421,-2.002 0.843,-1.265 -0.105,-2.528 0.949,-1.792 0.316,-2.529 0.316,1.159 1.37,1.582 2.107,-0.21 -0.421,-2.213 0.421,-2.318 2.002,-1.686 -0.632,-1.686 1.159,-0.632 0.843,-2.739 1.053,-2.528 1.792,-0.527 0.526,-2.423 -0.912,-1.835 -1.633,0.582 -0.053,1.109 1.686,0.317 0.422,0.846 -3.108,0.052 -1.212,1.744 -0.316,1.902 -0.896,1.797 -1.37,-0.317 -1.949,0.317 1.212,-1.374 1.106,-1.321 -0.158,-1.11 v -1.796 l -1.159,1.638 -1.264,0.423 1.738,-2.959 1.107,-1.532 -0.616,-0.378 -1.686,0.843 0.421,-1.475 1.264,-1.264 0.316,1.686 1.159,0.21 h 1.791 l 1.37,-2.212 1.053,-1.264 -0.948,-0.632 -0.632,-1.37 h 1.053 l 0.211,-1.37 -0.211,-2.528 -1.159,-0.421 -0.843,0.421 0.527,-2.318 1.369,-1.37 1.686,-0.211 0.211,-1.686 0.948,-1.475 1.053,-1.686 1.37,-0.948 0.316,-1.792 h 1.159 l 1.475,-0.421 -1.159,-0.316 -0.632,-0.843 0.737,-0.843 1.896,-0.948 1.791,-0.105 0.21,-1.581 -0.948,-0.421 -0.526,-1.159 1.58,0.316 0.527,-1.475 0.527,-1.896 -0.421,-1.685 1.266,0.525 0,0 0,0 z m -118.473,74.112 4.002,-3.449 0.89,-2.646 1.831,-3.579 2.964,-0.824 1.322,-2.338 2.745,-2.65 3.45,-2.565 2.268,-1.807 -2.523,2.95 -2.206,3.32 1.494,0.52 3.188,-0.078 2.383,-1.378 -0.596,1.437 -2.062,1.063 -2.596,0.013 -1.249,0.779 -0.276,1.325 -1.492,0.125 -2.742,1.428 -0.875,1.625 0.298,2.275 2.097,1.28 0.376,1.185 2.804,1.636 4.315,-0.009 2.923,-1.68 1.721,-2.145 2.634,-2.223 3.094,0.063 2.08,0.787 2.132,0.41 -0.676,0.958 -2.882,-0.346 -4.312,-0.326 -1.479,1.453 -1.673,3.265 -1.368,1.808 0.109,1.137 1.598,-0.154 1.007,-0.249 -0.44,-0.869 0.396,-1.476 0.711,-0.041 0.076,1.451 1.858,1.5 1.03,-0.076 0.209,1.231 0.761,1.539 0.146,1.966 2.074,0.082 1.637,-0.595 1.515,-1.485 3.374,-1.375 1.287,-2.18 0.343,-3.732 1.96,-2.647 4.197,-0.324 0.658,2.709 2.641,1.845 1.298,-0.529 0.017,-3.027 0.665,-3.083 2.533,-2.024 4.411,-1.5 -5.262,3.762 -0.876,2.332 -0.022,5.387 0.696,4.714 -0.151,2.995 -1.896,1.61 -1.394,1.646 -1.106,2.538 -0.656,3.604 1.534,-3.553 1.322,-1.971 1.981,-0.818 1.832,-1.297 3.841,-1.328 -1.374,-1.053 -0.328,-1.79 -2.441,-4.79 6.637,-1.386 5.237,1.694 5.808,-1.063 -5.268,-0.919 -2.66,-3.035 -4.365,-2.234 4.702,-0.252 5.793,2.473 4.159,3.792 4.406,0.431 -3.742,-5.347 -1.257,-4.161 -4.502,-3.46 3.756,-3.872 2.354,-0.665 4.527,-5.714 4.931,0.111 0.271,-3.41 1.563,-0.533 1.176,-5.624 3.144,-4.538 -0.653,-1.535 -1.269,0.307 -2.119,-1.604 2.32,-2.84 0.484,-1.709 -2.427,-2.114 -0.029,-1.057 5.1,-1.024 1.856,-2.124 2.47,-4.371 -0.391,-1.881 1.034,-2.878 1.55,-1.108 0.143,-2.009 1.588,-0.618 3.056,-3.116 0.37,-1.006 -1.017,-0.076 0.025,-0.821 2.184,-2.324 -2.119,0.19 -2.754,2.247 -1.37,2.626 -0.489,1.763 -1.425,0.466 -0.425,1.289 -1.447,0.502 -0.288,1.574 1.115,0.434 -0.321,1.759 -1.808,0.002 -2.335,0.409 -1.063,0.742 -1.576,-0.797 0.169,-1.692 -1.844,-0.126 -0.952,-1.659 0.498,3.39 1.792,2.893 1.774,0.733 1.748,-0.614 0.96,-1.717 1.206,-0.043 0.812,1.506 -2.706,2.915 -2.989,1.017 -0.149,-0.754 -0.993,-0.433 -0.208,-1.209 -1.155,0.083 -0.265,1.751 -0.736,0.017 -0.304,-1.502 0.104,-2.818 -1.791,-3.793 -0.316,-4.003 1.37,-1.581 -4.214,-5.057 -7.48,-4.004 -2.739,6.322 3.16,3.477 -9.481,9.798 -0.185,4.27 -10.772,7.319 -5.725,0.908 0.966,2.059 -2.3,2.618 -8.636,3.476 -5.494,3.341 -3.82,3.141 -4.23,5.547 -2.895,-0.02 2.4,-3.149 1.609,-0.183 1.802,-2.192 2.903,-2.887 3.198,-2.554 3.513,-2.017 4.024,-2.763 0.131,-1.508 -0.637,-0.973 -1.251,-0.023 0.598,0.69 v 1.106 l -2.063,0.616 0.093,-1.725 -2.535,0.445 -1.906,1.058 0.197,1.15 3.455,-0.768 -1.105,0.925 -1.84,0.473 -0.787,0.531 -0.187,-0.994 -1.055,-1.004 -1.966,1.776 2.138,0.298 -0.066,1.043 0.276,1.744 -2.917,1.702 -0.308,-0.645 1.439,-1.555 -0.114,-1.023 -4.086,0.146 0.918,0.592 -0.102,0.704 -1.111,0.193 -1.068,0.612 2.208,0.358 -2.445,1.677 -0.535,1.577 -2.212,0.414 -2.053,2.443 -0.461,-0.459 -0.102,-1.22 -3.822,2.503 -1.561,2.179 -2.722,1.346 -0.562,1.162 -2.776,0.791 -1.217,2.414 -1.171,2.687 -2.806,2.185 -2.634,4.215 -0.527,2.845 -4.846,3.793 2.615,-0.045 1.46,-0.972 1.984,1.38 0,0 0,0 z m -35.873,-20.594 -1.792,-4.109 0.843,-2.528 12.221,5.9 8.428,9.481 -5.614,4.687 -5.419,6.403 -2.726,2.458 -2.105,0.995 -0.104,1.642 -0.807,-1.517 1.818,-1.297 1.487,-2.868 1.457,-0.382 0.295,-1.687 -0.837,-1.013 -0.513,1.739 -1.393,0.943 -1.559,1.693 -0.844,1.109 -2.96,0.794 -1.954,1.101 1.054,1.36 4.892,0.457 0.781,1.499 -1.97,-0.753 -3.872,0.161 -3.428,0.258 -1.687,0.523 -2.718,0.522 -2.353,2.563 0.746,-3.205 2.187,-2.76 3.224,-1.306 2.36,-2.46 1.053,-1.867 1.033,-3.582 3.351,-1.156 -0.727,-1.103 0.127,-4.022 1.28,-1.789 -0.556,2.104 0.687,2.302 1.941,2.401 3.002,0.139 0.332,-0.406 -0.448,-1.713 1.128,0.883 1.14,-0.989 -0.452,-3.121 -1.458,-1.3 -1.348,-2.805 -2.506,-2.473 -4.717,-1.906 0,0 z"
   style="fill:#68b42e" />
</g>
<rect
   id="rect32"
   x="-0.953"
   y="286.265"
   fill="none"
   width="594.5"
   height="310.333" />
<rect
   id="rect34"
   x="-1.453"
   y="298.458"
   fill="none"
   width="595"
   height="305.14" />
<text
   id="text90"
   font-size="18"
   x="-3.0689504"
   y="0.51398385"
   style="font-size:18px;fill:#29235c;font-family:Calibri-Bold"> </text>


<text
   id="text92"
   font-size="18"
   x="-3.0689504"
   y="0.51398385"
   style="font-size:18px;fill:#29235c;font-family:Calibri-Bold"> </text>


<text
   id="text94"
   font-size="18"
   x="-3.0689504"
   y="0.51398385"
   style="font-size:18px;fill:#29235c;font-family:Calibri-Bold"> </text>


<text
   id="text96"
   font-size="18"
   x="-3.0689504"
   y="0.51398385"
   style="font-size:18px;fill:#29235c;font-family:Calibri-Bold"> </text>


<text
   id="text112"
   font-size="18"
   x="395.94492"
   y="392.10349"
   style="font-size:18px;fill:#3076b8;font-family:Calibri-Bold"> </text>


<text
   id="text114"
   font-size="18"
   x="255.13152"
   y="396.66599"
   style="font-size:18px;fill:#010202;font-family:Calibri-Bold"> </text>


</svg>