<?xml version="1.0" encoding="UTF-8" standalone="no"?>
<!-- Generator: Adobe Illustrator 27.6.1, SVG Export Plug-In . SVG Version: 6.00 Build 0)  -->

<svg
   xmlns:dc="http://purl.org/dc/elements/1.1/"
   xmlns:cc="http://creativecommons.org/ns#"
   xmlns:rdf="http://www.w3.org/1999/02/22-rdf-syntax-ns#"
   xmlns:svg="http://www.w3.org/2000/svg"
   xmlns="http://www.w3.org/2000/svg"
   xmlns:sodipodi="http://sodipodi.sourceforge.net/DTD/sodipodi-0.dtd"
   xmlns:inkscape="http://www.inkscape.org/namespaces/inkscape"
   version="1.1"
   id="Calque_1"
   x="0px"
   y="0px"
   viewBox="0 0 85 85"
   xml:space="preserve"
   sodipodi:docname="012.svg"
   width="85"
   height="85"
   inkscape:version="0.92.5 (2060ec1f9f, 2020-04-08)"><metadata
   id="metadata31"><rdf:RDF><cc:Work
       rdf:about=""><dc:format>image/svg+xml</dc:format><dc:type
         rdf:resource="http://purl.org/dc/dcmitype/StillImage" /><dc:title></dc:title></cc:Work></rdf:RDF></metadata><defs
   id="defs29" /><sodipodi:namedview
   pagecolor="#ffffff"
   bordercolor="#666666"
   borderopacity="1"
   objecttolerance="10"
   gridtolerance="10"
   guidetolerance="10"
   inkscape:pageopacity="0"
   inkscape:pageshadow="2"
   inkscape:window-width="882"
   inkscape:window-height="480"
   id="namedview27"
   showgrid="false"
   inkscape:zoom="0.2979798"
   inkscape:cx="46.5"
   inkscape:cy="32.5"
   inkscape:window-x="497"
   inkscape:window-y="274"
   inkscape:window-maximized="0"
   inkscape:current-layer="Calque_1" />
<style
   type="text/css"
   id="style2">
	.st0{fill:#00713C;}
	.st1{fill:#FFDD00;}
	.st2{fill:#E30613;}
</style>
<rect
   x="0"
   y="0"
   class="st0"
   width="85"
   height="85"
   id="rect4"
   style="fill:#00713c" />
<g
   id="g20"
   transform="translate(-259.5,-343.5)">
	<path
   class="st1"
   d="m 267.7,383 c 0.2,-0.7 0.8,-2 1.2,-2.4 0.9,0.4 5.7,1.3 9,-1 2,-1.4 5.2,-5 6.7,-7.2 1.7,-2.5 3,-4.9 5,-6.9 0.5,-0.5 1.3,-0.8 2.1,-0.7 0.8,0.1 1.4,0.6 1.9,1.2 1.3,1.7 2.3,3.6 2.7,5.7 1.2,5.3 1.6,10.1 1.5,15.3 -0.1,4.1 -0.5,8.8 -1.6,13.4 -0.2,1 -0.6,1.9 -1,2.8 -0.5,1.1 -1.1,2.1 -1.9,3.1 -0.2,0.2 -0.5,0.4 -0.7,0.6 -0.8,0.6 -2.3,0.4 -3,-0.3 -1.2,-1.1 -2.2,-2.3 -3,-3.6 -2.6,-4.4 -4.9,-7.4 -8.2,-10.2 -2.7,-2.2 -6.3,-2.3 -9.6,-1.5 -1.6,-2.4 -1.7,-5.4 -1.1,-8.3 z"
   id="path6"
   inkscape:connector-curvature="0"
   style="fill:#ffdd00" />
	<polygon
   class="st1"
   points="310.7,365.5 319.9,359.6 310.2,370.5 309.3,366.7 301.6,371.6 309.9,362.2 "
   id="polygon8"
   style="fill:#ffdd00" />
	<polygon
   class="st1"
   points="317.9,389 337.2,386 321.2,386 321.6,383 301.9,386.1 318.3,386.1 "
   id="polygon10"
   style="fill:#ffdd00" />
	<polygon
   class="st1"
   points="310.8,406.3 320,412.1 306.1,408 309.2,405.5 301.4,400.6 313.4,404.2 "
   id="polygon12"
   style="fill:#ffdd00" />
	<path
   class="st1"
   d="m 317.9,373.5 c 0.2,0 1,0.1 1.5,0.4 0.1,0 0.1,0 0.1,0 v -6.7 h 0.7 c 0,0 0,5.4 0,8.2 -0.2,1 -1,1.5 -2,1.6 -1.3,0.2 -2.5,-0.4 -2.8,-1.4 -0.4,-1.2 1.2,-2.1 2.5,-2.1 z"
   id="path14"
   inkscape:connector-curvature="0"
   style="fill:#ffdd00" />
	<path
   class="st1"
   d="m 331.3,370.8 c 0.2,0 1,0.1 1.5,0.4 0.1,0 0.1,0 0.1,0 v -6.7 h 0.7 c 0,0 0,5.4 0,8.2 -0.2,1 -1,1.5 -2,1.6 -1.3,0.2 -2.5,-0.4 -2.8,-1.4 -0.3,-1.2 1.2,-2.2 2.5,-2.1 z"
   id="path16"
   inkscape:connector-curvature="0"
   style="fill:#ffdd00" />
	<path
   class="st1"
   d="m 325.9,400.1 c 0.2,0 1,0.1 1.5,0.4 0.1,0 0.1,0 0.1,0 v -6.7 h 0.7 c 0,0 0,5.4 0,8.2 -0.2,1 -1,1.5 -2,1.6 -1.3,0.2 -2.5,-0.4 -2.8,-1.4 -0.3,-1.2 1.2,-2.1 2.5,-2.1 z"
   id="path18"
   inkscape:connector-curvature="0"
   style="fill:#ffdd00" />
</g>
<path
   class="st0"
   d="m 26.4,33.7 c -0.8,4.7 -0.9,9.8 -0.5,14.5 0.2,2.6 0.9,6 1.9,8.9 0.1,0.2 0.3,0.2 0.5,0 0.1,-0.2 0,-0.4 0,-0.6 -1.2,-6.8 -1.3,-13.9 -0.8,-20.9 0.2,-2.5 0.4,-4.7 1,-7.3 0,-0.1 -0.1,-0.4 -0.3,-0.3 -0.1,0 -0.1,0.1 -0.2,0.3 -0.5,0.8 -1.3,3.4 -1.6,5.4 z"
   id="path22"
   inkscape:connector-curvature="0"
   style="fill:#00713c" />
<rect
   x="-2.0028799"
   y="12.900769"
   transform="rotate(-45)"
   class="st2"
   width="3.9999616"
   height="94.399094"
   id="rect24"
   style="fill:#e30613;stroke-width:0.9999904" />
</svg>