<?xml version="1.0" encoding="UTF-8" standalone="no"?>
<!-- Generator: Adobe Illustrator 27.6.1, SVG Export Plug-In . SVG Version: 6.00 Build 0)  -->

<svg
   xmlns:dc="http://purl.org/dc/elements/1.1/"
   xmlns:cc="http://creativecommons.org/ns#"
   xmlns:rdf="http://www.w3.org/1999/02/22-rdf-syntax-ns#"
   xmlns:svg="http://www.w3.org/2000/svg"
   xmlns="http://www.w3.org/2000/svg"
   xmlns:sodipodi="http://sodipodi.sourceforge.net/DTD/sodipodi-0.dtd"
   xmlns:inkscape="http://www.inkscape.org/namespaces/inkscape"
   version="1.1"
   id="Calque_1"
   x="0px"
   y="0px"
   viewBox="0 0 85 85"
   xml:space="preserve"
   sodipodi:docname="021.svg"
   width="85"
   height="85"
   inkscape:version="0.92.5 (2060ec1f9f, 2020-04-08)"><metadata
   id="metadata37"><rdf:RDF><cc:Work
       rdf:about=""><dc:format>image/svg+xml</dc:format><dc:type
         rdf:resource="http://purl.org/dc/dcmitype/StillImage" /><dc:title></dc:title></cc:Work></rdf:RDF></metadata><defs
   id="defs35" /><sodipodi:namedview
   pagecolor="#ffffff"
   bordercolor="#666666"
   borderopacity="1"
   objecttolerance="10"
   gridtolerance="10"
   guidetolerance="10"
   inkscape:pageopacity="0"
   inkscape:pageshadow="2"
   inkscape:window-width="882"
   inkscape:window-height="480"
   id="namedview33"
   showgrid="false"
   inkscape:zoom="0.2979798"
   inkscape:cx="46.5"
   inkscape:cy="32.5"
   inkscape:window-x="54"
   inkscape:window-y="27"
   inkscape:window-maximized="0"
   inkscape:current-layer="Calque_1" />
<style
   type="text/css"
   id="style2">
	.st0{fill:#006E33;}
	.st1{fill:#FFDD00;}
	.st2{fill:#E2001A;}
</style>
<rect
   x="0"
   y="0"
   class="st0"
   width="85"
   height="85"
   id="rect4"
   style="fill:#006e33" />
<path
   class="st1"
   d="m 8.4,21.1 c 1,-1.2 2.4,-1.6 4.4,-1.8 2.4,-0.2 5.7,0.8 7.7,2.4 0,0 0.1,0.1 0.1,0 -0.4,-2.9 -0.5,-5.8 0.3,-8.7 0.3,-1 0.8,-2.3 1.4,-2.8 0.3,-0.3 0.7,-0.6 1.2,-0.7 0.5,-0.1 0.9,-0.1 1.4,0 2,0.6 3.3,2.2 4.6,3.8 0.9,1.1 1.6,2.2 2.3,3.5 0.5,0.9 1,1.8 1.4,2.7 0.3,-1.3 0.3,-1.8 1,-3.2 0.3,-0.6 0.6,-1 0.9,-1.5 0.5,-0.7 1,-1.2 1.7,-1.8 1.6,-1.3 3.6,-1.9 5.7,-1.9 0.4,0 0.5,0.4 0.4,0.7 -0.2,0.5 -0.6,0.6 -1.1,1.2 -0.6,0.9 -0.9,1.8 -1.2,2.6 -0.1,0.3 -0.2,1.4 -0.2,2.1 0,1.1 0.1,1.9 0.3,3.3 1,-0.2 1.9,-0.5 2.9,-0.7 1,-0.1 2.1,0.1 3,0.5 1.2,0.4 2.1,1.1 3,2 0.6,0.7 1,1.4 1.4,2.2 0.1,0.3 0.4,0.8 0.2,1.1 -0.1,0.1 -0.4,0.1 -0.6,0 C 50,25.5 49.5,25.4 48.8,25.2 48.3,25 48,25 47.5,24.9 c -0.4,0 -0.7,0 -1.2,0 -0.4,0 -0.7,0.2 -1,0.3 -0.5,0.2 -0.9,0.6 -1.4,1.1 -0.8,1 -1.3,2.1 -2.1,3.1 -0.9,1.2 -2,2.1 -3.2,3.1 -0.1,0.1 -0.3,0.5 -0.2,0.8 0.1,0.2 0.5,0.4 0.7,0.6 0.7,0.8 0.1,1.9 -0.6,2.3 -1.2,0.8 -2.6,2.4 -2.1,3.8 0.8,2.3 2.3,5.1 3.2,7.8 0,0 0,0.2 0.1,0.2 3.5,-3.5 7.2,-6.9 10.5,-9.7 1.7,-1.5 4.2,-2.2 6.3,-2.1 1.9,0.1 3.8,0.6 5.7,0.8 1.3,0.2 2.6,0.3 3.9,0.5 3.6,0.4 10.7,0.9 10.7,0.9 V 40 c 0,0 -7.5,-0.4 -12.2,-1 -2.6,-0.3 -5,-0.7 -7.6,-1.1 -1.6,-0.2 -3.6,0.3 -5,1.2 -0.4,0.2 -0.7,0.5 -1,0.8 -2.9,2.5 -5.4,4.8 -8.1,7.4 -0.9,0.9 -1.8,1.7 -2.5,2.7 0.4,1.3 0.7,2.3 1.1,3.8 3.7,-0.9 7.7,-2.5 10.7,-4.3 C 52.1,48.8 52,48 52,47.3 c -0.2,-1.4 -0.3,-2.4 -0.3,-3.9 0,-0.7 0.6,-0.8 0.8,-0.8 0.2,0 0.7,0.2 0.7,0.7 0,1.5 0.2,2.5 0.4,5.2 1.7,-1.1 3,-2.5 4.4,-4 0.2,-0.2 0.6,-0.2 0.9,0 0.1,0.1 0.2,0.2 0.2,0.3 0.1,0.2 0,0.6 -0.1,0.8 -0.9,1.3 -2.1,2.5 -3.4,3.5 -3.1,2.5 -6.4,4 -10.6,5.4 -0.6,0.2 -1.3,0.3 -1.9,0.5 -1.8,0.5 -3.5,0.8 -5.3,1.3 -1.5,0.4 -3.1,1 -4.2,2.3 -0.5,0.6 -0.7,1.4 -0.5,2.1 0.5,1.2 2.1,1.5 2.8,1.5 3.7,0.1 7.5,-0.6 11,-2.1 3.8,-2.2 8.1,-4.2 12.4,-4.7 1,0.5 2,1 3.1,1.3 1.3,0.3 2.1,0.5 3.1,0.6 3.8,0.2 7.7,-0.5 11.4,-1.5 v 1.6 C 73.7,58.3 71,59 67,59 c 0,0.7 -0.3,1.6 -0.6,2.1 -0.9,1.7 -1.6,3.2 -3.1,4.6 -1.6,1.6 -4.2,1.7 -5.2,0.8 -0.8,0.7 -1.9,0.9 -2.9,1 -1.7,0.1 -2.9,-0.1 -4.8,-0.8 -0.1,0 -0.2,0 -0.6,0.2 -0.5,0.3 -1.1,0.4 -1.7,0.4 -0.4,0 -0.9,-0.1 -1.3,-0.2 -1,-0.5 -1.9,-0.8 -2.9,-1.4 0,0 -0.2,-0.1 -0.2,0 0.2,2.8 0.2,4.7 -0.4,8.5 -0.6,0.5 -0.8,0.7 -1.2,1.3 -0.7,1 -0.9,1.3 -1,1.6 H 41 v -0.2 c 1.1,-3.3 1.5,-7.9 1,-12 -1.1,1.9 -2.7,4.4 -5.1,5.3 -1.6,0.5 -3.2,0.3 -4.7,-0.9 0.2,-2.1 0.6,-4 1.1,-6 0,-0.1 -0.1,-0.1 -0.2,-0.2 -1,-0.5 -1.7,-1.6 -1.8,-2.7 -0.1,-1 0.2,-1.8 0.8,-2.7 0.4,-0.5 0.7,-0.9 1.2,-1.2 0.4,-0.2 0.7,-0.5 1.1,-0.7 0.6,-0.3 1,-0.4 1.7,-0.6 0.8,-1.8 1.4,-3.7 2.2,-5.4 -1.1,-3.1 -2.4,-6 -3.7,-9.1 -0.2,-0.6 -1.1,-1.1 -2,-1.1 -0.7,-0.1 -1.4,0 -2.1,0.1 -0.5,0.1 -1.1,0 -1.6,-0.2 -0.4,-0.2 -0.8,-0.5 -1,-1 0,-0.3 0,-0.6 0.2,-1 0,-0.2 -0.2,-0.6 -0.4,-0.6 -1.5,-0.1 -1.6,0.2 -2.9,0.4 -1.3,0.1 -2.6,-0.2 -3.8,-0.6 -1.3,-0.5 -2.5,-1 -3.9,-1.3 -1,-0.2 -2,-0.3 -3,-0.1 -0.3,0.1 -0.6,0.2 -0.9,0.4 -0.4,0.2 -0.7,0.5 -1.1,0.8 -0.5,0.5 -0.8,1.1 -1.4,1.5 -0.7,0 -1,-0.9 -1.1,-1.5 -0.2,-0.7 0,-1.3 0.2,-2 0.5,-1.5 1.2,-2.8 2.4,-3.8 0.4,-0.3 0.7,-0.5 1.2,-0.7 0.3,-0.1 0.6,-0.2 0.9,-0.3 0.3,-0.1 0.6,-0.1 0.9,-0.1 -0.9,-1.7 -1.5,-3.5 -1.9,-4.3 -1.7,-3 -3.7,-3.6 -5.2,-3.3 0.3,-0.1 0,-0.6 0.3,-0.9 z"
   id="path6"
   inkscape:connector-curvature="0"
   style="fill:#ffdd00" />
<polygon
   class="st0"
   points="299.7,397.6 299.1,395.6 298,398 "
   id="polygon8"
   style="fill:#006e33"
   transform="translate(-259.5,-343.5)" />
<path
   class="st0"
   d="m 35.2,63.6 c -0.5,2.2 -0.7,3.1 -1,4.7 l 0.1,0.1 c 0.6,0.3 1.3,0.5 2,0.2 2.5,-0.8 3.9,-3.3 5,-5.3 0,0 -0.2,0 -0.3,0 -2,0.4 -3.7,0.4 -5.8,0.3 z"
   id="path10"
   inkscape:connector-curvature="0"
   style="fill:#006e33" />
<path
   class="st0"
   d="m 47.9,61.4 c -0.6,0.3 -1.2,0.5 -1.8,0.8 -0.8,0.3 -1.9,0.6 -2.4,0.7 v 0.7 c 0,0 2,1.2 3.6,1.9 0.9,0.4 1.6,0.3 2.3,-0.1 0.7,-0.4 4.7,-3.8 5.2,-4.7 0.2,-0.4 0.2,-0.8 0,-1.2 -0.4,-0.5 -1.1,-0.7 -1.5,-0.7 -0.3,0 -2.4,1 -3.7,1.7 -0.5,0.2 -1.1,0.5 -1.7,0.9 z"
   id="path12"
   inkscape:connector-curvature="0"
   style="fill:#006e33" />
<path
   class="st0"
   d="m 60.1,61.3 c 0.6,-1 1,-1.6 1,-3.2 0,-0.1 0,-0.3 0,-0.3 -0.5,-0.1 -1,-0.3 -1.9,-0.8 -1,0.2 -1.6,0.4 -3,0.7 -0.3,0.1 -0.8,0.2 -0.8,0.2 0.7,0.5 1.1,0.9 1.3,1.6 0.1,0.6 -0.1,1.4 -0.4,1.7 -1.2,1.5 -2.7,2.7 -4.2,4.1 2.3,0.6 3.9,0.7 5,0 0.4,-0.3 2.1,-2.5 3,-4 z"
   id="path14"
   inkscape:connector-curvature="0"
   style="fill:#006e33" />
<path
   class="st0"
   d="m 62.3,60.7 c -0.7,1.7 -2.6,4 -2.9,4.4 0.6,0.5 1.6,0.3 2.3,-0.1 1.6,-0.9 2.6,-2.7 3.5,-4.4 0.3,-0.6 0.4,-1.2 0.5,-1.8 -0.5,0 -2.6,-0.3 -2.9,-0.5 -0.1,1.1 -0.3,1.7 -0.5,2.4 z"
   id="path16"
   inkscape:connector-curvature="0"
   style="fill:#006e33" />
<path
   class="st0"
   d="m 30.2,26 c -0.3,0.3 -0.4,0.8 -0.3,1.3 0.1,0.5 0.5,1 0.9,1.1 0.4,0.1 0.8,-0.2 0.9,-0.6 0.1,-0.6 0,-1.2 -0.6,-1.7 -0.2,-0.2 -0.5,-0.4 -0.9,-0.1 z"
   id="path18"
   inkscape:connector-curvature="0"
   style="fill:#006e33" />
<path
   class="st0"
   d="m 32.9,27.3 c -0.2,0.3 -0.3,0.8 -0.2,1.2 0,0.2 0.2,0.7 0.4,0.8 0.2,0.1 0.5,0.2 0.7,0.1 0.7,-0.3 0.9,-1.4 0.6,-2 -0.1,-0.2 -0.2,-0.5 -0.6,-0.6 -0.3,-0.1 -0.7,0.1 -0.9,0.5 z"
   id="path20"
   inkscape:connector-curvature="0"
   style="fill:#006e33" />
<path
   class="st0"
   d="m 28.9,29.5 c -0.3,0.7 0.4,1.8 1.1,2 0.3,0.1 0.6,-0.1 0.8,-0.4 0.3,-0.6 -0.1,-1.4 -0.7,-1.9 -0.5,-0.4 -1.1,-0.1 -1.2,0.3 z"
   id="path22"
   inkscape:connector-curvature="0"
   style="fill:#006e33" />
<path
   class="st0"
   d="m 25.6,30.7 c 0.3,0.7 1.1,1 1.7,1 0.5,-0.1 0.6,-0.8 0.3,-1.3 -0.5,-0.7 -1.2,-1.1 -1.9,-0.7 -0.3,0 -0.3,0.6 -0.1,1 z"
   id="path24"
   inkscape:connector-curvature="0"
   style="fill:#006e33" />
<path
   class="st0"
   d="m 31.1,35 c -0.6,0.2 -1.1,0.8 -0.9,1.3 0.1,0.3 0.6,0.6 1.1,0.5 C 32,36.7 32.9,36 32.7,35.3 32.5,34.8 31.6,34.8 31.1,35 Z"
   id="path26"
   inkscape:connector-curvature="0"
   style="fill:#006e33" />
<path
   class="st0"
   d="m 34.4,34.2 c -0.1,0.3 0,0.7 0.3,0.8 0.8,0.3 1.7,0 2.1,-0.8 0.2,-0.4 0,-0.8 -0.3,-0.9 -0.8,-0.5 -1.9,0.1 -2.1,0.9 z"
   id="path28"
   inkscape:connector-curvature="0"
   style="fill:#006e33" />
<rect
   x="-2.0028799"
   y="12.900769"
   transform="rotate(-45)"
   class="st2"
   width="3.9999616"
   height="94.399094"
   id="rect30"
   style="fill:#e2001a;stroke-width:0.9999904" />
</svg>