<?xml version="1.0" encoding="UTF-8" standalone="no"?>
<!-- Generator: Adobe Illustrator 27.6.1, SVG Export Plug-In . SVG Version: 6.00 Build 0)  -->

<svg
   xmlns:dc="http://purl.org/dc/elements/1.1/"
   xmlns:cc="http://creativecommons.org/ns#"
   xmlns:rdf="http://www.w3.org/1999/02/22-rdf-syntax-ns#"
   xmlns:svg="http://www.w3.org/2000/svg"
   xmlns="http://www.w3.org/2000/svg"
   xmlns:sodipodi="http://sodipodi.sourceforge.net/DTD/sodipodi-0.dtd"
   xmlns:inkscape="http://www.inkscape.org/namespaces/inkscape"
   version="1.1"
   id="Calque_1"
   x="0px"
   y="0px"
   viewBox="0 0 85 85"
   xml:space="preserve"
   sodipodi:docname="023.svg"
   width="85"
   height="85"
   inkscape:version="0.92.5 (2060ec1f9f, 2020-04-08)"><metadata
   id="metadata23"><rdf:RDF><cc:Work
       rdf:about=""><dc:format>image/svg+xml</dc:format><dc:type
         rdf:resource="http://purl.org/dc/dcmitype/StillImage" /><dc:title></dc:title></cc:Work></rdf:RDF></metadata><defs
   id="defs21" /><sodipodi:namedview
   pagecolor="#ffffff"
   bordercolor="#666666"
   borderopacity="1"
   objecttolerance="10"
   gridtolerance="10"
   guidetolerance="10"
   inkscape:pageopacity="0"
   inkscape:pageshadow="2"
   inkscape:window-width="882"
   inkscape:window-height="480"
   id="namedview19"
   showgrid="false"
   inkscape:zoom="0.2979798"
   inkscape:cx="46.5"
   inkscape:cy="32.5"
   inkscape:window-x="54"
   inkscape:window-y="27"
   inkscape:window-maximized="0"
   inkscape:current-layer="Calque_1" />
<style
   type="text/css"
   id="style2">
	.st0{fill:#00713C;}
	.st1{fill:#FFDD00;}
	.st2{fill:#E30613;}
</style>
<rect
   x="0"
   y="0"
   class="st0"
   width="85"
   height="85"
   id="rect4"
   style="fill:#00713c" />
<path
   class="st1"
   d="m 7.6,50.7 c 4.8,-3 10.8,-5.8 14.9,-6.9 6.7,-1.8 14.2,-1.5 21.4,0 2.2,0.5 4.3,1.1 6.4,1.8 1,0.4 2,0.7 3.1,1.2 0.8,0.3 1.6,0.7 2.5,1 1.8,0.8 3.5,1.6 5.3,2.6 5.3,-2.7 10.8,-5.5 16.1,-8.2 -2.6,3.7 -5.4,7.2 -8,10.8 2.7,3.5 5.4,7.3 8.1,10.8 C 75.6,63 73.7,62 71.9,61.1 68.2,59.4 64.8,57.5 61.2,55.7 c -4.6,2.6 -9.4,4.7 -14.6,6.1 -2.7,0.7 -5.4,1.2 -8.2,1.6 -1.7,0.2 -3.4,0.3 -5.1,0.4 -3,0.1 -6,-0.1 -9.1,-0.7 C 22.7,62.8 21.3,62.4 19.9,61.9 19.7,61.8 19.4,61.7 19.1,61.6 15.9,60.4 13,59.1 10,57.4 9.3,57 8.5,56.6 7.8,56.1 9.5,55.2 11.4,54.3 13.2,53.4 12.3,52.9 8.1,51 7.6,50.7 Z"
   id="path6"
   inkscape:connector-curvature="0"
   style="fill:#ffdd00" />
<path
   class="st1"
   d="m 18.6,27.6 c -1.7,3.2 -3.7,6.7 -5.5,9.8 0,-1.5 0,-4.1 0,-4.1 -1.2,0.9 -2,1.3 -2.3,1.5 -1.2,0.9 -1.6,3 -0.9,4.6 1.1,2.6 3.9,3.7 6.4,2.5 0.5,-0.2 0.9,-0.5 1.3,-0.8 C 23,35.6 28.1,30.4 33.4,25 33.2,24.7 33,24.1 33,23.6 c 0,-0.4 0.1,-0.8 0.2,-1.2 0.3,-0.7 0.9,-1.2 1.7,-1.5 0.9,-0.2 1.8,-0.1 2.5,0.5 3,-3.4 7,-6.3 11.3,-8.3 8.9,-4.2 18.8,-4.9 28.4,-4.8 0,0.3 0,0.7 0,1 -7.6,0 -15.1,0.4 -22.5,2.6 -3.2,1 -6.2,2.3 -9.2,4.1 -1.4,0.8 -2.6,1.7 -3.8,2.6 -2.2,1.8 -3.5,3.4 -3.5,3.4 0.4,0.7 0.4,1.6 0.2,2.3 -0.3,0.9 -1,1.5 -1.9,1.7 -0.5,0.1 -1,0.1 -1.6,-0.1 -5.7,5.7 -12.4,12.6 -16.7,16.7 -2.3,1.9 -5.6,1.9 -8,0 -2.4,-2 -3.1,-5.5 -1.5,-8.1 0.2,-0.4 0.9,-1.1 1.3,-1.4 3.1,-1.8 5.5,-3.5 8.7,-5.5 z"
   id="path8"
   inkscape:connector-curvature="0"
   style="fill:#ffdd00" />
<g
   id="g14"
   transform="translate(-259.5,-343.5)">
	<path
   class="st0"
   d="m 280.6,395.8 c 1,0 1.8,-0.8 1.8,-1.8 0,-1 -0.8,-1.8 -1.8,-1.8 -1,0 -1.8,0.8 -1.8,1.8 0.1,1 0.9,1.8 1.8,1.8 z"
   id="path10"
   inkscape:connector-curvature="0"
   style="fill:#00713c" />
	<circle
   class="st0"
   cx="295.20001"
   cy="367.10001"
   r="1.3"
   id="circle12"
   style="fill:#00713c" />
</g>
<rect
   x="-2.0028799"
   y="12.900769"
   transform="rotate(-45)"
   class="st2"
   width="3.9999616"
   height="94.399094"
   id="rect16"
   style="fill:#e30613;stroke-width:0.9999904" />
</svg>