<?xml version="1.0" encoding="UTF-8" standalone="no"?>
<!-- Generator: Adobe Illustrator 27.6.1, SVG Export Plug-In . SVG Version: 6.00 Build 0)  -->

<svg
   xmlns:dc="http://purl.org/dc/elements/1.1/"
   xmlns:cc="http://creativecommons.org/ns#"
   xmlns:rdf="http://www.w3.org/1999/02/22-rdf-syntax-ns#"
   xmlns:svg="http://www.w3.org/2000/svg"
   xmlns="http://www.w3.org/2000/svg"
   xmlns:sodipodi="http://sodipodi.sourceforge.net/DTD/sodipodi-0.dtd"
   xmlns:inkscape="http://www.inkscape.org/namespaces/inkscape"
   version="1.1"
   id="Calque_1"
   x="0px"
   y="0px"
   viewBox="0 0 85 85"
   xml:space="preserve"
   sodipodi:docname="031.svg"
   width="85"
   height="85"
   inkscape:version="0.92.5 (2060ec1f9f, 2020-04-08)"><metadata
   id="metadata37"><rdf:RDF><cc:Work
       rdf:about=""><dc:format>image/svg+xml</dc:format><dc:type
         rdf:resource="http://purl.org/dc/dcmitype/StillImage" /><dc:title></dc:title></cc:Work></rdf:RDF></metadata><defs
   id="defs35" /><sodipodi:namedview
   pagecolor="#ffffff"
   bordercolor="#666666"
   borderopacity="1"
   objecttolerance="10"
   gridtolerance="10"
   guidetolerance="10"
   inkscape:pageopacity="0"
   inkscape:pageshadow="2"
   inkscape:window-width="882"
   inkscape:window-height="480"
   id="namedview33"
   showgrid="false"
   inkscape:zoom="0.2979798"
   inkscape:cx="46.5"
   inkscape:cy="32.5"
   inkscape:window-x="54"
   inkscape:window-y="27"
   inkscape:window-maximized="0"
   inkscape:current-layer="Calque_1" />
<style
   type="text/css"
   id="style2">
	.st0{fill:#00713C;}
	.st1{fill:#FFDD00;}
	.st2{fill:#E30613;}
</style>
<rect
   x="0"
   y="0"
   class="st0"
   width="85"
   height="85"
   id="rect4"
   style="fill:#00713c" />
<path
   class="st1"
   d="m 16.9,48.1 c 3.6,-2.9 7.7,-5.1 12.2,-5.1 0.8,0 1.7,0.2 1.8,0.9 0.1,0.8 -0.5,1.9 -1,2.6 -0.5,0.8 -1.3,1.5 -1.7,1.9 -2.5,2.1 -4.7,3.9 -8,7 -1.1,1 -2.7,2.1 -4.2,2.9 -1.3,0.7 -2.3,1.2 -3.7,1.5 -0.2,0.1 -0.6,0.1 -0.9,0 -0.3,0 -0.6,-0.4 -0.7,-0.7 -0.2,-0.7 0,-1.4 0.2,-2.1 1.2,-3.5 3.1,-6.6 6,-8.9 z"
   id="path6"
   inkscape:connector-curvature="0"
   style="fill:#ffdd00" />
<path
   class="st1"
   d="m 12.5,61 c 3.2,-0.8 6.1,-2.6 7.8,-4.1 2.6,-2.2 5,-4.5 7.8,-6.7 1,-0.7 1.8,-1.6 2.6,-2.6 0.6,-0.8 0.9,-1.4 1.2,-2.1 0.5,0.5 1,0.8 1.6,1 0,0 0,0.2 0,0.2 -1.8,2.4 -5.2,7.4 -6.9,11.1 -0.7,1.6 -1.3,2.9 -1.8,4.4 -0.5,1.7 -0.8,2.5 -1.3,5 4.9,-0.7 9.6,-1.9 13.8,-4.9 2,-1.4 3.4,-3 4.6,-5 1,-1.6 1.5,-3.2 1.7,-5 0.1,-1.4 -0.2,-2.8 -0.6,-4.1 3.5,2.1 5.4,5.9 6.2,9.9 0.2,0.9 0.3,1.8 0.3,2.7 0,1.5 0,3 -0.2,4.5 -0.4,3 -1.2,6.4 -3.3,8.3 -1.1,1 -2.6,0.9 -3.7,0.5 -9,-3.6 -16.7,-6.2 -25.8,-8.6 -0.9,-0.2 -1.9,-1.1 -2.3,-1.8 -0.3,-0.7 -0.1,-1 -1.7,-2.7 z"
   id="path8"
   inkscape:connector-curvature="0"
   style="fill:#ffdd00" />
<path
   class="st1"
   d="m 25.3,65.4 c 1.2,-5.6 4.5,-11.5 8.2,-16.7 0.2,0.1 0.3,0.5 0.7,0.7 -1.8,4.3 -3.1,9.4 -2.5,14.3 -1.5,0.7 -3.9,1.3 -6.1,1.7 z"
   id="path10"
   inkscape:connector-curvature="0"
   style="fill:#ffdd00" />
<path
   class="st1"
   d="m 33.3,56.5 c 5.4,-4.4 8.6,-7.5 8.6,-7.5 1.3,3.2 -0.2,6.6 -2.2,9.1 -1.8,2.2 -4.1,3.9 -6.6,5 -0.4,-2.2 -0.2,-4.5 0.2,-6.6 z"
   id="path12"
   inkscape:connector-curvature="0"
   style="fill:#ffdd00" />
<path
   class="st1"
   d="m 47.3,50 c 0.4,-0.3 1.2,-0.3 1.5,-0.2 1.1,0.6 2.3,3.3 2.7,4.5 0.6,1.8 1,3.8 1.1,6.1 0.1,3.9 -0.3,7.8 -2,11.6 -0.1,0.1 -0.5,0.8 -0.9,1 -0.5,0.3 -1.1,0.2 -1.7,0 l 0.1,-0.1 c 1,-1.1 1.5,-2.4 1.8,-3.7 0.8,-3 1.1,-6.1 1,-9.1 C 50.6,56.4 49.5,52.9 47.3,50 Z"
   id="path14"
   inkscape:connector-curvature="0"
   style="fill:#ffdd00" />
<path
   class="st1"
   d="m 77.1,12.4 c 0,0.5 0,1 0,1.6 -6.9,-0.2 -13,-1.1 -19.9,-2.1 -0.5,-0.1 -2.2,-0.1 -4.2,0.8 -0.6,0.3 -1.8,1.1 -3.4,2.6 -3.1,2.8 -5.9,5.2 -8.7,8.2 -0.2,0.2 -0.3,0.5 -0.4,0.7 -0.6,1.4 -1.1,2.7 -1.7,4.1 4.8,-1 9.5,-2.4 13.7,-5 -0.1,-1.1 -0.3,-2.2 -0.4,-3.4 0,-0.9 -0.2,-1.9 -0.1,-2.8 0,-0.3 0.2,-0.6 0.5,-0.7 0.5,-0.2 1,0.2 1.1,0.7 0,1 0.1,2.6 0.3,4.1 0,0.4 0.1,0.8 0.1,1.2 1.8,-1.2 3,-2.5 4.4,-4 0.2,-0.2 0.6,-0.2 0.9,0 0.3,0.2 0.4,0.6 0.2,0.9 -0.4,0.8 -1,1.3 -1.6,2 -1,1.1 -2.1,2 -3.4,2.8 -3.4,2.2 -6.6,3.5 -10.6,4.7 -2.6,0.7 -4.3,0.9 -7.3,1.9 -0.8,0.3 -2.2,1.2 -2.6,1.9 -0.1,0.1 -0.3,0.4 -0.4,0.8 -0.1,0.3 -0.1,0.9 0,1.1 0.1,0.3 0.5,0.7 1,1 0.6,0.3 1.6,0.5 2.4,0.5 4.4,0.1 9.3,-1.4 10.6,-2.2 3.5,-2.1 7.7,-4 12,-4.4 2,1.1 4.3,1.8 6.6,1.9 3.7,0.1 7.4,-0.5 10.9,-1.5 0,0.5 0,1.1 0,1.6 -3.7,1.1 -7.7,1.8 -11.5,1.4 0.1,0.7 0.2,1.4 0,2.1 -1.2,0 -2.4,-0.1 -3.7,-0.3 -1.6,-0.3 -2.4,-0.5 -4.1,-1.1 0.2,0.6 0.6,1.4 0.9,2.1 0,0.1 0.1,0.1 0.2,0.2 0.4,0.1 1.5,0.2 2.3,0.5 1.1,0.4 2.2,0.8 3.1,1.6 0.6,0.5 1,1.1 1.2,1.9 0.2,0.8 0.1,1.7 -0.2,2.4 -3.3,0 -7.9,-0.3 -10.2,-1.8 -1.1,-0.9 -2,-1.9 -2.8,-3.1 0.1,0.3 0.2,0.7 0.2,1 1.3,1.6 3.1,3.3 3.6,5.5 0.3,1.2 0.2,2.5 -0.4,3.5 -0.6,0.9 -1.5,1.3 -1.9,1.5 C 51,46.6 48,43.6 46,41.5 c -0.6,-1.5 -1.1,-3.3 -1.5,-5 -0.4,0.1 -0.8,0.2 -1.2,0.3 -0.8,1.7 -2.1,4.2 -3.9,5.8 -0.6,0.5 -1.3,1 -2.1,1.2 -1.6,0.6 -3.5,0.2 -4.7,-0.9 0.2,-2.1 0.7,-4.1 1.2,-6.1 -1.7,-0.8 -2.4,-2.7 -1.7,-4.3 0.8,-2 2.9,-3.2 4.7,-3.6 0.9,-2 1.4,-3.8 2.4,-5.8 0.1,-0.2 0.6,-0.8 0.7,-0.9 3.5,-3.5 6.9,-6.6 10.7,-10 1.8,-1.6 4.4,-2.3 6.6,-2 1.7,0.2 3.9,0.7 6,0.9 2.1,0.2 4.1,0.5 6.2,0.7 2.7,0.3 5.2,0.4 7.7,0.6 z"
   id="path16"
   inkscape:connector-curvature="0"
   style="fill:#ffdd00" />
<g
   id="g26"
   transform="translate(-259.5,-343.5)">
	<path
   class="st0"
   d="m 294.9,380.9 c -0.5,1.6 -0.8,3.2 -1.1,4.8 1.6,1 3.3,-0.1 4.3,-1 1.2,-1.2 2,-2.6 2.8,-4 -1.8,0.2 -4.4,0.5 -6,0.2 z"
   id="path18"
   inkscape:connector-curvature="0"
   style="fill:#00713c" />
	<path
   class="st0"
   d="m 305.6,379.5 c 0.4,1.5 0.8,3 1.3,4.5 2.1,2.2 4.3,4.3 6.6,6.3 0.5,-0.5 0.6,-0.8 0.7,-1.4 0.1,-0.6 -0.1,-1.4 -0.4,-2 -0.7,-1.4 -1.9,-2.8 -3.1,-4 -0.5,-1.7 -0.8,-3.5 -1.2,-5.2 -0.7,0.4 -1.2,0.7 -1.9,1 -0.7,0.3 -1.3,0.6 -2,0.8 z"
   id="path20"
   inkscape:connector-curvature="0"
   style="fill:#00713c" />
	<path
   class="st0"
   d="m 311,377 c 0.9,1.3 2.7,3.9 4.7,5.4 0.3,0.3 1.7,0.8 2.2,0.9 1.8,0.4 3.6,0.5 5.5,0.6 0,-0.4 -0.1,-1 -0.5,-1.3 -1.8,-1.3 -3.7,-1.5 -5.8,-2 -0.7,-1.8 -1.6,-3.5 -2.3,-5.2 0,0 -0.5,0.1 -0.7,0.2 -0.6,0.2 -1.2,0.5 -1.8,0.8 -0.7,0.3 -1.1,0.5 -1.3,0.6 z"
   id="path22"
   inkscape:connector-curvature="0"
   style="fill:#00713c" />
	<path
   class="st0"
   d="m 316.4,375 c 2.2,0.8 4.6,1.6 6.9,1.7 -0.1,-0.3 -0.1,-0.5 -0.2,-0.7 -1.5,-0.3 -3.1,-0.8 -4.5,-1.5 -0.9,0.1 -2.2,0.4 -2.2,0.5 z"
   id="path24"
   inkscape:connector-curvature="0"
   style="fill:#00713c" />
</g>
<path
   class="st0"
   d="m 22.9,46.7 c -0.7,0.5 -1.3,1 -1.8,1.6 -0.1,0.1 -0.4,0.4 -0.4,0.4 0,0 1.4,0.7 2.1,1.2 1.1,-1 2.8,-1.9 3.5,-2.7 0.3,-0.3 0.5,-0.6 0.4,-1 -0.2,-0.6 -0.8,-0.6 -1.3,-0.6 -1,0 -1.8,0.5 -2.5,1.1 z"
   id="path28"
   inkscape:connector-curvature="0"
   style="fill:#00713c" />
<rect
   x="-2.0025971"
   y="12.900628"
   transform="rotate(-45)"
   class="st2"
   width="3.9999616"
   height="94.399094"
   id="rect30"
   style="fill:#e30613;stroke-width:0.9999904" />
</svg>