<?xml version="1.0" encoding="UTF-8" standalone="no"?>
<!-- Generator: Adobe Illustrator 27.6.1, SVG Export Plug-In . SVG Version: 6.00 Build 0)  -->

<svg
   xmlns:dc="http://purl.org/dc/elements/1.1/"
   xmlns:cc="http://creativecommons.org/ns#"
   xmlns:rdf="http://www.w3.org/1999/02/22-rdf-syntax-ns#"
   xmlns:svg="http://www.w3.org/2000/svg"
   xmlns="http://www.w3.org/2000/svg"
   xmlns:sodipodi="http://sodipodi.sourceforge.net/DTD/sodipodi-0.dtd"
   xmlns:inkscape="http://www.inkscape.org/namespaces/inkscape"
   version="1.1"
   id="Calque_1"
   x="0px"
   y="0px"
   viewBox="0 0 85 85"
   xml:space="preserve"
   sodipodi:docname="034.svg"
   width="85"
   height="85"
   inkscape:version="0.92.5 (2060ec1f9f, 2020-04-08)"><metadata
   id="metadata27"><rdf:RDF><cc:Work
       rdf:about=""><dc:format>image/svg+xml</dc:format><dc:type
         rdf:resource="http://purl.org/dc/dcmitype/StillImage" /></cc:Work></rdf:RDF></metadata><defs
   id="defs25" /><sodipodi:namedview
   pagecolor="#ffffff"
   bordercolor="#666666"
   borderopacity="1"
   objecttolerance="10"
   gridtolerance="10"
   guidetolerance="10"
   inkscape:pageopacity="0"
   inkscape:pageshadow="2"
   inkscape:window-width="882"
   inkscape:window-height="480"
   id="namedview23"
   showgrid="false"
   inkscape:zoom="0.2979798"
   inkscape:cx="46.5"
   inkscape:cy="32.5"
   inkscape:window-x="54"
   inkscape:window-y="27"
   inkscape:window-maximized="0"
   inkscape:current-layer="Calque_1" />
<style
   type="text/css"
   id="style2">
	.st0{fill:#00713C;}
	.st1{fill:#FFDD00;}
	.st2{fill:#E30613;}
</style>
<rect
   x="0"
   y="0"
   class="st0"
   width="85"
   height="85"
   id="rect4"
   style="fill:#00713c" />
<g
   id="g18"
   transform="translate(-259.5,-343.5)">
	<path
   class="st1"
   d="m 316.6,400.3 c 1.6,0.9 2.6,2.9 2.6,4.7 0,1.9 -1,3.9 -2.5,5 -13.4,0.1 -26.7,0.1 -40.1,0.1 -1.2,-0.7 -2,-2 -2.4,-3.3 -0.7,-2.3 0.4,-5.3 2.4,-6.3 13.3,-0.1 26.6,-0.2 40,-0.2 z"
   id="path6"
   inkscape:connector-curvature="0"
   style="fill:#ffdd00" />
	<path
   class="st1"
   d="m 318.2,400.3 c 0.6,0 1.7,0 1.7,0 1.8,1 2.8,3.4 2.6,5.5 -0.1,0.7 -0.4,1.5 -0.7,2.2 -0.5,0.8 -1.1,1.4 -1.8,2 -0.6,0 -1.1,0 -1.7,0 1.8,-1.3 2.9,-3.6 2.4,-5.9 -0.4,-1.7 -1.5,-3 -2.5,-3.8 z"
   id="path8"
   inkscape:connector-curvature="0"
   style="fill:#ffdd00" />
	<path
   class="st1"
   d="m 321.4,400.3 c 0.5,0 1.1,0 1.7,0 1.6,0.8 2.5,2.7 2.6,4.5 0.1,2 -0.9,4.1 -2.5,5.2 -0.6,0 -1.1,0 -1.7,0 1.1,-0.9 2,-2 2.3,-3.5 0.5,-2.2 -0.2,-4.3 -1.9,-5.7 -0.2,-0.2 -0.5,-0.4 -0.5,-0.5 z"
   id="path10"
   inkscape:connector-curvature="0"
   style="fill:#ffdd00" />
	<path
   class="st1"
   d="m 324.6,400.3 c 0.5,0 1.5,0 1.5,0 1.7,0.7 2.7,3 2.7,4.9 0,1.9 -0.7,3.4 -2.5,4.8 0,0 -1.2,0 -1.7,0 1.5,-1.1 2.4,-2.7 2.5,-4.4 0.3,-2.2 -0.8,-4.2 -2.5,-5.3 z"
   id="path12"
   inkscape:connector-curvature="0"
   style="fill:#ffdd00" />
	<path
   class="st1"
   d="m 309.6,358.2 c 0.4,-0.5 0.9,-0.7 1.5,-0.5 0.5,0.2 0.8,1 0.5,1.5 -1.6,2.2 -3.5,4.7 -4.6,7.5 -0.4,1 -0.7,1.9 -0.4,3 0.4,1.6 2.4,2.3 3.8,3 3.3,1.7 4.6,1.8 7.6,3.9 2.9,2.1 5.1,4.8 6.2,8 0.9,2.9 0.8,6.3 -0.2,9.5 -0.2,0.5 -1,0.6 -1.5,0.4 -0.4,-0.2 -0.6,-0.8 -0.5,-1.2 0.6,-2 0.8,-3.8 0.6,-5.9 -0.2,-2.5 -1.3,-4.6 -3,-6.5 -3.4,-3.8 -8.1,-4.9 -12.3,-7.3 -1.5,-0.9 -2.7,-2.3 -2.9,-4.1 -0.1,-1.5 0.8,-3.5 1.6,-5.3 0.6,-1.6 2.2,-4.1 3.6,-6 z"
   id="path14"
   inkscape:connector-curvature="0"
   style="fill:#ffdd00" />
	<path
   class="st1"
   d="m 327.5,355.8 c 0.4,-0.2 0.8,-0.2 1.2,0 0.6,0.4 0.7,1.5 0,1.9 -2.8,1.5 -5,2.9 -7.3,4.8 -1.5,1.2 -2.9,2.7 -4,4.5 -0.2,0.5 -0.3,0.9 -0.2,1.4 0.1,0.4 0.4,0.8 0.7,1 3.2,1.8 5.9,3.3 8.2,5.8 1.4,1.5 2.5,3.2 3.3,5 1.6,3.5 1.7,7.3 0.8,11.1 -0.6,2.5 -1.7,4.7 -3.2,6.6 -0.2,0.3 -0.7,0.3 -1.1,0.2 -0.7,-0.2 -1,-1.1 -0.5,-1.7 2.3,-3.1 3.2,-6.6 3.2,-10.4 0,-1.9 -0.7,-4 -1.7,-5.9 -2.3,-4.1 -6.6,-6.9 -9.9,-8.6 -2,-1 -2.7,-3.9 -1.4,-5.6 3.3,-4.5 7.5,-7.7 11.9,-10.1 z"
   id="path16"
   inkscape:connector-curvature="0"
   style="fill:#ffdd00" />
</g>
<rect
   x="-2.0028799"
   y="12.900769"
   transform="rotate(-45)"
   class="st2"
   width="3.9999616"
   height="94.399094"
   id="rect20"
   style="fill:#e30613;stroke-width:0.9999904" />
</svg>