<?xml version="1.0" encoding="UTF-8" standalone="no"?>
<!-- Generator: Adobe Illustrator 27.6.1, SVG Export Plug-In . SVG Version: 6.00 Build 0)  -->

<svg
   xmlns:dc="http://purl.org/dc/elements/1.1/"
   xmlns:cc="http://creativecommons.org/ns#"
   xmlns:rdf="http://www.w3.org/1999/02/22-rdf-syntax-ns#"
   xmlns:svg="http://www.w3.org/2000/svg"
   xmlns="http://www.w3.org/2000/svg"
   xmlns:sodipodi="http://sodipodi.sourceforge.net/DTD/sodipodi-0.dtd"
   xmlns:inkscape="http://www.inkscape.org/namespaces/inkscape"
   version="1.1"
   id="Calque_1"
   x="0px"
   y="0px"
   viewBox="0 0 85 85"
   xml:space="preserve"
   sodipodi:docname="041.svg"
   width="85"
   height="85"
   inkscape:version="0.92.5 (2060ec1f9f, 2020-04-08)"><metadata
   id="metadata17"><rdf:RDF><cc:Work
       rdf:about=""><dc:format>image/svg+xml</dc:format><dc:type
         rdf:resource="http://purl.org/dc/dcmitype/StillImage" /><dc:title></dc:title></cc:Work></rdf:RDF></metadata><defs
   id="defs15" /><sodipodi:namedview
   pagecolor="#ffffff"
   bordercolor="#666666"
   borderopacity="1"
   objecttolerance="10"
   gridtolerance="10"
   guidetolerance="10"
   inkscape:pageopacity="0"
   inkscape:pageshadow="2"
   inkscape:window-width="1680"
   inkscape:window-height="1013"
   id="namedview13"
   showgrid="false"
   inkscape:zoom="0.2979798"
   inkscape:cx="46.5"
   inkscape:cy="32.5"
   inkscape:window-x="1920"
   inkscape:window-y="0"
   inkscape:window-maximized="1"
   inkscape:current-layer="Calque_1" />
<style
   type="text/css"
   id="style2">
	.st0{fill:#00713C;}
	.st1{fill:#FFDD00;}
	.st2{fill:#E30613;}
</style>
<rect
   x="0"
   y="0"
   class="st0"
   width="85"
   height="85"
   id="rect4"
   style="fill:#00713c" />
<path
   class="st1"
   d="m 15.1,62.4 c 0.9,0 1.8,0 2.7,0 3,-5.5 5.9,-11 8.9,-16.7 4.9,-9.1 9.5,-17.8 14.4,-26.8 -0.7,-1.2 -1.2,-2.4 -1.9,-3.7 -1.1,-2 1.7,-3.4 2.8,-1.8 0.3,0.4 0.5,0.9 1,1.9 0.6,-1 0.8,-1.4 1,-1.8 1,-1.7 3.9,-0.3 2.9,1.6 -0.8,1.6 -2,3.8 -2,3.8 C 47,23 60,48 67.5,62.5 c 1.1,0 2.2,0 2.7,0 2.5,0 2.6,4.1 -0.1,4.1 -4,0 -52.7,-0.1 -54.9,-0.1 -2.7,-0.1 -2.7,-4.1 -0.1,-4.1 z"
   id="path6"
   inkscape:connector-curvature="0"
   style="fill:#ffdd00" />
<polygon
   class="st0"
   points="310,405.9 302.2,388.8 294.2,405.9 "
   id="polygon8"
   style="fill:#00713c"
   transform="translate(-259.5,-343.5)" />
<rect
   x="-2.0028799"
   y="12.900769"
   transform="rotate(-45)"
   class="st2"
   width="3.9999616"
   height="94.399094"
   id="rect10"
   style="fill:#e30613;stroke-width:0.9999904" />
</svg>