<?xml version="1.0" encoding="UTF-8" standalone="no"?>
<!-- Generator: Adobe Illustrator 27.6.1, SVG Export Plug-In . SVG Version: 6.00 Build 0)  -->

<svg
   xmlns:dc="http://purl.org/dc/elements/1.1/"
   xmlns:cc="http://creativecommons.org/ns#"
   xmlns:rdf="http://www.w3.org/1999/02/22-rdf-syntax-ns#"
   xmlns:svg="http://www.w3.org/2000/svg"
   xmlns="http://www.w3.org/2000/svg"
   xmlns:sodipodi="http://sodipodi.sourceforge.net/DTD/sodipodi-0.dtd"
   xmlns:inkscape="http://www.inkscape.org/namespaces/inkscape"
   version="1.1"
   id="Calque_1"
   x="0px"
   y="0px"
   viewBox="0 0 85 85"
   xml:space="preserve"
   sodipodi:docname="042.svg"
   width="85"
   height="85"
   inkscape:version="0.92.5 (2060ec1f9f, 2020-04-08)"><metadata
   id="metadata33"><rdf:RDF><cc:Work
       rdf:about=""><dc:format>image/svg+xml</dc:format><dc:type
         rdf:resource="http://purl.org/dc/dcmitype/StillImage" /></cc:Work></rdf:RDF></metadata><defs
   id="defs31" /><sodipodi:namedview
   pagecolor="#ffffff"
   bordercolor="#666666"
   borderopacity="1"
   objecttolerance="10"
   gridtolerance="10"
   guidetolerance="10"
   inkscape:pageopacity="0"
   inkscape:pageshadow="2"
   inkscape:window-width="882"
   inkscape:window-height="480"
   id="namedview29"
   showgrid="false"
   inkscape:zoom="0.38562092"
   inkscape:cx="46.5"
   inkscape:cy="32.5"
   inkscape:window-x="54"
   inkscape:window-y="27"
   inkscape:window-maximized="0"
   inkscape:current-layer="Calque_1" />
<style
   type="text/css"
   id="style2">
	.st0{fill:#00713C;}
	.st1{fill:#FFDD00;}
	.st2{fill:#E30613;}
</style>
<rect
   x="0"
   y="0"
   class="st0"
   width="85"
   height="85"
   id="rect4"
   style="fill:#00713c" />
<path
   class="st1"
   d="m 28,12.6 c 0.9,-1.1 2,-2 3.3,-2.6 1.1,-0.5 1.9,-0.8 3.5,-1.2 2.9,-0.7 5.7,-0.9 8.7,-0.9 3.8,0 7.6,0.4 11.1,2.1 2.1,1 3.8,3 4.8,5.2 0.7,1.6 0.6,4.2 0,5.6 -0.5,1.3 -0.5,2.8 -0.4,3.6 0.2,2 0.9,4.2 1.3,6.5 0.6,3 -0.3,7.4 -2.5,10.5 -0.4,0.5 -0.5,1.9 -0.4,2.5 0.4,1.3 1,4.4 1,6.7 -0.1,2.3 -1,4.3 -2.2,6.4 -0.7,1.2 -0.8,2.9 -0.6,4 0.2,1 0.6,1.9 0.7,2.9 0.1,1.4 0.2,2.7 0,4.2 -0.4,2.5 -1.2,5 -3,6.7 -0.7,0.7 -1.9,1.3 -2.5,1.5 -4.7,1.3 -9.3,1.3 -14.2,0.4 -1.3,-0.3 -2.6,-1 -3.6,-1.9 -0.8,-0.7 -1.4,-1.6 -1.8,-2.6 -0.8,-1.6 -1,-3.4 -1.1,-5.2 0,-0.8 0.1,-1.7 0.1,-2.5 0,-0.6 0.6,-2.1 0.6,-3.2 0,-1 -0.1,-2 -0.4,-3 -0.4,-1.1 -1.2,-2 -1.7,-3.1 -0.4,-0.9 -0.7,-1.8 -0.9,-2.7 -0.1,-0.6 -0.2,-1.1 -0.2,-1.7 -0.2,-2.5 0.3,-4.9 1.2,-7.2 0.6,-2.9 0,-5.6 -1.6,-8.3 -1,-1.7 -1,-5.7 -0.1,-8.2 0.1,-0.2 0.2,-1 0.1,-1.3 C 27,25 26.7,24.3 26.4,23.6 26.2,22.8 26,22 25.8,21.1 c -0.3,-2 -0.2,-3.9 0.4,-5.7 0.5,-1.1 1,-2 1.8,-2.8 z"
   id="path6"
   inkscape:connector-curvature="0"
   style="fill:#ffdd00" />
<g
   id="g18"
   transform="translate(-259.5,-343.5)">
	<path
   class="st0"
   d="m 302.6,387.8 c -0.5,0 -0.7,0.2 -0.7,0.6 -0.1,2 0,11.7 0,13.2 0,1.1 1.4,0.9 1.4,0.1 0,-0.2 0,-8.2 0,-12.2 0.4,0.4 0.4,1.2 0.7,1.7 0.7,0 1.2,-0.4 1.7,-0.7 1.5,-1 2.7,-2.2 3.7,-3.5 1.6,0 2.9,0 4.5,0 0.8,0 0.8,-1.3 0,-1.4 -1.1,0 -2.2,0 -3.4,0 0.3,-0.5 0.8,-1.1 1.2,-1.6 0.4,-0.4 0.9,-0.6 1.4,-0.7 1,-0.1 1.5,0.2 2.2,0.6 0.3,0.2 0.8,-0.1 1.1,-0.4 0.8,-1.2 1.3,-2.4 1.7,-3.9 0.5,-2 0.6,-4.1 0.1,-6.1 -0.4,-1.6 -0.9,-3 -1.1,-4.6 -0.2,-1.3 -0.2,-2.6 0.1,-3.8 0.2,-1 0.6,-2.1 0.7,-3 0,-0.4 0.1,-0.7 0,-1.1 0,-0.4 -0.1,-0.7 -0.3,-1.1 -0.1,-0.5 -0.3,-1 -0.5,-1.5 -1,-1.8 -2.4,-3.2 -4.3,-3.9 -3,-1.1 -6.1,-1.4 -9.2,-1.6 -2.2,0 -4.3,0 -6.5,0.4 -1.7,0.2 -3.2,0.7 -4.8,1.3 -1.8,0.7 -3.2,2 -4.2,3.7 -0.6,1.1 -1,2.1 -1.1,3.4 -0.1,1.4 0.1,2.7 0.4,4.1 0.8,3.5 2.5,6.2 5,8.4 2.5,2.2 4.7,4.1 6.6,6.9 0.9,1.3 1.5,2.4 2.2,3.7 0.4,1 0.9,1.9 1.4,3 z"
   id="path8"
   inkscape:connector-curvature="0"
   style="fill:#00713c" />
	<path
   class="st0"
   d="m 291,385.8 c -0.8,0 -0.9,1.3 0.1,1.3 2.9,0 5.7,0 8.5,-0.1 0.8,0 0.9,-1.3 0,-1.3 -3.1,0 -5.7,0 -8.6,0.1 z"
   id="path10"
   inkscape:connector-curvature="0"
   style="fill:#00713c" />
	<path
   class="st0"
   d="m 292.9,403 c -0.9,0 -0.9,1.3 0,1.3 3,0 4.3,0 7.1,0 0.8,0 1.1,-1.3 0,-1.3 -3.1,-0.1 -4.2,0 -7.1,0 z"
   id="path12"
   inkscape:connector-curvature="0"
   style="fill:#00713c" />
	<path
   class="st0"
   d="m 305.1,402.9 c -0.9,0 -0.9,1.3 0,1.3 3,0 4.3,0 7.1,0 0.9,0 0.8,-1.3 0,-1.3 -3.1,0 -4.2,0 -7.1,0 z"
   id="path14"
   inkscape:connector-curvature="0"
   style="fill:#00713c" />
	<path
   class="st0"
   d="m 301.9,418 c 0,0.8 1.4,0.8 1.4,0.1 0.1,-3 0,-9.1 -0.1,-11.9 0,-0.9 -1.3,-0.9 -1.3,0 0,3.1 0,8.9 0,11.8 z"
   id="path16"
   inkscape:connector-curvature="0"
   style="fill:#00713c" />
</g>
<g
   id="g24"
   transform="translate(-259.5,-343.5)">
	<path
   class="st1"
   d="m 302.3,365.5 c 2.8,0 5,-2.2 5,-5 0,-2.8 -2.2,-5 -5,-5 -2.8,0 -5,2.2 -5,5 0,2.7 2.2,5 5,5 z"
   id="path20"
   inkscape:connector-curvature="0"
   style="fill:#ffdd00" />
	<path
   class="st1"
   d="m 291.4,370 c 0.4,-0.8 1.3,-1.5 1.8,-1.7 1.8,-0.8 3.6,-1.1 5.6,-1.3 4.1,-0.5 8.1,-0.2 12,1.1 1.7,0.5 2.9,2.2 2.9,4 0,3.3 0,9.4 0,9.4 -0.9,-1 -2.4,-2.2 -3.8,-3.2 0,-1.3 0,-2.5 0,-3.9 0,-1 -1.4,-0.8 -1.4,-0.1 0,0.6 0,1.8 0,2.8 -0.7,-0.4 -1.9,-1.2 -2.8,-1.7 -1.2,-0.6 -2.3,-0.9 -3.6,-1.3 -1.8,-0.5 -3.5,-0.9 -5.2,-1.5 -0.8,-0.2 -1.7,-0.5 -2.5,-0.8 -1,-0.4 -2.1,-0.8 -2.9,-1.4 -0.1,-0.1 -0.1,-0.3 -0.1,-0.4 z"
   id="path22"
   inkscape:connector-curvature="0"
   style="fill:#ffdd00" />
</g>
<rect
   x="-2.0028799"
   y="12.900769"
   transform="rotate(-45)"
   class="st2"
   width="3.9999616"
   height="94.399094"
   id="rect26"
   style="fill:#e30613;stroke-width:0.9999904" />
</svg>