<?xml version="1.0" encoding="UTF-8" standalone="no"?>
<!-- Generator: Adobe Illustrator 27.6.1, SVG Export Plug-In . SVG Version: 6.00 Build 0)  -->

<svg
   xmlns:dc="http://purl.org/dc/elements/1.1/"
   xmlns:cc="http://creativecommons.org/ns#"
   xmlns:rdf="http://www.w3.org/1999/02/22-rdf-syntax-ns#"
   xmlns:svg="http://www.w3.org/2000/svg"
   xmlns="http://www.w3.org/2000/svg"
   xmlns:sodipodi="http://sodipodi.sourceforge.net/DTD/sodipodi-0.dtd"
   xmlns:inkscape="http://www.inkscape.org/namespaces/inkscape"
   version="1.1"
   id="Calque_1"
   x="0px"
   y="0px"
   viewBox="0 0 85 85"
   xml:space="preserve"
   sodipodi:docname="043.svg"
   width="85"
   height="85"
   inkscape:version="0.92.5 (2060ec1f9f, 2020-04-08)"><metadata
   id="metadata25"><rdf:RDF><cc:Work
       rdf:about=""><dc:format>image/svg+xml</dc:format><dc:type
         rdf:resource="http://purl.org/dc/dcmitype/StillImage" /></cc:Work></rdf:RDF></metadata><defs
   id="defs23" /><sodipodi:namedview
   pagecolor="#ffffff"
   bordercolor="#666666"
   borderopacity="1"
   objecttolerance="10"
   gridtolerance="10"
   guidetolerance="10"
   inkscape:pageopacity="0"
   inkscape:pageshadow="2"
   inkscape:window-width="882"
   inkscape:window-height="480"
   id="namedview21"
   showgrid="false"
   inkscape:zoom="0.2979798"
   inkscape:cx="46.5"
   inkscape:cy="32.5"
   inkscape:window-x="54"
   inkscape:window-y="27"
   inkscape:window-maximized="0"
   inkscape:current-layer="Calque_1" />
<style
   type="text/css"
   id="style2">
	.st0{fill:#00713C;}
	.st1{fill:#FFDD00;}
	.st2{fill:#E30613;}
</style>
<rect
   x="0"
   y="0"
   class="st0"
   width="85"
   height="85"
   id="rect4"
   style="fill:#00713c" />
<path
   class="st1"
   d="m 14.1,29.7 c 8.3,0 16.7,0 25.1,-0.1 0.6,0 1.1,-0.4 1.5,-0.8 1.5,-1.5 3,-2.7 4.6,-4.1 0.3,-0.3 0.9,-0.4 1.3,-0.4 4.4,0 8.5,0 12.9,-0.1 0.5,0 0.9,0 1.3,0.1 0.2,0.1 0.5,0.2 0.7,0.4 1.6,1.4 2.9,2.7 4.4,4.2 0.5,0.5 0.4,1.3 0,1.8 -1.2,1.2 -2.2,2.3 -3.3,3.6 -0.4,0.4 -0.4,1.3 0,1.6 2.6,2.5 4.9,4.8 7.5,7.2 1.2,0.6 2.4,1.1 3.7,1.7 0.3,0.2 0.6,0.7 0.6,1.1 0,1.9 0.1,3.2 0,5.2 0,0.8 -0.7,1.3 -1.3,1.3 -1,0 -1.5,0.1 -1.8,-0.5 C 70.9,50.3 70,49 68.6,48.1 66.9,47 64.9,46.8 63,47.4 c -2.6,0.9 -4.3,3.2 -4.5,5.8 0,0.2 -0.2,0.6 -0.6,0.6 -6.9,0 -14.8,0 -20.5,0 -0.2,0 -0.5,-0.2 -0.5,-0.4 -0.1,-1.6 -0.7,-2.9 -1.7,-4.1 -1.6,-1.8 -4.1,-2.5 -6.5,-1.8 -2.7,0.8 -4.6,3.2 -4.8,5.9 0,0.3 -0.2,0.5 -0.5,0.5 -3,0 -5.9,0 -8.9,0 -0.7,0 -1.3,-0.6 -1.3,-1.3 -0.1,-2.5 0,-4.3 0,-6.8 0,-4.9 0,-9.7 0,-14.6 -0.4,-0.8 0.1,-1.5 0.9,-1.5 z"
   id="path6"
   inkscape:connector-curvature="0"
   style="fill:#ffdd00" />
<path
   class="st1"
   d="m 64.7,59.1 c 3,0 5.4,-2.4 5.4,-5.4 0,-3 -2.4,-5.4 -5.4,-5.4 -3,0 -5.4,2.4 -5.4,5.4 0.1,3 2.5,5.4 5.4,5.4 z"
   id="path8"
   inkscape:connector-curvature="0"
   style="fill:#ffdd00" />
<path
   class="st1"
   d="m 30.1,59.2 c 3,0 5.4,-2.4 5.4,-5.4 0,-3 -2.4,-5.4 -5.4,-5.4 -3,0 -5.4,2.4 -5.4,5.4 0,3 2.4,5.4 5.4,5.4 z"
   id="path10"
   inkscape:connector-curvature="0"
   style="fill:#ffdd00" />
<path
   class="st0"
   d="m 52.8,37.7 c 0,1.5 -0.1,2.6 0,4.1 0,0.5 0.6,1.2 1.2,1.2 3.3,-0.1 6.1,0 9.4,0 1.1,0 1.6,-1.3 1.1,-2 -1.3,-1.7 -2.4,-2.7 -4,-4.1 -0.2,-0.2 -0.9,-0.4 -1.2,-0.4 -1.9,0 -3.2,0 -5.1,0 -0.8,-0.1 -1.4,0.5 -1.4,1.2 z"
   id="path12"
   inkscape:connector-curvature="0"
   style="fill:#00713c" />
<path
   class="st0"
   d="m 36.8,48.4 c 0,0.8 0.6,2.1 1.5,2.8 1.1,0.9 3.4,1 4.7,0.2 0.9,-0.6 1.7,-1.9 1.7,-2.9 0.1,-4.6 0,-8.6 0,-13.2 -0.2,-1.7 -1.3,-3.3 -3.1,-3.6 -1.2,-0.2 -2.5,0.1 -3.4,0.9 -0.7,0.6 -1.3,1.9 -1.3,2.7 -0.1,4.5 -0.1,8.6 -0.1,13.1 z"
   id="path14"
   inkscape:connector-curvature="0"
   style="fill:#00713c" />
<path
   class="st1"
   d="m 38.1,35.7 c 0,-3.9 5.4,-3.8 5.4,0 0,3 0,10.6 0,12.2 -0.1,3.7 -5.4,3.7 -5.4,0 0,-1 0,-8.8 0,-12.2 z"
   id="path16"
   inkscape:connector-curvature="0"
   style="fill:#ffdd00" />
<rect
   x="-2.0028799"
   y="12.900769"
   transform="rotate(-45)"
   class="st2"
   width="3.9999616"
   height="94.399094"
   id="rect18"
   style="fill:#e30613;stroke-width:0.9999904" />
</svg>