<?xml version="1.0" encoding="UTF-8" standalone="no"?>
<!-- Generator: Adobe Illustrator 27.6.1, SVG Export Plug-In . SVG Version: 6.00 Build 0)  -->

<svg
   xmlns:dc="http://purl.org/dc/elements/1.1/"
   xmlns:cc="http://creativecommons.org/ns#"
   xmlns:rdf="http://www.w3.org/1999/02/22-rdf-syntax-ns#"
   xmlns:svg="http://www.w3.org/2000/svg"
   xmlns="http://www.w3.org/2000/svg"
   xmlns:sodipodi="http://sodipodi.sourceforge.net/DTD/sodipodi-0.dtd"
   xmlns:inkscape="http://www.inkscape.org/namespaces/inkscape"
   version="1.1"
   id="Calque_1"
   x="0px"
   y="0px"
   viewBox="0 0 85 85"
   xml:space="preserve"
   sodipodi:docname="054.svg"
   width="85"
   height="85"
   inkscape:version="0.92.5 (2060ec1f9f, 2020-04-08)"><metadata
   id="metadata17"><rdf:RDF><cc:Work
       rdf:about=""><dc:format>image/svg+xml</dc:format><dc:type
         rdf:resource="http://purl.org/dc/dcmitype/StillImage" /></cc:Work></rdf:RDF></metadata><defs
   id="defs15" /><sodipodi:namedview
   pagecolor="#ffffff"
   bordercolor="#666666"
   borderopacity="1"
   objecttolerance="10"
   gridtolerance="10"
   guidetolerance="10"
   inkscape:pageopacity="0"
   inkscape:pageshadow="2"
   inkscape:window-width="882"
   inkscape:window-height="480"
   id="namedview13"
   showgrid="false"
   inkscape:zoom="0.2979798"
   inkscape:cx="46.5"
   inkscape:cy="32.5"
   inkscape:window-x="54"
   inkscape:window-y="27"
   inkscape:window-maximized="0"
   inkscape:current-layer="Calque_1" />
<style
   type="text/css"
   id="style2">
	.st0{fill:#00713C;}
	.st1{fill:#FFDD00;}
	.st2{fill:#E30613;}
</style>
<rect
   x="0"
   y="0"
   class="st0"
   width="85"
   height="85"
   id="rect4"
   style="fill:#00713c" />
<path
   class="st1"
   d="m 38.2,12.4 c 0.9,-1.1 2.2,-1.8 3.7,-1.9 2.2,-0.1 4.3,1.1 5.2,3 0.6,1.3 0.7,2.7 0.3,4 -0.5,1.5 -1.8,2.6 -3.3,3 0.1,2.9 0.3,5.8 0.4,8.7 3.9,0.1 7.8,-0.1 11,0 2.1,0.1 2,2.8 0,2.9 -3.1,0 -7.1,0 -10.9,0 0.1,3.8 0.3,7.7 0.6,11.5 0.4,7.4 0.8,14.7 1.2,22.1 0.8,1.4 2.4,1.2 3.7,0.9 1.7,-0.5 3.2,-1.4 4.8,-2.4 4.1,-2.7 6.9,-6.3 8.8,-10.6 -1.4,0 -2.8,0 -4.2,0 3.1,-3.2 6.3,-6.4 9.5,-9.6 0.6,8.7 -3.3,17.4 -10.5,22.9 -2.5,1.9 -6.4,3.8 -8.1,4.2 -1,0.2 -3.9,0.7 -5.7,1.3 -0.7,0.2 -1.1,0.6 -1.4,1.3 -0.2,0.3 -0.1,0.5 -0.3,1 -0.1,0.4 -1,0.5 -1.2,0 C 41.6,74.2 41.6,74 41.5,73.7 41.3,73.2 40.6,72.6 40,72.5 38.2,72 36.2,71.6 34.2,71.1 34,71 33.6,70.9 33.4,70.8 26.8,68.5 21.6,63.8 18.3,57.3 c -2,-4.1 -3,-8.7 -2.7,-13.2 0,0 6.5,6.5 9.6,9.6 -1.3,0 -2.8,0 -4.1,0 2.5,5.8 7.1,10.5 13,12.8 1.1,0.4 2.4,0.4 3.3,0.1 0.3,-0.1 0.9,-0.7 0.9,-1.2 0.6,-11.1 1.1,-22 1.7,-33.2 0,0 -7.3,0 -10.9,0 -2,0 -1.9,-2.9 0,-2.9 3.9,0 7.2,0.1 11,0 0,0 0.3,-5.9 0.4,-8.8 -2.1,-0.5 -3.3,-2.2 -3.4,-4.2 -0.2,-1.7 0.2,-2.9 1.1,-3.9 z"
   id="path6"
   inkscape:connector-curvature="0"
   style="fill:#ffdd00" />
<path
   class="st0"
   d="m 42.3,17.6 c 0.9,0 1.7,-0.8 1.7,-1.7 0,-0.9 -0.8,-1.7 -1.7,-1.7 -0.9,0 -1.7,0.8 -1.7,1.7 0,0.9 0.7,1.7 1.7,1.7 z"
   id="path8"
   inkscape:connector-curvature="0"
   style="fill:#00713c" />
<rect
   x="-2.0025971"
   y="12.900628"
   transform="rotate(-45)"
   class="st2"
   width="3.9999616"
   height="94.399094"
   id="rect10"
   style="fill:#e30613;stroke-width:0.9999904" />
</svg>