<?xml version="1.0" encoding="UTF-8" standalone="no"?>
<!-- Generator: Adobe Illustrator 27.6.1, SVG Export Plug-In . SVG Version: 6.00 Build 0)  -->

<svg
   xmlns:dc="http://purl.org/dc/elements/1.1/"
   xmlns:cc="http://creativecommons.org/ns#"
   xmlns:rdf="http://www.w3.org/1999/02/22-rdf-syntax-ns#"
   xmlns:svg="http://www.w3.org/2000/svg"
   xmlns="http://www.w3.org/2000/svg"
   xmlns:sodipodi="http://sodipodi.sourceforge.net/DTD/sodipodi-0.dtd"
   xmlns:inkscape="http://www.inkscape.org/namespaces/inkscape"
   version="1.1"
   id="Calque_1"
   x="0px"
   y="0px"
   viewBox="0 0 85 85"
   xml:space="preserve"
   sodipodi:docname="055.svg"
   width="85"
   height="85"
   inkscape:version="0.92.5 (2060ec1f9f, 2020-04-08)"><metadata
   id="metadata17"><rdf:RDF><cc:Work
       rdf:about=""><dc:format>image/svg+xml</dc:format><dc:type
         rdf:resource="http://purl.org/dc/dcmitype/StillImage" /></cc:Work></rdf:RDF></metadata><defs
   id="defs15" /><sodipodi:namedview
   pagecolor="#ffffff"
   bordercolor="#666666"
   borderopacity="1"
   objecttolerance="10"
   gridtolerance="10"
   guidetolerance="10"
   inkscape:pageopacity="0"
   inkscape:pageshadow="2"
   inkscape:window-width="882"
   inkscape:window-height="480"
   id="namedview13"
   showgrid="false"
   inkscape:zoom="0.2979798"
   inkscape:cx="46.5"
   inkscape:cy="32.5"
   inkscape:window-x="54"
   inkscape:window-y="27"
   inkscape:window-maximized="0"
   inkscape:current-layer="Calque_1" />
<style
   type="text/css"
   id="style2">
	.st0{fill:#00713C;}
	.st1{fill:#FFDD00;}
	.st2{fill:#E30613;}
</style>
<rect
   x="0"
   y="0"
   class="st0"
   width="85"
   height="85"
   id="rect4"
   style="fill:#00713c" />
<path
   class="st1"
   d="m 57.2,24.2 c 3,-1.7 6.2,-2.6 9.6,-2.8 2.1,-0.1 5.1,0.1 6.5,0.7 0.4,0.1 0.7,0.1 1,0.2 0.3,0 0.4,0.4 0.3,0.6 -0.3,0.4 -0.7,0.7 -1.2,0.9 -0.2,0.1 -0.3,0.3 -0.3,0.4 0,2.2 0.2,3.8 -0.7,5.5 -0.1,0.2 -0.2,0.5 -0.2,0.8 -0.1,1.4 -0.2,2.8 -0.6,4.2 -0.2,0.6 -0.4,1.2 -0.9,1.6 -0.8,0.8 -2,0.9 -2.7,0.1 -0.8,0.2 -1.8,0.4 -2.6,0.4 -1.2,0 -2.4,-0.1 -3.7,-0.5 v 0 c -0.2,0.7 -0.6,2.1 -0.6,2.3 0.2,1.6 0.2,2 -0.4,3.4 -0.1,0.2 0,0.4 0.2,0.5 1,0.5 2,0.8 3,1.2 1,0.3 2.1,0.5 2.6,0.7 0.3,0.1 0.6,0.4 0.6,0.9 -0.3,3.7 -0.4,7.2 -0.5,11.1 0,0.7 -0.8,0.8 -0.9,1.3 -0.1,0.5 0.2,0.8 0,1.4 -0.2,0.6 -0.6,1.4 -1.1,2 -0.1,0.1 -0.4,0.2 -0.5,0.1 -0.7,-0.9 -1.3,-1.8 -2,-2.8 0,-0.1 -0.1,-0.2 0,-0.3 0.3,-0.5 0.7,-0.7 1.4,-0.8 0.4,-0.1 0.8,-0.6 0.7,-1.2 0,-0.1 -0.1,-0.3 -0.1,-0.6 0.1,-0.4 0.5,-0.4 0.4,-0.6 -0.1,-2.6 -0.1,-5.1 -0.2,-7.7 0,-0.2 -0.1,-0.3 -0.4,-0.3 -2.8,-0.6 -4.6,-0.9 -7,-1 -0.8,2.4 -1.4,3.9 -2,5.9 -0.9,3.1 -1.3,6.1 -2.3,9.2 -0.1,0.2 0.2,0.3 0.3,0.4 0.1,0.2 0.2,0.4 0.2,0.7 0.1,0.2 0.2,0.4 0.4,0.4 0.8,-0.1 1.2,0.2 1.6,0.8 0.4,0.6 0.6,1 0.6,1.6 0,0.1 -0.1,0.2 -0.2,0.2 -1.2,0 -2.3,0 -3.4,0 -0.1,0 -0.2,-0.1 -0.2,-0.3 -0.1,-0.7 0.1,-1.3 -0.2,-2 -0.2,-0.5 -0.6,-0.6 -1.2,-0.6 -0.2,0 -0.3,-0.2 -0.2,-0.4 0.4,-1.7 0.6,-3.2 0.8,-5 0.1,-1 0.2,-2 0.3,-3 0.1,-1.2 0.3,-2.5 0.5,-3.7 0.1,-1.2 0.3,-2.3 0.2,-3.4 0,-0.3 -0.3,-0.5 -0.5,-0.5 -1.3,0.1 -2.5,0.4 -3.9,0.4 -0.9,0 -1.8,0.1 -2.7,0 -3.3,-0.2 -5.6,-0.9 -8.4,-2.1 -0.5,-0.2 -1.3,-0.3 -1.8,0 -0.4,0.2 -0.5,0.5 -0.6,1 -0.2,1.5 -0.2,2.2 -0.4,3.6 -0.1,1.4 -0.3,2.6 -0.3,4 0,0.2 0.1,0.5 0.2,0.6 1.2,2 2.4,3.7 3.7,5.6 0.4,0.6 1,1.1 1.6,1.4 0.6,0.3 0.3,0.8 0.4,1.2 0.1,0.3 0.6,0.3 1,0.4 1,0.2 1.3,1.5 1.7,2.3 0.1,0.2 -0.1,0.5 -0.2,0.5 -1.2,0 -2.4,0 -3.6,0 -0.2,0 -0.3,-0.1 -0.3,-0.2 -0.1,-0.5 -0.1,-1.1 0,-1.4 0,-0.1 0,-0.2 0,-0.4 -0.1,-0.5 -0.4,-0.7 -0.6,-0.7 -0.3,0 -0.5,0.2 -0.7,0.2 -0.2,0 -0.3,-0.1 -0.4,-0.3 -1.5,-3.5 -3.6,-6.2 -6.2,-9.2 -0.2,-0.2 -0.2,-0.4 -0.3,-0.6 -0.5,-2 -0.7,-3.9 -1,-5.8 -1.1,0.6 -2.1,1 -3.3,1.3 -1,0.3 -2.1,0.9 -3,1.7 -1.3,1.2 -2.1,2.9 -3.1,4.5 -0.8,1.4 -1.2,2.4 -2.3,4.1 -0.3,0.4 -0.7,1 -0.6,1.2 0.1,0.7 0,0.9 -0.4,1.4 -0.1,0.1 0.1,0.4 0.2,0.6 0.4,0.3 1.1,0.4 1.5,0.9 0.4,0.5 0.6,1 0.8,1.6 0.1,0.3 -0.1,0.5 -0.4,0.5 -1.5,0 -2.5,0 -3.9,0 -0.2,0 -0.4,-0.2 -0.4,-0.4 0,-0.6 0,-0.9 0,-1.6 0.3,-0.4 0.5,-1.1 0.2,-1.4 -0.5,-0.6 -0.5,-1.1 -0.2,-1.7 1.7,-2.7 3.1,-5.2 4,-8.2 0,-0.2 0.1,-0.5 0.1,-0.7 0.1,-0.5 0,-0.8 0,-0.9 -0.1,-0.5 0,-0.8 0.6,-1.2 0.2,-0.1 0.4,-0.3 0.7,-0.8 0.4,-0.7 0.6,-1.4 0.6,-2.1 0.1,-1 0,-1.9 -0.2,-2.9 -0.1,-1 -0.6,-2.2 -0.6,-2.9 0,-2.4 1.5,-4.5 2.8,-6.5 -0.5,-0.4 -1.2,-0.4 -1.9,-0.3 -1,0.2 -1.6,0.9 -2,1.8 -0.9,2.1 -0.3,4.4 -0.4,6.7 -0.1,2.6 -1.1,5.1 -2.5,7.4 -0.7,1.2 -1.7,2.3 -2.7,3 -0.6,0.5 -1.5,0.9 -2.2,0.8 C 9.8,52.5 9.8,52 10,51.7 c 1,-1.6 2,-3 2.4,-4.9 0.3,-1.2 0.5,-2.4 0.6,-3.6 0,-1.4 -0.1,-2.7 0.1,-4.1 0.3,-2.9 1.6,-5.7 4.2,-7.3 1.8,-1.1 4.1,-1.2 5.4,0.3 1.5,-1.1 2.7,-1.8 4.4,-2.2 3.2,-0.7 6.4,-0.1 9.3,0.7 -0.2,-0.4 -0.3,-0.6 -0.3,-0.9 0,-1 1,-1.7 2.5,-0.9 1.5,0.8 3.3,1.3 5.3,1.5 1.8,0.2 3.2,0 4.8,-0.6 0.6,-0.2 0.9,0 0.9,0.6 0,0.1 0.1,0.1 0.2,0 2.4,-2.6 4.6,-4.5 7.4,-6.1 z"
   id="path6"
   inkscape:connector-curvature="0"
   style="fill:#ffdd00" />
<path
   class="st0"
   d="m 61.9,35.4 c 1.6,0.5 3.9,0.6 5.7,0.2 -0.1,-0.5 -0.1,-0.8 -0.1,-1 -0.3,-0.5 -0.5,-1.4 -0.9,-1.7 -0.2,-0.1 -0.3,0 -0.8,-0.6 -0.4,-0.4 -0.5,-1.2 -1,-2 -0.2,-0.3 -0.7,-0.4 -0.9,-0.1 -0.8,1.3 -1.6,3.5 -2,5.2 z"
   id="path8"
   inkscape:connector-curvature="0"
   style="fill:#00713c" />
<rect
   x="-2.0028799"
   y="17.600737"
   transform="rotate(-45)"
   class="st2"
   width="3.9999616"
   height="84.999184"
   id="rect10"
   style="fill:#e30613;stroke-width:0.9999904" />
</svg>