<?xml version="1.0" encoding="UTF-8" standalone="no"?>
<!-- Generator: Adobe Illustrator 27.6.1, SVG Export Plug-In . SVG Version: 6.00 Build 0)  -->

<svg
   xmlns:dc="http://purl.org/dc/elements/1.1/"
   xmlns:cc="http://creativecommons.org/ns#"
   xmlns:rdf="http://www.w3.org/1999/02/22-rdf-syntax-ns#"
   xmlns:svg="http://www.w3.org/2000/svg"
   xmlns="http://www.w3.org/2000/svg"
   xmlns:sodipodi="http://sodipodi.sourceforge.net/DTD/sodipodi-0.dtd"
   xmlns:inkscape="http://www.inkscape.org/namespaces/inkscape"
   version="1.1"
   id="Calque_1"
   x="0px"
   y="0px"
   viewBox="0 0 85 85"
   xml:space="preserve"
   sodipodi:docname="056.svg"
   width="85"
   height="85"
   inkscape:version="0.92.5 (2060ec1f9f, 2020-04-08)"><metadata
   id="metadata19"><rdf:RDF><cc:Work
       rdf:about=""><dc:format>image/svg+xml</dc:format><dc:type
         rdf:resource="http://purl.org/dc/dcmitype/StillImage" /></cc:Work></rdf:RDF></metadata><defs
   id="defs17" /><sodipodi:namedview
   pagecolor="#ffffff"
   bordercolor="#666666"
   borderopacity="1"
   objecttolerance="10"
   gridtolerance="10"
   guidetolerance="10"
   inkscape:pageopacity="0"
   inkscape:pageshadow="2"
   inkscape:window-width="882"
   inkscape:window-height="480"
   id="namedview15"
   showgrid="false"
   inkscape:zoom="0.2979798"
   inkscape:cx="46.5"
   inkscape:cy="32.5"
   inkscape:window-x="54"
   inkscape:window-y="27"
   inkscape:window-maximized="0"
   inkscape:current-layer="Calque_1" />
<style
   type="text/css"
   id="style2">
	.st0{fill:#00713C;}
	.st1{fill:#FFDD00;}
	.st2{fill:#E30613;}
</style>
<rect
   x="0"
   y="0"
   class="st0"
   width="85"
   height="85"
   id="rect4"
   style="fill:#00713c" />
<path
   class="st1"
   d="M 7.4,38.4 C 25.7,31.5 43.2,25 61,18.2 c 4.8,9.2 9.7,18.1 14.5,27.5 0.3,0.5 0.2,0.9 0,1.3 -0.4,0.7 -1,0.9 -1.8,0.7 -0.3,-0.1 -0.6,-0.4 -0.8,-0.7 -0.6,-1.1 -1,-2.1 -1.7,-3.2 -0.7,-1.1 -1.3,-1.9 -2.3,-2.7 -2.4,-2.2 -5.5,-3.7 -8.9,-4.3 -4.2,-0.7 -8.8,0.6 -12.3,2.3 -1.5,0.7 -2.3,1.2 -3.5,2 -2.4,1.6 -4.3,3.6 -6,5.5 0,-1 -0.1,-2.1 -0.3,-3.1 C 37.7,42.8 37.6,42.3 37.3,41.7 37.1,41.2 36.8,40.8 36.5,40.3 35.8,39.1 34.9,38.2 33.8,37.5 32.3,36.6 30.7,35.9 29.3,35.6 26.7,35 23.6,35.3 21.6,36 17.1,37.7 12.9,39.3 8.4,41 7.9,41.2 6.9,40.9 6.7,39.9 6.6,39.2 7,38.6 7.4,38.4 Z"
   id="path6"
   inkscape:connector-curvature="0"
   style="fill:#ffdd00" />
<path
   class="st1"
   d="m 52.5,42.6 c 1,0 1.9,-0.8 1.9,-1.9 0,-1.1 -0.8,-1.9 -1.9,-1.9 -1,0 -1.9,0.8 -1.9,1.9 0,1.1 0.8,1.9 1.9,1.9 z"
   id="path8"
   inkscape:connector-curvature="0"
   style="fill:#ffdd00" />
<path
   class="st1"
   d="m 48.2,43.7 c 0.3,-0.4 0.9,-0.7 1.3,-0.7 1.4,0.2 3,0.4 3.7,0.5 1.5,0.3 1.5,2.5 2.1,3.4 0.9,-0.5 1.7,-1 2.7,-1.5 0.2,-0.1 0.5,-0.1 0.8,0 0.4,0.1 0.6,0.4 0.7,0.8 0.1,0.4 -0.1,1 -0.5,1.2 -1.6,0.9 -2.7,1.5 -4.2,2.3 -1.7,0.5 -1.9,-1 -2.4,-2.1 -0.1,-0.2 -0.3,-0.5 -0.6,-0.2 -0.7,1.2 -1.5,2.8 -2,3.1 -0.1,0.1 -1.2,0.7 -2.4,1.3 -1.2,0.7 -2.4,1.3 -2.6,1.3 -0.5,0.2 -4.7,0.4 -7.1,0.5 0,0.5 -0.1,0.8 -0.2,1.2 -0.1,0.2 -0.2,0.4 -0.4,0.4 -0.5,0.2 -1,0.1 -1.4,-0.3 0,-0.1 -0.1,-0.2 -0.1,-0.3 -0.1,-0.6 -0.1,-1.1 -0.1,-1.7 0,-0.6 -0.1,-1.1 0,-1.4 0.1,-0.4 0.6,-0.9 1.2,-1 1.8,-0.2 3.6,-0.3 5.4,-0.4 0.8,-0.5 1.6,-0.7 2.4,-1.2 1.3,-1.6 2.4,-3.2 3.7,-5.2 z"
   id="path10"
   inkscape:connector-curvature="0"
   style="fill:#ffdd00" />
<rect
   x="-2.0028799"
   y="12.900769"
   transform="rotate(-45)"
   class="st2"
   width="3.9999616"
   height="94.399094"
   id="rect12"
   style="fill:#e30613;stroke-width:0.9999904" />
</svg>