<?xml version="1.0" encoding="UTF-8" standalone="no"?>
<!-- Generator: Adobe Illustrator 27.6.1, SVG Export Plug-In . SVG Version: 6.00 Build 0)  -->

<svg
   xmlns:dc="http://purl.org/dc/elements/1.1/"
   xmlns:cc="http://creativecommons.org/ns#"
   xmlns:rdf="http://www.w3.org/1999/02/22-rdf-syntax-ns#"
   xmlns:svg="http://www.w3.org/2000/svg"
   xmlns="http://www.w3.org/2000/svg"
   xmlns:sodipodi="http://sodipodi.sourceforge.net/DTD/sodipodi-0.dtd"
   xmlns:inkscape="http://www.inkscape.org/namespaces/inkscape"
   version="1.1"
   id="Calque_1"
   x="0px"
   y="0px"
   viewBox="0 0 87.799988 90.800003"
   xml:space="preserve"
   sodipodi:docname="058.svg"
   width="87.799988"
   height="90.800003"
   inkscape:version="0.92.5 (2060ec1f9f, 2020-04-08)"><metadata
   id="metadata37"><rdf:RDF><cc:Work
       rdf:about=""><dc:format>image/svg+xml</dc:format><dc:type
         rdf:resource="http://purl.org/dc/dcmitype/StillImage" /></cc:Work></rdf:RDF></metadata><defs
   id="defs35" /><sodipodi:namedview
   pagecolor="#ffffff"
   bordercolor="#666666"
   borderopacity="1"
   objecttolerance="10"
   gridtolerance="10"
   guidetolerance="10"
   inkscape:pageopacity="0"
   inkscape:pageshadow="2"
   inkscape:window-width="882"
   inkscape:window-height="480"
   id="namedview33"
   showgrid="false"
   inkscape:zoom="0.2979798"
   inkscape:cx="48"
   inkscape:cy="35.6"
   inkscape:window-x="54"
   inkscape:window-y="27"
   inkscape:window-maximized="0"
   inkscape:current-layer="Calque_1" />
<style
   type="text/css"
   id="style2">
	.st0{fill:#006E33;}
	.st1{fill:#FFDD00;}
	.st2{fill:#E2001A;}
</style>
<rect
   x="2.7999878"
   y="2.3000062"
   class="st0"
   width="85"
   height="85"
   id="rect4"
   style="fill:#006e33" />
<path
   class="st1"
   d="m 1.1,35.8 c 7.1,-5.4 16.8,-10.3 23.6,-12.9 8.1,-3.1 12.5,-4.7 18.5,-7.7 1.1,-0.6 2.2,-1.2 3.1,-2.2 0.2,-0.2 0.3,-0.5 0.3,-0.7 0,-1.6 -1.5,-2.4 -2,-4 C 44.4,7.7 44.5,7 44.9,6.4 45.4,5.7 46,5.3 46.7,4.9 c 1.6,-1 3.2,-1.7 5,-2.3 3.5,-1.2 7.7,-2.2 10.5,-2.6 0,0 0.2,0.1 0.2,0.1 0,0 0,0.1 0,0.2 0.1,0 0.2,0 0.3,0 0,0.1 0.1,0.2 0.1,0.2 -2.5,0.8 -4.9,1.5 -7.4,2.7 -0.6,0.3 -2.7,1.3 -3.7,2.6 -0.2,0.3 -0.3,0.9 -0.3,1.1 0,0 -0.2,0.5 0.4,1.5 1.2,2.1 2.4,3.2 3.1,4.4 0.6,1 0.7,2.3 0.2,3.4 -0.6,1.5 -2.1,3.2 -4.4,5.4 -2.6,2.5 -5.9,5.3 -8.6,8 -4.6,4.6 -9.1,9.6 -13.1,14.9 -3.2,4.3 -6.6,9.3 -9.6,14.4 -0.8,1.4 -1.5,2.6 -2.3,4 -0.8,1.5 -1.9,3.5 -2.4,4.4 0,0 0.4,0 0.4,0 1.5,1.4 2.9,2.8 4.3,4.2 -2,1.2 -5.2,2.3 -7.6,1.8 -1.9,4.2 -3.4,7.5 -5,11.4 -0.7,1.8 -1.4,3.7 -1.9,5.6 -0.7,0 -1.4,-0.1 -2.1,0 -0.2,0 0,0.3 -0.1,0.5 H 2.6 c 0,-0.2 0.1,-0.5 0,-0.5 -0.4,0 -1.3,0 -1.9,0 0,-0.9 0.1,-1.7 0,-2.6 -0.2,0 -0.5,0 -0.7,0 v -0.1 c 0.2,0 0.5,0.1 0.8,0 C 1.1,70.1 0.9,52.9 1.1,35.8 Z"
   id="path6"
   inkscape:connector-curvature="0"
   style="fill:#ffdd00" />
<g
   id="g26"
   transform="translate(-258,-340.8)">
	<path
   class="st1"
   d="m 274.4,407.5 c 1.3,-0.5 2.6,-0.9 3.8,-1.8 1.3,-0.9 2.1,-2 3.3,-3 1.1,-0.8 2.4,-1.4 3.6,-1.7 1.4,-0.3 3.1,-0.2 4.7,0 0.2,0 0.6,0.1 0.8,0.2 0.4,0.2 0.8,0.5 1,0.9 0.3,0.6 0.2,1.3 -0.3,1.9 -1.3,2 -3.8,4.3 -6.5,5.6 -1.1,0.5 -2.6,0.9 -5,1.3 -0.5,0.1 -1.1,0.2 -1.6,0.4 -1.2,-1.2 -3.8,-3.8 -3.8,-3.8 z"
   id="path8"
   inkscape:connector-curvature="0"
   style="fill:#ffdd00" />
	<g
   id="g14">
		<path
   class="st1"
   d="m 297.9,390.8 c -1.8,1 -3.4,2.2 -5.5,1.9 -0.5,-0.1 -1.5,-0.7 -1.3,-1.7 0.3,-1.4 2.3,-2.5 3.4,-3 1.1,0.8 2.2,1.6 3.4,2.8 z"
   id="path10"
   inkscape:connector-curvature="0"
   style="fill:#ffdd00" />
		<path
   class="st1"
   d="m 295.1,387.7 c 1.7,-1.1 2.7,-2.4 4.3,-3.4 1.2,-0.7 2.4,-1.1 3.8,-1.5 1,-0.2 2.6,-0.4 3.8,-0.1 0.7,0.2 1.1,1 0.7,1.7 -0.9,2.1 -2.8,3.8 -4.2,4.4 -1.5,0.7 -3.2,0.5 -3.7,0.6 -0.6,0 -1.1,0.4 -1.7,0.7 -1,-0.8 -2,-1.5 -3,-2.4 z"
   id="path12"
   inkscape:connector-curvature="0"
   style="fill:#ffdd00" />
	</g>
	<path
   class="st1"
   d="m 318.9,390.9 c -1,0.6 -2.1,1 -3.3,1.2 -1,0.2 -2.1,0.3 -2.9,-0.2 -0.6,-0.4 -0.6,-1.3 -0.5,-1.7 0.1,-0.3 0.5,-0.9 1.2,-1.4 0.7,-0.5 1.4,-0.8 2.3,-1.2 0,0 1.7,1.7 3.2,3.3 z"
   id="path16"
   inkscape:connector-curvature="0"
   style="fill:#ffdd00" />
	<path
   class="st1"
   d="m 316.5,387.6 c 1.3,-0.6 2.1,-0.7 3,-1.5 0.8,-0.7 1.4,-1.4 2.3,-2.1 2,-1.4 4.9,-1.5 6.6,-0.8 0.8,0.3 1,1.3 0.5,1.9 -0.7,1 -1.5,1.7 -2.3,2.5 -0.9,0.7 -1.9,1.4 -2.9,1.8 -1.5,0.5 -2.9,0.7 -4.4,1 -0.8,-0.9 -2.8,-2.8 -2.8,-2.8 z"
   id="path18"
   inkscape:connector-curvature="0"
   style="fill:#ffdd00" />
	<g
   id="g24">
		<path
   class="st1"
   d="m 327.2,375.6 c -1.6,0.7 -3,1.5 -4.6,1.1 -0.6,-0.2 -1.2,-0.8 -1,-1.6 0.3,-1 1.9,-1.7 2.9,-2.1 0.9,0.9 1.8,1.6 2.7,2.6 z"
   id="path20"
   inkscape:connector-curvature="0"
   style="fill:#ffdd00" />
		<path
   class="st1"
   d="m 325.2,373 c 1.4,-0.8 2.4,-1.8 3.7,-2.5 1.1,-0.5 2.1,-0.7 3.2,-0.9 0.8,-0.1 2.1,-0.1 3,0.2 0.6,0.3 0.8,1 0.4,1.6 -0.9,1.6 -2.6,2.8 -3.6,3.1 -1.2,0.4 -2.6,0.2 -3,0.2 -0.5,0 -0.9,0.2 -1.4,0.4 -0.8,-0.7 -1.6,-1.4 -2.3,-2.1 z"
   id="path22"
   inkscape:connector-curvature="0"
   style="fill:#ffdd00" />
	</g>
</g>
<path
   class="st0"
   d="m 14.9,67.2 c -0.6,0.2 -2.8,1.4 -3.6,2.5 -0.6,0.8 -0.7,1.7 -0.3,2.3 0.2,0.4 0.7,0.7 1.1,0.9 0.8,-1.9 1.7,-3.8 2.8,-5.7 z"
   id="path28"
   inkscape:connector-curvature="0"
   style="fill:#006e33" />
<rect
   x="-1.6491549"
   y="16.526621"
   transform="rotate(-45)"
   class="st2"
   width="3.9999616"
   height="94.399094"
   id="rect30"
   style="fill:#e2001a;stroke-width:0.9999904" />
</svg>