<?xml version="1.0" encoding="UTF-8" standalone="no"?>
<!-- Generator: Adobe Illustrator 27.6.1, SVG Export Plug-In . SVG Version: 6.00 Build 0)  -->

<svg
   xmlns:dc="http://purl.org/dc/elements/1.1/"
   xmlns:cc="http://creativecommons.org/ns#"
   xmlns:rdf="http://www.w3.org/1999/02/22-rdf-syntax-ns#"
   xmlns:svg="http://www.w3.org/2000/svg"
   xmlns="http://www.w3.org/2000/svg"
   xmlns:sodipodi="http://sodipodi.sourceforge.net/DTD/sodipodi-0.dtd"
   xmlns:inkscape="http://www.inkscape.org/namespaces/inkscape"
   version="1.1"
   id="Calque_1"
   x="0px"
   y="0px"
   viewBox="0 0 84.699997 84.699997"
   xml:space="preserve"
   sodipodi:docname="060.svg"
   width="84.699997"
   height="84.699997"
   inkscape:version="0.92.5 (2060ec1f9f, 2020-04-08)"><metadata
   id="metadata39"><rdf:RDF><cc:Work
       rdf:about=""><dc:format>image/svg+xml</dc:format><dc:type
         rdf:resource="http://purl.org/dc/dcmitype/StillImage" /></cc:Work></rdf:RDF></metadata><defs
   id="defs37" /><sodipodi:namedview
   pagecolor="#ffffff"
   bordercolor="#666666"
   borderopacity="1"
   objecttolerance="10"
   gridtolerance="10"
   guidetolerance="10"
   inkscape:pageopacity="0"
   inkscape:pageshadow="2"
   inkscape:window-width="882"
   inkscape:window-height="480"
   id="namedview35"
   showgrid="false"
   inkscape:zoom="0.8324515"
   inkscape:cx="44.349998"
   inkscape:cy="32.849998"
   inkscape:window-x="54"
   inkscape:window-y="27"
   inkscape:window-maximized="0"
   inkscape:current-layer="Calque_1" />
<style
   type="text/css"
   id="style2">
	.st0{fill:#00713C;}
	.st1{fill:#FFDD00;stroke:#FFDD00;stroke-width:1.2369;stroke-linecap:round;stroke-linejoin:bevel;}
	.st2{fill:none;stroke:#00713C;stroke-width:1.9089;stroke-linecap:round;stroke-linejoin:bevel;}
	.st3{fill:#FFDD00;stroke:#FFDD00;stroke-width:0.3711;stroke-linecap:round;stroke-linejoin:bevel;}
	.st4{fill:none;stroke:#00713C;stroke-width:1.9195;stroke-linecap:round;stroke-linejoin:bevel;}
	.st5{fill:none;stroke:#FFDD00;stroke-width:1.75;stroke-linejoin:round;}
	.st6{fill:#00713C;stroke:#FFDD00;stroke-width:1.75;stroke-linejoin:round;}
	.st7{fill:#E30613;}
</style>
<rect
   x="0"
   y="0"
   class="st0"
   width="84.699997"
   height="84.699997"
   id="rect4"
   style="fill:#00713c" />
<polygon
   class="st1"
   points="130.2,148.7 128.2,153.8 123.2,158.2 111.8,158.2 106.6,147.3 112.2,143.9 121.1,141.8 "
   id="polygon6"
   style="fill:#ffdd00;stroke:#ffdd00;stroke-width:1.23689997;stroke-linecap:round;stroke-linejoin:bevel"
   transform="translate(-97.400002,-89.900002)" />
<g
   id="g12"
   transform="translate(-97.400002,-89.900002)">
	<polyline
   class="st2"
   points="105.3,147 123,152.2 118.8,160.4  "
   id="polyline8"
   style="fill:none;stroke:#00713c;stroke-width:1.90890002;stroke-linecap:round;stroke-linejoin:bevel" />
	<line
   class="st2"
   x1="122.9"
   y1="152.2"
   x2="132.89999"
   y2="147.3"
   id="line10"
   style="fill:none;stroke:#00713c;stroke-width:1.90890002;stroke-linecap:round;stroke-linejoin:bevel" />
</g>
<polygon
   class="st3"
   points="126.6,166.1 120.8,165.1 124.5,160.8 129.2,161 129.9,164.3 "
   id="polygon14"
   style="fill:#ffdd00;stroke:#ffdd00;stroke-width:0.37110001;stroke-linecap:round;stroke-linejoin:bevel"
   transform="translate(-97.400002,-89.900002)" />
<line
   class="st4"
   x1="27.400002"
   y1="70.700005"
   x2="29.099998"
   y2="76.900002"
   id="line16"
   style="fill:none;stroke:#00713c;stroke-width:1.91949999;stroke-linecap:round;stroke-linejoin:bevel" />
<polygon
   class="st3"
   points="138.5,149.2 144.9,152.6 144.5,163.1 137.8,166.2 134.1,157.6 "
   id="polygon18"
   style="fill:#ffdd00;stroke:#ffdd00;stroke-width:0.37110001;stroke-linecap:round;stroke-linejoin:bevel"
   transform="translate(-97.400002,-89.900002)" />
<polyline
   class="st2"
   points="137.8,148.8 140.3,154.9 145.7,152.3 "
   id="polyline20"
   style="fill:none;stroke:#00713c;stroke-width:1.90890002;stroke-linecap:round;stroke-linejoin:bevel"
   transform="translate(-97.400002,-89.900002)" />
<line
   class="st2"
   x1="42.900002"
   y1="64.999992"
   x2="40.099998"
   y2="77.799995"
   id="line22"
   style="fill:none;stroke:#00713c;stroke-width:1.90890002;stroke-linecap:round;stroke-linejoin:bevel" />
<path
   class="st5"
   d="m 53.899998,24.799998 c 0,0 -1.2,5 -3.1,6.6 0.1,1.3 0.8,4.6 -0.8,7.5 -0.3,0.5 -1.8,2 -2.5,0.6 -0.3,-0.7 -2,-8.1 -2,-8.1"
   id="path24"
   inkscape:connector-curvature="0"
   style="fill:none;stroke:#ffdd00;stroke-width:1.75;stroke-linejoin:round" />
<path
   class="st6"
   d="m 46.599998,25.999998 c -0.6,6.2 -2.7,7.1 -3.9,8.5 -1,6.8 -4.7,8.4 -6,8.3 0,0 -1.4,-0.2 -1.3,-1.2 0.2,-2.2 1,-6.5 2.5,-11.4"
   id="path26"
   inkscape:connector-curvature="0"
   style="fill:#00713c;stroke:#ffdd00;stroke-width:1.75;stroke-linejoin:round" />
<path
   class="st6"
   d="m 79.199998,27.199998 c 0,0 -0.8,8.2 -9.4,12.3 -9,4.2 -10.9,8.4 -12.1,8.8 -1.7,0.7 -2.6,0.3 -3.3,-0.7 -1.7,-2.5 0,-8.5 8.5,-13.1 3.9,-2.1 1.8,-7.8 -4.2,-9.2 -2.9,-0.6 -4,-0.7 -8.8,-0.5 -3.7,0.2 -9.3,2.2 -11.2,4.7 -6.4,8.7 -11.3,14 -17.1,11.1 0,0 10,-15.5 11.8,-18.2 2,-2.9 18.5,-9.8 21.3,-10.5 3.2,-0.8 14.2,1.8 23.8,4 z"
   id="path28"
   inkscape:connector-curvature="0"
   style="fill:#00713c;stroke:#ffdd00;stroke-width:1.75;stroke-linejoin:round" />
<rect
   x="77.499992"
   y="10.199997"
   class="st0"
   width="6.0999999"
   height="28.299999"
   id="rect30"
   style="fill:#00713c" />
<rect
   x="-1.9616102"
   y="12.866184"
   transform="rotate(-45)"
   class="st7"
   width="3.9999616"
   height="94.099098"
   id="rect32"
   style="fill:#e30613;stroke-width:0.9999904" />
</svg>