<?xml version="1.0" encoding="UTF-8" standalone="no"?>
<!-- Generator: Adobe Illustrator 27.6.1, SVG Export Plug-In . SVG Version: 6.00 Build 0)  -->

<svg
   xmlns:dc="http://purl.org/dc/elements/1.1/"
   xmlns:cc="http://creativecommons.org/ns#"
   xmlns:rdf="http://www.w3.org/1999/02/22-rdf-syntax-ns#"
   xmlns:svg="http://www.w3.org/2000/svg"
   xmlns="http://www.w3.org/2000/svg"
   xmlns:sodipodi="http://sodipodi.sourceforge.net/DTD/sodipodi-0.dtd"
   xmlns:inkscape="http://www.inkscape.org/namespaces/inkscape"
   version="1.1"
   id="Calque_1"
   x="0px"
   y="0px"
   viewBox="0 0 84.699997 84.699997"
   xml:space="preserve"
   sodipodi:docname="061.svg"
   width="84.699997"
   height="84.699997"
   inkscape:version="0.92.5 (2060ec1f9f, 2020-04-08)"><metadata
   id="metadata45"><rdf:RDF><cc:Work
       rdf:about=""><dc:format>image/svg+xml</dc:format><dc:type
         rdf:resource="http://purl.org/dc/dcmitype/StillImage" /></cc:Work></rdf:RDF></metadata><defs
   id="defs43" /><sodipodi:namedview
   pagecolor="#ffffff"
   bordercolor="#666666"
   borderopacity="1"
   objecttolerance="10"
   gridtolerance="10"
   guidetolerance="10"
   inkscape:pageopacity="0"
   inkscape:pageshadow="2"
   inkscape:window-width="882"
   inkscape:window-height="480"
   id="namedview41"
   showgrid="false"
   inkscape:zoom="0.8324515"
   inkscape:cx="39.849998"
   inkscape:cy="17.149994"
   inkscape:window-x="54"
   inkscape:window-y="27"
   inkscape:window-maximized="0"
   inkscape:current-layer="Calque_1" />
<style
   type="text/css"
   id="style2">
	.st0{fill:#00713C;}
	.st1{fill:none;stroke:#FFDD00;stroke-width:1.75;stroke-linejoin:round;}
	.st2{fill:#00713C;stroke:#FFDD00;stroke-width:1.75;stroke-linejoin:round;}
	.st3{fill:#E30613;}
	.st4{fill:#FFDD00;stroke:#FFDD00;stroke-width:0.4;}
	.st5{fill:#FFDF00;stroke:#FFDD00;stroke-width:0.4;}
	.st6{fill:#FFFFFF;stroke:#FFDD00;stroke-width:0.7189;stroke-linecap:round;stroke-linejoin:round;}
	.st7{fill:#FFFFFF;stroke:#FFDD00;stroke-width:1.1802;stroke-linecap:round;stroke-linejoin:round;}
	.st8{fill:none;stroke:#FFDD00;stroke-width:1.1802;stroke-linecap:round;stroke-linejoin:round;}
</style>
<rect
   x="0"
   y="0"
   class="st0"
   width="84.699997"
   height="84.699997"
   id="rect4"
   style="fill:#00713c" />
<path
   class="st1"
   d="m 53.899998,24.800003 c 0,0 -1.2,5 -3.1,6.6 0.1,1.3 0.8,4.6 -0.8,7.5 -0.3,0.5 -1.8,2 -2.5,0.6 -0.3,-0.7 -2,-8.1 -2,-8.1"
   id="path6"
   inkscape:connector-curvature="0"
   style="fill:none;stroke:#ffdd00;stroke-width:1.75;stroke-linejoin:round" />
<path
   class="st2"
   d="m 46.599998,26.000003 c -0.6,6.2 -2.7,7.1 -3.9,8.5 -1,6.8 -4.7,8.4 -6,8.3 0,0 -1.4,-0.2 -1.3,-1.2 0.2,-2.2 1,-6.5 2.5,-11.4"
   id="path8"
   inkscape:connector-curvature="0"
   style="fill:#00713c;stroke:#ffdd00;stroke-width:1.75;stroke-linejoin:round" />
<path
   class="st2"
   d="m 79.199998,27.200003 c 0,0 -0.8,8.2 -9.4,12.2 -9,4.2 -10.9,8.4 -12.1,8.8 -1.7,0.7 -2.6,0.3 -3.3,-0.7 -1.7,-2.5 0,-8.5 8.5,-13.1 3.9,-2.1 1.8,-7.8 -4.2,-9.2 -2.9,-0.6 -4,-0.7 -8.8,-0.5 -3.7,0.2 -9.3,2.2 -11.2,4.7 -6.4,8.7 -11.3,14 -17.1,11.1 0,0 10,-15.5 11.8,-18.2 2,-2.9 18.5,-9.8 21.3,-10.5 3.2,-0.8 14.2,1.8 23.8,4 z"
   id="path10"
   inkscape:connector-curvature="0"
   style="fill:#00713c;stroke:#ffdd00;stroke-width:1.75;stroke-linejoin:round" />
<rect
   x="-1.9705229"
   y="12.862768"
   transform="rotate(-45)"
   class="st3"
   width="3.9999616"
   height="94.099098"
   id="rect12"
   style="fill:#e30613;stroke-width:0.9999904" />
<rect
   x="77.400002"
   y="9.9000015"
   class="st0"
   width="6.0999999"
   height="28.299999"
   id="rect14"
   style="fill:#00713c" />
<path
   class="st4"
   d="m 19.899998,59.900003 c 0,0 -0.4,-0.3 -0.8,0.1 -2.5,2.5 -4.2,3.2 -0.2,7.1 3.9,3.9 9.3,5.8 11.7,3.5 z"
   id="path16"
   inkscape:connector-curvature="0"
   style="fill:#ffdd00;stroke:#ffdd00;stroke-width:0.40000001" />
<path
   class="st4"
   d="m 21.199998,58.600003 c 0,0 -0.3,-0.4 0.1,-0.8 2.5,-2.5 3.1,-4.1 7.1,-0.2 3.9,3.9 5.9,9.2 3.5,11.6 z"
   id="path18"
   inkscape:connector-curvature="0"
   style="fill:#ffdd00;stroke:#ffdd00;stroke-width:0.40000001" />
<path
   class="st4"
   d="m 16.499998,60.600003 c 0.6,-1.3 4.5,-5 5.9,-5.7 1.2,-0.6 0.2,-1.2 0.2,-1.2 -3,-1.4 -4.9,-0.5 -6.5,1.1 -1.6,1.6 -2.4,3.3 -1,6.3 0,0 0.6,1 1.4,-0.5 z"
   id="path20"
   inkscape:connector-curvature="0"
   style="fill:#ffdd00;stroke:#ffdd00;stroke-width:0.40000001" />
<path
   class="st5"
   d="m 14.999998,53.700003 c -0.9,0.9 -1.5,1.6 -0.4,2.8 0.9,0.9 1.8,0.4 2.7,-0.5 0.9,-0.9 1.4,-1.8 0.5,-2.7 -1.1,-1.1 -1.9,-0.4 -2.8,0.4 z"
   id="path22"
   inkscape:connector-curvature="0"
   style="fill:#ffdf00;stroke:#ffdd00;stroke-width:0.40000001" />
<path
   class="st6"
   d="m 12.399998,54.900003 c 0.7,0.9 1.3,1.1 1.8,0.7"
   id="path24"
   inkscape:connector-curvature="0"
   style="fill:#ffffff;stroke:#ffdd00;stroke-width:0.71890002;stroke-linecap:round;stroke-linejoin:round" />
<path
   class="st7"
   d="m 25.299998,70.300003 c 0,0 -0.2,1.9 0.1,3.1 0.4,1.7 1.2,2.9 1.2,2.9"
   id="path26"
   inkscape:connector-curvature="0"
   style="fill:#ffffff;stroke:#ffdd00;stroke-width:1.18019998;stroke-linecap:round;stroke-linejoin:round" />
<path
   class="st8"
   d="m 19.399998,65.000003 c 0,0 -1.8,3.3 -1.4,4.6 0.6,1.9 2.8,3.1 2.3,6.8"
   id="path28"
   inkscape:connector-curvature="0"
   style="fill:none;stroke:#ffdd00;stroke-width:1.18019998;stroke-linecap:round;stroke-linejoin:round" />
<path
   class="st7"
   d="m 31.699998,64.000003 c 0,0 1.9,-0.2 3.1,0.1 1.7,0.4 2.9,1.2 2.9,1.2"
   id="path30"
   inkscape:connector-curvature="0"
   style="fill:#ffffff;stroke:#ffdd00;stroke-width:1.18019998;stroke-linecap:round;stroke-linejoin:round" />
<path
   class="st8"
   d="m 26.399998,58.100003 c 0,0 3.3,-1.8 4.6,-1.4 1.9,0.6 3.1,2.8 6.8,2.3"
   id="path32"
   inkscape:connector-curvature="0"
   style="fill:none;stroke:#ffdd00;stroke-width:1.18019998;stroke-linecap:round;stroke-linejoin:round" />
<path
   class="st8"
   d="m 25.099998,58.100003 c 0,0 2.7,-3.8 2.3,-5 -0.6,-2.1 -3.9,-3.2 -6.9,-5.9"
   id="path34"
   inkscape:connector-curvature="0"
   style="fill:none;stroke:#ffdd00;stroke-width:1.18019998;stroke-linecap:round;stroke-linejoin:round" />
<path
   class="st8"
   d="m 19.399998,63.600003 c 0,0 -3.8,2.7 -5,2.3 -2.1,-0.6 -3.2,-3.9 -5.8999995,-6.9"
   id="path36"
   inkscape:connector-curvature="0"
   style="fill:none;stroke:#ffdd00;stroke-width:1.18019998;stroke-linecap:round;stroke-linejoin:round" />
<path
   class="st6"
   d="m 16.399998,51.100003 c 1.1,1 1,1.4 0.6,1.9"
   id="path38"
   inkscape:connector-curvature="0"
   style="fill:#ffffff;stroke:#ffdd00;stroke-width:0.71890002;stroke-linecap:round;stroke-linejoin:round" />
</svg>