<?xml version="1.0" encoding="UTF-8" standalone="no"?>
<!-- Generator: Adobe Illustrator 27.6.1, SVG Export Plug-In . SVG Version: 6.00 Build 0)  -->

<svg
   xmlns:dc="http://purl.org/dc/elements/1.1/"
   xmlns:cc="http://creativecommons.org/ns#"
   xmlns:rdf="http://www.w3.org/1999/02/22-rdf-syntax-ns#"
   xmlns:svg="http://www.w3.org/2000/svg"
   xmlns="http://www.w3.org/2000/svg"
   xmlns:sodipodi="http://sodipodi.sourceforge.net/DTD/sodipodi-0.dtd"
   xmlns:inkscape="http://www.inkscape.org/namespaces/inkscape"
   version="1.1"
   id="Calque_3"
   x="0px"
   y="0px"
   viewBox="0 0 85.000002 84.999998"
   xml:space="preserve"
   sodipodi:docname="069.svg"
   width="85"
   height="85"
   inkscape:version="0.92.5 (2060ec1f9f, 2020-04-08)"><metadata
   id="metadata51"><rdf:RDF><cc:Work
       rdf:about=""><dc:format>image/svg+xml</dc:format><dc:type
         rdf:resource="http://purl.org/dc/dcmitype/StillImage" /></cc:Work></rdf:RDF></metadata><defs
   id="defs49" /><sodipodi:namedview
   pagecolor="#ffffff"
   bordercolor="#666666"
   borderopacity="1"
   objecttolerance="10"
   gridtolerance="10"
   guidetolerance="10"
   inkscape:pageopacity="0"
   inkscape:pageshadow="2"
   inkscape:window-width="882"
   inkscape:window-height="480"
   id="namedview47"
   showgrid="false"
   inkscape:zoom="0.28031832"
   inkscape:cx="44.849991"
   inkscape:cy="7.0499878"
   inkscape:window-x="54"
   inkscape:window-y="27"
   inkscape:window-maximized="0"
   inkscape:current-layer="Calque_3" />
<style
   type="text/css"
   id="style2">
	.st0{fill:#00713C;}
	.st1{fill:none;stroke:#FFDD00;stroke-width:1.7556;stroke-linejoin:round;}
	.st2{fill:#00713C;stroke:#FFDD00;stroke-width:1.7556;stroke-linejoin:round;}
	.st3{fill:#FFDD00;}
	.st4{fill:#E30613;}
</style>
<rect
   x="0"
   y="0"
   class="st0"
   width="85"
   height="85"
   id="rect4"
   style="fill:#00713c" />
<path
   class="st1"
   d="m 54.199997,24.9 c 0,0 -1.2,5 -3.1,6.6 0.1,1.3 0.8,4.6 -0.8,7.6 -0.3,0.5 -1.8,2 -2.5,0.6 -0.3,-0.7 -2,-8.1 -2,-8.1"
   id="path6"
   inkscape:connector-curvature="0"
   style="fill:none;stroke:#ffdd00;stroke-width:1.75559998;stroke-linejoin:round" />
<path
   class="st2"
   d="m 46.799997,26 c -0.6,6.2 -2.7,7.1 -4,8.5 -1,6.9 -4.7,8.5 -6,8.4 0,0 -1.4,-0.2 -1.3,-1.2 0.2,-2.2 1,-6.5 2.6,-11.5"
   id="path8"
   inkscape:connector-curvature="0"
   style="fill:#00713c;stroke:#ffdd00;stroke-width:1.75559998;stroke-linejoin:round" />
<path
   class="st2"
   d="m 79.499997,27.2 c 0,0 -0.8,8.2 -9.4,12.3 -9,4.3 -11,8.4 -12.1,8.9 -1.7,0.7 -2.6,0.3 -3.3,-0.7 -1.7,-2.5 0,-8.5 8.5,-13.2 3.9,-2.1 1.8,-7.9 -4.2,-9.2 -2.9,-0.6 -4,-0.7 -8.9,-0.5 -3.7,0.2 -9.4,2.2 -11.2,4.7 -6.4,8.8 -11.4,14 -17.2,11.2 0,0 10,-15.5 11.9,-18.2 2,-2.9 18.6,-9.8 21.4,-10.5 3.2,-0.8 14.2,1.8 23.9,4 z"
   id="path10"
   inkscape:connector-curvature="0"
   style="fill:#00713c;stroke:#ffdd00;stroke-width:1.75559998;stroke-linejoin:round" />
<rect
   x="77.800003"
   y="10.200012"
   class="st0"
   width="6.0999999"
   height="28.299999"
   id="rect12"
   style="fill:#00713c" />
<g
   id="g40"
   transform="translate(-252.8,-343)">
	<g
   id="g36">
		<path
   class="st3"
   d="m 272.3,396 c 0.5,-0.2 1.7,-0.7 2.9,-0.7 0.8,0 1.2,0 1,0.6 -0.2,0.6 -0.4,0.9 -0.5,1.1 -0.1,0.2 -0.6,0.7 -1.7,0.7 -1.1,-0.1 -2,-0.2 -2.3,-0.3 -0.6,-0.2 -1.3,-0.7 0.6,-1.4 z"
   id="path14"
   inkscape:connector-curvature="0"
   style="fill:#ffdd00" />
		<path
   class="st3"
   d="m 277.2,395.7 c 0.2,-0.3 0.4,-0.6 1.1,-0.8 1.6,-0.3 4.8,0 5.4,0 0.6,0 1.2,0.3 0.6,0.6 -1,0.5 -3.3,1.6 -6.5,2 -0.9,0.1 -1.5,0.1 -1.3,-0.5 0.3,-0.7 0.7,-1.2 0.7,-1.3 z"
   id="path16"
   inkscape:connector-curvature="0"
   style="fill:#ffdd00" />
		<path
   class="st3"
   d="m 268.8,398.1 c 1.1,-0.7 2.5,-0.1 2.1,0.7 -0.9,1.8 -1.5,3.1 -2.1,4 -0.2,0.3 -0.4,0.9 -1.5,0.7 -0.6,-0.1 -1.2,-0.3 -1.6,-0.4 -0.7,-0.2 -1.1,-0.5 -0.4,-1.6 1.7,-2.3 3.2,-3.2 3.5,-3.4 z"
   id="path18"
   inkscape:connector-curvature="0"
   style="fill:#ffdd00" />
		<path
   class="st3"
   d="m 271.6,399.4 c 0.2,-0.4 0.7,-1.1 1.4,-1 1.7,0.1 3.7,0 4.2,0 0.4,0 1.3,-0.1 1.5,0.7 0.3,1.2 0.2,2.6 0.1,3.1 -0.1,0.5 -0.5,1.1 -1.5,1.4 -1.3,0.3 -2.7,0.4 -6.3,0.3 -0.6,0 -1.3,-0.6 -0.8,-1.7 0.5,-1.1 1.3,-2.6 1.4,-2.8 z"
   id="path20"
   inkscape:connector-curvature="0"
   style="fill:#ffdd00" />
		<path
   class="st3"
   d="m 279.8,399.2 c 0,-0.3 -0.1,-1 0.7,-1.3 1.1,-0.4 2.3,-0.9 3.3,-0.6 1,0.3 1.4,0.8 3.6,3 0.4,0.4 0.8,1.4 -0.1,1.7 -0.9,0.4 -2,0.8 -5.4,1.1 -0.4,0 -1.6,-0.1 -1.7,-1.1 -0.2,-0.8 -0.4,-2.3 -0.4,-2.8 z"
   id="path22"
   inkscape:connector-curvature="0"
   style="fill:#ffdd00" />
		<path
   class="st3"
   d="m 285.5,397.2 c -0.4,-0.6 -0.6,-0.8 -0.2,-1.2 0.3,-0.3 0.7,-0.5 1.6,-0.2 0.5,0.2 2.8,1 4.7,3 0.2,0.2 0.5,0.5 0.1,0.9 -0.3,0.4 -1.7,1.4 -2.6,0.8 -1,-0.6 -2.8,-2.2 -3.6,-3.3 z"
   id="path24"
   inkscape:connector-curvature="0"
   style="fill:#ffdd00" />
		<path
   class="st3"
   d="m 292.3,400.9 c 0.4,-0.3 0.9,-0.7 1.9,-0.3 1,0.4 3.5,1.8 3.8,2 0.3,0.2 0.7,0.4 0.3,1.2 -1.9,3.5 -4.2,5.3 -7.8,6.8 -0.8,0.3 -1.7,-0.1 -2.3,-1 -0.8,-1.1 -1.9,-4.2 -2.1,-4.7 -0.1,-0.5 0,-1.4 1.2,-1.7 1.1,-0.2 4.8,-2.1 5,-2.3 z"
   id="path26"
   inkscape:connector-curvature="0"
   style="fill:#ffdd00" />
		<path
   class="st3"
   d="m 282.2,404.3 c 0.8,-0.2 2.1,0 2.7,1.1 0.7,1.1 1.6,4.3 1.7,4.8 0.1,0.7 -0.2,1.5 -1.3,1.9 -2.5,0.9 -5.8,1.4 -9.7,0.9 -0.7,-0.1 -1.6,-0.7 -1.5,-2 0,-1.3 0.5,-4 0.7,-4.6 0.2,-0.6 0.8,-1.6 1.9,-1.7 1,0.1 5.2,-0.4 5.5,-0.4 z"
   id="path28"
   inkscape:connector-curvature="0"
   style="fill:#ffdd00" />
		<path
   class="st3"
   d="m 260.6,407.5 c 0.4,-0.5 2.1,-2.3 2.4,-2.7 0.3,-0.4 0.7,-1.1 1.9,-0.8 1.8,0.5 6,1 7,1 0.9,0 1.6,0.7 1.5,1.5 -0.1,0.8 -0.9,4.5 -1.1,5 -0.2,0.6 -1,1.4 -2.5,1.2 -2.4,-0.3 -5.3,-0.9 -8.3,-2.4 -0.8,-0.3 -2.1,-1.3 -0.9,-2.8 z"
   id="path30"
   inkscape:connector-curvature="0"
   style="fill:#ffdd00" />
		<path
   class="st3"
   d="m 262.8,414.5 c 0.3,-0.4 1.5,-2 2.3,-1.8 1.6,0.4 4.4,1.5 11.5,1.6 2.1,0 5.5,0.5 12.3,-1.7 1.9,-0.6 7.1,-2 10.2,-7.7 0.2,-0.4 0.2,-0.9 1,-0.8 2,0.3 3,0.1 3.5,0.4 0.4,0.2 1.6,0.8 1.8,1 0.3,0.1 0.6,0.6 0.4,0.9 -0.1,0.3 -0.5,1.4 -1.1,1.4 -0.6,0.1 -1.3,0.2 -1.5,0.2 -0.7,0 -1,0.7 -0.1,0.6 0.7,-0.1 1.4,-0.1 1.3,0.2 -0.2,0.4 -0.4,0.9 -1,0.9 -0.6,0 -3.8,0.3 -4.3,0.3 -0.5,0.1 -1.7,0.4 -2.2,0.7 -0.3,0.2 -1.6,1.6 -5.9,3.2 -0.6,0.2 -1.6,1.2 -1.8,1.5 -0.2,0.3 -2.3,3.9 -2.6,4.2 -0.2,0.2 -1.4,1.6 -3.1,1.6 -0.7,0 -2.7,-0.8 -1.7,-2 0.5,-0.7 2.3,-2.1 2.6,-2.8 0.3,-0.6 0.2,-0.8 -0.5,-0.6 -2.7,0.7 -6.5,0.8 -13.7,-1.2 -0.5,-0.1 -2.4,-0.6 -3.4,-0.2 -0.9,0.5 -2.1,1.2 -2.3,1.4 -0.2,0.2 -0.7,0.6 -1.6,0.2 -1,-0.1 -0.3,-1.2 -0.1,-1.5 z"
   id="path32"
   inkscape:connector-curvature="0"
   style="fill:#ffdd00" />
		<path
   class="st3"
   d="m 294.5,413.2 c 0.7,-0.3 0.7,-0.4 1.1,-0.3 0.6,0.2 1.1,0.7 1.2,0.8 0.1,0.1 0.3,0.4 0,0.7 -0.3,0.3 -0.6,0.6 -1.4,0.6 -0.8,0 -2,-0.3 -2.3,-0.4 -0.6,-0.5 0.5,-1 1.4,-1.4 z"
   id="path34"
   inkscape:connector-curvature="0"
   style="fill:#ffdd00" />
	</g>
	<path
   class="st0"
   d="m 301.1,406.9 c 0.5,0 0.9,-0.3 0.9,-0.7 0,-0.4 -0.4,-0.6 -0.9,-0.6 -0.5,0 -0.9,0.3 -0.9,0.7 0,0.3 0.4,0.6 0.9,0.6 z"
   id="path38"
   inkscape:connector-curvature="0"
   style="fill:#00713c" />
</g>
<path
   class="st3"
   d="m 13.799997,46.1 c 1.4,0.5 2.6,0.8 4.1,0.5 0.6,-0.1 0.9,-0.1 0.5,-0.6 -0.5,-0.7 -1.4,-1.1 -2.1,-1.3 -0.6,-0.1 -0.5,-0.4 -0.4,-1 0.4,-1.7 -0.1,-3.5 -0.5,-4.4 -0.3,-0.8 -0.5,-0.8 -1.2,0.1 -0.5,0.5 -1.5,2.7 -1.6,3.4 -0.1,0.4 -0.5,0.9 -0.7,0.2 -0.2,-0.7 -1.3,-3.3 -1.3,-3.3 0.2,-0.2 0.1,-0.4 0,-0.5 -0.2,-0.4 -0.7000001,-0.1 -0.7000001,0.2 0,0.1 0,0.3 0.2000001,0.4 l 1.5,3.8 v 0 L 8.1999969,41.3 c -0.1,-0.3 -0.3,-0.3 -0.4,-0.3 -0.3,-0.1 -0.6,0.4 -0.3,0.7 0.1,0.1 0.2,0.2 0.5,0.1 0,0 2.3000001,1.7 3.0000001,2 0.7,0.3 0.1,0.7 -0.3,0.6 -0.7000001,0 -3.1000001,0.5 -3.7000001,0.8 -1,0.5 -1,0.7 -0.3,1.2 0.8,0.5 2.4,1.5 4.2000001,1.4 0.6,0 0.9,0 0.9,0.6 0,0.7 0.3,1.7 0.8,2.3 0.4,0.5 0.5,0.2 0.7,-0.4 0.7,-1.5 0.7,-2.7 0.5,-4.2 z"
   id="path42"
   inkscape:connector-curvature="0"
   style="fill:#ffdd00" />
<rect
   x="-1.823176"
   y="12.867826"
   transform="rotate(-45)"
   class="st4"
   width="3.9999616"
   height="94.099098"
   id="rect44"
   style="fill:#e30613;stroke-width:0.9999904" />
</svg>