<?xml version="1.0" encoding="UTF-8" standalone="no"?>
<!-- Generator: Adobe Illustrator 26.5.3, SVG Export Plug-In . SVG Version: 6.00 Build 0)  -->

<svg
   version="1.1"
   id="Calque_1"
   x="0px"
   y="0px"
   viewBox="0 0 87.000003 86.950505"
   xml:space="preserve"
   sodipodi:docname="070.svg"
   width="87"
   height="86.950508"
   inkscape:version="1.1.2 (0a00cf5339, 2022-02-04)"
   xmlns:inkscape="http://www.inkscape.org/namespaces/inkscape"
   xmlns:sodipodi="http://sodipodi.sourceforge.net/DTD/sodipodi-0.dtd"
   xmlns="http://www.w3.org/2000/svg"
   xmlns:svg="http://www.w3.org/2000/svg"
   xmlns:rdf="http://www.w3.org/1999/02/22-rdf-syntax-ns#"
   xmlns:cc="http://creativecommons.org/ns#"
   xmlns:dc="http://purl.org/dc/elements/1.1/"><metadata
   id="metadata37"><rdf:RDF><cc:Work
       rdf:about=""><dc:format>image/svg+xml</dc:format><dc:type
         rdf:resource="http://purl.org/dc/dcmitype/StillImage" /></cc:Work></rdf:RDF></metadata><defs
   id="defs35" /><sodipodi:namedview
   pagecolor="#ffffff"
   bordercolor="#666666"
   borderopacity="1"
   objecttolerance="10"
   gridtolerance="10"
   guidetolerance="10"
   inkscape:pageopacity="0"
   inkscape:pageshadow="2"
   inkscape:window-width="1366"
   inkscape:window-height="719"
   id="namedview33"
   showgrid="false"
   inkscape:zoom="0.56063664"
   inkscape:cx="-350.4944"
   inkscape:cy="95.427227"
   inkscape:window-x="0"
   inkscape:window-y="129"
   inkscape:window-maximized="1"
   inkscape:current-layer="Calque_1"
   inkscape:pagecheckerboard="0"
   fit-margin-top="0"
   fit-margin-left="0"
   fit-margin-right="0"
   fit-margin-bottom="0" />
<style
   type="text/css"
   id="style2">
	.st0{fill:#00713C;}
	.st1{fill:none;stroke:#FFDD00;stroke-width:3.6311;stroke-linejoin:round;}
	.st2{fill:#00713C;stroke:#FFDD00;stroke-width:3.6311;stroke-linejoin:round;}
	.st3{fill:#00713C;stroke:#FFDD00;stroke-width:3.6078;stroke-linejoin:round;}
	.st4{fill:#E30613;}
	.st5{fill:#FFDD00;}
</style>
<g
   id="g30"
   transform="matrix(0.49488054,0,0,0.49488054,-109.66553,-161.33106)">
	<rect
   x="221.60001"
   y="326"
   class="st0"
   width="175.8"
   height="175.7"
   id="rect4"
   style="fill:#00713c" />
	<g
   id="g12">
		<path
   class="st1"
   d="m 328.7,372.2 c 0,0 -2.5,10.3 -6.4,13.6 0.2,2.8 1.7,9.6 -1.7,15.6 -0.6,1 -3.7,4.1 -5.2,1.3 -0.7,-1.4 -4.1,-16.8 -4.1,-16.8"
   id="path6"
   inkscape:connector-curvature="0"
   style="fill:none;stroke:#ffdd00;stroke-width:3.6311;stroke-linejoin:round" />
		<path
   class="st2"
   d="m 313.6,374.6 c -1.1,12.9 -5.6,14.7 -8.2,17.6 -2.2,14.2 -9.7,17.5 -12.4,17.3 0,0 -3,-0.4 -2.8,-2.4 0.5,-4.6 2.1,-13.4 5.3,-23.7"
   id="path8"
   inkscape:connector-curvature="0"
   style="fill:#00713c;stroke:#ffdd00;stroke-width:3.6311;stroke-linejoin:round" />
		<path
   class="st3"
   d="m 390.8,371 -1.1,5.5 c 0,0 -10.4,17.6 -28.1,26 -18.7,8.8 -22.7,17.4 -25.1,18.4 -3.5,1.4 -5.5,0.7 -6.9,-1.5 -3.5,-5.1 0,-17.5 17.6,-27.2 8.1,-4.4 3.8,-16.3 -8.6,-19 -6,-1.3 -8.3,-1.5 -18.3,-1 -7.6,0.3 -19.4,4.5 -23.2,9.8 -13.2,18.1 -21.5,26.3 -33.6,20.4 0,0 22.6,-32.2 26,-38.1 2.9,-5 35,-17.2 40.9,-18.7 6.6,-1.7 39,1.4 59.6,3.7 z"
   id="path10"
   inkscape:connector-curvature="0"
   style="fill:#00713c;stroke:#ffdd00;stroke-width:3.6078;stroke-linejoin:round" />
	</g>
	<rect
   x="382.5"
   y="336.79999"
   class="st0"
   width="12.6"
   height="69"
   id="rect14"
   style="fill:#00713c" />
	
		<rect
   x="305.29999"
   y="316.5"
   transform="matrix(0.7071,-0.7071,0.7071,0.7071,-201.9746,339.9883)"
   class="st4"
   width="8.3000002"
   height="194.60001"
   id="rect16"
   style="fill:#e30613" />
	<path
   class="st5"
   d="m 306.3,448.8 c 1.1,-0.5 5.4,-2.6 14.1,4.7 2,1.9 2.5,2.1 3.6,2.9 2.7,1.9 2.5,1.7 3.1,3 1,1.8 -0.4,2.5 -1.5,3.2 -2.3,1.5 -6.6,3.3 -9.6,3.8 -3.8,0.6 -8.6,1.3 -14.8,-0.3 0,0 -5.7,-1.2 -8.9,-3.5 -1.2,-0.9 0.3,-4.6 1.7,-5.4 1.8,-1.1 5.2,-4.1 5.9,-4.6 2.4,-1.7 5.4,-3.4 6.4,-3.8 z"
   id="path18"
   inkscape:connector-curvature="0"
   style="fill:#ffdd00" />
	<g
   id="g22">
		<path
   class="st5"
   d="m 307,468.5 c -0.8,4 -2.2,7.9 -4.7,9.6 0,0 -2.2,1.5 -3,3.3 -0.9,1.8 4.6,7.5 8.3,2.7 0,0 3.1,-2.4 3.1,-6.9 0,-3.2 0.5,-5.7 1.2,-8.9 -1.5,0.3 -3.2,0.3 -4.9,0.2 z"
   id="path20"
   inkscape:connector-curvature="0"
   style="fill:#ffdd00" />
	</g>
	<path
   class="st5"
   d="m 297.5,441 c -1.1,-2 -0.7,-1.7 -5.3,-4.7 -1.9,-1.3 -2.8,-1.6 -6.1,-4.6 -14.7,-11.7 -21.9,-8.3 -23.9,-7.5 -1.6,0.7 -6.7,3.4 -10.8,6.1 -1.2,0.8 -5.2,3.8 -8.3,5.6 -2.3,1.3 -6.5,8.9 -4.4,10.3 1.9,1.3 4.4,2.4 6.7,3.3 0,-0.6 0.1,-1.4 0.4,-2.7 1.1,-5.2 5.3,-8.4 5.3,-8.4 -1.7,2.7 -3.3,8.3 -3,12 3.1,0.9 5.6,1.4 5.6,1.4 10.4,2.6 19,0.3 25.6,0 4.5,-0.2 11.9,-3.1 15.8,-5.6 1.8,-1.2 4,-2.2 2.4,-5.2 z"
   id="path24"
   inkscape:connector-curvature="0"
   style="fill:#ffdd00" />
	<g
   id="g28">
		<path
   class="st5"
   d="m 284,478.4 c -1.2,-2.7 -4.3,-4.9 -4.3,-4.9 -4.4,-3.3 -6.4,-11.8 -7.3,-19 -2.2,0.2 -4.5,0.5 -7,0.5 1.4,6.8 2.5,11.2 2.5,17.2 0,6.7 3.9,11.6 3.9,11.6 9.2,5.1 13.4,-2.6 12.2,-5.4 z"
   id="path26"
   inkscape:connector-curvature="0"
   style="fill:#ffdd00" />
	</g>
</g>
</svg>
