<?xml version="1.0" encoding="UTF-8" standalone="no"?>
<!-- Created with Inkscape (http://www.inkscape.org/) -->

<svg
   width="87"
   height="87.000038"
   viewBox="0 0 23.018749 23.018761"
   version="1.1"
   id="svg429"
   inkscape:version="1.1.2 (0a00cf5339, 2022-02-04)"
   sodipodi:docname="153.svg"
   xmlns:inkscape="http://www.inkscape.org/namespaces/inkscape"
   xmlns:sodipodi="http://sodipodi.sourceforge.net/DTD/sodipodi-0.dtd"
   xmlns="http://www.w3.org/2000/svg"
   xmlns:svg="http://www.w3.org/2000/svg"
   xmlns:rdf="http://www.w3.org/1999/02/22-rdf-syntax-ns#"
   xmlns:cc="http://creativecommons.org/ns#"
   xmlns:dc="http://purl.org/dc/elements/1.1/">
  <metadata
     id="metadata19">
    <rdf:RDF>
      <cc:Work
         rdf:about="">
        <dc:format>image/svg+xml</dc:format>
        <dc:type
           rdf:resource="http://purl.org/dc/dcmitype/StillImage" />
      </cc:Work>
    </rdf:RDF>
  </metadata>
  <sodipodi:namedview
     id="namedview431"
     pagecolor="#ffffff"
     bordercolor="#000000"
     borderopacity="0.25"
     inkscape:pageshadow="2"
     inkscape:pageopacity="0.0"
     inkscape:pagecheckerboard="0"
     inkscape:document-units="mm"
     showgrid="false"
     inkscape:zoom="1.2810466"
     inkscape:cx="130.75246"
     inkscape:cy="129.97185"
     inkscape:window-width="1366"
     inkscape:window-height="719"
     inkscape:window-x="0"
     inkscape:window-y="129"
     inkscape:window-maximized="1"
     inkscape:current-layer="layer1"
     units="px"
     width="113.33866px"
     fit-margin-top="0"
     fit-margin-left="0"
     fit-margin-right="0"
     fit-margin-bottom="0" />
  <defs
     id="defs426" />
  <g
     inkscape:label="Calque 1"
     inkscape:groupmode="layer"
     id="layer1"
     transform="translate(-80.83934,-156.8449)">
    <path
       d="M 103.85809,179.86366 V 156.8449 H 80.83934 v 23.01876 h 23.01875"
       style="fill:#167947;fill-opacity:1;fill-rule:nonzero;stroke:none;stroke-width:0.0270797"
       id="path443" />
    <path
       d="m 84.82546,173.82435 c 0.238841,-0.005 0.482017,-0.008 0.718963,-0.0103 0.785038,-1.51023 1.555995,-3.00367 2.368925,-4.54287 1.311737,-2.48321 2.544672,-4.83642 3.830412,-7.31015 -0.1836,-0.33091 -0.326039,-0.64775 -0.518575,-0.99247 -0.295981,-0.52994 0.439503,-0.95076 0.744419,-0.50368 0.08015,0.11752 0.1465,0.23911 0.293001,0.51127 0.157874,-0.28109 0.21095,-0.37451 0.270796,-0.48122 0.262943,-0.4709 1.040129,-0.0826 0.78206,0.45116 -0.212575,0.43923 -0.518846,1.01494 -0.518846,1.01494 0.580858,1.09348 4.120429,7.83468 6.2137,11.74931 0.284871,-2.8e-4 0.586528,-0.008 0.718952,-0.008 0.685383,7.7e-4 0.686743,1.07966 -0.03791,1.09294 -1.074245,0.0198 -14.236838,0.13593 -14.851546,0.13946 -0.718964,-0.0122 -0.721943,-1.09483 -0.01435,-1.11081"
       style="fill:#fbc707;fill-opacity:1;fill-rule:nonzero;stroke:none;stroke-width:0.0270797"
       id="path445" />
    <path
       d="m 92.275874,169.14338 -2.13279,4.64253 4.274246,-0.0417 z"
       style="fill:#167947;fill-opacity:1;fill-rule:nonzero;stroke:none;stroke-width:0.0270797"
       id="path447" />
    <path
       d="m 87.360382,165.31161 c -0.333079,-0.52317 0.301396,-0.84597 0.578963,-0.52724 0.05064,0.0581 0.200118,0.30816 0.371261,0.51046 0.29598,0.3496 0.332538,0.37775 0.529948,0.5581 0.150563,0.13757 0.429754,0.33742 0.63258,0.4896 l -0.330913,0.62988 c 0,0 -0.09776,-0.0563 -0.259152,-0.16926 -0.100194,-0.0698 -0.402944,-0.30003 -0.603604,-0.49041 -0.219887,-0.20878 -0.355286,-0.35799 -0.535636,-0.56975 -0.141083,-0.16545 -0.330912,-0.34851 -0.383447,-0.43138"
       style="fill:#fbc707;fill-opacity:1;fill-rule:nonzero;stroke:none;stroke-width:0.0270797"
       id="path449" />
    <path
       d="m 95.082406,166.36718 c 0,0 0.155979,-0.11671 0.339307,-0.25482 0.136755,-0.10317 0.264025,-0.22476 0.404838,-0.35447 0.158684,-0.14597 0.300858,-0.32306 0.300858,-0.32306 0,0 -0.490685,0.005 -0.573278,0 -0.492577,-0.0339 -0.464143,-0.75228 0.0092,-0.77069 0.144872,-0.005 1.596079,0.0187 1.676767,0.0187 0.09966,0 0.135407,0.0282 0.135407,0.12024 0,0.13918 0.0015,1.46067 -0.0015,1.74257 -0.0062,0.46497 -0.731148,0.485 -0.751733,0.0152 -0.0038,-0.0902 0.01492,-0.59224 0.01492,-0.59224 0,0 -0.07636,0.081 -0.180354,0.18225 -0.152186,0.14867 -0.27432,0.26376 -0.368549,0.34419 -0.289485,0.24615 -0.377763,0.293 -0.501789,0.37775 -0.120228,0.0821 -0.187927,0.11103 -0.187927,0.11103 l -0.315749,-0.6166"
       style="fill:#fbc707;fill-opacity:1;fill-rule:nonzero;stroke:none;stroke-width:0.0270797"
       id="path451" />
    <path
       d="m 89.469342,166.35959 c 0.13567,0.0905 0.529136,0.33904 0.928561,0.48879 0.481204,0.18036 0.943725,0.31196 1.394871,0.34202 0.451146,0.0301 0.777455,0.0617 1.278158,-0.0339 1.281948,-0.24426 2.03395,-0.79316 2.03395,-0.79316 l 0.293272,0.62039 c 0,0 -0.437607,0.25645 -0.943724,0.46604 -0.330101,0.13676 -0.725192,0.25834 -1.000051,0.30086 -0.39103,0.0601 -1.017381,0.14813 -1.605279,0.094 -0.612813,-0.0565 -1.157924,-0.18442 -1.676771,-0.38725 -0.518574,-0.20309 -1.014943,-0.51126 -1.014943,-0.51126 l 0.311956,-0.58655"
       style="fill:#167947;fill-opacity:1;fill-rule:nonzero;stroke:none;stroke-width:0.0270797"
       id="path453" />
    <path
       d="m 84.320966,161.07366 c -0.111026,0.0622 -0.158145,0.0845 -0.210679,0.11292 -0.19362,0.10534 -0.355557,-0.18659 -0.172769,-0.29897 0.12213,-0.075 0.361514,-0.18712 0.443564,-0.2104 0.172769,-0.0488 0.294897,0.043 0.296793,0.2012 0.0041,0.33254 0.01165,1.46988 0.0038,2.24247 -0.0019,0.18414 -0.355285,0.20093 -0.362596,0.002 -0.0025,-0.066 0.0019,-2.04911 0.0019,-2.04911"
       style="fill:#fbc707;fill-opacity:1;fill-rule:nonzero;stroke:none;stroke-width:0.0270797"
       id="path455" />
    <path
       d="m 85.721253,162.88962 c 0.223137,0.0652 0.424879,0.0845 0.627975,-0.005 0.249405,-0.10967 0.396447,-0.37207 0.435983,-0.68782 0.0076,-0.0604 -0.02627,-0.0339 -0.02627,-0.0339 -0.270796,0.31005 -0.815908,0.26483 -1.095912,-0.009 -0.256443,-0.2513 -0.281357,-0.65587 -0.157874,-1.00005 0.161666,-0.45115 0.665618,-0.62148 1.082644,-0.47363 0.206617,0.073 0.355284,0.19173 0.434357,0.37208 0.191724,0.45115 0.178455,0.98488 0.04874,1.43441 -0.09126,0.31547 -0.320352,0.6063 -0.631497,0.70867 -0.263214,0.0864 -0.582483,0.0991 -0.817804,-0.004 -0.18035,-0.0788 -0.09965,-0.3588 0.09965,-0.30058"
       style="fill:#fbc707;fill-opacity:1;fill-rule:nonzero;stroke:none;stroke-width:0.0270797"
       id="path457" />
    <path
       d="m 85.807637,161.446 c -0.02113,0.19091 0.02735,0.39618 0.167352,0.51315 0.12592,0.10534 0.34039,0.13541 0.520741,0.0563 0.157874,-0.0791 0.25184,-0.23478 0.274316,-0.40403 0.02274,-0.21446 -0.0076,-0.42488 -0.187932,-0.57166 -0.135398,-0.10127 -0.314394,-0.11264 -0.473623,-0.06 -0.182516,0.06 -0.278107,0.26321 -0.300854,0.46631"
       style="fill:#167947;fill-opacity:1;fill-rule:nonzero;stroke:none;stroke-width:0.0270797"
       id="path459" />
    <path
       d="m 87.988088,160.56618 c 0,-0.24615 0.349869,-0.24426 0.353389,0 0.003,0.17765 -0.0019,0.57625 -0.0019,0.73684 0,0.0565 0.07337,0.0508 0.07337,0.0508 0.26132,-0.1205 0.739816,-0.17006 0.99626,0.15029 0.07527,0.094 0.116443,0.24452 0.116443,0.36666 0,0.27052 0.0019,0.96593 0,1.21804 -0.0014,0.21989 -0.356909,0.21989 -0.358806,0.002 -0.0019,-0.22531 0.0038,-0.87386 -0.0019,-1.07128 0.01354,-0.31927 -0.188204,-0.44356 -0.457916,-0.42623 -0.308437,0.0201 -0.36368,0.0785 -0.365575,0.22882 -5.42e-4,0.0414 0.006,1.03933 0.0019,1.27085 -0.0038,0.2161 -0.35014,0.21935 -0.351493,0.002 -0.0016,-0.24074 -0.0038,-2.21999 -0.0038,-2.52843"
       style="fill:#fbc707;fill-opacity:1;fill-rule:nonzero;stroke:none;stroke-width:0.0270797"
       id="path461" />
    <path
       d="m 96.174792,162.85008 c 0.223416,0.0652 0.424892,0.0848 0.627976,-0.005 0.249414,-0.10994 0.396725,-0.37235 0.435981,-0.68808 0.0077,-0.0601 -0.0263,-0.0339 -0.0263,-0.0339 -0.270791,0.31007 -0.815903,0.26484 -1.095907,-0.009 -0.256442,-0.2513 -0.281357,-0.65559 -0.157876,-1.00006 0.161675,-0.45113 0.665893,-0.62147 1.08265,-0.47361 0.206882,0.0734 0.355277,0.19172 0.43435,0.37235 0.191726,0.45087 0.178454,0.98488 0.04875,1.43413 -0.09098,0.31547 -0.320351,0.60632 -0.63149,0.70867 -0.263217,0.0864 -0.582214,0.0991 -0.817802,-0.004 -0.180354,-0.0791 -0.09967,-0.35908 0.09964,-0.30086"
       style="fill:#fbc707;fill-opacity:1;fill-rule:nonzero;stroke:none;stroke-width:0.0270797"
       id="path463" />
    <path
       d="m 96.261186,161.40646 c -0.02115,0.19092 0.02738,0.39618 0.167342,0.51317 0.126203,0.10534 0.34039,0.13539 0.520743,0.0563 0.157877,-0.0788 0.251844,-0.23478 0.27459,-0.40402 0.02253,-0.21448 -0.0077,-0.42488 -0.187935,-0.57139 -0.135399,-0.10154 -0.314661,-0.11265 -0.47389,-0.0604 -0.182245,0.0604 -0.278104,0.26322 -0.30085,0.46631"
       style="fill:#167947;fill-opacity:1;fill-rule:nonzero;stroke:none;stroke-width:0.0270797"
       id="path465" />
    <path
       d="m 98.441903,160.52692 c 0,-0.24644 0.349603,-0.24454 0.353386,0 0.0031,0.17737 -0.0015,0.57598 -0.0015,0.73683 0,0.0563 0.07336,0.0506 0.07336,0.0506 0.261049,-0.12023 0.739815,-0.17006 0.995996,0.1503 0.07528,0.094 0.116705,0.24453 0.116705,0.36665 0,0.27053 0.0015,0.9662 0,1.21805 -0.0015,0.21988 -0.357184,0.21988 -0.359076,0.002 -0.0015,-0.22557 0.0038,-0.87413 -0.0015,-1.07154 0.01384,-0.31927 -0.187935,-0.44356 -0.457919,-0.42596 -0.308432,0.0198 -0.363405,0.0783 -0.365305,0.22855 -5.46e-4,0.0417 0.0054,1.03931 0.0015,1.27085 -0.0038,0.21609 -0.350141,0.21934 -0.351771,0.002 -0.0015,-0.24074 -0.0038,-2.21999 -0.0038,-2.52815"
       style="fill:#fbc707;fill-opacity:1;fill-rule:nonzero;stroke:none;stroke-width:0.0270797"
       id="path467" />
  </g>
</svg>
