<?xml version="1.0" encoding="utf-8"?>
<!-- Generator: Adobe Illustrator 16.0.0, SVG Export Plug-In . SVG Version: 6.00 Build 0)  -->
<!DOCTYPE svg PUBLIC "-//W3C//DTD SVG 1.1//EN" "http://www.w3.org/Graphics/SVG/1.1/DTD/svg11.dtd">
<svg version="1.1" class="events" xmlns="http://www.w3.org/2000/svg" xmlns:xlink="http://www.w3.org/1999/xlink" x="0px" y="0px"
	 width="42.374px" height="30px" viewBox="-114.537 6.528 42.374 30" enable-background="new -114.537 6.528 42.374 30"
	 xml:space="preserve">
<g class="base">
	<path d="M-109.268,8.5c1.4,0,2.541,1.137,2.541,2.536c0,1.404-1.14,2.54-2.541,2.54c-1.403,0-2.539-1.136-2.539-2.54
		C-111.806,9.637-110.671,8.5-109.268,8.5 M-106.358,35.252c0,0.703-0.577,1.275-1.279,1.275l0,0c-0.696,0-1.274-0.572-1.274-1.275
		V24.795h-0.713v10.457c0,0.696-0.58,1.275-1.279,1.275c-0.694,0-1.271-0.572-1.271-1.275c0-4.396-0.003-13.257,0-17.67
		c0-0.008,0.001-0.023,0.001-0.035c0-0.128-0.104-0.236-0.236-0.236c-0.13,0-0.236,0.108-0.236,0.236
		c0,0.021,0.004,0.037,0.011,0.059v7.027c0,0.52-0.436,0.952-0.953,0.952c-0.518,0-0.95-0.427-0.95-0.952v-9.491
		c0-0.521,0.429-0.949,0.95-0.949h8.635h0.032c0.505,0.021,0.917,0.44,0.917,0.949v9.491c0,0.52-0.432,0.949-0.949,0.949l0,0
		c-0.523,0-0.95-0.424-0.95-0.949v-7.027c0.002-0.021,0.005-0.037,0.005-0.059c0-0.128-0.107-0.236-0.235-0.236
		s-0.236,0.108-0.236,0.236c0,0.012,0,0.027,0.003,0.035C-106.358,21.995-106.358,30.854-106.358,35.252"/>
	<path d="M-74.988,35.682v-7.766l1.427,1.714c0.762,0.91,1.851-0.042,1.197-0.877l-2.424-3.069
		c-0.223-0.277-0.547-0.356-0.849-0.297l-2.562,0.006c-0.118-0.031-0.245-0.043-0.356-0.037c-0.864-0.483-1.732-0.963-2.599-1.451
		c-1.051-0.59-1.931,0.798-0.774,1.49l3.064,1.732v0.785v7.768c0,0.467,0.383,0.846,0.85,0.846c0.465,0,0.851-0.383,0.851-0.846
		v-4.966h0.475v4.966c0,0.467,0.388,0.846,0.85,0.846C-75.37,36.527-74.988,36.146-74.988,35.682 M-76.917,21.118
		c-1.055,0-1.909,0.854-1.909,1.909c0,1.058,0.854,1.91,1.909,1.91c1.057,0,1.914-0.854,1.914-1.91
		C-75.003,21.973-75.86,21.118-76.917,21.118"/>
	<path d="M-84.598,15.469c-0.615-0.164-4.65-0.03-5.563-0.03l0,0c-0.42,0.015-0.857,0.322-0.911,0.713
		c-1.09,2.838-1.999,5.019-3.099,7.894c-0.182,0.479,0.06,1.022,0.535,1.205h0.003c0.473,0.183,1.027-0.063,1.205-0.535l2.236-5.883
		c0.048-0.126,0.108-0.248,0.245-0.248c0.135,0,0.292,0.12,0.249,0.248l-2.824,8.229l2.141,0.149h0.063v8.063
		c0,0.687,0.563,1.252,1.252,1.252c0.685,0,1.255-0.565,1.255-1.252v-8.063h0.7v8.063c0,0.687,0.574,1.252,1.257,1.252
		c0.682,0,1.25-0.565,1.25-1.252l0.003-8.063h0.059l2.142-0.149l-2.826-8.229c-0.042-0.126,0.113-0.248,0.249-0.248
		c0.133,0,0.2,0.12,0.247,0.248l2.234,5.883c0.182,0.472,0.734,0.718,1.204,0.535h0.003c0.477-0.183,0.724-0.726,0.539-1.205
		c-1.119-2.907-2.039-5.124-3.141-7.995C-84.011,15.734-84.286,15.525-84.598,15.469 M-87.459,9.892
		c1.377,0,2.494,1.117,2.494,2.495c0,1.381-1.117,2.494-2.494,2.494c-1.382,0-2.499-1.113-2.499-2.494
		C-89.958,11.009-88.841,9.892-87.459,9.892"/>
	<path d="M-97.537,8.533c1.381,0,2.498,1.116,2.498,2.498c0,1.378-1.116,2.495-2.498,2.495c-1.382,0-2.499-1.117-2.499-2.495
		C-100.035,9.649-98.917,8.533-97.537,8.533 M-100.396,35.273c0-4.321,0-13.471,0.003-17.81c0.001-0.013,0.001-0.024,0.001-0.036
		c0-0.128-0.104-0.232-0.232-0.232c-0.127,0-0.232,0.104-0.232,0.232c0,0.02,0.003,0.038,0.012,0.057v6.914
		c0,0.513-0.425,0.934-0.937,0.934c-0.508,0-0.934-0.422-0.934-0.934v-9.331c0-0.504,0.404-0.917,0.901-0.937h0.032h8.489
		c0.515,0,0.936,0.42,0.936,0.937v9.331c0,0.513-0.427,0.934-0.936,0.934s-0.935-0.43-0.935-0.934v-6.914
		c0.003-0.019,0.011-0.037,0.011-0.057c0-0.128-0.108-0.232-0.234-0.232c-0.127,0-0.232,0.104-0.232,0.232
		c0,0.012,0.004,0.023,0.007,0.036c0,4.339,0,13.485,0,17.81c0,0.688-0.568,1.252-1.255,1.252c-0.683,0-1.255-0.567-1.255-1.252
		v-10.5h-0.702v10.5c0,0.688-0.57,1.252-1.253,1.252l0,0C-99.826,36.527-100.396,35.962-100.396,35.273"/>
	<path d="M-104.912,10.126c0.129,1.098-0.103,2.099-0.697,3.005c0,0-0.129-0.087-0.395-0.259c0.533-0.788,0.74-1.683,0.622-2.68
		c-0.072-0.629-0.308-1.241-0.695-1.835c0.13-0.109,0.267-0.202,0.407-0.278C-105.238,8.785-104.99,9.47-104.912,10.126
		 M-103.562,9.999c0.16,1.354-0.148,2.641-0.922,3.864c-0.031-0.016-0.168-0.104-0.417-0.264c0.726-1.1,1.015-2.287,0.862-3.577
		c-0.107-0.908-0.421-1.728-0.952-2.453c0.097-0.072,0.23-0.156,0.397-0.249c0.261,0.315,0.488,0.729,0.678,1.244
		C-103.734,9.043-103.615,9.523-103.562,9.999 M-102.237,9.77c0.205,1.744-0.168,3.355-1.111,4.835
		c-0.103-0.061-0.244-0.153-0.429-0.275c0.891-1.372,1.245-2.858,1.056-4.448c-0.127-1.101-0.521-2.127-1.174-3.082
		c0.172-0.128,0.308-0.22,0.391-0.272C-102.804,7.438-102.38,8.517-102.237,9.77"/>
</g>
</svg>
