<?xml version="1.0" encoding="UTF-8"?>
<svg class="ng-scope" version="1.1" id="Layer_1" xmlns="http://www.w3.org/2000/svg" xmlns:xlink="http://www.w3.org/1999/xlink" x="0px" y="0px" width="20px" height="20.125px" viewBox="0 5.25 20 20.125" enable-background="new 0 5.25 20 20.125" xml:space="preserve">
<g>
        <path d="M10.675,15.257c0.099,0.408-0.155,0.816-0.56,0.912c-0.405,0.1-0.813-0.152-0.909-0.557
                c-0.104-0.406,0.15-0.819,0.556-0.912C10.167,14.602,10.576,14.851,10.675,15.257"></path>
        <path d="M14.649,7.497L14.649,7.497h0.004c0.272-0.672-0.044-1.443-0.716-1.72c-0.669-0.276-1.44,0.04-1.719,0.71v0.002
                l-1.716,7.008c-0.046,0.108,0.005,0.24,0.117,0.287c0.116,0.044,0.239-0.01,0.288-0.123L14.649,7.497z"></path>
        <path d="M7.658,24.382L7.658,24.382c-0.281,0.668-1.052,0.99-1.72,0.711c-0.672-0.281-0.988-1.047-0.712-1.723l0,0l0,0l3.742-6.166
                c0.044-0.111,0.173-0.166,0.287-0.117c0.11,0.047,0.164,0.176,0.117,0.287l0,0L7.658,24.382z"></path>
        <path d="M18.884,13.154L18.884,13.154v-0.002c0.672-0.277,0.991-1.046,0.712-1.716c-0.276-0.672-1.048-0.991-1.721-0.714l0,0
                l-6.168,3.743c-0.106,0.046-0.163,0.175-0.114,0.285c0.044,0.112,0.174,0.168,0.284,0.117h-0.003L18.884,13.154z"></path>
        <path d="M2.002,20.149L2.002,20.149L2.002,20.149c-0.674,0.275-1.444-0.043-1.72-0.715c-0.279-0.672,0.04-1.439,0.712-1.721l0,0
                l7.004-1.713c0.11-0.045,0.241,0.004,0.288,0.119c0.044,0.111-0.009,0.236-0.122,0.285L2.002,20.149z"></path>
        <path d="M17.875,20.149L17.875,20.149c0.673,0.275,1.444-0.043,1.721-0.715c0.279-0.672-0.04-1.439-0.712-1.719v-0.002
                l-7.007-1.713c-0.112-0.045-0.24,0.004-0.284,0.119c-0.049,0.111,0.008,0.236,0.114,0.285l0,0L17.875,20.149z"></path>
        <path d="M0.994,13.156L0.994,13.156L0.994,13.156c-0.673-0.281-0.991-1.05-0.715-1.72c0.279-0.672,1.048-0.991,1.723-0.714l0,0l0,0
                l6.163,3.743c0.113,0.046,0.166,0.175,0.122,0.287c-0.047,0.11-0.173,0.162-0.288,0.117l0,0L0.994,13.156z"></path>
        <path d="M12.219,24.382L12.219,24.382c0.278,0.672,1.05,0.99,1.719,0.711c0.672-0.279,0.988-1.047,0.714-1.721V23.37l-3.743-6.166
                c-0.049-0.111-0.173-0.162-0.288-0.117c-0.112,0.049-0.163,0.176-0.117,0.287l0,0L12.219,24.382z"></path>
        <path d="M5.226,7.5V7.497C4.95,6.824,5.269,6.054,5.938,5.779c0.67-0.279,1.44,0.04,1.72,0.71l0,0l1.714,7.008
                c0.047,0.108-0.007,0.24-0.117,0.287c-0.116,0.044-0.242-0.008-0.287-0.123L5.226,7.5z"></path>
</g>
</svg>
