<?xml version="1.0" encoding="UTF-8" standalone="no"?>
<svg xmlns="http://www.w3.org/2000/svg" viewBox="0 0 64 64" version="1.1">
 <g transform="matrix(.38911 0 0 .38909 -50.825 -79.391)">
  <path stroke-linejoin="round" style="color:#000000" d="m380 250.93a167.14 167.14 0 1 1 -334.29 0 167.14 167.14 0 1 1 334.29 0z" transform="matrix(.46212 0 0 .46212 114.49 170.33)" stroke="#000" stroke-linecap="round" stroke-width="21.64" fill="#fff"/>
  <g transform="translate(1.0508 -4.0406)">
   <path d="m213.34 268.16c-12.914 3.6353-17.439 4.4186-28.688 11.25-0.52035 3.9204-2.7719 12.366 3.5312 12.5 4.4137-1.1647 8.8501-6.1165 12.562-6.375-1.7154 12.478-6.4906 24.443-9.0727 36.8-2.5707 8.7544-6.2673 19.502-0.83354 27.856 6.1474 6.0244 14.949 0.43277 20.75-3.0938 8.6092-4.9731 16.654-10.884 25.281-15.844 0.51718-3.904 3.6308-11.367-2.0312-12.844-5.0683 1.0659-8.9731 5.1314-13.738 7.1616-2.4198 1.0217-6.385 4.46-8.5121 3.0258-0.33492-7.1553 3.2911-13.776 4.1035-20.849 3.1611-14.373 8.0689-28.598 9.5528-43.151-0.75882-2.9592-9.9481 3.1728-12.906 3.5625z"/>
  </g>
  <path stroke-linejoin="round" style="color:#000000" d="m93.692 37.521a15.847 15.594 0 1 1 -31.694 0 15.847 15.594 0 1 1 31.694 0z" transform="matrix(.75209 0 0 .75113 158.42 210.22)" stroke="#000" stroke-linecap="round" stroke-width="13.305"/>
 </g>
</svg>
