<svg xmlns="http://www.w3.org/2000/svg" xmlns:xlink="http://www.w3.org/1999/xlink" version="1.1" id="Ebene_1" x="0px" y="0px" width="100px" height="100px" viewBox="0 0 100 100" enable-background="new 0 0 100 100" xml:space="preserve">
<path d="M59.694,13.055c-0.119,4.502-3.926,8.086-8.317,7.837c-4.216-0.239-7.601-3.806-7.618-8.036  c-0.021-4.432,3.715-8.187,8.097-8.136C56.266,4.768,59.813,8.546,59.694,13.055z"/>
<path d="M83.143,14.567c-0.775-0.601-1.882-0.532-2.458,0.149c0,0,0,0-0.506,0.656c-6.703,8.658-9.064,18.057-5.274,20.988  c3.789,2.935,12.295-1.707,18.997-10.365c0.507-0.656,0.507-0.656,0.507-0.656c0.517-0.727,0.305-1.812-0.471-2.414L83.143,14.567z"/>
<path d="M30.993,99.231c0.775,0.601,1.881,0.533,2.457-0.148c0,0,0,0,0.506-0.656c6.703-8.658,9.064-18.056,5.274-20.989  c-3.788-2.934-12.294,1.707-18.997,10.366c-0.507,0.656-0.507,0.656-0.507,0.656c-0.517,0.728-0.305,1.813,0.471,2.413  L30.993,99.231z"/>
<path d="M29.022,91.226c-0.437,0-0.875-0.15-1.232-0.456c-0.795-0.681-0.887-1.877-0.205-2.672l53.018-61.865  c0.679-0.794,1.875-0.887,2.671-0.205c0.795,0.68,0.886,1.877,0.206,2.671L30.461,90.563C30.087,91.001,29.556,91.226,29.022,91.226  z"/>
<path d="M35.037,53.341c-0.001-2.212,0.217-4.001,0.446-6.147c2.302-21.623,7.957-23.316,9.209-23.604  c1.406-0.323,3.045,0.018,4.698,0.834c3.123,1.541,3.146,6.65,1.611,9.775c-0.054,0.111-2.113,5.704-2.61,13.666  c-0.095,1.5-0.434,5.083-0.434,5.083L35.037,53.341z"/>
<path d="M50.807,25.566l6.359,12.196l9.57,6.989c1.434,1.115,1.691,3.184,0.575,4.617c-1.025,1.315-2.853,1.641-4.255,0.82  l-9.786-6.23c-0.316-0.186-10.287-13.474-10.287-13.474c-1.691-2.226-1.856-4.741,0.37-6.433c2.226-1.69,5.402-1.257,7.093,0.969  C50.574,25.189,50.704,25.389,50.807,25.566z"/>
<g>
	<path d="M94.961,55.852l-2.826-0.257l-2.826-0.174l-5.653-0.345l-5.652-0.209l-5.652-0.121c-2.884-0.07-12.345,0.045-12.345,0.045   L42.958,75h6l0.07-0.043c0.237,0.001,0.475,0.008,0.711,0.007c7.537-0.04,15.074-0.584,22.611-1.765   c7.536-1.195,15.074-2.869,22.61-6.035l1.65-0.69c1.823-0.771,3.174-2.496,3.365-4.605C100.253,58.822,98.008,56.129,94.961,55.852   z"/>
	<path d="M49.739,54.884c-7.536,0.205-15.073,0.471-22.609,0.97c-3.77,0.221-7.537,0.525-11.307,0.854l-5.652,0.583l-2.826,0.298   l-2.826,0.37c-1.843,0.246-3.5,1.477-4.192,3.341c-0.999,2.688,0.372,5.678,3.06,6.676l1.133,0.421   c7.537,2.798,15.074,4.22,22.611,5.248c3.189,0.402,6.381,0.688,9.571,0.904l16.911-19.733L49.739,54.884z"/>
</g>
</svg>