<?xml version="1.0" encoding="utf-8"?>
<!-- Generator: Adobe Illustrator 16.0.0, SVG Export Plug-In . SVG Version: 6.00 Build 0)  -->
<!DOCTYPE svg PUBLIC "-//W3C//DTD SVG 1.1//EN" "http://www.w3.org/Graphics/SVG/1.1/DTD/svg11.dtd">
<svg version="1.1"
	 id="svg2" inkscape:version="0.48.3.1 r9886" sodipodi:docname="The_Noun_Project_Single_Icon_Template_v1.1.ai" xmlns:rdf="http://www.w3.org/1999/02/22-rdf-syntax-ns#" xmlns:cc="http://creativecommons.org/ns#" xmlns:sodipodi="http://sodipodi.sourceforge.net/DTD/sodipodi-0.dtd" xmlns:dc="http://purl.org/dc/elements/1.1/" xmlns:inkscape="http://www.inkscape.org/namespaces/inkscape" xmlns:svg="http://www.w3.org/2000/svg"
	 xmlns="http://www.w3.org/2000/svg" xmlns:xlink="http://www.w3.org/1999/xlink" x="0px" y="0px" width="100px" height="87.978px"
	 viewBox="12.5 18.511 100 87.978" enable-background="new 12.5 18.511 100 87.978" xml:space="preserve">
<path id="path4520-9" inkscape:original="M -97 1117.625 L -147 1167.625 L -134.5 1167.625 L -134.5 1205.125 L -121.34375 1205.125 L -103.25 1205.125 L -90.75 1205.125 L -72.1875 1205.125 L -59.5 1205.125 L -59.5 1167.625 L -47 1167.625 L -59.75 1154.875 L -59.75 1137.375 L -68 1137.375 L -68 1146.625 L -97 1117.625 z " sodipodi:type="inkscape:offset" inkscape:radius="1.9445436" d="
	M62.289,18.522c-0.422,0.049-0.814,0.24-1.113,0.542L13.042,67.199c-0.728,0.734-0.721,1.92,0.014,2.647
	c0.349,0.345,0.819,0.539,1.31,0.541h10.168v34.236c0.003,1.028,0.836,1.861,1.865,1.865h12.666h17.418h12.035h17.869h12.215
	c1.028-0.004,1.861-0.837,1.865-1.865V70.388h10.168c1.034-0.004,1.869-0.845,1.865-1.879c-0.002-0.491-0.196-0.961-0.541-1.31
	l-11.733-11.733V39.401c-0.003-1.028-0.837-1.861-1.865-1.865h-7.942c-1.028,0.004-1.861,0.837-1.865,1.865v4.392L63.824,19.064
	C63.422,18.659,62.856,18.459,62.289,18.522z"/>
</svg>
