<?xml version="1.0" encoding="utf-8"?>
<!-- Generator: Adobe Illustrator 16.0.0, SVG Export Plug-In . SVG Version: 6.00 Build 0)  -->
<!DOCTYPE svg PUBLIC "-//W3C//DTD SVG 1.1//EN" "http://www.w3.org/Graphics/SVG/1.1/DTD/svg11.dtd">
<svg version="1.1"
	 id="svg30967" xmlns:rdf="http://www.w3.org/1999/02/22-rdf-syntax-ns#" xmlns:dc="http://purl.org/dc/elements/1.1/" xmlns:cc="http://creativecommons.org/ns#" xmlns:svg="http://www.w3.org/2000/svg" xmlns:sodipodi="http://sodipodi.sourceforge.net/DTD/sodipodi-0.dtd" xmlns:inkscape="http://www.inkscape.org/namespaces/inkscape" sodipodi:docname="touch.svg" inkscape:version="0.48.3.1 r9886"
	 xmlns="http://www.w3.org/2000/svg" xmlns:xlink="http://www.w3.org/1999/xlink" x="0px" y="0px" width="92.419px" height="100px"
	 viewBox="6.699 0 92.419 100" enable-background="new 6.699 0 92.419 100" xml:space="preserve">
<path id="text3932" inkscape:connector-curvature="0" d="M37.951,0c-8.594,0-15.948,3.06-22.068,9.18
	C9.764,15.3,6.699,22.654,6.699,31.248c0,5.859,1.045,12.242,3.128,19.144c2.213,6.771,4.816,13.018,7.811,18.746
	c3.125,5.6,6.186,10.813,9.181,15.63c3.125,4.819,5.794,8.591,8.008,11.324L37.951,100c0.911-1.041,2.019-2.469,3.321-4.292
	c1.433-1.823,3.91-5.409,7.426-10.747c2.738-4.107,5.217-8.141,7.441-12.1l-19.136,5.721l9.814-25.834l-2.593-3.753
	c-1.947,0.671-4.038,1.008-6.272,1.007c-5.208,0-9.635-1.824-13.281-5.47c-3.646-3.646-5.47-8.076-5.47-13.284
	c0-5.209,1.823-9.631,5.47-13.277c3.646-3.646,8.072-5.474,13.281-5.474c5.208,0,9.638,1.828,13.284,5.474
	c3.646,3.646,5.467,8.068,5.467,13.277c0,0.01,0,0.021,0,0.031l2.006,0.098l8.547-11.203c-1.52-4.024-3.929-7.69-7.231-10.995
	C53.902,3.06,46.545,0,37.951,0z"/>
<path id="path3930-1" inkscape:connector-curvature="0" d="M73.062,19.216L59.948,36.402l-21.59-1.061l12.29,17.779L42.97,73.328
	l20.708-6.193l16.845,13.546l0.509-21.608l18.087-11.835l-20.393-7.16L73.062,19.216z"/>
</svg>
