<?xml version="1.0" encoding="utf-8"?>
<!-- Generator: Adobe Illustrator 16.0.0, SVG Export Plug-In . SVG Version: 6.00 Build 0)  -->
<!DOCTYPE svg PUBLIC "-//W3C//DTD SVG 1.1//EN" "http://www.w3.org/Graphics/SVG/1.1/DTD/svg11.dtd">
<svg version="1.1" id="Calque_1" xmlns="http://www.w3.org/2000/svg" xmlns:xlink="http://www.w3.org/1999/xlink" x="0px" y="0px"
	 viewBox="0 0 36.41 36.409" enable-background="new 0 0 36.41 36.409" xml:space="preserve">
<path fill="#FFFFFF" d="M11.869,16.882c-0.28-2.641,1.314-5.206,3.942-6.052c2.627-0.847,5.419,0.306,6.732,2.613l1.555-0.5
	c-1.607-3.151-5.305-4.761-8.779-3.643c-3.474,1.12-5.537,4.585-5.002,8.081L11.869,16.882z M22.654,10.474
	c1.949,0.938,4.611-1.323,4.516-3.229C25.447,6.144,22.432,8.122,22.654,10.474z M21.943,9.892c1.477-0.883,1.281-3.866,0.047-4.757
	C20.518,5.78,20.373,8.866,21.943,9.892z M19.117,17.915L19.117,17.915c-0.001,0-0.001,0-0.002,0H19.117z M30.277,27.576
	c-2.994-1.121-6.965-1.661-11.321-1.661h-0.034c0.513,0,1.081-0.44,1.716-0.637c4.816-1.371,5.186-1.978,5.318-2.546
	c0.135-0.568-0.818-7.09-0.818-7.09l0.35-0.13c0.656-0.212,1.018-0.925,0.807-1.583c-0.211-0.655-0.916-1.021-1.572-0.81
	L9.91,17.889c-0.657,0.212-1.018,0.915-0.807,1.57c0.212,0.658,0.917,1.02,1.573,0.808l0.325-0.105c0,0,2.714,5.311,3.25,5.712
	c0.013,0.01,0.026,0.019,0.04,0.028c-2.506,0.298-4.773,0.828-6.654,1.532c-0.22,0.082-0.336,0.322-0.265,0.546
	c0.071,0.223,0.306,0.351,0.532,0.291c3.123-0.829,6.936-1.316,11.053-1.316c4.116,0,7.93,0.487,11.053,1.316
	c0.227,0.06,0.461,0.003,0.531-0.221C30.613,27.827,30.496,27.658,30.277,27.576z M23.037,16.322c0.063-0.125,0.174,0.21,0.328,0.16
	c0.025-0.008,0.053,0.433,0.078,0.433h0.002c0.154-1,0.307-0.426,0.412-0.346c0.111,0.083,0.188-0.029,0.229,0.1
	c0.012,0.034,0.02-0.045,0.025-0.01l0.875,5.298c0.021,0.142,0.004,0.257-0.059,0.383c-0.063,0.124-0.174,0.224-0.33,0.275
	c-0.023,0.008-0.049,0.006-0.076,0.01c-0.156,0.027-0.309-0.026-0.414-0.107c-0.111-0.083-0.188-0.198-0.229-0.325
	c-0.012-0.034-0.02-0.07-0.025-0.106l-0.875-5.353C22.955,16.59,22.977,16.446,23.037,16.322z M21.02,16.945
	c0.059-0.132,0.172-0.11,0.334-0.163l0.045,0.133h0.004c0.164,0,0.322-0.135,0.436-0.053c0.117,0.082,0.199,0.128,0.244,0.267
	c0.006,0.019,0.012,0.002,0.016,0.022l1.205,5.272c0.033,0.146,0.02,0.284-0.039,0.418c-0.059,0.13-0.174,0.25-0.334,0.302
	l-0.045,0.009c-0.164,0.037-0.326-0.01-0.441-0.093c-0.117-0.082-0.199-0.202-0.242-0.338c-0.008-0.02-0.014-0.041-0.018-0.063
	L20.98,17.37C20.945,17.224,20.961,17.077,21.02,16.945z M18.767,17.667c0.053-0.141,0.171,0.015,0.342-0.039l0.008,0.287
	c0.171-0.002,0.342-0.3,0.467-0.216c0.125,0.083,0.217,0.063,0.264,0.211l-0.195-0.063l1.396,5.111v0.001
	c0,0.148,0.24,0.304,0.186,0.443c-0.053,0.141-0.072,0.366-0.242,0.421l0.094,0.093h-0.002c-0.172,0-0.344-0.081-0.469-0.165
	c-0.123-0.083-0.215-0.253-0.264-0.399l-0.004-0.032l-1.594-5.197C18.709,17.973,18.712,17.808,18.767,17.667z M16.01,25.122
	c-0.041,0.129-0.134,0.258-0.277,0.327c-0.024,0.012-0.048,0.023-0.073,0.031c-0.155,0.05-0.313,0.021-0.434-0.044
	c-0.125-0.065-0.224-0.169-0.289-0.299l-2.415-4.857c-0.016-0.033-0.028-0.065-0.039-0.1c-0.042-0.128-0.045-0.264-0.005-0.396
	c0.04-0.128,0.134-0.257,0.277-0.327c0.024-0.012,0.048-0.022,0.072-0.031c0.156-0.05,0.313-0.021,0.435,0.044
	c0.124,0.064,0.225,0.168,0.289,0.299l2.415,4.856c0.017,0.032,0.03,0.066,0.041,0.1C16.047,24.853,16.051,24.99,16.01,25.122z
	 M17.677,24.589c-0.045,0.134-0.149,0.326-0.303,0.326h-0.003l-0.04,0.021c-0.162,0.053-0.327,0.021-0.45-0.052
	c-0.126-0.072-0.224-0.184-0.281-0.321l-2.11-4.998c-0.008-0.019-0.015-0.038-0.021-0.057c-0.044-0.139-0.046-0.282,0-0.416
	c0.045-0.135,0.149-0.268,0.304-0.332l0.042-0.017c0.163-0.052,0.328-0.02,0.451,0.053c0.125,0.074,0.222,0.186,0.28,0.324
	l2.11,4.996c0.008,0.021,0.016,0.041,0.022,0.062C17.721,24.313,17.724,24.454,17.677,24.589z M18.43,24l-1.733-5.178l-0.002-0.025
	c-0.046-0.146-0.045-0.319,0.008-0.46c0.051-0.141,0.167-0.276,0.337-0.331l0.006-0.002c0.171-0.057,0.344-0.017,0.469,0.065
	c0.127,0.082,0.22,0.206,0.271,0.352l1.731,5.143l0.002,0.009c0.047,0.147,0.045,0.585-0.008,0.726
	c-0.051,0.141-0.166,0.617-0.336,0.617h-0.002l-0.004-0.281c-0.17,0.055-0.344-0.128-0.47-0.21
	C18.573,24.342,18.479,24.148,18.43,24z"/>
</svg>
