<?xml version="1.0" encoding="utf-8"?>
<!-- Generator: Adobe Illustrator 16.0.0, SVG Export Plug-In . SVG Version: 6.00 Build 0)  -->
<!DOCTYPE svg PUBLIC "-//W3C//DTD SVG 1.1//EN" "http://www.w3.org/Graphics/SVG/1.1/DTD/svg11.dtd">
<svg version="1.1" id="Calque_1" xmlns="http://www.w3.org/2000/svg" xmlns:xlink="http://www.w3.org/1999/xlink" x="0px" y="0px"
	 viewBox="0 0 36.41 36.409" enable-background="new 0 0 36.41 36.409" xml:space="preserve">
<path fill="#FFFFFF" d="M30.105,24.763l-2.268-2.267c-0.754-0.754-1.916-0.854-2.779-0.301l-2.684-2.684
	c0.029-0.035,0.059-0.069,0.086-0.104c2.469-3.061,4.514-6.73,6.08-10.905c0.066-0.175,0.023-0.372-0.109-0.504
	c-0.131-0.132-0.328-0.175-0.504-0.109c-4.174,1.567-7.844,3.612-10.905,6.08c-0.035,0.028-0.069,0.057-0.104,0.086l-2.684-2.684
	c0.554-0.863,0.454-2.026-0.3-2.779l-2.267-2.268c-0.186-0.186-0.488-0.186-0.673,0L8.515,8.804c-0.186,0.186-0.186,0.487,0,0.673
	l2.267,2.267c0.733,0.733,1.851,0.842,2.706,0.339l2.639,2.639c-2.065,1.792-3.834,3.786-5.262,5.943
	c-2.789,4.215-3.315,7.555-3.337,7.694c-0.022,0.149,0.027,0.301,0.134,0.407c0.107,0.107,0.258,0.156,0.408,0.135
	c0.141-0.021,3.479-0.549,7.694-3.337c2.158-1.428,4.153-3.197,5.944-5.262l2.64,2.64c-0.504,0.854-0.396,1.972,0.338,2.705
	l2.268,2.268c0.186,0.186,0.488,0.186,0.674,0l2.479-2.479C30.291,25.25,30.291,24.949,30.105,24.763z M13.512,10.693l-1.664-1.664
	l-0.707,0.707l1.629,1.629c-0.447,0.152-0.959,0.062-1.314-0.294l-1.93-1.93l1.806-1.806l1.93,1.93
	C13.648,9.652,13.726,10.223,13.512,10.693z M15.284,24.74c-2.949,1.961-5.489,2.771-6.663,3.068
	c0.294-1.165,1.094-3.678,3.038-6.616c1.143-1.727,2.797-3.759,5.149-5.788l4.218,4.218C19.014,21.956,16.997,23.603,15.284,24.74z
	 M21.691,18.828l-4.088-4.089c2.463-1.99,5.624-3.945,9.657-5.568C25.637,13.205,23.682,16.364,21.691,18.828z M27.289,26.905
	l-1.93-1.931c-0.355-0.354-0.445-0.867-0.294-1.313l1.632,1.632l0.707-0.707l-1.667-1.667c0.471-0.213,1.042-0.136,1.429,0.251
	l1.93,1.93L27.289,26.905z M14.806,18.341c-0.905,0.905-0.905,2.377,0,3.284c0.905,0.904,2.378,0.904,3.283,0
	c0.905-0.906,0.905-2.379,0-3.284C17.184,17.436,15.711,17.436,14.806,18.341z M17.417,19.014c0.534,0.535,0.534,1.403,0,1.938
	c-0.534,0.533-1.402,0.533-1.937,0c-0.534-0.534-0.534-1.402,0-1.938C16.014,18.48,16.882,18.48,17.417,19.014z"/>
</svg>
