<?xml version="1.0" encoding="utf-8"?>
<!-- Generator: Adobe Illustrator 16.0.0, SVG Export Plug-In . SVG Version: 6.00 Build 0)  -->
<!DOCTYPE svg PUBLIC "-//W3C//DTD SVG 1.1//EN" "http://www.w3.org/Graphics/SVG/1.1/DTD/svg11.dtd">
<svg version="1.1" id="Calque_1" xmlns="http://www.w3.org/2000/svg" xmlns:xlink="http://www.w3.org/1999/xlink" x="0px" y="0px"
	 viewBox="0 0 36.41 36.409" enable-background="new 0 0 36.41 36.409" xml:space="preserve">
<path fill="#FFFFFF" d="M10.282,8.368l0.81-0.426l0.81,0.426l-0.154-0.902l0.655-0.639l-0.906-0.132l-0.405-0.82l-0.405,0.82
	L9.782,6.828l0.655,0.639L10.282,8.368z M18.272,8.599l-0.239-0.215l-0.237,0.217L8.274,19.346l-0.25,0.229l0.253,0.225l1.635,1.449
	l0.243,0.215l0.236-0.224l0.416-0.503v6.197H9.296v1.182H26.92v-1.182h-1.494v-6.177l0.371,0.44l0.23,0.212l0.24-0.202l1.682-1.426
	l0.266-0.226l-0.258-0.232L18.272,8.599z M20.756,26.934h-5.277v-5.471h5.277V26.934z M29.723,9.597l-2.059-0.299l-0.92-1.865
	l-0.92,1.865l-2.059,0.299l1.49,1.452l-0.352,2.049l1.84-0.968l1.842,0.968l-0.352-2.049L29.723,9.597z M8.641,13.359l1.227,0.645
	l-0.234-1.366l0.992-0.967l-1.371-0.199l-0.613-1.243l-0.613,1.243l-1.371,0.199l0.992,0.967l-0.234,1.366L8.641,13.359z"/>
</svg>
