<?xml version="1.0" encoding="utf-8"?>
<!-- Generator: Adobe Illustrator 16.0.0, SVG Export Plug-In . SVG Version: 6.00 Build 0)  -->
<!DOCTYPE svg PUBLIC "-//W3C//DTD SVG 1.1//EN" "http://www.w3.org/Graphics/SVG/1.1/DTD/svg11.dtd">
<svg version="1.1" id="Calque_1" xmlns="http://www.w3.org/2000/svg" xmlns:xlink="http://www.w3.org/1999/xlink" x="0px" y="0px"
	 viewBox="0 0 36.41 36.409" enable-background="new 0 0 36.41 36.409" xml:space="preserve">
<path fill="#FFFFFF" d="M26.2,10.99c0-0.008,0.005-0.016,0.005-0.024V10.93c0-0.433-0.354-0.786-0.785-0.786H24.98
	c-0.366,0-0.662,0.259-0.747,0.601h-2.315V9.633c0-1.022-0.832-1.855-1.855-1.855h-3.886c-1.022,0-1.855,0.833-1.855,1.855v1.111
	h-2.404c-0.086-0.341-0.382-0.601-0.749-0.601h-0.438c-0.432,0-0.786,0.354-0.786,0.786v0.036c0,0.018,0.009,0.032,0.01,0.05
	c-1.445,0.563-2.474,1.959-2.474,3.604v8.206c0,2.141,1.735,3.876,3.875,3.876h13.525c2.139,0,3.875-1.735,3.875-3.876v-8.206
	C28.758,12.944,27.688,11.531,26.2,10.99z M15.096,9.716c0-0.676,0.55-1.226,1.226-1.226h3.596c0.676,0,1.225,0.55,1.225,1.226
	v1.028h-6.046V9.716z M21.904,22.075c-1.666,2.536-4.119,1.976-5.714,1.065c-1.458,2.153-4.942,2.332-4.942,2.332l-0.298-2.144
	c0,0,3.136,0.85,4.486-0.688c-1.459-1.106-2.914-3.121-1.261-5.639c1.867-2.906,6.875-2.259,8.158-4.013
	C22.334,12.99,23.701,19.334,21.904,22.075z M16.113,21.877l0.625,0.536c0,0,3.605-3.191,5.019-7.436
	C21.146,16.124,18.402,19.896,16.113,21.877z M21.875,14.631c-0.035,0.117-0.079,0.231-0.117,0.347
	C21.866,14.774,21.916,14.643,21.875,14.631z"/>
</svg>
