<?xml version="1.0" encoding="utf-8"?>
<!-- Generator: Adobe Illustrator 16.0.0, SVG Export Plug-In . SVG Version: 6.00 Build 0)  -->
<!DOCTYPE svg PUBLIC "-//W3C//DTD SVG 1.1//EN" "http://www.w3.org/Graphics/SVG/1.1/DTD/svg11.dtd">
<svg version="1.1" id="Calque_1" xmlns="http://www.w3.org/2000/svg" xmlns:xlink="http://www.w3.org/1999/xlink" x="0px" y="0px"
	 viewBox="0 0 36.41 36.41" enable-background="new 0 0 36.41 36.41" xml:space="preserve">
<path fill="#FFFFFF" d="M31.125,17.479c-0.227-0.312-5.916-7.331-13.078-7.331c-7.161,0-12.851,7.02-13.077,7.274l-0.227,0.283
	l0.227,0.283c0.227,0.312,5.916,7.331,13.077,7.331c7.162,0,12.851-7.02,13.078-7.274l0.227-0.283L31.125,17.479z M18.047,24.211
	c-5.767,0-10.659-5.248-11.752-6.478c1.093-1.257,5.985-6.504,11.752-6.477c5.767,0,10.66,5.248,11.751,6.477
	C28.707,18.963,23.814,24.211,18.047,24.211z M18.047,12.773c-2.72,0-4.96,2.214-4.96,4.96c0,2.747,2.24,4.961,4.96,4.961
	s4.96-2.214,4.96-4.961C23.008,14.987,20.768,12.773,18.047,12.773z M18.047,19.727c-1.101,0-1.993-0.893-1.993-1.993
	c0-1.1,0.892-1.992,1.993-1.992c1.101,0,1.992,0.892,1.992,1.992C20.039,18.834,19.148,19.727,18.047,19.727z M17.821,9.176h0.425
	c0.276,0,0.5-0.224,0.5-0.5V5.195c0-0.276-0.224-0.5-0.5-0.5h-0.425c-0.276,0-0.5,0.224-0.5,0.5v3.481
	C17.321,8.953,17.544,9.176,17.821,9.176z M12.16,9.883c0.074,0.203,0.266,0.329,0.47,0.329c0.057,0,0.114-0.01,0.171-0.03
	l0.399-0.145c0.125-0.045,0.226-0.138,0.282-0.258s0.062-0.258,0.017-0.382l-1.19-3.271c-0.094-0.26-0.38-0.393-0.641-0.299
	l-0.399,0.145c-0.125,0.045-0.226,0.138-0.282,0.258s-0.062,0.258-0.017,0.382L12.16,9.883z M22.667,10.038l0.398,0.145
	c0.057,0.021,0.114,0.03,0.171,0.03c0.204,0,0.396-0.126,0.47-0.329l1.193-3.271c0.046-0.125,0.039-0.262-0.017-0.383
	c-0.056-0.12-0.157-0.213-0.282-0.258l-0.4-0.146c-0.26-0.094-0.545,0.04-0.641,0.299l-1.191,3.271
	c-0.046,0.125-0.039,0.262,0.017,0.382C22.44,9.899,22.542,9.992,22.667,10.038z M18.019,26.491h-0.424c-0.276,0-0.5,0.224-0.5,0.5
	v3.48c0,0.276,0.224,0.5,0.5,0.5h0.424c0.276,0,0.5-0.224,0.5-0.5v-3.48C18.519,26.714,18.295,26.491,18.019,26.491z M23.747,25.771
	c-0.095-0.26-0.381-0.394-0.641-0.299l-0.398,0.145c-0.124,0.045-0.226,0.138-0.282,0.258c-0.056,0.12-0.063,0.258-0.017,0.383
	l1.189,3.271c0.073,0.203,0.266,0.329,0.47,0.329c0.057,0,0.113-0.01,0.17-0.029l0.4-0.145c0.125-0.046,0.227-0.139,0.283-0.259
	c0.056-0.12,0.063-0.258,0.017-0.383L23.747,25.771z M13.166,25.617l-0.399-0.146c-0.125-0.046-0.262-0.039-0.383,0.017
	c-0.12,0.056-0.213,0.157-0.258,0.282l-1.189,3.272c-0.045,0.125-0.04,0.263,0.017,0.383s0.158,0.213,0.283,0.258l0.399,0.145
	c0.056,0.021,0.114,0.03,0.17,0.03c0.204,0,0.396-0.126,0.47-0.329l1.189-3.271C13.558,25.998,13.425,25.711,13.166,25.617z"/>
</svg>
