<?xml version="1.0" encoding="utf-8"?>
<!-- Generator: Adobe Illustrator 16.0.0, SVG Export Plug-In . SVG Version: 6.00 Build 0)  -->
<!DOCTYPE svg PUBLIC "-//W3C//DTD SVG 1.1//EN" "http://www.w3.org/Graphics/SVG/1.1/DTD/svg11.dtd">
<svg version="1.1" id="Calque_1" xmlns="http://www.w3.org/2000/svg" xmlns:xlink="http://www.w3.org/1999/xlink" x="0px" y="0px"
	 viewBox="0 0 36.41 36.41" enable-background="new 0 0 36.41 36.41" xml:space="preserve">
<path fill="#FFFFFF" d="M25.938,19.137c-0.527-0.875-1.371-1.578-2.355-1.827c-0.018-0.007-0.033-0.014-0.033-0.014l0.328-11.86
	l-2.238-0.412l0.377,12.282c-0.996,0.243-1.846,0.948-2.379,1.833c-0.661,1.098,0.508,10.818,0.508,10.818h0.76v-9.122h0.756v9.121
	h0.824v-9.123h0.752v9.123h0.855v-9.123h0.754v9.123h0.584C25.43,29.956,26.598,20.235,25.938,19.137z M14.362,6.948h-0.004
	c-0.002,0-0.002,0-0.005,0c-2.333,0.022-4.03,2.702-4.03,5.813c0,2.851,0.515,5.047,2.209,5.793
	c0.175,0.086,0.973,0.348,0.973,0.348l-0.424,13.072l2.598,0.703l-0.474-13.766c0,0,0.968-0.352,0.981-0.357
	c1.69-0.747,2.207-2.942,2.207-5.793C18.393,9.65,16.695,6.971,14.362,6.948z"/>
</svg>
