<?xml version="1.0" encoding="UTF-8" standalone="no"?>
<svg
   xmlns:dc="http://purl.org/dc/elements/1.1/"
   xmlns:cc="http://creativecommons.org/ns#"
   xmlns:rdf="http://www.w3.org/1999/02/22-rdf-syntax-ns#"
   xmlns:svg="http://www.w3.org/2000/svg"
   xmlns="http://www.w3.org/2000/svg"
   xml:space="preserve"
   enable-background="new 6.699 0 92.419 100"
   viewBox="6.699 0 92.419 100"
   height="100px"
   width="92.419px"
   y="0px"
   x="0px"
   id="svg30967"
   version="1.1"><metadata
     id="metadata9"><rdf:RDF><cc:Work
         rdf:about=""><dc:format>image/svg+xml</dc:format><dc:type
           rdf:resource="http://purl.org/dc/dcmitype/StillImage" /><dc:title></dc:title></cc:Work></rdf:RDF></metadata><defs
     id="defs7" /><g
     style="fill:#ffffff;fill-opacity:1"
     transform="matrix(0.72033898,0,0,0.72033898,14.796585,13.983051)"
     id="g4137"><path
       style="fill:#ffffff;fill-opacity:1"
       id="text3932"
       d="M 37.951,0 C 29.357,0 22.003,3.06 15.883,9.18 9.764,15.3 6.699,22.654 6.699,31.248 c 0,5.859 1.045,12.242 3.128,19.144 2.213,6.771 4.816,13.018 7.811,18.746 3.125,5.6 6.186,10.813 9.181,15.63 3.125,4.819 5.794,8.591 8.008,11.324 L 37.951,100 c 0.911,-1.041 2.019,-2.469 3.321,-4.292 1.433,-1.823 3.91,-5.409 7.426,-10.747 2.738,-4.107 5.217,-8.141 7.441,-12.1 l -19.136,5.721 9.814,-25.834 -2.593,-3.753 c -1.947,0.671 -4.038,1.008 -6.272,1.007 -5.208,0 -9.635,-1.824 -13.281,-5.47 -3.646,-3.646 -5.47,-8.076 -5.47,-13.284 0,-5.209 1.823,-9.631 5.47,-13.277 3.646,-3.646 8.072,-5.474 13.281,-5.474 5.208,0 9.638,1.828 13.284,5.474 3.646,3.646 5.467,8.068 5.467,13.277 0,0.01 0,0.021 0,0.031 l 2.006,0.098 8.547,-11.203 C 65.736,16.15 63.327,12.484 60.025,9.179 53.902,3.06 46.545,0 37.951,0 Z" /><path
       style="fill:#ffffff;fill-opacity:1"
       id="path3930-1"
       d="M 73.062,19.216 59.948,36.402 38.358,35.341 50.648,53.12 42.97,73.328 63.678,67.135 80.523,80.681 81.032,59.073 99.119,47.238 78.726,40.078 73.062,19.216 Z" /></g></svg>