<?xml version="1.0" encoding="UTF-8" standalone="no"?>
<svg
   xmlns:dc="http://purl.org/dc/elements/1.1/"
   xmlns:cc="http://creativecommons.org/ns#"
   xmlns:rdf="http://www.w3.org/1999/02/22-rdf-syntax-ns#"
   xmlns:svg="http://www.w3.org/2000/svg"
   xmlns="http://www.w3.org/2000/svg"
   xml:space="preserve"
   enable-background="new 0 0 100 100"
   viewBox="0 0 100 100"
   height="100px"
   width="100px"
   y="0px"
   x="0px"
   id="Livello_1"
   version="1.1"><metadata
     id="metadata13"><rdf:RDF><cc:Work
         rdf:about=""><dc:format>image/svg+xml</dc:format><dc:type
           rdf:resource="http://purl.org/dc/dcmitype/StillImage" /><dc:title></dc:title></cc:Work></rdf:RDF></metadata><defs
     id="defs11" /><g
     style="fill:#ffffff;fill-opacity:1"
     id="g4141"><path
       style="fill:#ffffff;fill-opacity:1"
       d="M62.511,35.453c-0.008-4.862-3.961-8.813-8.828-8.826c-4.882,0.014-8.833,3.964-8.829,8.826  c-0.004,4.891,3.947,8.838,8.829,8.828C58.55,44.291,62.503,40.342,62.511,35.453z"
       id="path3" /><path
       style="fill:#ffffff;fill-opacity:1"
       d="M85.527,75.778V18.881c0-0.797-0.819-1.279-1.617-1.279H35.044c-0.797,0-1.427,0.482-1.427,1.279v26.383  c0,0.797,0.675,1.443,1.473,1.443c0.797,0,1.473-0.646,1.473-1.443V20.179h46.02v55.592h-46.02v-4.535  c0-0.795-0.676-1.441-1.473-1.441c-0.798,0-1.473,0.646-1.473,1.441v4.535H14.52c-0.976,0-1.52,0.943-1.52,1.92v3.021  c0,0.977,0.544,1.686,1.52,1.686h70.712c0.976,0,1.768-0.709,1.768-1.686V77.69C87,76.755,86.264,75.853,85.527,75.778z"
       id="path5" /><path
       style="fill:#ffffff;fill-opacity:1"
       d="M15.182,53.313h13.779c-0.046,1.104,0.18,1.738,0.788,2.604l8.578,11.481c2.203,3.035,5.041,2.229,6.148-1.305l2.377-8.363  h0.46l0.037,16.936h18.907l0.084-16.936h0.356l4.237,16.936h7.027l-5.218-21.249c-0.865-3.139-4.935-8.204-10.128-8.204H51.66  c-5.814,0-9.689,4.597-10.852,9.088c0,0-0.99,3.881-0.984,3.773l-5.216-6.685c-1.036-1.244-2.464-1.437-3.568-1.038v-5.868  c0-1.024-0.639-1.848-1.567-1.848H15.182c-0.929,0-1.446,0.823-1.446,1.848v7.409C13.736,52.917,14.253,53.313,15.182,53.313z"
       id="path7" /></g></svg>