<?xml version="1.0" encoding="UTF-8" standalone="no"?>
<!-- Created with Inkscape (http://www.inkscape.org/) -->

<svg
   xmlns:dc="http://purl.org/dc/elements/1.1/"
   xmlns:cc="http://creativecommons.org/ns#"
   xmlns:rdf="http://www.w3.org/1999/02/22-rdf-syntax-ns#"
   xmlns:svg="http://www.w3.org/2000/svg"
   xmlns="http://www.w3.org/2000/svg"
   version="1.1"
   width="128"
   height="128"
   id="svg3041">
  <defs
     id="defs3043" />
  <metadata
     id="metadata3046">
    <rdf:RDF>
      <cc:Work
         rdf:about="">
        <dc:format>image/svg+xml</dc:format>
        <dc:type
           rdf:resource="http://purl.org/dc/dcmitype/StillImage" />
        <dc:title></dc:title>
      </cc:Work>
    </rdf:RDF>
  </metadata>
  <g
     transform="translate(0,-924.36218)"
     id="layer1">
    <g
       transform="translate(-0.50507977,-0.2525381)"
       id="g34599">
      <path
         d="m 90.03159,941.27162 c 0,4.95349 -4.007949,8.96799 -8.96579,8.96799 -4.949064,0 -8.959208,-4.0145 -8.959208,-8.96799 0,-4.949 4.012337,-8.96356 8.959208,-8.96356 4.957841,0 8.96579,4.01456 8.96579,8.96356 z"
         id="path239-5-3"
         style="display:inline;filter:url(#filter7726-8);enable-background:new" />
      <path
         d="M 100.0394,979.00604 85.422557,973.8003 78.863291,955.79414 c -1.629946,-3.14582 -4.251457,-5.33513 -7.34023,-5.90332 -7.248096,-1.35354 -9.777472,6.92122 -9.777472,6.92122 l -5.396582,22.67661 15.312256,-8.93283 -1.390827,-3.00764 c -0.304913,-0.65556 -0.01784,-1.43032 0.636195,-1.72645 0.651527,-0.30927 1.425931,-0.0264 1.730858,0.63375 l 1.82738,3.94214 c 0.0022,0.0132 0.01124,0.0198 0.0152,0.0265 0.0152,0.0198 0.0152,0.0397 0.02181,0.0661 l 3.529715,7.61003 0.353222,0.72177 c 0.20843,0.40575 0.952078,1.16705 1.647491,1.45221 l 14.19568,5.41634 -9.066701,15.58643 -11.887845,-11.16168 2.380203,-10.93136 -2.89134,-6.24558 -17.249329,10.06268 -6.675527,28.02934 -14.132035,22.1106 c -0.522133,0.7349 -0.787548,1.6124 -0.787548,2.661 -0.206184,1.7703 0.265461,3.306 1.410573,4.6178 1.142931,1.3009 2.61054,2.0533 4.380883,2.2683 2.608347,0.2016 4.591482,-0.8423 5.945017,-3.1348 l 15.075336,-23.6595 c 0.309342,-0.6317 0.72613,-1.5093 1.252625,-2.6741 l 2.992248,-12.625 13.934593,11.4295 -16.468357,28.31 c -0.449704,0.7766 -0.18649,1.777 0.587953,2.2311 0.258853,0.1533 0.537465,0.226 0.818265,0.226 0.561585,0 1.110027,-0.294 1.412766,-0.8139 l 14.070602,-24.1925 -0.01983,19.1798 c 0.631767,3.0274 2.560092,4.6968 5.79365,5.0127 1.772537,0.1051 3.310348,-0.4144 4.615615,-1.5641 1.300886,-1.1583 2.005075,-2.5623 2.105986,-4.2274 0,-0.3178 0,-0.7787 0,-1.4105 l -0.116243,-23.9226 c 0,-1.8889 -0.436553,-3.7732 -1.638722,-4.9711 l -2.459174,-2.3231 9.808183,-16.86989 c 2.603976,0.15596 4.477416,-1.32717 4.856936,-3.90261 0.25231,-1.69579 -0.88408,-3.26649 -2.23762,-3.77547 z"
         id="path241-1-6"
         style="display:inline;filter:url(#filter7726-8);enable-background:new" />
      <path
         d="m 49.495786,934.60932 c -7.087954,-1.71992 -14.206624,2.63465 -15.915542,9.71164 l -5.745389,23.75372 19.33557,4.80428 -0.636195,2.5601 -19.322405,-4.79991 -1.873448,7.74173 c -1.377663,5.66416 1.004728,8.41077 6.679922,9.87394 0.829227,0.21742 9.906898,2.30781 13.526555,3.14146 l -1.432506,5.74098 c -0.221581,0.87749 0.315883,1.77689 1.199974,1.99631 0.138183,0.0328 0.570375,0.12685 0.706384,0.12685 0.734898,-0.01 1.397408,-0.5042 1.583872,-1.2504 L 59.207431,950.5245 c 1.708918,-7.07698 -2.634675,-14.20446 -9.711659,-15.91551 z m 0.842392,27.27906 -14.050864,-3.51219 2.845273,-11.78696 2.349487,0.56569 -2.283673,9.45715 9.386986,2.34513 2.358262,-9.35848 2.342906,0.59014 -2.948377,11.69919 z"
         id="path243-2-3"
         style="display:inline;filter:url(#filter7726-8);enable-background:new" />
    </g>
  </g>
</svg>
