<?xml version="1.0" encoding="utf-8"?>
<!-- Generator: Adobe Illustrator 18.0.0, SVG Export Plug-In . SVG Version: 6.00 Build 0)  -->
<!DOCTYPE svg PUBLIC "-//W3C//DTD SVG 1.1//EN" "http://www.w3.org/Graphics/SVG/1.1/DTD/svg11.dtd">
<svg version="1.1" xmlns="http://www.w3.org/2000/svg" xmlns:xlink="http://www.w3.org/1999/xlink" x="0px" y="0px"
	 viewBox="0 0 56 56" enable-background="new 0 0 56 56" xml:space="preserve">
<g id="_x31_">
</g>
<g id="_x32_">
</g>
<g id="_x33_">
	<g>
		<path fill="#FFFFFF" d="M28,52C14.8,52,4,41.2,4,28S14.8,4,28,4s24,10.8,24,24S41.2,52,28,52z"/>
		<path fill="#D32F2F" d="M28,7c11.6,0,21,9.4,21,21s-9.4,21-21,21S7,39.6,7,28S16.4,7,28,7 M28,1C13.1,1,1,13.1,1,28
			c0,14.9,12.1,27,27,27s27-12.1,27-27C55,13.1,42.9,1,28,1L28,1z"/>
	</g>
	<g>
		<rect x="2.3" y="12.2" fill="none" width="51.5" height="30.3"/>
		<path fill="#E53935" d="M36.3,19.4c0,1.6-0.5,3-1.5,4.1s-2.4,2-4.2,2.5v0.1c4.3,0.5,6.4,2.6,6.4,6.1c0,2.4-0.9,4.3-2.8,5.6
			s-4.5,2.1-7.9,2.1c-1.4,0-2.7-0.1-3.8-0.3s-2.5-0.6-3.8-1.1v-5.8c1.1,0.6,2.3,1,3.4,1.3s2.2,0.4,3.2,0.4c1.5,0,2.6-0.2,3.3-0.6
			s1-1.1,1-2c0-0.7-0.2-1.2-0.5-1.6s-0.9-0.7-1.8-0.9S25.6,29,24.3,29h-1.6v-5.2h1.6c3.5,0,5.3-0.9,5.3-2.7c0-0.7-0.3-1.2-0.8-1.5
			s-1.2-0.5-2.1-0.5c-1.6,0-3.3,0.6-5.1,1.7l-2.9-4.6c1.4-0.9,2.8-1.6,4.2-2s3.1-0.6,4.9-0.6c2.7,0,4.7,0.5,6.3,1.6
			S36.3,17.6,36.3,19.4z"/>
	</g>
</g>
<g id="_x34_">
</g>
<g id="_x35_">
</g>
</svg>
