<?xml version="1.0" encoding="utf-8"?>
<!-- Generator: Adobe Illustrator 18.0.0, SVG Export Plug-In . SVG Version: 6.00 Build 0)  -->
<!DOCTYPE svg PUBLIC "-//W3C//DTD SVG 1.1//EN" "http://www.w3.org/Graphics/SVG/1.1/DTD/svg11.dtd">
<svg version="1.1" xmlns:rdf="http://www.w3.org/1999/02/22-rdf-syntax-ns#" xmlns:cc="http://creativecommons.org/ns#" xmlns:svg="http://www.w3.org/2000/svg" xmlns:dc="http://purl.org/dc/elements/1.1/"
	 xmlns="http://www.w3.org/2000/svg" xmlns:xlink="http://www.w3.org/1999/xlink" x="0px" y="0px" width="128px" height="128px"
	 viewBox="0 0 128 128" enable-background="new 0 0 128 128" xml:space="preserve">
<g class="base">
	<path d="M87.4,14.9c0,5.3-4.3,9.5-9.5,9.5c-5.3,0-9.5-4.3-9.5-9.5c0-5.3,4.3-9.5,9.5-9.5C83.2,5.4,87.4,9.6,87.4,14.9z"/>
	<g>
		<path d="M95.3,63.1c2.8,0.2,4.8-1.4,5.2-4.1c0.3-1.8-0.9-3.5-2.4-4l-15.5-5.5l-7-19.1C73.8,27,71,24.6,67.8,24
			c-7.7-1.4-10.4,7.4-10.4,7.4l-6.6,27.8l0,0L43.7,89l-15,23.5c-0.6,0.8-0.8,1.7-0.8,2.8c-0.2,1.9,0.3,3.5,1.5,4.9
			c1.2,1.4,2.8,2.2,4.7,2.4c2.8,0.2,4.9-0.9,6.3-3.3l16-25.1c0.3-0.7,0.8-1.6,1.3-2.8l3.2-13.4L75.6,90c0,0,0.7,0.8,0.4,26.5
			c0.7,3.2,2.7,5,6.2,5.3c1.9,0.1,3.5-0.4,4.9-1.7c1.4-1.2,2.1-2.7,2.2-4.5c0-0.3,0-0.8,0-1.5l-0.1-25.4c0-2-0.5-4-1.7-5.3L84.8,81
			l0,0L69.6,66.8l2.5-11.6l-3.1-6.6l0,0l-2.6-5.7c-0.3-0.7,0-1.5,0.7-1.8c0.7-0.3,1.5,0,1.8,0.7l1.9,4.2c0,0,0,0,0,0c0,0,0,0,0,0.1
			l3.7,8.1l0.4,0.8c0.2,0.4,4.7,2.2,5.4,2.5L95.3,63.1"/>
	</g>
</g>
</svg>
