<?xml version="1.0" encoding="utf-8"?>
<!-- Generator: Adobe Illustrator 18.0.0, SVG Export Plug-In . SVG Version: 6.00 Build 0)  -->
<!DOCTYPE svg PUBLIC "-//W3C//DTD SVG 1.1//EN" "http://www.w3.org/Graphics/SVG/1.1/DTD/svg11.dtd">
<svg version="1.1" xmlns="http://www.w3.org/2000/svg" xmlns:xlink="http://www.w3.org/1999/xlink" x="0px" y="0px"
	 viewBox="0 0 56 56" enable-background="new 0 0 56 56" xml:space="preserve">
<g id="_x31_">
	<g>
		<path fill="#FFFFFF" d="M28,52C14.8,52,4,41.2,4,28S14.8,4,28,4c13.2,0,24,10.8,24,24S41.2,52,28,52z"/>
		<path fill="#43A047" d="M28,7c11.6,0,21,9.4,21,21s-9.4,21-21,21S7,39.6,7,28S16.4,7,28,7 M28,1C13.1,1,1,13.1,1,28
			c0,14.9,12.1,27,27,27s27-12.1,27-27C55,13.1,42.9,1,28,1L28,1z"/>
	</g>
	<g>
		<rect x="1" y="13.2" fill="none" width="51.5" height="30.3"/>
		<path fill="#43A047" d="M32.7,40.5h-7V26.9c0-1.7,0-3.2,0.1-4.5c-0.4,0.5-1,1.1-1.6,1.7l-2.9,2.4L17.7,22l8.8-7.2h6.3V40.5z"/>
	</g>
</g>
<g id="_x32_">
</g>
<g id="_x33_">
</g>
<g id="_x34_">
</g>
<g id="_x35_">
</g>
</svg>
