<?xml version="1.0" encoding="utf-8"?>
<!-- Generator: Adobe Illustrator 18.0.0, SVG Export Plug-In . SVG Version: 6.00 Build 0)  -->
<!DOCTYPE svg PUBLIC "-//W3C//DTD SVG 1.1//EN" "http://www.w3.org/Graphics/SVG/1.1/DTD/svg11.dtd">
<svg version="1.1" xmlns="http://www.w3.org/2000/svg" xmlns:xlink="http://www.w3.org/1999/xlink" x="0px" y="0px"
	 viewBox="0 0 56 56" enable-background="new 0 0 56 56" xml:space="preserve">
<g id="_x31_">
</g>
<g id="_x32_">
	<g>
		<path fill="#FFFFFF" d="M28,52C14.8,52,4,41.2,4,28S14.8,4,28,4s24,10.8,24,24S41.2,52,28,52z"/>
		<path fill="#039BE5" d="M28,7c11.6,0,21,9.4,21,21s-9.4,21-21,21S7,39.6,7,28S16.4,7,28,7 M28,1C13.1,1,1,13.1,1,28
			c0,14.9,12.1,27,27,27c14.9,0,27-12.1,27-27C55,13.1,42.9,1,28,1L28,1z"/>
	</g>
	<g>
		<rect x="2.3" y="12.2" fill="none" width="51.5" height="30.3"/>
		<path fill="#039BE5" d="M37.2,39.5H18.5V35l6.3-6.3c1.8-1.9,3-3.2,3.5-3.8s0.9-1.3,1.2-1.8s0.3-1,0.3-1.5c0-0.7-0.2-1.2-0.7-1.6
			s-1-0.6-1.8-0.6c-0.8,0-1.6,0.2-2.5,0.7s-1.8,1.1-2.8,2l-3.8-4.5c1.3-1.2,2.4-2,3.3-2.5s1.9-0.9,2.9-1.2s2.3-0.4,3.6-0.4
			c1.7,0,3.1,0.3,4.5,0.9s2.3,1.4,3,2.5s1.1,2.3,1.1,3.6c0,1-0.1,1.9-0.4,2.8s-0.6,1.7-1.2,2.5s-1.2,1.7-2.1,2.6s-2.7,2.6-5.6,5.2
			v0.2h9.7V39.5z"/>
	</g>
</g>
<g id="_x33_">
</g>
<g id="_x34_">
</g>
<g id="_x35_">
</g>
</svg>
