<?xml version="1.0" encoding="utf-8"?>
<!-- Generator: Adobe Illustrator 18.0.0, SVG Export Plug-In . SVG Version: 6.00 Build 0)  -->
<!DOCTYPE svg PUBLIC "-//W3C//DTD SVG 1.1//EN" "http://www.w3.org/Graphics/SVG/1.1/DTD/svg11.dtd">
<svg version="1.1" xmlns="http://www.w3.org/2000/svg" xmlns:xlink="http://www.w3.org/1999/xlink" x="0px" y="0px"
	 viewBox="0 0 56 56" enable-background="new 0 0 56 56" xml:space="preserve">
<g id="_x31_">
</g>
<g id="_x32_">
</g>
<g id="_x33_">
</g>
<g id="_x34_">
</g>
<g id="_x35_">
	<g>
		<path fill="#FDD835" d="M28,52C14.8,52,4,41.2,4,28S14.8,4,28,4s24,10.8,24,24S41.2,52,28,52z"/>
		<path fill="#212121" d="M28,7c11.6,0,21,9.4,21,21s-9.4,21-21,21S7,39.6,7,28S16.4,7,28,7 M28,1C13.1,1,1,13.1,1,28
			c0,14.9,12.1,27,27,27s27-12.1,27-27C55,13.1,42.9,1,28,1L28,1z"/>
	</g>
	<g>
		<rect x="2.3" y="13.2" fill="none" width="51.5" height="30.3"/>
		<path fill="#212121" d="M29.1,23.7c1.5,0,2.8,0.3,4,1s2.1,1.7,2.8,2.9s1,2.7,1,4.3c0,2.9-0.9,5.1-2.6,6.6s-4.3,2.3-7.8,2.3
			c-3,0-5.4-0.5-7.3-1.4v-5.7c1,0.5,2.2,0.9,3.5,1.2s2.4,0.5,3.3,0.5c1.3,0,2.3-0.3,3-0.8s1-1.4,1-2.4c0-1-0.4-1.8-1.1-2.3
			s-1.8-0.8-3.2-0.8c-1.1,0-2.3,0.2-3.5,0.6l-2.5-1.3l1-13.6h14.7v5.8h-8.8L26.1,24c0.9-0.2,1.6-0.3,2-0.3S28.8,23.7,29.1,23.7z"/>
	</g>
</g>
</svg>
