<?xml version="1.0" encoding="UTF-8" standalone="no"?>
<!-- Created with Inkscape (http://www.inkscape.org/) -->

<svg
   xmlns:dc="http://purl.org/dc/elements/1.1/"
   xmlns:cc="http://creativecommons.org/ns#"
   xmlns:rdf="http://www.w3.org/1999/02/22-rdf-syntax-ns#"
   xmlns:svg="http://www.w3.org/2000/svg"
   xmlns="http://www.w3.org/2000/svg"
   version="1.1"
   width="128"
   height="128"
   id="svg3041">
  <defs
     id="defs3043" />
  <metadata
     id="metadata3046">
    <rdf:RDF>
      <cc:Work
         rdf:about="">
        <dc:format>image/svg+xml</dc:format>
        <dc:type
           rdf:resource="http://purl.org/dc/dcmitype/StillImage" />
        <dc:title></dc:title>
      </cc:Work>
    </rdf:RDF>
  </metadata>
  <g
     transform="translate(0,-924.36218)"
     id="layer1">
    <g
       transform="matrix(6.6666463,0,0,6.6666463,-700.34047,-5898.4301)"
       id="g34656">
      <path
         d="m 107.43905,1031.5708 -0.92012,-0.5381 c -0.24289,-0.1275 -0.29295,-0.3093 -0.15018,-0.55 l 1.7225,-2.9318 c 0.1284,-0.2408 0.31381,-0.2901 0.55763,-0.1485 l 0.92013,0.539 c 0.24196,0.1252 0.29249,0.3093 0.14925,0.5478 l -1.72157,2.9345 c -0.1284,0.2394 -0.31428,0.2882 -0.55764,0.1471 z"
         id="path245-2-0"
         style="display:inline;filter:url(#filter7726-23);enable-background:new" />
      <path
         d="m 110.2263,1034.4871 0.0218,2.5983 c 0,0.1411 -0.0292,0.275 -0.0862,0.4002 l -1.53338,3.1579 c -0.18542,0.3809 -0.50757,0.5358 -0.96508,0.4664 -0.2721,-0.043 -0.48579,-0.1668 -0.64293,-0.3719 -0.1576,-0.2023 -0.21415,-0.4394 -0.17197,-0.7057 0.0144,-0.085 0.0496,-0.1919 0.10754,-0.318 l 1.38273,-2.861 -0.064,-4.2017 c -0.0148,-0.3097 0.044,-0.5696 0.17661,-0.7821 l 1.95473,-3.3141 c 0.38567,-0.651 0.96323,-0.9209 1.73456,-0.8081 0.44175,0.071 0.78476,0.2458 1.02719,0.5281 l 1.75542,2.0922 2.31258,0.6756 c 0.34256,0.1128 0.51314,0.3453 0.51314,0.6975 0,0.1978 -0.0709,0.3728 -0.21416,0.529 -0.1423,0.1549 -0.31427,0.2307 -0.51452,0.2307 -0.0575,0 -0.12238,-0.015 -0.19191,-0.042 l -2.67878,-0.7615 c -0.11542,-0.042 -0.20071,-0.1051 -0.25726,-0.1891 l -0.70782,-0.8876 -1.41471,2.4298 2.22961,0.9935 c 0.29991,0.1275 0.47744,0.3513 0.53538,0.6756 l 0.49274,3.0625 c 0.0422,0.312 -0.0533,0.5747 -0.28924,0.7939 -0.23594,0.2166 -0.51082,0.3061 -0.82603,0.2627 -0.45658,-0.07 -0.71384,-0.3179 -0.77039,-0.7391 l -0.40745,-2.5353 -2.5082,-1.0772 z"
         id="path247-2-2"
         style="display:inline;filter:url(#filter7726-23);enable-background:new" />
      <path
         d="m 123.3671,1028.306 v 12.0346 c 0,0.1951 -0.0681,0.4504 -0.20396,0.5843 -0.13581,0.1338 -0.30268,0.201 -0.50247,0.201 h -11.25513 l -0.0431,-0.852 4.60894,-1.1173 0.17198,-1.2681 2.42939,-0.9612 0.34255,-1.0767 -0.7792,-2.6522 1.30717,-2.692 3.92384,-2.2004 z"
         id="path249-9-7"
         style="display:inline;filter:url(#filter7726-23);enable-background:new" />
      <circle
         cx="24.629999"
         cy="17.812"
         r="3.118"
         transform="matrix(0.46353667,0,0,0.4568087,102.1997,1018.1026)"
         id="circle251-7-8"
         style="display:inline;filter:url(#filter7726-23);enable-background:new" />
    </g>
  </g>
</svg>
