<?xml version="1.0" encoding="utf-8"?>
<!-- Generator: Adobe Illustrator 18.0.0, SVG Export Plug-In . SVG Version: 6.00 Build 0)  -->
<!DOCTYPE svg PUBLIC "-//W3C//DTD SVG 1.1//EN" "http://www.w3.org/Graphics/SVG/1.1/DTD/svg11.dtd">
<svg version="1.1" xmlns="http://www.w3.org/2000/svg" xmlns:xlink="http://www.w3.org/1999/xlink" x="0px" y="0px"
	 viewBox="0 0 56 56" enable-background="new 0 0 56 56" xml:space="preserve">
<g id="_x31_">
</g>
<g id="_x32_">
</g>
<g id="_x33_">
</g>
<g id="_x34_">
	<g>
		<path fill="#FFFFFF" d="M28,52C14.8,52,4,41.2,4,28S14.8,4,28,4s24,10.8,24,24S41.2,52,28,52z"/>
		<path fill="#212121" d="M28,7c11.6,0,21,9.4,21,21s-9.4,21-21,21S7,39.6,7,28S16.4,7,28,7 M28,1C13.1,1,1,13.1,1,28
			c0,14.9,12.1,27,27,27s27-12.1,27-27C55,13.1,42.9,1,28,1L28,1z"/>
	</g>
	<g>
		<rect x="1" y="12.2" fill="none" width="51.5" height="30.3"/>
		<path fill="#212121" d="M36.7,34.6h-2.8v5h-6.9v-5H16.8v-5.1l10.7-15.6h6.4v15.5h2.8V34.6z M27.1,29.4v-3c0-0.6,0-1.3,0.1-2.3
			s0.1-1.5,0.1-1.5H27c-0.4,0.9-0.8,1.7-1.4,2.5l-2.8,4.2H27.1z"/>
	</g>
</g>
<g id="_x35_">
</g>
</svg>
