<?xml version="1.0" encoding="utf-8"?>
<!-- Generator: Adobe Illustrator 18.0.0, SVG Export Plug-In . SVG Version: 6.00 Build 0)  -->
<!DOCTYPE svg PUBLIC "-//W3C//DTD SVG 1.1//EN" "http://www.w3.org/Graphics/SVG/1.1/DTD/svg11.dtd">
<svg version="1.1"
	 id="active" xmlns:rdf="http://www.w3.org/1999/02/22-rdf-syntax-ns#" xmlns:cc="http://creativecommons.org/ns#" xmlns:dc="http://purl.org/dc/elements/1.1/" xmlns:svg="http://www.w3.org/2000/svg"
	 xmlns="http://www.w3.org/2000/svg" xmlns:xlink="http://www.w3.org/1999/xlink" x="0px" y="0px" width="128px" height="128px"
	 viewBox="0 0 128 128" enable-background="new 0 0 128 128" xml:space="preserve">
<g class="base">
	<path d="M15.9,54.3l-6.1-3.6c-1.6-0.8-2-2.1-1-3.7l11.5-19.5c0.9-1.6,2.1-1.9,3.7-1l6.1,3.6
		c1.6,0.8,1.9,2.1,1,3.7L19.6,53.3C18.8,54.9,17.5,55.3,15.9,54.3L15.9,54.3z"/>
	<path d="M34.5,73.8l0.1,17.3c0,0.9-0.2,1.8-0.6,2.7l-10.2,21.1c-1.2,2.5-3.4,3.6-6.4,3.1
		c-1.8-0.3-3.2-1.1-4.3-2.5c-1.1-1.3-1.4-2.9-1.1-4.7c0.1-0.6,0.3-1.3,0.7-2.1l9.2-19.1l-0.4-28c-0.1-2.1,0.3-3.8,1.2-5.2l13-22.1
		c2.6-4.3,6.4-6.1,11.6-5.4c2.9,0.5,5.2,1.6,6.8,3.5l11.7,13.9l15.4,4.5c2.3,0.8,3.4,2.3,3.4,4.7c0,1.3-0.5,2.5-1.4,3.5
		c-0.9,1-2.1,1.5-3.4,1.5c-0.4,0-0.8-0.1-1.3-0.3l-17.9-5.1c-0.8-0.3-1.3-0.7-1.7-1.3L54.2,48l-9.4,16.2l14.9,6.6
		c2,0.8,3.2,2.3,3.6,4.5l3.3,20.4c0.3,2.1-0.4,3.8-1.9,5.3c-1.6,1.4-3.4,2-5.5,1.8c-3-0.5-4.8-2.1-5.1-4.9l-2.7-16.9L34.5,73.8
		L34.5,73.8z"/>
	<path d="M122.1,32.6v80.2c0,1.3-0.5,3-1.4,3.9c-0.9,0.9-2,1.3-3.3,1.3h-75l-0.3-5.7l30.7-7.4l1.1-8.5L90.1,90
		l2.3-7.2l-5.2-17.7l8.7-17.9L122.1,32.6L122.1,32.6z"/>
	<ellipse cx="57.1" cy="18.8" rx="9.6" ry="9.5"/>
</g>
</svg>
