<?xml version="1.0" encoding="utf-8"?>
<!-- Generator: Adobe Illustrator 18.0.0, SVG Export Plug-In . SVG Version: 6.00 Build 0)  -->
<!DOCTYPE svg PUBLIC "-//W3C//DTD SVG 1.1//EN" "http://www.w3.org/Graphics/SVG/1.1/DTD/svg11.dtd">
<svg version="1.1"
	 id="medium" xmlns:cc="http://creativecommons.org/ns#" xmlns:dc="http://purl.org/dc/elements/1.1/" xmlns:rdf="http://www.w3.org/1999/02/22-rdf-syntax-ns#" xmlns:svg="http://www.w3.org/2000/svg"
	 xmlns="http://www.w3.org/2000/svg" xmlns:xlink="http://www.w3.org/1999/xlink" x="0px" y="0px" width="128px" height="128px"
	 viewBox="0 0 128 128" enable-background="new 0 0 128 128" xml:space="preserve">
<g class="base">
	<path d="M95.3,54.5l-14.5-5.2l-6.5-17.9c-1.6-3.1-4.2-5.3-7.3-5.9c-7.2-1.3-9.7,6.9-9.7,6.9L52,54.9l15.2-8.9
		l-1.4-3c-0.3-0.6,0-1.4,0.6-1.7c0.6-0.3,1.4,0,1.7,0.6l1.8,3.9c0,0,0,0,0,0c0,0,0,0,0,0.1l3.5,7.6l0.4,0.7c0.2,0.4,4.4,2.1,5.1,2.4
		l13.8,5.5L83,78.8L68.8,65.5l2.4-10.8l-2.9-6.2l-17.1,10l-6.6,27.8l-14,21.9c-0.5,0.7-0.8,1.6-0.8,2.6c-0.2,1.8,0.3,3.3,1.4,4.6
		c1.1,1.3,2.6,2,4.3,2.3c2.6,0.2,4.6-0.8,5.9-3.1l15-23.5c0.3-0.6,0.7-1.5,1.2-2.7l3-12.5l13.8,11.3c0,0,0.6,0.8,0.4,24.7
		c0.6,3,2.5,4.7,5.7,5c1.8,0.1,3.3-0.4,4.6-1.6c1.3-1.1,2-2.5,2.1-4.2c0-0.3,0-0.8,0-1.4l-0.1-23.7c0-1.9-0.4-3.7-1.6-4.9L83,78.8
		l9.7-16.7c2.6,0.2,4.4-1.3,4.8-3.9C97.8,56.5,96.7,55,95.3,54.5z"/>
	<path d="M55.6,23.7c0.1-4.8-3.8-8.6-8.5-8.7c-4.2,0-7.7,2.9-8.5,6.9L29.8,56c-0.1,0.4-0.1,0.8-0.2,1.2
		c0,0.2,0,0.4,0,0.6c-0.1,4.8,3.8,8.7,8.5,8.7c3.6,0,7-2.3,8-5.1c0.2-0.6,9.2-35.5,9.2-35.6C55.5,25.1,55.6,24.4,55.6,23.7z"/>
	<path d="M85.4,17c0,4.9-4,8.9-8.9,8.9c-4.9,0-8.9-4-8.9-8.9c0-4.9,4-8.9,8.9-8.9C81.4,8.1,85.4,12.1,85.4,17z"/>
</g>
</svg>
