<?xml version="1.0" encoding="utf-8"?><!DOCTYPE svg PUBLIC "-//W3C//DTD SVG 1.0//EN" "http://www.w3.org/TR/2001/REC-SVG-20010904/DTD/svg10.dtd"><svg version="1.0" xmlns="http://www.w3.org/2000/svg" xmlns:xlink="http://www.w3.org/1999/xlink" x="0px" y="0px" viewBox="0 0 76.536 100" enable-background="new 0 0 76.536 100" xml:space="preserve"><path d="M12.57,49.162V33.24c1.861-7.449,7.169-11.173,15.921-11.173h11.174c0-2.314,1.876-4.19,4.189-4.19l0,0V6.704H32.682
	c-1.852,0-3.353-1.5-3.353-3.352C29.329,1.501,30.83,0,32.682,0h29.329c1.852,0,3.353,1.501,3.353,3.352
	c0,1.852-1.501,3.352-3.353,3.352H50.838v11.173c2.314,0,4.19,1.875,4.19,4.19l0,0h15.362v-9.777c0-1.08,0.876-1.956,1.956-1.956
	h4.189v33.52h-4.189c-1.08,0-1.956-0.875-1.956-1.956v-9.776H55.028c0,2.314-1.876,4.19-4.19,4.19l0,0h-6.983
	c-2.313,0-4.189-1.876-4.189-4.19l0,0H28.491c-2.776,0-5.027,2.251-5.027,5.028v12.011H12.57z M0,58.379L4.749,100h25.418
	l4.749-41.62H0z M3.91,62.011h27.096l-0.839,8.38H5.028"></path></svg>