<?xml version="1.0" encoding="UTF-8" standalone="no"?>
<!-- Created with Inkscape (http://www.inkscape.org/) -->

<svg
   xmlns:dc="http://purl.org/dc/elements/1.1/"
   xmlns:cc="http://creativecommons.org/ns#"
   xmlns:rdf="http://www.w3.org/1999/02/22-rdf-syntax-ns#"
   xmlns:svg="http://www.w3.org/2000/svg"
   xmlns="http://www.w3.org/2000/svg"
   version="1.1"
   width="128"
   height="128"
   id="svg3041">
  <defs
     id="defs3043">
    <filter
       color-interpolation-filters="sRGB"
       id="filter66799">
      <feGaussianBlur
         id="feGaussianBlur66801"
         result="result6"
         stdDeviation="1.5" />
      <feComposite
         in2="result6"
         operator="atop"
         in="SourceGraphic"
         result="result8"
         id="feComposite66803" />
      <feComposite
         in2="SourceAlpha"
         operator="atop"
         in="result8"
         result="result9"
         id="feComposite66805" />
    </filter>
    <filter
       color-interpolation-filters="sRGB"
       id="filter66863">
      <feGaussianBlur
         id="feGaussianBlur66865"
         result="result6"
         stdDeviation="1.5" />
      <feComposite
         in2="result6"
         operator="atop"
         in="SourceGraphic"
         result="result8"
         id="feComposite66867" />
      <feComposite
         in2="SourceAlpha"
         operator="atop"
         in="result8"
         result="result9"
         id="feComposite66869" />
    </filter>
    <filter
       color-interpolation-filters="sRGB"
       id="filter66647">
      <feGaussianBlur
         stdDeviation="1.5"
         result="result6"
         id="feGaussianBlur66649" />
      <feComposite
         in2="result6"
         operator="atop"
         in="SourceGraphic"
         result="result8"
         id="feComposite66651" />
      <feComposite
         in2="SourceAlpha"
         operator="atop"
         in="result8"
         result="result9"
         id="feComposite66653" />
    </filter>
    <filter
       color-interpolation-filters="sRGB"
       id="filter66655">
      <feGaussianBlur
         stdDeviation="1.5"
         result="result6"
         id="feGaussianBlur66657" />
      <feComposite
         in2="result6"
         operator="atop"
         in="SourceGraphic"
         result="result8"
         id="feComposite66659" />
      <feComposite
         in2="SourceAlpha"
         operator="atop"
         in="result8"
         result="result9"
         id="feComposite66661" />
    </filter>
    <filter
       color-interpolation-filters="sRGB"
       id="filter66663">
      <feGaussianBlur
         stdDeviation="1.5"
         result="result6"
         id="feGaussianBlur66665" />
      <feComposite
         in2="result6"
         operator="atop"
         in="SourceGraphic"
         result="result8"
         id="feComposite66667" />
      <feComposite
         in2="SourceAlpha"
         operator="atop"
         in="result8"
         result="result9"
         id="feComposite66669" />
    </filter>
    <filter
       color-interpolation-filters="sRGB"
       id="filter66671">
      <feGaussianBlur
         stdDeviation="1.5"
         result="result6"
         id="feGaussianBlur66673" />
      <feComposite
         in2="result6"
         operator="atop"
         in="SourceGraphic"
         result="result8"
         id="feComposite66675" />
      <feComposite
         in2="SourceAlpha"
         operator="atop"
         in="result8"
         result="result9"
         id="feComposite66677" />
    </filter>
    <filter
       color-interpolation-filters="sRGB"
       id="filter66679">
      <feGaussianBlur
         stdDeviation="1.5"
         result="result6"
         id="feGaussianBlur66681" />
      <feComposite
         in2="result6"
         operator="atop"
         in="SourceGraphic"
         result="result8"
         id="feComposite66683" />
      <feComposite
         in2="SourceAlpha"
         operator="atop"
         in="result8"
         result="result9"
         id="feComposite66685" />
    </filter>
    <filter
       color-interpolation-filters="sRGB"
       id="filter66687">
      <feGaussianBlur
         stdDeviation="1.5"
         result="result6"
         id="feGaussianBlur66689" />
      <feComposite
         in2="result6"
         operator="atop"
         in="SourceGraphic"
         result="result8"
         id="feComposite66691" />
      <feComposite
         in2="SourceAlpha"
         operator="atop"
         in="result8"
         result="result9"
         id="feComposite66693" />
    </filter>
    <filter
       color-interpolation-filters="sRGB"
       id="filter66695">
      <feGaussianBlur
         stdDeviation="1.5"
         result="result6"
         id="feGaussianBlur66697" />
      <feComposite
         in2="result6"
         operator="atop"
         in="SourceGraphic"
         result="result8"
         id="feComposite66699" />
      <feComposite
         in2="SourceAlpha"
         operator="atop"
         in="result8"
         result="result9"
         id="feComposite66701" />
    </filter>
    <clipPath
       id="clipPath3670-7">
      <path
         d="m 256.208,113.587 c 3.371,-2.2 15.76,-9.42 33.03,-9.42 l 0,0 0.01,0 c 4.311,0 8.63,0.45 12.941,1.33 l 0,0 c 0.54,0.111 1.08,0.23 1.62,0.36 l 0,0 c 0.52,0.12 1.04,0.239 1.56,0.38 l 0,0 c 0.32,0.08 0.64,0.159 0.95,0.26 l 0,0 c 0.52,0.13 1.029,0.28 1.54,0.43 l 0,0 c 0.501,0.15 0.989,0.3 1.49,0.46 l 0,0 -1.32,1.2 -1.379,1.24 0,0.01 -2.771,2.49 0.45,0.48 -0.231,0.22 0,-0.01 c -0.029,-0.23 -0.119,-0.449 -0.259,-0.65 l 0,0 c -0.02,-0.03 -0.05,-0.05 -0.059,-0.08 l 0,0 c -0.391,-0.48 -1.081,-0.86 -1.97,-1.169 l 0,0 c -0.461,-0.161 -0.981,-0.301 -1.53,-0.411 l 0,0 c -0.511,-0.12 -1.061,-0.219 -1.63,-0.299 l 0,0 c -1.652,-0.231 -3.482,-0.331 -5.201,-0.331 l 0,0 c -5.211,0 -11.411,0.899 -13.17,3.42 l 0,0 c -0.411,0.59 -0.561,1.24 -0.45,1.92 l 0,0 -0.05,0 0,0.049 -23.571,-1.879 z"
         id="path3672-1" />
    </clipPath>
    <clipPath
       id="clipPath4890-4">
      <path
         d="m 297.059,162.327 c -0.381,-0.03 -0.881,-0.07 -1.49,-0.141 l 0,0 c -3.701,-0.429 -11.361,-1.809 -18.941,-6.239 l 0,0 c -5.474,-3.197 -11.543,-8.41 -15.768,-16.821 l 0,0 23.807,0 c 2.723,2.624 6.367,4.468 10.902,5.501 l 0,0 c 0.49,0.11 0.979,0.21 1.49,0.3 l 0,0 c 0.319,0.06 0.649,0.12 0.989,0.17 l 0,0 -0.459,17.27 c -0.131,-0.01 -0.31,-0.021 -0.53,-0.04"
         id="path4892-8" />
    </clipPath>
    <clipPath
       id="clipPath6110-7">
      <path
         d="m 260.86,139.126 c -3.161,-6.292 -5.289,-14.374 -5.362,-24.74 l 0,0 24.231,1.721 -0.011,0.06 0.121,0.009 c -0.601,2.291 -2.72,11.951 2.16,19.682 l 0,0 c 0.759,1.197 1.649,2.287 2.668,3.268 l 0,0 -23.807,0 z"
         id="path6112-2" />
    </clipPath>
    <clipPath
       id="clipPath7330-5">
      <path
         d="m 0,938.37 595.279,0 L 595.279,0 0,0 0,938.37 z"
         id="path7332-7" />
    </clipPath>
    <clipPath
       id="clipPath7346-5">
      <path
         d="m 298.539,145.077 0.01,-0.01 c 0.222,-0.123 2.423,-1.433 4.176,-5.941 l 0,0 7.669,0 c -1.105,5.263 -3.004,10.575 -6.095,15.411 l 0,0 c -1.02,1.62 -2.17,3.17 -3.489,4.65 l 0,0 -0.011,0.01 c -0.83,0.95 -1.72,1.871 -2.68,2.75 l 0,0 0.42,-16.87 z"
         id="path7348-2" />
    </clipPath>
    <clipPath
       id="clipPath8566-8">
      <path
         d="m 302.725,139.126 c 1.793,-4.608 3.118,-12.558 1.384,-25.999 l 0,0 2.61,-2.36 1.391,-1.25 1.379,-1.251 0.37,-0.339 c 0.722,3.13 3.521,16.985 0.535,31.199 l 0,0 -7.669,0 z"
         id="path8568-6" />
    </clipPath>
    <filter
       color-interpolation-filters="sRGB"
       id="filter66807">
      <feGaussianBlur
         stdDeviation="1.5"
         result="result6"
         id="feGaussianBlur66809" />
      <feComposite
         in2="result6"
         operator="atop"
         in="SourceGraphic"
         result="result8"
         id="feComposite66811" />
      <feComposite
         in2="SourceAlpha"
         operator="atop"
         in="result8"
         result="result9"
         id="feComposite66813" />
    </filter>
    <filter
       color-interpolation-filters="sRGB"
       id="filter66783">
      <feGaussianBlur
         stdDeviation="1.5"
         result="result6"
         id="feGaussianBlur66785" />
      <feComposite
         in2="result6"
         operator="atop"
         in="SourceGraphic"
         result="result8"
         id="feComposite66787" />
      <feComposite
         in2="SourceAlpha"
         operator="atop"
         in="result8"
         result="result9"
         id="feComposite66789" />
    </filter>
  </defs>
  <metadata
     id="metadata3046">
    <rdf:RDF>
      <cc:Work
         rdf:about="">
        <dc:format>image/svg+xml</dc:format>
        <dc:type
           rdf:resource="http://purl.org/dc/dcmitype/StillImage" />
        <dc:title></dc:title>
      </cc:Work>
    </rdf:RDF>
  </metadata>
  <g
     transform="matrix(1.1308561,0,0,-1.1301711,33.65666,97.824463)"
     id="g3558"
     style="fill:#ffffff">
    <path
       d="m 0,0 c 4.07,10.5 10.105,17.156 16.385,21.27 1.516,1.001 0.851,1.697 -0.638,1.063 -1.608,-0.685 -21.066,-5.526 -31.485,1.069 -1.153,0.726 -5.1,3.815 -4.453,10.203 0.677,6.822 2.288,18.001 9.987,23.606 2.343,1.69 6.089,3.303 9.785,0.432 5.49,-4.315 9.715,-9.193 11.797,-12.448 0.964,-1.477 1.895,-1.461 0.747,0.526 0,0 -6.365,10.012 -6.365,16.156 0,6.169 4.657,12.76 18.484,12.76 13.818,0 24.453,-8.078 22.129,-15.947 -2.262,-7.53 -6.389,-15.73 -7.24,-17.216 -0.843,-1.49 0.214,-1.49 1.271,-0.202 1.069,1.252 9.296,15.031 17.238,15.291 6.373,0.214 14.466,-6.375 16.157,-18.918 C 75.516,25.1 69.332,17.658 64.866,16.386 60.403,15.102 49.55,17.44 46.373,18.509 c -3.196,1.056 -1.923,-0.425 0,-1.27 1.662,-0.759 14.03,-7.243 10.838,-16.157 -3.208,-8.95 -11.518,-16.025 -17.661,-17.873 -4.842,-1.48 -15.573,-0.692 -18.702,12.341 -2.798,11.677 0.65,17.418 1.273,19.753 0.637,2.355 2.018,3.463 -1.055,1.718 C 18.089,15.303 9.526,9.159 7.452,-0.845 6.616,-4.891 7.602,-7.794 2.555,-6.809 -1.911,-5.917 -1.488,-3.821 0,0"
       id="path3560"
       style="fill:#ffffff;fill-opacity:1;fill-rule:evenodd;stroke:none" />
  </g>
  <rect
     width="127.81214"
     height="127.73473"
     x="0.18785813"
     y="0.26526642"
     id="rect19648"
     style="color:#000000;fill:none;stroke:none;stroke-width:1.70000005;marker:none;visibility:visible;display:inline;overflow:visible;enable-background:accumulate" />
  <rect
     width="128"
     height="127.84365"
     x="0"
     y="0.15635175"
     id="rect19463-9-3-8-9-7-0-0-4-8-4-6-7-2-4"
     style="color:#000000;fill:#ff7b00;fill-opacity:1;stroke:none;stroke-width:1.70000005;marker:none;visibility:visible;display:inline;overflow:visible;enable-background:accumulate" />
  <path
     d="m 68.287648,9.7132966 c -3.139328,0 -5.37264,3.9421144 -3.048858,5.3765604 0.815495,0.503401 1.06249,1.585748 0.571655,2.379011 -0.490823,0.793254 -1.494195,1.030771 -2.238995,0.570957 -1.851021,-1.142682 -5.00786,5.355434 -9.622944,19.840935 -8.13405,25.530571 -14.200562,39.795289 -18.483691,43.345533 -3.652679,3.02781 -13.005271,20.410377 -13.005271,24.170787 0,4.5635 2.735127,4.1429 15.053719,-2.28385 10.141504,-5.290972 10.855019,-5.451607 14.386782,-3.140354 2.243981,1.468524 4.108755,4.569274 4.716205,7.803214 0.580876,3.09274 2.66512,6.67076 4.954387,8.46929 2.177984,1.71118 5.508096,3.0927 7.383949,3.0927 2.789068,0 3.600806,-1.11113 4.382726,-5.99507 1.071546,-6.69286 7.479834,-15.320913 11.385568,-15.320913 1.407693,0 4.940781,1.57185 7.860326,3.520933 7.36057,4.91394 10.188634,5.7641 12.052504,3.52098 2.78225,-3.34836 -1.3256,-11.553662 -5.907153,-11.799934 -3.585344,-0.192603 -3.616327,-0.290812 -0.428743,-0.904021 3.790936,-0.729309 3.786776,-0.712178 2.524836,-3.996737 -0.48862,-1.271719 -1.802493,-1.993038 -2.905949,-1.570144 -1.103456,0.422887 -2.447693,0.03803 -3.001216,-0.856444 -0.559904,-0.904788 0.111475,-1.617721 1.524435,-1.617721 1.836416,0 2.252774,-0.737875 1.429152,-2.664498 -0.62649,-1.465472 -2.829856,-7.117989 -4.859123,-12.561162 -2.029235,-5.443167 -5.338573,-13.450341 -7.383943,-17.794983 -2.045356,-4.344638 -3.715788,-8.822698 -3.715788,-9.944254 0,-1.121564 -0.957741,-3.391708 -2.09609,-5.043504 C 77.689914,33.225326 75.689146,27.51932 72.765658,16.184199 71.55673,11.496795 70.33545,9.7132966 68.287648,9.7132966 z M 70.52665,22.512363 c 0.154918,-0.03619 0.311404,-0.02285 0.428742,0.09516 0.46935,0.468755 -0.0058,1.679194 -1.048038,2.712067 -1.505562,1.492495 -1.684762,1.361176 -0.857492,-0.808867 0.429351,-1.126127 1.012199,-1.888171 1.476788,-1.998364 z m -9.14656,0.951605 c 0.825126,-0.07039 2.12958,0.99404 3.382316,2.99755 2.166855,3.465362 2.127872,3.504562 -1.524422,1.379824 -1.467264,-0.853588 -2.66775,-2.201819 -2.66775,-2.99755 0,-0.91735 0.314771,-1.337956 0.809856,-1.379824 z m 7.574496,11.37166 c 1.513446,-0.26645 2.286636,1.514188 2.286636,5.328979 0,2.246924 2.057978,6.952034 4.57328,10.420056 4.742196,6.538467 5.66514,9.373298 3.048858,9.373298 -2.531194,0 -1.726598,5.681826 0.952768,6.7088 2.280198,0.873952 2.258688,1.198451 -0.190554,3.901577 -2.700486,2.980419 -2.223468,7.660404 0.762215,7.660404 0.964825,0 0.653785,1.832793 -0.762215,4.567694 -1.660998,3.208045 -3.49616,4.5677 -6.14535,4.5677 -2.074554,0 -3.763424,-0.767368 -3.763424,-1.712887 0,-1.197122 -2.715219,-1.418841 -8.956019,-0.7137 -7.071053,0.798965 -9.149728,0.538228 -9.813504,-1.189509 -1.103699,-2.872704 0.170931,-3.996737 4.525651,-3.996737 1.956333,0 3.572877,-0.663835 3.572877,-1.474977 0,-0.811155 -0.945415,-1.107094 -2.096083,-0.666123 -1.539853,0.590184 -1.882541,-0.226104 -1.333882,-3.09271 0.485344,-2.535837 1.751149,-3.901578 3.620518,-3.901578 1.579111,0 2.858298,-0.730831 2.858298,-1.61772 0,-0.886903 -0.68599,-1.183609 -1.524422,-0.666123 -0.838432,0.517479 -1.524429,-0.12181 -1.524429,-1.427407 0,-1.737446 1.736736,-2.429636 6.478816,-2.616914 6.384928,-0.252172 6.407417,-0.278431 0.952768,-0.856438 -5.265319,-0.557833 -5.450919,-0.749675 -3.811072,-4.282219 1.306816,-2.815219 3.005619,-3.776341 7.050483,-3.949155 l 5.335494,-0.237901 -6.097708,-0.951604 C 63.74825,53.21984 62.85687,52.538874 62.85687,49.347576 c 0,-2.689606 1.068762,-3.996161 3.811072,-4.758013 2.403943,-0.667839 2.82608,-1.141356 1.143322,-1.237087 -3.170451,-0.180802 -3.573587,-5.116391 -0.619296,-7.565244 0.664621,-0.550982 1.258144,-0.862912 1.762618,-0.951604 z m -11.576122,3.806409 c 1.370342,-0.100869 3.448064,0.757673 4.716192,2.283855 1.57687,1.897687 1.381645,2.283847 -1.09568,2.283847 -3.166259,0 -5.002022,-1.199781 -5.002022,-3.283033 0,-0.789067 0.559308,-1.224335 1.38151,-1.284669 z m 23.866816,6.090264 c 0.369728,0 0.666938,0.685154 0.666938,1.522569 0,0.837408 -0.731789,1.522563 -1.619706,1.522563 -0.887923,0 -1.185126,-0.685155 -0.666938,-1.522563 0.518196,-0.837415 1.249978,-1.522569 1.619706,-1.522569 z m -26.344019,2.188691 c 0.581517,-0.182713 1.644467,0.453341 2.572473,1.570144 2.199143,2.646603 1.798023,2.89478 -1.429145,0.85644 -1.233415,-0.778983 -1.866592,-1.799287 -1.381517,-2.283846 0.06054,-0.06089 0.15511,-0.116098 0.238189,-0.142738 z m -0.857485,4.04431 c 0.148064,-0.02285 0.242989,0.291763 0.28583,0.951604 0.06616,1.020504 1.068032,1.524855 2.19136,1.09435 2.492864,-0.955416 6.223463,3.171687 4.859124,5.376555 -0.54089,0.874144 -1.532365,1.57015 -2.191373,1.57015 -2.2528,0 -6.563936,-5.903565 -5.764237,-7.898309 0.283885,-0.707999 0.471309,-1.072457 0.619296,-1.09435 z m -2.524832,6.708803 c 0.729325,-0.03426 0.830432,0.562211 0.333472,1.855625 -0.628506,1.63581 -0.378042,2.065557 0.80985,1.332252 0.980928,-0.605602 1.810252,-0.409189 1.810252,0.428219 0,2.573134 -2.186009,3.024959 -4.192172,0.856443 -2.436301,-2.63347 -2.413517,-3.200048 0.28583,-4.234635 0.387776,-0.148452 0.709658,-0.226104 0.952768,-0.237904 z m 5.668966,4.091898 c 0.15968,0 0.285824,0.161773 0.285824,0.475802 0,0.837408 -0.664012,2.550302 -1.47678,3.80641 -0.812768,1.256122 -1.476794,1.598704 -1.476794,0.761284 0,-0.837408 0.664026,-2.550296 1.476794,-3.806404 0.507974,-0.785082 0.924691,-1.230809 1.190956,-1.237092 z m -9.956423,6.470902 c 0.35744,-0.02666 0.767303,0 1.238599,0 2.232711,0 2.921946,0.736347 2.429562,2.616915 -0.381018,1.455186 0.08269,2.929984 1.000397,3.235447 1.184864,0.394539 1.130387,0.861206 -0.09527,1.617728 -0.958502,0.591711 -2.769241,-0.485896 -4.096903,-2.379011 -2.729216,-3.891682 -2.978519,-4.900758 -0.476384,-5.091079 z m 43.827297,2.426594 c 1.512877,0 0.997018,1.027728 -1.524435,2.99755 -2.096083,1.637517 -4.840051,2.99755 -6.097703,2.99755 -1.512876,0 -0.997017,-1.027735 1.524423,-2.99755 2.096089,-1.637524 4.840057,-2.99755 6.097715,-2.99755 z m -46.590321,4.52011 c 1.307145,0 2.38192,0.685159 2.38192,1.522567 0,0.837414 -0.640199,1.522566 -1.429152,1.522566 -0.788944,0 -1.863728,-0.685152 -2.38192,-1.522566 -0.518183,-0.837408 0.121961,-1.522567 1.429152,-1.522567 z m 48.210027,1.522567 c 1.248032,0 0.712819,5.663748 -0.666938,7.041864 -1.018432,1.017272 -6.736186,1.931565 -7.479226,1.189509 -1.426521,-1.424741 3.213376,-5.529008 5.002023,-4.424956 0.844883,0.52148 1.524435,-0.121803 1.524435,-1.427407 0,-1.305597 0.724749,-2.37901 1.619706,-2.37901 z m -52.306923,2.902389 c 1.500153,0.07807 4.098688,2.881456 5.430777,6.61364 0.523063,1.465472 0.386551,2.664498 -0.285833,2.664498 -2.021623,0 -3.239408,-1.850492 -3.239408,-4.900758 0,-1.58461 -0.685991,-2.468271 -1.524432,-1.950786 -0.838432,0.517479 -1.524423,0.220773 -1.524423,-0.666129 0,-1.249071 0.461424,-1.795858 1.143319,-1.760465 z m 26.296375,7.327346 c 2.859412,0.12181 2.922772,0.999942 1.381511,2.854813 -2.009536,2.418399 -2.44048,2.453997 -6.717005,0.618539 -1.67687,-0.719791 -5.106835,-1.465657 -7.622138,-1.665297 -2.515308,-0.199654 -0.457324,-0.785075 4.57328,-1.284669 3.964935,-0.393778 6.668704,-0.596276 8.384352,-0.523386 z m -31.250766,0.428225 c 1.356631,0 2.042624,0.685159 1.524432,1.522567 -0.518192,0.837408 -1.204185,1.52256 -1.524432,1.52256 -0.32024,0 -1.006233,-0.685152 -1.524425,-1.52256 -0.518192,-0.837408 0.167881,-1.522567 1.524425,-1.522567 z m 49.210434,0.666123 c 2.574086,-6.39e-4 2.749811,0.495593 1.619699,1.855625 -1.286707,1.548455 -2.242759,1.709078 -3.429965,0.523379 -1.187226,-1.185692 -2.731546,-0.451818 -5.478406,2.616909 -2.10304,2.34951 -3.296576,3.614383 -2.667757,2.807235 2.431392,-3.121258 1.201069,-5.662802 -2.286637,-4.710444 -3.023814,0.825615 -3.125498,0.744734 -0.714579,-0.761277 1.504121,-0.939618 5.824691,-1.890647 9.575315,-2.141106 1.434221,-0.09517 2.524301,-0.190321 3.38233,-0.190321 z m 6.335891,0.856444 c 0.887929,0 1.619705,0.685153 1.619705,1.52256 0,0.837415 -0.297196,1.522567 -0.666937,1.522567 -0.369728,0 -1.101511,-0.685152 -1.619699,-1.522567 -0.518196,-0.837407 -0.220986,-1.52256 0.666931,-1.52256 z M 59.998566,91.93183 c 0.233511,0 2.14672,1.634475 4.287456,3.61609 3.13552,2.902396 3.710688,4.49804 2.953575,8.27901 -0.516909,2.58132 -2.091411,5.74581 -3.525229,7.0419 -2.406906,2.1755 -2.63783,1.99436 -2.810662,-2.56936 C 60.8008,105.58074 60.462074,100.78174 60.141485,97.641449 59.820896,94.501161 59.765062,91.93183 59.998566,91.93183 z m -24.962494,0.142738 c 2.305696,-0.08374 4.192176,0.542421 4.192176,1.379829 0,0.837414 -0.171497,1.463183 -0.381113,1.379823 -0.209607,-0.08374 -2.09608,-0.709507 -4.192167,-1.379823 l -3.811072,-1.237079 4.192176,-0.14275 z m 45.923378,0.428225 c 0.555558,0.01905 0.952768,0.638528 0.952768,1.61772 0,2.674394 -0.932224,3.063409 -2.239002,0.951605 -0.482387,-0.779546 -0.185216,-1.853145 0.666938,-2.378998 0.213011,-0.131328 0.434118,-0.196611 0.619296,-0.190327 z m 17.435635,3.996731 c 1.962815,-0.01905 3.097835,0.673544 2.572475,1.522573 -1.132936,1.830881 -0.974504,1.830881 -3.811067,0 -1.839635,-1.187412 -1.593235,-1.503914 1.238592,-1.522573 z m -60.595989,1.522573 c 0.88792,0 1.185127,0.685152 0.666935,1.52256 -0.518192,0.837413 -1.249975,1.522573 -1.619703,1.522573 -0.369728,0 -0.666937,-0.68516 -0.666937,-1.522573 0,-0.837408 0.731785,-1.52256 1.619705,-1.52256 z m 33.346856,6.090313 c 0.887917,0 1.619706,0.68516 1.619706,1.52257 0,0.8374 -0.29721,1.52256 -0.666944,1.52256 -0.369728,0 -1.101517,-0.68516 -1.619706,-1.52256 -0.518182,-0.83741 -0.220986,-1.52257 0.666944,-1.52257 z"
     id="path19568"
     style="fill:#ffffff;fill-opacity:1" />
  <rect
     width="128"
     height="127.84365"
     x="0"
     y="7.1054274e-15"
     id="rect19611"
     style="color:#000000;fill:none;stroke:none;stroke-width:1.70000005;marker:none;visibility:visible;display:inline;overflow:visible;enable-background:accumulate" />
</svg>
