<?xml version="1.0" encoding="UTF-8" standalone="no"?>
<!-- Created with Inkscape (http://www.inkscape.org/) -->

<svg
   xmlns:dc="http://purl.org/dc/elements/1.1/"
   xmlns:cc="http://creativecommons.org/ns#"
   xmlns:rdf="http://www.w3.org/1999/02/22-rdf-syntax-ns#"
   xmlns:svg="http://www.w3.org/2000/svg"
   xmlns="http://www.w3.org/2000/svg"
   version="1.1"
   width="128"
   height="128"
   id="svg3041">
  <defs
     id="defs3043">
    <filter
       color-interpolation-filters="sRGB"
       id="filter66799">
      <feGaussianBlur
         id="feGaussianBlur66801"
         result="result6"
         stdDeviation="1.5" />
      <feComposite
         in2="result6"
         operator="atop"
         in="SourceGraphic"
         result="result8"
         id="feComposite66803" />
      <feComposite
         in2="SourceAlpha"
         operator="atop"
         in="result8"
         result="result9"
         id="feComposite66805" />
    </filter>
    <filter
       color-interpolation-filters="sRGB"
       id="filter66863">
      <feGaussianBlur
         id="feGaussianBlur66865"
         result="result6"
         stdDeviation="1.5" />
      <feComposite
         in2="result6"
         operator="atop"
         in="SourceGraphic"
         result="result8"
         id="feComposite66867" />
      <feComposite
         in2="SourceAlpha"
         operator="atop"
         in="result8"
         result="result9"
         id="feComposite66869" />
    </filter>
    <filter
       color-interpolation-filters="sRGB"
       id="filter66647">
      <feGaussianBlur
         stdDeviation="1.5"
         result="result6"
         id="feGaussianBlur66649" />
      <feComposite
         in2="result6"
         operator="atop"
         in="SourceGraphic"
         result="result8"
         id="feComposite66651" />
      <feComposite
         in2="SourceAlpha"
         operator="atop"
         in="result8"
         result="result9"
         id="feComposite66653" />
    </filter>
    <filter
       color-interpolation-filters="sRGB"
       id="filter66655">
      <feGaussianBlur
         stdDeviation="1.5"
         result="result6"
         id="feGaussianBlur66657" />
      <feComposite
         in2="result6"
         operator="atop"
         in="SourceGraphic"
         result="result8"
         id="feComposite66659" />
      <feComposite
         in2="SourceAlpha"
         operator="atop"
         in="result8"
         result="result9"
         id="feComposite66661" />
    </filter>
    <filter
       color-interpolation-filters="sRGB"
       id="filter66663">
      <feGaussianBlur
         stdDeviation="1.5"
         result="result6"
         id="feGaussianBlur66665" />
      <feComposite
         in2="result6"
         operator="atop"
         in="SourceGraphic"
         result="result8"
         id="feComposite66667" />
      <feComposite
         in2="SourceAlpha"
         operator="atop"
         in="result8"
         result="result9"
         id="feComposite66669" />
    </filter>
    <filter
       color-interpolation-filters="sRGB"
       id="filter66671">
      <feGaussianBlur
         stdDeviation="1.5"
         result="result6"
         id="feGaussianBlur66673" />
      <feComposite
         in2="result6"
         operator="atop"
         in="SourceGraphic"
         result="result8"
         id="feComposite66675" />
      <feComposite
         in2="SourceAlpha"
         operator="atop"
         in="result8"
         result="result9"
         id="feComposite66677" />
    </filter>
    <filter
       color-interpolation-filters="sRGB"
       id="filter66679">
      <feGaussianBlur
         stdDeviation="1.5"
         result="result6"
         id="feGaussianBlur66681" />
      <feComposite
         in2="result6"
         operator="atop"
         in="SourceGraphic"
         result="result8"
         id="feComposite66683" />
      <feComposite
         in2="SourceAlpha"
         operator="atop"
         in="result8"
         result="result9"
         id="feComposite66685" />
    </filter>
    <filter
       color-interpolation-filters="sRGB"
       id="filter66687">
      <feGaussianBlur
         stdDeviation="1.5"
         result="result6"
         id="feGaussianBlur66689" />
      <feComposite
         in2="result6"
         operator="atop"
         in="SourceGraphic"
         result="result8"
         id="feComposite66691" />
      <feComposite
         in2="SourceAlpha"
         operator="atop"
         in="result8"
         result="result9"
         id="feComposite66693" />
    </filter>
    <filter
       color-interpolation-filters="sRGB"
       id="filter66695">
      <feGaussianBlur
         stdDeviation="1.5"
         result="result6"
         id="feGaussianBlur66697" />
      <feComposite
         in2="result6"
         operator="atop"
         in="SourceGraphic"
         result="result8"
         id="feComposite66699" />
      <feComposite
         in2="SourceAlpha"
         operator="atop"
         in="result8"
         result="result9"
         id="feComposite66701" />
    </filter>
    <clipPath
       id="clipPath3670-7">
      <path
         d="m 256.208,113.587 c 3.371,-2.2 15.76,-9.42 33.03,-9.42 l 0,0 0.01,0 c 4.311,0 8.63,0.45 12.941,1.33 l 0,0 c 0.54,0.111 1.08,0.23 1.62,0.36 l 0,0 c 0.52,0.12 1.04,0.239 1.56,0.38 l 0,0 c 0.32,0.08 0.64,0.159 0.95,0.26 l 0,0 c 0.52,0.13 1.029,0.28 1.54,0.43 l 0,0 c 0.501,0.15 0.989,0.3 1.49,0.46 l 0,0 -1.32,1.2 -1.379,1.24 0,0.01 -2.771,2.49 0.45,0.48 -0.231,0.22 0,-0.01 c -0.029,-0.23 -0.119,-0.449 -0.259,-0.65 l 0,0 c -0.02,-0.03 -0.05,-0.05 -0.059,-0.08 l 0,0 c -0.391,-0.48 -1.081,-0.86 -1.97,-1.169 l 0,0 c -0.461,-0.161 -0.981,-0.301 -1.53,-0.411 l 0,0 c -0.511,-0.12 -1.061,-0.219 -1.63,-0.299 l 0,0 c -1.652,-0.231 -3.482,-0.331 -5.201,-0.331 l 0,0 c -5.211,0 -11.411,0.899 -13.17,3.42 l 0,0 c -0.411,0.59 -0.561,1.24 -0.45,1.92 l 0,0 -0.05,0 0,0.049 -23.571,-1.879 z"
         id="path3672-1" />
    </clipPath>
    <clipPath
       id="clipPath4890-4">
      <path
         d="m 297.059,162.327 c -0.381,-0.03 -0.881,-0.07 -1.49,-0.141 l 0,0 c -3.701,-0.429 -11.361,-1.809 -18.941,-6.239 l 0,0 c -5.474,-3.197 -11.543,-8.41 -15.768,-16.821 l 0,0 23.807,0 c 2.723,2.624 6.367,4.468 10.902,5.501 l 0,0 c 0.49,0.11 0.979,0.21 1.49,0.3 l 0,0 c 0.319,0.06 0.649,0.12 0.989,0.17 l 0,0 -0.459,17.27 c -0.131,-0.01 -0.31,-0.021 -0.53,-0.04"
         id="path4892-8" />
    </clipPath>
    <clipPath
       id="clipPath6110-7">
      <path
         d="m 260.86,139.126 c -3.161,-6.292 -5.289,-14.374 -5.362,-24.74 l 0,0 24.231,1.721 -0.011,0.06 0.121,0.009 c -0.601,2.291 -2.72,11.951 2.16,19.682 l 0,0 c 0.759,1.197 1.649,2.287 2.668,3.268 l 0,0 -23.807,0 z"
         id="path6112-2" />
    </clipPath>
    <clipPath
       id="clipPath7330-5">
      <path
         d="m 0,938.37 595.279,0 L 595.279,0 0,0 0,938.37 z"
         id="path7332-7" />
    </clipPath>
    <clipPath
       id="clipPath7346-5">
      <path
         d="m 298.539,145.077 0.01,-0.01 c 0.222,-0.123 2.423,-1.433 4.176,-5.941 l 0,0 7.669,0 c -1.105,5.263 -3.004,10.575 -6.095,15.411 l 0,0 c -1.02,1.62 -2.17,3.17 -3.489,4.65 l 0,0 -0.011,0.01 c -0.83,0.95 -1.72,1.871 -2.68,2.75 l 0,0 0.42,-16.87 z"
         id="path7348-2" />
    </clipPath>
    <clipPath
       id="clipPath8566-8">
      <path
         d="m 302.725,139.126 c 1.793,-4.608 3.118,-12.558 1.384,-25.999 l 0,0 2.61,-2.36 1.391,-1.25 1.379,-1.251 0.37,-0.339 c 0.722,3.13 3.521,16.985 0.535,31.199 l 0,0 -7.669,0 z"
         id="path8568-6" />
    </clipPath>
    <filter
       color-interpolation-filters="sRGB"
       id="filter66807">
      <feGaussianBlur
         stdDeviation="1.5"
         result="result6"
         id="feGaussianBlur66809" />
      <feComposite
         in2="result6"
         operator="atop"
         in="SourceGraphic"
         result="result8"
         id="feComposite66811" />
      <feComposite
         in2="SourceAlpha"
         operator="atop"
         in="result8"
         result="result9"
         id="feComposite66813" />
    </filter>
    <filter
       color-interpolation-filters="sRGB"
       id="filter66783">
      <feGaussianBlur
         stdDeviation="1.5"
         result="result6"
         id="feGaussianBlur66785" />
      <feComposite
         in2="result6"
         operator="atop"
         in="SourceGraphic"
         result="result8"
         id="feComposite66787" />
      <feComposite
         in2="SourceAlpha"
         operator="atop"
         in="result8"
         result="result9"
         id="feComposite66789" />
    </filter>
    <clipPath
       id="clipPath3670">
      <path
         d="m 256.208,113.587 c 3.371,-2.2 15.76,-9.42 33.03,-9.42 l 0,0 0.01,0 c 4.311,0 8.63,0.45 12.941,1.33 l 0,0 c 0.54,0.111 1.08,0.23 1.62,0.36 l 0,0 c 0.52,0.12 1.04,0.239 1.56,0.38 l 0,0 c 0.32,0.08 0.64,0.159 0.95,0.26 l 0,0 c 0.52,0.13 1.029,0.28 1.54,0.43 l 0,0 c 0.501,0.15 0.989,0.3 1.49,0.46 l 0,0 -1.32,1.2 -1.379,1.24 0,0.01 -2.771,2.49 0.45,0.48 -0.231,0.22 0,-0.01 c -0.029,-0.23 -0.119,-0.449 -0.259,-0.65 l 0,0 c -0.02,-0.03 -0.05,-0.05 -0.059,-0.08 l 0,0 c -0.391,-0.48 -1.081,-0.86 -1.97,-1.169 l 0,0 c -0.461,-0.161 -0.981,-0.301 -1.53,-0.411 l 0,0 c -0.511,-0.12 -1.061,-0.219 -1.63,-0.299 l 0,0 c -1.652,-0.231 -3.482,-0.331 -5.201,-0.331 l 0,0 c -5.211,0 -11.411,0.899 -13.17,3.42 l 0,0 c -0.411,0.59 -0.561,1.24 -0.45,1.92 l 0,0 -0.05,0 0,0.049 -23.571,-1.879 z"
         id="path3672" />
    </clipPath>
    <clipPath
       id="clipPath4890">
      <path
         d="m 297.059,162.327 c -0.381,-0.03 -0.881,-0.07 -1.49,-0.141 l 0,0 c -3.701,-0.429 -11.361,-1.809 -18.941,-6.239 l 0,0 c -5.474,-3.197 -11.543,-8.41 -15.768,-16.821 l 0,0 23.807,0 c 2.723,2.624 6.367,4.468 10.902,5.501 l 0,0 c 0.49,0.11 0.979,0.21 1.49,0.3 l 0,0 c 0.319,0.06 0.649,0.12 0.989,0.17 l 0,0 -0.459,17.27 c -0.131,-0.01 -0.31,-0.021 -0.53,-0.04"
         id="path4892" />
    </clipPath>
    <clipPath
       id="clipPath6110">
      <path
         d="m 260.86,139.126 c -3.161,-6.292 -5.289,-14.374 -5.362,-24.74 l 0,0 24.231,1.721 -0.011,0.06 0.121,0.009 c -0.601,2.291 -2.72,11.951 2.16,19.682 l 0,0 c 0.759,1.197 1.649,2.287 2.668,3.268 l 0,0 -23.807,0 z"
         id="path6112" />
    </clipPath>
    <clipPath
       id="clipPath7330">
      <path
         d="m 0,938.37 595.279,0 L 595.279,0 0,0 0,938.37 z"
         id="path7332" />
    </clipPath>
    <clipPath
       id="clipPath7346">
      <path
         d="m 298.539,145.077 0.01,-0.01 c 0.222,-0.123 2.423,-1.433 4.176,-5.941 l 0,0 7.669,0 c -1.105,5.263 -3.004,10.575 -6.095,15.411 l 0,0 c -1.02,1.62 -2.17,3.17 -3.489,4.65 l 0,0 -0.011,0.01 c -0.83,0.95 -1.72,1.871 -2.68,2.75 l 0,0 0.42,-16.87 z"
         id="path7348" />
    </clipPath>
    <clipPath
       id="clipPath8566">
      <path
         d="m 302.725,139.126 c 1.793,-4.608 3.118,-12.558 1.384,-25.999 l 0,0 2.61,-2.36 1.391,-1.25 1.379,-1.251 0.37,-0.339 c 0.722,3.13 3.521,16.985 0.535,31.199 l 0,0 -7.669,0 z"
         id="path8568" />
    </clipPath>
  </defs>
  <metadata
     id="metadata3046">
    <rdf:RDF>
      <cc:Work
         rdf:about="">
        <dc:format>image/svg+xml</dc:format>
        <dc:type
           rdf:resource="http://purl.org/dc/dcmitype/StillImage" />
        <dc:title></dc:title>
      </cc:Work>
    </rdf:RDF>
  </metadata>
  <rect
     width="127.81214"
     height="128"
     x="0"
     y="1.4305115e-06"
     id="rect19463-9-3-8-9-7"
     style="color:#000000;fill:#ff7b00;fill-opacity:1;stroke:none;stroke-width:1.70000005;marker:none;visibility:visible;display:inline;overflow:visible;enable-background:accumulate" />
  <path
     d="m 45.301239,104.20757 c -0.24607,-0.63738 0.491438,-1.88982 2.04233,-3.46835 2.072493,-2.109438 2.469522,-2.974598 2.714941,-5.915934 0.158097,-1.89475 -0.02422,-3.978224 -0.405197,-4.629895 -0.561255,-0.96004 -0.69634,-0.54433 -0.71208,2.191527 -0.02045,3.556879 -0.635545,5.253701 -2.735787,7.547177 -1.443829,1.576695 -4.286972,2.392715 -6.216137,1.784155 -1.852381,-0.58434 -1.612471,-1.53073 1.083662,-4.275006 2.19047,-2.229477 2.395359,-2.75634 2.621957,-6.74195 0.2139,-3.762353 -0.02473,-4.969552 -1.839261,-9.301399 -1.146775,-2.737927 -2.585084,-5.432498 -3.196243,-5.987943 -0.61114,-0.555527 -1.787376,-1.615287 -2.613841,-2.355086 -1.760977,-1.576377 -2.847444,-5.827248 -3.471193,-13.581087 -0.494345,-6.145382 -1.21355,-7.912548 -4.325521,-10.628241 -2.11499,-1.845608 -2.342988,-1.899755 -5.557872,-1.318983 -4.156675,0.750914 -6.046473,0.3121 -7.38225,-1.71413 -1.439159,-2.183035 -0.828402,-3.911774 2.863324,-8.104763 1.735995,-1.971686 3.339015,-4.411483 3.562284,-5.421859 0.653024,-2.955069 4.224696,-5.929509 7.57,-6.304252 5.696204,-0.638174 10.528071,2.124601 16.369201,9.359516 1.362433,1.687533 3.492978,3.300593 5.664698,4.288739 l 3.480919,1.583923 7.436047,-1.040308 c 4.88499,-0.68335 11.78218,-1.037529 20.104572,-1.032448 11.884433,0.0079 12.972178,0.108533 17.57417,1.636244 3.396318,1.127483 5.659168,2.348811 7.354788,3.969732 3.9886,3.812927 4.07915,4.082233 5.97311,17.769312 0.20739,1.498732 0.03,4.78567 -0.39431,7.304309 -0.63931,3.795298 -0.61551,5.014406 0.13894,7.120028 0.77219,2.155088 0.78163,3.160942 0.0622,6.628581 -0.46648,2.248374 -1.03143,6.249863 -1.25543,8.892199 -0.58009,6.842623 -3.10391,10.203082 -7.66283,10.203082 -2.58109,0 -2.61058,-1.7366 -0.0736,-4.33209 1.25638,-1.285399 2.58903,-3.141646 2.96144,-4.125104 1.01544,-2.681474 0.85811,-10.746146 -0.23846,-12.222803 -1.5663,-2.109198 -2.40891,-0.218577 -2.75429,6.179995 -0.27118,5.023934 -0.56064,6.245423 -1.90262,8.029103 -1.79726,2.388743 -4.238558,3.536078 -6.384971,3.00064 -2.019598,-0.503762 -1.844304,-2.280455 0.439578,-4.45515 2.655649,-2.528719 3.437118,-5.322933 2.895226,-10.352107 -0.51284,-4.759549 -1.468408,-6.550374 -4.483516,-8.402416 l -2.109884,-1.296038 -3.382491,1.325096 c -6.393495,2.504742 -14.508403,3.1638 -26.589818,2.159693 -4.45047,-0.369896 -4.618722,-0.332346 -4.921553,1.097634 -1.56113,7.371633 -2.293065,12.388738 -2.293065,15.71799 0,4.272625 -0.545413,5.775637 -3.073416,8.469497 -1.915648,2.04132 -6.25781,2.51023 -6.937751,0.74917 z"
     id="path16713"
     style="fill:#000000" />
  <path
     d="m 45.645968,104.68109 c -0.633731,-0.75893 -0.505574,-1.18808 0.868279,-2.90757 2.9531,-3.696077 3.115383,-4.052114 3.432836,-7.531587 0.231327,-2.535592 0.142709,-3.354137 -0.331577,-3.062797 -0.356014,0.218678 -0.647291,1.26978 -0.647291,2.33579 0,5.167155 -4.436775,9.434074 -8.70303,8.369854 -1.899307,-0.47378 -1.76713,-1.46515 0.56525,-4.239777 1.972876,-2.346963 2.206548,-2.931815 2.733742,-6.842458 0.594102,-4.406929 -2.599572,-12.779068 -6.33352,-16.603132 -2.70524,-2.77053 -3.677699,-5.630115 -4.550726,-13.381657 -0.754552,-6.699621 -1.796885,-9.542052 -4.300156,-11.726531 -1.965221,-1.71494 -2.033587,-1.729446 -6.377443,-1.352837 -4.21233,0.365207 -4.449792,0.322191 -5.837864,-1.057402 -2.217042,-2.203503 -1.874448,-3.957068 1.708254,-8.743556 1.723035,-2.301984 3.65096,-5.274098 4.284276,-6.604704 2.233415,-4.692445 7.367507,-6.62025 12.829195,-4.817253 2.39486,0.79058 4.058035,2.019545 8.399654,6.206738 2.977447,2.871529 6.712374,5.926905 8.299839,6.789718 l 2.886311,1.568743 5.480042,-0.824363 c 3.758635,-0.565417 10.418534,-0.839971 21.201635,-0.874047 15.198742,-0.04803 15.828799,-0.0064 18.944116,1.24378 8.36352,3.357019 11.04332,6.967641 12.57453,16.942155 0.71043,4.627921 0.80215,7.137428 0.41074,11.238777 -0.28074,2.941685 -0.29315,6.234682 -0.028,7.434983 0.83953,3.80078 -1.05154,19.326774 -2.75438,22.613884 -1.25809,2.428589 -3.55499,3.892649 -5.8107,3.703789 -2.70553,-0.22653 -2.83097,-1.53552 -0.43005,-4.488088 1.06231,-1.306391 2.21754,-2.92378 2.56719,-3.594195 0.94164,-1.80556 0.82237,-10.87028 -0.16062,-12.20639 -0.43798,-0.595301 -0.97095,-0.908821 -1.18437,-0.696704 -0.21344,0.212123 -0.70453,3.114143 -1.09132,6.44894 -0.77996,6.72442 -1.1566,7.721204 -3.73101,9.874208 -1.343616,1.123663 -2.267755,1.443433 -3.802689,1.315823 -2.696894,-0.224229 -2.972604,-1.882052 -0.738116,-4.438172 2.547169,-2.913802 2.924598,-4.013704 2.878809,-8.389516 -0.05579,-5.335656 -0.927239,-7.588253 -3.773327,-9.754113 l -2.319446,-1.765127 -4.022388,1.352548 c -6.346512,2.134057 -11.04327,2.639223 -21.124881,2.272102 -5.444865,-0.19827 -9.234744,-0.121346 -9.429223,0.191405 -0.646084,1.039015 -2.03236,9.324182 -2.494707,14.909892 -0.50374,6.085637 -1.388513,8.378497 -3.971328,10.291617 -2.033191,1.50601 -5.181958,1.91643 -6.116514,0.79723 l -6e-6,0 z"
     id="path16792"
     style="color:#000000;fill:#ffffff;fill-opacity:1;fill-rule:nonzero;stroke:none;stroke-width:1.70000005;marker:none;visibility:visible;display:inline;overflow:visible;enable-background:accumulate" />
  <rect
     width="127.81214"
     height="127.03141"
     x="0.18785866"
     y="1.4210855e-14"
     id="rect19453"
     style="color:#000000;fill:none;stroke:none;stroke-width:1.70000005;marker:none;visibility:visible;display:inline;overflow:visible;enable-background:accumulate" />
</svg>
