<svg xmlns:dc="http://purl.org/dc/elements/1.1/" xmlns:cc="http://creativecommons.org/ns#"
     xmlns:rdf="http://www.w3.org/1999/02/22-rdf-syntax-ns#" xmlns:svg="http://www.w3.org/2000/svg"
     xmlns="http://www.w3.org/2000/svg" xmlns:sodipodi="http://sodipodi.sourceforge.net/DTD/sodipodi-0.dtd"
     xmlns:inkscape="http://www.inkscape.org/namespaces/inkscape" width="187.68289mm" height="185.80789mm"
     viewBox="0 0 187.68289 185.80789" version="1.1" id="svg8" inkscape:version="0.92.5 (2060ec1f9f, 2020-04-08)"
     sodipodi:docname="picto-vttae.svg">
    <defs id="defs2">
        <symbol overflow="visible" id="h" style="overflow:visible">
            <path id="path10"
                  d="m 18.766,-1.125 c -0.96875,0.5 -1.9805,0.875 -3.0312,1.125 -1.043,0.25781 -2.1367,0.39062 -3.2812,0.39062 -3.3984,0 -6.0898,-0.94531 -8.0781,-2.8438 -1.9922,-1.9062 -2.9844,-4.4844 -2.9844,-7.7344 0,-3.2578 0.99219,-5.8359 2.9844,-7.7344 1.9883,-1.9062 4.6797,-2.8594 8.0781,-2.8594 1.1445,0 2.2383,0.13281 3.2812,0.39062 1.0508,0.25 2.0625,0.625 3.0312,1.125 v 4.2188 c -0.98047,-0.65625 -1.9453,-1.1406 -2.8906,-1.4531 -0.94922,-0.3125 -1.9492,-0.46875 -3,-0.46875 -1.875,0 -3.3516,0.60547 -4.4219,1.8125 -1.0742,1.1992 -1.6094,2.8555 -1.6094,4.9688 0,2.1055 0.53516,3.7617 1.6094,4.9688 1.0703,1.1992 2.5469,1.7969 4.4219,1.7969 1.0508,0 2.0508,-0.14844 3,-0.45312 0.94531,-0.3125 1.9102,-0.80078 2.8906,-1.4688 z"
                  inkscape:connector-curvature="0"/>
        </symbol>
        <symbol overflow="visible" id="c" style="overflow:visible">
            <path id="path13"
                  d="m 13.734,-11.141 c -0.4375,-0.19531 -0.87109,-0.34375 -1.2969,-0.4375 -0.41797,-0.10156 -0.83984,-0.15625 -1.2656,-0.15625 -1.2617,0 -2.2305,0.40625 -2.9062,1.2188 -0.67969,0.80469 -1.0156,1.9531 -1.0156,3.4531 v 7.0625 H 2.3591 v -15.312 h 4.8906 v 2.5156 c 0.625,-1 1.3438,-1.7266 2.1562,-2.1875 0.82031,-0.46875 1.8008,-0.70312 2.9375,-0.70312 0.16406,0 0.34375,0.01172 0.53125,0.03125 0.19531,0.01172 0.47656,0.03906 0.84375,0.07813 z"
                  inkscape:connector-curvature="0"/>
        </symbol>
        <symbol overflow="visible" id="a" style="overflow:visible">
            <path id="path16"
                  d="m 17.641,-7.7031 v 1.4062 H 6.188 c 0.125,1.1484 0.53906,2.0078 1.25,2.5781 0.70703,0.57422 1.7031,0.85938 2.9844,0.85938 1.0312,0 2.082,-0.14844 3.1562,-0.45312 1.082,-0.3125 2.1914,-0.77344 3.3281,-1.3906 v 3.7656 c -1.1562,0.4375 -2.3125,0.76562 -3.4688,0.98438 -1.1562,0.22656 -2.3125,0.34375 -3.4688,0.34375 -2.7734,0 -4.9297,-0.70312 -6.4688,-2.1094 -1.5312,-1.4062 -2.2969,-3.3789 -2.2969,-5.9219 0,-2.5 0.75391,-4.4609 2.2656,-5.8906 1.5078,-1.4375 3.582,-2.1562 6.2188,-2.1562 2.4062,0 4.332,0.73047 5.7812,2.1875 1.4453,1.4492 2.1719,3.3828 2.1719,5.7969 z m -5.0312,-1.625 c 0,-0.92578 -0.27344,-1.6719 -0.8125,-2.2344 -0.54297,-0.57031 -1.25,-0.85938 -2.125,-0.85938 -0.94922,0 -1.7188,0.26562 -2.3125,0.79688 -0.5937,0.53126 -0.96484,1.2969 -1.1094,2.2969 z"
                  inkscape:connector-curvature="0"/>
        </symbol>
        <symbol overflow="visible" id="l" style="overflow:visible">
            <path id="path19"
                  d="m 9.2188,-6.8906 c -1.0234,0 -1.793,0.17188 -2.3125,0.51562 -0.51172,0.34375 -0.76562,0.85547 -0.76562,1.5312 0,0.625 0.20703,1.1172 0.625,1.4688 0.41406,0.34375 0.98828,0.51562 1.7188,0.51562 0.92578,0 1.7031,-0.32812 2.3281,-0.98438 0.63281,-0.66406 0.95312,-1.4922 0.95312,-2.4844 v -0.5625 z m 7.4688,-1.8438 V 0 h -4.9219 v -2.2656 c -0.65625,0.92969 -1.3984,1.6055 -2.2188,2.0312 -0.82422,0.41406 -1.8242,0.625 -3,0.625 -1.5859,0 -2.8711,-0.45703 -3.8594,-1.375 -0.99219,-0.92578 -1.4844,-2.1289 -1.4844,-3.6094 0,-1.7891 0.61328,-3.1016 1.8438,-3.9375 1.2383,-0.84375 3.1797,-1.2656 5.8281,-1.2656 h 2.8906 v -0.39062 c 0,-0.76953 -0.30859,-1.332 -0.92188,-1.6875 -0.61719,-0.36328 -1.5703,-0.54688 -2.8594,-0.54688 -1.0547,0 -2.0312,0.10547 -2.9375,0.3125 -0.89844,0.21094 -1.7305,0.52344 -2.5,0.9375 v -3.7344 c 1.0391,-0.25 2.0859,-0.44141 3.1406,-0.57812 1.0625,-0.13281 2.125,-0.20312 3.1875,-0.20312 2.7578,0 4.75,0.54688 5.9688,1.6406 1.2266,1.0859 1.8438,2.8555 1.8438,5.3125 z"
                  inkscape:connector-curvature="0"/>
        </symbol>
        <symbol overflow="visible" id="b" style="overflow:visible">
            <path id="path22"
                  d="m 7.7031,-19.656 v 4.3438 H 12.75 v 3.5 H 7.7031 v 6.5 c 0,0.71094 0.14062,1.1875 0.42188,1.4375 0.28126,0.25 0.83594,0.375 1.6719,0.375 h 2.5156 v 3.5 h -4.1875 c -1.9375,0 -3.3125,-0.39844 -4.125,-1.2031 -0.80469,-0.8125 -1.2031,-2.1797 -1.2031,-4.1094 v -6.5 h -2.4219 v -3.5 h 2.4219 v -4.3438 z"
                  inkscape:connector-curvature="0"/>
        </symbol>
        <symbol overflow="visible" id="e" style="overflow:visible">
            <path id="path25"
                  d="m 12.766,-13.078 v -8.2031 h 4.9219 V -10e-5 H 12.766 v -2.2188 c -0.66797,0.90625 -1.4062,1.5703 -2.2188,1.9844 -0.8126,0.4141 -1.7578,0.625 -2.8281,0.625 -1.8867,0 -3.4336,-0.75 -4.6406,-2.25 -1.2109,-1.5 -1.8125,-3.4258 -1.8125,-5.7812 0,-2.3633 0.60156,-4.2969 1.8125,-5.7969 1.207,-1.5 2.7539,-2.25 4.6406,-2.25 1.0625,0 2,0.21484 2.8125,0.64062 0.82031,0.42969 1.5664,1.0859 2.2344,1.9688 z m -3.2188,9.9219 c 1.0391,0 1.8359,-0.37891 2.3906,-1.1406 0.55078,-0.76953 0.82812,-1.8828 0.82812,-3.3438 0,-1.457 -0.27734,-2.5664 -0.82812,-3.3281 -0.55469,-0.76953 -1.3516,-1.1562 -2.3906,-1.1562 -1.043,0 -1.8398,0.38672 -2.3906,1.1562 -0.55469,0.76172 -0.82812,1.8711 -0.82812,3.3281 0,1.4609 0.27344,2.5742 0.82812,3.3438 0.55078,0.76172 1.3477,1.1406 2.3906,1.1406 z"
                  inkscape:connector-curvature="0"/>
        </symbol>
        <symbol overflow="visible" id="k" style="overflow:visible">
            <path id="path28"
                  d="m 10.5,-3.1562 c 1.0508,0 1.8516,-0.37891 2.4062,-1.1406 0.55078,-0.76953 0.82812,-1.8828 0.82812,-3.3438 0,-1.457 -0.27734,-2.5664 -0.82812,-3.3281 -0.55469,-0.76953 -1.3555,-1.1562 -2.4062,-1.1562 -1.0547,0 -1.8594,0.38672 -2.4219,1.1562 -0.55469,0.77344 -0.82812,1.8828 -0.82812,3.3281 0,1.4492 0.27344,2.5586 0.82812,3.3281 0.5625,0.77344 1.3672,1.1562 2.4219,1.1562 z m -3.25,-9.9219 c 0.67578,-0.88281 1.4219,-1.5391 2.2344,-1.9688 0.82031,-0.42578 1.7656,-0.64062 2.8281,-0.64062 1.8945,0 3.4453,0.75 4.6562,2.25 1.207,1.5 1.8125,3.4336 1.8125,5.7969 0,2.3555 -0.60547,4.2812 -1.8125,5.7812 -1.2109,1.5 -2.7617,2.25 -4.6562,2.25 -1.0625,0 -2.0078,-0.21094 -2.8281,-0.625 C 8.6719,-0.6602 7.9258,-1.32032 7.25,-2.21882 V -2e-5 H 2.3594 v -21.281 H 7.25 Z"
                  inkscape:connector-curvature="0"/>
        </symbol>
        <symbol overflow="visible" id="j" style="overflow:visible">
            <path id="path31"
                  d="m 0.34375,-15.312 h 4.8906 l 4.125,10.391 3.5,-10.391 h 4.8906 l -6.4375,16.766 c -0.64844,1.6953 -1.4023,2.8828 -2.2656,3.5625 -0.86719,0.6875 -2,1.0312 -3.4062,1.0312 H 2.79685 V 2.8289 h 1.5312 c 0.83203,0 1.4375,-0.13672 1.8125,-0.40625 C 6.52336,2.16093 6.82024,1.69218 7.03117,1.01645 L 7.17179,0.59457 Z"
                  inkscape:connector-curvature="0"/>
        </symbol>
        <symbol overflow="visible" id="i" style="overflow:visible">
            <path id="path34"
                  d="M 14.953,-3.7188 H 6.7342 L 5.4217,0 H 0.1405 L 7.703,-20.406 h 6.2656 L 21.5311,0 H 16.2499 Z M 8.0468,-7.5 h 5.5781 l -2.7812,-8.125 z"
                  inkscape:connector-curvature="0"/>
        </symbol>
        <symbol overflow="visible" id="u" style="overflow:visible">
            <path id="path37" d="M 2.3594,-15.312 H 7.25 V 0 H 2.3594 Z m 0,-5.9688 H 7.25 v 4 H 2.3594 Z"
                  inkscape:connector-curvature="0"/>
        </symbol>
        <symbol overflow="visible" id="g" style="overflow:visible">
            <path id="path40"
                  d="M 17.75,-9.3281 V 0 h -4.9219 v -7.1406 c 0,-1.3203 -0.03125,-2.2344 -0.09375,-2.7344 -0.0625,-0.5 -0.16797,-0.86719 -0.3125,-1.1094 -0.1875,-0.3125 -0.44922,-0.55469 -0.78125,-0.73438 -0.32422,-0.17578 -0.69531,-0.26562 -1.1094,-0.26562 -1.0234,0 -1.8242,0.39844 -2.4062,1.1875 -0.58594,0.78125 -0.875,1.8711 -0.875,3.2656 V -1e-4 H 2.3594 v -15.312 H 7.25 v 2.2344 c 0.73828,-0.88281 1.5195,-1.5391 2.3438,-1.9688 0.83203,-0.42578 1.75,-0.64062 2.75,-0.64062 1.7695,0 3.1133,0.54688 4.0312,1.6406 0.91406,1.0859 1.375,2.6562 1.375,4.7188 z"
                  inkscape:connector-curvature="0"/>
        </symbol>
        <symbol overflow="visible" id="d" style="overflow:visible">
            <path id="path43"
                  d="m 9.6406,-12.188 c -1.0859,0 -1.9141,0.39062 -2.4844,1.1719 -0.57422,0.78125 -0.85938,1.9062 -0.85938,3.375 0,1.4688 0.28516,2.5938 0.85938,3.375 0.57031,0.77344 1.3984,1.1562 2.4844,1.1562 1.0625,0 1.875,-0.38281 2.4375,-1.1562 0.57031,-0.78125 0.85938,-1.9062 0.85938,-3.375 0,-1.4688 -0.28906,-2.5938 -0.85938,-3.375 -0.5625,-0.78125 -1.375,-1.1719 -2.4375,-1.1719 z m 0,-3.5 c 2.6328,0 4.6914,0.71484 6.1719,2.1406 1.4766,1.418 2.2188,3.3867 2.2188,5.9062 0,2.5117 -0.74219,4.4805 -2.2188,5.9062 C 14.332,-0.317 12.2734,0.39 9.6406,0.39 6.9922,0.39 4.9258,-0.31703 3.4375,-1.735 1.9453,-3.1608 1.2031,-5.1295 1.2031,-7.6412 c 0,-2.5195 0.74219,-4.4883 2.2344,-5.9062 1.4883,-1.4258 3.5547,-2.1406 6.2031,-2.1406 z"
                  inkscape:connector-curvature="0"/>
        </symbol>
        <symbol overflow="visible" id="t" style="overflow:visible">
            <path id="path46"
                  d="m 9.5469,-12.125 c -1.043,0 -1.8398,0.38672 -2.3906,1.1562 -0.55469,0.76172 -0.82812,1.8711 -0.82812,3.3281 0,1.4609 0.27344,2.5742 0.82812,3.3438 0.55078,0.76172 1.3477,1.1406 2.3906,1.1406 1.0391,0 1.8359,-0.37891 2.3906,-1.1406 0.55078,-0.76953 0.82812,-1.8828 0.82812,-3.3438 0,-1.457 -0.27734,-2.5664 -0.82812,-3.3281 -0.55469,-0.76953 -1.3516,-1.1562 -2.3906,-1.1562 z m 3.2188,9.9062 c -0.66797,0.90625 -1.4062,1.5703 -2.2188,1.9844 -0.8126,0.4141 -1.7578,0.625 -2.8281,0.625 -1.8867,0 -3.4336,-0.75 -4.6406,-2.25 -1.2109,-1.5 -1.8125,-3.4258 -1.8125,-5.7812 0,-2.3633 0.60156,-4.2891 1.8125,-5.7812 1.207,-1.4883 2.7539,-2.2344 4.6406,-2.2344 1.0703,0 2.0156,0.21484 2.8281,0.64062 0.8125,0.41797 1.5508,1.0742 2.2188,1.9688 v -2.2656 h 4.9219 v 21.141 h -4.9219 z"
                  inkscape:connector-curvature="0"/>
        </symbol>
        <symbol overflow="visible" id="f" style="overflow:visible">
            <path id="path49"
                  d="m 2.1875,-5.9688 v -9.3438 h 4.9219 v 1.5312 c 0,0.83594 -0.00781,1.875 -0.015625,3.125 -0.011719,1.25 -0.015625,2.0859 -0.015625,2.5 0,1.2422 0.03125,2.1328 0.09375,2.6719 0.070313,0.54297 0.17969,0.93359 0.32812,1.1719 0.20703,0.32422 0.47266,0.57422 0.79688,0.75 0.32031,0.16797 0.69141,0.25 1.1094,0.25 1.0195,0 1.8203,-0.39062 2.4062,-1.1719 0.58203,-0.78125 0.875,-1.8672 0.875,-3.2656 v -7.5625 h 4.8906 V -6e-4 H 12.6875 V -2.2194 C 11.94531,-1.32096 11.1641,-0.6608 10.3437,-0.235 9.51948,0.17906 8.6093,0.39 7.6093,0.39 5.8476,0.39 4.5038,-0.14906 3.5781,-1.235 2.64841,-2.317 2.1875,-3.8952 2.1875,-5.9694 Z"
                  inkscape:connector-curvature="0"/>
        </symbol>
        <symbol overflow="visible" id="s" style="overflow:visible">
            <path id="path52"
                  d="m 12.422,-21.281 v 3.2188 H 9.7189 c -0.6875,0 -1.1719,0.125 -1.4531,0.375 -0.27344,0.25 -0.40625,0.6875 -0.40625,1.3125 v 1.0625 h 4.1875 v 3.5 H 7.85955 V -2e-4 h -4.8906 v -11.812 h -2.4375 v -3.5 h 2.4375 v -1.0625 c 0,-1.6641 0.46094,-2.8984 1.3906,-3.7031 0.92578,-0.80078 2.3672,-1.2031 4.3281,-1.2031 z"
                  inkscape:connector-curvature="0"/>
        </symbol>
        <symbol overflow="visible" id="r" style="overflow:visible">
            <path id="path55"
                  d="m 16.547,-12.766 c 0.61328,-0.94531 1.3477,-1.6719 2.2031,-2.1719 0.85156,-0.5 1.7891,-0.75 2.8125,-0.75 1.7578,0 3.0977,0.54688 4.0156,1.6406 0.92578,1.0859 1.3906,2.6562 1.3906,4.7188 V -4e-4 h -4.9219 v -7.9844 -0.35938 c 0.0078,-0.13281 0.01563,-0.32031 0.01563,-0.5625 0,-1.082 -0.16406,-1.8633 -0.48438,-2.3438 -0.3125,-0.48828 -0.82422,-0.73438 -1.5312,-0.73438 -0.92969,0 -1.6484,0.38672 -2.1562,1.1562 -0.51172,0.76172 -0.77344,1.8672 -0.78125,3.3125 v 7.5156 h -4.9219 v -7.9844 c 0,-1.6953 -0.14844,-2.7852 -0.4375,-3.2656 -0.29297,-0.48828 -0.8125,-0.73438 -1.5625,-0.73438 -0.9375,0 -1.6641,0.38672 -2.1719,1.1562 -0.51172,0.76172 -0.76562,1.8594 -0.76562,3.2969 v 7.5312 h -4.9219 v -15.312 h 4.9219 v 2.2344 c 0.60156,-0.86328 1.2891,-1.5156 2.0625,-1.9531 0.78125,-0.4375 1.6406,-0.65625 2.5781,-0.65625 1.0625,0 2,0.25781 2.8125,0.76562 0.8125,0.51172 1.4258,1.2305 1.8438,2.1562 z"
                  inkscape:connector-curvature="0"/>
        </symbol>
        <symbol overflow="visible" id="q" style="overflow:visible">
            <path id="path58"
                  d="M 17.75,-9.3281 V 0 h -4.9219 v -7.1094 c 0,-1.3438 -0.03125,-2.2656 -0.09375,-2.7656 -0.0625,-0.5 -0.16797,-0.86719 -0.3125,-1.1094 -0.1875,-0.3125 -0.44922,-0.55469 -0.78125,-0.73438 -0.32422,-0.17578 -0.69531,-0.26562 -1.1094,-0.26562 -1.0234,0 -1.8242,0.39844 -2.4062,1.1875 -0.58594,0.78125 -0.875,1.8711 -0.875,3.2656 V -1e-4 H 2.3594 v -21.281 H 7.25 v 8.2031 c 0.73828,-0.88281 1.5195,-1.5391 2.3438,-1.9688 0.83203,-0.42578 1.75,-0.64062 2.75,-0.64062 1.7695,0 3.1133,0.54688 4.0312,1.6406 0.91406,1.0859 1.375,2.6562 1.375,4.7188 z"
                  inkscape:connector-curvature="0"/>
        </symbol>
        <symbol overflow="visible" id="p" style="overflow:visible">
            <path id="path61"
                  d="m 2.5781,-20.406 h 5.875 l 7.4219,14 v -14 h 4.9844 V 0 h -5.875 L 7.5625,-14 V 0 H 2.5781 Z"
                  inkscape:connector-curvature="0"/>
        </symbol>
        <symbol overflow="visible" id="o" style="overflow:visible">
            <path id="path64"
                  d="m 2.5781,-20.406 h 8.7344 c 2.5938,0 4.582,0.57812 5.9688,1.7344 1.3945,1.1484 2.0938,2.7891 2.0938,4.9219 0,2.1367 -0.69922,3.7812 -2.0938,4.9375 -1.3867,1.1562 -3.375,1.7344 -5.9688,1.7344 H 7.8281 V 3e-4 h -5.25 z m 5.25,3.8125 v 5.7031 H 10.75 c 1.0195,0 1.8047,-0.25 2.3594,-0.75 0.5625,-0.5 0.84375,-1.2031 0.84375,-2.1094 0,-0.91406 -0.28125,-1.6172 -0.84375,-2.1094 -0.55469,-0.48828 -1.3398,-0.73438 -2.3594,-0.73438 z"
                  inkscape:connector-curvature="0"/>
        </symbol>
        <symbol overflow="visible" id="n" style="overflow:visible">
            <path id="path67"
                  d="M 2.3594,-15.312 H 7.25 v 15.031 c 0,2.0508 -0.49609,3.6172 -1.4844,4.7031 -0.98047,1.082 -2.4062,1.625 -4.2812,1.625 H -0.9375 V 2.8283 h 0.85938 c 0.92578,0 1.5625,-0.21094 1.9062,-0.625 0.35156,-0.41797 0.53125,-1.2461 0.53125,-2.4844 z m 0,-5.9688 H 7.25 v 4 H 2.3594 Z"
                  inkscape:connector-curvature="0"/>
        </symbol>
        <symbol overflow="visible" id="m" style="overflow:visible">
            <path id="path70"
                  d="m 14.719,-14.828 v 3.9844 c -0.65625,-0.45703 -1.3242,-0.79688 -2,-1.0156 -0.66797,-0.21875 -1.3594,-0.32812 -2.0781,-0.32812 -1.3672,0 -2.4336,0.40234 -3.2031,1.2031 -0.76172,0.79297 -1.1406,1.9062 -1.1406,3.3438 0,1.4297 0.37891,2.543 1.1406,3.3438 0.76953,0.79297 1.8359,1.1875 3.2031,1.1875 0.75781,0 1.4844,-0.10938 2.1719,-0.32812 0.6875,-0.22656 1.3203,-0.56641 1.9062,-1.0156 v 4 c -0.76172,0.28125 -1.5391,0.48828 -2.3281,0.625 -0.78125,0.14453 -1.5742,0.21875 -2.375,0.21875 -2.7617,0 -4.9219,-0.70703 -6.4844,-2.125 -1.5547,-1.4141 -2.3281,-3.3828 -2.3281,-5.9062 0,-2.5312 0.77344,-4.5039 2.3281,-5.9219 1.5625,-1.4141 3.7227,-2.125 6.4844,-2.125 0.80078,0 1.5938,0.07422 2.375,0.21875 0.78125,0.13672 1.5547,0.35156 2.3281,0.64062 z"
                  inkscape:connector-curvature="0"/>
        </symbol>
    </defs>
    <sodipodi:namedview id="base" pagecolor="#ffffff" bordercolor="#666666" borderopacity="1.0"
                        inkscape:pageopacity="0.0" inkscape:pageshadow="2" inkscape:zoom="0.35" inkscape:cx="-306.77904"
                        inkscape:cy="264.09584" inkscape:document-units="mm" inkscape:current-layer="layer1"
                        showgrid="false" inkscape:window-width="1848" inkscape:window-height="1016"
                        inkscape:window-x="72" inkscape:window-y="27" inkscape:window-maximized="1"/>
    <metadata id="metadata5">
        <rdf:RDF>
            <cc:Work rdf:about="">
                <dc:format>image/svg+xml</dc:format>
                <dc:type rdf:resource="http://purl.org/dc/dcmitype/StillImage"/>
                <dc:title/>
            </cc:Work>
        </rdf:RDF>
    </metadata>
    <g inkscape:label="Calque 1" inkscape:groupmode="layer" id="layer1" transform="translate(-13.510884,-35.924606)">
        <path inkscape:connector-curvature="0"
              d="m 92.734613,176.4903 1.777683,-14.224 -8.889647,-13.82853 -13.828536,-1.77768 c -0.395499,0 -0.789623,0 -0.98806,-0.19706 l -7.309203,11.06276 c -4.543425,-2.17319 -9.482313,-3.35827 -14.816666,-3.35827 -2.765707,0 -5.334353,0.3955 -7.901517,0.98806 l -0.0014,-50.57422 c 7.112,-1.97612 12.248092,-8.494187 12.248092,-16.001651 v -4.543424 h 1.185121 c 2.568646,0 4.543425,-1.97612 4.543425,-4.543425 0,-2.568646 -1.97612,-4.543425 -4.543425,-4.543425 H 48.28345 V 64.874454 c 0,-2.173181 -1.777682,-4.149372 -4.149372,-4.149372 -2.370243,0 -4.149372,1.777683 -4.149372,4.149372 V 74.949435 H 32.280039 V 64.874454 c 0,-2.173181 -1.777682,-4.149372 -4.149372,-4.149372 -2.370243,0 -4.149372,1.777683 -4.149372,4.149372 v 10.074981 h -5.926986 c -2.568646,0 -4.543425,1.97612 -4.543425,4.543425 0,2.568645 1.97612,4.543425 4.543425,4.543425 h 1.185121 v 4.543424 c 0,7.507464 4.938888,14.027151 12.24809,16.001651 v 54.32777 c -10.070747,5.72841 -16.787281,16.59432 -16.787281,29.04067 0,18.76742 15.212129,33.7827 33.782703,33.7827 17.18698,0 31.213777,-12.8404 33.584091,-29.23787 h 12.248092 c -1.580621,-2.7657 -2.370244,-5.92701 -2.370244,-9.28511 h -9.877777 c -1.185122,-8.10013 -5.136092,-15.40933 -11.062758,-20.74368 l 6.519333,-9.87778 z M 48.48217,212.64297 c -13.631686,0 -24.694444,-11.06276 -24.694444,-24.69444 0,-13.63169 11.062758,-24.69445 24.694444,-24.69445 3.358268,0 6.716536,0.78962 9.680574,1.97612 l -7.901516,11.85404 c -0.592561,0 -1.185122,-0.19706 -1.777682,-0.19706 -6.12387,0 -11.062759,4.93889 -11.062759,11.06276 0,6.12387 4.938889,11.06276 11.062759,11.06276 4.543424,0 8.297333,-2.76571 10.07498,-6.51934 h 14.224 c -2.173182,11.45717 -12.249503,20.14961 -24.300392,20.14961 z m 24.300391,-29.23928 h -14.224 c -0.197058,-0.3955 -0.395499,-0.78962 -0.592561,-1.18512 l 7.901517,-11.85404 c 3.556705,3.5567 5.927019,7.90293 6.91515,13.03902 z"
              id="path75" style="stroke-width:0.35277778;fill:#ffffff"/>
        <path inkscape:connector-curvature="0"
              d="m 167.60817,154.16653 c -1.38356,0 -2.76571,0.19705 -4.14938,0.19705 l -10.8659,-41.09155 c -1.97612,2.76571 -4.74169,4.74169 -7.90152,5.92702 l 3.16121,11.65542 -12.64356,0.98806 c 0.59256,2.56865 0.78962,5.1361 0.3955,7.90152 l -0.3955,1.38356 6.32248,-0.3955 -7.3092,7.90293 -1.97612,16.00164 18.76743,-20.94053 3.55529,13.03902 c -12.24809,5.13609 -20.94053,17.18698 -20.94053,31.21378 0,18.76742 15.21213,33.7827 33.7827,33.7827 18.76742,0 33.7827,-15.21213 33.7827,-33.7827 0,-18.57058 -15.01492,-33.78271 -33.5855,-33.78271 z m 0,58.47644 c -13.63169,0 -24.69445,-11.06276 -24.69445,-24.69444 0,-9.87778 5.72841,-18.17512 14.02715,-22.12587 l 3.5553,13.63168 c -2.37025,1.97612 -4.14937,5.13609 -4.14937,8.49419 0,6.12386 4.93888,11.06275 11.06275,11.06275 6.12387,0 11.06276,-4.93889 11.06276,-11.06275 0,-5.53156 -3.95076,-10.07498 -9.28511,-10.86591 l -3.55529,-13.63169 h 1.77768 c 13.63168,0 24.69444,11.06276 24.69444,24.69445 0.001,13.43307 -10.86449,24.49724 -24.49618,24.49724 z"
              id="path77" style="stroke-width:0.35277778;fill:#ffffff"/>
        <path inkscape:connector-curvature="0"
              d="m 114.07061,122.95275 -16.989775,-2.17318 6.915155,-19.55835 11.26137,7.3092 c 1.18512,0.78962 2.37024,1.18512 3.55529,1.38356 h 0.3955 l 18.17511,1.38356 c 4.74169,0.3955 8.88965,-3.16121 9.28511,-7.90152 0.3955,-4.741687 -3.1612,-8.889648 -7.90151,-9.285111 l -16.00165,-1.185122 c 0,0 -16.79293,-11.655425 -18.96604,-12.446353 -2.37024,-0.98806 -12.446352,-4.346222 -12.446352,-4.346222 -3.555294,-1.185121 -7.309203,-0.98806 -10.667294,0.592561 -3.358268,1.580621 -5.92702,4.543425 -7.112,7.901517 l -12.050889,35.16489 c -1.383559,3.95076 -0.789622,8.10013 1.383559,11.45822 2.173182,3.55529 5.728406,5.72841 9.877778,6.32248 l 29.830538,3.75391 c 1.97612,0.19706 3.35827,1.97612 2.96277,3.95076 l -4.54343,37.14044 c -0.59256,5.33436 3.16121,10.27324 8.49418,10.86591 5.33436,0.59256 10.27325,-3.16121 10.86591,-8.49418 l 5.72841,-46.228 c 1.18512,-7.70608 -4.34622,-14.62088 -12.05089,-15.60901 z"
              id="path79" style="stroke-width:0.35277778;fill:#ffffff"/>
        <path inkscape:connector-curvature="0"
              d="m 98.068613,72.971195 c 10.074977,2.370243 20.151017,-3.950759 22.521337,-14.02715 2.37024,-10.07498 -3.95076,-20.151019 -14.02715,-22.521333 -10.074984,-2.370243 -20.151023,3.950758 -22.521337,14.02715 -2.370243,10.07498 3.950759,20.151019 14.02715,22.521333 z"
              id="path81" style="stroke-width:0.35277778;fill:#ffffff"/>
    </g>
</svg>