<?xml version="1.0" encoding="UTF-8" standalone="no"?>
<svg
   xmlns:osb="http://www.openswatchbook.org/uri/2009/osb"
   xmlns:dc="http://purl.org/dc/elements/1.1/"
   xmlns:cc="http://creativecommons.org/ns#"
   xmlns:rdf="http://www.w3.org/1999/02/22-rdf-syntax-ns#"
   xmlns:svg="http://www.w3.org/2000/svg"
   xmlns="http://www.w3.org/2000/svg"
   xmlns:xlink="http://www.w3.org/1999/xlink"
   version="1.1"
   id="svg18607"
   viewBox="0 0 32 32.000001"
   height="32"
   width="32">
  <defs
     id="defs18609">
    <linearGradient
       osb:paint="solid"
       id="linearGradient20803">
      <stop
         id="stop20805"
         offset="0"
         style="stop-color:#ffffff;stop-opacity:1;" />
    </linearGradient>
    <linearGradient
       gradientUnits="userSpaceOnUse"
       y2="257.15324"
       x2="751.59669"
       y1="257.15324"
       x1="671.2"
       id="linearGradient20807"
       xlink:href="#linearGradient20803" />
  </defs>
  <metadata
     id="metadata18612">
    <rdf:RDF>
      <cc:Work
         rdf:about="">
        <dc:format>image/svg+xml</dc:format>
        <dc:type
           rdf:resource="http://purl.org/dc/dcmitype/StillImage" />
        <dc:title></dc:title>
      </cc:Work>
    </rdf:RDF>
  </metadata>
  <g
     transform="translate(0,-1020.3622)"
     id="layer1">
    <g
       style="fill:url(#linearGradient20807);fill-opacity:1;stroke:none"
       transform="matrix(0.30247052,0,0,-0.30247052,-198.46486,1112.4559)"
       id="g32293">
      <path
         style="fill:url(#linearGradient20807);fill-opacity:1;stroke:none"
         d="m 734.936,266.58884 c -0.104,0 -0.2,0.01 -0.304,0.01 -2,0 -3.7192,-1.5512 -3.872,-3.592 -0.12,-1.48 0.608,-2.8232 1.776,-3.576 l 1.3128,2.672 0.936,1.8808 1.192,2.368 c -0.328,0.1264 -0.6728,0.2072 -1.0408,0.2392 z m 14.704,9.696 -11.152,7.4168 0.6728,6.208 -22.664,-23.32 -8.4968,0 0,4.56 7.136,-1.648 c 1.464,-0.328 2.9512,0.5752 3.28,2.0312 0.328,1.4328 -0.672,2.872 -2.112,3.2 l -8.304,2.104 0,1.9192 c 0,3.088 -2.52,5.576 -5.6,5.576 -3.08,0 -5.6,-2.4872 -5.6,-5.576 l 0,-12.168 -17.016,0 c -4.52,0 -8.584,-3.9128 -8.584,-8.44 l 0,-13.96 6.4,0 0,13.824 3.2,4.64 0,-16.16 -3.2,-4.768 0,-20.592 c 0,-2.032 1.568,-3.68 3.616,-3.68 2.0168,0 3.584,1.648 3.584,3.68 l 0,17.824 4,5.736 0,-6.1192 7.96,-19.184 c 1.0168,-1.784 3.176,-2.416 4.952,-1.4 1.7592,1 2.3512,3.24 1.336,5.024 l -7,16.4552 3.312,5.52 19.04,0 0,-20.448 4.184,7.0232 1.472,6.504 c -0.5128,-0.312 -1.096,-0.4872 -1.7048,-0.4872 -0.08,0 -0.1672,0.01 -0.248,0.016 -0.904,0.064 -1.7192,0.4808 -2.304,1.168 -0.56,0.664 -0.84,1.5128 -0.792,2.392 0.008,0.168 0.032,0.312 0.056,0.432 l 0.008,0.04 0.008,0.04 1.72,7.688 0.008,0.064 0.024,0.064 c 0.1912,0.616 0.5448,1.16 1,1.56 l 0.024,0.023 0.0232,0.017 7.8168,6.336 0.048,0.048 0.0488,0.032 c 0.4952,0.3448 1.016,0.624 1.5512,0.8088 -0.328,0.232 -0.6232,0.5192 -0.8952,0.832 -0.9448,1.1192 -1.4,2.536 -1.2808,3.9832 0.2168,2.8408 2.6168,5.072 5.464,5.072 0.1448,0 0.2808,-0.01 0.432,-0.016 0.576,-0.049 1.12,-0.184 1.632,-0.392 l 1.5192,3.016 5.9048,-1.136 2.048,-0.3832 0.904,-0.168 c 1.5512,-0.288 3.2,0.4232 4.024,1.8872 1.056,1.8488 0.3848,4.2248 -1.4552,5.2808 z m -18.584,-19.8808 c -0.12,-0.072 -0.2408,-0.144 -0.352,-0.2232 l -7.8168,-6.336 c -0.248,-0.224 -0.4232,-0.52 -0.5272,-0.8408 l -1.72,-7.68 c -0.0168,-0.088 -0.032,-0.168 -0.032,-0.24 -0.072,-0.976 0.6408,-1.824 1.616,-1.896 0.0408,0 0.0888,-0.01 0.128,-0.01 0.8488,0 1.552,0.672 1.736,1.472 l 1.4488,6.592 1.7128,1.3832 0.0392,0.032 3.784,7.744 0.008,0.017 c -0.009,-0.01 -0.0168,-0.01 -0.0248,-0.016 z m -5.664,-19.672 -1.3048,-5.768 -5,-8.3912 c -0.1512,-0.296 -0.3272,-0.728 -0.3592,-1.1448 -0.1128,-1.448 0.968,-2.7192 2.432,-2.824 0.072,-0.01 0.144,-0.01 0.2168,-0.01 0.9272,0 1.744,0.5128 2.2392,1.2808 l 1.7768,2.9912 0.208,0.352 0,14.432 -0.2088,-0.92 z"
         id="path3350" />
      <g
         style="fill:url(#linearGradient20807);fill-opacity:1;stroke:none"
         transform="matrix(0.8,0,0,-0.8,576,345.41204)"
         id="g3352">
        <g
           style="fill:url(#linearGradient20807);fill-opacity:1;stroke:none"
           id="g3354">
          <path
             style="fill:url(#linearGradient20807);fill-opacity:1;stroke:none"
             d="m 187.82,123.27 0.3,-0.24 -0.04,0.08 -0.23,0.6 m 23.13,7.519 c -0.07,0 -0.141,0 -0.201,-0.01 -0.369,-0.011 -0.67,-0.16 -1,-0.311 l -7.309,-5.03 c -0.221,-0.189 -0.41,-0.409 -0.551,-0.649 l -1.84,-3.641 -2.2,9.69 8.62,10.19 c 0.21,0.319 0.34,0.689 0.41,1.06 l 2.33,12.3 c -0.02,0.28 0.02,0.45 0,0.67 -0.12,1.74 -1.58,3.04 -3.29,3.04 -0.08,0 -0.16,0 -0.24,-0.01 -1.5,-0.13 -2.61,-1.24 -2.96,-2.61 l -2.21,-11.52 -7.011,-7.68 -1.629,7.47 c -0.051,0.35 -0.521,1.09 -0.65,1.39 l -4.25,7.16 -0.26,0.44 -2.221,3.739 c -0.619,0.96 -1.64,1.601 -2.799,1.601 -0.091,0 -0.181,0 -0.271,-0.01 -1.83,-0.131 -3.181,-1.721 -3.04,-3.53 0.04,-0.521 0.26,-1.061 0.449,-1.431 l 6.25,-10.489 1.631,-7.21 0.26,-1.15 3.33,-14.74 -1.221,0.98 -0.049,0.04 -2.141,1.729 -1.811,8.24 c -0.229,1 -1.109,1.84 -2.17,1.84 -0.049,0 -0.109,-0.01 -0.16,-0.01 -1.219,-0.09 -2.109,-1.15 -2.02,-2.37 0,-0.09 0.02,-0.189 0.04,-0.3 l 2.15,-9.6 c 0.13,-0.4 0.35,-0.771 0.659,-1.051 l 9.771,-7.92 c 0.14,-0.1 0.29,-0.189 0.44,-0.279 0.01,-0.011 0.02,-0.011 0.029,-0.021 0.76,-0.44 1.621,-0.72 2.561,-0.72 0.13,0 0.26,0.01 0.39,0.02 1.671,0.13 3.04,1.17 3.88,2.42 l 4.9,9.74 6.689,4.6 c 0.58,0.45 0.931,1.15 0.851,1.931 -0.076,1.132 -1.026,2.002 -2.136,2.002 z"
             id="path3356" />
          <path
             style="fill:url(#linearGradient20807);fill-opacity:1;stroke:none"
             d="m 213.12,129.229 c -0.08,1.13 -1.03,2 -2.14,2 -0.07,0 -0.141,0 -0.201,-0.01 -0.369,-0.011 -0.67,-0.16 -1,-0.311 l -7.309,-5.03 c -0.221,-0.189 -0.41,-0.409 -0.551,-0.649 l -1.84,-3.641 -2.2,9.69 8.62,10.19 c 0.21,0.319 0.34,0.689 0.41,1.06 l 2.33,12.3 c -0.02,0.28 0.02,0.45 0,0.67 -0.12,1.74 -1.58,3.04 -3.29,3.04 -0.08,0 -0.16,0 -0.24,-0.01 -1.5,-0.13 -2.61,-1.24 -2.96,-2.61 l -2.21,-11.52 -7.011,-7.68 -1.629,7.47 c -0.051,0.35 -0.521,1.09 -0.65,1.39 l -4.25,7.16 -0.26,0.44 -2.221,3.739 c -0.619,0.96 -1.64,1.601 -2.799,1.601 -0.091,0 -0.181,0 -0.271,-0.01 -1.83,-0.131 -3.181,-1.721 -3.04,-3.53 0.04,-0.521 0.26,-1.061 0.449,-1.431 l 6.25,-10.489 1.631,-7.21 0.26,-1.15 3.33,-14.74 -1.221,0.98 -0.049,0.04 -2.141,1.729 -1.811,8.24 c -0.229,1 -1.109,1.84 -2.17,1.84 -0.049,0 -0.109,-0.01 -0.16,-0.01 -1.219,-0.09 -2.109,-1.15 -2.02,-2.37 0,-0.09 0.02,-0.189 0.04,-0.3 l 2.15,-9.6 c 0.13,-0.4 0.35,-0.771 0.659,-1.051 l 9.771,-7.92 c 0.14,-0.1 0.29,-0.189 0.44,-0.279 0.01,-0.011 0.02,-0.011 0.029,-0.021 0.76,-0.44 1.621,-0.72 2.561,-0.72 0.13,0 0.26,0.01 0.39,0.02 1.671,0.13 3.04,1.17 3.88,2.42 l 4.9,9.74 6.689,4.6 c 0.585,0.453 0.935,1.153 0.855,1.933 z"
             id="path3358" />
          <path
             style="fill:url(#linearGradient20807);fill-opacity:1;stroke:none"
             d="m 194.65,108.699 c -0.15,0.04 -0.291,0.11 -0.44,0.17 -0.01,0 -0.021,0.01 -0.03,0.01 0.01,0.011 0.01,0.021 0.021,0.021 0.069,-0.03 0.13,-0.03 0.2,-0.061 0.08,-0.02 0.149,-0.05 0.22,-0.069 0.101,-0.021 0.159,-0.04 0.25,-0.061 0.06,-0.01 0.13,-0.04 0.13,-0.05 l 0,-0.11 c -0.121,0.03 -0.231,0.12 -0.351,0.15 z"
             id="path3360" />
        </g>
        <g
           style="fill:url(#linearGradient20807);fill-opacity:1;stroke:none"
           id="g3362">
          <g
             style="fill:url(#linearGradient20807);fill-opacity:1;stroke:none"
             id="g3364">
            <g
               style="fill:url(#linearGradient20807);fill-opacity:1;stroke:none"
               id="g3366">
              <path
                 style="fill:url(#linearGradient20807);fill-opacity:1;stroke:none"
                 d="m 203.15,103.77 c -0.211,2.55 -2.32,4.479 -4.83,4.479 -0.141,0 -0.271,-0.01 -0.41,-0.02 -0.83,-0.061 -1.59,-0.33 -2.24,-0.75 -1.46,-0.94 -2.37,-2.62 -2.22,-4.47 0.19,-2.551 2.34,-4.49 4.84,-4.49 0.13,0 0.25,0.01 0.38,0.01 0.46,0.04 0.891,0.141 1.301,0.3 2,0.73 3.349,2.71 3.179,4.941 z"
                 id="path3368" />
            </g>
          </g>
        </g>
      </g>
      <path
         style="fill:url(#linearGradient20807);fill-opacity:1;stroke:none"
         d="m 702.7328,285.71684 c 3.0856,0 5.5792,2.492 5.5792,5.5592 0,3.0856 -2.4928,5.5784 -5.5792,5.5784 -3.0672,0 -5.5592,-2.492 -5.5592,-5.5784 0,-3.0672 2.492,-5.5592 5.5592,-5.5592 l 0,0 z"
         id="path3370" />
    </g>
  </g>
</svg>
