<svg xmlns:dc="http://purl.org/dc/elements/1.1/" xmlns:cc="http://creativecommons.org/ns#"
     xmlns:rdf="http://www.w3.org/1999/02/22-rdf-syntax-ns#" xmlns:svg="http://www.w3.org/2000/svg"
     xmlns="http://www.w3.org/2000/svg" xmlns:sodipodi="http://sodipodi.sourceforge.net/DTD/sodipodi-0.dtd"
     xmlns:inkscape="http://www.inkscape.org/namespaces/inkscape" version="1.1" id="Calque_2" x="0px" y="0px"
     viewBox="0 0 36 36" style="enable-background:new 0 0 36 36;" xml:space="preserve" class="ng-scope"
     sodipodi:docname="alpi.svg" inkscape:version="0.92.3 (2405546, 2018-03-11)"><metadata id="metadata19"><rdf:RDF><cc:Work rdf:about=""><dc:format>image/svg+xml</dc:format><dc:type
        rdf:resource="http://purl.org/dc/dcmitype/StillImage"/><dc:title/></cc:Work></rdf:RDF></metadata>
    <defs id="defs17"><clipPath id="clipPath861" clipPathUnits="userSpaceOnUse"><path inkscape:connector-curvature="0" id="path859" d="M 0,279 H 279 V 0 H 0 Z"/></clipPath></defs>
    <sodipodi:namedview pagecolor="#ffffff" bordercolor="#666666" borderopacity="1" objecttolerance="10"
                        gridtolerance="10" guidetolerance="10" inkscape:pageopacity="0" inkscape:pageshadow="2"
                        inkscape:window-width="1853" inkscape:window-height="1145" id="namedview15" showgrid="true"
                        inkscape:snap-grids="false" inkscape:snap-to-guides="false" inkscape:snap-page="false"
                        inkscape:zoom="22.627417" inkscape:cx="13.92551" inkscape:cy="17.626765"
                        inkscape:window-x="1987" inkscape:window-y="27" inkscape:window-maximized="1"
                        inkscape:current-layer="Calque_2" inkscape:snap-others="false" inkscape:object-nodes="false"
                        inkscape:snap-nodes="false" inkscape:snap-global="false"><inkscape:grid type="xygrid" id="grid826"/></sodipodi:namedview>
    <style type="text/css" id="style2">
	.st0{fill:#FFFFFF;}
</style>
    <g style="fill:#fbfbfb;stroke:#ffffff;stroke-opacity:1;fill-opacity:1" id="g855"
       transform="matrix(0.14903886,0,0,-0.14648706,-2.5684311,36.908273)"><g style="fill:#fbfbfb;stroke:#ffffff;stroke-opacity:1;fill-opacity:1" id="g857" clip-path="url(#clipPath861)"><g style="fill:#fbfbfb;stroke:#ffffff;stroke-opacity:1;fill-opacity:1" id="g863" transform="translate(88.4712,144.8903)"><path d="m 0,0 16.593,-2.382 c 3.936,-0.567 8.052,2.099 9.142,5.923 l 13.01,45.556 c 1.091,3.825 -0.629,8.89 -3.824,11.259 L 20.454,71.077 c -3.196,2.369 -7.602,1.59 -9.792,-1.729 L 3.013,57.755 C 0.823,54.436 -1.366,48.489 -1.847,44.542 L -6.283,8.205 C -6.765,4.258 -3.939,0.566 0,0" style="fill:#fbfbfb;fill-opacity:1;fill-rule:nonzero;stroke:#ffffff;stroke-opacity:1" id="path865" inkscape:connector-curvature="0"/></g><g
            style="fill:#fbfbfb;stroke:#ffffff;stroke-opacity:1;fill-opacity:1" id="g867"
            transform="translate(117.6088,140.418)"><path d="m 0,0 h 27.815 l 5.001,19.287 42.488,-19.939 c 3.172,-1.495 7.033,-0.408 8.931,2.647 2.046,3.288 1.037,7.611 -2.251,9.655 L 27.449,45.558 c -0.338,0.207 -0.745,0.435 -1.113,0.604 -5.347,2.51 -11.7,0.247 -14.28,-5.046 C 10.78,39.615 9.803,37.822 9.277,35.785 Z" style="fill:#fbfbfb;fill-opacity:1;fill-rule:nonzero;stroke:#ffffff;stroke-opacity:1" id="path869" inkscape:connector-curvature="0"/></g><g
            style="fill:#fbfbfb;stroke:#ffffff;stroke-opacity:1;fill-opacity:1" id="g871"
            transform="translate(165.9558,104.6993)"><path d="m 0,0 -19.604,19.564 h -28.95 c -0.357,-0.573 -0.279,-1.383 -0.281,-2.578 -0.004,-1.603 0.49,-2.555 2.77,-4.327 L -15.7,-11.547 v -33.477 c 0,-5.204 4.221,-9.423 9.425,-9.423 5.204,0 9.425,4.219 9.425,9.423 v 37.996 c -0.008,2.394 -0.925,4.811 -2.753,6.637 z" style="fill:#fbfbfb;fill-opacity:1;fill-rule:nonzero;stroke:#ffffff;stroke-opacity:1" id="path873" inkscape:connector-curvature="0"/></g><g
            style="fill:#fbfbfb;stroke:#ffffff;stroke-opacity:1;fill-opacity:1" id="g875"
            transform="translate(115.1316,128.3009)"><path d="m 0,0 h 28.091 l 1.368,8.078 H -2.367 c -1.509,0 -2.892,-0.84 -3.587,-2.179 -0.19,-0.367 -19.479,-36.83 -54.941,-41.069 -2.216,-0.264 -3.797,-2.276 -3.533,-4.489 0.246,-2.054 1.988,-3.56 4.006,-3.56 0.159,0 0.322,0.009 0.484,0.026 C -25.163,-39.032 -5.017,-8.565 0,0" style="fill:#fbfbfb;fill-opacity:1;fill-rule:nonzero;stroke:#ffffff;stroke-opacity:1" id="path877" inkscape:connector-curvature="0"/></g><g
            style="fill:#fbfbfb;stroke:#ffffff;stroke-opacity:1;fill-opacity:1" id="g879"
            transform="translate(120.3446,109.3937)"><path d="m 0,0 c -4.786,2.054 -10.327,-0.16 -12.381,-4.945 l -17.454,-40.666 c -1.835,-4.296 0.046,-9.319 4.309,-11.316 4.352,-2.038 9.535,-0.161 11.574,4.191 l 18.77,40.077 c 0.038,0.08 0.091,0.2 0.125,0.28 C 6.997,-7.595 4.784,-2.052 0,0" style="fill:#fbfbfb;fill-opacity:1;fill-rule:nonzero;stroke:#ffffff;stroke-opacity:1" id="path881" inkscape:connector-curvature="0"/></g><g
            style="fill:#fbfbfb;stroke:#ffffff;stroke-opacity:1;fill-opacity:1" id="g883"
            transform="translate(227.0318,127.6967)"><path d="m 0,0 c -4.203,2.42 -8.405,4.14 -12.894,5.563 -0.818,0.253 -1.643,0.487 -2.472,0.711 h -0.001 c -18.912,4.875 -36.072,-2.065 -37.735,-2.768 -0.72,-0.345 -1.434,-0.7 -2.137,-1.078 l -0.116,-0.061 c -0.185,-0.102 -0.365,-0.213 -0.542,-0.338 -2.566,-1.797 3.95,-11.091 6.516,-9.294 4.621,3.239 9.997,5.399 15.725,6.448 v -71.751 c 0,-2.177 1.765,-3.942 3.942,-3.942 2.178,0 3.943,1.765 3.943,3.942 v 72.471 c 3.701,0.038 7.455,-0.311 11.172,-1.028 4.091,-0.794 8.312,-2.029 12.01,-3.644 l 0.148,-0.064 C -1.191,-5.38 0.295,-4.911 0.994,-3.701 1.742,-2.403 1.298,-0.747 0,0" style="fill:#fbfbfb;fill-opacity:1;fill-rule:nonzero;stroke:#ffffff;stroke-opacity:1" id="path885" inkscape:connector-curvature="0"/></g><g
            style="fill:#fbfbfb;stroke:#ffffff;stroke-opacity:1;fill-opacity:1" id="g887"
            transform="translate(156.1652,192.6169)"><path d="M 0,0 C 9.41,2.93 14.664,12.934 11.733,22.344 8.803,31.754 -1.2,37.007 -10.61,34.077 -20.021,31.147 -25.274,21.144 -22.344,11.733 -19.414,2.323 -9.41,-2.93 0,0" style="fill:#fbfbfb;fill-opacity:1;fill-rule:nonzero;stroke:#ffffff;stroke-opacity:1" id="path889" inkscape:connector-curvature="0"/></g></g></g>
</svg>