<svg version="1.1" id="Calque_2" xmlns="http://www.w3.org/2000/svg" xmlns:xlink="http://www.w3.org/1999/xlink" x="0px"
     y="0px" viewBox="0 0 36 36" style="enable-background:new 0 0 36 36;" xml:space="preserve" class="ng-scope">
<style type="text/css">
	.st0{fill:#FFFFFF;}
</style>
    <path class="st0"
          d="M26.1,12.2l-2.9,1.4l-2-2.6c0,0-0.3-0.9-1.4-1.2l-1.4-0.4c-0.4-0.1-1.2-0.3-2,0l-5.3,0.8l-0.5,5.5  c0,0.9,0.2,1.4,0.8,1.5c0.7,0.1,1.3-0.2,1.4-1.3l0.3-3.6l2.5-0.3c0,0-1,4.8-1.2,6c-0.2,1.6,4,7.1,4,7.1l0.3,7.1  c0.2,0.7,1,1.1,1.8,0.9c0.7-0.2,1.2-0.9,1-1.6l-0.1-6.9l-0.1-0.8c-0.1-0.4-0.2-0.8-0.4-1.3l-1.5-4l0.9-4.4l2.3,2.4l4.3-2.3  c1.1-0.6,1.2-1.2,0.9-1.7C27.5,11.9,27,11.8,26.1,12.2z"/>
    <g>
	<path class="st0"
          d="M23.9,3.5c-0.1-0.1-0.4-0.1-0.9,0l-1,0.3c-0.7-0.9-1.9-1.4-3.1-1.2c-1.6,0.4-2.6,2-2.2,3.6c0,0,0,0,0,0.1   l5.5-1.9l1-0.3C23.9,3.8,24,3.6,23.9,3.5z"/>
        <path class="st0"
              d="M13.4,24.5l-5.5,3.6c-0.6,0.4-0.8,1.3-0.4,1.9c0.4,0.6,1.2,0.9,1.9,0.5l5.9-3.8c0.1-0.1,0.3-0.1,0.4-0.2l0.1,0   l0,0c0.2-0.2,0.3-0.4,0.3-0.6l0.4-2.2c-1-1.4-1.7-2.6-2.4-4.1L13.4,24.5z"/>
        <path class="st0"
              d="M18.1,8.6c0.6,0.4,1.2,0.6,1.9,0.5c0.1,0,0.3,0,0.4-0.1c1.6-0.4,2.6-2,2.2-3.6c0-0.2-0.1-0.4-0.2-0.6L17,6.9   C17.1,7.6,17.6,8.2,18.1,8.6z"/>
</g>
</svg>