<?xml version="1.0" encoding="UTF-8" standalone="no"?>
<svg xmlns:dc="http://purl.org/dc/elements/1.1/" xmlns:cc="http://creativecommons.org/ns#"
     xmlns:rdf="http://www.w3.org/1999/02/22-rdf-syntax-ns#" xmlns="http://www.w3.org/2000/svg" id="svg3804"
     version="1.1" viewBox="0 0 6.3994236 6.7506738" height="6.7506738mm" width="6.3994236mm">
    <defs id="defs3798"/>
    <metadata id="metadata3801">
        <rdf:RDF>
            <cc:Work rdf:about="">
                <dc:format>image/svg+xml</dc:format>
                <dc:type rdf:resource="http://purl.org/dc/dcmitype/StillImage"/>
                <dc:title/>
            </cc:Work>
        </rdf:RDF>
    </metadata>
    <g transform="translate(-86.758621,-60.035377)" id="layer1">
        <g transform="matrix(0.26458333,0,0,0.26458333,11.906766,-86.457362)" id="layer1-4">
            <g id="g3696" transform="matrix(0.65374242,0,0,-0.65374242,296.22272,557.669)">
                <path style="fill:#ffffff;fill-rule:nonzero" id="path3698"
                      d="M 0,0 C 1.66,0.428 2.66,2.12 2.233,3.78 1.805,5.441 0.113,6.441 -1.548,6.013 -3.208,5.586 -4.208,3.893 -3.78,2.233 -3.353,0.572 -1.661,-0.428 0,0"/>
            </g>
            <g id="g3700" transform="matrix(0.65374242,0,0,-0.65374242,300.73316,560.25429)">
                <path style="fill:#ffffff;fill-rule:nonzero" id="path3702"
                      d="m 0,0 c 0.019,0.02 0.039,0.039 0.057,0.059 0.016,0.018 0.029,0.037 0.044,0.055 0.017,0.021 0.034,0.041 0.05,0.063 0.014,0.02 0.026,0.04 0.039,0.06 0.015,0.022 0.03,0.044 0.043,0.067 0.012,0.02 0.022,0.041 0.033,0.062 0.013,0.024 0.026,0.047 0.037,0.071 0.01,0.022 0.019,0.045 0.028,0.066 0.009,0.025 0.02,0.049 0.029,0.074 0.008,0.023 0.014,0.047 0.021,0.07 0.007,0.025 0.016,0.05 0.022,0.076 0.006,0.023 0.01,0.047 0.014,0.071 0.005,0.026 0.011,0.052 0.015,0.078 0.003,0.025 0.005,0.049 0.007,0.074 0.002,0.026 0.006,0.053 0.007,0.08 0.001,0.024 0,0.049 0,0.074 0,0.027 0,0.054 -0.001,0.081 C 0.443,1.206 0.44,1.232 0.437,1.257 0.434,1.284 0.432,1.311 0.427,1.338 0.423,1.364 0.417,1.389 0.412,1.414 0.407,1.437 0.404,1.459 0.398,1.482 0.397,1.487 0.395,1.491 0.394,1.496 0.392,1.501 0.392,1.506 0.391,1.51 0.385,1.529 0.378,1.548 0.372,1.567 0.363,1.595 0.354,1.624 0.343,1.651 0.338,1.666 0.331,1.68 0.325,1.694 0.031,2.4 -0.743,2.802 -1.505,2.606 L -5.99,1.451 -7.769,2.502 -10.927,4.367 c -0.653,0.385 -1.495,0.169 -1.88,-0.484 l -0.891,-1.509 -4.384,-7.423 c -0.019,-0.033 -0.037,-0.066 -0.054,-0.1 -0.022,-0.045 -0.041,-0.09 -0.059,-0.137 -0.018,-0.045 -0.033,-0.092 -0.046,-0.139 -0.041,-0.149 -0.06,-0.302 -0.057,-0.456 10e-4,-0.039 0.004,-0.077 0.007,-0.115 0.001,-0.009 0.002,-0.019 0.003,-0.028 0.012,-0.104 0.035,-0.207 0.068,-0.308 0.003,-0.008 0.005,-0.017 0.008,-0.025 0.05,-0.145 0.123,-0.285 0.218,-0.416 0,-0.001 0.001,-0.001 0.001,-0.001 0.062,-0.086 0.135,-0.162 0.214,-0.231 0.008,-0.008 0.016,-0.016 0.025,-0.024 0.019,-0.016 0.04,-0.03 0.06,-0.045 0.072,-0.056 0.148,-0.108 0.229,-0.152 l 4.494,-2.479 1.166,-4.53 0.474,-1.844 0.076,-0.294 0.413,-1.604 c 0.215,-0.836 1.067,-1.339 1.903,-1.124 0.836,0.215 1.339,1.067 1.124,1.903 l -0.422,1.638 -0.058,0.227 -0.591,2.297 -0.197,0.763 -0.497,1.931 -0.533,2.069 c -0.107,0.417 -0.381,0.772 -0.758,0.979 l -2.054,1.108 3.561,6 2.342,-1.383 c 0.22,-0.13 0.466,-0.203 0.717,-0.215 0.156,-0.008 0.314,0.007 0.467,0.047 l 1.667,0.429 1.844,0.475 0.855,0.22 0.214,0.055 0.532,0.137 c 0.053,0.014 0.104,0.03 0.154,0.048 0.016,0.006 0.032,0.014 0.048,0.02 0.033,0.014 0.065,0.027 0.097,0.042 0.019,0.009 0.037,0.02 0.055,0.03 0.027,0.015 0.055,0.029 0.081,0.045 0.019,0.012 0.037,0.026 0.055,0.038 0.024,0.017 0.048,0.032 0.071,0.05 0.019,0.014 0.035,0.029 0.053,0.044 0.021,0.018 0.043,0.035 0.064,0.054 C -0.031,-0.034 -0.016,-0.016 0,0"/>
            </g>
            <g id="g3704" transform="matrix(0.65374242,0,0,-0.65374242,302.08732,569.99657)">
                <path style="fill:#ffffff;fill-rule:nonzero" id="path3706"
                      d="m 0,0 c -0.284,-0.093 -0.609,-0.01 -0.812,0.233 l -9.084,10.874 c -0.133,0.159 -0.194,0.366 -0.17,0.572 0.025,0.206 0.133,0.393 0.299,0.516 l 4.459,3.307 c 0.334,0.248 0.806,0.178 1.054,-0.156 0.248,-0.334 0.178,-0.806 -0.157,-1.054 L -8.228,11.46 0.344,1.199 C 0.611,0.88 0.568,0.405 0.249,0.138 0.173,0.075 0.089,0.029 0,0"/>
            </g>
            <g id="g3708" transform="matrix(0.65374242,0,0,-0.65374242,290.67579,567.67982)">
                <path style="fill:#ffffff;fill-rule:nonzero" id="path3710"
                      d="M 0,0 4.432,-5.373 7.847,4.982 Z m -2.923,-8.606 6.358,2.074 -4.237,5.136 z m 7.876,0.984 c -0.001,0 -0.003,0 -0.004,-0.001 l -8.765,-2.859 c -0.266,-0.086 -0.558,-0.019 -0.759,0.176 -0.2,0.195 -0.276,0.485 -0.197,0.753 l 2.924,9.941 c 0.048,0.164 0.15,0.312 0.301,0.414 0.007,0.005 0.015,0.01 0.022,0.015 L 8.819,7.384 C 9.087,7.555 9.434,7.538 9.685,7.342 9.936,7.147 10.037,6.814 9.938,6.512 L 5.438,-7.132 C 5.429,-7.159 5.419,-7.185 5.408,-7.211 5.395,-7.241 5.379,-7.271 5.362,-7.299 H 5.361 C 5.277,-7.437 5.148,-7.548 4.987,-7.61 4.976,-7.614 4.965,-7.618 4.953,-7.622"/>
            </g>
            <g id="g3712" transform="matrix(0.65374242,0,0,-0.65374242,287.68491,573.0109)">
                <path style="fill:#ffffff;fill-rule:nonzero" id="path3714"
                      d="m 0,0 c -0.888,-0.29 -1.375,-1.248 -1.086,-2.136 0.29,-0.889 1.249,-1.376 2.137,-1.086 0.888,0.29 1.375,1.248 1.085,2.136 C 1.847,-0.197 0.888,0.29 0,0 M 1.275,-3.908 C 0.008,-4.321 -1.358,-3.626 -1.771,-2.36 -2.184,-1.094 -1.49,0.273 -0.224,0.686 1.043,1.099 2.409,0.405 2.822,-0.862 3.235,-2.128 2.541,-3.495 1.275,-3.908"/>
            </g>
            <g id="g3716" transform="matrix(0.65374242,0,0,-0.65374242,286.74515,570.12978)">
                <path style="fill:#ffffff;fill-rule:nonzero" id="path3718"
                      d="m 0,0 c -3.318,-1.082 -5.138,-4.663 -4.055,-7.981 1.082,-3.318 4.662,-5.137 7.981,-4.055 3.318,1.082 5.137,4.663 4.055,7.981 C 6.899,-0.737 3.318,1.082 0,0 m 4.393,-13.468 c -4.108,-1.34 -8.541,0.912 -9.881,5.02 -1.339,4.108 0.912,8.54 5.021,9.88 4.108,1.34 8.54,-0.912 9.88,-5.02 1.34,-4.108 -0.912,-8.54 -5.02,-9.88"/>
            </g>
            <g id="g3720" transform="matrix(0.65374242,0,0,-0.65374242,301.59282,568.48091)">
                <path style="fill:#ffffff;fill-rule:nonzero" id="path3722"
                      d="m 0,0 c -0.883,-0.288 -1.368,-1.241 -1.08,-2.124 0.289,-0.884 1.242,-1.368 2.125,-1.08 0.883,0.288 1.368,1.241 1.08,2.124 C 1.836,-0.196 0.883,0.288 0,0 m 1.272,-3.899 c -1.267,-0.413 -2.633,0.281 -3.046,1.548 -0.413,1.266 0.281,2.633 1.547,3.046 C 1.04,1.108 2.406,0.414 2.819,-0.853 3.232,-2.119 2.538,-3.486 1.272,-3.899"/>
            </g>
            <g id="g3724" transform="matrix(0.65374242,0,0,-0.65374242,300.65117,565.59406)">
                <path style="fill:#ffffff;fill-rule:nonzero" id="path3726"
                      d="m 0,0 c -3.318,-1.082 -5.138,-4.663 -4.055,-7.981 1.082,-3.318 4.662,-5.137 7.981,-4.055 3.318,1.082 5.137,4.663 4.055,7.981 C 6.899,-0.737 3.318,1.082 0,0 m 4.393,-13.468 c -4.108,-1.34 -8.541,0.912 -9.881,5.02 -1.34,4.108 0.913,8.54 5.021,9.88 4.108,1.34 8.54,-0.912 9.88,-5.02 1.34,-4.108 -0.912,-8.54 -5.02,-9.88"/>
            </g>
            <g id="g3728" transform="matrix(0.65374242,0,0,-0.65374242,291.04397,569.1763)">
                <path style="fill:#ffffff;fill-rule:nonzero" id="path3730"
                      d="m 0,0 c -0.281,-0.092 -0.602,-0.012 -0.806,0.226 l -3.443,4.016 c -0.271,0.316 -0.234,0.791 0.082,1.062 0.316,0.271 0.791,0.234 1.062,-0.081 L 0.338,1.207 C 0.609,0.891 0.572,0.415 0.256,0.144 0.179,0.078 0.091,0.03 0,0"/>
            </g>
            <g id="g3732" transform="matrix(0.65374242,0,0,-0.65374242,290.95022,565.78147)">
                <path style="fill:#ffffff;fill-rule:nonzero" id="path3734"
                      d="m 0,0 -4.476,-1.46 c -0.485,-0.158 -1.008,0.107 -1.166,0.593 -0.159,0.486 0.107,1.008 0.592,1.166 l 4.476,1.46 C -0.088,1.918 0.434,1.652 0.593,1.166 0.751,0.681 0.486,0.158 0,0"/>
            </g>
            <g id="g3736" transform="matrix(0.65374242,0,0,-0.65374242,288.92068,579.18771)">
                <path style="fill:#ffffff;fill-rule:nonzero" id="path3738" d="M 0,0 27.795,9.231 V 0 Z"/>
            </g>
        </g>
    </g>
</svg>