<?xml version="1.0" encoding="UTF-8"?>
<!-- Generator: Adobe Illustrator 18.0.0, SVG Export Plug-In . SVG Version: 6.00 Build 0)  -->
<!DOCTYPE svg PUBLIC "-//W3C//DTD SVG 1.1//EN" "http://www.w3.org/Graphics/SVG/1.1/DTD/svg11.dtd">
<svg version="1.1" id="cross" xmlns:rdf="http://www.w3.org/1999/02/22-rdf-syntax-ns#" xmlns:cc="http://creativecommons.org/ns#" xmlns:svg="http://www.w3.org/2000/svg" xmlns:dc="http://purl.org/dc/elements/1.1/" xmlns="http://www.w3.org/2000/svg" xmlns:xlink="http://www.w3.org/1999/xlink" x="0px" y="0px" width="128px" height="128px" viewBox="0 0 128 128" enable-background="new 0 0 128 128" xml:space="preserve">
<g class="base">
	<path d="M17.3,90.2c-0.3-0.5-7-12.3-3.6-24.2c1.9-6.5,6.4-11.7,13.4-15.4c11.9-6.3,25.2-0.6,38.1,5c13.3,5.7,25.9,11.2,36.2,4   c5.6-3.9,9-8.7,9.9-14.2c1.7-10.2-5.3-19.8-5.4-20c-1.2-1.6-0.9-3.7,0.7-4.9c1.6-1.2,3.7-0.9,4.9,0.7c0.4,0.5,8.9,12.1,6.7,25.2   c-1.2,7.5-5.5,13.8-12.8,18.9C91.9,74.7,76.3,68,62.5,62c-11.9-5.2-23.1-10-32-5.3c-5.2,2.7-8.6,6.5-9.9,11.1   c-2.6,9,2.8,18.7,2.9,18.8c0.9,1.7,0.4,3.8-1.3,4.8c-0.6,0.3-1.2,0.5-1.8,0.5C19.2,91.9,18,91.2,17.3,90.2z"/>
	<path d="M8.5,97.1c0,7.2,5.8,13,13,13s13-5.8,13-13s-5.8-13-13-13S8.5,89.9,8.5,97.1z M18.5,97.1c0-1.7,1.3-3,3-3s3,1.3,3,3   s-1.3,3-3,3C19.9,100.1,18.5,98.8,18.5,97.1z"/>
</g>
</svg>