<svg xmlns:dc="http://purl.org/dc/elements/1.1/" xmlns:cc="http://creativecommons.org/ns#" xmlns:rdf="http://www.w3.org/1999/02/22-rdf-syntax-ns#" xmlns:svg="http://www.w3.org/2000/svg" xmlns="http://www.w3.org/2000/svg" version="1.1" viewBox="0 0 100 125" x="0px" y="0px"><g transform="translate(0,-952.36216)"><path d="m 49.999999,957.36216 c -1.363209,0 -2.948534,0.42154 -4.156558,1.2664 -1.208033,0.84485 -1.998613,1.90693 -2.685955,3.02025 l -0.03457,0.0544 -31.651753,55.54209 c -1.069003,1.7149 -1.6242706,3.5326 -1.5694146,5.9203 0.02841,1.2364 0.2692156,2.7243 1.3619186,4.1236 1.092704,1.3994 3.095828,2.2529 4.8581,2.2529 l 30.505567,0 0,17.8201 6.745346,0 0,-17.8201 30.505559,0 c 1.762306,0 3.765438,-0.8535 4.858099,-2.2529 1.092746,-1.3993 1.333252,-2.8872 1.361919,-4.1236 0.05481,-2.3877 -0.500361,-4.2054 -1.569414,-5.9203 l -31.651745,-55.54209 -0.03457,-0.0544 c -0.687351,-1.11332 -1.477864,-2.1754 -2.685955,-3.02025 -1.208007,-0.84486 -2.793315,-1.2664 -4.15655,-1.2664 z m 0,0.84317 c 1.233218,0 2.607177,0.36704 3.674038,1.11324 1.066861,0.74612 1.796454,1.70962 2.452102,2.77159 l 0.02631,0.0444 31.645159,55.52894 -0.08728,-0.1432 c 1.014163,1.5663 1.596143,3.3834 1.54471,5.6271 -0.0258,1.1219 -0.249662,2.428 -1.184061,3.6246 -0.934399,1.1967 -2.624581,1.9284 -4.192789,1.9284 l -67.756472,0 c -1.568166,0 -3.258373,-0.7317 -4.192789,-1.9284 -0.934407,-1.1966 -1.15826,-2.5027 -1.184061,-3.6246 -0.05152,-2.2437 0.530572,-4.0608 1.544718,-5.6271 l -0.08728,0.1432 31.64516,-55.52894 0.02631,-0.0444 c 0.655631,-1.06197 1.385266,-2.02547 2.452102,-2.77159 1.066844,-0.7462 2.440829,-1.11324 3.674047,-1.11324 z m 0,0.84317 c -1.103218,0 -2.26588,0.31435 -3.191527,0.96173 -0.925647,0.64739 -1.592694,1.5123 -2.216613,2.52292 l -0.01973,0.033 -31.63693,55.51575 0.06256,-0.1021 c -0.882966,1.3637 -1.455958,3.1347 -1.409676,5.1496 0.0231,1.0071 0.228431,2.1301 1.004559,3.124 0.776128,0.9939 2.155071,1.604 3.529123,1.604 l 67.756472,0 c 1.374027,0 2.752986,-0.6101 3.529123,-1.604 0.776136,-0.9939 0.981793,-2.1169 1.004559,-3.124 0.04629,-2.0149 -0.52671,-3.7859 -1.409676,-5.1496 l 0.06256,0.1021 -31.636922,-55.51575 -0.01973,-0.033 c -0.623944,-1.01062 -1.290983,-1.87553 -2.216613,-2.52292 -0.925631,-0.64738 -2.088233,-0.96173 -3.191519,-0.96173 z m 0,4.21584 c 0.453287,0 0.554265,0.0473 0.773995,0.20091 0.218296,0.1527 0.579661,0.53028 1.04079,1.27463 L 83.43195,1020.221 c 0.475378,0.8341 0.898733,1.8706 0.765765,2.8112 -0.267284,0.6911 -0.863159,0.6 -2.005821,0.6093 l -64.383799,0 c -1.142662,-0.01 -1.738546,0.082 -2.005821,-0.6093 -0.132943,-0.9406 0.290446,-1.9771 0.765773,-2.8112 l 31.617159,-55.48112 c 0.461078,-0.74443 0.822485,-1.12193 1.04079,-1.27463 0.219696,-0.15363 0.320749,-0.20091 0.774003,-0.20091 z m -9.852885,29.96046 -1.073724,2.29072 26.269961,12.31488 -1.610578,3.4353 10.071906,-0.8663 -5.777026,-8.295 -1.610578,3.4352 -26.269961,-12.3148 z m -9.069,7.2855 -11.906455,20.5671 60.752576,0 -48.846121,-20.5671 z" style="color:#000000;font-style:normal;font-variant:normal;font-weight:normal;font-stretch:normal;font-size:medium;line-height:normal;font-family:sans-serif;text-indent:0;text-align:start;text-decoration:none;text-decoration-line:none;text-decoration-style:solid;text-decoration-color:#000000;letter-spacing:normal;word-spacing:normal;text-transform:none;direction:ltr;block-progression:tb;writing-mode:lr-tb;baseline-shift:baseline;text-anchor:start;white-space:normal;clip-rule:nonzero;display:inline;overflow:visible;visibility:visible;opacity:1;isolation:auto;mix-blend-mode:normal;color-interpolation:sRGB;color-interpolation-filters:linearRGB;solid-color:#000000;solid-opacity:1;fill:#000000;fill-opacity:1;fill-rule:evenodd;stroke:none;stroke-width:9;stroke-linecap:butt;stroke-linejoin:miter;stroke-miterlimit:4;stroke-dasharray:none;stroke-dashoffset:0;stroke-opacity:1;color-rendering:auto;image-rendering:auto;shape-rendering:auto;text-rendering:auto;enable-background:accumulate"/></g></svg>
