<?xml version="1.0" encoding="UTF-8" standalone="no"?>
<!-- Created with Inkscape (http://www.inkscape.org/) -->

<svg
   xmlns:dc="http://purl.org/dc/elements/1.1/"
   xmlns:cc="http://creativecommons.org/ns#"
   xmlns:rdf="http://www.w3.org/1999/02/22-rdf-syntax-ns#"
   xmlns:svg="http://www.w3.org/2000/svg"
   xmlns="http://www.w3.org/2000/svg"
   version="1.1"
   width="128"
   height="128"
   id="svg3041">
  <defs
     id="defs3043">
    <filter
       color-interpolation-filters="sRGB"
       id="filter66799">
      <feGaussianBlur
         id="feGaussianBlur66801"
         result="result6"
         stdDeviation="1.5" />
      <feComposite
         in2="result6"
         operator="atop"
         in="SourceGraphic"
         result="result8"
         id="feComposite66803" />
      <feComposite
         in2="SourceAlpha"
         operator="atop"
         in="result8"
         result="result9"
         id="feComposite66805" />
    </filter>
    <filter
       color-interpolation-filters="sRGB"
       id="filter66863">
      <feGaussianBlur
         id="feGaussianBlur66865"
         result="result6"
         stdDeviation="1.5" />
      <feComposite
         in2="result6"
         operator="atop"
         in="SourceGraphic"
         result="result8"
         id="feComposite66867" />
      <feComposite
         in2="SourceAlpha"
         operator="atop"
         in="result8"
         result="result9"
         id="feComposite66869" />
    </filter>
    <filter
       color-interpolation-filters="sRGB"
       id="filter66647">
      <feGaussianBlur
         stdDeviation="1.5"
         result="result6"
         id="feGaussianBlur66649" />
      <feComposite
         in2="result6"
         operator="atop"
         in="SourceGraphic"
         result="result8"
         id="feComposite66651" />
      <feComposite
         in2="SourceAlpha"
         operator="atop"
         in="result8"
         result="result9"
         id="feComposite66653" />
    </filter>
    <filter
       color-interpolation-filters="sRGB"
       id="filter66655">
      <feGaussianBlur
         stdDeviation="1.5"
         result="result6"
         id="feGaussianBlur66657" />
      <feComposite
         in2="result6"
         operator="atop"
         in="SourceGraphic"
         result="result8"
         id="feComposite66659" />
      <feComposite
         in2="SourceAlpha"
         operator="atop"
         in="result8"
         result="result9"
         id="feComposite66661" />
    </filter>
    <filter
       color-interpolation-filters="sRGB"
       id="filter66663">
      <feGaussianBlur
         stdDeviation="1.5"
         result="result6"
         id="feGaussianBlur66665" />
      <feComposite
         in2="result6"
         operator="atop"
         in="SourceGraphic"
         result="result8"
         id="feComposite66667" />
      <feComposite
         in2="SourceAlpha"
         operator="atop"
         in="result8"
         result="result9"
         id="feComposite66669" />
    </filter>
    <filter
       color-interpolation-filters="sRGB"
       id="filter66671">
      <feGaussianBlur
         stdDeviation="1.5"
         result="result6"
         id="feGaussianBlur66673" />
      <feComposite
         in2="result6"
         operator="atop"
         in="SourceGraphic"
         result="result8"
         id="feComposite66675" />
      <feComposite
         in2="SourceAlpha"
         operator="atop"
         in="result8"
         result="result9"
         id="feComposite66677" />
    </filter>
    <filter
       color-interpolation-filters="sRGB"
       id="filter66679">
      <feGaussianBlur
         stdDeviation="1.5"
         result="result6"
         id="feGaussianBlur66681" />
      <feComposite
         in2="result6"
         operator="atop"
         in="SourceGraphic"
         result="result8"
         id="feComposite66683" />
      <feComposite
         in2="SourceAlpha"
         operator="atop"
         in="result8"
         result="result9"
         id="feComposite66685" />
    </filter>
    <filter
       color-interpolation-filters="sRGB"
       id="filter66687">
      <feGaussianBlur
         stdDeviation="1.5"
         result="result6"
         id="feGaussianBlur66689" />
      <feComposite
         in2="result6"
         operator="atop"
         in="SourceGraphic"
         result="result8"
         id="feComposite66691" />
      <feComposite
         in2="SourceAlpha"
         operator="atop"
         in="result8"
         result="result9"
         id="feComposite66693" />
    </filter>
    <filter
       color-interpolation-filters="sRGB"
       id="filter66695">
      <feGaussianBlur
         stdDeviation="1.5"
         result="result6"
         id="feGaussianBlur66697" />
      <feComposite
         in2="result6"
         operator="atop"
         in="SourceGraphic"
         result="result8"
         id="feComposite66699" />
      <feComposite
         in2="SourceAlpha"
         operator="atop"
         in="result8"
         result="result9"
         id="feComposite66701" />
    </filter>
    <clipPath
       id="clipPath3670-7">
      <path
         d="m 256.208,113.587 c 3.371,-2.2 15.76,-9.42 33.03,-9.42 l 0,0 0.01,0 c 4.311,0 8.63,0.45 12.941,1.33 l 0,0 c 0.54,0.111 1.08,0.23 1.62,0.36 l 0,0 c 0.52,0.12 1.04,0.239 1.56,0.38 l 0,0 c 0.32,0.08 0.64,0.159 0.95,0.26 l 0,0 c 0.52,0.13 1.029,0.28 1.54,0.43 l 0,0 c 0.501,0.15 0.989,0.3 1.49,0.46 l 0,0 -1.32,1.2 -1.379,1.24 0,0.01 -2.771,2.49 0.45,0.48 -0.231,0.22 0,-0.01 c -0.029,-0.23 -0.119,-0.449 -0.259,-0.65 l 0,0 c -0.02,-0.03 -0.05,-0.05 -0.059,-0.08 l 0,0 c -0.391,-0.48 -1.081,-0.86 -1.97,-1.169 l 0,0 c -0.461,-0.161 -0.981,-0.301 -1.53,-0.411 l 0,0 c -0.511,-0.12 -1.061,-0.219 -1.63,-0.299 l 0,0 c -1.652,-0.231 -3.482,-0.331 -5.201,-0.331 l 0,0 c -5.211,0 -11.411,0.899 -13.17,3.42 l 0,0 c -0.411,0.59 -0.561,1.24 -0.45,1.92 l 0,0 -0.05,0 0,0.049 -23.571,-1.879 z"
         id="path3672-1" />
    </clipPath>
    <clipPath
       id="clipPath4890-4">
      <path
         d="m 297.059,162.327 c -0.381,-0.03 -0.881,-0.07 -1.49,-0.141 l 0,0 c -3.701,-0.429 -11.361,-1.809 -18.941,-6.239 l 0,0 c -5.474,-3.197 -11.543,-8.41 -15.768,-16.821 l 0,0 23.807,0 c 2.723,2.624 6.367,4.468 10.902,5.501 l 0,0 c 0.49,0.11 0.979,0.21 1.49,0.3 l 0,0 c 0.319,0.06 0.649,0.12 0.989,0.17 l 0,0 -0.459,17.27 c -0.131,-0.01 -0.31,-0.021 -0.53,-0.04"
         id="path4892-8" />
    </clipPath>
    <clipPath
       id="clipPath6110-7">
      <path
         d="m 260.86,139.126 c -3.161,-6.292 -5.289,-14.374 -5.362,-24.74 l 0,0 24.231,1.721 -0.011,0.06 0.121,0.009 c -0.601,2.291 -2.72,11.951 2.16,19.682 l 0,0 c 0.759,1.197 1.649,2.287 2.668,3.268 l 0,0 -23.807,0 z"
         id="path6112-2" />
    </clipPath>
    <clipPath
       id="clipPath7330-5">
      <path
         d="m 0,938.37 595.279,0 L 595.279,0 0,0 0,938.37 z"
         id="path7332-7" />
    </clipPath>
    <clipPath
       id="clipPath7346-5">
      <path
         d="m 298.539,145.077 0.01,-0.01 c 0.222,-0.123 2.423,-1.433 4.176,-5.941 l 0,0 7.669,0 c -1.105,5.263 -3.004,10.575 -6.095,15.411 l 0,0 c -1.02,1.62 -2.17,3.17 -3.489,4.65 l 0,0 -0.011,0.01 c -0.83,0.95 -1.72,1.871 -2.68,2.75 l 0,0 0.42,-16.87 z"
         id="path7348-2" />
    </clipPath>
    <clipPath
       id="clipPath8566-8">
      <path
         d="m 302.725,139.126 c 1.793,-4.608 3.118,-12.558 1.384,-25.999 l 0,0 2.61,-2.36 1.391,-1.25 1.379,-1.251 0.37,-0.339 c 0.722,3.13 3.521,16.985 0.535,31.199 l 0,0 -7.669,0 z"
         id="path8568-6" />
    </clipPath>
  </defs>
  <metadata
     id="metadata3046">
    <rdf:RDF>
      <cc:Work
         rdf:about="">
        <dc:format>image/svg+xml</dc:format>
        <dc:type
           rdf:resource="http://purl.org/dc/dcmitype/StillImage" />
        <dc:title></dc:title>
      </cc:Work>
    </rdf:RDF>
  </metadata>
  <g
     transform="matrix(1.3906364,0,0,-1.3906364,-1342.786,440.13694)"
     id="g32328"
     style="fill:#ff7b00;fill-opacity:1">
    <path
       d="m 1014.1064,248.21044 c 0.016,-0.1128 0.01,-0.2232 0,-0.336 0.015,0.1128 0.024,0.2232 0,0.336 z"
       id="path3292"
       style="fill:#ff7b00;fill-opacity:1" />
    <path
       d="m 1043.4104,273.70724 v -1.7608 l -0.696,-0.344 -1.432,-0.7128 -0.592,-0.2952 -0.5832,0.328 -0.92,0.52 v -3.5528 l -0.576,-0.3752 -1.6168,-1.0408 -0.672,-0.4312 -0.68,0.4392 -1.6,1.0408 -0.576,0.3672 v 3.5528 l -0.936,-0.528 -0.6168,-0.3456 -0.616,0.3528 -1.432,0.816 -0.624,0.3592 v 2.1456 l -1.408,-0.8736 -0.6808,-0.4232 -0.672,0.4408 -1.328,0.88 -0.56,0.3768 v 1.7032 l -2.512,-1.416 -0.536,-0.3048 -0.56,0.2408 -1.872,0.784 -0.76,0.3184 v 3.5768 l 0.6488,0.3512 2.496,1.3688 -0.7368,0.3768 -0.6872,0.344 v 0.208 c -2.504,0.3032 -5.088,0.464 -7.728,0.464 -22.472,0.01 -40.76,-11.272 -40.76,-25.1768 -0.008,-7.0872 4.7448,-13.5128 12.392,-18.0952 0.144,-0.097 0.288,-0.1768 0.44,-0.264 0.24,-0.144 0.488,-0.28 0.736,-0.4248 1.504,-0.8312 3.1128,-1.6 4.808,-2.2952 0.4488,-0.184 0.9128,-0.3592 1.3768,-0.536 0.36,-0.136 0.7192,-0.264 1.08,-0.392 0.168,-0.056 0.344,-0.12 0.5128,-0.1768 -0.432,1.6408 -0.9368,3.3608 -1.5048,5 -0.8232,0.041 -1.5592,0.584 -1.816,1.4096 -0.392,1.272 -1.032,2.7264 -1.344,3.0472 -0.6728,0.68 -0.76,1.72 -0.2728,2.4968 -0.4,0.464 -0.8,0.8232 -1.216,1.0472 -0.384,0.2096 -0.52,0.6816 -0.312,1.064 0.136,0.256 0.408,0.4 0.68,0.4 0.128,0 0.256,-0.023 0.376,-0.095 0.6168,-0.328 1.192,-0.856 1.7448,-1.528 0.144,0.023 0.28,0.041 0.4232,0.041 0.5128,0 1.024,-0.192 1.4168,-0.584 1.2,-1.2 2.096,-3.9048 2.336,-4.7128 0.232,-0.744 0,-1.528 -0.536,-2.0312 0.728,-2.072 1.328,-4.2248 1.8,-6.1128 0.168,-0.049 0.328,-0.1048 0.504,-0.1512 0.12,-0.033 0.24,-0.064 0.36,-0.097 0.048,-0.016 0.096,-0.031 0.1512,-0.047 0.104,-0.025 0.2088,-0.056 0.3128,-0.082 0.1512,-0.047 0.312,-0.087 0.464,-0.128 -0.296,5.3048 1.1272,12.0168 0.016,14.592 -0.16,-0.016 -0.32,-0.023 -0.48,-0.023 -0.184,-0.01 -0.368,-0.01 -0.5448,0 -0.08,0 -0.1592,0.01 -0.24,0.01 -1.776,0.087 -3.44,0.608 -4.904,1.336 -0.776,0.384 -1.256,0.6872 -1.896,0.92 -0.616,0.2312 -1.256,0.384 -1.9192,0.456 -1.328,0.1672 -2.696,-0.041 -4.032,-0.592 -1.5368,-0.616 -3.1448,-0.6488 -4.6408,-0.416 1.496,0.2312 2.96,0.6392 4.096,1.4472 1.2808,0.92 2.928,1.5048 4.608,1.6248 0.8408,0.047 1.696,-0.025 2.5368,-0.2 0.816,-0.1528 1.6952,-0.5048 2.2952,-0.6968 1.32,-0.4232 2.624,-0.656 3.864,-0.5752 1.256,0.072 2.4,0.4312 3.5768,1.0472 0.6872,0.3528 1.448,0.728 2.312,1 0.56,0.192 1.176,0.336 1.816,0.408 -0.5832,-1.6392 -1.08,-3.344 -1.344,-4.3032 0.176,0.064 0.344,0.1128 0.5128,0.1592 0.176,0.049 0.3512,0.097 0.5192,0.128 0.296,1.064 0.768,2.616 1.304,4.08 0.032,0.074 0.056,0.136 0.081,0.2096 0.296,0.7752 1.016,1.264 1.8,1.2952 0.3912,1.0232 0.6552,1.608 0.664,1.6408 0.136,0.2872 0.416,0.4544 0.712,0.4544 0.112,0 0.216,-0.023 0.32,-0.064 0.3912,-0.1832 0.568,-0.6392 0.3912,-1.0312 -0.01,-0.031 -0.2552,-0.5768 -0.632,-1.5512 0.464,-0.4408 0.704,-1.0888 0.6088,-1.744 -0.017,-0.136 -0.049,-0.2816 -0.1048,-0.4168 -0.448,-1.192 -0.8632,-2.4952 -1.1592,-3.5032 -0.2808,-0.9768 -0.456,-1.656 -0.456,-1.672 -0.208,-0.792 -0.872,-1.3528 -1.64,-1.472 -0.968,-3.9528 -1.808,-8.736 -1.952,-13.8 0.152,-0.025 0.3128,-0.049 0.464,-0.072 0.152,-0.017 0.304,-0.041 0.456,-0.056 0.504,-0.072 1.008,-0.136 1.5192,-0.192 0.16,-0.016 0.3128,-0.041 0.464,-0.049 0.152,-0.023 0.304,-0.041 0.456,-0.049 0.624,2.5768 1.56,6.136 2.688,9.5048 -0.6168,0.4952 -0.904,1.32 -0.6728,2.12 0.01,0.023 0.017,0.047 0.024,0.072 0.01,0.049 0.024,0.1112 0.049,0.1752 0.032,0.097 0.064,0.2 0.104,0.328 0.023,0.072 0.048,0.1456 0.072,0.2248 0.192,0.5592 0.48,1.3112 0.856,2.0872 0.048,0.1128 0.112,0.216 0.168,0.328 0.104,0.216 0.2232,0.4312 0.3592,0.6488 0.1448,0.2392 0.296,0.48 0.464,0.7032 0.2,0.28 0.4168,0.536 0.6408,0.7608 0.3912,0.392 0.904,0.5832 1.416,0.5832 0.048,0 0.088,0 0.128,-0.01 0.392,0.544 0.7832,0.984 1.176,1.2968 0.144,0.1112 0.3128,0.1592 0.4808,0.1592 0.232,0 0.4632,-0.1032 0.616,-0.2952 0.264,-0.344 0.208,-0.8328 -0.136,-1.0968 -0.24,-0.192 -0.48,-0.4472 -0.728,-0.7672 0.064,-0.08 0.128,-0.1608 0.176,-0.2488 0.073,-0.1048 0.12,-0.216 0.16,-0.328 0.01,-0.016 0.017,-0.031 0.017,-0.049 0.01,-0.016 0.016,-0.031 0.016,-0.039 0.024,-0.064 0.04,-0.128 0.049,-0.192 v -0.01 c 0.023,-0.056 0.032,-0.12 0.032,-0.184 0.01,-0.041 0.016,-0.087 0.01,-0.128 0.024,-0.1128 0.016,-0.2232 0,-0.336 0,-0.064 -0.01,-0.12 -0.032,-0.184 -0.024,-0.1832 -0.096,-0.3672 -0.184,-0.536 -0.055,-0.12 -0.128,-0.2232 -0.216,-0.328 -0.04,-0.056 -0.088,-0.1032 -0.136,-0.1512 -0.664,-0.664 -1.4168,-2.536 -1.72,-3.592 -0.224,-0.792 -0.896,-1.328 -1.664,-1.4312 -0.744,-2.2248 -1.4232,-4.6 -2.008,-6.784 2.496,3.928 5.48,7.4312 8.208,7.4312 0.12,0 0.224,-0.1032 0.224,-0.2232 0,-0.12 -0.104,-0.2232 -0.224,-0.2232 -2.264,0 -3.632,-5.392 -4.944,-9.3768 -0.08,-0.216 -0.08,-0.216 -0.08,-0.216 0.168,0 0.3272,-0.01 0.4952,-0.01 h 0.4808 c 22.464,-0.025 40.744,11.272 40.744,25.1672 0.01,6.1992 -3.6272,11.888 -9.6424,16.288 z m 1.7432,-23.3448 c -0.7832,0.056 -1.5832,0.2248 -2.344,0.528 -1.344,0.5608 -2.704,0.792 -4.032,0.6248 -0.656,-0.082 -1.296,-0.2168 -1.912,-0.4488 -0.296,-0.1128 -0.6168,-0.256 -0.888,-0.4 -0.288,-0.144 -0.64,-0.344 -1.0168,-0.536 -1.4552,-0.7128 -3.1192,-1.2408 -4.8952,-1.32 -1.76,-0.1128 -3.592,0.2872 -5.136,0.9512 -1.384,0.6 -2.4488,0.936 -3.4808,0.8328 -1.048,-0.072 -2.312,-0.4968 -3.608,-1.0968 -0.912,-0.3752 -1.8808,-0.664 -2.864,-0.8312 -0.048,0.216 -0.112,0.4232 -0.2,0.6232 0.056,0.049 0.112,0.097 0.168,0.136 0.736,0.5768 0.864,1.6488 0.296,2.384 -0.328,0.416 -0.8168,0.656 -1.344,0.656 -0.3768,0 -0.7448,-0.128 -1.0408,-0.3592 -0.3592,-0.2816 -0.7192,-0.6488 -1.0872,-1.1128 -0.6488,-0.08 -1.2488,-0.3688 -1.72,-0.8328 -0.3512,-0.3512 -0.664,-0.7512 -0.944,-1.1752 -0.552,0.1592 -1.096,0.3512 -1.624,0.5672 0.296,1 0.712,2.344 1.168,3.5528 0.049,0.136 0.088,0.272 0.12,0.408 0.104,-0.041 0.208,-0.089 0.2872,-0.12 1.16,-0.4488 2.4,-0.7128 3.6168,-0.7128 1.216,-0.023 2.432,0.208 3.5832,0.672 1.456,0.5768 3.0808,1.1768 5.0488,1.2408 0.9832,0.023 1.9832,-0.1608 2.848,-0.4328 0.8648,-0.272 1.664,-0.664 2.3128,-1 1.1832,-0.608 2.336,-0.9672 3.5832,-1.0392 1.2488,-0.089 2.552,0.144 3.864,0.5752 0.328,0.097 0.656,0.2248 1.056,0.3608 0.432,0.136 0.8232,0.2392 1.248,0.336 0.832,0.1672 1.696,0.2392 2.544,0.192 1.688,-0.128 3.32,-0.7528 4.592,-1.664 1.136,-0.808 2.6,-1.192 4.104,-1.408 -0.7504,-0.1184 -1.5184,-0.1832 -2.3032,-0.1512 z m -3.1512,24.32 c -1.2488,0.8248 -2.584,1.592 -4,2.3048 -1.072,0.544 -2.192,1.056 -3.36,1.528 v -1.5608 l -4.152,-2.3592 v -1.7688 l 1.424,-0.816 2.8,1.5768 v -5.0168 l 1.608,-1.0392 1.6168,1.0392 v 5.0168 l 2.7832,-1.5768 1.432,0.7128 v 1.856 c -0.048,0.039 -0.1048,0.072 -0.152,0.1032 z m -10.368,4.9512 v -1.3264 l 1.3272,0.8544 c -0.4312,0.1616 -0.8792,0.3208 -1.3272,0.472 z m -8.2088,2.064 0.768,-0.3832 -4.5912,-2.5128 v -2 l 1.864,-0.784 4.376,2.464 v -3.1672 l 1.328,-0.8816 1.576,0.9768 v 4.728 l 0.432,0.2488 c -1.848,0.5288 -3.768,0.968 -5.7528,1.3112 z"
       id="path3294-5"
       style="fill:#ff7b00;fill-opacity:1" />
    <g
       transform="matrix(0.8,0,0,-0.8,576,345.41204)"
       id="path5156_1_"
       style="fill:#ff7b00;fill-opacity:1">
      <path
         d="m 596.312,61.803 -1.97,-1.201 -5.641,3.051 v -4.131 l -1.909,-0.85 -1.83,0.85 v 6.451 l -3.78,2.068 v -4.488 l -3.68,2.25 v -4.121 l 5.37,-3.051 v -1.969 l -1.82,-1.211 -3.63,2.01 v -6.25 l -2.021,-1.309 -2.01,1.309 v 6.25 l -3.5,-1.969 -1.78,1.039 v 2.191 l 5.19,2.959 v 4.121 l -3.86,-2.08 0.021,4.26 -3.69,-2.102 0.021,-6.029 -2.03,-1.17 -1.65,1.109 v 4.031 l -5.47,-3.16 -2.14,1.1 v 2.5 l 5.56,3.02 -3.479,1.961 v 2.279 l 1.93,0.961 5.14,-3.021 3.561,2.061 -3.54,2.201 3.649,2.1 0.091,0.059 -3.58,2.061 -5.15,-3.029 -2.03,1.119 v 2.291 l 2.63,1.32 0.96,0.479 -5.739,3.141 v 2.5 l 2.33,0.98 5.47,-3.08 v 3.959 l 1.66,1.102 1.97,-1.221 v -5.91 l 0.54,-0.311 3.07,-1.77 v 4.369 l 1.659,-1.068 2.101,-1.361 v 4.121 l -5.19,2.949 v 2.211 l 1.78,1.02 3.5,-1.971 v 6.271 l 2.01,1.299 2.021,-1.299 v -6.271 l 3.479,1.971 1.79,-0.891 v -2.34 l -0.189,-0.109 c -1.561,-1.031 -3.23,-1.99 -5,-2.881 v -4.08 l 3.68,2.25 v -4.119 l 3.83,2.18 v 5.93 l 1.83,1.051 1.859,-1.051 v -3.9 l 5.19,2.951 2.23,-1.02 v -2.461 l -5.271,-3.141 3.311,-1.859 v -2.131 l -1.7,-1.199 -5.28,2.949 -3.76,-1.969 3.64,-2.1 -3.54,-2.201 3.66,-2.32 5.28,3.121 1.79,-0.98 v -2.23 l -3.44,-1.93 5.5,-3.129 v -2.342 z m -18.979,14.728 h -3.5 l -1.87,-2.77 1.779,-2.949 h 3.5 l 1.7,2.949 -1.609,2.77 z"
         id="path3297"
         style="fill:#ff7b00;fill-opacity:1" />
      <polygon
         points="578.942,73.762 577.333,76.531 573.833,76.531 571.963,73.762 573.742,70.812 577.242,70.812 "
         id="polygon3299"
         style="fill:#ff7b00;fill-opacity:1" />
      <path
         d="m 596.312,64.143 -5.5,3.129 3.44,1.93 v 2.23 l -1.79,0.98 -5.28,-3.121 -3.66,2.32 3.54,2.201 -3.64,2.1 3.76,1.969 5.28,-2.949 1.7,1.199 v 2.131 l -3.311,1.859 5.271,3.141 v 2.461 l -2.23,1.02 -5.19,-2.951 v 3.9 l -1.859,1.051 -1.83,-1.051 v -5.93 l -3.83,-2.18 v 4.119 l -3.68,-2.25 v 4.08 c 1.77,0.891 3.439,1.85 5,2.881 l 0.189,0.109 v 2.34 l -1.79,0.891 -3.479,-1.971 v 6.271 l -2.021,1.299 -2.01,-1.299 v -6.271 l -3.5,1.971 -1.78,-1.02 v -2.211 l 5.19,-2.949 v -4.121 l -2.101,1.361 -1.659,1.068 v -4.369 l -3.07,1.77 -0.54,0.311 v 5.91 l -1.97,1.221 -1.66,-1.102 v -3.959 l -5.47,3.08 -2.33,-0.98 v -2.5 l 5.739,-3.141 -0.96,-0.479 -2.63,-1.32 v -2.291 l 2.03,-1.119 5.15,3.029 3.58,-2.061 -0.091,-0.059 -3.649,-2.1 3.54,-2.201 -3.561,-2.061 -5.14,3.021 -1.93,-0.961 V 69.24 l 3.479,-1.961 -5.56,-3.02 v -2.5 l 2.14,-1.1 5.47,3.16 v -4.031 l 1.65,-1.109 2.03,1.17 -0.021,6.029 3.69,2.102 -0.021,-4.26 3.86,2.08 v -4.121 l -5.19,-2.959 v -2.191 l 1.78,-1.039 3.5,1.969 v -6.25 l 2.01,-1.309 2.021,1.309 v 6.25 l 3.63,-2.01 1.82,1.211 v 1.969 l -5.37,3.051 v 4.121 l 3.68,-2.25 v 4.488 l 3.78,-2.068 V 59.52 l 1.83,-0.85 1.909,0.85 v 4.131 l 5.641,-3.051 1.97,1.201 v 2.342 z m -28.799,17.439 1.24,-0.721 v 1.111 c -0.41,-0.14 -0.82,-0.271 -1.24,-0.39 z m 4.599,1.57 0.41,-0.271 v 0.432 c -0.129,-0.061 -0.269,-0.112 -0.41,-0.161 z"
         id="path3301"
         style="fill:#ff7b00;fill-opacity:1" />
      <path
         d="m 567.513,81.582 c 0.42,0.119 0.83,0.25 1.24,0.391 v -1.111 l -1.24,0.72 z m 4.599,1.57 c 0.141,0.049 0.28,0.1 0.41,0.16 V 82.88 l -0.41,0.272 z m 5.391,2.379 v 0.041 l 5,2.84 c -1.561,-1.031 -3.231,-1.99 -5,-2.881 z"
         id="path3303"
         style="fill:#ff7b00;fill-opacity:1" />
    </g>
    <path
       d="m 1003.0256,247.15444 c -0.8872,-3.616 -1.672,-7.9032 -1.936,-12.4872 -1.04,5.8232 -1.1592,11.8232 -3.032,14.3768 -0.5832,0.8232 -1.3512,1.2872 -2.3832,1.2872 -0.088,0 -0.184,0 -0.2808,-0.01 -0.1192,0 -0.216,-0.097 -0.216,-0.2248 0,-0.1184 0.096,-0.2232 0.216,-0.2232 0.528,-0.12 0.888,-0.48 1.12,-1.0488 -0.16,-0.016 -0.32,-0.023 -0.48,-0.023 -0.184,-0.01 -0.368,-0.01 -0.5448,0 -0.072,0.08 -0.1512,0.136 -0.248,0.1672 -0.56,0.082 -0.984,0.5528 -0.984,1.128 0,0.6168 0.488,1.1128 1.088,1.136 0.112,0.01 0.224,0.017 0.328,0.017 1.536,0 2.5832,-0.728 3.344,-1.9608 0.4808,0.144 0.936,0.3128 1.368,0.5048 0.432,0.184 0.84,0.344 1.232,0.472 0.176,0.064 0.344,0.1128 0.5128,0.1592 0.176,0.049 0.3512,0.097 0.5192,0.128 -0.216,-0.7512 -0.344,-1.2472 -0.36,-1.2952 -0.2064,-0.808 0.1048,-1.6328 0.7368,-2.1048 z"
       id="path3305"
       style="fill:#ff7b00;fill-opacity:1" />
    <path
       d="m 1002.9616,254.56964 c -0.5832,-1.6392 -1.08,-3.344 -1.344,-4.3032 -0.392,-0.128 -0.8,-0.2872 -1.232,-0.472 -0.432,-0.192 -0.8872,-0.3608 -1.368,-0.5048 -0.76,1.2328 -1.808,1.9608 -3.344,1.9608 -0.104,0 -0.2168,-0.01 -0.328,-0.017 -0.6,-0.023 -1.088,-0.5184 -1.088,-1.136 0,-0.5752 0.424,-1.0472 0.984,-1.128 0.096,-0.031 0.176,-0.087 0.248,-0.1672 -0.08,0 -0.1592,0.01 -0.24,0.01 -1.776,0.087 -3.44,0.608 -4.904,1.336 -0.776,0.384 -1.256,0.6872 -1.896,0.92 -0.616,0.2312 -1.256,0.384 -1.9192,0.456 -1.328,0.1672 -2.696,-0.041 -4.032,-0.592 -1.5368,-0.616 -3.1448,-0.6488 -4.6408,-0.416 1.496,0.2312 2.96,0.6392 4.096,1.4472 1.2808,0.92 2.928,1.5048 4.608,1.6248 0.8408,0.047 1.696,-0.025 2.5368,-0.2 0.816,-0.1528 1.6952,-0.5048 2.2952,-0.6968 1.32,-0.4232 2.624,-0.656 3.864,-0.5752 1.256,0.072 2.4,0.4312 3.5768,1.0472 0.6872,0.3528 1.448,0.728 2.312,1 0.56,0.1928 1.1752,0.336 1.8152,0.408 z"
       id="path3307"
       style="fill:#ffffff;fill-opacity:1" />
    <path
       d="m 1047.4576,250.51524 c -0.7512,-0.12 -1.5192,-0.184 -2.304,-0.1528 -0.7832,0.056 -1.5832,0.2248 -2.344,0.528 -1.344,0.5608 -2.704,0.792 -4.032,0.6248 -0.656,-0.082 -1.296,-0.2168 -1.912,-0.4488 -0.296,-0.1128 -0.6168,-0.256 -0.888,-0.4 -0.288,-0.144 -0.64,-0.344 -1.0168,-0.536 -1.4552,-0.7128 -3.1192,-1.2408 -4.8952,-1.32 -1.76,-0.1128 -3.592,0.2872 -5.136,0.9512 -1.384,0.6 -2.4488,0.936 -3.4808,0.8328 -1.048,-0.072 -2.312,-0.4968 -3.608,-1.0968 -0.912,-0.3752 -1.8808,-0.664 -2.864,-0.8312 -0.048,0.216 -0.112,0.4232 -0.2,0.6232 0.056,0.049 0.112,0.097 0.168,0.136 0.736,0.5768 0.864,1.6488 0.296,2.384 -0.328,0.416 -0.8168,0.656 -1.344,0.656 -0.3768,0 -0.7448,-0.128 -1.0408,-0.3592 -0.3592,-0.2816 -0.7192,-0.6488 -1.0872,-1.1128 -0.6488,-0.08 -1.2488,-0.3688 -1.72,-0.8328 -0.3512,-0.3512 -0.664,-0.7512 -0.944,-1.1752 -0.552,0.1592 -1.096,0.3512 -1.624,0.5672 0.296,1 0.712,2.344 1.168,3.5528 0.049,0.136 0.088,0.272 0.12,0.408 0.104,-0.041 0.208,-0.089 0.2872,-0.12 1.16,-0.4488 2.4,-0.7128 3.6168,-0.7128 1.216,-0.023 2.432,0.208 3.5832,0.672 1.456,0.5768 3.0808,1.1768 5.0488,1.2408 0.9832,0.023 1.9832,-0.1608 2.848,-0.4328 0.8648,-0.272 1.664,-0.664 2.3128,-1 1.1832,-0.608 2.336,-0.9672 3.5832,-1.0392 1.2488,-0.089 2.552,0.144 3.864,0.5752 0.328,0.097 0.656,0.2248 1.056,0.3608 0.432,0.136 0.8232,0.2392 1.248,0.336 0.832,0.1672 1.696,0.2392 2.544,0.192 1.688,-0.128 3.32,-0.7528 4.592,-1.664 1.1368,-0.8064 2.6008,-1.1912 4.1048,-1.4064 z"
       id="path3309"
       style="fill:#ffffff;fill-opacity:1" />
    <path
       d="m 1040.732,261.25924 c -0.624,-0.047 -1.248,-0.072 -1.88,0 -0.632,0.082 -1.264,0.264 -1.856,0.5528 -1.064,0.5672 -2.2168,0.856 -3.352,0.7592 -0.5592,-0.039 -1.1192,-0.1592 -1.648,-0.3512 -0.544,-0.192 -0.976,-0.464 -1.592,-0.784 -1.16,-0.6 -2.48,-1.016 -3.872,-1.072 -1.384,-0.064 -2.808,0.3128 -3.992,0.9128 -1.104,0.5512 -2.0872,0.928 -3.0552,0.8472 -0.9768,-0.064 -2.056,-0.464 -3.128,-1 -1.2488,-0.5832 -2.6488,-0.9112 -4.056,-0.8952 -1.4,0.023 -2.776,0.3768 -4.024,0.9512 -1.0552,0.52 -2.1512,0.92 -3.1192,0.984 -0.952,0.064 -1.968,-0.328 -3.0488,-0.872 -1.1832,-0.608 -2.608,-0.984 -4,-0.92 -1.3912,0.049 -2.712,0.464 -3.872,1.064 -0.6,0.32 -1.048,0.592 -1.592,0.784 -0.5272,0.192 -1.08,0.32 -1.648,0.3592 -1.136,0.097 -2.296,-0.1672 -3.36,-0.728 -1.1832,-0.6 -2.496,-0.7032 -3.728,-0.592 1.24,0.12 2.456,0.4328 3.424,1.1048 1.032,0.7512 2.336,1.2232 3.68,1.28 0.6728,0.025 1.352,-0.064 2,-0.2392 0.6488,-0.1528 1.3048,-0.472 1.8168,-0.6816 1.08,-0.4312 2.2,-0.7112 3.288,-0.664 1.0952,0.041 2.1192,0.3768 3.1192,0.928 0.552,0.2968 1.152,0.6 1.808,0.8408 0.664,0.2408 1.424,0.4 2.1768,0.384 1.5192,-0.041 2.7832,-0.5768 3.944,-1.1048 1.008,-0.4488 2.088,-0.7032 3.16,-0.7032 1.08,-0.025 2.1512,0.208 3.144,0.6544 1.16,0.528 2.432,1.064 3.936,1.12 1.544,0.056 2.928,-0.616 3.992,-1.2 1,-0.544 2.032,-0.88 3.128,-0.9112 1.0872,-0.049 2.208,0.2312 3.2872,0.664 0.5048,0.2 1.168,0.5264 1.8168,0.68 0.656,0.1672 1.336,0.256 2.008,0.2312 1.344,-0.056 2.6488,-0.5592 3.672,-1.3112 0.9584,-0.68 2.1824,-0.96 3.4224,-1.072 z"
       id="path3311"
       style="fill:#ffffff;fill-opacity:1" />
    <path
       d="m 1030.604,270.60244 c -1.336,-0.872 -2.9192,-1.4872 -4.624,-1.48 -0.84,0.01 -1.6872,0.184 -2.48,0.464 -0.832,0.2952 -1.472,0.68 -2.192,0.8952 -0.696,0.2328 -1.376,0.32 -2.0552,0.2408 -0.688,-0.08 -1.392,-0.32 -2.088,-0.616 l -0.528,-0.2328 -0.24,-0.1184 -0.288,-0.1376 c -0.4,-0.1752 -0.8,-0.3264 -1.2232,-0.4544 -0.832,-0.2408 -1.7048,-0.3768 -2.584,-0.3688 -0.872,0.016 -1.736,0.1688 -2.56,0.416 -0.416,0.128 -0.8232,0.2816 -1.208,0.456 -0.208,0.097 -0.4,0.184 -0.568,0.272 l -0.496,0.2168 c -0.696,0.2952 -1.392,0.5264 -2.08,0.608 -0.6808,0.072 -1.36,-0.025 -2.064,-0.264 -0.7128,-0.2168 -1.36,-0.6 -2.184,-0.9048 -0.792,-0.2872 -1.64,-0.464 -2.4872,-0.472 -1.696,-0.016 -3.288,0.608 -4.6168,1.48 1.496,-0.5672 3.064,-0.92 4.568,-0.7032 0.744,0.1032 1.464,0.328 2.136,0.656 0.64,0.3264 1.36,0.7832 2.1448,1.1112 0.776,0.336 1.704,0.5512 2.616,0.4888 0.904,-0.056 1.744,-0.3048 2.528,-0.592 0.208,-0.082 0.3512,-0.128 0.608,-0.2488 0.192,-0.087 0.36,-0.1688 0.512,-0.2328 0.3448,-0.144 0.688,-0.272 1.032,-0.3752 0.7048,-0.2 1.424,-0.3128 2.1448,-0.3128 0.7192,-0.016 1.44,0.08 2.136,0.272 0.344,0.097 0.6872,0.216 1.024,0.3608 l 0.248,0.1112 0.304,0.144 c 0.176,0.082 0.368,0.1608 0.568,0.2328 0.784,0.2872 1.6168,0.536 2.52,0.6 0.904,0.08 1.84,-0.12 2.6232,-0.456 0.792,-0.32 1.5048,-0.8 2.152,-1.1032 0.672,-0.328 1.392,-0.5528 2.136,-0.6488 1.4936,-0.224 3.0696,0.1368 4.5656,0.696 z"
       id="path3313"
       style="fill:#ffffff;fill-opacity:1" />
    <g
       transform="matrix(0.8,0,0,-0.8,576,345.41204)"
       id="g3315"
       style="fill:#ff7b00;fill-opacity:1">
      <g
         id="g3317"
         style="fill:#ff7b00;fill-opacity:1">
        <path
           d="m 547.633,121.922 c 0.01,-0.141 0.02,-0.279 0,-0.42 0.03,0.141 0.019,0.279 0,0.42 z"
           id="path3319"
           style="fill:#ff7b00;fill-opacity:1" />
      </g>
    </g>
  </g>
</svg>
