<?xml version="1.0" encoding="UTF-8" standalone="no"?>
<!-- Created with Inkscape (http://www.inkscape.org/) -->

<svg
   xmlns:dc="http://purl.org/dc/elements/1.1/"
   xmlns:cc="http://creativecommons.org/ns#"
   xmlns:rdf="http://www.w3.org/1999/02/22-rdf-syntax-ns#"
   xmlns:svg="http://www.w3.org/2000/svg"
   xmlns="http://www.w3.org/2000/svg"
   version="1.1"
   width="128"
   height="128"
   id="svg3041">
  <defs
     id="defs3043">
    <filter
       color-interpolation-filters="sRGB"
       id="filter66799">
      <feGaussianBlur
         id="feGaussianBlur66801"
         result="result6"
         stdDeviation="1.5" />
      <feComposite
         in2="result6"
         operator="atop"
         in="SourceGraphic"
         result="result8"
         id="feComposite66803" />
      <feComposite
         in2="SourceAlpha"
         operator="atop"
         in="result8"
         result="result9"
         id="feComposite66805" />
    </filter>
    <filter
       color-interpolation-filters="sRGB"
       id="filter66863">
      <feGaussianBlur
         id="feGaussianBlur66865"
         result="result6"
         stdDeviation="1.5" />
      <feComposite
         in2="result6"
         operator="atop"
         in="SourceGraphic"
         result="result8"
         id="feComposite66867" />
      <feComposite
         in2="SourceAlpha"
         operator="atop"
         in="result8"
         result="result9"
         id="feComposite66869" />
    </filter>
  </defs>
  <metadata
     id="metadata3046">
    <rdf:RDF>
      <cc:Work
         rdf:about="">
        <dc:format>image/svg+xml</dc:format>
        <dc:type
           rdf:resource="http://purl.org/dc/dcmitype/StillImage" />
        <dc:title></dc:title>
      </cc:Work>
    </rdf:RDF>
  </metadata>
  <g
     transform="matrix(1.1044798,0,0,-1.1044798,-472.0205,802.90282)"
     id="g13334"
     style="fill:#ff7b00;fill-opacity:1">
    <g
       transform="translate(471.1826,670.0313)"
       id="g3062"
       style="fill:#ff7b00;fill-opacity:1">
      <path
         d="m 0,0 c 0,-5.759 -4.682,-10.439 -10.451,-10.439 -5.759,0 -10.438,4.684 -10.438,10.439 0,5.77 4.682,10.444 10.438,10.444 C -4.681,10.445 0,5.77 0,0"
         id="path3064"
         style="fill:#ff7b00;fill-opacity:1;fill-rule:nonzero;stroke:none" />
    </g>
    <g
       transform="translate(478.0078,673.1924)"
       id="g3066"
       style="fill:#ff7b00;fill-opacity:1">
      <path
         d="m 0,0 0,-6.321 52.986,-3.912 0,14.145 L 0,0 z"
         id="path3068"
         style="fill:#ff7b00;fill-opacity:1;fill-rule:nonzero;stroke:none" />
    </g>
    <g
       transform="translate(466.6592,686.5625)"
       id="g3070"
       style="fill:#ff7b00;fill-opacity:1">
      <path
         d="M 0,0 5.456,-3.166 27.077,26.397 14.84,33.469 0,0 z"
         id="path3072"
         style="fill:#ff7b00;fill-opacity:1;fill-rule:nonzero;stroke:none" />
    </g>
    <g
       transform="translate(474.1357,681.3848)"
       id="g3074"
       style="fill:#ff7b00;fill-opacity:1">
      <path
         d="M 0,0 3.144,-5.472 42.388,12.714 35.315,24.967 0,0 z"
         id="path3076"
         style="fill:#ff7b00;fill-opacity:1;fill-rule:nonzero;stroke:none" />
    </g>
    <g
       transform="translate(466.6592,653.5078)"
       id="g3078"
       style="fill:#ff7b00;fill-opacity:1">
      <path
         d="M 0,0 5.456,3.164 27.077,-26.403 14.84,-33.476 0,0 z"
         id="path3080"
         style="fill:#ff7b00;fill-opacity:1;fill-rule:nonzero;stroke:none" />
    </g>
    <g
       transform="translate(474.1357,658.6826)"
       id="g3082"
       style="fill:#ff7b00;fill-opacity:1">
      <path
         d="M 0,0 3.144,5.467 42.388,-12.72 35.315,-24.966 0,0 z"
         id="path3084"
         style="fill:#ff7b00;fill-opacity:1;fill-rule:nonzero;stroke:none" />
    </g>
  </g>
</svg>
