<?xml version="1.0" encoding="UTF-8" standalone="no"?>
<!-- Created with Inkscape (http://www.inkscape.org/) -->

<svg
   xmlns:dc="http://purl.org/dc/elements/1.1/"
   xmlns:cc="http://creativecommons.org/ns#"
   xmlns:rdf="http://www.w3.org/1999/02/22-rdf-syntax-ns#"
   xmlns:svg="http://www.w3.org/2000/svg"
   xmlns="http://www.w3.org/2000/svg"
   version="1.1"
   width="128"
   height="128"
   id="svg3041">
  <defs
     id="defs3043">
    <filter
       color-interpolation-filters="sRGB"
       id="filter66799">
      <feGaussianBlur
         stdDeviation="1.5"
         result="result6"
         id="feGaussianBlur66801" />
      <feComposite
         in2="result6"
         operator="atop"
         in="SourceGraphic"
         result="result8"
         id="feComposite66803" />
      <feComposite
         in2="SourceAlpha"
         operator="atop"
         in="result8"
         result="result9"
         id="feComposite66805" />
    </filter>
  </defs>
  <metadata
     id="metadata3046">
    <rdf:RDF>
      <cc:Work
         rdf:about="">
        <dc:format>image/svg+xml</dc:format>
        <dc:type
           rdf:resource="http://purl.org/dc/dcmitype/StillImage" />
        <dc:title></dc:title>
      </cc:Work>
    </rdf:RDF>
  </metadata>
  <g
     transform="matrix(1.4780708,0,0,1.4780708,-281.36626,-94.048744)"
     id="g507"
     style="fill:#ff7b00;fill-opacity:1;stroke:#ff7b00;stroke-opacity:1">
    <g
       id="g509"
       style="fill:#ff7b00;fill-opacity:1;stroke:#ff7b00;stroke-opacity:1">
      <path
         d="m 241.71,112.2 c -0.18,-0.29 -0.35,-0.59 -0.52,-0.89 -1.96,-3.05 -3.67,-5.92 -5,-8.35 -0.58,-1.06 -1.09,-2.04 -1.52,-2.91 l 0,-0.01 c -0.05,-0.08 -0.1,-0.15 -0.15,-0.21 0.01,0.02 0.01,0.05 0.02,0.07 0.29,0.64 0.52,1.2 0.69,1.68 0,0.01 0.01,0.01 0.01,0.03 0.26,0.55 0.58,1.21 0.95,1.93 1.11,2.18 2.63,5.03 4.35,8.11 4.11,6.71 1.3,14.32 0.94,14.3 -0.22,0.23 -3.55,-2.55 -5.29,-7.05 -0.66,-1.71 -1.09,-3.67 -1.04,-5.8 -0.08,-4.64 -0.23,-8.7 -0.41,-11.18 -0.11,-0.53 -0.18,-1.21 -0.26,-2.02 -0.02,-0.03 -0.03,-0.07 -0.04,-0.11 -0.02,0.08 -0.02,0.17 -0.02,0.26 -0.01,-0.09 -0.01,-0.18 -0.02,-0.28 -0.02,0.04 -0.03,0.08 -0.04,0.12 -0.08,0.82 -0.16,1.5 -0.27,2.04 -0.18,2.48 -0.33,6.53 -0.4,11.17 0.01,0.67 -0.02,1.33 -0.1,1.98 -0.01,0.08 -0.01,0.14 -0.02,0.22 -0.21,1.68 -0.72,3.19 -1.34,4.55 -1.8,3.93 -4.67,6.31 -4.87,6.1 -0.37,0.02 -3.18,-7.59 0.93,-14.3 1.52,-2.73 2.89,-5.27 3.94,-7.33 0.55,-1.04 0.99,-1.95 1.35,-2.7 0.01,-0.01 0.01,-0.04 0.02,-0.05 0.16,-0.48 0.4,-1.03 0.69,-1.68 0,-0.02 0,-0.04 0.01,-0.05 -0.06,0.08 -0.11,0.16 -0.15,0.24 l -0.02,0.01 c -0.51,1.05 -1.16,2.27 -1.9,3.59 -1.26,2.26 -2.83,4.89 -4.59,7.63 -0.14,0.26 -0.29,0.52 -0.45,0.77 -2.15,3.86 -3.06,7.99 -2.68,11.39 0.37,3.47 1.91,5.95 1.91,5.96 0,0 2.55,-1.26 4.63,-4.27 0.39,-0.51 0.75,-13.73074 1.07,-14.34074 l 0,30.8919 c 0,1.09 0.88,1.98 1.97,1.98 1.1,0 1.98,-0.89 1.98,-1.98 l 0,-19.59116 c 0.03,0.1 0.08,0.19 0.12,0.29 0.45,1.01 0.99,1.93 1.59,2.75 2.09,3.01 4.62,4.27 4.62,4.27 0,-0.01 1.54,-2.49 1.92,-5.96 0.38,-3.37 -0.52,-7.44 -2.61,-11.27 z m -7.34,2.88 c 0.03,-0.46 0.04,-0.94 0.04,-1.41 0,0.47 0.01,0.95 0.05,1.41 z m 0.04,-1.9 c -0.24,-5.21 -0.22,-9.87 0.01,-13.05 0.21,3.18 0.23,7.84 -0.01,13.05 z"
         id="path511"
         style="fill:#ff7b00;fill-opacity:1;stroke:#ff7b00;stroke-opacity:1" />
      <path
         d="m 233.59,115.08 c -0.01,0.08 -0.01,0.14 -0.02,0.22 v -0.22 h 0.02 z"
         id="path513"
         style="fill:#ff7b00;fill-opacity:1;stroke:#ff7b00;stroke-opacity:1" />
    </g>
    <g
       id="g515"
       style="fill:#ff7b00;fill-opacity:1;stroke:#ff7b00;stroke-opacity:1">
      <g
         id="g517"
         style="fill:#ff7b00;fill-opacity:1;stroke:#ff7b00;stroke-opacity:1">
        <path
           d="m 230.734,98.595 c -0.192,0.998 7.647,1.421 17.286,0.972 4.787,-0.083 9.07,1.196 11.992,3.367 3.008,2.088 4.27,4.633 4.265,4.622 0.011,-0.013 -2.473,1.542 -5.96,1.919 -3.64,0.404 -8.078,-0.662 -12.168,-3.132 -8.086,-5.198 -15.033,-8.703 -15.415,-7.748 z m 17.212,1.707 c -7.667,-0.137 -13.716,-0.45 -13.735,-0.779 0.142,-0.294 5.688,2.495 12.288,6.172 6.707,4.105 14.317,1.307 14.303,0.933 0.305,-0.29 -5.124,-6.53 -12.856,-6.326 z"
           id="path519"
           style="fill:#ff7b00;fill-opacity:1;stroke:#ff7b00;stroke-opacity:1" />
      </g>
      <g
         id="g521"
         style="fill:#ff7b00;fill-opacity:1;stroke:#ff7b00;stroke-opacity:1">
        <path
           d="m 254.907,115.302 c -1.266,-3.058 -4.191,-6.222 -7.987,-8.515 -0.264,-0.159 -0.516,-0.304 -0.778,-0.449 -4.522,-2.333 -8.555,-4.68 -11.191,-6.472 0,-0.014 -0.013,-0.014 -0.013,-0.014 -0.093,-0.053 -0.158,-0.105 -0.238,-0.159 l -0.013,-0.013 c -0.026,-0.013 -0.053,-0.025 -0.078,-0.052 0,0 0,0 -0.015,0 -0.013,-0.013 -0.013,-0.013 -0.013,-0.013 -0.013,0 -0.013,0 -0.013,0 v -0.013 c -0.013,0 -0.013,-0.013 -0.013,-0.013 h -0.014 c -0.013,0 -0.013,0 -0.013,0 -0.012,0 -0.012,0 -0.012,-0.015 -0.013,0 -0.013,0 -0.013,0 v -0.025 c -0.015,0 -0.028,0 -0.028,0 0,0 0,0 0,-0.013 h -0.013 v -0.014 h -0.026 c 0,0.014 0,0.014 0,0.014 h 0.013 v 0.013 h 0.013 v 0.013 h 0.013 v 0.012 h 0.013 c 0,0.015 0,0.015 0,0.015 0,0 0,-0.015 0.015,0 v 0.013 h 0.013 c 0,0.013 0,0.026 0.012,0.026 0,0.014 0,0.014 0,0.014 0.013,0.013 0.013,0.013 0.013,0.013 v 0.012 h 0.014 c 0,0.013 0.013,0.013 0.013,0.013 0.041,0.041 0.079,0.08 0.106,0.134 0.026,0.026 0.052,0.052 0.078,0.091 0.265,0.211 0.621,0.475 1.082,0.764 0.013,0.028 0.025,0.041 0.04,0.041 2.016,1.396 5.746,3.77 9.925,6.286 6.842,3.718 8.239,11.72 7.962,11.917 -0.198,0.276 -8.199,-1.121 -11.929,-7.962 -2.504,-4.179 -4.891,-7.909 -6.274,-9.926 0,0 -0.013,-0.014 -0.013,-0.026 -0.33,-0.461 -0.593,-0.831 -0.792,-1.095 -0.026,-0.013 -0.052,-0.026 -0.065,-0.053 0,0 -0.013,-0.012 -0.026,-0.012 -0.052,-0.041 -0.093,-0.08 -0.133,-0.106 0,-0.013 0,-0.013 -0.025,-0.026 0,0 0,-0.015 -0.015,-0.015 l -0.013,-0.013 h -0.013 v -0.013 c 0,0 0,0 -0.013,0 0,0 0,0 0,-0.012 h -0.013 v -0.013 h -0.013 v -0.014 h -0.013 c 0,-0.013 0,-0.013 0,-0.013 -0.013,0 -0.013,0 -0.013,0 v -0.013 c -0.013,0 -0.013,0 -0.013,0 0,0 0,0 0,-0.013 h -0.015 v 0.026 c 0.015,-0.013 0.015,0 0.015,0 0,0.013 0,0.013 0,0.013 0,0 0,0 0.013,0 0,0 0,0 0,0.014 v 0.013 c 0,0 0.013,0 0.026,0.012 0,0 0,0.013 0,0.026 h 0.013 c 0,0 0,0 0,0.015 0.013,0 0.026,0.026 0.026,0.026 0,0 0,0 0,0.013 v 0.013 h 0.013 c 0.013,0.013 0.028,0.026 0.041,0.054 v 0.013 c 0.052,0.065 0.105,0.131 0.158,0.21 v 0.013 c 1.779,2.638 4.151,6.684 6.511,11.258 2.306,4.165 5.695,7.408 8.951,8.752 3.229,1.451 6.182,1.397 6.182,1.41 -0.014,0.001 0.039,-2.952 -1.412,-6.167 z M 234.423,99.509 c 0,0.013 0,0.013 0,0.013 h 0.013 v -0.013 c -0.013,0 -0.013,0 -0.013,0 z m -0.013,-0.012 c -0.013,0 -0.013,0 -0.013,0 0,0.013 0,0.013 0,0.013 0,0 0,0 0.013,0 0,0 0,0 0.013,0 0,0 0,0 0,-0.013 0,0 0,0 -0.013,0 z m -0.026,-0.013 v 0.012 c 0,0 0,0 0.013,0 0,0 0,0 0,-0.012 h -0.013 z m -0.015,-0.014 c 0,0 0,0 0.015,0.014 V 99.47 h -0.015 z m -0.013,0.104 v 0.015 h 0.013 c 0,0 0,0 0,-0.015 0,0 0,0 -0.013,0 z m -0.012,-0.012 c 0,0.012 0,0.012 0,0.012 h 0.012 v -0.012 h -0.012 z m -0.04,-0.145 c -0.04,-0.013 -0.066,-0.038 -0.106,-0.065 0.027,0.04 0.052,0.08 0.08,0.119 0,0 0,0 0,0.014 h 0.013 V 99.47 c 0,0 0,-0.013 0.013,-0.013 0,-0.013 0.013,-0.013 0.013,-0.013 v -0.013 c -0.013,0 -0.013,-0.014 -0.013,-0.014 z m 0.027,0.027 0.013,0.013 v -0.013 h -0.013 z m -0.159,-0.131 c -0.343,-0.476 -0.645,-0.886 -0.922,-1.228 -0.028,-0.025 -0.041,-0.053 -0.054,-0.079 -0.737,-0.897 -1.239,-1.305 -1.437,-1.095 -0.21,0.185 0.197,0.7 1.094,1.437 0.092,0.065 0.185,0.132 0.278,0.199 0.29,0.236 0.605,0.474 0.976,0.737 0.013,0.013 0.026,0.028 0.039,0.04 0.013,0 0.039,0.013 0.052,0.026 -0.012,-0.012 -0.026,-0.024 -0.026,-0.037 z"
           id="path523"
           style="fill:#ff7b00;fill-opacity:1;stroke:#ff7b00;stroke-opacity:1" />
      </g>
      <g
         id="g525"
         style="fill:#ff7b00;fill-opacity:1;stroke:#ff7b00;stroke-opacity:1">
        <path
           d="m 234.475,99.628 c 0,0 0,0 0,0.014 h 0.013 c 0,0 0,0 0,-0.014 0,0 0,0 -0.013,0 z m -0.013,-0.079 c 0,0 0,0 0,-0.013 v -0.014 c 0,-0.013 0,-0.013 0,-0.013 -0.013,-0.013 -0.013,0 -0.013,0 V 99.47 l -0.013,-0.013 v -0.013 c 0,0 0,0 0,-0.013 h -0.013 c 0,-0.015 0,-0.015 0,-0.015 h -0.013 c 0,0 0,0 0,-0.013 l -0.013,-0.012 c 0,-0.013 -0.013,-0.027 -0.028,-0.027 v 0.039 c 0,0 0,0 -0.013,-0.012 -0.012,0.012 -0.012,0.025 -0.012,0.053 v 0.013 h 0.012 c 0,0 0,0 0,0.013 0,0.014 0,0.014 0,0.026 0,0 0,0 0,0.013 v 0.04 h 0.013 v 0.025 c 0,0.015 0,0.015 0,0.015 v 0.026 c 0.015,-0.013 0.015,0 0.015,0 0,0 0,0 0,-0.013 0,0 0,0 0,-0.013 0,0 0,0 0,-0.015 0,0 0,0 0,-0.012 0,0 0,0 0,-0.013 0,0 0,0 0,-0.013 0,0 0,0 0,-0.014 0,0 0,0 0,-0.013 0,0 0,0 0,-0.013 V 99.47 c -0.015,-0.013 -0.015,-0.039 -0.015,-0.054 h 0.015 c 0,0.015 0.013,0.015 0.013,0.015 0,0.013 0,0.013 0,0.013 0,0.013 0,0.013 0,0.013 0,0.013 0.013,0.013 0.013,0.027 v 0.012 c 0,0.013 0,0.013 0,0.013 0,0 0,0 0.013,0 0,0.013 0,0.013 0,0.013 v 0.014 c 0.013,0 0.013,0 0.013,0 v 0.013 l 0.013,0.013 c 0,0.012 0,0.012 0,0.012 v 0.015 c 0,0 0,0 0.013,0 0,0.013 0,0.013 0,0.013 v 0.013 h 0.013 v -0.053 c 0,0 0,0 0,-0.013 h -0.013 z m 0.079,0.356 c 0.014,0.067 0.027,0.145 0.04,0.238 0.145,0.369 0.356,0.844 0.646,1.437 -0.171,-0.476 -0.395,-1.042 -0.686,-1.675 z m 0.133,0.132 c -0.053,-0.104 -0.093,-0.197 -0.146,-0.303 0,-0.013 0,-0.013 -0.025,-0.026 0.013,0.039 0.013,0.065 0.013,0.106 v 0.013 c 0.052,0.065 0.105,0.131 0.158,0.21 z m -0.093,0.106 c -0.04,-0.093 -0.078,-0.171 -0.106,-0.238 0.08,0.805 0.159,1.489 0.264,2.017 -0.052,-0.752 -0.105,-1.344 -0.158,-1.779 z m -0.171,-0.409 c 0,-0.013 0,-0.013 0,-0.013 l -0.013,-0.013 v 0.065 c 0.013,0.093 0.013,0.185 0.026,0.277 0,-0.092 0,-0.184 0.013,-0.264 -0.013,-0.026 -0.013,-0.039 -0.026,-0.052 z m -0.054,-0.488 c -0.052,-0.606 -0.118,-1.146 -0.184,-1.608 -0.026,-0.158 -0.052,-0.302 -0.08,-0.435 -0.184,-0.896 -0.408,-1.371 -0.658,-1.318 -0.251,0.106 -0.184,0.671 0.132,1.595 0.026,0.08 0.054,0.158 0.092,0.25 0.158,0.435 0.37,0.936 0.633,1.502 0.026,0.053 0.053,0.093 0.065,0.146 0.013,0 0.013,-0.014 0.013,-0.014 0,-0.038 -0.013,-0.078 -0.013,-0.118 z"
           id="path527"
           style="fill:#ff7b00;fill-opacity:1;stroke:#ff7b00;stroke-opacity:1" />
        <path
           d="m 241.48,125.95 c -0.22,0.23 -3.55,-2.55 -5.29,-7.05 -0.66,-1.71 -1.09,-3.67 -1.04,-5.8 -0.08,-4.64 -0.23,-8.7 -0.41,-11.18 0.17,0.9 0.39,1.39 0.65,1.33 0.26,-0.1 0.19,-0.69 -0.15,-1.64 0.26,0.55 0.58,1.21 0.95,1.93 1.11,2.18 2.63,5.03 4.35,8.11 4.11,6.71 1.3,14.32 0.94,14.3 z"
           id="path529"
           style="fill:#ffffff;fill-opacity:1;stroke:#ff7b00;stroke-opacity:1" />
      </g>
      <g
         id="g531"
         style="fill:#ff7b00;fill-opacity:1;stroke:#ff7b00;stroke-opacity:1">
        <path
           d="m 234.475,99.378 h -0.013 c -0.013,-0.014 -0.026,0 -0.026,0.013 -0.013,0 -0.026,0.012 -0.013,0.025 h -0.013 c 0,0.015 0,0.015 0,0.015 h -0.013 c 0,0.013 0,0.013 0,0.013 0,0.013 0,0.013 0,0.013 0,0 0,0 -0.013,0.013 v 0.026 c 0,0.013 0,0.013 0,0.013 -0.015,0 -0.015,0 -0.015,0 v 0.013 c 0,0.014 0,0.014 0,0.014 0,0.013 0,0.013 0,0.013 h -0.013 c 0,0.013 0,0.013 0,0.013 v 0.027 c -0.012,-0.015 -0.012,0 -0.012,0 v 0.013 c 0,0.013 0,0.026 0,0.026 0,0 0,0 0.012,0 v -0.013 c 0,0 0,0 0,-0.013 0,0 0,0 0.013,0 v -0.013 c 0,0 0,0 0,-0.015 h 0.015 c 0,0 0,0 0,-0.012 0,0 0,0 0,-0.013 l 0.013,-0.013 c 0,0 0,0 0,-0.014 h 0.013 c 0,0 0,0 0,-0.013 0,0 0,0 0,-0.013 v -0.012 c 0,0 0,0 0.013,-0.014 0,0 0,0 0.013,-0.013 v -0.013 c 0,0 0,0 0,-0.013 0,0 0.013,-0.015 0.026,-0.028 v 0.067 c 0,0 -0.013,0 -0.013,0.014 v 0.065 c 0,0.013 0,0.013 0,0.013 0,0.012 0,0.012 0,0.012 v 0.028 c 0,0.013 0,0.013 0,0.013 h 0.013 v -0.013 c 0,0 0,0 0,-0.013 v -0.04 c 0,0 0,0 0,-0.013 h 0.013 c 0,0 0,0 0,-0.014 v -0.026 c 0,-0.012 0,-0.012 0,-0.012 v -0.027 h 0.013 v -0.013 c 0,-0.041 0,-0.052 -0.013,-0.066 z m -0.144,0.25 v 0.014 c 0,0.013 0,0.013 0,0.013 0,0 0,0 0.013,0 0,-0.013 0,-0.013 0,-0.013 v -0.014 c -0.013,0 -0.013,0 -0.013,0 z m 1.055,-3.743 c -0.251,-0.053 -0.475,0.436 -0.647,1.332 -0.026,0.145 -0.052,0.303 -0.078,0.475 -0.067,0.448 -0.133,0.962 -0.186,1.542 0,0.04 0,0.093 -0.013,0.132 v 0.014 h 0.013 c 0.013,-0.04 0.028,-0.093 0.053,-0.133 0.239,-0.513 0.436,-0.962 0.593,-1.37 0.04,-0.106 0.066,-0.21 0.106,-0.316 0,-0.015 0,-0.015 0.012,-0.028 0.344,-0.962 0.41,-1.542 0.147,-1.648 z m -0.95,3.77 c 0,0.012 0,0.012 0,0.025 0,-0.013 0,-0.013 0.013,-0.013 0,0 0,0 0,-0.012 h -0.013 z m -0.831,1.912 c 0.292,-0.581 0.502,-1.069 0.659,-1.438 0,-0.092 0.014,-0.171 0.027,-0.237 -0.29,0.646 -0.528,1.2 -0.686,1.675 z m 0.699,-1.846 c -0.054,0.119 -0.119,0.237 -0.158,0.355 0.039,-0.079 0.092,-0.157 0.158,-0.237 0,-0.054 0.013,-0.093 0.013,-0.132 -0.013,0.001 -0.013,0.014 -0.013,0.014 z m -0.04,0.408 c -0.066,0.434 -0.118,1.042 -0.171,1.806 0.105,-0.541 0.186,-1.225 0.264,-2.042 -0.026,0.065 -0.065,0.144 -0.093,0.236 z m 0.159,-0.436 v 0.015 l -0.013,0.013 c 0,0 0,0 0,0.013 0,0.013 0,0.013 -0.013,0.026 v 0.013 c 0.013,0.093 0.013,0.185 0.026,0.277 0,-0.092 0,-0.184 0.013,-0.264 0,-0.013 0,-0.013 0,-0.026 v -0.052 c 0,-0.015 0,-0.015 0,-0.015 h -0.013 z"
           id="path533"
           style="fill:#ff7b00;fill-opacity:1;stroke:#ff7b00;stroke-opacity:1" />
        <path
           d="m 234.09,101.93 c -0.18,2.48 -0.33,6.53 -0.4,11.17 0.01,0.67 -0.02,1.33 -0.1,1.98 h -0.02 v 0.22 c -0.21,1.68 -0.72,3.19 -1.34,4.55 -1.8,3.93 -4.67,6.31 -4.87,6.1 -0.37,0.02 -3.18,-7.59 0.93,-14.3 1.52,-2.73 2.89,-5.27 3.94,-7.33 0.55,-1.04 0.99,-1.95 1.35,-2.7 -0.33,0.95 -0.4,1.53 -0.15,1.63 0.26,0.06 0.48,-0.42 0.66,-1.32 z"
           id="path535"
           style="fill:#ffffff;fill-opacity:1;stroke:#ff7b00;stroke-opacity:1" />
        <path
           d="m 233.59,115.08 c -0.01,0.08 -0.01,0.14 -0.02,0.22 v -0.22 h 0.02 z"
           id="path537"
           style="fill:#ff7b00;fill-opacity:1;stroke:#ff7b00;stroke-opacity:1" />
      </g>
      <g
         id="g539"
         style="fill:#ff7b00;fill-opacity:1;stroke:#ff7b00;stroke-opacity:1">
        <path
           d="m 234.397,99.509 v 0.013 h 0.013 c 0,0 0,0 0,-0.013 -0.013,0 -0.013,0 -0.013,0 z m 0.026,-0.012 c 0,0 0,0 -0.013,0 0,0.013 0,0.013 0,0.013 0,0 0,0 0.013,0 0,0 0,0 0.013,0 0,0 0,0 0,-0.013 0,0 0,0 -0.013,0 z m 0.013,-0.013 v 0.012 h 0.013 v -0.012 h -0.013 z m 0.013,-0.014 v 0.014 c 0,-0.014 0.013,-0.014 0.013,-0.014 h -0.013 z m 0,0.119 v 0.013 h -0.013 v 0.013 h -0.013 v 0.013 h -0.013 v 0.014 h -0.013 v 0.013 h -0.013 v 0.025 h -0.015 c -0.013,-0.013 -0.013,0 -0.013,0 -0.012,0 -0.012,0.013 -0.012,0.013 -0.013,0 -0.027,0 -0.027,0.015 -0.013,0 -0.013,0.013 -0.013,0.013 -0.04,0.039 -0.079,0.078 -0.132,0.105 -0.026,0.025 -0.052,0.052 -0.093,0.078 -0.211,0.264 -0.5,0.658 -0.829,1.147 -1.399,2.017 -3.756,5.735 -6.262,9.899 -3.718,6.842 -11.718,8.239 -11.929,7.976 -0.263,-0.211 1.133,-8.213 7.975,-11.931 4.178,-2.516 7.909,-4.89 9.926,-6.286 0,0 0.013,-0.013 0.026,-0.013 0.462,-0.33 0.83,-0.593 1.094,-0.792 0.013,-0.026 0.028,-0.053 0.054,-0.065 0,0 0.013,-0.013 0.013,-0.026 0.039,-0.054 0.079,-0.093 0.104,-0.134 0,0 0.014,0 0.014,-0.013 h 0.014 c 0,0 0,0 0.013,-0.012 0,0 0,0 0,-0.013 0,0 0,0 0.013,0 l 0.013,-0.014 v -0.013 c 0,0 0,0 0,-0.013 h 0.014 c 0,0 0,0 0,-0.013 h 0.013 c 0,0 -0.013,0 0,-0.015 h 0.012 v -0.012 c 0,-0.013 0.013,0 0.013,0 v -0.013 h 0.015 c 0,0 0,0 0,-0.013 h 0.013 c 0,0 0,0 0,-0.014 -0.013,0 -0.013,0 -0.013,0 h -0.015 c 0,0.014 0,0.014 0,0.014 h -0.013 v 0.013 c 0,0 0,0 -0.012,0 h -0.013 c 0,0 0,0.013 -0.014,0.013 v 0.012 l -0.013,0.015 c 0,0 0,0 -0.013,0 0,0 0,0 -0.013,0 -0.014,0.013 -0.014,0.013 -0.028,0.026 h -0.012 c 0,0 0,0.013 -0.013,0.013 -0.027,0.027 -0.053,0.039 -0.079,0.052 0,0 -0.013,0 -0.013,0.013 -0.066,0.041 -0.119,0.093 -0.199,0.133 0,0.013 -0.013,0.013 -0.013,0.013 -2.636,1.792 -6.684,4.152 -11.244,6.512 -4.164,2.307 -7.407,5.681 -8.752,8.95 -1.45,3.215 -1.397,6.168 -1.411,6.168 0,-0.013 2.953,0.041 6.17,-1.41 3.268,-1.344 6.643,-4.587 8.951,-8.752 2.345,-4.548 4.705,-8.581 6.498,-11.217 l 0.013,-0.014 c 0.039,-0.079 0.092,-0.157 0.158,-0.237 0,-0.026 0.013,-0.041 0.04,-0.054 0,0 0.012,-0.013 0.012,-0.026 0,-0.013 0,-0.013 0,-0.013 0,0 0.013,0 0.013,-0.013 0,-0.013 0.028,-0.026 0.028,-0.026 0,-0.015 0,-0.015 0,-0.015 0,-0.013 0.026,-0.026 0.026,-0.026 0,-0.012 0.013,-0.012 0.013,-0.012 V 99.64 c 0,-0.014 0,-0.014 0,-0.014 0.013,0 0.013,0 0.013,0 0,0 0,0 0,-0.013 h 0.013 V 99.6 c 0,0 0,0 0,-0.013 -0.014,0.002 -0.014,0.002 -0.014,0.002 z m 0.013,-0.015 v 0.015 h 0.013 v -0.015 c -0.013,0 -0.013,0 -0.013,0 z m 0.013,-0.012 v 0.012 h 0.013 c 0,0 0,0 0,-0.012 -0.013,0 -0.013,0 -0.013,0 z m 0.013,-0.118 v 0.013 c 0.015,-0.013 0.015,-0.013 0.015,-0.013 h -0.015 z m 0.04,-0.027 c 0,0 -0.012,0 -0.012,0.015 h -0.013 v 0.013 h 0.013 c 0,0 0.012,0 0.012,0.013 0.013,0 0.013,0.013 0.013,0.013 v 0.014 l 0.014,-0.014 c 0,-0.013 0.013,-0.013 0.013,-0.013 0.013,-0.041 0.041,-0.066 0.066,-0.106 -0.04,0.026 -0.066,0.051 -0.106,0.065 z m -0.04,0.041 c 0.015,-0.013 0.015,-0.013 0.015,-0.013 h -0.015 v 0.013 z m 2.585,-2.545 c -0.185,-0.197 -0.698,0.198 -1.437,1.095 -0.027,0.039 -0.053,0.079 -0.079,0.105 -0.264,0.33 -0.566,0.738 -0.896,1.201 -0.014,0.012 -0.014,0.025 -0.027,0.038 0.013,-0.013 0.027,-0.013 0.04,-0.026 0.46,-0.33 0.87,-0.634 1.2,-0.898 0.026,-0.025 0.066,-0.052 0.105,-0.078 0.896,-0.738 1.292,-1.253 1.094,-1.437 z m -2.65,2.584 c 0,0.013 0,0.013 0,0.013 0,0 0,0 0.013,0 0,0 0,0 0,-0.013 0,0 0,0 -0.013,0 z m 0.065,-0.053 v 0.013 c 0.015,-0.013 0.015,-0.013 0.015,-0.013 h -0.015 z"
           id="path541"
           style="fill:#ff7b00;fill-opacity:1;stroke:#ff7b00;stroke-opacity:1" />
      </g>
      <g
         id="g543"
         style="fill:#ff7b00;fill-opacity:1;stroke:#ff7b00;stroke-opacity:1">
        <path
           d="m 238.093,98.595 c -0.384,-0.955 -7.329,2.549 -15.414,7.75 -4.091,2.472 -8.528,3.538 -12.168,3.133 -3.485,-0.376 -5.972,-1.932 -5.958,-1.918 -0.004,0.011 1.257,-2.533 4.263,-4.623 2.922,-2.172 7.208,-3.452 11.992,-3.366 9.637,0.445 17.481,0.022 17.285,-0.976 z m -15.764,7.102 c 6.6,-3.678 12.146,-6.468 12.288,-6.173 -0.018,0.329 -6.069,0.642 -13.735,0.779 -7.734,-0.203 -13.16,6.037 -12.855,6.326 -0.013,0.373 7.595,3.174 14.302,-0.932 z"
           id="path545"
           style="fill:#ff7b00;fill-opacity:1;stroke:#ff7b00;stroke-opacity:1" />
      </g>
      <g
         id="g547"
         style="fill:#ff7b00;fill-opacity:1;stroke:#ff7b00;stroke-opacity:1">
        <path
           d="m 238.093,100.542 c 0.196,-0.997 -7.647,-1.422 -17.286,-0.972 -4.787,0.086 -9.07,-1.194 -11.992,-3.367 -3.008,-2.088 -4.27,-4.634 -4.265,-4.621 -0.011,0.013 2.476,-1.543 5.96,-1.92 3.64,-0.404 8.078,0.662 12.168,3.132 8.086,5.199 15.03,8.704 15.415,7.748 z m -17.212,-1.707 c 7.667,0.139 13.718,0.45 13.735,0.779 -0.142,0.294 -5.688,-2.494 -12.288,-6.172 -6.707,-4.105 -14.315,-1.307 -14.303,-0.933 -0.304,0.291 5.122,6.531 12.856,6.326 z"
           id="path549"
           style="fill:#ff7b00;fill-opacity:1;stroke:#ff7b00;stroke-opacity:1" />
      </g>
      <g
         id="g551"
         style="fill:#ff7b00;fill-opacity:1;stroke:#ff7b00;stroke-opacity:1">
        <path
           d="m 237.068,102.223 c 0.72,-0.669 -5.939,-5.081 -14.389,-9.43 -4.166,-2.306 -7.417,-5.688 -8.752,-8.949 -1.453,-3.241 -1.403,-6.188 -1.41,-6.17 -0.017,0.006 2.931,-0.045 6.169,1.408 3.26,1.337 6.644,4.586 8.952,8.752 4.349,8.45 8.759,15.111 9.43,14.389 z M 223.032,92.146 c 6.447,3.864 11.806,7.411 11.492,7.533 -0.123,0.315 -3.668,-5.046 -7.534,-11.493 -3.724,-6.844 -11.722,-8.235 -11.93,-7.968 -0.264,0.205 1.127,8.205 7.972,11.928 z"
           id="path553"
           style="fill:#ff7b00;fill-opacity:1;stroke:#ff7b00;stroke-opacity:1" />
      </g>
      <g
         id="g555"
         style="fill:#ff7b00;fill-opacity:1;stroke:#ff7b00;stroke-opacity:1">
        <path
           d="m 234.48,99.68 c 0.01,-0.01 0.01,-0.02 0,-0.02 0,-0.02 0,-0.02 0,-0.02 0,-0.01 0,-0.01 0,-0.01 V 99.6 c -0.02,0 -0.02,0 -0.02,0 v -0.05 c 0,0 0,0 0,-0.01 h -0.01 v 0.01 c 0,0.01 0,0.01 0,0.01 0,0.01 0,0.01 0,0.01 v 0.05 c 0,0.01 0,0.01 0,0.01 0,0.01 0,0.01 0,0.01 0,0.02 0,0.02 0,0.02 0,0.01 0,0.01 0,0.01 0.01,0 0.01,0 0.01,0 v 0.06 c 0,0 -0.01,-0.02 -0.02,-0.02 0,-0.02 0,-0.02 0,-0.02 v -0.01 c -0.02,-0.01 -0.02,-0.01 -0.02,-0.01 0,-0.01 -0.01,-0.01 -0.01,-0.03 v -0.01 c 0,-0.01 0,-0.01 0,-0.01 -0.01,0 -0.01,0 -0.01,0 V 99.6 c -0.01,0 -0.02,0 -0.02,0 0,0 0,0 0,-0.01 0,0 0,0 0,-0.02 0,0 0,0 0,-0.01 h -0.01 v -0.01 c 0,0 0,0 0,-0.01 h -0.01 v -0.03 h -0.02 v -0.02 h -0.01 v 0.01 c 0,0.01 0,0.01 0,0.01 0.01,0.01 0,0.02 0,0.02 0,0 0,0 0.01,0 0,0.01 0,0.01 0,0.01 0,0.01 0,0.01 0,0.01 v 0.01 h 0.02 v 0.03 c 0,0.01 0,0.01 0,0.01 0,0 0,0 0.01,0 v 0.03 c 0,0.01 0.01,0.01 0.01,0.01 v 0.04 h 0.02 v 0.01 c 0,0 0,0 0,0.02 l 0.01,0.01 c 0,0 0,0 0,0.01 0.01,0.01 0.01,0.01 0.01,0.02 0,0 0.01,0.01 0.02,0.01 0,0.01 0.01,0.01 0.02,0.01 v -0.01 h 0.02 v -0.01 c 0,0 0.01,-0.03 0.01,-0.06 l -0.01,-0.01 z m 0.76,1.93 c 0,-0.02 -0.01,-0.02 -0.01,-0.03 -0.17,-0.48 -0.4,-1.04 -0.69,-1.68 -0.02,-0.05 -0.05,-0.1 -0.06,-0.14 h -0.02 v 0.01 c 0.02,0.04 0.02,0.1 0.02,0.13 0.08,0.81 0.15,1.49 0.26,2.02 0.17,0.9 0.39,1.39 0.65,1.33 0.26,-0.1 0.19,-0.69 -0.15,-1.64 z m -0.8,-2.14 v 0.03 c 0,0 0,0 0.01,0 v -0.03 h -0.01 z m -0.02,-0.34 v -0.04 c -0.04,-0.45 -0.06,-0.92 -0.09,-1.44 -0.14,-3.08 -0.13,-7.18 0.08,-11.69 v -0.49 c 0,-4.59 -1.27,-8.69 -3.36,-11.51 -2.08,-2.97 -4.63,-4.25 -4.63,-4.25 0,0.01 -1.54,2.49 -1.91,5.95 -0.38,3.41 0.53,7.53 2.68,11.4 0.15,0.26 0.3,0.51 0.45,0.77 2.41,3.75 4.45,7.24 5.85,9.95 0.23,0.45 0.44,0.87 0.64,1.27 l 0.02,0.01 c 0,0.01 0,0.01 0.01,0.03 v 0.01 l 0.01,0.01 c 0.03,0.1 0.08,0.19 0.12,0.29 0,0.01 0.01,0.01 0.01,0.02 0,0 0,0.01 0.02,0.01 v -0.01 c 0,-0.03 -0.02,-0.07 -0.02,-0.11 V 99.3 c -0.01,-0.03 -0.01,-0.04 -0.01,-0.07 -0.01,-0.06 -0.03,-0.14 -0.03,-0.22 -0.14,-0.33 -0.33,-0.77 -0.57,-1.29 -0.04,-0.08 -0.09,-0.16 -0.12,-0.24 -1.07,-2.24 -3.01,-5.92 -5.28,-9.99 -4.11,-6.71 -1.31,-14.32 -0.93,-14.3 0.29,-0.31 6.52,5.11 6.33,12.85 0.07,4.64 0.22,8.69 0.4,11.16 0,0.16 0.02,0.31 0.03,0.45 0.04,0.55 0.09,1.02 0.14,1.36 0.03,0.09 0.07,0.17 0.1,0.24 0.01,0.04 0.02,0.08 0.04,0.1 v 0.01 c 0,0.02 0,0.02 0,0.03 l 0.01,0.01 c 0,0.02 0,0.02 0,0.02 h 0.01 c 0,0 0,0 0,0.01 0,0 0,0 0,0.01 l 0.01,0.01 c 0,0 0,0 0.01,0.01 v -0.02 c 0,-0.01 0,-0.01 0,-0.01 v -0.08 c -0.02,-0.06 -0.02,-0.14 -0.02,-0.22 z"
           id="path557"
           style="fill:#ff7b00;fill-opacity:1;stroke:#ff7b00;stroke-opacity:1" />
      </g>
      <g
         id="g559"
         style="fill:#ff7b00;fill-opacity:1;stroke:#ff7b00;stroke-opacity:1">
        <path
           d="m 234.48,99.47 v 0.02 c 0,0 0,0 0,0.01 v 0.01 h -0.02 c 0,0 0,0 0,0.01 v 0.02 c 0,0.01 0,0.01 0,0.01 h -0.01 c 0,0.01 0,0.01 0,0.01 0,0.01 0,0.01 0,0.01 v 0.02 c -0.01,0 -0.01,0 -0.01,0 0,0.01 0,0.01 0,0.01 h -0.02 v 0.03 c 0,0 0,0 -0.01,0 v 0.01 c 0,0.02 -0.01,0.02 -0.01,0.02 0.01,0.01 0,0.02 0,0.02 h -0.02 c 0,0.01 -0.01,0.03 -0.01,0.03 0,-0.02 0,-0.02 0,-0.03 h 0.01 v -0.04 c 0,0 0,0 0,-0.01 0,0 0,0 0,-0.01 v -0.01 c 0,0 0,0 0,-0.01 0,0 0,0 0,-0.01 0,0 0,0 0,-0.02 0,0 0,0 0,-0.01 0,0 0,0 0,-0.01 v -0.01 c 0,0 0,0 0,-0.01 v -0.01 h -0.01 c 0,0.01 0,0.01 0,0.01 v 0.01 c 0,0.01 0,0.01 0,0.01 v 0.02 c 0,0.01 0,0.01 0,0.01 v 0.02 c -0.01,0 -0.01,0 -0.01,0 v 0.04 c 0,0 0,0.01 0,0.02 v 0.01 c -0.01,0.01 -0.01,0 -0.01,0 0,0.01 0.01,0.01 0.01,0.01 -0.02,0 -0.02,0.01 -0.02,0.01 0,0.03 0,0.04 0.02,0.06 0,0 0.01,0 0.01,-0.02 v 0.04 c 0.01,0 0.03,0 0.03,-0.01 0.01,-0.01 0.01,-0.01 0.01,-0.03 0,-0.01 0,-0.01 0,-0.01 l 0.01,-0.01 v -0.02 h 0.02 v -0.01 c 0,-0.01 0,-0.01 0.01,-0.01 0,0 0,0 0,-0.01 0,0 0,0 0,-0.02 0,0 0,0 0,-0.01 h 0.01 v -0.04 h 0.02 v -0.03 c 0,0 0,0 0,-0.01 0,0 0,0 0,-0.01 v -0.01 c 0,0 0,0 0,-0.01 0.01,0 0.01,-0.01 0.01,-0.01 v -0.05 l -0.01,0.01 z m 9.84,-23.81 c -0.38,-3.46 -1.92,-5.94 -1.92,-5.95 0,0 -2.53,1.26 -4.62,4.25 -2.09,2.84 -3.36,6.92 -3.37,11.51 v 0.49 c 0.21,4.51 0.22,8.62 0.09,11.71 -0.02,0.5 -0.05,0.97 -0.08,1.42 v 0.04 c -0.01,0.08 -0.01,0.14 -0.02,0.22 v 0.01 c 0,0.02 0,0.02 0,0.03 v 0.04 c 0,0.01 0,0.01 0,0.01 0,0 0.01,0 0.01,-0.01 0,0 0,0 0,-0.01 0,0 0,0 0,-0.02 0.01,-0.01 0.01,-0.02 0.03,-0.05 0.01,-0.04 0.02,-0.08 0.04,-0.12 0.02,-0.06 0.06,-0.14 0.09,-0.22 0.04,-0.33 0.09,-0.78 0.13,-1.31 0.01,-0.16 0.03,-0.31 0.04,-0.48 0.17,-2.48 0.32,-6.54 0.41,-11.18 -0.21,-7.74 6.04,-13.16 6.33,-12.85 0.36,-0.02 3.16,7.59 -0.94,14.3 -2.29,4.1 -4.23,7.8 -5.3,10.04 -0.01,0.01 -0.01,0.01 -0.01,0.03 -0.06,0.11 -0.11,0.2 -0.15,0.29 -0.22,0.46 -0.39,0.85 -0.51,1.16 -0.01,0.09 -0.03,0.17 -0.04,0.24 0,0.02 0,0.04 -0.01,0.06 0,0.01 0,0.02 0,0.02 0,0.03 -0.02,0.06 -0.02,0.09 v 0.02 h 0.02 v -0.01 c 0,-0.01 0.01,-0.01 0.01,-0.01 0,-0.01 0.01,-0.02 0.01,-0.03 0.04,-0.08 0.07,-0.16 0.11,-0.25 0,0 0,0 0,-0.01 0.01,0 0.01,-0.02 0.01,-0.03 0.18,-0.37 0.38,-0.75 0.59,-1.16 1.41,-2.74 3.48,-6.3 5.94,-10.11 0.16,-0.29 0.33,-0.58 0.5,-0.86 2.11,-3.85 3.01,-7.92 2.63,-11.31 z m -9.96,24.1 c 0,0.01 -0.02,0.03 -0.02,0.03 -0.01,0.04 -0.04,0.08 -0.05,0.1 -0.29,0.65 -0.53,1.2 -0.69,1.68 -0.01,0.01 -0.01,0.04 -0.02,0.05 -0.33,0.95 -0.4,1.53 -0.15,1.63 0.26,0.06 0.48,-0.42 0.66,-1.32 0.11,-0.54 0.19,-1.22 0.27,-2.04 0,-0.04 0.01,-0.08 0.01,-0.12 0,0 0,0 -0.01,-0.01 z"
           id="path561"
           style="fill:#ff7b00;fill-opacity:1;stroke:#ff7b00;stroke-opacity:1" />
      </g>
      <g
         id="g563"
         style="fill:#ff7b00;fill-opacity:1;stroke:#ff7b00;stroke-opacity:1">
        <path
           d="m 231.759,102.223 c 0.67,0.722 5.082,-5.939 9.43,-14.388 2.308,-4.167 5.689,-7.417 8.952,-8.755 3.239,-1.451 6.186,-1.4 6.169,-1.406 -0.007,-0.018 0.043,2.928 -1.41,6.167 -1.338,3.261 -4.586,6.646 -8.752,8.951 -8.447,4.351 -15.106,8.762 -14.389,9.431 z m 10.077,-14.036 c -3.865,6.447 -7.409,11.808 -7.533,11.493 -0.314,-0.122 5.045,-3.668 11.492,-7.534 6.845,-3.725 8.236,-11.722 7.971,-11.929 -0.207,-0.266 -8.207,1.125 -11.93,7.97 z"
           id="path565"
           style="fill:#ff7b00;fill-opacity:1;stroke:#ff7b00;stroke-opacity:1" />
      </g>
      <g
         id="g567"
         style="fill:#ff7b00;fill-opacity:1;stroke:#ff7b00;stroke-opacity:1">
        <path
           d="m 230.734,100.542 c 0.384,0.955 7.329,-2.549 15.414,-7.75 4.09,-2.47 8.528,-3.538 12.168,-3.133 3.488,0.377 5.972,1.935 5.958,1.922 0.007,-0.013 -1.255,2.533 -4.263,4.621 -2.921,2.173 -7.205,3.451 -11.992,3.364 -9.637,-0.445 -17.477,-0.02 -17.285,0.976 z m 15.764,-7.1 c -6.6,3.678 -12.146,6.466 -12.288,6.172 0.019,-0.329 6.069,-0.64 13.735,-0.779 7.732,0.205 13.162,-6.036 12.855,-6.326 0.015,-0.374 -7.595,-3.172 -14.302,0.933 z"
           id="path569"
           style="fill:#ff7b00;fill-opacity:1;stroke:#ff7b00;stroke-opacity:1" />
      </g>
    </g>
  </g>
</svg>
