<?xml version="1.0" encoding="UTF-8" standalone="no"?>
<!-- Created with Inkscape (http://www.inkscape.org/) -->

<svg
   xmlns:dc="http://purl.org/dc/elements/1.1/"
   xmlns:cc="http://creativecommons.org/ns#"
   xmlns:rdf="http://www.w3.org/1999/02/22-rdf-syntax-ns#"
   xmlns:svg="http://www.w3.org/2000/svg"
   xmlns="http://www.w3.org/2000/svg"
   version="1.1"
   width="128"
   height="128"
   id="svg3041">
  <defs
     id="defs3043">
    <filter
       color-interpolation-filters="sRGB"
       id="filter66799">
      <feGaussianBlur
         id="feGaussianBlur66801"
         result="result6"
         stdDeviation="1.5" />
      <feComposite
         in2="result6"
         operator="atop"
         in="SourceGraphic"
         result="result8"
         id="feComposite66803" />
      <feComposite
         in2="SourceAlpha"
         operator="atop"
         in="result8"
         result="result9"
         id="feComposite66805" />
    </filter>
    <filter
       color-interpolation-filters="sRGB"
       id="filter66863">
      <feGaussianBlur
         id="feGaussianBlur66865"
         result="result6"
         stdDeviation="1.5" />
      <feComposite
         in2="result6"
         operator="atop"
         in="SourceGraphic"
         result="result8"
         id="feComposite66867" />
      <feComposite
         in2="SourceAlpha"
         operator="atop"
         in="result8"
         result="result9"
         id="feComposite66869" />
    </filter>
  </defs>
  <metadata
     id="metadata3046">
    <rdf:RDF>
      <cc:Work
         rdf:about="">
        <dc:format>image/svg+xml</dc:format>
        <dc:type
           rdf:resource="http://purl.org/dc/dcmitype/StillImage" />
        <dc:title></dc:title>
      </cc:Work>
    </rdf:RDF>
  </metadata>
  <path
     d="m 44.067363,117.11458 c -0.703946,-0.84821 -0.561597,-1.32783 0.964475,-3.24957 3.280293,-4.13082 3.460556,-4.52874 3.813182,-8.41748 0.256965,-2.83384 0.158521,-3.74865 -0.368314,-3.42305 -0.39546,0.2444 -0.719003,1.41914 -0.719003,2.61053 0,5.77493 -4.928354,10.54375 -9.667302,9.35435 -2.109737,-0.52951 -1.962923,-1.63748 0.627877,-4.73848 2.191464,-2.62302 2.451027,-3.27666 3.036631,-7.64729 0.659928,-4.925286 -2.887595,-14.282187 -7.035245,-18.556053 -3.004972,-3.096412 -4.085175,-6.292345 -5.054931,-14.955654 -0.83816,-7.487654 -1.995982,-10.664422 -4.776607,-13.105847 -2.182952,-1.916658 -2.258901,-1.93287 -7.084041,-1.511963 -4.679042,0.408164 -4.942806,0.360089 -6.484672,-1.181777 -2.4626908,-2.462686 -2.0821384,-4.422512 1.897516,-9.772004 1.913941,-2.572751 4.055473,-5.894456 4.758966,-7.381573 2.480862,-5.244387 8.183801,-7.398947 14.250618,-5.383876 2.660211,0.883571 4.507653,2.257092 9.330308,6.936798 3.307338,3.209288 7.456083,6.624048 9.219434,7.588348 l 3.206105,1.753264 6.087211,-0.921327 c 4.175079,-0.631923 11.572882,-0.938772 23.550715,-0.976856 16.882714,-0.05368 17.582574,-0.0071 21.043064,1.390079 9.29016,3.751883 12.26688,7.787199 13.96774,18.934951 0.78914,5.172274 0.89102,7.976956 0.45625,12.560723 -0.31185,3.287694 -0.32564,6.968023 -0.0311,8.309511 0.93255,4.247841 -1.16805,21.600056 -3.05955,25.273816 -1.39749,2.71425 -3.94888,4.35051 -6.45451,4.13944 -3.0053,-0.25318 -3.14463,-1.71614 -0.4777,-5.01599 1.18,-1.46006 2.46323,-3.26769 2.85162,-4.01696 1.04598,-2.01793 0.91349,-12.148889 -0.17841,-13.642155 -0.48651,-0.665324 -1.07853,-1.015722 -1.3156,-0.778654 -0.23708,0.237078 -0.78258,3.480441 -1.21223,7.207488 -0.86638,7.515381 -1.28475,8.629411 -4.1444,11.035641 -1.49247,1.25584 -2.51901,1.61322 -4.224,1.4706 -2.995706,-0.2506 -3.30197,-2.10341 -0.8199,-4.96019 2.82939,-3.25655 3.24863,-4.48583 3.19777,-9.376335 -0.062,-5.963252 -1.02997,-8.480811 -4.191398,-10.901429 l -2.576469,-1.972745 -4.468062,1.511643 c -7.049684,2.385071 -12.26682,2.949654 -23.465439,2.539352 -6.048141,-0.221594 -10.257926,-0.13562 -10.47396,0.213918 -0.71766,1.161226 -2.257531,10.420929 -2.771112,16.663656 -0.559552,6.80144 -1.542355,9.364 -4.41133,11.50214 -2.258469,1.68316 -5.756102,2.14185 -6.794204,0.89101 l -7e-6,0 z"
     id="path16792"
     style="color:#000000;fill:#ff7b00;fill-opacity:1;fill-rule:nonzero;stroke:none;stroke-width:1.70000005;marker:none;visibility:visible;display:inline;overflow:visible;enable-background:accumulate" />
</svg>
