<?xml version="1.0" encoding="utf-8"?>
<!-- Generator: Adobe Illustrator 18.0.0, SVG Export Plug-In . SVG Version: 6.00 Build 0)  -->
<!DOCTYPE svg PUBLIC "-//W3C//DTD SVG 1.1//EN" "http://www.w3.org/Graphics/SVG/1.1/DTD/svg11.dtd">
<svg version="1.1" id="Calque_1" xmlns="http://www.w3.org/2000/svg" xmlns:xlink="http://www.w3.org/1999/xlink" x="0px" y="0px"
	 viewBox="0 0 317.4 143.8" enable-background="new 0 0 317.4 143.8" xml:space="preserve">
<g>
	<g>
		<g>
			<path fill="#EE6B4D" d="M170.7,52.2c-15.9,0-28.9,13-28.9,28.9s13,28.9,28.9,28.9s28.9-13,28.9-28.9S186.7,52.2,170.7,52.2z"/>
		</g>
	</g>
	<g>
		<g>
			<path fill="#383933" d="M218.9,83.1c1.2-5.6,1.6-11.2,1.1-16.8l5.5-1.9c5.7-1.9,8.8-8.2,6.8-13.8l-2.4-7
				c-1.9-5.7-8.2-8.8-13.8-6.8l-5.5,1.9c-3.1-4.7-6.8-9-11.2-12.7l2.6-5.2c2.7-5.4,0.4-12-5-14.6l-6.7-3.3c-2.6-1.3-5.6-1.5-8.3-0.5
				s-5,2.9-6.3,5.5l-2.6,5.2c-5.6-1.2-11.2-1.6-16.8-1.1l-1.9-5.5c-1.9-5.7-8.2-8.8-13.8-6.8l-7,2.4c-5.7,1.9-8.8,8.2-6.8,13.8
				l1.9,5.5c-4.7,3.1-9,6.8-12.7,11.2l-5.2-2.6c-2.6-1.3-5.6-1.5-8.3-0.5c-2.8,0.9-5,2.9-6.3,5.5l-3.3,6.7c-2.7,5.4-0.4,12,5,14.6
				l5.2,2.6c-1.2,5.6-1.6,11.2-1.1,16.8l-5.5,1.9c-5.7,1.9-8.8,8.2-6.8,13.8l2.4,7c1.9,5.7,8.2,8.8,13.8,6.8l5.5-1.9
				c3.1,4.7,6.8,9,11.2,12.7l-2.6,5.2c-2.7,5.4-0.4,12,5,14.6l6.7,3.3c5.4,2.7,12,0.4,14.6-5l2.6-5.2c5.6,1.2,11.2,1.6,16.8,1.1
				l1.9,5.5c1.9,5.7,8.2,8.8,13.8,6.8l7-2.4c5.7-1.9,8.8-8.2,6.8-13.8l-1.9-5.5c4.7-3.1,9-6.8,12.7-11.2l5.2,2.6
				c5.4,2.7,12,0.4,14.6-5l3.3-6.7c2.7-5.4,0.4-12-5-14.6L218.9,83.1z M222.9,97.2l-3.3,6.7c-1,2-3.3,2.8-5.3,1.8l-7.7-3.8
				c-1.5-0.7-3.3-0.3-4.3,1c-4.1,5.3-9.1,9.8-14.9,13.1c-1.4,0.8-2.1,2.6-1.5,4.1l2.8,8.1c0.7,2.1-0.4,4.3-2.5,5l-7,2.4
				c-2.1,0.7-4.3-0.4-5-2.5l-2.8-8.1c-0.5-1.6-2.1-2.5-3.7-2.3c-6.6,0.9-13.3,0.4-19.8-1.3c-0.7-0.2-1.4-0.1-2,0.1
				c-0.9,0.3-1.6,0.9-2,1.8l-3.8,7.7c-1,2-3.3,2.8-5.3,1.8l-6.7-3.3c-2-1-2.8-3.3-1.8-5.3l3.8-7.7c0.7-1.5,0.3-3.3-1-4.3
				c-5.3-4.1-9.8-9.1-13.1-14.9c-0.8-1.4-2.6-2.1-4.1-1.5l-8.1,2.8c-2.1,0.7-4.3-0.4-5-2.5l-2.4-7c-0.7-2.1,0.4-4.3,2.5-5l8.1-2.8
				c1.6-0.5,2.5-2.1,2.3-3.7c-0.9-6.6-0.4-13.3,1.3-19.8c0.4-1.6-0.3-3.3-1.8-4l-7.7-3.8c-2-1-2.8-3.3-1.8-5.3l3.3-6.7
				c0.5-0.9,1.3-1.7,2.3-2c1-0.3,2.1-0.3,3,0.2l7.7,3.8c1.5,0.7,3.3,0.3,4.3-1c4.1-5.3,9.1-9.8,14.9-13.1c1.4-0.8,2.1-2.6,1.5-4.1
				l-2.8-8.1c-0.7-2.1,0.4-4.3,2.5-5l7-2.4c2.1-0.7,4.3,0.4,5,2.5l2.8,8.1c0.5,1.6,2.1,2.5,3.7,2.3c6.6-0.9,13.3-0.4,19.8,1.3
				c1.6,0.4,3.3-0.3,4-1.8l3.8-7.7c0.5-0.9,1.3-1.7,2.3-2s2.1-0.3,3,0.2l6.7,3.3c2,1,2.8,3.3,1.8,5.3l-3.8,7.7
				c-0.7,1.5-0.3,3.3,1,4.3c5.3,4.1,9.8,9.1,13.1,14.9c0.8,1.4,2.6,2.1,4.1,1.5l8.1-2.8c2.1-0.7,4.3,0.4,5,2.5l2.4,7
				c0.7,2.1-0.4,4.3-2.5,5l-8.1,2.8c-1.6,0.5-2.5,2.1-2.3,3.7c0.9,6.6,0.4,13.3-1.3,19.8c-0.4,1.6,0.3,3.3,1.8,4l7.7,3.8
				C223,92.9,223.8,95.2,222.9,97.2z"/>
		</g>
		<g>
			<path fill="#383933" d="M151.5,43c-15.4,5.2-23.6,22-18.4,37.4c5.2,15.4,22,23.6,37.4,18.4s23.6-22,18.4-37.4
				C183.7,46,166.9,37.7,151.5,43z M168.3,92.2c-11.8,4-24.6-2.3-28.6-14.1c-4-11.8,2.3-24.6,14.1-28.6s24.6,2.3,28.6,14.1
				S180,88.2,168.3,92.2z"/>
		</g>
	</g>
	<g>
		
			<line fill="none" stroke="#383933" stroke-width="7" stroke-linecap="round" stroke-miterlimit="10" x1="3.5" y1="10.3" x2="59.1" y2="10.4"/>
		
			<line fill="none" stroke="#383933" stroke-width="7" stroke-linecap="round" stroke-miterlimit="10" x1="72.7" y1="10.5" x2="80.9" y2="10.5"/>
	</g>
	<g>
		
			<line fill="none" stroke="#383933" stroke-width="7" stroke-linecap="round" stroke-miterlimit="10" x1="313.9" y1="128.6" x2="258.3" y2="128.4"/>
		
			<line fill="none" stroke="#383933" stroke-width="7" stroke-linecap="round" stroke-miterlimit="10" x1="244.7" y1="128.4" x2="236.5" y2="128.4"/>
	</g>
</g>
</svg>
