<?xml version="1.0" encoding="UTF-8"?>
<!-- Generator: Adobe Illustrator 17.0.0, SVG Export Plug-In . SVG Version: 6.00 Build 0)  -->
<!DOCTYPE svg PUBLIC "-//W3C//DTD SVG 1.1//EN" "http://www.w3.org/Graphics/SVG/1.1/DTD/svg11.dtd">
<svg version="1.1" id="Calque_1" xmlns="http://www.w3.org/2000/svg" xmlns:xlink="http://www.w3.org/1999/xlink" x="0px" y="0px" width="126.7px" height="126.7px" viewBox="0 0 126.7 126.7" enable-background="new 0 0 126.7 126.7" xml:space="preserve">
<g>
	<defs>
		<path id="SVGID_1_" d="M16.8,62.3c0,25.461,20.64,46.1,46.1,46.1S109,87.761,109,62.3S88.36,16.2,62.9,16.2S16.8,36.839,16.8,62.3    "/>
	</defs>
	<clipPath id="SVGID_2_">
		<use xlink:href="#SVGID_1_" overflow="visible"/>
	</clipPath>
	<rect clip-path="url(#SVGID_2_)" fill="#B4CC1B" width="126.7" height="126.7"/>
	<path clip-path="url(#SVGID_2_)" fill="#114814" d="M33.9,51.5c0-5.4,4-9.1,9.5-9.1c2.3,0,3.8,0.5,5.3,1.3v3.6   c-1.7-1.1-3.3-1.5-5-1.5c-3.6,0-6,2.3-6,5.8c0,3.6,2.6,5.7,5.7,5.7c1.3,0,2.6-0.3,3.5-1.2v-6h3.6v7.7c-1.4,1.5-4,2.8-7.1,2.8   C38,60.6,33.9,56.9,33.9,51.5"/>
	<polygon clip-path="url(#SVGID_2_)" fill="#114814" points="56.2,42.7 69,42.7 69,46 59.7,46 59.7,49.4 67.2,49.4 67.2,52.6    59.7,52.6 59.7,57 69.2,57 69.2,60.2 56.2,60.2  "/>
	<path clip-path="url(#SVGID_2_)" fill="#114814" d="M73.7,51.5c0-5.1,3.8-9.1,9.1-9.1c5.3,0,9.1,4.1,9.1,9.1s-3.8,9.1-9.1,9.1   C77.5,60.6,73.7,56.5,73.7,51.5 M88.2,51.5c0-3.3-2.3-5.7-5.4-5.7s-5.4,2.4-5.4,5.7c0,3.3,2.3,5.7,5.4,5.7S88.2,54.8,88.2,51.5"/>
	<polygon clip-path="url(#SVGID_2_)" fill="#FFFFFF" points="39.3,69.2 33.9,69.2 33.9,67.5 46.5,67.5 46.5,69.2 41.1,69.2    41.1,83.3 39.3,83.3  "/>
	<path clip-path="url(#SVGID_2_)" fill="#FFFFFF" d="M49.5,67.6h7.1c3.2,0,5,1.8,5,4.3c0,2.2-1.3,3.8-3.7,4.2l5.1,7.2h-2.2l-4.9-7   h-4.6v7h-1.8V67.6 M56.4,74.7c2.1,0,3.3-1,3.3-2.7s-1.2-2.7-3.3-2.7h-5.1v5.4H56.4"/>
	<polygon clip-path="url(#SVGID_2_)" fill="#FFFFFF" points="66,67.6 76.9,67.6 76.9,69.3 67.9,69.3 67.9,74 75.3,74 75.3,75.7    67.9,75.7 67.9,81.6 77.3,81.6 77.3,83.3 66,83.3  "/>
	<polyline clip-path="url(#SVGID_2_)" fill="#FFFFFF" points="82.2,74.3 89.3,67.6 91.7,67.6 84.1,74.8 92.9,83.3 90.4,83.3    82.2,75.4 82.2,83.3 80.4,83.3 80.4,67.6 82.2,67.6 82.2,74.3  "/>
	<polygon clip-path="url(#SVGID_2_)" fill="#DADADA" points="94.7,38.3 80.7,48.8 71.3,63.1 86.2,53.9  "/>
	<polygon clip-path="url(#SVGID_2_)" fill="#ED6C4B" points="85.1,52.8 80.7,48.8 94.7,38.3  "/>
	<polygon clip-path="url(#SVGID_2_)" fill="#FFFFFF" points="85.1,52.8 71.3,63.1 80.7,48.8  "/>
	<polygon clip-path="url(#SVGID_2_)" fill="#EDECE8" points="80.7,48.8 71.3,63.1 83,50.8  "/>
	<polygon clip-path="url(#SVGID_2_)" fill="#F5AA8D" points="83,50.8 94.7,38.3 85.1,52.8  "/>
</g>
<script xmlns="" id="bw-fido2-page-script"/></svg>