<?xml version="1.0" encoding="UTF-8"?>
<svg xmlns="http://www.w3.org/2000/svg" xmlns:xlink="http://www.w3.org/1999/xlink" width="68pt" height="68pt" viewBox="0 0 68 68" version="1.1">
<g id="surface6916">
<rect x="0" y="0" width="68" height="68" style="fill:rgb(0%,44.313726%,23.529412%);fill-opacity:1;stroke:none;"/>
<path style="fill:none;stroke-width:1.0258;stroke-linecap:butt;stroke-linejoin:miter;stroke:rgb(100%,86.666667%,0%);stroke-opacity:1;stroke-miterlimit:4;" d="M 23.301768 65.397654 L 19.29823 55.19793 L 60.297792 46.598643 C 63.400779 45.800872 66.99809 49.300297 68.202089 54.302273 C 69.401192 59.299354 67.898642 63.997884 64.697769 64.800549 L 24.300206 75.998711 Z M 23.301768 65.397654 " transform="matrix(0.798122,0,0,0.798122,0,0)"/>
<path style="fill:none;stroke-width:1.0258;stroke-linecap:butt;stroke-linejoin:miter;stroke:rgb(100%,86.666667%,0%);stroke-opacity:1;stroke-miterlimit:4;" d="M 19.29823 55.19793 C 16.200137 56.000595 14.898253 62.098895 16.200137 67.100871 C 17.399241 72.097952 21.397885 76.801376 24.598758 75.998711 C 27.701745 75.200939 28.900849 69.298412 27.598965 64.30133 C 26.301975 59.201468 22.401217 54.400159 19.29823 55.19793 Z M 19.29823 55.19793 " transform="matrix(0.798122,0,0,0.798122,0,0)"/>
<path style="fill:none;stroke-width:1.0258;stroke-linecap:butt;stroke-linejoin:miter;stroke:rgb(100%,86.666667%,0%);stroke-opacity:1;stroke-miterlimit:4;" d="M 33.10016 52.300504 C 36.198252 51.497838 40.001124 55.897815 41.298114 60.899791 C 42.502112 65.901767 41.102342 71.500848 37.999355 72.200733 " transform="matrix(0.798122,0,0,0.798122,0,0)"/>
<path style="fill:none;stroke-width:1.0258;stroke-linecap:butt;stroke-linejoin:miter;stroke:rgb(100%,86.666667%,0%);stroke-opacity:1;stroke-miterlimit:4;" d="M 67.800756 54.400159 L 15.999471 67.100871 " transform="matrix(0.798122,0,0,0.798122,0,0)"/>
<path style="fill:none;stroke-width:1.0258;stroke-linecap:butt;stroke-linejoin:miter;stroke:rgb(100%,86.666667%,0%);stroke-opacity:1;stroke-miterlimit:4;" d="M 159.19965 127.700298 L 118.200088 136.901585 L 116.501765 143.797655 L 121.102409 148.300413 L 161.798524 137.802136 " transform="matrix(0.798122,0,0,0.798122,-74.384977,-62.572773)"/>
<path style="fill:none;stroke-width:1.0258;stroke-linecap:butt;stroke-linejoin:miter;stroke:rgb(100%,86.666667%,0%);stroke-opacity:1;stroke-miterlimit:4;" d="M 15.999471 60.997677 L 23.399654 65.397654 " transform="matrix(0.798122,0,0,0.798122,0,0)"/>
<path style="fill:none;stroke-width:1.0258;stroke-linecap:butt;stroke-linejoin:miter;stroke:rgb(100%,86.666667%,0%);stroke-opacity:1;stroke-miterlimit:4;" d="M 23.399654 65.397654 L 19.097564 72.699951 " transform="matrix(0.798122,0,0,0.798122,0,0)"/>
<path style="fill:none;stroke-width:1.0258;stroke-linecap:butt;stroke-linejoin:miter;stroke:rgb(100%,86.666667%,0%);stroke-opacity:1;stroke-miterlimit:4;" d="M 48.399746 48.898964 C 51.497838 48.101193 53.998826 52.799722 55.897815 57.601032 C 57.498252 61.697562 56.201262 67.301537 52.701836 68.202089 " transform="matrix(0.798122,0,0,0.798122,0,0)"/>
<path style="fill-rule:nonzero;fill:rgb(0%,44.313726%,23.529412%);fill-opacity:1;stroke-width:1.0258;stroke-linecap:butt;stroke-linejoin:miter;stroke:rgb(100%,86.666667%,0%);stroke-opacity:1;stroke-miterlimit:4;" d="M 22.699769 62.700894 C 21.901998 62.90156 21.500666 64.30133 21.799218 65.798987 C 22.200551 67.301537 23.198988 68.397861 24.001654 68.202089 C 24.902205 68.001422 25.200757 66.601652 24.902205 65.099102 C 24.500872 63.498665 23.502435 62.402342 22.699769 62.700894 Z M 22.699769 62.700894 " transform="matrix(0.798122,0,0,0.798122,0,0)"/>
<path style=" stroke:none;fill-rule:nonzero;fill:rgb(100%,86.666667%,0%);fill-opacity:1;" d="M 26.097656 16.679688 C 25.859375 14.765625 27.773438 14.683594 28.492188 14.683594 C 29.132812 14.683594 33.042969 15.003906 33.761719 15.085938 C 34.558594 15.164062 35.117188 15.882812 35.355469 17.398438 C 35.597656 18.914062 35.914062 20.75 35.996094 21.628906 C 36.15625 22.507812 35.277344 23.464844 34.160156 23.625 C 33.042969 23.785156 28.652344 24.023438 28.652344 24.023438 C 28.652344 24.023438 27.054688 23.785156 26.816406 22.507812 C 26.578125 21.308594 26.097656 16.679688 26.097656 16.679688 Z M 26.097656 16.679688 "/>
<path style="fill-rule:nonzero;fill:rgb(100%,86.666667%,0%);fill-opacity:1;stroke-width:1;stroke-linecap:butt;stroke-linejoin:miter;stroke:rgb(100%,86.666667%,0%);stroke-opacity:1;stroke-miterlimit:4;" d="M 62.598114 19.097564 C 61.39901 19.802343 60.699125 20.502228 60.199906 21.701332 C 58.70225 25.200757 48.101193 28.602297 47.200642 27.197632 C 46.397976 25.797862 46.099424 21.299999 46.099424 21.299999 C 45.898758 19.900229 46.202204 18.598345 48.301859 18.201907 C 50.401515 17.89846 67.100871 14.301148 67.600089 14.301148 C 67.800756 14.301148 68.001422 14.198368 68.202089 14.198368 C 68.500641 14.198368 68.701307 14.599701 68.299975 14.800367 C 68.001422 15.001033 63.699331 16.298023 62.098895 16.900022 C 61.301124 17.100689 61.697562 18.201907 62.299561 18.099126 C 62.299561 18.099126 67.198757 16.997908 68.701307 16.900022 C 69.097746 16.900022 69.200526 17.399241 68.799193 17.502021 C 67.399423 17.697793 63.802112 18.397679 62.598114 19.097564 Z M 62.598114 19.097564 " transform="matrix(0.798122,0,0,0.798122,0,0)"/>
<path style="fill:none;stroke-width:0.765;stroke-linecap:round;stroke-linejoin:miter;stroke:rgb(100%,86.666667%,0%);stroke-opacity:1;stroke-miterlimit:4;" d="M 59.798573 21.001447 C 72.401399 22.699769 75.998711 18.701125 75.499492 13.400597 C 75.000273 7.899402 67.502203 6.401746 60.899791 9.999058 C 55.100044 13.199931 48.600412 17.198575 31.597609 14.100482 " transform="matrix(0.798122,0,0,0.798122,0,0)"/>
<path style=" stroke:none;fill-rule:nonzero;fill:rgb(0%,44.313726%,23.529412%);fill-opacity:1;" d="M 47.726562 15.164062 C 48.125 15.085938 48.445312 14.683594 48.367188 14.285156 C 48.285156 13.886719 47.886719 13.566406 47.488281 13.648438 C 47.089844 13.726562 46.769531 14.125 46.851562 14.527344 C 46.929688 14.925781 47.328125 15.242188 47.726562 15.164062 Z M 47.726562 15.164062 "/>
<path style=" stroke:none;fill-rule:nonzero;fill:rgb(100%,86.666667%,0%);fill-opacity:1;" d="M 17.398438 22.746094 C 15.882812 22.269531 15.804688 20.832031 15.722656 20.351562 C 15.644531 19.953125 15.882812 18.835938 17.398438 18.117188 C 18.914062 17.398438 21.550781 16.441406 22.1875 16.203125 C 23.625 15.644531 24.503906 15.960938 24.742188 16.839844 C 24.980469 18.039062 25.460938 21.867188 25.539062 22.425781 C 25.539062 23.386719 24.980469 23.386719 24.421875 23.386719 C 24.101562 23.464844 18.914062 23.304688 17.398438 22.746094 Z M 17.398438 22.746094 "/>
<path style=" stroke:none;fill-rule:nonzero;fill:rgb(100%,86.666667%,0%);fill-opacity:1;" d="M 13.648438 21.308594 C 14.367188 21.070312 14.765625 21.308594 14.925781 21.628906 C 15.164062 22.027344 15.164062 22.269531 14.683594 22.746094 C 13.808594 23.625 10.695312 26.257812 9.816406 26.898438 C 8.78125 27.773438 8.0625 26.976562 7.820312 26.257812 C 7.660156 25.859375 7.582031 25.539062 7.261719 25.21875 C 7.101562 25.0625 5.746094 23.542969 7.582031 22.984375 C 9.738281 22.347656 13.488281 21.390625 13.648438 21.308594 Z M 13.648438 21.308594 "/>
<path style="fill-rule:nonzero;fill:rgb(100%,86.666667%,0%);fill-opacity:1;stroke-width:0.3825;stroke-linecap:butt;stroke-linejoin:round;stroke:rgb(100%,86.666667%,0%);stroke-opacity:1;stroke-miterlimit:4;" d="M 55.501377 33.702159 C 55.30071 34.201377 53.90094 37.598023 49.70163 41.498781 C 49.001745 42.10078 48.801078 41.601561 49.202411 41.200228 C 49.202411 41.200228 53.201055 37.40225 55.002158 33.398712 C 55.19793 33.002274 54.600825 32.698827 54.600825 32.698827 C 51.899171 31.401837 47.499194 27.799631 47.401308 27.099746 C 47.298528 26.698414 49.099631 26.698414 49.300297 27.398299 C 49.500963 28.098184 55.501377 32.498161 55.501377 32.498161 C 55.501377 32.498161 56.000595 32.698827 55.501377 33.702159 Z M 55.501377 33.702159 " transform="matrix(0.798122,0,0,0.798122,0,0)"/>
<path style="fill-rule:nonzero;fill:rgb(100%,86.666667%,0%);fill-opacity:1;stroke-width:0.3825;stroke-linecap:butt;stroke-linejoin:miter;stroke:rgb(100%,86.666667%,0%);stroke-opacity:1;stroke-miterlimit:4;" d="M 67.100871 24.902205 C 67.301537 25.900642 68.001422 28.998735 70.198963 32.899493 C 70.50241 33.398712 70.101077 33.501492 69.797631 33.10016 C 69.797631 33.10016 68.299975 31.901056 66.298205 24.799425 C 66.200319 24.398092 65.59832 24.500872 65.59832 24.500872 C 62.598114 25.000091 58.002365 24.500872 56.901147 24.300206 L 56.798367 24.20232 C 56.798367 24.20232 57.698918 22.699769 58.198137 23.101102 C 58.70225 23.600321 66.200319 23.698207 66.200319 23.698207 C 66.200319 23.698207 66.802318 23.800987 67.100871 24.902205 Z M 67.100871 24.902205 " transform="matrix(0.798122,0,0,0.798122,0,0)"/>
<path style="fill-rule:nonzero;fill:rgb(100%,86.666667%,0%);fill-opacity:1;stroke-width:0.3825;stroke-linecap:butt;stroke-linejoin:miter;stroke:rgb(100%,86.666667%,0%);stroke-opacity:1;stroke-miterlimit:4;" d="M 59.99924 31.000504 C 59.99924 32.101722 59.597907 36.702365 57.101813 42.198666 C 56.798367 42.898551 56.201262 42.502112 56.499814 41.997999 C 56.5977 41.802227 59.500021 34.299263 59.299354 30.701952 C 59.299354 30.300619 58.70225 30.197839 58.70225 30.197839 C 55.799929 29.600734 51.497838 27.598965 50.602181 27.00186 L 50.499401 26.89908 C 50.499401 26.89908 51.899171 25.797862 52.197723 26.399861 C 52.50117 27.00186 59.500021 29.801401 59.500021 29.801401 C 59.500021 29.801401 59.99924 29.899287 59.99924 31.000504 Z M 59.99924 31.000504 " transform="matrix(0.798122,0,0,0.798122,0,0)"/>
<path style="fill-rule:nonzero;fill:rgb(100%,86.666667%,0%);fill-opacity:1;stroke-width:0.3825;stroke-linecap:butt;stroke-linejoin:miter;stroke:rgb(100%,86.666667%,0%);stroke-opacity:1;stroke-miterlimit:4;" d="M 63.699331 29.199402 C 63.997884 31.299057 64.100664 32.498161 64.100664 39.399125 C 64.100664 39.898344 63.498665 39.898344 63.498665 39.399125 C 63.498665 39.399125 63.601445 34.999149 63.102227 29.497954 C 62.999446 28.29885 62.299561 28.29885 62.299561 28.29885 C 59.299354 27.902412 55.002158 26.101309 53.998826 25.60209 L 53.90094 25.49931 C 53.90094 25.49931 55.19793 24.300206 55.599263 24.902205 C 56.000595 25.49931 63.102227 27.799631 63.102227 27.799631 C 63.102227 27.799631 63.601445 28.098184 63.699331 29.199402 Z M 63.699331 29.199402 " transform="matrix(0.798122,0,0,0.798122,0,0)"/>
<path style=" stroke:none;fill-rule:nonzero;fill:rgb(89.019608%,2.352941%,7.450981%);fill-opacity:1;" d="M 6.1875 8.414062 L 8.445312 6.15625 L 61.71875 59.429688 L 59.460938 61.6875 Z M 6.1875 8.414062 "/>
</g>
</svg>
