<?xml version="1.0" encoding="UTF-8"?>
<svg xmlns="http://www.w3.org/2000/svg" xmlns:xlink="http://www.w3.org/1999/xlink" width="68pt" height="68pt" viewBox="0 0 68 68" version="1.1">
<g id="surface6777">
<rect x="0" y="0" width="68" height="68" style="fill:rgb(0%,44.313726%,23.529412%);fill-opacity:1;stroke:none;"/>
<path style=" stroke:none;fill-rule:nonzero;fill:rgb(100%,86.666667%,0%);fill-opacity:1;" d="M 6.558594 31.601562 C 6.71875 31.039062 7.199219 30 7.519531 29.679688 C 8.238281 30 12.078125 30.71875 14.71875 28.878906 C 16.320312 27.761719 18.878906 24.878906 20.078125 23.121094 C 21.441406 21.121094 22.480469 19.199219 24.078125 17.601562 C 24.480469 17.199219 25.121094 16.960938 25.761719 17.039062 C 26.398438 17.121094 26.878906 17.519531 27.28125 18 C 28.320312 19.359375 29.121094 20.878906 29.441406 22.558594 C 30.398438 26.800781 30.71875 30.640625 30.640625 34.800781 C 30.558594 38.078125 30.238281 41.839844 29.359375 45.519531 C 29.199219 46.320312 28.878906 47.039062 28.558594 47.761719 C 28.160156 48.640625 27.679688 49.441406 27.039062 50.238281 C 26.878906 50.398438 26.640625 50.558594 26.480469 50.71875 C 25.839844 51.199219 24.640625 51.039062 24.078125 50.480469 C 23.121094 49.601562 22.320312 48.640625 21.679688 47.601562 C 19.601562 44.078125 17.761719 41.679688 15.121094 39.441406 C 12.960938 37.679688 10.078125 37.601562 7.441406 38.238281 C 6.160156 36.320312 6.078125 33.921875 6.558594 31.601562 Z M 6.558594 31.601562 "/>
<path style=" stroke:none;fill-rule:nonzero;fill:rgb(100%,86.666667%,0%);fill-opacity:1;" d="M 40.960938 17.601562 L 48.320312 12.878906 L 40.558594 21.601562 L 39.839844 18.558594 L 33.679688 22.480469 L 40.320312 14.960938 Z M 40.960938 17.601562 "/>
<path style=" stroke:none;fill-rule:nonzero;fill:rgb(100%,86.666667%,0%);fill-opacity:1;" d="M 46.71875 36.398438 L 62.160156 34 L 49.359375 34 L 49.679688 31.601562 L 33.921875 34.078125 L 47.039062 34.078125 Z M 46.71875 36.398438 "/>
<path style=" stroke:none;fill-rule:nonzero;fill:rgb(100%,86.666667%,0%);fill-opacity:1;" d="M 41.039062 50.238281 L 48.398438 54.878906 L 37.28125 51.601562 L 39.761719 49.601562 L 33.519531 45.679688 L 43.121094 48.558594 Z M 41.039062 50.238281 "/>
<path style=" stroke:none;fill-rule:nonzero;fill:rgb(100%,86.666667%,0%);fill-opacity:1;" d="M 46.71875 24 C 46.878906 24 47.519531 24.078125 47.921875 24.320312 C 48 24.320312 48 24.320312 48 24.320312 L 48 18.960938 L 48.558594 18.960938 C 48.558594 18.960938 48.558594 23.28125 48.558594 25.519531 C 48.398438 26.320312 47.761719 26.71875 46.960938 26.800781 C 45.921875 26.960938 44.960938 26.480469 44.71875 25.679688 C 44.398438 24.71875 45.679688 24 46.71875 24 Z M 46.71875 24 "/>
<path style=" stroke:none;fill-rule:nonzero;fill:rgb(100%,86.666667%,0%);fill-opacity:1;" d="M 57.441406 21.839844 C 57.601562 21.839844 58.238281 21.921875 58.640625 22.160156 C 58.71875 22.160156 58.71875 22.160156 58.71875 22.160156 L 58.71875 16.800781 L 59.28125 16.800781 C 59.28125 16.800781 59.28125 21.121094 59.28125 23.359375 C 59.121094 24.160156 58.480469 24.558594 57.679688 24.640625 C 56.640625 24.800781 55.679688 24.320312 55.441406 23.519531 C 55.199219 22.558594 56.398438 21.761719 57.441406 21.839844 Z M 57.441406 21.839844 "/>
<path style=" stroke:none;fill-rule:nonzero;fill:rgb(100%,86.666667%,0%);fill-opacity:1;" d="M 53.121094 45.28125 C 53.28125 45.28125 53.921875 45.359375 54.320312 45.601562 C 54.398438 45.601562 54.398438 45.601562 54.398438 45.601562 L 54.398438 40.238281 L 54.960938 40.238281 C 54.960938 40.238281 54.960938 44.558594 54.960938 46.800781 C 54.800781 47.601562 54.160156 48 53.359375 48.078125 C 52.320312 48.238281 51.359375 47.761719 51.121094 46.960938 C 50.878906 46 52.078125 45.28125 53.121094 45.28125 Z M 53.121094 45.28125 "/>
<path style=" stroke:none;fill-rule:nonzero;fill:rgb(0%,44.313726%,23.529412%);fill-opacity:1;" d="M 21.121094 26.960938 C 20.480469 30.71875 20.398438 34.800781 20.71875 38.558594 C 20.878906 40.640625 21.441406 43.359375 22.238281 45.679688 C 22.320312 45.839844 22.480469 45.839844 22.640625 45.679688 C 22.71875 45.519531 22.640625 45.359375 22.640625 45.199219 C 21.679688 39.761719 21.601562 34.078125 22 28.480469 C 22.160156 26.480469 22.320312 24.71875 22.800781 22.640625 C 22.800781 22.558594 22.71875 22.320312 22.558594 22.398438 C 22.480469 22.398438 22.480469 22.480469 22.398438 22.640625 C 22 23.28125 21.359375 25.359375 21.121094 26.960938 Z M 21.121094 26.960938 "/>
<path style=" stroke:none;fill-rule:nonzero;fill:rgb(89.019608%,2.352941%,7.450981%);fill-opacity:1;" d="M 6.164062 8.429688 L 8.425781 6.167969 L 61.828125 59.566406 L 59.566406 61.832031 Z M 6.164062 8.429688 "/>
</g>
</svg>
