<?xml version="1.0" encoding="UTF-8"?>
<svg xmlns="http://www.w3.org/2000/svg" xmlns:xlink="http://www.w3.org/1999/xlink" width="68pt" height="68pt" viewBox="0 0 68 68" version="1.1">
<g id="surface6913">
<rect x="0" y="0" width="68" height="68" style="fill:rgb(0%,44.313726%,23.529412%);fill-opacity:1;stroke:none;"/>
<path style="fill-rule:nonzero;fill:rgb(100%,86.666667%,0%);fill-opacity:1;stroke-width:1.2369;stroke-linecap:round;stroke-linejoin:bevel;stroke:rgb(100%,86.666667%,0%);stroke-opacity:1;stroke-miterlimit:4;" d="M 130.198869 148.700522 L 128.199116 153.799649 L 123.202166 158.198132 L 111.802115 158.198132 L 106.600811 147.299235 L 112.201092 143.898196 L 121.100236 141.801131 Z M 130.198869 148.700522 " transform="matrix(0.802834,0,0,0.802834,-78.19599,-72.174738)"/>
<path style="fill:none;stroke-width:1.9089;stroke-linecap:round;stroke-linejoin:bevel;stroke:rgb(0%,44.313726%,23.529412%);stroke-opacity:1;stroke-miterlimit:4;" d="M 105.301702 146.99757 L 122.997812 152.198873 L 118.798817 160.402239 " transform="matrix(0.802834,0,0,0.802834,-78.19599,-72.174738)"/>
<path style="fill:none;stroke-width:1.9089;stroke-linecap:round;stroke-linejoin:bevel;stroke:rgb(0%,44.313726%,23.529412%);stroke-opacity:1;stroke-miterlimit:4;" d="M 122.9005 152.198873 L 132.899265 147.299235 " transform="matrix(0.802834,0,0,0.802834,-78.19599,-72.174738)"/>
<path style="fill-rule:nonzero;fill:rgb(100%,86.666667%,0%);fill-opacity:1;stroke-width:0.3711;stroke-linecap:round;stroke-linejoin:bevel;stroke:rgb(100%,86.666667%,0%);stroke-opacity:1;stroke-miterlimit:4;" d="M 126.59834 166.099832 L 120.79857 165.102389 L 124.501276 160.801217 L 129.201425 161.000706 L 129.902068 164.299568 Z M 126.59834 166.099832 " transform="matrix(0.802834,0,0,0.802834,-78.19599,-72.174738)"/>
<path style="fill:none;stroke-width:1.9195;stroke-linecap:round;stroke-linejoin:bevel;stroke:rgb(0%,44.313726%,23.529412%);stroke-opacity:1;stroke-miterlimit:4;" d="M 27.398075 70.701727 L 29.101027 76.900474 " transform="matrix(0.802834,0,0,0.802834,0,0)"/>
<path style="fill-rule:nonzero;fill:rgb(100%,86.666667%,0%);fill-opacity:1;stroke-width:0.3711;stroke-linecap:round;stroke-linejoin:bevel;stroke:rgb(100%,86.666667%,0%);stroke-opacity:1;stroke-miterlimit:4;" d="M 138.499546 149.201677 L 144.897782 152.597851 L 144.498805 163.09777 L 137.798903 166.202009 L 134.101063 157.599666 Z M 138.499546 149.201677 " transform="matrix(0.802834,0,0,0.802834,-78.19599,-72.174738)"/>
<path style="fill:none;stroke-width:1.9089;stroke-linecap:round;stroke-linejoin:bevel;stroke:rgb(0%,44.313726%,23.529412%);stroke-opacity:1;stroke-miterlimit:4;" d="M 137.798903 148.797834 L 140.29981 154.89927 L 145.700603 152.301051 " transform="matrix(0.802834,0,0,0.802834,-78.19599,-72.174738)"/>
<path style="fill:none;stroke-width:1.9089;stroke-linecap:round;stroke-linejoin:bevel;stroke:rgb(0%,44.313726%,23.529412%);stroke-opacity:1;stroke-miterlimit:4;" d="M 42.899809 64.999268 L 40.102101 77.800606 " transform="matrix(0.802834,0,0,0.802834,0,0)"/>
<path style="fill:none;stroke-width:1.75;stroke-linecap:butt;stroke-linejoin:round;stroke:rgb(100%,86.666667%,0%);stroke-opacity:1;stroke-miterlimit:4;" d="M 53.900883 24.799855 C 53.900883 24.799855 52.699085 29.801671 50.801509 31.39758 C 50.898821 32.701556 51.599464 36.000418 49.998688 38.900303 C 49.701888 39.401458 48.198424 40.900056 47.497781 39.498769 C 47.200981 38.798126 45.498028 31.39758 45.498028 31.39758 " transform="matrix(0.802834,0,0,0.802834,0,0)"/>
<path style="fill-rule:nonzero;fill:rgb(0%,44.313726%,23.529412%);fill-opacity:1;stroke-width:1.75;stroke-linecap:butt;stroke-linejoin:round;stroke:rgb(100%,86.666667%,0%);stroke-opacity:1;stroke-miterlimit:4;" d="M 46.597649 26.001653 C 45.999183 32.200401 43.902118 33.100533 42.70032 34.50182 C 41.698011 41.299033 38.000171 42.899809 36.701061 42.797632 C 36.701061 42.797632 35.299775 42.598143 35.401952 41.600699 C 35.601441 39.401458 36.399396 35.100286 37.897994 30.200648 " transform="matrix(0.802834,0,0,0.802834,0,0)"/>
<path style="fill-rule:nonzero;fill:rgb(0%,44.313726%,23.529412%);fill-opacity:1;stroke-width:1.75;stroke-linecap:butt;stroke-linejoin:round;stroke:rgb(100%,86.666667%,0%);stroke-opacity:1;stroke-miterlimit:4;" d="M 79.201893 27.198586 C 79.201893 27.198586 78.399072 35.401952 69.801594 39.498769 C 60.800274 43.697764 58.897832 47.901624 57.7009 48.300601 C 55.997947 49.001245 55.097815 48.602267 54.402037 47.599958 C 52.699085 45.099051 54.402037 39.099792 62.902204 34.50182 C 66.799532 32.39989 64.697602 26.702297 58.698343 25.30101 C 55.798458 24.697678 54.698838 24.600367 49.901377 24.799855 C 46.198671 24.999344 40.59839 26.999097 38.700814 29.500005 C 32.297713 38.19966 27.398075 43.498275 21.598305 40.59839 C 21.598305 40.59839 31.601935 25.101521 33.402199 22.401125 C 35.401952 19.50124 51.90113 12.601849 54.698838 11.901206 C 57.900389 11.098385 68.901462 13.70147 78.501249 15.900712 Z M 79.201893 27.198586 " transform="matrix(0.802834,0,0,0.802834,0,0)"/>
<path style=" stroke:none;fill-rule:nonzero;fill:rgb(0%,44.313726%,23.529412%);fill-opacity:1;" d="M 62.21875 8.1875 L 67.117188 8.1875 L 67.117188 30.910156 L 62.21875 30.910156 Z M 62.21875 8.1875 "/>
<path style=" stroke:none;fill-rule:nonzero;fill:rgb(89.019608%,2.352941%,7.450981%);fill-opacity:1;" d="M 6.191406 8.417969 L 8.460938 6.148438 L 61.878906 59.566406 L 59.609375 61.835938 Z M 6.191406 8.417969 "/>
</g>
</svg>
