<?xml version="1.0" encoding="UTF-8"?>
<svg xmlns="http://www.w3.org/2000/svg" xmlns:xlink="http://www.w3.org/1999/xlink" width="68pt" height="68pt" viewBox="0 0 68 68" version="1.1">
<g id="surface6876">
<rect x="0" y="0" width="68" height="68" style="fill:rgb(0%,44.313726%,23.529412%);fill-opacity:1;stroke:none;"/>
<path style=" stroke:none;fill-rule:nonzero;fill:rgb(100%,86.666667%,0%);fill-opacity:1;" d="M 30.558594 9.921875 C 31.28125 9.039062 32.320312 8.480469 33.519531 8.398438 C 35.28125 8.320312 36.960938 9.28125 37.679688 10.800781 C 38.160156 11.839844 38.238281 12.960938 37.921875 14 C 37.519531 15.199219 36.480469 16.078125 35.28125 16.398438 C 35.359375 18.71875 35.519531 21.039062 35.601562 23.359375 C 38.71875 23.441406 41.839844 23.28125 44.398438 23.359375 C 46.078125 23.441406 46 25.601562 44.398438 25.679688 C 41.921875 25.679688 38.71875 25.679688 35.679688 25.679688 C 35.761719 28.71875 35.921875 31.839844 36.160156 34.878906 C 36.480469 40.800781 36.800781 46.640625 37.121094 52.558594 C 37.761719 53.679688 39.039062 53.519531 40.078125 53.28125 C 41.441406 52.878906 42.640625 52.160156 43.921875 51.359375 C 47.199219 49.199219 49.441406 46.320312 50.960938 42.878906 C 49.839844 42.878906 48.71875 42.878906 47.601562 42.878906 C 50.078125 40.320312 52.640625 37.761719 55.199219 35.199219 C 55.679688 42.160156 52.558594 49.121094 46.800781 53.519531 C 44.800781 55.039062 41.679688 56.558594 40.320312 56.878906 C 39.519531 57.039062 37.199219 57.441406 35.761719 57.921875 C 35.199219 58.078125 34.878906 58.398438 34.640625 58.960938 C 34.480469 59.199219 34.558594 59.359375 34.398438 59.761719 C 34.320312 60.078125 33.601562 60.160156 33.441406 59.761719 C 33.28125 59.359375 33.28125 59.199219 33.199219 58.960938 C 33.039062 58.558594 32.480469 58.078125 32 58 C 30.558594 57.601562 28.960938 57.28125 27.359375 56.878906 C 27.199219 56.800781 26.878906 56.71875 26.71875 56.640625 C 21.441406 54.800781 17.28125 51.039062 14.640625 45.839844 C 13.039062 42.558594 12.238281 38.878906 12.480469 35.28125 C 12.480469 35.28125 17.679688 40.480469 20.160156 42.960938 C 19.121094 42.960938 17.921875 42.960938 16.878906 42.960938 C 18.878906 47.601562 22.558594 51.359375 27.28125 53.199219 C 28.160156 53.519531 29.199219 53.519531 29.921875 53.28125 C 30.160156 53.199219 30.640625 52.71875 30.640625 52.320312 C 31.121094 43.441406 31.519531 34.71875 32 25.761719 C 32 25.761719 26.160156 25.761719 23.28125 25.761719 C 21.679688 25.761719 21.761719 23.441406 23.28125 23.441406 C 26.398438 23.441406 29.039062 23.519531 32.078125 23.441406 C 32.078125 23.441406 32.320312 18.71875 32.398438 16.398438 C 30.71875 16 29.761719 14.640625 29.679688 13.039062 C 29.519531 11.679688 29.839844 10.71875 30.558594 9.921875 Z M 30.558594 9.921875 "/>
<path style=" stroke:none;fill-rule:nonzero;fill:rgb(0%,44.313726%,23.529412%);fill-opacity:1;" d="M 33.839844 14.078125 C 34.558594 14.078125 35.199219 13.441406 35.199219 12.71875 C 35.199219 12 34.558594 11.359375 33.839844 11.359375 C 33.121094 11.359375 32.480469 12 32.480469 12.71875 C 32.480469 13.441406 33.039062 14.078125 33.839844 14.078125 Z M 33.839844 14.078125 "/>
<path style=" stroke:none;fill-rule:nonzero;fill:rgb(89.019608%,2.352941%,7.450981%);fill-opacity:1;" d="M 6.164062 8.429688 L 8.425781 6.167969 L 61.828125 59.566406 L 59.566406 61.832031 Z M 6.164062 8.429688 "/>
</g>
</svg>
