<?xml version="1.0" encoding="UTF-8"?>
<svg xmlns="http://www.w3.org/2000/svg" xmlns:xlink="http://www.w3.org/1999/xlink" width="68pt" height="68pt" viewBox="0 0 68 68" version="1.1">
<g id="surface6873">
<rect x="0" y="0" width="68" height="68" style="fill:rgb(0%,44.313726%,23.529412%);fill-opacity:1;stroke:none;"/>
<path style=" stroke:none;fill-rule:nonzero;fill:rgb(100%,86.666667%,0%);fill-opacity:1;" d="M 38.800781 15.761719 C 40.480469 15.761719 41.679688 15.761719 43.359375 15.839844 C 43.761719 15.839844 44.238281 15.921875 44.480469 16 C 45.199219 16.320312 45.601562 16.960938 45.761719 17.679688 C 45.761719 18 45.761719 18.398438 45.679688 18.71875 C 45.359375 19.519531 44.960938 19.519531 44.320312 20.160156 C 43.601562 20.960938 43.28125 22.558594 43.601562 23.519531 C 44.238281 25.441406 44.960938 27.519531 45.519531 29.359375 C 45.761719 29.359375 46 29.199219 46.160156 29.199219 C 46.160156 29.199219 46.078125 28.640625 46.078125 28.320312 C 46.078125 27.761719 47.039062 27.679688 47.199219 28.238281 C 47.28125 28.480469 47.28125 29.121094 47.28125 29.121094 C 47.679688 29.121094 47.921875 29.121094 48.320312 29.121094 C 48.320312 29.121094 48.398438 28.558594 48.398438 28.320312 C 48.480469 27.679688 49.601562 27.839844 49.519531 28.480469 C 49.519531 28.800781 49.359375 29.28125 49.359375 29.28125 C 49.679688 29.359375 50 29.441406 50.320312 29.601562 C 50.320312 29.601562 50.558594 28.960938 50.640625 28.800781 C 50.878906 28.320312 51.839844 28.640625 51.679688 29.28125 C 51.601562 29.441406 51.359375 30 51.359375 30 C 51.679688 30.160156 51.921875 30.320312 52.238281 30.480469 C 52.238281 30.480469 52.480469 30.078125 52.71875 29.839844 C 53.199219 29.359375 54 30 53.601562 30.558594 C 53.441406 30.800781 53.121094 31.121094 53.121094 31.121094 C 53.359375 31.359375 53.601562 31.519531 53.839844 31.839844 C 53.839844 31.839844 54.238281 31.441406 54.480469 31.359375 C 55.039062 31.039062 55.601562 31.921875 55.121094 32.320312 C 54.960938 32.480469 54.480469 32.800781 54.480469 32.800781 C 54.640625 33.039062 54.800781 33.359375 54.960938 33.679688 C 54.960938 33.679688 55.441406 33.441406 55.601562 33.359375 C 56.320312 33.121094 56.71875 34.078125 56.078125 34.480469 C 55.921875 34.558594 55.359375 34.71875 55.359375 34.71875 C 55.441406 35.121094 55.519531 35.359375 55.601562 35.679688 C 55.601562 35.679688 56.078125 35.601562 56.398438 35.601562 C 57.121094 35.519531 57.199219 36.640625 56.480469 36.71875 C 56.238281 36.71875 55.761719 36.800781 55.761719 36.800781 C 55.761719 37.199219 55.761719 37.601562 55.761719 37.921875 C 55.761719 37.921875 56.320312 37.921875 56.558594 38 C 57.28125 38.160156 57.121094 39.199219 56.398438 39.121094 C 56.160156 39.121094 55.679688 39.039062 55.679688 39.039062 C 55.601562 39.359375 55.519531 39.679688 55.441406 40 C 55.441406 40 56.160156 40.238281 56.320312 40.398438 C 56.878906 40.800781 56.320312 41.679688 55.761719 41.359375 C 55.519531 41.28125 55.039062 41.039062 55.039062 41.039062 C 54.878906 41.441406 54.71875 41.679688 54.480469 41.921875 C 54.480469 41.921875 55.039062 42.238281 55.199219 42.480469 C 55.679688 42.960938 55.039062 43.761719 54.480469 43.359375 C 54.320312 43.199219 53.839844 42.800781 53.839844 42.800781 C 53.601562 43.039062 53.359375 43.28125 53.039062 43.601562 C 53.039062 43.601562 53.441406 44 53.601562 44.238281 C 53.921875 44.800781 53.199219 45.441406 52.71875 44.960938 C 52.640625 44.878906 52.160156 44.238281 52.160156 44.238281 C 51.839844 44.398438 51.601562 44.558594 51.28125 44.71875 C 51.28125 44.71875 51.519531 45.28125 51.601562 45.519531 C 51.839844 46.078125 50.960938 46.558594 50.558594 46 C 50.480469 45.839844 50.238281 45.121094 50.238281 45.121094 C 49.921875 45.28125 49.601562 45.28125 49.28125 45.359375 C 49.28125 45.359375 49.359375 46 49.441406 46.238281 C 49.441406 46.878906 48.398438 47.039062 48.320312 46.320312 C 48.320312 46.078125 48.238281 45.519531 48.238281 45.519531 C 47.921875 45.519531 47.519531 45.519531 47.121094 45.519531 C 47.121094 45.519531 47.121094 46.160156 47.039062 46.320312 C 46.960938 46.960938 46 46.960938 45.921875 46.238281 C 45.921875 46.078125 46 45.28125 46 45.28125 C 45.601562 45.199219 45.359375 45.121094 45.039062 45.039062 C 45.039062 45.039062 44.800781 45.519531 44.71875 45.761719 C 44.480469 46.480469 43.441406 46 43.679688 45.359375 C 43.761719 45.121094 44 44.640625 44 44.640625 C 43.679688 44.480469 43.441406 44.320312 43.121094 44.078125 C 43.121094 44.078125 42.878906 44.480469 42.71875 44.640625 C 42.238281 45.359375 41.28125 44.640625 41.761719 43.921875 C 41.921875 43.761719 42.238281 43.359375 42.238281 43.359375 C 42 43.121094 41.761719 42.878906 41.519531 42.640625 C 41.519531 42.640625 41.121094 42.960938 40.960938 43.121094 C 40.398438 43.601562 39.601562 42.71875 40.238281 42.160156 C 40.398438 42 40.800781 41.761719 40.800781 41.761719 C 40.640625 41.441406 40.398438 41.199219 40.238281 40.800781 C 40.238281 40.800781 39.839844 40.960938 39.601562 41.121094 C 38.800781 41.519531 38.398438 40.320312 39.121094 40 C 39.441406 39.921875 39.839844 39.761719 39.839844 39.761719 C 39.761719 39.441406 39.679688 39.199219 39.601562 38.800781 C 39.601562 38.800781 39.039062 38.878906 38.71875 38.878906 C 38 38.878906 38 37.761719 38.640625 37.761719 C 38.960938 37.761719 39.441406 37.761719 39.441406 37.761719 C 39.441406 37.441406 39.441406 37.039062 39.441406 36.640625 C 39.441406 36.640625 39.039062 36.640625 38.71875 36.558594 C 37.921875 36.480469 38.078125 35.28125 38.878906 35.441406 C 39.039062 35.441406 39.601562 35.519531 39.601562 35.519531 C 39.679688 35.199219 39.761719 34.878906 39.839844 34.558594 C 39.839844 34.558594 39.28125 34.320312 39.039062 34.238281 C 38.480469 34 38.878906 32.960938 39.519531 33.199219 C 39.761719 33.28125 40.238281 33.519531 40.238281 33.519531 C 40.398438 33.199219 40.480469 32.960938 40.800781 32.640625 C 40.800781 32.640625 40.398438 32.398438 40.238281 32.238281 C 39.601562 31.761719 40.398438 30.878906 40.878906 31.28125 C 41.121094 31.441406 41.441406 31.761719 41.441406 31.761719 C 41.679688 31.519531 41.921875 31.28125 42.238281 30.960938 C 42.238281 30.960938 41.839844 30.480469 41.761719 30.320312 C 41.359375 29.761719 42.320312 29.121094 42.71875 29.601562 C 42.878906 29.839844 43.121094 30.238281 43.121094 30.238281 C 43.28125 30.078125 43.441406 30.078125 43.679688 29.921875 C 43.359375 28.960938 43.199219 28.398438 42.800781 27.28125 C 40.398438 30 38.078125 32.71875 35.761719 35.441406 C 36.160156 36.238281 36.398438 37.121094 36.078125 38 C 35.921875 38.558594 35.601562 39.121094 34.960938 39.519531 C 34.480469 39.921875 33.679688 40.078125 33.679688 40.078125 C 33.601562 41.359375 33.601562 44.238281 33.601562 44.238281 C 34 44.238281 34.160156 44.238281 34.320312 44.238281 C 34.800781 44.238281 34.878906 45.199219 34.320312 45.199219 C 33.839844 45.199219 32.558594 45.199219 32 45.199219 C 31.441406 45.199219 31.441406 44.238281 32 44.238281 C 32.238281 44.238281 32.480469 44.238281 32.800781 44.238281 C 32.800781 44.238281 32.800781 41.441406 32.800781 40.078125 C 31.839844 39.921875 31.359375 39.679688 30.878906 39.039062 C 30.558594 38.640625 30.398438 38.320312 30.238281 37.839844 C 29.519531 37.839844 28 37.839844 28 37.839844 C 27.921875 38.320312 27.839844 38.640625 27.839844 38.960938 C 27.839844 38.960938 28.398438 39.121094 28.640625 39.121094 C 29.28125 39.359375 28.960938 40.398438 28.320312 40.238281 C 28.078125 40.160156 27.601562 40 27.601562 40 C 27.519531 40.320312 27.28125 40.558594 27.199219 40.878906 C 27.199219 40.878906 27.679688 41.199219 27.839844 41.28125 C 28.480469 41.761719 27.839844 42.640625 27.28125 42.238281 C 27.121094 42.160156 26.640625 41.761719 26.640625 41.761719 C 26.398438 42.078125 26.238281 42.320312 25.921875 42.558594 C 25.921875 42.558594 26.320312 42.878906 26.480469 43.121094 C 27.039062 43.679688 26.160156 44.480469 25.679688 44 C 25.441406 43.761719 25.121094 43.359375 25.121094 43.359375 C 24.800781 43.601562 24.640625 43.761719 24.238281 44 C 24.238281 44 24.480469 44.398438 24.640625 44.640625 C 25.039062 45.441406 24 45.921875 23.679688 45.199219 C 23.601562 45.039062 23.359375 44.480469 23.359375 44.480469 C 23.039062 44.640625 22.800781 44.71875 22.398438 44.800781 C 22.398438 44.800781 22.558594 45.441406 22.558594 45.601562 C 22.71875 46.238281 21.601562 46.558594 21.441406 45.839844 C 21.359375 45.601562 21.28125 45.039062 21.28125 45.039062 C 20.878906 45.039062 20.640625 45.121094 20.238281 45.121094 C 20.238281 45.121094 20.238281 45.679688 20.238281 46 C 20.238281 46.640625 19.039062 46.640625 19.121094 45.921875 C 19.121094 45.679688 19.199219 45.121094 19.199219 45.121094 C 18.71875 45.039062 18.558594 45.039062 18.160156 44.960938 C 18.160156 44.960938 18 45.441406 18 45.761719 C 17.839844 46.398438 16.640625 46.238281 16.960938 45.28125 C 17.039062 45.039062 17.199219 44.640625 17.199219 44.640625 C 16.878906 44.480469 16.558594 44.398438 16.238281 44.238281 C 16.238281 44.238281 16 44.800781 15.839844 44.960938 C 15.441406 45.519531 14.398438 44.960938 14.878906 44.238281 C 15.039062 44 15.28125 43.679688 15.28125 43.679688 C 14.960938 43.441406 14.71875 43.28125 14.480469 43.039062 C 14.480469 43.039062 14.078125 43.441406 13.921875 43.601562 C 13.519531 44.078125 12.398438 43.359375 13.28125 42.640625 C 13.441406 42.480469 13.761719 42.238281 13.761719 42.238281 C 13.519531 41.921875 13.359375 41.679688 13.199219 41.441406 C 13.199219 41.441406 12.800781 41.679688 12.558594 41.839844 C 11.921875 42.160156 11.359375 41.199219 12 40.800781 C 12.238281 40.640625 12.71875 40.480469 12.71875 40.480469 C 12.558594 40.078125 12.480469 39.839844 12.320312 39.441406 C 12.320312 39.441406 11.839844 39.601562 11.519531 39.679688 C 10.800781 39.839844 10.558594 38.71875 11.28125 38.558594 C 11.519531 38.480469 12.078125 38.398438 12.078125 38.398438 C 12.078125 38 12 37.839844 12 37.359375 C 12 37.359375 11.441406 37.359375 11.121094 37.359375 C 10.398438 37.28125 10.398438 36.160156 11.199219 36.238281 C 11.519531 36.238281 12 36.320312 12 36.320312 C 12.078125 35.921875 12.078125 35.601562 12.160156 35.28125 C 12.160156 35.28125 11.601562 35.121094 11.441406 35.039062 C 10.800781 34.800781 11.039062 33.679688 11.839844 33.921875 C 12.078125 34 12.558594 34.160156 12.558594 34.160156 C 12.71875 33.839844 12.800781 33.679688 12.960938 33.199219 C 12.960938 33.199219 12.480469 32.960938 12.238281 32.800781 C 11.601562 32.398438 12.320312 31.441406 12.878906 31.839844 C 13.121094 32 13.441406 32.238281 13.441406 32.238281 C 13.679688 31.921875 13.839844 31.761719 14.160156 31.359375 C 14.160156 31.359375 13.761719 31.039062 13.601562 30.800781 C 13.121094 30.320312 13.921875 29.519531 14.480469 30 C 14.640625 30.160156 14.960938 30.558594 14.960938 30.558594 C 15.28125 30.320312 15.441406 30.238281 15.839844 29.921875 C 15.839844 29.921875 15.601562 29.519531 15.519531 29.28125 C 15.121094 28.480469 16.160156 28.078125 16.480469 28.71875 C 16.640625 28.960938 16.800781 29.359375 16.800781 29.359375 C 17.121094 29.199219 17.359375 29.121094 17.761719 29.039062 C 17.761719 29.039062 17.679688 28.71875 17.601562 28.320312 C 17.441406 27.601562 18.558594 27.359375 18.71875 28.078125 C 18.71875 28.238281 18.800781 28.800781 18.800781 28.800781 C 19.28125 28.71875 19.359375 28.71875 19.839844 28.71875 C 19.839844 28.71875 19.839844 28.238281 19.839844 27.921875 C 19.839844 27.199219 20.960938 27.199219 20.960938 28 C 20.960938 28.238281 20.878906 28.71875 20.878906 28.71875 C 21.121094 28.71875 21.359375 28.800781 21.601562 28.800781 C 22.238281 26.71875 22.878906 24.878906 23.601562 22.71875 C 22.800781 21.601562 22.160156 20.480469 21.441406 19.359375 C 20.640625 19.441406 19.921875 19.519531 19.121094 19.441406 C 18.558594 19.359375 18.078125 18.960938 18 18.398438 C 17.921875 18.078125 18 17.761719 18.238281 17.441406 C 18.398438 17.28125 18.558594 17.199219 18.71875 17.039062 C 18.960938 16.878906 19.121094 16.960938 19.28125 16.960938 C 21.441406 16.960938 23.601562 17.039062 25.839844 17.039062 C 26 17.039062 26.238281 17.199219 26.320312 17.441406 C 26.398438 17.761719 26.238281 18 26 18.078125 C 25.039062 18.480469 24.160156 18.800781 23.199219 19.039062 C 24 20.238281 24.878906 21.519531 25.601562 22.71875 C 31.039062 22.71875 36.558594 22.71875 42 22.71875 C 42 22.71875 42 22.238281 42 21.839844 C 42 21.601562 42.078125 21.359375 42.078125 21.121094 C 42.078125 20.878906 42.160156 20.640625 42.238281 20.398438 C 42.558594 19.359375 43.121094 18.558594 43.921875 17.761719 C 44.078125 17.601562 44 17.441406 43.921875 17.28125 C 43.839844 17.039062 43.441406 16.960938 43.359375 16.960938 C 41.839844 16.960938 40.558594 16.960938 39.039062 16.878906 C 38.71875 16.878906 38.320312 16.480469 38.398438 16.078125 C 38.160156 16.160156 38.398438 15.761719 38.800781 15.761719 Z M 38.800781 15.761719 "/>
<path style=" stroke:none;fill-rule:nonzero;fill:rgb(0%,44.313726%,23.529412%);fill-opacity:1;" d="M 23.199219 29.601562 C 23.519531 29.761719 23.679688 29.839844 23.921875 29.921875 C 23.921875 29.921875 24.160156 29.519531 24.320312 29.28125 C 24.640625 28.71875 25.679688 29.28125 25.28125 30 C 25.121094 30.238281 24.878906 30.558594 24.878906 30.558594 C 25.28125 30.800781 25.28125 30.878906 25.601562 31.199219 C 25.601562 31.199219 25.921875 30.878906 26.160156 30.71875 C 26.71875 30.160156 27.519531 31.121094 26.960938 31.601562 C 26.800781 31.761719 26.398438 32.078125 26.398438 32.078125 C 26.640625 32.398438 26.800781 32.558594 26.960938 32.878906 C 26.960938 32.878906 27.359375 32.640625 27.601562 32.558594 C 28.238281 32.238281 28.800781 33.28125 28.160156 33.601562 C 27.921875 33.761719 27.519531 33.921875 27.519531 33.921875 C 27.679688 34.320312 27.761719 34.480469 27.921875 34.878906 C 27.921875 34.878906 28.480469 34.71875 28.640625 34.71875 C 29.441406 34.640625 29.519531 35.679688 28.878906 35.839844 C 28.640625 35.921875 28.160156 36 28.160156 36 C 28.160156 36.160156 28.238281 36.398438 28.238281 36.398438 C 29.039062 36.398438 29.679688 36.398438 30.558594 36.398438 C 30.71875 35.921875 31.039062 35.441406 31.359375 35.121094 C 29.199219 31.761719 27.039062 28.398438 24.800781 25.039062 C 24.160156 26.640625 23.199219 29.601562 23.199219 29.601562 Z M 23.199219 29.601562 "/>
<path style=" stroke:none;fill-rule:nonzero;fill:rgb(0%,44.313726%,23.529412%);fill-opacity:1;" d="M 26.558594 24.878906 C 28.71875 28.078125 30.480469 31.039062 32.640625 34.160156 L 33.039062 34.078125 C 33.039062 32.558594 33.039062 31.28125 33.039062 29.839844 C 32.71875 29.839844 32.640625 29.839844 32.398438 29.839844 C 31.761719 29.839844 31.761719 28.878906 32.398438 28.878906 C 33.28125 28.878906 34.078125 28.878906 34.640625 28.878906 C 35.28125 28.878906 35.199219 29.839844 34.640625 29.839844 C 34.398438 29.839844 34.238281 29.839844 33.921875 29.839844 C 33.921875 31.359375 33.921875 33.28125 33.921875 34.160156 C 34.160156 34.238281 34.320312 34.238281 34.640625 34.398438 C 37.199219 31.359375 39.761719 28.480469 42.398438 25.441406 C 42.238281 25.199219 42.160156 24.960938 42.160156 24.960938 C 37.039062 24.800781 32.398438 24.878906 26.558594 24.878906 Z M 26.558594 24.878906 "/>
<path style=" stroke:none;fill-rule:nonzero;fill:rgb(0%,44.313726%,23.529412%);fill-opacity:1;" d="M 26.398438 36.238281 C 26.160156 34.078125 24.640625 32.160156 22.640625 31.199219 C 22.078125 32.878906 21.601562 34.558594 20.960938 36.238281 C 21.039062 36.238281 24.640625 36.238281 26.398438 36.238281 Z M 26.398438 36.238281 "/>
<path style=" stroke:none;fill-rule:nonzero;fill:rgb(0%,44.313726%,23.529412%);fill-opacity:1;" d="M 13.441406 37.28125 C 13.441406 40.238281 15.441406 42.878906 18.480469 43.519531 C 20.320312 43.921875 22.160156 43.601562 23.761719 42.398438 C 24.558594 41.839844 25.199219 41.121094 25.679688 40.320312 C 26.160156 39.441406 26.320312 38.800781 26.480469 37.921875 L 26.398438 37.921875 C 24.078125 37.921875 23.601562 37.921875 20.078125 37.921875 C 19.199219 37.921875 18.800781 37.28125 19.039062 36.640625 C 19.601562 34.878906 20.320312 32.800781 20.960938 30.71875 C 20 30.480469 19.121094 30.640625 18.160156 30.878906 C 17.359375 31.121094 16.800781 31.441406 16.078125 31.921875 C 14.398438 33.199219 13.441406 35.199219 13.441406 37.28125 Z M 13.441406 37.28125 "/>
<path style=" stroke:none;fill-rule:nonzero;fill:rgb(0%,44.313726%,23.529412%);fill-opacity:1;" d="M 41.359375 37.839844 C 41.601562 40.160156 43.039062 42.160156 45.199219 43.121094 C 46.640625 43.761719 48.238281 43.839844 49.761719 43.359375 C 52.078125 42.640625 53.761719 40.800781 54.160156 38.320312 C 54.160156 38 54.238281 37.761719 54.238281 37.519531 C 54.320312 36.558594 54.078125 35.601562 53.761719 34.71875 C 53.199219 33.359375 52.160156 32.160156 50.878906 31.441406 C 49.359375 30.558594 47.519531 30.398438 45.921875 30.878906 C 46.480469 32.480469 46.878906 33.761719 47.441406 35.441406 C 47.519531 35.761719 48 36.160156 48.160156 36.480469 C 48.480469 36.960938 48.640625 37.359375 48.160156 37.679688 C 47.761719 38 47.199219 38.078125 46.878906 37.679688 C 46.480469 37.199219 45.921875 36.71875 45.761719 36.238281 C 45.28125 34.71875 44.800781 33.121094 44.238281 31.601562 C 42.320312 32.878906 41.039062 35.359375 41.359375 37.839844 Z M 41.359375 37.839844 "/>
<path style=" stroke:none;fill-rule:nonzero;fill:rgb(89.019608%,2.352941%,7.450981%);fill-opacity:1;" d="M 6.164062 8.429688 L 8.425781 6.167969 L 61.828125 59.566406 L 59.566406 61.832031 Z M 6.164062 8.429688 "/>
</g>
</svg>
