<?xml version="1.0" encoding="UTF-8"?>
<svg xmlns="http://www.w3.org/2000/svg" xmlns:xlink="http://www.w3.org/1999/xlink" width="68pt" height="68pt" viewBox="0 0 68 68" version="1.1">
<g id="surface6970">
<rect x="0" y="0" width="68" height="68" style="fill:rgb(8.627451%,47.450981%,27.843139%);fill-opacity:1;stroke:none;"/>
<path style=" stroke:none;fill-rule:nonzero;fill:rgb(98.431373%,78.039217%,2.745098%);fill-opacity:1;" d="M 11.777344 50.160156 C 12.480469 50.144531 13.199219 50.136719 13.898438 50.128906 C 16.21875 45.667969 18.496094 41.253906 20.898438 36.707031 C 24.773438 29.371094 28.414062 22.421875 32.210938 15.113281 C 31.671875 14.136719 31.25 13.199219 30.679688 12.183594 C 29.804688 10.617188 31.980469 9.375 32.878906 10.695312 C 33.117188 11.042969 33.3125 11.398438 33.746094 12.203125 C 34.210938 11.375 34.367188 11.097656 34.546875 10.78125 C 35.324219 9.390625 37.617188 10.539062 36.855469 12.117188 C 36.226562 13.414062 35.324219 15.113281 35.324219 15.113281 C 37.039062 18.34375 47.496094 38.257812 53.679688 49.824219 C 54.519531 49.820312 55.410156 49.800781 55.804688 49.800781 C 57.828125 49.800781 57.832031 52.988281 55.691406 53.027344 C 52.515625 53.085938 13.632812 53.429688 11.816406 53.441406 C 9.695312 53.40625 9.683594 50.207031 11.777344 50.160156 "/>
<path style=" stroke:none;fill-rule:nonzero;fill:rgb(8.627451%,47.450981%,27.843139%);fill-opacity:1;" d="M 33.785156 36.332031 L 27.484375 50.046875 L 40.109375 49.921875 Z M 33.785156 36.332031 "/>
<path style=" stroke:none;fill-rule:nonzero;fill:rgb(98.431373%,78.039217%,2.745098%);fill-opacity:1;" d="M 19.265625 25.011719 C 18.28125 23.464844 20.152344 22.511719 20.972656 23.453125 C 21.125 23.625 21.566406 24.363281 22.070312 24.960938 C 22.945312 25.996094 23.054688 26.078125 23.636719 26.609375 C 24.082031 27.015625 24.90625 27.609375 25.503906 28.058594 L 24.527344 29.917969 C 24.527344 29.917969 24.238281 29.75 23.761719 29.417969 C 23.464844 29.210938 22.570312 28.53125 21.980469 27.96875 C 21.328125 27.351562 20.929688 26.910156 20.398438 26.285156 C 19.980469 25.796875 19.417969 25.257812 19.265625 25.011719 "/>
<path style=" stroke:none;fill-rule:nonzero;fill:rgb(98.431373%,78.039217%,2.745098%);fill-opacity:1;" d="M 42.074219 28.128906 C 42.074219 28.128906 42.535156 27.785156 43.078125 27.378906 C 43.480469 27.074219 43.859375 26.714844 44.273438 26.328125 C 44.742188 25.898438 45.164062 25.375 45.164062 25.375 C 45.164062 25.375 43.714844 25.390625 43.46875 25.375 C 42.015625 25.277344 42.097656 23.152344 43.496094 23.097656 C 43.925781 23.082031 48.210938 23.152344 48.449219 23.152344 C 48.742188 23.152344 48.851562 23.238281 48.851562 23.507812 C 48.851562 23.921875 48.855469 27.824219 48.84375 28.65625 C 48.828125 30.03125 46.683594 30.089844 46.625 28.703125 C 46.613281 28.433594 46.667969 26.953125 46.667969 26.953125 C 46.667969 26.953125 46.441406 27.191406 46.136719 27.492188 C 45.6875 27.929688 45.324219 28.269531 45.046875 28.507812 C 44.191406 29.234375 43.929688 29.371094 43.566406 29.625 C 43.210938 29.867188 43.007812 29.953125 43.007812 29.953125 L 42.078125 28.128906 "/>
<path style=" stroke:none;fill-rule:nonzero;fill:rgb(8.627451%,47.450981%,27.843139%);fill-opacity:1;" d="M 25.492188 28.109375 C 25.894531 28.375 27.058594 29.109375 28.238281 29.550781 C 29.660156 30.085938 31.023438 30.472656 32.359375 30.5625 C 33.691406 30.652344 34.65625 30.742188 36.132812 30.460938 C 39.921875 29.738281 42.140625 28.117188 42.140625 28.117188 L 43.007812 29.953125 C 43.007812 29.953125 41.714844 30.707031 40.21875 31.328125 C 39.246094 31.730469 38.078125 32.089844 37.265625 32.21875 C 36.109375 32.394531 34.261719 32.65625 32.523438 32.496094 C 30.714844 32.328125 29.101562 31.949219 27.570312 31.351562 C 26.039062 30.75 24.574219 29.839844 24.574219 29.839844 L 25.492188 28.109375 "/>
<path style=" stroke:none;fill-rule:nonzero;fill:rgb(98.431373%,78.039217%,2.745098%);fill-opacity:1;" d="M 10.285156 12.492188 C 9.957031 12.675781 9.816406 12.742188 9.664062 12.824219 C 9.089844 13.136719 8.613281 12.273438 9.152344 11.941406 C 9.511719 11.722656 10.21875 11.390625 10.460938 11.320312 C 10.972656 11.175781 11.332031 11.449219 11.339844 11.914062 C 11.351562 12.898438 11.375 16.257812 11.351562 18.539062 C 11.34375 19.082031 10.300781 19.132812 10.28125 18.542969 C 10.273438 18.347656 10.285156 12.492188 10.285156 12.492188 "/>
<path style=" stroke:none;fill-rule:nonzero;fill:rgb(98.431373%,78.039217%,2.745098%);fill-opacity:1;" d="M 14.421875 17.855469 C 15.082031 18.050781 15.675781 18.105469 16.277344 17.839844 C 17.011719 17.515625 17.449219 16.742188 17.566406 15.808594 C 17.585938 15.628906 17.488281 15.710938 17.488281 15.710938 C 16.6875 16.625 15.078125 16.492188 14.25 15.679688 C 13.492188 14.9375 13.417969 13.742188 13.785156 12.726562 C 14.261719 11.394531 15.75 10.890625 16.980469 11.328125 C 17.59375 11.542969 18.03125 11.894531 18.265625 12.425781 C 18.832031 13.757812 18.792969 15.335938 18.410156 16.664062 C 18.140625 17.597656 17.460938 18.457031 16.542969 18.757812 C 15.765625 19.011719 14.824219 19.050781 14.128906 18.746094 C 13.59375 18.511719 13.832031 17.6875 14.421875 17.859375 "/>
<path style=" stroke:none;fill-rule:nonzero;fill:rgb(8.627451%,47.450981%,27.843139%);fill-opacity:1;" d="M 14.675781 13.59375 C 14.613281 14.15625 14.757812 14.761719 15.171875 15.109375 C 15.542969 15.417969 16.175781 15.507812 16.710938 15.273438 C 17.175781 15.039062 17.453125 14.582031 17.519531 14.082031 C 17.585938 13.449219 17.496094 12.824219 16.964844 12.390625 C 16.566406 12.09375 16.035156 12.058594 15.566406 12.214844 C 15.027344 12.390625 14.742188 12.992188 14.675781 13.59375 "/>
<path style=" stroke:none;fill-rule:nonzero;fill:rgb(98.431373%,78.039217%,2.745098%);fill-opacity:1;" d="M 21.117188 10.992188 C 21.117188 10.265625 22.152344 10.273438 22.164062 10.992188 C 22.171875 11.519531 22.15625 12.695312 22.15625 13.167969 C 22.15625 13.335938 22.375 13.320312 22.375 13.320312 C 23.144531 12.964844 24.558594 12.816406 25.316406 13.765625 C 25.539062 14.042969 25.660156 14.488281 25.660156 14.847656 C 25.660156 15.644531 25.664062 17.699219 25.660156 18.445312 C 25.65625 19.09375 24.605469 19.09375 24.601562 18.449219 C 24.59375 17.785156 24.613281 15.867188 24.59375 15.285156 C 24.632812 14.34375 24.039062 13.976562 23.242188 14.027344 C 22.332031 14.085938 22.167969 14.257812 22.160156 14.703125 C 22.160156 14.824219 22.179688 17.773438 22.167969 18.457031 C 22.15625 19.09375 21.132812 19.105469 21.128906 18.460938 C 21.125 17.75 21.117188 11.902344 21.117188 10.992188 "/>
<path style=" stroke:none;fill-rule:nonzero;fill:rgb(98.431373%,78.039217%,2.745098%);fill-opacity:1;" d="M 45.300781 17.738281 C 45.960938 17.933594 46.558594 17.992188 47.15625 17.722656 C 47.894531 17.398438 48.328125 16.625 48.445312 15.691406 C 48.46875 15.515625 48.367188 15.589844 48.367188 15.589844 C 47.566406 16.507812 45.957031 16.375 45.128906 15.5625 C 44.375 14.820312 44.300781 13.625 44.664062 12.609375 C 45.140625 11.277344 46.632812 10.773438 47.863281 11.210938 C 48.472656 11.425781 48.914062 11.777344 49.144531 12.308594 C 49.710938 13.640625 49.671875 15.21875 49.289062 16.546875 C 49.019531 17.480469 48.34375 18.335938 47.425781 18.640625 C 46.648438 18.894531 45.703125 18.933594 45.007812 18.628906 C 44.476562 18.394531 44.714844 17.566406 45.300781 17.738281 "/>
<path style=" stroke:none;fill-rule:nonzero;fill:rgb(8.627451%,47.450981%,27.843139%);fill-opacity:1;" d="M 45.558594 13.476562 C 45.496094 14.039062 45.636719 14.644531 46.050781 14.992188 C 46.425781 15.300781 47.058594 15.390625 47.589844 15.15625 C 48.058594 14.925781 48.335938 14.464844 48.402344 13.964844 C 48.46875 13.332031 48.378906 12.710938 47.847656 12.277344 C 47.445312 11.976562 46.917969 11.945312 46.445312 12.097656 C 45.910156 12.277344 45.625 12.875 45.558594 13.476562 "/>
<path style=" stroke:none;fill-rule:nonzero;fill:rgb(98.431373%,78.039217%,2.745098%);fill-opacity:1;" d="M 52 10.878906 C 52 10.148438 53.03125 10.15625 53.042969 10.878906 C 53.054688 11.402344 53.039062 12.578125 53.039062 13.054688 C 53.039062 13.21875 53.257812 13.203125 53.257812 13.203125 C 54.027344 12.847656 55.441406 12.699219 56.199219 13.648438 C 56.421875 13.925781 56.542969 14.371094 56.542969 14.730469 C 56.542969 15.53125 56.546875 17.585938 56.542969 18.328125 C 56.539062 18.976562 55.488281 18.976562 55.484375 18.332031 C 55.476562 17.667969 55.492188 15.75 55.476562 15.167969 C 55.519531 14.226562 54.921875 13.859375 54.125 13.910156 C 53.214844 13.96875 53.050781 14.140625 53.046875 14.585938 C 53.042969 14.707031 53.0625 17.65625 53.050781 18.339844 C 53.039062 18.976562 52.015625 18.988281 52.011719 18.34375 C 52.007812 17.632812 52 11.785156 52 10.875 "/>
</g>
</svg>
