<?xml version="1.0" encoding="UTF-8"?>
<svg xmlns="http://www.w3.org/2000/svg" xmlns:xlink="http://www.w3.org/1999/xlink" width="68pt" height="68pt" viewBox="0 0 68 68" version="1.1">
<g id="surface6836">
<rect x="0" y="0" width="68" height="68" style="fill:rgb(0%,44.313726%,23.529412%);fill-opacity:1;stroke:none;"/>
<path style=" stroke:none;fill-rule:nonzero;fill:rgb(100%,86.666667%,0%);fill-opacity:1;" d="M 22.398438 10.078125 C 23.121094 9.199219 24 8.480469 25.039062 8 C 25.921875 7.601562 26.558594 7.359375 27.839844 7.039062 C 30.160156 6.480469 32.398438 6.320312 34.800781 6.320312 C 37.839844 6.320312 40.878906 6.640625 43.679688 8 C 45.359375 8.800781 46.71875 10.398438 47.519531 12.160156 C 48.078125 13.441406 48 15.519531 47.519531 16.640625 C 47.121094 17.679688 47.121094 18.878906 47.199219 19.519531 C 47.359375 21.121094 47.921875 22.878906 48.238281 24.71875 C 48.71875 27.121094 48 30.640625 46.238281 33.121094 C 45.921875 33.519531 45.839844 34.640625 45.921875 35.121094 C 46.238281 36.160156 46.71875 38.640625 46.71875 40.480469 C 46.640625 42.320312 45.921875 43.921875 44.960938 45.601562 C 44.398438 46.558594 44.320312 47.921875 44.480469 48.800781 C 44.640625 49.601562 44.960938 50.320312 45.039062 51.121094 C 45.121094 52.238281 45.199219 53.28125 45.039062 54.480469 C 44.71875 56.480469 44.078125 58.480469 42.640625 59.839844 C 42.078125 60.398438 41.121094 60.878906 40.640625 61.039062 C 36.878906 62.078125 33.199219 62.078125 29.28125 61.359375 C 28.238281 61.121094 27.199219 60.558594 26.398438 59.839844 C 25.761719 59.28125 25.28125 58.558594 24.960938 57.761719 C 24.320312 56.480469 24.160156 55.039062 24.078125 53.601562 C 24.078125 52.960938 24.160156 52.238281 24.160156 51.601562 C 24.160156 51.121094 24.640625 49.921875 24.640625 49.039062 C 24.640625 48.238281 24.558594 47.441406 24.320312 46.640625 C 24 45.761719 23.359375 45.039062 22.960938 44.160156 C 22.640625 43.441406 22.398438 42.71875 22.238281 42 C 22.160156 41.519531 22.078125 41.121094 22.078125 40.640625 C 21.921875 38.640625 22.320312 36.71875 23.039062 34.878906 C 23.519531 32.558594 23.039062 30.398438 21.761719 28.238281 C 20.960938 26.878906 20.960938 23.679688 21.679688 21.679688 C 21.761719 21.519531 21.839844 20.878906 21.761719 20.640625 C 21.601562 20 21.359375 19.441406 21.121094 18.878906 C 20.960938 18.238281 20.800781 17.601562 20.640625 16.878906 C 20.398438 15.28125 20.480469 13.761719 20.960938 12.320312 C 21.359375 11.441406 21.761719 10.71875 22.398438 10.078125 Z M 22.398438 10.078125 "/>
<path style=" stroke:none;fill-rule:nonzero;fill:rgb(0%,44.313726%,23.529412%);fill-opacity:1;" d="M 34.480469 35.441406 C 34.078125 35.441406 33.921875 35.601562 33.921875 35.921875 C 33.839844 37.519531 33.921875 45.28125 33.921875 46.480469 C 33.921875 47.359375 35.039062 47.199219 35.039062 46.558594 C 35.039062 46.398438 35.039062 40 35.039062 36.800781 C 35.359375 37.121094 35.359375 37.761719 35.601562 38.160156 C 36.160156 38.160156 36.558594 37.839844 36.960938 37.601562 C 38.160156 36.800781 39.121094 35.839844 39.921875 34.800781 C 41.199219 34.800781 42.238281 34.800781 43.519531 34.800781 C 44.160156 34.800781 44.160156 33.761719 43.519531 33.679688 C 42.640625 33.679688 41.761719 33.679688 40.800781 33.679688 C 41.039062 33.28125 41.441406 32.800781 41.761719 32.398438 C 42.078125 32.078125 42.480469 31.921875 42.878906 31.839844 C 43.679688 31.761719 44.078125 32 44.640625 32.320312 C 44.878906 32.480469 45.28125 32.238281 45.519531 32 C 46.160156 31.039062 46.558594 30.078125 46.878906 28.878906 C 47.28125 27.28125 47.359375 25.601562 46.960938 24 C 46.640625 22.71875 46.238281 21.601562 46.078125 20.320312 C 45.921875 19.28125 45.921875 18.238281 46.160156 17.28125 C 46.320312 16.480469 46.640625 15.601562 46.71875 14.878906 C 46.71875 14.558594 46.800781 14.320312 46.71875 14 C 46.71875 13.679688 46.640625 13.441406 46.480469 13.121094 C 46.398438 12.71875 46.238281 12.320312 46.078125 11.921875 C 45.28125 10.480469 44.160156 9.359375 42.640625 8.800781 C 40.238281 7.921875 37.761719 7.679688 35.28125 7.519531 C 33.519531 7.519531 31.839844 7.519531 30.078125 7.839844 C 28.71875 8 27.519531 8.398438 26.238281 8.878906 C 24.800781 9.441406 23.679688 10.480469 22.878906 11.839844 C 22.398438 12.71875 22.078125 13.519531 22 14.558594 C 21.921875 15.679688 22.078125 16.71875 22.320312 17.839844 C 22.960938 20.640625 24.320312 22.800781 26.320312 24.558594 C 28.320312 26.320312 30.078125 27.839844 31.601562 30.078125 C 32.320312 31.121094 32.800781 32 33.359375 33.039062 C 33.679688 33.839844 34.078125 34.558594 34.480469 35.441406 Z M 34.480469 35.441406 "/>
<path style=" stroke:none;fill-rule:nonzero;fill:rgb(0%,44.313726%,23.529412%);fill-opacity:1;" d="M 25.199219 33.839844 C 24.558594 33.839844 24.480469 34.878906 25.28125 34.878906 C 27.601562 34.878906 29.839844 34.878906 32.078125 34.800781 C 32.71875 34.800781 32.800781 33.761719 32.078125 33.761719 C 29.601562 33.761719 27.519531 33.761719 25.199219 33.839844 Z M 25.199219 33.839844 "/>
<path style=" stroke:none;fill-rule:nonzero;fill:rgb(0%,44.313726%,23.529412%);fill-opacity:1;" d="M 26.71875 47.601562 C 26 47.601562 26 48.640625 26.71875 48.640625 C 29.121094 48.640625 30.160156 48.640625 32.398438 48.640625 C 33.039062 48.640625 33.28125 47.601562 32.398438 47.601562 C 29.921875 47.519531 29.039062 47.601562 26.71875 47.601562 Z M 26.71875 47.601562 "/>
<path style=" stroke:none;fill-rule:nonzero;fill:rgb(0%,44.313726%,23.529412%);fill-opacity:1;" d="M 36.480469 47.519531 C 35.761719 47.519531 35.761719 48.558594 36.480469 48.558594 C 38.878906 48.558594 39.921875 48.558594 42.160156 48.558594 C 42.878906 48.558594 42.800781 47.519531 42.160156 47.519531 C 39.679688 47.519531 38.800781 47.519531 36.480469 47.519531 Z M 36.480469 47.519531 "/>
<path style=" stroke:none;fill-rule:nonzero;fill:rgb(0%,44.313726%,23.529412%);fill-opacity:1;" d="M 33.921875 59.601562 C 33.921875 60.238281 35.039062 60.238281 35.039062 59.679688 C 35.121094 57.28125 35.039062 52.398438 34.960938 50.160156 C 34.960938 49.441406 33.921875 49.441406 33.921875 50.160156 C 33.921875 52.640625 33.921875 57.28125 33.921875 59.601562 Z M 33.921875 59.601562 "/>
<path style=" stroke:none;fill-rule:nonzero;fill:rgb(100%,86.666667%,0%);fill-opacity:1;" d="M 34.238281 17.601562 C 36.480469 17.601562 38.238281 15.839844 38.238281 13.601562 C 38.238281 11.359375 36.480469 9.601562 34.238281 9.601562 C 32 9.601562 30.238281 11.359375 30.238281 13.601562 C 30.238281 15.761719 32 17.601562 34.238281 17.601562 Z M 34.238281 17.601562 "/>
<path style=" stroke:none;fill-rule:nonzero;fill:rgb(100%,86.666667%,0%);fill-opacity:1;" d="M 25.519531 21.199219 C 25.839844 20.558594 26.558594 20 26.960938 19.839844 C 28.398438 19.199219 29.839844 18.960938 31.441406 18.800781 C 34.71875 18.398438 37.921875 18.640625 41.039062 19.679688 C 42.398438 20.078125 43.359375 21.441406 43.359375 22.878906 C 43.359375 25.519531 43.359375 30.398438 43.359375 30.398438 C 42.640625 29.601562 41.441406 28.640625 40.320312 27.839844 C 40.320312 26.800781 40.320312 25.839844 40.320312 24.71875 C 40.320312 23.921875 39.199219 24.078125 39.199219 24.640625 C 39.199219 25.121094 39.199219 26.078125 39.199219 26.878906 C 38.640625 26.558594 37.679688 25.921875 36.960938 25.519531 C 36 25.039062 35.121094 24.800781 34.078125 24.480469 C 32.640625 24.078125 31.28125 23.761719 29.921875 23.28125 C 29.28125 23.121094 28.558594 22.878906 27.921875 22.640625 C 27.121094 22.320312 26.238281 22 25.601562 21.519531 C 25.519531 21.441406 25.519531 21.28125 25.519531 21.199219 Z M 25.519531 21.199219 "/>
<path style=" stroke:none;fill-rule:nonzero;fill:rgb(89.019608%,2.352941%,7.450981%);fill-opacity:1;" d="M 6.164062 8.429688 L 8.425781 6.167969 L 61.828125 59.566406 L 59.566406 61.832031 Z M 6.164062 8.429688 "/>
</g>
</svg>
