<?xml version="1.0" encoding="UTF-8"?>
<svg xmlns="http://www.w3.org/2000/svg" xmlns:xlink="http://www.w3.org/1999/xlink" width="68pt" height="68pt" viewBox="0 0 68 68" version="1.1">
<g id="surface6833">
<rect x="0" y="0" width="68" height="68" style="fill:rgb(0%,44.313726%,23.529412%);fill-opacity:1;stroke:none;"/>
<path style=" stroke:none;fill-rule:nonzero;fill:rgb(100%,86.666667%,0%);fill-opacity:1;" d="M 12.078125 49.921875 C 12.800781 49.921875 13.519531 49.921875 14.238281 49.921875 C 16.640625 45.519531 18.960938 41.121094 21.359375 36.558594 C 25.28125 29.28125 28.960938 22.320312 32.878906 15.121094 C 32.320312 14.160156 31.921875 13.199219 31.359375 12.160156 C 30.480469 10.558594 32.71875 9.441406 33.601562 10.71875 C 33.839844 11.039062 34 11.441406 34.398438 12.238281 C 34.878906 11.441406 35.039062 11.121094 35.199219 10.800781 C 36 9.441406 38.320312 10.558594 37.519531 12.078125 C 36.878906 13.359375 35.921875 15.121094 35.921875 15.121094 C 37.601562 18.398438 48 38.398438 54 50 C 54.878906 50 55.761719 50 56.160156 50 C 58.160156 50 58.238281 53.28125 56.078125 53.28125 C 52.878906 53.28125 13.921875 53.199219 12.160156 53.199219 C 10 53.121094 10 49.921875 12.078125 49.921875 Z M 12.078125 49.921875 "/>
<path style=" stroke:none;fill-rule:nonzero;fill:rgb(0%,44.313726%,23.529412%);fill-opacity:1;" d="M 40.398438 49.921875 L 34.160156 36.238281 L 27.761719 49.921875 Z M 40.398438 49.921875 "/>
<path style=" stroke:none;fill-rule:nonzero;fill:rgb(89.019608%,2.352941%,7.450981%);fill-opacity:1;" d="M 6.164062 8.429688 L 8.425781 6.167969 L 61.828125 59.566406 L 59.566406 61.832031 Z M 6.164062 8.429688 "/>
</g>
</svg>
