<?xml version="1.0" encoding="UTF-8"?>
<svg xmlns="http://www.w3.org/2000/svg" xmlns:xlink="http://www.w3.org/1999/xlink" width="68pt" height="68pt" viewBox="0 0 68 68" version="1.1">
<g id="surface6847">
<rect x="0" y="0" width="68" height="68" style="fill:rgb(0%,44.313726%,23.529412%);fill-opacity:1;stroke:none;"/>
<path style=" stroke:none;fill-rule:nonzero;fill:rgb(100%,86.666667%,0%);fill-opacity:1;" d="M 11.28125 23.761719 C 17.921875 23.761719 24.640625 23.761719 31.359375 23.679688 C 31.839844 23.679688 32.238281 23.359375 32.558594 23.039062 C 33.761719 21.839844 34.960938 20.878906 36.238281 19.761719 C 36.480469 19.519531 36.960938 19.441406 37.28125 19.441406 C 40.800781 19.441406 44.078125 19.441406 47.601562 19.359375 C 48 19.359375 48.320312 19.359375 48.640625 19.441406 C 48.800781 19.519531 49.039062 19.601562 49.199219 19.761719 C 50.480469 20.878906 51.519531 21.921875 52.71875 23.121094 C 53.121094 23.519531 53.039062 24.160156 52.71875 24.558594 C 51.761719 25.519531 50.960938 26.398438 50.078125 27.441406 C 49.761719 27.761719 49.761719 28.480469 50.078125 28.71875 C 52.160156 30.71875 54 32.558594 56.078125 34.480469 C 57.039062 34.960938 58 35.359375 59.039062 35.839844 C 59.28125 36 59.519531 36.398438 59.519531 36.71875 C 59.519531 38.238281 59.601562 39.28125 59.519531 40.878906 C 59.519531 41.519531 58.960938 41.921875 58.480469 41.921875 C 57.679688 41.921875 57.28125 42 57.039062 41.519531 C 56.71875 40.238281 56 39.199219 54.878906 38.480469 C 53.519531 37.601562 51.921875 37.441406 50.398438 37.921875 C 48.320312 38.640625 46.960938 40.480469 46.800781 42.558594 C 46.800781 42.71875 46.640625 43.039062 46.320312 43.039062 C 40.800781 43.039062 34.480469 43.039062 29.921875 43.039062 C 29.761719 43.039062 29.519531 42.878906 29.519531 42.71875 C 29.441406 41.441406 28.960938 40.398438 28.160156 39.441406 C 26.878906 38 24.878906 37.441406 22.960938 38 C 20.800781 38.640625 19.28125 40.558594 19.121094 42.71875 C 19.121094 42.960938 18.960938 43.121094 18.71875 43.121094 C 16.320312 43.121094 14 43.121094 11.601562 43.121094 C 11.039062 43.121094 10.558594 42.640625 10.558594 42.078125 C 10.480469 40.078125 10.558594 38.640625 10.558594 36.640625 C 10.558594 32.71875 10.558594 28.878906 10.558594 24.960938 C 10.238281 24.320312 10.640625 23.761719 11.28125 23.761719 Z M 11.28125 23.761719 "/>
<path style=" stroke:none;fill-rule:nonzero;fill:rgb(100%,86.666667%,0%);fill-opacity:1;" d="M 51.761719 47.28125 C 54.160156 47.28125 56.078125 45.359375 56.078125 42.960938 C 56.078125 40.558594 54.160156 38.640625 51.761719 38.640625 C 49.359375 38.640625 47.441406 40.558594 47.441406 42.960938 C 47.519531 45.359375 49.441406 47.28125 51.761719 47.28125 Z M 51.761719 47.28125 "/>
<path style=" stroke:none;fill-rule:nonzero;fill:rgb(100%,86.666667%,0%);fill-opacity:1;" d="M 24.078125 47.359375 C 26.480469 47.359375 28.398438 45.441406 28.398438 43.039062 C 28.398438 40.640625 26.480469 38.71875 24.078125 38.71875 C 21.679688 38.71875 19.761719 40.640625 19.761719 43.039062 C 19.761719 45.441406 21.679688 47.359375 24.078125 47.359375 Z M 24.078125 47.359375 "/>
<path style=" stroke:none;fill-rule:nonzero;fill:rgb(0%,44.313726%,23.529412%);fill-opacity:1;" d="M 42.238281 30.160156 C 42.238281 31.359375 42.160156 32.238281 42.238281 33.441406 C 42.238281 33.839844 42.71875 34.398438 43.199219 34.398438 C 45.839844 34.320312 48.078125 34.398438 50.71875 34.398438 C 51.601562 34.398438 52 33.359375 51.601562 32.800781 C 50.558594 31.441406 49.679688 30.640625 48.398438 29.519531 C 48.238281 29.359375 47.679688 29.199219 47.441406 29.199219 C 45.921875 29.199219 44.878906 29.199219 43.359375 29.199219 C 42.71875 29.121094 42.238281 29.601562 42.238281 30.160156 Z M 42.238281 30.160156 "/>
<path style=" stroke:none;fill-rule:nonzero;fill:rgb(0%,44.313726%,23.529412%);fill-opacity:1;" d="M 29.441406 38.71875 C 29.441406 39.359375 29.921875 40.398438 30.640625 40.960938 C 31.519531 41.679688 33.359375 41.761719 34.398438 41.121094 C 35.121094 40.640625 35.761719 39.601562 35.761719 38.800781 C 35.839844 35.121094 35.761719 31.921875 35.761719 28.238281 C 35.601562 26.878906 34.71875 25.601562 33.28125 25.359375 C 32.320312 25.199219 31.28125 25.441406 30.558594 26.078125 C 30 26.558594 29.519531 27.601562 29.519531 28.238281 C 29.441406 31.839844 29.441406 35.121094 29.441406 38.71875 Z M 29.441406 38.71875 "/>
<path style=" stroke:none;fill-rule:nonzero;fill:rgb(100%,86.666667%,0%);fill-opacity:1;" d="M 30.480469 28.558594 C 30.480469 25.441406 34.800781 25.519531 34.800781 28.558594 C 34.800781 30.960938 34.800781 37.039062 34.800781 38.320312 C 34.71875 41.28125 30.480469 41.28125 30.480469 38.320312 C 30.480469 37.519531 30.480469 31.28125 30.480469 28.558594 Z M 30.480469 28.558594 "/>
<path style=" stroke:none;fill-rule:nonzero;fill:rgb(89.019608%,2.352941%,7.450981%);fill-opacity:1;" d="M 6.164062 8.429688 L 8.425781 6.167969 L 61.828125 59.566406 L 59.566406 61.832031 Z M 6.164062 8.429688 "/>
</g>
</svg>
