<?xml version="1.0" encoding="UTF-8"?>
<svg xmlns="http://www.w3.org/2000/svg" xmlns:xlink="http://www.w3.org/1999/xlink" width="68pt" height="68pt" viewBox="0 0 68 68" version="1.1">
<g id="surface6976">
<path style=" stroke:none;fill-rule:nonzero;fill:rgb(0%,44.313726%,23.529412%);fill-opacity:1;" d="M 0.0820312 0 L 67.054688 0 L 67.054688 66.972656 L 0.0820312 66.972656 Z M 0.0820312 0 "/>
<path style=" stroke:none;fill-rule:nonzero;fill:rgb(100%,86.666667%,0%);fill-opacity:1;" d="M 34.355469 16.386719 C 34.355469 19.433594 31.886719 21.902344 28.839844 21.902344 C 25.792969 21.902344 23.324219 19.433594 23.324219 16.386719 C 23.324219 13.34375 25.792969 10.875 28.839844 10.875 C 31.886719 10.875 34.355469 13.34375 34.355469 16.386719 Z M 34.355469 16.386719 "/>
<path style=" stroke:none;fill-rule:nonzero;fill:rgb(100%,86.666667%,0%);fill-opacity:1;" d="M 32.699219 44.203125 C 33.410156 43.964844 38.136719 42.3125 40.972656 41.285156 C 43.101562 43.414062 46.960938 47.589844 47.511719 48.140625 C 48.851562 49.480469 50.980469 49.480469 52.320312 48.140625 C 53.660156 46.800781 53.660156 44.675781 52.320312 43.335938 C 51.609375 42.625 45.070312 35.769531 44.28125 34.984375 C 43.574219 34.273438 42.707031 33.960938 41.839844 33.960938 C 41.445312 33.960938 41.050781 34.039062 40.65625 34.195312 C 40.183594 34.351562 38.292969 35.0625 36.246094 35.769531 C 36.167969 35.535156 36.089844 35.296875 36.007812 34.984375 L 46.09375 27.417969 C 46.882812 27.417969 47.433594 27.417969 47.511719 27.417969 C 48.773438 27.417969 49.796875 26.394531 49.796875 25.132812 C 49.796875 24.1875 49.167969 23.324219 48.378906 23.007812 L 52.632812 7.25 C 52.714844 6.855469 52.476562 6.382812 52.082031 6.304688 C 51.6875 6.222656 51.214844 6.460938 51.136719 6.855469 L 46.804688 22.847656 C 43.414062 22.847656 30.179688 22.847656 29.546875 22.847656 C 29.390625 22.847656 29.234375 22.847656 29.074219 22.929688 C 28.289062 22.847656 27.421875 22.847656 26.554688 23.164062 C 25.449219 23.558594 24.585938 24.1875 23.953125 25.054688 C 22.457031 26.472656 17.730469 31.203125 17.335938 31.675781 C 16.941406 32.066406 16.785156 32.460938 16.707031 32.933594 C 16.707031 33.015625 16.707031 33.171875 16.707031 33.25 C 16.707031 33.25 16.707031 33.328125 16.707031 33.328125 C 16.707031 33.566406 16.707031 33.800781 16.863281 34.117188 C 17.097656 34.746094 20.566406 44.675781 20.722656 45.304688 C 19.464844 46.566406 18.359375 47.90625 18.28125 49.480469 C 18.28125 50.585938 18.753906 51.609375 19.699219 52.632812 C 20.015625 52.949219 20.410156 53.34375 20.800781 53.65625 C 22.773438 55.546875 24.976562 57.597656 24.976562 60.117188 C 24.976562 61.851562 24.03125 63.742188 21.984375 65.710938 C 21.667969 66.027344 21.667969 66.5 21.984375 66.816406 C 22.140625 66.972656 22.378906 67.050781 22.535156 67.050781 C 22.695312 67.050781 22.929688 66.972656 23.085938 66.816406 C 25.449219 64.453125 26.554688 62.246094 26.554688 60.039062 C 26.476562 56.808594 24.03125 54.445312 21.828125 52.394531 C 21.433594 52.082031 21.117188 51.6875 20.800781 51.371094 C 19.9375 50.742188 19.621094 50.113281 19.621094 49.480469 C 19.621094 48.457031 20.488281 47.433594 21.511719 46.488281 C 22.0625 46.800781 22.773438 46.882812 23.402344 46.644531 C 24.585938 46.25 25.214844 44.910156 24.820312 43.730469 C 24.820312 43.730469 24.820312 43.652344 24.742188 43.570312 L 26.871094 41.996094 C 27.65625 43.097656 28.761719 43.808594 30.101562 44.125 C 30.886719 44.4375 31.832031 44.515625 32.699219 44.203125 Z M 43.414062 27.417969 L 35.457031 33.40625 C 34.828125 31.28125 34.117188 28.835938 33.644531 27.417969 C 35.929688 27.417969 40.183594 27.417969 43.414062 27.417969 Z M 24.269531 41.917969 C 23.480469 39.632812 22.140625 35.851562 21.433594 33.800781 C 21.984375 33.25 22.773438 32.539062 23.480469 31.753906 C 24.347656 34.511719 25.6875 39.238281 26.160156 40.5 Z M 24.269531 41.917969 "/>
<path style=" stroke:none;fill-rule:nonzero;fill:rgb(100%,86.666667%,0%);fill-opacity:1;" d="M 42.785156 57.359375 C 42.707031 56.335938 42.234375 49.007812 42.15625 47.984375 C 42.15625 47.589844 41.996094 47.195312 41.839844 46.882812 C 41.683594 46.25 41.367188 45.621094 40.894531 45.148438 C 40.5 44.753906 39.320312 43.730469 38.292969 42.707031 C 35.535156 43.652344 32.699219 44.675781 32.148438 44.832031 C 31.753906 44.988281 31.4375 45.070312 31.046875 45.070312 C 31.125 45.226562 31.28125 45.304688 31.359375 45.460938 C 31.910156 46.015625 34.195312 48.0625 35.457031 49.324219 C 35.613281 51.53125 35.929688 56.964844 36.007812 57.832031 C 36.167969 59.722656 37.742188 61.0625 39.632812 60.984375 C 41.523438 60.828125 42.941406 59.171875 42.785156 57.359375 Z M 42.785156 57.359375 "/>
<path style=" stroke:none;fill-rule:nonzero;fill:rgb(100%,86.666667%,0%);fill-opacity:1;" d="M 49.957031 31.515625 C 49.5625 31.59375 49.246094 32.066406 49.324219 32.460938 C 49.402344 32.855469 49.71875 33.09375 50.113281 33.09375 C 50.191406 33.09375 50.269531 33.09375 50.269531 33.09375 C 56.257812 31.675781 58.621094 28.285156 58.859375 21.039062 C 59.09375 14.417969 59.804688 10.085938 67.132812 10.085938 C 67.605469 10.085938 67.917969 9.691406 67.917969 9.296875 C 67.917969 8.824219 67.527344 8.507812 67.132812 8.507812 C 57.753906 8.507812 57.519531 15.441406 57.363281 21.039062 C 57.046875 28.363281 54.289062 30.492188 49.957031 31.515625 Z M 49.957031 31.515625 "/>
<path style=" stroke:none;fill-rule:nonzero;fill:rgb(100%,86.666667%,0%);fill-opacity:1;" d="M 59.960938 27.417969 C 59.488281 27.339844 59.09375 27.65625 59.015625 28.050781 C 58.070312 33.40625 54.917969 34.589844 51.847656 35.769531 C 51.453125 35.929688 51.214844 36.402344 51.375 36.796875 C 51.53125 37.109375 51.765625 37.347656 52.160156 37.347656 C 52.242188 37.347656 52.320312 37.347656 52.476562 37.269531 C 55.628906 36.085938 59.566406 34.589844 60.671875 28.285156 C 60.75 27.890625 60.433594 27.5 59.960938 27.417969 Z M 59.960938 27.417969 "/>
<path style=" stroke:none;fill-rule:nonzero;fill:rgb(100%,86.666667%,0%);fill-opacity:1;" d="M 61.457031 21.984375 C 61.773438 20.484375 62.878906 19.066406 64.925781 17.648438 C 65.320312 17.414062 65.398438 16.863281 65.082031 16.546875 C 64.847656 16.152344 64.296875 16.074219 63.980469 16.386719 C 61.617188 18.042969 60.277344 19.855469 59.882812 21.746094 C 59.804688 22.21875 60.121094 22.613281 60.511719 22.691406 C 60.59375 22.691406 60.59375 22.691406 60.671875 22.691406 C 61.066406 22.691406 61.378906 22.375 61.457031 21.984375 Z M 61.457031 21.984375 "/>
<path style=" stroke:none;fill-rule:nonzero;fill:rgb(100%,86.666667%,0%);fill-opacity:1;" d="M 56.101562 38.84375 C 52.320312 41.285156 57.046875 51.136719 50.820312 52.949219 C 44.203125 54.917969 41.761719 67.210938 41.761719 67.210938 L 67.054688 67.210938 C 67.054688 67.210938 67.054688 54.367188 67.054688 41.839844 C 65.242188 43.179688 64.136719 44.597656 63.902344 46.015625 C 63.824219 46.410156 63.507812 46.644531 63.113281 46.644531 C 63.035156 46.644531 63.035156 46.644531 62.957031 46.644531 C 62.484375 46.566406 62.246094 46.171875 62.324219 45.699219 C 62.71875 43.730469 64.058594 41.996094 66.421875 40.339844 C 66.582031 40.183594 66.816406 40.183594 67.054688 40.183594 C 67.054688 37.425781 67.054688 34.746094 67.054688 32.148438 C 62.71875 32.933594 62.40625 36.636719 62.011719 40.734375 C 61.933594 41.523438 61.851562 42.3125 61.773438 43.097656 C 60.984375 48.691406 59.253906 51.84375 56.023438 53.65625 C 55.863281 53.734375 55.785156 53.734375 55.628906 53.734375 C 55.3125 53.734375 55.078125 53.578125 54.917969 53.34375 C 54.683594 52.949219 54.839844 52.476562 55.234375 52.238281 C 57.992188 50.664062 59.488281 47.90625 60.199219 42.863281 C 60.277344 42.152344 60.355469 41.367188 60.433594 40.578125 C 60.828125 36.480469 61.300781 31.4375 67.054688 30.492188 C 67.054688 24.898438 67.054688 20.40625 67.054688 18.910156 C 58.621094 18.910156 65.949219 32.304688 56.101562 38.84375 Z M 62.324219 50.191406 C 62.40625 49.71875 62.796875 49.480469 63.191406 49.480469 C 63.664062 49.558594 63.902344 49.953125 63.902344 50.347656 C 62.640625 59.332031 53.1875 62.324219 50.269531 62.953125 C 50.191406 62.953125 50.113281 62.953125 50.113281 62.953125 C 49.71875 62.953125 49.402344 62.71875 49.324219 62.324219 C 49.246094 61.929688 49.484375 61.457031 49.957031 61.378906 C 52.554688 60.828125 61.300781 58.148438 62.324219 50.191406 Z M 62.324219 50.191406 "/>
<path style=" stroke:none;fill-rule:nonzero;fill:rgb(100%,86.666667%,0%);fill-opacity:1;" d="M 50.820312 28.128906 C 50.980469 28.363281 51.214844 28.445312 51.453125 28.445312 C 51.609375 28.445312 51.765625 28.363281 51.925781 28.285156 C 54.289062 26.632812 55.628906 24.820312 56.023438 22.929688 C 56.101562 22.457031 55.785156 22.0625 55.390625 21.984375 C 54.917969 21.902344 54.523438 22.21875 54.445312 22.613281 C 54.132812 24.109375 53.027344 25.527344 50.980469 26.945312 C 50.585938 27.261719 50.507812 27.734375 50.820312 28.128906 Z M 50.820312 28.128906 "/>
<path style=" stroke:none;fill-rule:nonzero;fill:rgb(100%,100%,100%);fill-opacity:1;" d="M 6.164062 8.296875 L 8.394531 6.070312 L 60.988281 58.664062 L 58.757812 60.890625 Z M 6.164062 8.296875 "/>
</g>
</svg>
