<?xml version="1.0" encoding="UTF-8" standalone="no"?>
<!-- Generator: Adobe Illustrator 27.6.1, SVG Export Plug-In . SVG Version: 6.00 Build 0)  -->

<svg
   xmlns:dc="http://purl.org/dc/elements/1.1/"
   xmlns:cc="http://creativecommons.org/ns#"
   xmlns:rdf="http://www.w3.org/1999/02/22-rdf-syntax-ns#"
   xmlns:svg="http://www.w3.org/2000/svg"
   xmlns="http://www.w3.org/2000/svg"
   xmlns:sodipodi="http://sodipodi.sourceforge.net/DTD/sodipodi-0.dtd"
   xmlns:inkscape="http://www.inkscape.org/namespaces/inkscape"
   version="1.1"
   id="Calque_1"
   x="0px"
   y="0px"
   viewBox="0 0 85 85"
   xml:space="preserve"
   sodipodi:docname="051.svg"
   width="85"
   height="85"
   inkscape:version="0.92.5 (2060ec1f9f, 2020-04-08)"><metadata
   id="metadata17"><rdf:RDF><cc:Work
       rdf:about=""><dc:format>image/svg+xml</dc:format><dc:type
         rdf:resource="http://purl.org/dc/dcmitype/StillImage" /></cc:Work></rdf:RDF></metadata><defs
   id="defs15" /><sodipodi:namedview
   pagecolor="#ffffff"
   bordercolor="#666666"
   borderopacity="1"
   objecttolerance="10"
   gridtolerance="10"
   guidetolerance="10"
   inkscape:pageopacity="0"
   inkscape:pageshadow="2"
   inkscape:window-width="882"
   inkscape:window-height="480"
   id="namedview13"
   showgrid="false"
   inkscape:zoom="0.2979798"
   inkscape:cx="46.5"
   inkscape:cy="-706.76392"
   inkscape:window-x="54"
   inkscape:window-y="27"
   inkscape:window-maximized="0"
   inkscape:current-layer="Calque_1" />
<style
   type="text/css"
   id="style2">
	.st0{fill:#006E33;}
	.st1{fill:#FFDD00;}
	.st2{fill:#E2001A;}
</style>
<rect
   x="0"
   y="0"
   class="st0"
   width="85"
   height="85"
   id="rect4"
   style="fill:#006e33" />
<path
   class="st1"
   d="m 35.7,33.5 c 3.6,0 5.1,0.1 6.7,0.3 0.8,0.1 1.2,0.2 1.5,0.4 4,2.4 7.1,4.4 11.1,6.9 0.5,0.3 1,0.7 1.5,0.7 5.7,0.8 10.6,1.3 16.4,2.5 0.6,0.1 1.1,0.6 1.1,1.1 0.1,1.5 0.1,3.4 0.1,5.1 0,0.4 -0.5,1 -0.9,1.1 -1,0.2 -1.7,0.4 -2.7,0.5 -1.6,0.3 -3,0.4 -4.5,0.6 -0.1,2.2 -1.2,3.8 -2.9,4.7 -2.1,1.1 -4.7,0.7 -6.3,-1 -1.7,-1.8 -1.9,-4.8 -0.8,-6.3 -0.1,0 -0.9,-0.1 -1.2,0 -0.2,0 -0.3,0.1 -0.4,0.4 -0.2,0.7 -0.2,0.9 -0.3,1.8 0,0.3 -0.4,0.5 -0.6,0.5 -8.2,0.1 -15.9,0.1 -24,0.1 -0.3,0 -0.6,-0.2 -0.6,-0.5 -0.1,-0.8 -0.1,-1.7 -0.7,-2.2 -0.1,-0.1 -1.2,0 -1.2,0 v 0.2 c 1.4,2.5 0.2,6 -2.5,7.2 -2,1 -4.6,0.6 -6.2,-1.2 -0.9,-0.9 -1.3,-2 -1.4,-3.2 -0.1,-0.7 0,-1.2 0.1,-1.6 -1.9,0 -3.1,0 -5.6,-0.1 -0.5,0 -1.2,-0.6 -1.2,-1.2 -0.1,-2.3 -0.1,-4.8 -0.1,-6.9 0,-1 0.8,-1.5 1.3,-1.5 1.9,0 6.5,0.1 7.2,-0.1 2.4,-2 5.1,-4.9 7.9,-7.3 0.3,-0.3 1.1,-0.5 2,-0.6 3,-0.3 3.8,-0.3 7.2,-0.4 z"
   id="path6"
   inkscape:connector-curvature="0"
   style="fill:#ffdd00" />
<path
   class="st0"
   d="m 35.7,35.2 c -2.5,0 -3.5,0.1 -7,0.4 -0.4,0 -0.9,0.3 -1.4,0.8 -1.5,1.8 -2.5,3.1 -3.9,4.7 -0.3,0.3 -0.1,0.8 0.4,0.8 9,0.1 17.8,-0.1 26.8,-0.1 0.5,0 1.3,0 1.4,0 0.3,0 0.3,-0.5 0.1,-0.7 -3.1,-1.9 -5.7,-3.6 -8.8,-5.5 -0.2,-0.1 -0.6,-0.2 -0.8,-0.2 -0.9,0 -1.7,-0.1 -2.5,-0.2 -1.4,-0.1 -2.9,0 -4.3,0 z"
   id="path8"
   inkscape:connector-curvature="0"
   style="fill:#006e33" />
<rect
   x="-2.0028799"
   y="12.900769"
   transform="rotate(-45)"
   class="st2"
   width="3.9999616"
   height="94.399094"
   id="rect10"
   style="fill:#e2001a;stroke-width:0.9999904" />
</svg>