<?xml version="1.0" encoding="UTF-8" standalone="no"?>
<!-- Generator: Adobe Illustrator 27.6.1, SVG Export Plug-In . SVG Version: 6.00 Build 0)  -->

<svg
   xmlns:dc="http://purl.org/dc/elements/1.1/"
   xmlns:cc="http://creativecommons.org/ns#"
   xmlns:rdf="http://www.w3.org/1999/02/22-rdf-syntax-ns#"
   xmlns:svg="http://www.w3.org/2000/svg"
   xmlns="http://www.w3.org/2000/svg"
   xmlns:sodipodi="http://sodipodi.sourceforge.net/DTD/sodipodi-0.dtd"
   xmlns:inkscape="http://www.inkscape.org/namespaces/inkscape"
   version="1.1"
   id="Calque_1"
   x="0px"
   y="0px"
   viewBox="0 0 85 85"
   xml:space="preserve"
   sodipodi:docname="044.svg"
   width="85"
   height="85"
   inkscape:version="0.92.5 (2060ec1f9f, 2020-04-08)"><metadata
   id="metadata21"><rdf:RDF><cc:Work
       rdf:about=""><dc:format>image/svg+xml</dc:format><dc:type
         rdf:resource="http://purl.org/dc/dcmitype/StillImage" /></cc:Work></rdf:RDF></metadata><defs
   id="defs19" /><sodipodi:namedview
   pagecolor="#ffffff"
   bordercolor="#666666"
   borderopacity="1"
   objecttolerance="10"
   gridtolerance="10"
   guidetolerance="10"
   inkscape:pageopacity="0"
   inkscape:pageshadow="2"
   inkscape:window-width="882"
   inkscape:window-height="480"
   id="namedview17"
   showgrid="false"
   inkscape:zoom="0.2979798"
   inkscape:cx="46.5"
   inkscape:cy="32.5"
   inkscape:window-x="54"
   inkscape:window-y="27"
   inkscape:window-maximized="0"
   inkscape:current-layer="Calque_1" />
<style
   type="text/css"
   id="style2">
	.st0{fill:#006E33;}
	.st1{fill:#FFDD00;}
	.st2{fill:#E2001A;}
</style>
<rect
   x="0"
   y="0"
   class="st0"
   width="85"
   height="85"
   id="rect4"
   style="fill:#006e33" />
<path
   class="st1"
   d="m 18.3,53.2 c -3.2,-2.6 -5,-6.6 -5.2,-10.7 -0.2,-4.6 1.4,-9.2 5,-12.3 1,-0.9 2.1,-1.7 3.3,-2.2 5.3,-2.5 11,-3.7 16.7,-4 7.2,-0.2 14.4,1 20.9,4.2 3,1.5 5.7,4.6 6.9,7.9 1.7,4.7 1.2,10.1 -1.8,14.3 2.7,0 4.9,0 7.6,0 1.8,0 1.8,2.8 -0.1,2.8 -7.4,0 -17.5,0 -26.3,0 0.1,0.6 -0.1,1.3 -0.3,1.9 -0.4,0.8 -0.9,1.6 -1.6,2.2 -0.8,0.7 -1.8,1.1 -2.8,1.2 -1.9,0.2 -3.6,-0.5 -4.8,-1.8 -0.8,-1 -1.3,-2 -1.3,-3.5 -5.3,0 -10.8,0 -16.2,0 z"
   id="path6"
   inkscape:connector-curvature="0"
   style="fill:#ffdd00" />
<path
   class="st0"
   d="m 23.8,45.8 c 0,0.8 0.6,2.1 1.5,2.8 1.4,1.1 3.2,1.1 4.7,0.1 0.9,-0.6 1.7,-1.9 1.7,-2.9 0.1,-4.6 0,-8.6 0,-13.2 -0.2,-1.7 -1.4,-3.3 -3.1,-3.6 -1.2,-0.2 -2.5,0.1 -3.4,0.9 -0.7,0.6 -1.3,1.8 -1.3,2.7 -0.1,4.6 -0.1,8.7 -0.1,13.2 z"
   id="path8"
   inkscape:connector-curvature="0"
   style="fill:#006e33" />
<path
   class="st1"
   d="m 25.1,33.1 c 0,-3.8 5.4,-3.7 5.3,0 -0.1,3 0,10.6 0,12.2 0,3.7 -5.4,3.6 -5.3,0 0,-2.2 0,-8.8 0,-12.2 z"
   id="path10"
   inkscape:connector-curvature="0"
   style="fill:#ffdd00" />
<path
   class="st0"
   d="m 43.7,33.3 c -0.6,0 -1.3,0.6 -1.3,1.2 0,2 0,3.5 0,5.5 0,0.6 0.5,1.1 1.1,1.1 3.8,0.1 7.1,0 10.9,0 0.6,0 1.1,-0.5 1.2,-1.1 0.1,-2.1 0.1,-3.7 0,-5.6 0,-0.6 -0.5,-1.1 -1.1,-1.1 -3.7,0 -7.1,0 -10.8,0 z"
   id="path12"
   inkscape:connector-curvature="0"
   style="fill:#006e33" />
<rect
   x="-2.0031629"
   y="12.901052"
   transform="rotate(-45)"
   class="st2"
   width="3.9999616"
   height="94.399094"
   id="rect14"
   style="fill:#e2001a;stroke-width:0.9999904" />
</svg>