<?xml version="1.0" encoding="UTF-8"?>
<svg xmlns="http://www.w3.org/2000/svg" xmlns:xlink="http://www.w3.org/1999/xlink" width="68pt" height="68pt" viewBox="0 0 68 68" version="1.1">
<g id="surface6856">
<rect x="0" y="0" width="68" height="68" style="fill:rgb(0%,43.137255%,20%);fill-opacity:1;stroke:none;"/>
<path style=" stroke:none;fill-rule:nonzero;fill:rgb(100%,86.666667%,0%);fill-opacity:1;" d="M 14.640625 42.558594 C 12.078125 40.480469 10.640625 37.28125 10.480469 34 C 10.320312 30.320312 11.601562 26.640625 14.480469 24.160156 C 15.28125 23.441406 16.160156 22.800781 17.121094 22.398438 C 21.359375 20.398438 25.921875 19.441406 30.480469 19.199219 C 36.238281 19.039062 42 20 47.199219 22.558594 C 49.601562 23.761719 51.761719 26.238281 52.71875 28.878906 C 54.078125 32.640625 53.679688 36.960938 51.28125 40.320312 C 53.441406 40.320312 55.199219 40.320312 57.359375 40.320312 C 58.800781 40.320312 58.800781 42.558594 57.28125 42.558594 C 51.359375 42.558594 43.28125 42.558594 36.238281 42.558594 C 36.320312 43.039062 36.160156 43.601562 36 44.078125 C 35.679688 44.71875 35.28125 45.359375 34.71875 45.839844 C 34.078125 46.398438 33.28125 46.71875 32.480469 46.800781 C 30.960938 46.960938 29.601562 46.398438 28.640625 45.359375 C 28 44.558594 27.601562 43.761719 27.601562 42.558594 C 23.359375 42.558594 18.960938 42.558594 14.640625 42.558594 Z M 14.640625 42.558594 "/>
<path style=" stroke:none;fill-rule:nonzero;fill:rgb(0%,43.137255%,20%);fill-opacity:1;" d="M 19.039062 36.640625 C 19.039062 37.28125 19.519531 38.320312 20.238281 38.878906 C 21.359375 39.761719 22.800781 39.761719 24 38.960938 C 24.71875 38.480469 25.359375 37.441406 25.359375 36.640625 C 25.441406 32.960938 25.359375 29.761719 25.359375 26.078125 C 25.199219 24.71875 24.238281 23.441406 22.878906 23.199219 C 21.921875 23.039062 20.878906 23.28125 20.160156 23.921875 C 19.601562 24.398438 19.121094 25.359375 19.121094 26.078125 C 19.039062 29.761719 19.039062 33.039062 19.039062 36.640625 Z M 19.039062 36.640625 "/>
<path style=" stroke:none;fill-rule:nonzero;fill:rgb(100%,86.666667%,0%);fill-opacity:1;" d="M 20.078125 26.480469 C 20.078125 23.441406 24.398438 23.519531 24.320312 26.480469 C 24.238281 28.878906 24.320312 34.960938 24.320312 36.238281 C 24.320312 39.199219 20 39.121094 20.078125 36.238281 C 20.078125 34.480469 20.078125 29.199219 20.078125 26.480469 Z M 20.078125 26.480469 "/>
<path style=" stroke:none;fill-rule:nonzero;fill:rgb(0%,43.137255%,20%);fill-opacity:1;" d="M 34.960938 26.640625 C 34.480469 26.640625 33.921875 27.121094 33.921875 27.601562 C 33.921875 29.199219 33.921875 30.398438 33.921875 32 C 33.921875 32.480469 34.320312 32.878906 34.800781 32.878906 C 37.839844 32.960938 40.480469 32.878906 43.519531 32.878906 C 44 32.878906 44.398438 32.480469 44.480469 32 C 44.558594 30.320312 44.558594 29.039062 44.480469 27.519531 C 44.480469 27.039062 44.078125 26.640625 43.601562 26.640625 C 40.640625 26.640625 37.921875 26.640625 34.960938 26.640625 Z M 34.960938 26.640625 "/>
<path style=" stroke:none;fill-rule:nonzero;fill:rgb(88.627452%,0%,10.196079%);fill-opacity:1;" d="M 6.164062 8.429688 L 8.425781 6.167969 L 61.828125 59.570312 L 59.566406 61.832031 Z M 6.164062 8.429688 "/>
</g>
</svg>
