<?xml version="1.0" encoding="UTF-8"?>
<svg xmlns="http://www.w3.org/2000/svg" xmlns:xlink="http://www.w3.org/1999/xlink" width="68pt" height="68pt" viewBox="0 0 68 68" version="1.1">
<g id="surface6853">
<rect x="0" y="0" width="68" height="68" style="fill:rgb(0%,43.137255%,20%);fill-opacity:1;stroke:none;"/>
<path style=" stroke:none;fill-rule:nonzero;fill:rgb(100%,86.666667%,0%);fill-opacity:1;" d="M 28.558594 26.800781 C 31.441406 26.800781 32.640625 26.878906 33.921875 27.039062 C 34.558594 27.121094 34.878906 27.199219 35.121094 27.359375 C 38.320312 29.28125 40.800781 30.878906 44 32.878906 C 44.398438 33.121094 44.800781 33.441406 45.199219 33.441406 C 49.761719 34.078125 53.679688 34.480469 58.320312 35.441406 C 58.800781 35.519531 59.199219 35.921875 59.199219 36.320312 C 59.28125 37.519531 59.28125 39.039062 59.28125 40.398438 C 59.28125 40.71875 58.878906 41.199219 58.558594 41.28125 C 57.761719 41.441406 57.199219 41.601562 56.398438 41.679688 C 55.121094 41.921875 54 42 52.800781 42.160156 C 52.71875 43.921875 51.839844 45.199219 50.480469 45.921875 C 48.800781 46.800781 46.71875 46.480469 45.441406 45.121094 C 44.078125 43.679688 43.921875 41.28125 44.800781 40.078125 C 44.71875 40.078125 44.078125 40 43.839844 40.078125 C 43.679688 40.078125 43.601562 40.160156 43.519531 40.398438 C 43.359375 40.960938 43.359375 41.121094 43.28125 41.839844 C 43.28125 42.078125 42.960938 42.238281 42.800781 42.238281 C 36.238281 42.320312 30.078125 42.320312 23.601562 42.320312 C 23.359375 42.320312 23.121094 42.160156 23.121094 41.921875 C 23.039062 41.28125 23.039062 40.558594 22.558594 40.160156 C 22.480469 40.078125 21.601562 40.160156 21.601562 40.160156 L 21.601562 40.320312 C 22.71875 42.320312 21.761719 45.121094 19.601562 46.078125 C 18 46.878906 15.921875 46.558594 14.640625 45.121094 C 13.921875 44.398438 13.601562 43.519531 13.519531 42.558594 C 13.441406 42 13.519531 41.601562 13.601562 41.28125 C 12.078125 41.28125 11.121094 41.28125 9.121094 41.199219 C 8.71875 41.199219 8.160156 40.71875 8.160156 40.238281 C 8.078125 38.398438 8.078125 36.398438 8.078125 34.71875 C 8.078125 33.921875 8.71875 33.519531 9.121094 33.519531 C 10.640625 33.519531 14.320312 33.601562 14.878906 33.441406 C 16.800781 31.839844 18.960938 29.519531 21.199219 27.601562 C 21.441406 27.359375 22.078125 27.199219 22.800781 27.121094 C 25.199219 26.878906 25.839844 26.878906 28.558594 26.800781 Z M 28.558594 26.800781 "/>
<path style=" stroke:none;fill-rule:nonzero;fill:rgb(0%,43.137255%,20%);fill-opacity:1;" d="M 28.558594 28.160156 C 26.558594 28.160156 25.761719 28.238281 22.960938 28.480469 C 22.640625 28.480469 22.238281 28.71875 21.839844 29.121094 C 20.640625 30.558594 19.839844 31.601562 18.71875 32.878906 C 18.480469 33.121094 18.640625 33.519531 19.039062 33.519531 C 26.238281 33.601562 33.28125 33.441406 40.480469 33.441406 C 40.878906 33.441406 41.519531 33.441406 41.601562 33.441406 C 41.839844 33.441406 41.839844 33.039062 41.679688 32.878906 C 39.199219 31.359375 37.121094 30 34.640625 28.480469 C 34.480469 28.398438 34.160156 28.320312 34 28.320312 C 33.28125 28.320312 32.640625 28.238281 32 28.160156 C 30.878906 28.078125 29.679688 28.160156 28.558594 28.160156 Z M 28.558594 28.160156 "/>
<path style=" stroke:none;fill-rule:nonzero;fill:rgb(88.627452%,0%,10.196079%);fill-opacity:1;" d="M 6.164062 8.429688 L 8.425781 6.167969 L 61.828125 59.566406 L 59.566406 61.832031 Z M 6.164062 8.429688 "/>
</g>
</svg>
