<?xml version="1.0" encoding="UTF-8"?>
<svg xmlns="http://www.w3.org/2000/svg" xmlns:xlink="http://www.w3.org/1999/xlink" width="68pt" height="68pt" viewBox="0 0 68 68" version="1.1">
<g id="surface6786">
<rect x="0" y="0" width="68" height="68" style="fill:rgb(0%,44.313726%,23.529412%);fill-opacity:1;stroke:none;"/>
<path style=" stroke:none;fill-rule:nonzero;fill:rgb(100%,86.666667%,0%);fill-opacity:1;" d="M 43.839844 31.679688 C 44.398438 31.679688 45.039062 31.519531 45.519531 31.921875 C 45.839844 32.238281 45.839844 32.71875 45.761719 33.121094 C 45.679688 33.441406 45.441406 33.839844 44.800781 33.839844 C 39.921875 33.921875 35.199219 33.839844 31.519531 33.921875 C 30.640625 34.238281 30.800781 35.039062 30.640625 35.761719 C 30.640625 35.921875 30.480469 36 30.398438 36 C 30 36.078125 29.359375 36 29.359375 36 C 29.359375 36 29.121094 36 29.039062 35.761719 C 28.960938 35.519531 29.039062 34.878906 28.800781 34.398438 C 28.558594 33.839844 28.078125 34 27.921875 34.160156 C 26.640625 35.28125 25.519531 36.078125 24.078125 36.878906 C 22.480469 37.839844 20.878906 38.558594 19.121094 39.039062 C 15.121094 40.160156 11.441406 40.480469 7.121094 40.160156 C 6.800781 40.160156 6.558594 39.921875 6.398438 39.601562 C 6.320312 39.359375 6.238281 39.121094 6.398438 38.800781 C 6.800781 37.761719 7.199219 36.800781 7.839844 35.761719 C 8.640625 34.480469 9.359375 33.359375 10 32 C 10.160156 31.761719 10.398438 31.519531 10.640625 31.519531 C 12.558594 31.441406 14.320312 31.601562 16.160156 31.601562 C 18.320312 31.679688 20.558594 31.28125 22.640625 30.558594 C 23.761719 30.160156 24.320312 29.28125 25.199219 28.398438 C 25.359375 28.238281 25.519531 28.238281 25.761719 28.238281 C 37.601562 28.320312 49.039062 28.160156 61.039062 28.160156 C 61.441406 28.160156 62.078125 28.878906 61.761719 29.679688 C 61.679688 29.839844 61.601562 29.921875 61.519531 30 C 61.519531 30.078125 61.359375 30.078125 61.28125 30.160156 C 61.199219 30.238281 61.039062 30.320312 60.878906 30.320312 C 51.921875 30.480469 43.28125 30.398438 34.238281 30.398438 C 34.078125 30.398438 33.921875 30.558594 33.839844 30.800781 C 33.839844 31.039062 34 31.359375 34.238281 31.359375 C 37.601562 31.761719 40.640625 31.679688 43.839844 31.679688 Z M 43.839844 31.679688 "/>
<path style=" stroke:none;fill-rule:nonzero;fill:rgb(89.019608%,2.352941%,7.450981%);fill-opacity:1;" d="M 6.117188 8.347656 L 8.382812 6.085938 L 61.78125 59.484375 L 59.519531 61.75 Z M 6.117188 8.347656 "/>
</g>
</svg>
