<?xml version="1.0" encoding="UTF-8" standalone="no"?>
<!-- Generator: Adobe Illustrator 26.5.3, SVG Export Plug-In . SVG Version: 6.00 Build 0)  -->

<svg
   xmlns:dc="http://purl.org/dc/elements/1.1/"
   xmlns:cc="http://creativecommons.org/ns#"
   xmlns:rdf="http://www.w3.org/1999/02/22-rdf-syntax-ns#"
   xmlns:svg="http://www.w3.org/2000/svg"
   xmlns="http://www.w3.org/2000/svg"
   xmlns:sodipodi="http://sodipodi.sourceforge.net/DTD/sodipodi-0.dtd"
   xmlns:inkscape="http://www.inkscape.org/namespaces/inkscape"
   version="1.1"
   id="Calque_1"
   x="0px"
   y="0px"
   viewBox="0 0 85 85"
   xml:space="preserve"
   sodipodi:docname="111.svg"
   inkscape:version="0.92.5 (2060ec1f9f, 2020-04-08)"
   width="85"
   height="85"><metadata
   id="metadata19"><rdf:RDF><cc:Work
       rdf:about=""><dc:format>image/svg+xml</dc:format><dc:type
         rdf:resource="http://purl.org/dc/dcmitype/StillImage" /><dc:title /></cc:Work></rdf:RDF></metadata><defs
   id="defs17" /><sodipodi:namedview
   pagecolor="#ffffff"
   bordercolor="#666666"
   borderopacity="1"
   objecttolerance="10"
   gridtolerance="10"
   guidetolerance="10"
   inkscape:pageopacity="0"
   inkscape:pageshadow="2"
   inkscape:window-width="1866"
   inkscape:window-height="1016"
   id="namedview15"
   showgrid="false"
   inkscape:zoom="1.6856283"
   inkscape:cx="-96.66388"
   inkscape:cy="-87.594339"
   inkscape:window-x="54"
   inkscape:window-y="27"
   inkscape:window-maximized="1"
   inkscape:current-layer="Calque_1" />
<style
   type="text/css"
   id="style2">
	.st0{fill:#006E33;}
	.st1{fill:#FFCC00;}
</style>
<rect
   x="0"
   y="0"
   class="st0"
   width="85"
   height="85"
   id="rect4"
   style="fill:#006e33" />
<g
   id="g10"
   transform="translate(-259.5,-343.5)">
	<path
   class="st1"
   d="m 316.7,371.9 c 0.5,-0.4 1.2,-0.6 1.9,-0.6 1.4,0.1 3.6,0.7 4.1,1.1 0.6,0.6 0.6,0.9 0.7,1.4 1.2,1 2.9,0.8 4.3,1.1 0.4,1.2 0.2,2.6 -0.5,3.5 -0.6,0.9 -1.2,1 -2,1.1 -1.5,0.2 -2.8,-0.4 -4,0.1 -0.5,0.2 -0.9,0.4 -1.3,0.9 -0.9,1 -1.3,2.7 -1.7,4.2 -0.7,2.7 -1.9,4.9 -3.1,7.3 -0.8,1.5 -1,2 -1.5,4.3 -0.1,1.9 -0.1,2.1 -0.1,3.6 0.1,1.2 0.2,2 0.2,3 0.4,0.1 0.8,-0.1 1.2,0.2 0.1,0.1 0.2,0.2 0.2,0.2 0.4,0.6 0.2,1.6 -0.5,1.7 -0.7,0.2 -2.5,0.1 -2.5,0.1 v 1.1 c 0,0 0.7,-0.1 1,0 0.5,0.2 0.8,0.7 0.7,1.2 0,0.4 -0.3,0.8 -0.7,1 -0.1,0 -0.2,0.1 -0.3,0.1 -0.8,0 -1.4,0 -2.1,0 -0.2,0 -0.6,-0.4 -0.6,-0.5 -0.5,-4.5 -0.9,-9.6 -1.2,-13.3 -2.3,0.2 -4.3,0 -6.4,-0.8 -2,-0.8 -3.5,-2.2 -5.4,-3.1 -0.7,-0.3 -1.8,-0.2 -2,0.4 -1.7,3.9 -4.7,7.7 -7.4,9.8 -0.2,0.1 -0.7,0.8 -0.7,1 0,0.7 0.7,2.1 1.2,3.4 0.8,-0.1 1.9,-0.1 2,0.9 0.1,0.4 0.1,0.6 -0.2,0.9 -0.2,0.3 -0.5,0.5 -0.8,0.5 -0.8,0 -1.5,0 -2.1,0 -0.3,0 -0.5,-0.3 -0.6,-0.5 -0.8,-1.9 -1.5,-3.4 -2.2,-5.2 -0.5,-1.2 0.3,-1.8 0.5,-2.2 0.7,-1.3 1,-2.2 1.1,-3.5 0,0 -0.1,0 -0.1,0 -1.8,1.9 -4.5,3.9 -5.4,4.6 -0.2,0.1 -1.1,1.6 -1.1,1.9 0,2.2 0,2.5 0,3.9 0.3,0 0.8,0 1,0 0.6,0.2 0.7,0.5 0.7,1.1 0,0.5 -0.2,0.7 -0.4,0.9 -0.2,0.1 -0.4,0.2 -0.6,0.2 -0.8,0 -1.4,0 -2.2,0 -0.2,0 -0.6,-0.4 -0.6,-0.6 -0.1,-2.8 -0.1,-5 -0.1,-7.6 0,-0.6 0.5,-1.3 1.2,-1.6 2.8,-3 4.8,-6.4 6.3,-11 -0.7,0.1 -0.9,0.2 -1.4,0.2 -0.9,0.1 -1.7,0.2 -2.8,0.1 -0.5,0 -0.8,0 -1.5,-0.1 -0.6,-0.1 -1.1,-0.3 -1.6,-0.5 -2,-0.9 -3.7,-2.5 -4.6,-4.5 -0.1,-0.3 0,-0.7 0.2,-0.9 0.4,-0.3 1.1,-0.4 1.3,0.1 1.2,2 3.3,3.7 5.2,3.8 2.1,0.2 4,-0.4 6.1,-1.4 1,-1.1 2.2,-2.3 3.7,-2.8 2.8,-1 6,-1.2 8.8,-1 2.6,0.2 5.1,0.2 7.7,0.1 1,0 2,-0.2 2.1,-0.2 1.9,-0.5 3.1,-1.6 4.1,-2.9 0.8,-1 1.2,-2 2.1,-3.1 0.7,-0.9 1.1,-1.6 1.7,-2.4 0.3,-0.1 0.6,-0.4 1,-0.7 z"
   id="path6"
   inkscape:connector-curvature="0"
   style="fill:#ffcc00" />
	<polygon
   class="st1"
   points="273.1,353.9 313,376.9 312.2,378.1 272.3,355.2 "
   id="polygon8"
   style="fill:#ffcc00" />
</g>
<path
   class="st0"
   d="m 53.5,33.4 6.7,3.9 c 0,0 -0.2,0.3 -0.3,0.5 -0.1,0.2 -0.4,0.7 -0.4,0.7 l -6.8,-3.9 z"
   id="path12"
   inkscape:connector-curvature="0"
   style="fill:#006e33" />
</svg>