<?xml version="1.0" encoding="UTF-8"?>
<svg xmlns="http://www.w3.org/2000/svg" xmlns:xlink="http://www.w3.org/1999/xlink" width="68pt" height="68pt" viewBox="0 0 68 68" version="1.1">
<g id="surface6778">
<rect x="0" y="0" width="68" height="68" style="fill:rgb(0%,44.313726%,23.529412%);fill-opacity:1;stroke:none;"/>
<path style=" stroke:none;fill-rule:nonzero;fill:rgb(100%,86.666667%,0%);fill-opacity:1;" d="M 45.839844 22.640625 C 46.238281 22.320312 46.800781 22.160156 47.359375 22.160156 C 48.480469 22.238281 50.238281 22.71875 50.640625 23.039062 C 51.121094 23.519531 51.121094 23.761719 51.199219 24.160156 C 52.160156 24.960938 53.519531 24.800781 54.640625 25.039062 C 54.960938 26 54.800781 27.121094 54.238281 27.839844 C 53.761719 28.558594 53.28125 28.640625 52.640625 28.71875 C 51.441406 28.878906 50.398438 28.398438 49.441406 28.800781 C 49.039062 28.960938 48.71875 29.121094 48.398438 29.519531 C 47.679688 30.320312 47.359375 31.679688 47.039062 32.878906 C 46.480469 35.039062 45.519531 36.800781 44.558594 38.71875 C 43.921875 39.921875 43.761719 40.320312 43.359375 42.160156 C 43.28125 43.679688 43.28125 43.839844 43.28125 45.039062 C 43.359375 46 43.441406 46.640625 43.441406 47.441406 C 43.761719 47.519531 44.078125 47.359375 44.398438 47.601562 C 44.480469 47.679688 44.558594 47.761719 44.558594 47.761719 C 44.878906 48.238281 44.71875 49.039062 44.160156 49.121094 C 43.601562 49.28125 42.160156 49.199219 42.160156 49.199219 L 42.160156 50.078125 C 42.160156 50.078125 42.71875 50 42.960938 50.078125 C 43.359375 50.238281 43.519531 50.640625 43.519531 51.039062 C 43.519531 51.359375 43.28125 51.679688 42.960938 51.839844 C 42.878906 51.839844 42.800781 51.921875 42.71875 51.921875 C 42.078125 51.921875 41.601562 51.921875 41.039062 51.921875 C 40.878906 51.921875 40.558594 51.601562 40.558594 51.519531 C 40.160156 47.921875 39.839844 43.839844 39.601562 40.878906 C 37.761719 41.039062 36.160156 40.878906 34.480469 40.238281 C 32.878906 39.601562 31.679688 38.480469 30.160156 37.761719 C 29.601562 37.519531 28.71875 37.601562 28.558594 38.078125 C 27.199219 41.199219 24.800781 44.238281 22.640625 45.921875 C 22.480469 46 22.078125 46.558594 22.078125 46.71875 C 22.078125 47.28125 22.640625 48.398438 23.039062 49.441406 C 23.679688 49.359375 24.558594 49.359375 24.640625 50.160156 C 24.71875 50.480469 24.71875 50.640625 24.480469 50.878906 C 24.320312 51.121094 24.078125 51.28125 23.839844 51.28125 C 23.199219 51.28125 22.640625 51.28125 22.160156 51.28125 C 21.921875 51.28125 21.761719 51.039062 21.679688 50.878906 C 21.121094 49.359375 20.480469 48.160156 19.921875 46.71875 C 19.519531 45.761719 20.160156 45.28125 20.320312 44.960938 C 20.878906 43.921875 21.121094 43.199219 21.199219 42.160156 C 21.199219 42.160156 21.121094 42.160156 21.121094 42.160156 C 19.679688 43.679688 17.519531 45.28125 16.800781 45.839844 C 16.640625 45.921875 15.921875 47.121094 15.921875 47.359375 C 15.921875 49.121094 15.921875 49.359375 15.921875 50.480469 C 16.160156 50.480469 16.558594 50.480469 16.71875 50.480469 C 17.199219 50.640625 17.28125 50.878906 17.28125 51.359375 C 17.28125 51.761719 17.121094 51.921875 16.960938 52.078125 C 16.800781 52.160156 16.640625 52.238281 16.480469 52.238281 C 15.839844 52.238281 15.359375 52.238281 14.71875 52.238281 C 14.558594 52.238281 14.238281 51.921875 14.238281 51.761719 C 14.160156 49.519531 14.160156 47.761719 14.160156 45.679688 C 14.160156 45.199219 14.558594 44.640625 15.121094 44.398438 C 17.359375 42 18.960938 39.28125 20.160156 35.601562 C 19.601562 35.679688 19.441406 35.761719 19.039062 35.761719 C 18.320312 35.839844 17.679688 35.921875 16.800781 35.839844 C 16.398438 35.839844 16.160156 35.839844 15.601562 35.761719 C 15.121094 35.679688 14.71875 35.519531 14.320312 35.359375 C 12.71875 34.640625 11.359375 33.359375 10.640625 31.761719 C 10.558594 31.519531 10.640625 31.199219 10.800781 31.039062 C 11.121094 30.800781 11.679688 30.71875 11.839844 31.121094 C 12.800781 32.71875 14.480469 34.078125 16 34.160156 C 17.679688 34.320312 19.199219 33.839844 20.878906 33.039062 C 21.679688 32.160156 22.640625 31.199219 23.839844 30.800781 C 26.078125 30 28.640625 29.839844 30.878906 30 C 32.960938 30.160156 34.960938 30.160156 37.039062 30.078125 C 37.839844 30.078125 38.640625 29.921875 38.71875 29.921875 C 40.238281 29.519531 41.199219 28.640625 42 27.601562 C 42.640625 26.800781 42.960938 26 43.679688 25.121094 C 44.238281 24.398438 44.558594 23.839844 45.039062 23.199219 C 45.359375 23.121094 45.601562 22.800781 45.839844 22.640625 Z M 45.839844 22.640625 "/>
<path style=" stroke:none;fill-rule:nonzero;fill:rgb(89.019608%,2.352941%,7.450981%);fill-opacity:1;" d="M 6.164062 8.429688 L 8.425781 6.167969 L 61.828125 59.566406 L 59.566406 61.832031 Z M 6.164062 8.429688 "/>
</g>
</svg>
