<?xml version="1.0" encoding="UTF-8"?>
<svg xmlns="http://www.w3.org/2000/svg" xmlns:xlink="http://www.w3.org/1999/xlink" width="68pt" height="68pt" viewBox="0 0 68 68" version="1.1">
<g id="surface6967">
<rect x="0" y="0" width="68" height="68" style="fill:rgb(0%,43.137255%,20%);fill-opacity:1;stroke:none;"/>
<path style=" stroke:none;fill-rule:nonzero;fill:rgb(100%,80.000001%,0%);fill-opacity:1;" d="M 45.761719 22.71875 C 46.160156 22.398438 46.71875 22.238281 47.28125 22.238281 C 48.398438 22.320312 50.160156 22.800781 50.558594 23.121094 C 51.039062 23.601562 51.039062 23.839844 51.121094 24.238281 C 52.078125 25.039062 53.441406 24.878906 54.558594 25.121094 C 54.878906 26.078125 54.71875 27.199219 54.160156 27.921875 C 53.679688 28.640625 53.199219 28.71875 52.558594 28.800781 C 51.359375 28.960938 50.320312 28.480469 49.359375 28.878906 C 48.960938 29.039062 48.640625 29.199219 48.320312 29.601562 C 47.601562 30.398438 47.28125 31.761719 46.960938 32.960938 C 46.398438 35.121094 45.441406 36.878906 44.480469 38.800781 C 43.839844 40 43.679688 40.398438 43.28125 42.238281 C 43.199219 43.761719 43.199219 43.921875 43.199219 45.121094 C 43.28125 46.078125 43.359375 46.71875 43.359375 47.519531 C 43.679688 47.601562 44 47.441406 44.320312 47.679688 C 44.398438 47.761719 44.480469 47.839844 44.480469 47.839844 C 44.800781 48.320312 44.640625 49.121094 44.078125 49.199219 C 43.519531 49.359375 42.078125 49.28125 42.078125 49.28125 L 42.078125 50.160156 C 42.078125 50.160156 42.640625 50.078125 42.878906 50.160156 C 43.28125 50.320312 43.519531 50.71875 43.441406 51.121094 C 43.441406 51.441406 43.199219 51.761719 42.878906 51.921875 C 42.800781 51.921875 42.71875 52 42.640625 52 C 42 52 41.519531 52 40.960938 52 C 40.800781 52 40.480469 51.679688 40.480469 51.601562 C 40.078125 48 39.761719 43.921875 39.519531 40.960938 C 37.679688 41.121094 36.078125 40.960938 34.398438 40.320312 C 32.800781 39.679688 31.601562 38.558594 30.078125 37.839844 C 29.519531 37.601562 28.640625 37.679688 28.480469 38.160156 C 27.121094 41.28125 24.71875 44.320312 22.558594 46 C 22.398438 46.078125 22 46.640625 22 46.800781 C 22 47.359375 22.558594 48.480469 22.960938 49.519531 C 23.601562 49.441406 24.480469 49.441406 24.558594 50.238281 C 24.640625 50.558594 24.640625 50.71875 24.398438 50.960938 C 24.238281 51.199219 24 51.359375 23.761719 51.359375 C 23.121094 51.359375 22.558594 51.359375 22.078125 51.359375 C 21.839844 51.359375 21.679688 51.121094 21.601562 50.960938 C 20.960938 49.441406 20.398438 48.238281 19.839844 46.800781 C 19.441406 45.839844 20.078125 45.359375 20.238281 45.039062 C 20.800781 44 21.039062 43.28125 21.121094 42.238281 C 21.121094 42.238281 21.039062 42.238281 21.039062 42.238281 C 19.601562 43.761719 17.441406 45.359375 16.71875 45.921875 C 16.558594 46 15.839844 47.199219 15.839844 47.441406 C 15.839844 49.199219 15.839844 49.441406 15.839844 50.558594 C 16.078125 50.558594 16.480469 50.558594 16.640625 50.558594 C 17.121094 50.71875 17.199219 50.960938 17.199219 51.441406 C 17.199219 51.839844 17.039062 52 16.878906 52.160156 C 16.71875 52.238281 16.558594 52.320312 16.398438 52.320312 C 15.761719 52.320312 15.28125 52.320312 14.640625 52.320312 C 14.480469 52.320312 14.160156 52 14.160156 51.839844 C 14.078125 49.601562 14.078125 47.839844 14.078125 45.761719 C 14.078125 45.28125 14.480469 44.71875 15.039062 44.480469 C 17.28125 42.078125 18.878906 39.359375 20.078125 35.679688 C 19.519531 35.761719 19.359375 35.839844 18.960938 35.839844 C 18.238281 35.921875 17.601562 36 16.71875 35.921875 C 16.320312 35.921875 16.078125 35.921875 15.519531 35.839844 C 15.039062 35.761719 14.640625 35.601562 14.238281 35.441406 C 12.640625 34.71875 11.28125 33.441406 10.558594 31.839844 C 10.480469 31.601562 10.558594 31.28125 10.71875 31.121094 C 11.039062 30.878906 11.601562 30.800781 11.761719 31.199219 C 12.71875 32.800781 14.398438 34.160156 15.921875 34.238281 C 17.601562 34.398438 19.121094 33.921875 20.800781 33.121094 C 21.601562 32.238281 22.558594 31.28125 23.761719 30.878906 C 26 30.078125 28.558594 29.921875 30.800781 30.078125 C 32.878906 30.238281 34.878906 30.238281 36.960938 30.160156 C 37.761719 30.160156 38.558594 30 38.640625 30 C 40.160156 29.601562 41.121094 28.71875 41.921875 27.679688 C 42.558594 26.878906 42.878906 26.078125 43.601562 25.199219 C 44.160156 24.480469 44.480469 23.921875 44.960938 23.28125 C 45.199219 23.199219 45.441406 22.960938 45.761719 22.71875 Z M 45.761719 22.71875 "/>
<path style=" stroke:none;fill-rule:nonzero;fill:rgb(100%,80.000001%,0%);fill-opacity:1;" d="M 10.878906 8.320312 L 42.800781 26.71875 L 42.160156 27.679688 L 10.238281 9.359375 Z M 10.878906 8.320312 "/>
<path style=" stroke:none;fill-rule:nonzero;fill:rgb(0%,43.137255%,20%);fill-opacity:1;" d="M 42.800781 26.71875 L 48.160156 29.839844 C 48.160156 29.839844 48 30.078125 47.921875 30.238281 C 47.839844 30.398438 47.601562 30.800781 47.601562 30.800781 L 42.160156 27.679688 Z M 42.800781 26.71875 "/>
</g>
</svg>
