<?xml version="1.0" encoding="UTF-8"?>
<svg xmlns="http://www.w3.org/2000/svg" xmlns:xlink="http://www.w3.org/1999/xlink" width="68pt" height="68pt" viewBox="0 0 68 68" version="1.1">
<g id="surface6953">
<rect x="0" y="0" width="68" height="68" style="fill:rgb(0%,44.313726%,23.529412%);fill-opacity:1;stroke:none;"/>
<path style=" stroke:none;fill-rule:nonzero;fill:rgb(100%,86.666667%,0%);fill-opacity:1;" d="M 58.960938 30.398438 C 58.878906 29.359375 58.078125 28.558594 56.960938 28.398438 L 56.960938 24.800781 C 56.960938 24.160156 56.480469 23.679688 55.839844 23.679688 C 55.199219 23.679688 54.71875 24.160156 54.71875 24.800781 L 54.71875 28.320312 L 41.921875 28.320312 L 41.839844 27.839844 C 41.761719 27.441406 41.359375 27.121094 40.878906 27.121094 L 27.199219 27.121094 C 26.800781 27.121094 26.398438 27.441406 26.320312 27.839844 L 26.160156 28.320312 L 13.359375 28.320312 L 13.359375 24.800781 C 13.359375 24.160156 12.878906 23.679688 12.238281 23.679688 C 11.601562 23.679688 11.121094 24.160156 11.121094 24.800781 L 11.121094 28.398438 C 10 28.640625 9.199219 29.359375 9.121094 30.480469 C 9.039062 31.761719 9.441406 33.679688 10.480469 34.71875 C 10.960938 35.28125 11.601562 35.519531 12.238281 35.601562 C 12.878906 35.601562 13.519531 35.28125 14 34.71875 C 14.960938 33.679688 15.441406 31.761719 15.359375 30.480469 L 24.238281 30.480469 C 24.320312 30.71875 24.480469 30.960938 24.558594 31.121094 C 21.441406 33.199219 19.519531 36.640625 19.519531 40.480469 L 19.519531 44.878906 C 19.519531 45.519531 20.078125 46.078125 20.71875 46.078125 C 21.359375 46.078125 21.921875 45.519531 21.921875 44.878906 L 21.921875 40.480469 C 21.921875 37.601562 23.28125 34.960938 25.601562 33.28125 C 25.601562 33.28125 25.601562 33.28125 25.601562 33.359375 C 25.761719 33.761719 26.238281 34.078125 26.71875 34.078125 L 31.039062 34.078125 C 31.839844 34.878906 32.960938 35.28125 34.078125 35.28125 C 35.199219 35.28125 36.320312 34.878906 37.121094 34.078125 L 41.441406 34.078125 C 41.921875 34.078125 42.398438 33.761719 42.558594 33.359375 C 44.878906 35.039062 46.238281 37.679688 46.238281 40.558594 L 46.238281 44.960938 C 46.238281 45.601562 46.800781 46.160156 47.441406 46.160156 C 48.078125 46.160156 48.640625 45.601562 48.640625 44.960938 L 48.640625 40.558594 C 48.640625 36.800781 46.71875 33.28125 43.601562 31.199219 L 43.921875 30.558594 L 52.800781 30.558594 C 52.71875 31.839844 53.199219 33.761719 54.160156 34.800781 C 54.640625 35.359375 55.28125 35.601562 55.921875 35.679688 C 56.558594 35.679688 57.199219 35.359375 57.679688 34.800781 C 58.640625 33.601562 59.039062 31.679688 58.960938 30.398438 Z M 58.960938 30.398438 "/>
<path style=" stroke:none;fill-rule:nonzero;fill:rgb(100%,86.666667%,0%);fill-opacity:1;" d="M 10.238281 25.679688 C 10.558594 25.679688 2.800781 23.359375 2.800781 26 C 2.800781 28.640625 10.238281 27.039062 10.238281 27.039062 Z M 10.238281 25.679688 "/>
<path style=" stroke:none;fill-rule:nonzero;fill:rgb(100%,86.666667%,0%);fill-opacity:1;" d="M 14.398438 27.039062 C 14.398438 27.039062 21.839844 28.640625 21.839844 26 C 21.839844 23.359375 14.160156 25.679688 14.398438 25.679688 Z M 14.398438 27.039062 "/>
<path style=" stroke:none;fill-rule:nonzero;fill:rgb(100%,86.666667%,0%);fill-opacity:1;" d="M 53.601562 27.039062 L 53.601562 25.679688 C 53.921875 25.679688 46.160156 23.359375 46.160156 26 C 46.160156 28.71875 53.601562 27.039062 53.601562 27.039062 Z M 53.601562 27.039062 "/>
<path style=" stroke:none;fill-rule:nonzero;fill:rgb(100%,86.666667%,0%);fill-opacity:1;" d="M 57.761719 25.679688 L 57.761719 27.039062 C 57.761719 27.039062 65.199219 28.640625 65.199219 26 C 65.199219 23.359375 57.519531 25.679688 57.761719 25.679688 Z M 57.761719 25.679688 "/>
<path style=" stroke:none;fill-rule:nonzero;fill:rgb(89.019608%,2.352941%,7.450981%);fill-opacity:1;" d="M 6.167969 8.414062 L 8.429688 6.152344 L 61.828125 59.554688 L 59.566406 61.816406 Z M 6.167969 8.414062 "/>
</g>
</svg>
