<?xml version="1.0" encoding="UTF-8"?>
<svg xmlns="http://www.w3.org/2000/svg" xmlns:xlink="http://www.w3.org/1999/xlink" width="68pt" height="68pt" viewBox="0 0 68 68" version="1.1">
<g id="surface6830">
<rect x="0" y="0" width="68" height="68" style="fill:rgb(8.627451%,47.450981%,27.843139%);fill-opacity:1;stroke:none;"/>
<path style=" stroke:none;fill-rule:nonzero;fill:rgb(99.215686%,86.666667%,1.568628%);fill-opacity:1;" d="M 49.03125 57.933594 C 48.605469 56.976562 48.023438 56.175781 47.300781 55.566406 C 45.792969 54.292969 43.75 53.839844 41.121094 53.929688 C 41.855469 53.097656 42.304688 52.011719 42.304688 50.816406 C 42.304688 48.21875 40.195312 46.113281 37.601562 46.113281 C 36.09375 46.113281 34.773438 46.839844 33.914062 47.941406 C 33.527344 47.828125 33.125 47.746094 32.699219 47.746094 C 32.597656 47.746094 32.507812 47.769531 32.410156 47.773438 C 32.199219 47.632812 31.972656 47.515625 31.738281 47.40625 C 32.183594 46.507812 32.519531 45.78125 32.574219 45.546875 C 32.746094 44.777344 32.386719 44.332031 32.160156 44.132812 C 32.152344 44.125 32.148438 44.121094 32.140625 44.117188 C 31.414062 43.503906 30.160156 43.695312 29.78125 43.835938 C 27.402344 44.730469 26.050781 46.785156 25.324219 47.890625 C 25.296875 47.933594 25.265625 47.976562 25.238281 48.019531 C 23.472656 48.242188 21.191406 49.691406 20.289062 50.308594 C 19.511719 49.59375 18.992188 48.984375 18.207031 47.953125 C 16.523438 45.742188 16.558594 43.457031 17.304688 42.265625 C 17.828125 41.425781 18.679688 41.082031 19.703125 41.285156 C 24.234375 42.199219 28.222656 41.703125 30.648438 39.925781 C 31.765625 39.105469 32.4375 38.074219 32.550781 37.023438 C 32.648438 36.105469 32.371094 35.363281 31.726562 34.820312 C 31.386719 34.535156 30.953125 34.304688 30.394531 34.121094 C 29.992188 33.988281 29.527344 34.046875 28.753906 34.140625 C 27.042969 34.351562 23.855469 34.742188 18.363281 33.285156 C 15.359375 32.484375 12.78125 32.730469 10.738281 33.328125 C 10.738281 33.328125 6.847656 34.617188 4.578125 34.242188 C 4.550781 34.238281 4.523438 34.234375 4.5 34.230469 L 4.296875 35.988281 C 4.390625 35.992188 4.484375 35.996094 4.578125 36 C 6.746094 36.074219 9.617188 35.222656 9.617188 35.222656 C 12.441406 34.179688 15.003906 33.84375 18.003906 34.644531 C 23.753906 36.171875 27.121094 35.757812 28.925781 35.535156 C 29.347656 35.484375 29.828125 35.425781 29.953125 35.453125 C 30.875 35.761719 31.234375 36.101562 31.152344 36.875 C 31.085938 37.519531 30.597656 38.21875 29.816406 38.792969 C 28.820312 39.523438 25.867188 41.097656 19.980469 39.910156 C 18.390625 39.589844 16.945312 40.1875 16.113281 41.519531 C 15.085938 43.160156 14.992188 46.046875 17.089844 48.804688 C 18.089844 50.117188 18.71875 50.84375 20.011719 51.9375 C 20.566406 52.402344 21.253906 52.949219 22.378906 53.816406 C 24.921875 55.773438 29.609375 57.5 32.269531 56.851562 C 32.617188 56.765625 32.949219 56.6875 33.285156 56.609375 L 33.332031 56.6875 C 33.40625 56.640625 33.472656 56.59375 33.546875 56.546875 C 40.757812 54.871094 45.417969 54.601562 47.378906 57.796875 C 44.34375 58.726562 33.683594 61.984375 31.539062 62.558594 C 29.109375 63.210938 15.726562 59.054688 13.5 57.996094 C 13.257812 57.882812 12.953125 57.671875 12.597656 57.367188 C 10.671875 55.742188 7.675781 51.933594 4.578125 47.859375 L 4.578125 50.175781 C 7.320312 53.738281 9.902344 56.929688 11.691406 58.441406 C 12.148438 58.828125 12.542969 59.09375 12.898438 59.265625 C 14.75 60.148438 28.832031 64.738281 31.902344 63.914062 C 34.417969 63.242188 48.019531 59.070312 48.59375 58.894531 C 48.789062 58.832031 48.945312 58.695312 49.027344 58.511719 C 49.113281 58.328125 49.113281 58.121094 49.03125 57.933594 "/>
<path style=" stroke:none;fill-rule:nonzero;fill:rgb(92.941177%,10.980392%,14.117648%);fill-opacity:1;" d="M 61.875 59.578125 L 8.449219 6.152344 L 6.179688 8.421875 L 59.605469 61.847656 L 61.875 59.578125 "/>
<path style=" stroke:none;fill-rule:nonzero;fill:rgb(99.215686%,86.666667%,1.568628%);fill-opacity:1;" d="M 55.085938 10.507812 C 54.886719 8.675781 53.777344 7.273438 52.09375 6.613281 C 50.792969 6.101562 48.855469 5.472656 47.539062 6.21875 C 46.621094 6.738281 45.5625 6.972656 44.707031 7.597656 C 44.542969 7.722656 44.113281 8.207031 44.296875 8.445312 C 44.609375 8.851562 44.425781 8.976562 44.507812 9.476562 C 44.542969 9.671875 44.808594 9.953125 45.015625 9.953125 C 45.175781 9.953125 45.425781 10.375 45.617188 10.488281 C 46.273438 10.871094 46.617188 11.59375 47.292969 11.90625 C 46.707031 12.703125 46.148438 13.53125 45.636719 14.375 C 45.324219 14.886719 45.1875 15.40625 45.015625 15.972656 C 44.878906 16.433594 44.828125 17.132812 44.460938 17.472656 C 44.066406 17.832031 43.71875 18.035156 43.457031 18.507812 C 43.21875 18.945312 42.917969 19.261719 42.636719 19.65625 C 42.125 20.382812 41.984375 21.480469 42.46875 22.246094 C 42.453125 21.988281 42.628906 21.855469 42.574219 21.546875 C 42.761719 21.664062 42.980469 21.582031 43.183594 21.636719 C 42.921875 21.445312 43.046875 21.085938 43.316406 21.175781 C 43.613281 21.277344 43.535156 20.722656 43.597656 20.707031 C 43.894531 20.632812 43.792969 20.992188 43.695312 21.152344 C 43.398438 21.648438 43.484375 22.132812 43.875 22.496094 C 44.21875 22.816406 44.167969 21.972656 44.226562 21.726562 C 44.5 22.039062 44.398438 21.664062 44.441406 21.460938 C 44.507812 21.109375 44.910156 21.46875 44.988281 21.566406 C 45.371094 22.050781 44.941406 23.105469 44.882812 23.667969 C 44.734375 25.128906 45.046875 26.695312 45.277344 28.136719 C 45.398438 28.90625 45.65625 29.585938 45.96875 30.296875 C 46.210938 30.835938 46.632812 31.421875 46.621094 32.027344 C 46.605469 33.03125 46.761719 34.015625 47.140625 34.949219 C 47.46875 35.746094 48.015625 36.359375 48.441406 37.09375 C 47.863281 37.023438 47.207031 37.046875 46.628906 37.132812 C 45.882812 37.234375 45.644531 37.523438 45.160156 38.007812 C 45.359375 37.863281 45.371094 38.007812 45.574219 38.007812 C 45.765625 38.007812 45.464844 38.421875 45.410156 38.53125 C 45.4375 38.484375 46.421875 38.617188 46.589844 38.597656 C 47.175781 38.53125 47.664062 38.335938 48.257812 38.371094 C 48.925781 38.410156 49.585938 38.550781 50.257812 38.550781 C 51.691406 38.550781 53.078125 38.515625 54.484375 38.210938 C 55.164062 38.0625 55.839844 37.898438 56.519531 37.746094 C 57.039062 37.632812 57.507812 37.332031 58.046875 37.308594 C 59.140625 37.261719 60.320312 37.734375 61.394531 37.910156 C 62.082031 38.023438 65.488281 38.746094 65.695312 38.027344 C 65.746094 37.851562 65.417969 37.5 65.328125 37.355469 C 65.113281 37.011719 64.84375 36.773438 64.421875 36.753906 C 63.753906 36.722656 63.082031 36.5625 62.429688 36.417969 C 61.1875 36.140625 60.003906 35.722656 58.75 35.511719 C 59.207031 33.839844 59.53125 31.695312 59.101562 29.988281 C 58.488281 27.570312 58.734375 25.101562 57.796875 22.746094 C 57.078125 20.941406 56.058594 19.324219 56.136719 17.296875 C 56.175781 16.246094 56.167969 15.183594 56.066406 14.136719 C 55.941406 12.859375 55.21875 11.75 55.085938 10.507812 C 55.023438 9.941406 55.109375 10.738281 55.085938 10.507812 "/>
<path style=" stroke:none;fill-rule:nonzero;fill:rgb(8.627451%,47.450981%,27.843139%);fill-opacity:1;" d="M 48.8125 7.800781 C 48.8125 8.015625 48.640625 8.1875 48.425781 8.1875 C 48.207031 8.1875 48.035156 8.015625 48.035156 7.800781 C 48.035156 7.582031 48.207031 7.410156 48.425781 7.410156 C 48.640625 7.410156 48.8125 7.582031 48.8125 7.800781 "/>
</g>
</svg>
