<?xml version="1.0" encoding="UTF-8"?>
<svg xmlns="http://www.w3.org/2000/svg" xmlns:xlink="http://www.w3.org/1999/xlink" width="68pt" height="68pt" viewBox="0 0 68 68" version="1.1">
<g id="surface6816">
<rect x="0" y="0" width="68" height="68" style="fill:rgb(0%,44.313726%,23.529412%);fill-opacity:1;stroke:none;"/>
<path style=" stroke:none;fill-rule:nonzero;fill:rgb(100%,86.666667%,0%);fill-opacity:1;" d="M 26.480469 20.640625 C 26.878906 19.679688 27.519531 18.640625 28.160156 18.078125 C 28.320312 18 28.398438 18.078125 28.480469 18.238281 C 28.558594 19.921875 28.960938 21.359375 30.078125 22.800781 C 30.160156 22.878906 30.320312 22.800781 30.320312 22.71875 C 30.398438 22.558594 30.398438 22.480469 30.398438 22.320312 C 30.238281 20.878906 30.320312 19.441406 30.71875 18.078125 C 31.28125 16.238281 32.160156 14.960938 33.359375 13.359375 C 33.839844 12.800781 34.078125 11.839844 34.160156 11.121094 C 34.238281 10.398438 34.320312 9.761719 34.160156 8.960938 C 34.160156 8.640625 34.320312 8.480469 34.398438 8.558594 C 34.800781 8.800781 34.960938 9.121094 35.441406 10 C 35.921875 10.878906 36.078125 11.839844 36.160156 12.800781 C 36.238281 14.160156 36 15.519531 36.160156 16.878906 C 36.160156 17.28125 36.238281 17.761719 36.558594 18.398438 C 36.640625 18.480469 36.71875 18.480469 36.71875 18.480469 C 36.71875 18.480469 36.800781 18 36.878906 17.679688 C 37.039062 17.359375 37.441406 16.878906 37.601562 16.71875 C 37.839844 16.558594 38.398438 16.398438 38.320312 16.800781 C 38.238281 17.199219 38.160156 18 38.078125 18.480469 C 38 19.441406 38.160156 21.28125 38.558594 22.238281 C 39.519531 24.640625 39.761719 26.398438 39.761719 27.359375 C 39.761719 27.519531 40 27.601562 40.160156 27.441406 C 41.359375 25.921875 41.839844 24.558594 42.238281 22.800781 C 42.320312 22.558594 42.558594 22.558594 42.640625 22.800781 C 43.039062 24.238281 43.199219 25.679688 43.199219 27.121094 C 43.28125 29.121094 43.121094 30.558594 42.960938 33.039062 C 42.960938 33.199219 43.199219 33.359375 43.359375 33.199219 C 44.078125 32.398438 44.398438 32.160156 45.28125 31.679688 C 45.359375 31.601562 45.519531 31.679688 45.519531 31.839844 C 45.441406 32.480469 45.28125 32.640625 45.121094 33.601562 C 45.039062 34 45.039062 34.160156 45.039062 34.480469 C 45.039062 35.839844 45.199219 36.960938 45.039062 38.480469 C 44.800781 40.480469 44.398438 41.921875 43.441406 43.441406 C 42.320312 45.121094 40.480469 46.320312 38.558594 46.480469 C 38.238281 46.480469 38.238281 46.238281 38.398438 46.078125 C 39.519531 45.039062 40.320312 43.839844 40.960938 42.480469 C 41.28125 41.679688 41.601562 40.71875 41.761719 40.160156 C 42 39.199219 42 38.238281 42 37.359375 C 42 37.28125 41.921875 37.199219 41.839844 37.28125 C 41.121094 37.761719 40.640625 38.160156 40.480469 37.601562 C 40.558594 36 40.558594 34.640625 40.320312 33.039062 C 40.238281 32.800781 39.839844 32.800781 39.839844 33.121094 C 39.761719 35.601562 39.199219 37.921875 37.761719 40.238281 C 37.601562 40.558594 37.359375 40.320312 37.359375 40.160156 C 37.519531 37.359375 37.28125 34 36.640625 31.761719 C 36.558594 31.519531 36.398438 30.960938 36 30.640625 C 35.679688 31.039062 35.28125 31.761719 35.039062 32.398438 C 34.878906 32.878906 34.640625 33.839844 34.480469 34.480469 C 34.238281 35.199219 34.238281 35.761719 34 36.398438 C 33.921875 36.640625 33.601562 36.480469 33.601562 36.320312 C 32.878906 34.558594 32.71875 33.519531 32.640625 32 C 32.558594 30.320312 32.71875 28.398438 33.039062 27.121094 C 33.121094 26.960938 32.960938 26.878906 32.878906 27.039062 C 31.839844 28.480469 31.519531 29.28125 31.039062 31.121094 C 30.800781 31.921875 30.558594 33.519531 30.480469 34.878906 C 30.480469 35.121094 30.160156 35.121094 30.078125 34.960938 C 29.441406 33.839844 29.28125 33.601562 28.960938 32.878906 C 28.878906 32.71875 28.800781 32.71875 28.71875 32.800781 C 28.320312 33.601562 28.238281 33.839844 28 34.640625 C 27.601562 35.839844 27.679688 36.71875 27.679688 38.238281 C 27.679688 38.398438 27.441406 38.480469 27.28125 38.238281 C 27.039062 37.839844 26.960938 37.441406 26.558594 37.28125 C 26.398438 37.679688 26.398438 38.480469 26.558594 39.679688 C 26.640625 40.480469 26.960938 41.28125 27.199219 42 C 27.921875 43.679688 28.878906 45.039062 30.078125 46.480469 C 30.320312 46.71875 30 46.800781 29.679688 46.878906 C 27.601562 47.039062 25.679688 46.078125 24 44.800781 C 21.761719 43.121094 20.71875 40.558594 20.640625 37.921875 C 20.640625 37.679688 20.800781 37.679688 20.960938 37.761719 C 21.679688 38 22.398438 38.160156 23.121094 38.160156 C 23.121094 38.160156 23.28125 38.238281 23.28125 38.320312 C 23.601562 39.28125 24 40.160156 24.878906 40.878906 C 24.960938 40.960938 25.039062 40.878906 25.039062 40.800781 C 24.878906 40 24.71875 39.199219 24.640625 38.398438 C 24.480469 37.28125 24.480469 36.320312 24.480469 35.28125 C 24.480469 35.28125 24.558594 34.960938 24.238281 35.199219 C 24 35.359375 23.601562 35.839844 23.28125 36.71875 C 23.199219 36.800781 22.960938 36.878906 22.960938 36.71875 C 22 34.558594 21.839844 32.640625 21.761719 30.558594 C 21.761719 29.839844 21.761719 29.121094 21.839844 28.398438 C 21.921875 26.878906 22.160156 25.519531 22.480469 24 C 22.558594 23.761719 22.800781 23.679688 22.878906 23.921875 C 23.039062 24.480469 23.199219 24.878906 23.359375 25.359375 C 23.519531 25.839844 23.761719 26.398438 24 26.800781 C 24.238281 27.359375 25.121094 28.878906 26 29.601562 C 26.160156 29.679688 26.320312 29.601562 26.320312 29.441406 C 25.519531 26.398438 25.359375 23.441406 26.480469 20.640625 Z M 26.480469 20.640625 "/>
<path style=" stroke:none;fill-rule:nonzero;fill:rgb(100%,86.666667%,0%);fill-opacity:1;" d="M 17.519531 45.28125 C 23.921875 46.878906 28.398438 48.078125 33.921875 49.441406 C 39.519531 48 44.160156 46.640625 50.398438 45.039062 C 50.960938 44.878906 51.839844 45.199219 52.398438 45.921875 C 53.199219 46.960938 52.71875 48.71875 51.441406 49.121094 C 49.441406 49.761719 45.839844 50.558594 42.238281 51.601562 C 46.160156 52.800781 49.921875 53.519531 53.921875 54.640625 C 54.398438 54.800781 54.800781 55.199219 54.960938 55.519531 C 55.28125 56.078125 55.359375 56.558594 55.121094 57.28125 C 54.878906 58.078125 54.238281 58.480469 53.28125 58.640625 C 53.039062 58.640625 52.878906 58.640625 52.640625 58.558594 C 46.238281 56.960938 40.238281 55.441406 34.078125 53.761719 C 27.761719 55.441406 21.761719 57.121094 15.28125 58.800781 C 14.480469 59.039062 13.601562 58.480469 13.199219 57.839844 C 12.558594 56.800781 12.960938 55.359375 14.078125 54.878906 C 17.839844 53.761719 21.441406 52.878906 25.519531 51.761719 C 25.601562 51.761719 25.601562 51.679688 25.601562 51.679688 C 23.28125 51.121094 21.28125 50.558594 18.71875 49.921875 C 17.921875 49.679688 17.199219 49.519531 16.320312 49.28125 C 16.078125 49.199219 15.839844 48.960938 15.679688 48.800781 C 15.121094 48.238281 14.960938 47.359375 15.28125 46.558594 C 15.601562 45.679688 16.640625 45.039062 17.519531 45.28125 Z M 17.519531 45.28125 "/>
<path style=" stroke:none;fill-rule:nonzero;fill:rgb(0%,44.313726%,23.529412%);fill-opacity:1;" d="M 33.121094 18.398438 C 32.878906 19.359375 32.480469 21.199219 33.039062 22.640625 C 33.441406 23.679688 34.160156 24.558594 34.878906 25.359375 C 35.121094 25.601562 35.28125 25.519531 35.441406 25.28125 C 34.480469 23.199219 34.078125 20.960938 34 18.71875 C 34 18.320312 34 18 33.839844 17.601562 C 33.761719 17.441406 33.519531 17.441406 33.441406 17.601562 C 33.28125 17.761719 33.199219 18.078125 33.121094 18.398438 Z M 33.121094 18.398438 "/>
<path style=" stroke:none;fill-rule:nonzero;fill:rgb(89.019608%,2.352941%,7.450981%);fill-opacity:1;" d="M 6.164062 8.429688 L 8.425781 6.167969 L 61.828125 59.566406 L 59.566406 61.832031 Z M 6.164062 8.429688 "/>
</g>
</svg>
