<?xml version="1.0" encoding="UTF-8"?>
<svg xmlns="http://www.w3.org/2000/svg" xmlns:xlink="http://www.w3.org/1999/xlink" width="68pt" height="68pt" viewBox="0 0 68 68" version="1.1">
<g id="surface6813">
<rect x="0" y="0" width="68" height="68" style="fill:rgb(0%,44.313726%,23.529412%);fill-opacity:1;stroke:none;"/>
<path style=" stroke:none;fill-rule:nonzero;fill:rgb(100%,86.666667%,0%);fill-opacity:1;" d="M 6.078125 40.558594 C 9.921875 38.160156 14.71875 35.921875 18 35.039062 C 23.359375 33.601562 29.359375 33.839844 35.121094 35.039062 C 36.878906 35.441406 38.558594 35.921875 40.238281 36.480469 C 41.039062 36.800781 41.839844 37.039062 42.71875 37.441406 C 43.359375 37.679688 44 38 44.71875 38.238281 C 46.160156 38.878906 47.519531 39.519531 48.960938 40.320312 C 53.199219 38.160156 57.601562 35.921875 61.839844 33.761719 C 59.761719 36.71875 57.519531 39.519531 55.441406 42.398438 C 57.601562 45.199219 59.761719 48.238281 61.921875 51.039062 C 60.480469 50.398438 58.960938 49.601562 57.519531 48.878906 C 54.558594 47.519531 51.839844 46 48.960938 44.558594 C 45.28125 46.640625 41.441406 48.320312 37.28125 49.441406 C 35.121094 50 32.960938 50.398438 30.71875 50.71875 C 29.359375 50.878906 28 50.960938 26.640625 51.039062 C 24.238281 51.121094 21.839844 50.960938 19.359375 50.480469 C 18.160156 50.238281 17.039062 49.921875 15.921875 49.519531 C 15.761719 49.441406 15.519531 49.359375 15.28125 49.28125 C 12.71875 48.320312 10.398438 47.28125 8 45.921875 C 7.441406 45.601562 6.800781 45.28125 6.238281 44.878906 C 7.601562 44.160156 9.121094 43.441406 10.558594 42.71875 C 9.839844 42.320312 6.480469 40.800781 6.078125 40.558594 Z M 6.078125 40.558594 "/>
<path style=" stroke:none;fill-rule:nonzero;fill:rgb(100%,86.666667%,0%);fill-opacity:1;" d="M 14.878906 22.078125 C 13.519531 24.640625 11.921875 27.441406 10.480469 29.921875 C 10.480469 28.71875 10.480469 26.640625 10.480469 26.640625 C 9.519531 27.359375 8.878906 27.679688 8.640625 27.839844 C 7.679688 28.558594 7.359375 30.238281 7.921875 31.519531 C 8.800781 33.601562 11.039062 34.480469 13.039062 33.519531 C 13.441406 33.359375 13.761719 33.121094 14.078125 32.878906 C 18.398438 28.480469 22.480469 24.320312 26.71875 20 C 26.558594 19.761719 26.398438 19.28125 26.398438 18.878906 C 26.398438 18.558594 26.480469 18.238281 26.558594 17.921875 C 26.800781 17.359375 27.28125 16.960938 27.921875 16.71875 C 28.640625 16.558594 29.359375 16.640625 29.921875 17.121094 C 32.320312 14.398438 35.519531 12.078125 38.960938 10.480469 C 46.078125 7.121094 54 6.558594 61.679688 6.640625 C 61.679688 6.878906 61.679688 7.199219 61.679688 7.441406 C 55.601562 7.441406 49.601562 7.761719 43.679688 9.519531 C 41.121094 10.320312 38.71875 11.359375 36.320312 12.800781 C 35.199219 13.441406 34.238281 14.160156 33.28125 14.878906 C 31.519531 16.320312 30.480469 17.601562 30.480469 17.601562 C 30.800781 18.160156 30.800781 18.878906 30.640625 19.441406 C 30.398438 20.160156 29.839844 20.640625 29.121094 20.800781 C 28.71875 20.878906 28.320312 20.878906 27.839844 20.71875 C 23.28125 25.28125 17.921875 30.800781 14.480469 34.078125 C 12.640625 35.601562 10 35.601562 8.078125 34.078125 C 6.160156 32.480469 5.601562 29.679688 6.878906 27.601562 C 7.039062 27.28125 7.601562 26.71875 7.921875 26.480469 C 10.398438 25.039062 12.320312 23.679688 14.878906 22.078125 Z M 14.878906 22.078125 "/>
<path style=" stroke:none;fill-rule:nonzero;fill:rgb(0%,44.313726%,23.529412%);fill-opacity:1;" d="M 16.878906 41.839844 C 17.679688 41.839844 18.320312 41.199219 18.320312 40.398438 C 18.320312 39.601562 17.679688 38.960938 16.878906 38.960938 C 16.078125 38.960938 15.441406 39.601562 15.441406 40.398438 C 15.519531 41.199219 16.160156 41.839844 16.878906 41.839844 Z M 16.878906 41.839844 "/>
<path style=" stroke:none;fill-rule:nonzero;fill:rgb(0%,44.313726%,23.529412%);fill-opacity:1;" d="M 29.601562 18.878906 C 29.601562 19.453125 29.132812 19.921875 28.558594 19.921875 C 27.984375 19.921875 27.519531 19.453125 27.519531 18.878906 C 27.519531 18.304688 27.984375 17.839844 28.558594 17.839844 C 29.132812 17.839844 29.601562 18.304688 29.601562 18.878906 Z M 29.601562 18.878906 "/>
<path style=" stroke:none;fill-rule:nonzero;fill:rgb(89.019608%,2.352941%,7.450981%);fill-opacity:1;" d="M 6.164062 8.429688 L 8.425781 6.167969 L 61.828125 59.566406 L 59.566406 61.832031 Z M 6.164062 8.429688 "/>
</g>
</svg>
