<?xml version="1.0" encoding="UTF-8"?>
<svg xmlns="http://www.w3.org/2000/svg" xmlns:xlink="http://www.w3.org/1999/xlink" width="68pt" height="68pt" viewBox="0 0 68 68" version="1.1">
<g id="surface6890">
<rect x="0" y="0" width="68" height="68" style="fill:rgb(0%,44.313726%,23.529412%);fill-opacity:1;stroke:none;"/>
<path style=" stroke:none;fill-rule:nonzero;fill:rgb(100%,86.666667%,0%);fill-opacity:1;" d="M 5.921875 30.71875 C 20.558594 25.199219 34.558594 20 48.800781 14.558594 C 52.640625 21.921875 56.558594 29.039062 60.398438 36.558594 C 60.640625 36.960938 60.558594 37.28125 60.398438 37.601562 C 60.078125 38.160156 59.601562 38.320312 58.960938 38.160156 C 58.71875 38.078125 58.480469 37.839844 58.320312 37.601562 C 57.839844 36.71875 57.519531 35.921875 56.960938 35.039062 C 56.398438 34.160156 55.921875 33.519531 55.121094 32.878906 C 53.199219 31.121094 50.71875 29.921875 48 29.441406 C 44.640625 28.878906 40.960938 29.921875 38.160156 31.28125 C 36.960938 31.839844 36.320312 32.238281 35.359375 32.878906 C 33.441406 34.160156 31.921875 35.761719 30.558594 37.28125 C 30.558594 36.480469 30.480469 35.601562 30.320312 34.800781 C 30.160156 34.238281 30.078125 33.839844 29.839844 33.359375 C 29.679688 32.960938 29.441406 32.640625 29.199219 32.238281 C 28.640625 31.28125 27.921875 30.558594 27.039062 30 C 25.839844 29.28125 24.558594 28.71875 23.441406 28.480469 C 21.359375 28 18.878906 28.238281 17.28125 28.800781 C 13.679688 30.160156 10.320312 31.441406 6.71875 32.800781 C 6.320312 32.960938 5.519531 32.71875 5.359375 31.921875 C 5.28125 31.359375 5.601562 30.878906 5.921875 30.71875 Z M 5.921875 30.71875 "/>
<path style=" stroke:none;fill-rule:nonzero;fill:rgb(100%,86.666667%,0%);fill-opacity:1;" d="M 42 34.078125 C 42.800781 34.078125 43.519531 33.441406 43.519531 32.558594 C 43.519531 31.679688 42.878906 31.039062 42 31.039062 C 41.199219 31.039062 40.480469 31.679688 40.480469 32.558594 C 40.480469 33.441406 41.121094 34.078125 42 34.078125 Z M 42 34.078125 "/>
<path style=" stroke:none;fill-rule:nonzero;fill:rgb(100%,86.666667%,0%);fill-opacity:1;" d="M 38.558594 34.960938 C 38.800781 34.640625 39.28125 34.398438 39.601562 34.398438 C 40.71875 34.558594 42 34.71875 42.558594 34.800781 C 43.761719 35.039062 43.761719 36.800781 44.238281 37.519531 C 44.960938 37.121094 45.601562 36.71875 46.398438 36.320312 C 46.558594 36.238281 46.800781 36.238281 47.039062 36.320312 C 47.359375 36.398438 47.519531 36.640625 47.601562 36.960938 C 47.679688 37.28125 47.519531 37.761719 47.199219 37.921875 C 45.921875 38.640625 45.039062 39.121094 43.839844 39.761719 C 42.480469 40.160156 42.320312 38.960938 41.921875 38.078125 C 41.839844 37.921875 41.679688 37.679688 41.441406 37.921875 C 40.878906 38.878906 40.238281 40.160156 39.839844 40.398438 C 39.761719 40.480469 38.878906 40.960938 37.921875 41.441406 C 36.960938 42 36 42.480469 35.839844 42.480469 C 35.441406 42.640625 32.078125 42.800781 30.160156 42.878906 C 30.160156 43.28125 30.078125 43.519531 30 43.839844 C 29.921875 44 29.839844 44.160156 29.679688 44.160156 C 29.28125 44.320312 28.878906 44.238281 28.558594 43.921875 C 28.558594 43.839844 28.480469 43.761719 28.480469 43.679688 C 28.398438 43.199219 28.398438 42.800781 28.398438 42.320312 C 28.398438 41.839844 28.320312 41.441406 28.398438 41.199219 C 28.480469 40.878906 28.878906 40.480469 29.359375 40.398438 C 30.800781 40.238281 32.238281 40.160156 33.679688 40.078125 C 34.320312 39.679688 34.960938 39.519531 35.601562 39.121094 C 36.640625 37.839844 37.519531 36.558594 38.558594 34.960938 Z M 38.558594 34.960938 "/>
<path style=" stroke:none;fill-rule:nonzero;fill:rgb(89.019608%,2.352941%,7.450981%);fill-opacity:1;" d="M 6.164062 8.429688 L 8.425781 6.167969 L 61.828125 59.566406 L 59.566406 61.832031 Z M 6.164062 8.429688 "/>
</g>
</svg>
