<?xml version="1.0" encoding="UTF-8"?>
<svg xmlns="http://www.w3.org/2000/svg" xmlns:xlink="http://www.w3.org/1999/xlink" width="68pt" height="68pt" viewBox="0 0 68 68" version="1.1">
<g id="surface6887">
<rect x="0" y="0" width="68" height="68" style="fill:rgb(0%,44.313726%,23.529412%);fill-opacity:1;stroke:none;"/>
<path style=" stroke:none;fill-rule:nonzero;fill:rgb(100%,86.666667%,0%);fill-opacity:1;" d="M 45.761719 19.359375 C 48.160156 18 50.71875 17.28125 53.441406 17.121094 C 55.121094 17.039062 57.519531 17.199219 58.640625 17.679688 C 58.960938 17.761719 59.199219 17.761719 59.441406 17.839844 C 59.679688 17.839844 59.761719 18.160156 59.679688 18.320312 C 59.441406 18.640625 59.121094 18.878906 58.71875 19.039062 C 58.558594 19.121094 58.480469 19.28125 58.480469 19.359375 C 58.480469 21.121094 58.640625 22.398438 57.921875 23.761719 C 57.839844 23.921875 57.761719 24.160156 57.761719 24.398438 C 57.679688 25.519531 57.601562 26.640625 57.28125 27.761719 C 57.121094 28.238281 56.960938 28.71875 56.558594 29.039062 C 55.921875 29.679688 54.960938 29.761719 54.398438 29.121094 C 53.761719 29.28125 52.960938 29.441406 52.320312 29.441406 C 51.359375 29.441406 50.398438 29.359375 49.359375 29.039062 C 49.199219 29.601562 48.878906 30.71875 48.878906 30.878906 C 49.039062 32.160156 49.039062 32.480469 48.558594 33.601562 C 48.480469 33.761719 48.558594 33.921875 48.71875 34 C 49.519531 34.398438 50.320312 34.640625 51.121094 34.960938 C 51.921875 35.199219 52.800781 35.359375 53.199219 35.519531 C 53.441406 35.601562 53.679688 35.839844 53.679688 36.238281 C 53.441406 39.199219 53.359375 42 53.28125 45.121094 C 53.28125 45.679688 52.640625 45.761719 52.558594 46.160156 C 52.480469 46.558594 52.71875 46.800781 52.558594 47.28125 C 52.398438 47.761719 52.078125 48.398438 51.679688 48.878906 C 51.601562 48.960938 51.359375 49.039062 51.28125 48.960938 C 50.71875 48.238281 50.238281 47.519531 49.679688 46.71875 C 49.679688 46.640625 49.601562 46.558594 49.679688 46.480469 C 49.921875 46.078125 50.238281 45.921875 50.800781 45.839844 C 51.121094 45.761719 51.441406 45.359375 51.359375 44.878906 C 51.359375 44.800781 51.28125 44.640625 51.28125 44.398438 C 51.359375 44.078125 51.679688 44.078125 51.601562 43.921875 C 51.519531 41.839844 51.519531 39.839844 51.441406 37.761719 C 51.441406 37.601562 51.359375 37.519531 51.121094 37.519531 C 48.878906 37.039062 47.441406 36.800781 45.519531 36.71875 C 44.878906 38.640625 44.398438 39.839844 43.921875 41.441406 C 43.199219 43.921875 42.878906 46.320312 42.078125 48.800781 C 42 48.960938 42.238281 49.039062 42.320312 49.121094 C 42.398438 49.28125 42.480469 49.441406 42.480469 49.679688 C 42.558594 49.839844 42.640625 50 42.800781 50 C 43.441406 49.921875 43.761719 50.160156 44.078125 50.640625 C 44.398438 51.121094 44.558594 51.441406 44.558594 51.921875 C 44.558594 52 44.480469 52.078125 44.398438 52.078125 C 43.441406 52.078125 42.558594 52.078125 41.679688 52.078125 C 41.601562 52.078125 41.519531 52 41.519531 51.839844 C 41.441406 51.28125 41.601562 50.800781 41.359375 50.238281 C 41.199219 49.839844 40.878906 49.761719 40.398438 49.761719 C 40.238281 49.761719 40.160156 49.601562 40.238281 49.441406 C 40.558594 48.078125 40.71875 46.878906 40.878906 45.441406 C 40.960938 44.640625 41.039062 43.839844 41.121094 43.039062 C 41.199219 42.078125 41.359375 41.039062 41.519531 40.078125 C 41.601562 39.121094 41.761719 38.238281 41.679688 37.359375 C 41.679688 37.121094 41.441406 36.960938 41.28125 36.960938 C 40.238281 37.039062 39.28125 37.28125 38.160156 37.28125 C 37.441406 37.28125 36.71875 37.359375 36 37.28125 C 33.359375 37.121094 31.519531 36.558594 29.28125 35.601562 C 28.878906 35.441406 28.238281 35.359375 27.839844 35.601562 C 27.519531 35.761719 27.441406 36 27.359375 36.398438 C 27.199219 37.601562 27.199219 38.160156 27.039062 39.28125 C 26.960938 40.398438 26.800781 41.359375 26.800781 42.480469 C 26.800781 42.640625 26.878906 42.878906 26.960938 42.960938 C 27.921875 44.558594 28.878906 45.921875 29.921875 47.441406 C 30.238281 47.921875 30.71875 48.320312 31.199219 48.558594 C 31.679688 48.800781 31.441406 49.199219 31.519531 49.519531 C 31.601562 49.761719 32 49.761719 32.320312 49.839844 C 33.121094 50 33.359375 51.039062 33.679688 51.679688 C 33.761719 51.839844 33.601562 52.078125 33.519531 52.078125 C 32.558594 52.078125 31.601562 52.078125 30.640625 52.078125 C 30.480469 52.078125 30.398438 52 30.398438 51.921875 C 30.320312 51.519531 30.320312 51.039062 30.398438 50.800781 C 30.398438 50.71875 30.398438 50.640625 30.398438 50.480469 C 30.320312 50.078125 30.078125 49.921875 29.921875 49.921875 C 29.679688 49.921875 29.519531 50.078125 29.359375 50.078125 C 29.199219 50.078125 29.121094 50 29.039062 49.839844 C 27.839844 47.039062 26.160156 44.878906 24.078125 42.480469 C 23.921875 42.320312 23.921875 42.160156 23.839844 42 C 23.441406 40.398438 23.28125 38.878906 23.039062 37.359375 C 22.160156 37.839844 21.359375 38.160156 20.398438 38.398438 C 19.601562 38.640625 18.71875 39.121094 18 39.761719 C 16.960938 40.71875 16.320312 42.078125 15.519531 43.359375 C 14.878906 44.480469 14.558594 45.28125 13.679688 46.640625 C 13.441406 46.960938 13.121094 47.441406 13.199219 47.601562 C 13.28125 48.160156 13.199219 48.320312 12.878906 48.71875 C 12.800781 48.800781 12.960938 49.039062 13.039062 49.199219 C 13.359375 49.441406 13.921875 49.519531 14.238281 49.921875 C 14.558594 50.320312 14.71875 50.71875 14.878906 51.199219 C 14.960938 51.441406 14.800781 51.601562 14.558594 51.601562 C 13.359375 51.601562 12.558594 51.601562 11.441406 51.601562 C 11.28125 51.601562 11.121094 51.441406 11.121094 51.28125 C 11.121094 50.800781 11.121094 50.558594 11.121094 50 C 11.359375 49.679688 11.519531 49.121094 11.28125 48.878906 C 10.878906 48.398438 10.878906 48 11.121094 47.519531 C 12.480469 45.359375 13.601562 43.359375 14.320312 40.960938 C 14.320312 40.800781 14.398438 40.558594 14.398438 40.398438 C 14.480469 40 14.398438 39.761719 14.398438 39.679688 C 14.320312 39.28125 14.398438 39.039062 14.878906 38.71875 C 15.039062 38.640625 15.199219 38.480469 15.441406 38.078125 C 15.761719 37.519531 15.921875 36.960938 15.921875 36.398438 C 16 35.601562 15.921875 34.878906 15.761719 34.078125 C 15.679688 33.28125 15.28125 32.320312 15.28125 31.761719 C 15.28125 29.839844 16.480469 28.160156 17.519531 26.558594 C 17.121094 26.238281 16.558594 26.238281 16 26.320312 C 15.199219 26.480469 14.71875 27.039062 14.398438 27.761719 C 13.679688 29.441406 14.160156 31.28125 14.078125 33.121094 C 14 35.199219 13.199219 37.199219 12.078125 39.039062 C 11.519531 40 10.71875 40.878906 9.921875 41.441406 C 9.441406 41.839844 8.71875 42.160156 8.160156 42.078125 C 7.839844 42 7.839844 41.601562 8 41.359375 C 8.800781 40.078125 9.601562 38.960938 9.921875 37.441406 C 10.160156 36.480469 10.320312 35.519531 10.398438 34.558594 C 10.398438 33.441406 10.320312 32.398438 10.480469 31.28125 C 10.71875 28.960938 11.761719 26.71875 13.839844 25.441406 C 15.28125 24.558594 17.121094 24.480469 18.160156 25.679688 C 19.359375 24.800781 20.320312 24.238281 21.679688 23.921875 C 24.238281 23.359375 26.800781 23.839844 29.121094 24.480469 C 28.960938 24.160156 28.878906 24 28.878906 23.761719 C 28.878906 22.960938 29.679688 22.398438 30.878906 23.039062 C 32.078125 23.679688 33.519531 24.078125 35.121094 24.238281 C 36.558594 24.398438 37.679688 24.238281 38.960938 23.761719 C 39.441406 23.601562 39.679688 23.761719 39.679688 24.238281 C 39.679688 24.320312 39.761719 24.320312 39.839844 24.238281 C 41.761719 22.160156 43.519531 20.640625 45.761719 19.359375 Z M 45.761719 19.359375 "/>
<path style=" stroke:none;fill-rule:nonzero;fill:rgb(0%,44.313726%,23.529412%);fill-opacity:1;" d="M 49.519531 28.320312 C 50.800781 28.71875 52.640625 28.800781 54.078125 28.480469 C 54 28.078125 54 27.839844 54 27.679688 C 53.761719 27.28125 53.601562 26.558594 53.28125 26.320312 C 53.121094 26.238281 53.039062 26.320312 52.640625 25.839844 C 52.320312 25.519531 52.238281 24.878906 51.839844 24.238281 C 51.679688 24 51.28125 23.921875 51.121094 24.160156 C 50.480469 25.199219 49.839844 26.960938 49.519531 28.320312 Z M 49.519531 28.320312 "/>
<path style=" stroke:none;fill-rule:nonzero;fill:rgb(89.019608%,2.352941%,7.450981%);fill-opacity:1;" d="M 8.824219 11.089844 L 11.085938 8.828125 L 59.167969 56.910156 L 56.90625 59.171875 Z M 8.824219 11.089844 "/>
</g>
</svg>
