<?xml version="1.0" encoding="UTF-8" standalone="no"?>
<!-- Generator: Adobe Illustrator 27.6.1, SVG Export Plug-In . SVG Version: 6.00 Build 0)  -->

<svg
   xmlns:dc="http://purl.org/dc/elements/1.1/"
   xmlns:cc="http://creativecommons.org/ns#"
   xmlns:rdf="http://www.w3.org/1999/02/22-rdf-syntax-ns#"
   xmlns:svg="http://www.w3.org/2000/svg"
   xmlns="http://www.w3.org/2000/svg"
   xmlns:sodipodi="http://sodipodi.sourceforge.net/DTD/sodipodi-0.dtd"
   xmlns:inkscape="http://www.inkscape.org/namespaces/inkscape"
   version="1.1"
   id="Calque_1"
   x="0px"
   y="0px"
   viewBox="0 0 85 85"
   xml:space="preserve"
   sodipodi:docname="052.svg"
   width="85"
   height="85"
   inkscape:version="0.92.5 (2060ec1f9f, 2020-04-08)"><metadata
   id="metadata21"><rdf:RDF><cc:Work
       rdf:about=""><dc:format>image/svg+xml</dc:format><dc:type
         rdf:resource="http://purl.org/dc/dcmitype/StillImage" /></cc:Work></rdf:RDF></metadata><defs
   id="defs19" /><sodipodi:namedview
   pagecolor="#ffffff"
   bordercolor="#666666"
   borderopacity="1"
   objecttolerance="10"
   gridtolerance="10"
   guidetolerance="10"
   inkscape:pageopacity="0"
   inkscape:pageshadow="2"
   inkscape:window-width="882"
   inkscape:window-height="480"
   id="namedview17"
   showgrid="false"
   inkscape:zoom="0.2979798"
   inkscape:cx="46.5"
   inkscape:cy="32.5"
   inkscape:window-x="54"
   inkscape:window-y="27"
   inkscape:window-maximized="0"
   inkscape:current-layer="Calque_1" />
<style
   type="text/css"
   id="style2">
	.st0{fill:#00713C;}
	.st1{fill:#FFDD00;}
	.st2{fill:#E30613;}
</style>
<rect
   x="0"
   y="0"
   class="st0"
   width="85"
   height="85"
   id="rect4"
   style="fill:#00713c" />
<path
   class="st1"
   d="m 14.8,33.9 c 1.2,-1.2 2.2,-1.8 3.8,-2.3 2.2,-0.7 4.8,-0.5 7,0.7 0.1,0 0.2,0 0.3,0 0.2,-0.2 0.3,-0.5 0.5,-0.7 0.1,-0.2 0.4,-0.3 0.8,-0.2 3,1 6.1,2.2 9.2,3.3 0.8,0.2 1.6,0.4 2.5,0.6 0.9,0.2 1.8,0.1 2.7,-0.2 2.1,-0.8 4.2,-1.8 6.2,-3.2 2.1,-1.5 3.8,-3 5.9,-4.6 0.4,-0.2 0.8,-0.2 1.2,-0.4 C 54.6,26.2 54.6,25.5 54.2,25.1 53.9,24.8 52.1,24.2 51.3,23.9 51,23.7 50.9,23.2 51,23 c 0.1,-0.3 0.4,-0.6 0.9,-0.5 0.8,0.3 1.8,0.6 2.7,1.1 1,0.5 1.3,1.7 1.6,2.8 0.8,-0.1 1.6,-0.6 2.3,-0.5 0.2,0 0.3,0.2 0.4,0.3 0.3,0.8 0.5,1.6 0.7,2.4 0.1,0.3 0,0.7 -0.3,0.9 -0.7,0.4 -1.3,0.4 -2,0.7 0.1,0.4 0.2,0.8 0.4,1.1 3.7,-1.6 8.4,-0.5 10.9,3.2 0.2,0.3 0.1,0.9 -0.4,1 -0.3,0.1 -0.8,-0.1 -1.1,-0.3 -2,-1.4 -4.7,-2.1 -7.7,-1.2 0.7,2.4 1.5,4.8 2.2,7.2 0,0 0.2,0 0.2,0 0,-0.5 0,-1.1 0.6,-1.1 0.5,0 0.6,0.4 0.6,1.1 0.4,0 0.7,0.1 1.1,0.1 0,-0.3 0.1,-0.6 0.2,-0.8 0.2,-0.2 0.5,-0.2 0.8,-0.1 0.3,0.2 0.1,0.8 0.1,1.2 0.4,0.1 0.6,0.2 1,0.3 0,0 0.1,-0.2 0.1,-0.2 0.1,-0.2 0.3,-0.8 1,-0.5 0.5,0.2 0.3,0.8 0,1.2 0.3,0.2 0.6,0.4 0.9,0.6 0.3,-0.3 0.6,-0.8 1.1,-0.5 0.2,0.1 0.4,0.5 0.2,0.8 -0.1,0.2 -0.3,0.4 -0.5,0.5 0,0 0.4,0.5 0.6,0.7 0,0 0.4,-0.3 0.5,-0.4 0.2,-0.1 0.6,0 0.7,0.3 0.2,0.7 -0.3,0.8 -0.7,1 0.1,0.1 0.1,0.2 0.2,0.3 0.1,0.2 0.3,0.7 0.3,0.7 0.4,-0.1 0.5,-0.2 0.7,-0.2 0.6,-0.1 0.8,0.8 0.3,1.1 -0.1,0.1 -0.6,0.2 -0.6,0.2 0.1,0.3 0.1,0.8 0.1,1.1 0,0 0.6,-0.1 0.8,0 0.5,0.2 0.5,0.9 0,1.1 -0.2,0.1 -0.7,0 -0.7,0.1 0,0.3 -0.1,0.7 -0.1,1 0.2,0 0.6,0.1 0.7,0.2 0.4,0.2 0.2,1.1 -0.3,1.1 -0.2,0 -0.5,0 -0.7,-0.1 -0.1,0.3 -0.2,0.5 -0.4,0.8 0.2,0.2 0.6,0.2 0.7,0.5 0.3,0.5 -0.2,0.9 -0.7,0.8 -0.1,0 -0.4,-0.2 -0.6,-0.3 -0.2,0.3 -0.4,0.6 -0.6,0.8 0,0 0.4,0.4 0.5,0.6 0.2,0.5 -0.4,0.9 -0.7,0.8 -0.2,-0.1 -0.6,-0.5 -0.6,-0.5 -0.2,0.3 -0.7,0.6 -0.8,0.7 0,0 0.3,0.5 0.4,0.6 0.1,0.5 -0.5,0.9 -0.9,0.7 -0.1,-0.1 -0.3,-0.3 -0.4,-0.6 -0.3,0.2 -0.6,0.3 -0.9,0.4 0.1,0.2 0.2,0.5 0.2,0.7 0,0.5 -0.9,0.7 -1.1,0.2 0,-0.1 -0.2,-0.6 -0.2,-0.6 -0.3,0 -0.7,0.1 -1,0.1 0,0 0,0.6 0,0.7 -0.1,0.5 -0.9,0.6 -1.1,0 0,-0.1 0,-0.4 0,-0.7 -0.4,0 -0.7,-0.1 -1.1,-0.1 -0.1,0.4 -0.1,0.6 -0.2,0.7 -0.2,0.4 -1.1,0.4 -1.1,-0.3 0,-0.1 0.2,-0.6 0.2,-0.6 -0.3,-0.1 -0.7,-0.2 -1,-0.4 0,0 -0.2,0.5 -0.4,0.7 -0.3,0.3 -1,0 -1,-0.5 0,-0.2 0.4,-0.7 0.4,-0.7 -0.2,-0.2 -0.5,-0.4 -0.8,-0.6 -0.3,0.3 -0.4,0.5 -0.8,0.6 -0.4,0 -0.7,-0.4 -0.6,-0.8 0,-0.1 0.5,-0.6 0.5,-0.6 -0.2,-0.2 -0.3,-0.4 -0.6,-0.7 0,0 -0.6,0.3 -0.8,0.3 -0.4,0 -0.7,-0.4 -0.6,-0.8 0.1,-0.3 0.5,-0.3 0.7,-0.5 -0.2,-0.3 -0.3,-0.7 -0.5,-0.9 0,0 -0.6,0.2 -0.7,0.2 -0.5,0 -0.7,-0.8 -0.3,-1.1 0,0 0.5,-0.1 0.7,-0.2 -0.1,-0.3 -0.1,-0.7 -0.2,-1 0,0 -0.6,0 -0.8,0 -0.5,-0.1 -0.5,-1 0,-1.1 0.2,-0.1 0.7,-0.1 0.7,-0.1 0,-0.3 0,-0.7 0.1,-1 0,0 -0.6,-0.1 -0.7,-0.2 -0.5,-0.2 -0.4,-1.1 0.3,-1.1 0.1,0 0.3,0.1 0.6,0.1 0.1,-0.4 0.2,-0.7 0.3,-0.9 0,0 -0.3,-0.1 -0.5,-0.2 -0.6,-0.3 -0.3,-1.4 0.6,-1.1 0,0 0.3,0.2 0.5,0.2 0.2,-0.4 0.4,-0.6 0.6,-0.9 0,0 -0.4,-0.4 -0.5,-0.4 -0.3,-0.5 0.1,-1.1 0.8,-0.9 0.1,0 0.2,0.2 0.5,0.5 0.3,-0.2 0.5,-0.5 0.8,-0.7 0,0 -0.3,-0.4 -0.4,-0.5 -0.2,-0.7 0.6,-1 1,-0.7 0.1,0.1 0.1,0.1 0.4,0.6 l 0.1,-0.1 c -0.8,-2.4 -1.6,-5.3 -2.2,-7 -0.9,0.3 -1.7,0.7 -2.6,0.9 -0.3,0.1 -0.8,0 -0.9,-0.3 -0.1,-0.4 0.1,-0.8 0.4,-1.1 0.9,-1 1.7,-1.8 2.9,-2.5 -0.2,-0.5 -0.3,-0.8 -0.5,-1.3 -2.3,1.1 -4,3.5 -4.4,4.8 -0.8,2.7 -1.5,5.7 -2.4,8.7 -0.1,0.3 -0.2,0.5 -0.4,0.7 -0.9,1 -1.7,1.8 -2.6,2.7 -0.2,0.2 -0.5,0.3 -0.7,0.3 -2,0 -4,0 -6,-0.1 -0.5,0 -1.1,-0.6 -1.1,-1.1 0,-0.4 0,-1.5 0,-2.3 0,0 -0.7,0.3 -1.2,0.5 0,0.9 0,1.8 0,2.4 0,0.2 -0.3,0.5 -0.5,0.5 -1,0 -1.8,0 -2.8,0 -0.4,0 -0.7,-0.3 -0.7,-0.6 0,-0.1 0,-0.5 0,-0.6 -0.6,0.2 -1.5,0.7 -2.3,1 0,0 0,0.2 0,0.2 0.2,0 0.6,-0.1 0.8,0 0.5,0.1 0.5,1 0.1,1.1 -0.2,0.1 -0.7,0.1 -0.7,0.1 0,0.3 0,0.7 0,0.9 0,0 0.6,0 0.7,0.1 0.4,0.2 0.4,0.9 -0.2,1.1 -0.1,0 -0.7,0 -0.7,0 -0.1,0.4 -0.1,0.7 -0.2,1.1 0,0 0.5,0.2 0.7,0.3 0.3,0.3 0.1,0.9 -0.4,1 -0.1,0 -0.8,-0.2 -0.8,-0.2 -0.2,0.4 -0.4,0.6 -0.5,0.8 0,0 0.5,0.4 0.6,0.5 0.1,0.2 0.1,0.5 -0.1,0.7 -0.1,0.2 -0.4,0.2 -0.6,0.2 -0.2,-0.1 -0.6,-0.4 -0.6,-0.4 -0.2,0.3 -0.5,0.6 -0.7,0.7 0,0 0.3,0.4 0.4,0.6 0,0.2 0,0.4 -0.1,0.5 -0.2,0.3 -0.7,0.3 -0.9,0.1 -0.1,-0.1 -0.4,-0.5 -0.4,-0.5 -0.3,0.2 -0.6,0.3 -0.9,0.5 0.1,0.3 0.2,0.5 0.2,0.7 0.1,0.5 -0.8,0.8 -1.1,0.3 -0.1,-0.2 -0.2,-0.6 -0.2,-0.6 -0.3,0.1 -0.6,0.2 -0.9,0.2 0,0.2 0,0.6 0,0.8 0,0.5 -1,0.5 -1.1,0 0,-0.2 0,-0.7 0,-0.7 -0.3,0 -0.7,0 -1.1,0 0,0 -0.1,0.5 -0.1,0.7 -0.1,0.5 -1,0.4 -1.1,-0.1 0,-0.1 0,-0.4 0.1,-0.7 -0.4,-0.1 -0.6,-0.1 -1,-0.2 0,0 -0.2,0.5 -0.3,0.7 -0.3,0.3 -1,0.1 -1,-0.5 0,-0.2 0.1,-0.4 0.2,-0.7 -0.3,-0.2 -0.6,-0.4 -0.8,-0.5 0,0 -0.3,0.4 -0.4,0.5 -0.3,0.3 -1.2,0 -0.9,-0.8 0.1,-0.2 0.2,-0.3 0.4,-0.5 -0.3,-0.3 -0.5,-0.5 -0.7,-0.7 -0.2,0.1 -0.3,0.2 -0.5,0.3 -0.5,0.3 -1,-0.2 -0.8,-0.7 0.1,-0.2 0.3,-0.4 0.6,-0.6 -0.2,-0.3 -0.3,-0.5 -0.5,-0.8 -0.4,0.2 -0.6,0.3 -0.8,0.3 -0.3,0 -0.7,-0.5 -0.4,-0.9 0.1,-0.2 0.7,-0.4 0.7,-0.4 0,-0.3 -0.1,-0.7 -0.2,-1 0,0 -0.5,0.1 -0.8,0 -0.6,-0.1 -0.6,-0.9 0,-1.1 0.2,0 0.4,0 0.6,0 0,-0.3 0,-0.7 0,-1 0,0 -0.5,0 -0.7,0 -0.4,-0.1 -0.6,-0.9 0,-1.1 0.2,-0.1 0.5,0 0.9,0 0,-0.4 0.1,-0.6 0.2,-1 0,0 -0.5,-0.1 -0.6,-0.2 -0.4,-0.3 -0.2,-1 0.3,-1.1 0.1,0 0.4,0.1 0.8,0.3 0.1,-0.3 0.3,-0.6 0.5,-0.9 0,0 -0.4,-0.3 -0.6,-0.4 -0.4,-0.4 0.2,-1.2 0.7,-0.9 0.2,0.1 0.5,0.4 0.5,0.4 0.2,-0.2 0.4,-0.4 0.7,-0.7 -0.1,-0.2 -0.3,-0.3 -0.4,-0.5 -0.2,-0.5 0.3,-1.1 0.8,-0.7 0.2,0.1 0.5,0.6 0.5,0.6 0.2,-0.2 0.6,-0.3 0.9,-0.6 -0.1,-0.3 -0.3,-0.6 -0.3,-0.7 0,-0.5 0.7,-0.9 1.1,-0.3 0.1,0.1 0.2,0.6 0.2,0.6 0.4,-0.1 0.6,-0.2 1,-0.3 0,0 -0.1,-0.6 0,-0.8 0.1,-0.4 0.8,-0.5 1,-0.1 0.1,0.1 0.1,0.8 0.1,0.8 0.4,0 0.6,0 1,0 0,0 0.1,-0.6 0.1,-0.7 0.2,-0.5 0.9,-0.4 1.1,0.1 0,0.1 0,0.5 0,0.7 0.4,0.1 0.6,0.2 1,0.3 0.2,-0.5 0.2,-0.6 0.4,-0.8 0.3,-0.3 0.9,-0.1 0.9,0.4 0,0.2 -0.2,0.7 -0.2,0.7 0.3,0.2 0.6,0.4 0.9,0.5 0,0 0.3,-0.5 0.4,-0.5 0.6,-0.4 1.1,0.3 0.9,0.7 -0.1,0.1 -0.4,0.5 -0.4,0.5 0.3,0.2 0.4,0.4 0.7,0.7 0,0 0.5,-0.4 0.6,-0.4 0.5,-0.2 0.9,0.5 0.7,0.9 -0.1,0.2 -0.6,0.5 -0.6,0.5 l 0.1,0.1 c 1.2,-0.5 2.3,-1 3.5,-1.5 0.1,-0.6 -0.1,-1.5 0.1,-1.9 0.1,-0.2 0.3,-0.4 0.6,-0.4 0.4,0 0.7,0.2 0.8,0.6 0,0.3 0,0.7 0,1.1 0.5,-0.2 0.7,-0.3 1.1,-0.4 0,-0.7 0,-1.6 0,-2.3 0,-0.3 0.4,-0.6 0.8,-0.5 0.2,0 0.5,0.2 0.6,0.5 0,0.2 0,1.7 0,1.7 0.6,-0.3 0.8,-0.3 1.2,-0.5 0,-0.8 0.1,-1.7 0,-2.4 -0.1,-0.4 -0.6,-0.8 -1.1,-0.9 -0.2,0 -0.5,0 -0.7,0.2 -2.3,1.4 -4.3,2.6 -6.5,4 -0.2,0.1 -0.5,0.1 -0.6,0 -1.5,-1.2 -2.8,-2.3 -4.2,-3.5 -0.8,-0.8 0.7,-1.5 1.1,-2.1 -1.1,-1.1 -3.2,-2 -5.2,-2.2 -0.9,-0.1 -1.6,0 -2.5,0.2 -0.4,0.1 -0.8,0.2 -1.2,0.4 -0.4,0.2 -0.8,0.4 -1.3,0.5 -0.4,0.1 -0.9,0.1 -1.2,-0.3 -0.4,-0.7 -0.4,-1.1 -0.1,-1.4 z"
   id="path6"
   inkscape:connector-curvature="0"
   style="fill:#ffdd00" />
<g
   id="g12"
   transform="translate(-259.5,-343.5)">
	<path
   class="st0"
   d="m 319.1,388.1 c -0.7,0.4 -1.3,1 -1.7,1.8 -0.8,1.3 -1.1,3 -0.6,4.5 0.5,1.5 1.4,2.6 2.8,3.3 1.4,0.7 2.9,0.8 4.4,0.3 2.6,-0.9 4.2,-3.6 3.6,-6.4 -0.6,-2.7 -3.2,-4.6 -5.7,-4.4 0.5,1.8 1.1,3.4 1.6,5.2 0.1,0.3 0.1,0.7 -0.1,1 -0.2,0.4 -0.6,0.7 -1,0.8 -0.6,0.1 -1.4,-0.2 -1.6,-0.7 -0.6,-1.8 -1.1,-3.6 -1.7,-5.4 z"
   id="path8"
   inkscape:connector-curvature="0"
   style="fill:#00713c" />
	<path
   class="st0"
   d="m 287.5,392 c -1.7,0.7 -3.3,1.4 -5,2.1 -0.9,0.3 -1.8,-0.3 -1.9,-1.2 -0.1,-0.6 0.2,-1.2 0.8,-1.5 1.7,-0.7 3.3,-1.3 5,-2.1 -0.7,-1 -1.8,-1.7 -3,-2 -1.7,-0.5 -3.3,-0.1 -4.7,0.9 -1.3,1 -2,2.3 -2.2,3.8 -0.2,1.9 0.5,3.6 1.9,4.9 1.5,1.3 3.5,1.6 5.4,1 2.5,-0.7 4.1,-3.3 3.7,-5.9 z"
   id="path10"
   inkscape:connector-curvature="0"
   style="fill:#00713c" />
</g>
<rect
   x="-2.0031629"
   y="12.901052"
   transform="rotate(-45)"
   class="st2"
   width="3.9999616"
   height="94.399094"
   id="rect14"
   style="fill:#e30613;stroke-width:0.9999904" />
</svg>