<?xml version="1.0" encoding="UTF-8"?>
<svg xmlns="http://www.w3.org/2000/svg" xmlns:xlink="http://www.w3.org/1999/xlink" width="68pt" height="68pt" viewBox="0 0 68 68" version="1.1">
<g id="surface6870">
<rect x="0" y="0" width="68" height="68" style="fill:rgb(0%,44.313726%,23.529412%);fill-opacity:1;stroke:none;"/>
<path style=" stroke:none;fill-rule:nonzero;fill:rgb(100%,86.666667%,0%);fill-opacity:1;" d="M 11.839844 27.121094 C 12.800781 26.160156 13.601562 25.679688 14.878906 25.28125 C 16.640625 24.71875 18.71875 24.878906 20.480469 25.839844 C 20.558594 25.839844 20.640625 25.839844 20.71875 25.839844 C 20.878906 25.679688 20.960938 25.441406 21.121094 25.28125 C 21.199219 25.121094 21.441406 25.039062 21.761719 25.121094 C 24.160156 25.921875 26.640625 26.878906 29.121094 27.761719 C 29.761719 27.921875 30.398438 28.078125 31.121094 28.238281 C 31.839844 28.398438 32.558594 28.320312 33.28125 28.078125 C 34.960938 27.441406 36.640625 26.640625 38.238281 25.519531 C 39.921875 24.320312 41.28125 23.121094 42.960938 21.839844 C 43.28125 21.679688 43.601562 21.679688 43.921875 21.519531 C 43.679688 20.960938 43.679688 20.398438 43.359375 20.078125 C 43.121094 19.839844 41.679688 19.359375 41.039062 19.121094 C 40.800781 18.960938 40.71875 18.558594 40.800781 18.398438 C 40.878906 18.160156 41.121094 17.921875 41.519531 18 C 42.160156 18.238281 42.960938 18.480469 43.679688 18.878906 C 44.480469 19.28125 44.71875 20.238281 44.960938 21.121094 C 45.601562 21.039062 46.238281 20.640625 46.800781 20.71875 C 46.960938 20.71875 47.039062 20.878906 47.121094 20.960938 C 47.359375 21.601562 47.519531 22.238281 47.679688 22.878906 C 47.761719 23.121094 47.679688 23.441406 47.441406 23.601562 C 46.878906 23.921875 46.398438 23.921875 45.839844 24.160156 C 45.921875 24.480469 46 24.800781 46.160156 25.039062 C 49.121094 23.761719 52.878906 24.640625 54.878906 27.601562 C 55.039062 27.839844 54.960938 28.320312 54.558594 28.398438 C 54.320312 28.480469 53.921875 28.320312 53.679688 28.160156 C 52.078125 27.039062 49.921875 26.480469 47.519531 27.199219 C 48.078125 29.121094 48.71875 31.039062 49.28125 32.960938 C 49.28125 32.960938 49.441406 32.960938 49.441406 32.960938 C 49.441406 32.558594 49.441406 32.078125 49.921875 32.078125 C 50.320312 32.078125 50.398438 32.398438 50.398438 32.960938 C 50.71875 32.960938 50.960938 33.039062 51.28125 33.039062 C 51.28125 32.800781 51.359375 32.558594 51.441406 32.398438 C 51.601562 32.238281 51.839844 32.238281 52.078125 32.320312 C 52.320312 32.480469 52.160156 32.960938 52.160156 33.28125 C 52.480469 33.359375 52.640625 33.441406 52.960938 33.519531 C 52.960938 33.519531 53.039062 33.359375 53.039062 33.359375 C 53.121094 33.199219 53.28125 32.71875 53.839844 32.960938 C 54.238281 33.121094 54.078125 33.601562 53.839844 33.921875 C 54.078125 34.078125 54.320312 34.238281 54.558594 34.398438 C 54.800781 34.160156 55.039062 33.761719 55.441406 34 C 55.601562 34.078125 55.761719 34.398438 55.601562 34.640625 C 55.519531 34.800781 55.359375 34.960938 55.199219 35.039062 C 55.199219 35.039062 55.519531 35.441406 55.679688 35.601562 C 55.679688 35.601562 56 35.359375 56.078125 35.28125 C 56.238281 35.199219 56.558594 35.28125 56.640625 35.519531 C 56.800781 36.078125 56.398438 36.160156 56.078125 36.320312 C 56.160156 36.398438 56.160156 36.480469 56.238281 36.558594 C 56.320312 36.71875 56.480469 37.121094 56.480469 37.121094 C 56.800781 37.039062 56.878906 36.960938 57.039062 36.960938 C 57.519531 36.878906 57.679688 37.601562 57.28125 37.839844 C 57.199219 37.921875 56.800781 38 56.800781 38 C 56.878906 38.238281 56.878906 38.640625 56.878906 38.878906 C 56.878906 38.878906 57.359375 38.800781 57.519531 38.878906 C 57.921875 39.039062 57.921875 39.601562 57.519531 39.761719 C 57.359375 39.839844 56.960938 39.761719 56.960938 39.839844 C 56.960938 40.078125 56.878906 40.398438 56.878906 40.640625 C 57.039062 40.640625 57.359375 40.71875 57.441406 40.800781 C 57.761719 40.960938 57.601562 41.679688 57.199219 41.679688 C 57.039062 41.679688 56.800781 41.679688 56.640625 41.601562 C 56.558594 41.839844 56.480469 42 56.320312 42.238281 C 56.480469 42.398438 56.800781 42.398438 56.878906 42.640625 C 57.121094 43.039062 56.71875 43.359375 56.320312 43.28125 C 56.238281 43.28125 56 43.121094 55.839844 43.039062 C 55.679688 43.28125 55.519531 43.519531 55.359375 43.679688 C 55.359375 43.679688 55.679688 44 55.761719 44.160156 C 55.921875 44.558594 55.441406 44.878906 55.199219 44.800781 C 55.039062 44.71875 54.71875 44.398438 54.71875 44.398438 C 54.558594 44.640625 54.160156 44.878906 54.078125 44.960938 C 54.078125 44.960938 54.320312 45.359375 54.398438 45.441406 C 54.480469 45.839844 54 46.160156 53.679688 46 C 53.601562 45.921875 53.441406 45.761719 53.359375 45.519531 C 53.121094 45.679688 52.878906 45.761719 52.640625 45.839844 C 52.71875 46 52.800781 46.238281 52.800781 46.398438 C 52.800781 46.800781 52.078125 46.960938 51.921875 46.558594 C 51.921875 46.480469 51.761719 46.078125 51.761719 46.078125 C 51.519531 46.078125 51.199219 46.160156 50.960938 46.160156 C 50.960938 46.160156 50.960938 46.640625 50.960938 46.71875 C 50.878906 47.121094 50.238281 47.199219 50.078125 46.71875 C 50.078125 46.640625 50.078125 46.398438 50.078125 46.160156 C 49.761719 46.160156 49.519531 46.078125 49.199219 46.078125 C 49.121094 46.398438 49.121094 46.558594 49.039062 46.640625 C 48.878906 46.960938 48.160156 46.960938 48.160156 46.398438 C 48.160156 46.320312 48.320312 45.921875 48.320312 45.921875 C 48.078125 45.839844 47.761719 45.761719 47.519531 45.601562 C 47.519531 45.601562 47.359375 46 47.199219 46.160156 C 46.960938 46.398438 46.398438 46.160156 46.398438 45.761719 C 46.398438 45.601562 46.71875 45.199219 46.71875 45.199219 C 46.558594 45.039062 46.320312 44.878906 46.078125 44.71875 C 45.839844 44.960938 45.761719 45.121094 45.441406 45.199219 C 45.121094 45.199219 44.878906 44.878906 44.960938 44.558594 C 44.960938 44.480469 45.359375 44.078125 45.359375 44.078125 C 45.199219 43.921875 45.121094 43.761719 44.878906 43.519531 C 44.878906 43.519531 44.398438 43.761719 44.238281 43.761719 C 43.921875 43.761719 43.679688 43.441406 43.761719 43.121094 C 43.839844 42.878906 44.160156 42.878906 44.320312 42.71875 C 44.160156 42.480469 44.078125 42.160156 43.921875 42 C 43.921875 42 43.441406 42.160156 43.359375 42.160156 C 42.960938 42.160156 42.800781 41.519531 43.121094 41.28125 C 43.121094 41.28125 43.519531 41.199219 43.679688 41.121094 C 43.601562 40.878906 43.601562 40.558594 43.519531 40.320312 C 43.519531 40.320312 43.039062 40.320312 42.878906 40.320312 C 42.480469 40.238281 42.480469 39.519531 42.878906 39.441406 C 43.039062 39.359375 43.441406 39.359375 43.441406 39.359375 C 43.441406 39.121094 43.441406 38.800781 43.519531 38.558594 C 43.519531 38.558594 43.039062 38.480469 42.960938 38.398438 C 42.558594 38.238281 42.640625 37.519531 43.199219 37.519531 C 43.28125 37.519531 43.441406 37.601562 43.679688 37.601562 C 43.761719 37.28125 43.839844 37.039062 43.921875 36.878906 C 43.921875 36.878906 43.679688 36.800781 43.519531 36.71875 C 43.039062 36.480469 43.28125 35.601562 44 35.839844 C 44 35.839844 44.238281 36 44.398438 36 C 44.558594 35.679688 44.71875 35.519531 44.878906 35.28125 C 44.878906 35.28125 44.558594 34.960938 44.480469 34.960938 C 44.238281 34.558594 44.558594 34.078125 45.121094 34.238281 C 45.199219 34.238281 45.28125 34.398438 45.519531 34.640625 C 45.761719 34.480469 45.921875 34.238281 46.160156 34.078125 C 46.160156 34.078125 45.921875 33.761719 45.839844 33.679688 C 45.679688 33.121094 46.320312 32.878906 46.640625 33.121094 C 46.71875 33.199219 46.71875 33.199219 46.960938 33.601562 L 47.039062 33.519531 C 46.398438 31.601562 45.761719 29.28125 45.28125 27.921875 C 44.558594 28.160156 43.921875 28.480469 43.199219 28.640625 C 42.960938 28.71875 42.558594 28.640625 42.480469 28.398438 C 42.398438 28.078125 42.558594 27.761719 42.800781 27.519531 C 43.519531 26.71875 44.160156 26.078125 45.121094 25.519531 C 44.960938 25.121094 44.878906 24.878906 44.71875 24.480469 C 42.878906 25.359375 41.519531 27.28125 41.199219 28.320312 C 40.558594 30.480469 40 32.878906 39.28125 35.28125 C 39.199219 35.519531 39.121094 35.679688 38.960938 35.839844 C 38.238281 36.640625 37.601562 37.28125 36.878906 38 C 36.71875 38.160156 36.480469 38.238281 36.320312 38.238281 C 34.71875 38.238281 33.121094 38.238281 31.519531 38.160156 C 31.121094 38.160156 30.640625 37.679688 30.640625 37.28125 C 30.640625 36.960938 30.640625 36.078125 30.640625 35.441406 C 30.640625 35.441406 30.078125 35.679688 29.679688 35.839844 C 29.679688 36.558594 29.679688 37.28125 29.679688 37.761719 C 29.679688 37.921875 29.441406 38.160156 29.28125 38.160156 C 28.480469 38.160156 27.839844 38.160156 27.039062 38.160156 C 26.71875 38.160156 26.480469 37.921875 26.480469 37.679688 C 26.480469 37.601562 26.480469 37.28125 26.480469 37.199219 C 26 37.359375 25.28125 37.761719 24.640625 38 C 24.640625 38 24.640625 38.160156 24.640625 38.160156 C 24.800781 38.160156 25.121094 38.078125 25.28125 38.160156 C 25.679688 38.238281 25.679688 38.960938 25.359375 39.039062 C 25.199219 39.121094 24.800781 39.121094 24.800781 39.121094 C 24.800781 39.359375 24.800781 39.679688 24.800781 39.839844 C 24.800781 39.839844 25.28125 39.839844 25.359375 39.921875 C 25.679688 40.078125 25.679688 40.640625 25.199219 40.800781 C 25.121094 40.800781 24.640625 40.800781 24.640625 40.800781 C 24.558594 41.121094 24.558594 41.359375 24.480469 41.679688 C 24.480469 41.679688 24.878906 41.839844 25.039062 41.921875 C 25.28125 42.160156 25.121094 42.640625 24.71875 42.71875 C 24.640625 42.71875 24.078125 42.558594 24.078125 42.558594 C 23.921875 42.878906 23.761719 43.039062 23.679688 43.199219 C 23.679688 43.199219 24.078125 43.519531 24.160156 43.601562 C 24.238281 43.761719 24.238281 44 24.078125 44.160156 C 24 44.320312 23.761719 44.320312 23.601562 44.320312 C 23.441406 44.238281 23.121094 44 23.121094 44 C 22.960938 44.238281 22.71875 44.480469 22.558594 44.558594 C 22.558594 44.558594 22.800781 44.878906 22.878906 45.039062 C 22.878906 45.199219 22.878906 45.359375 22.800781 45.441406 C 22.640625 45.679688 22.238281 45.679688 22.078125 45.519531 C 22 45.441406 21.761719 45.121094 21.761719 45.121094 C 21.519531 45.28125 21.28125 45.359375 21.039062 45.519531 C 21.121094 45.761719 21.199219 45.921875 21.199219 46.078125 C 21.28125 46.480469 20.558594 46.71875 20.320312 46.320312 C 20.238281 46.160156 20.160156 45.839844 20.160156 45.839844 C 19.921875 45.921875 19.679688 46 19.441406 46 C 19.441406 46.160156 19.441406 46.480469 19.441406 46.640625 C 19.441406 47.039062 18.640625 47.039062 18.558594 46.640625 C 18.558594 46.480469 18.558594 46.078125 18.558594 46.078125 C 18.320312 46.078125 18 46.078125 17.679688 46.078125 C 17.679688 46.078125 17.601562 46.480469 17.601562 46.640625 C 17.519531 47.039062 16.800781 46.960938 16.71875 46.558594 C 16.71875 46.480469 16.71875 46.238281 16.800781 46 C 16.480469 45.921875 16.320312 45.921875 16 45.839844 C 16 45.839844 15.839844 46.238281 15.761719 46.398438 C 15.519531 46.640625 14.960938 46.480469 14.960938 46 C 14.960938 45.839844 15.039062 45.679688 15.121094 45.441406 C 14.878906 45.28125 14.640625 45.121094 14.480469 45.039062 C 14.480469 45.039062 14.238281 45.359375 14.160156 45.441406 C 13.921875 45.679688 13.199219 45.441406 13.441406 44.800781 C 13.519531 44.640625 13.601562 44.558594 13.761719 44.398438 C 13.519531 44.160156 13.359375 44 13.199219 43.839844 C 13.039062 43.921875 12.960938 44 12.800781 44.078125 C 12.398438 44.320312 12 43.921875 12.160156 43.519531 C 12.238281 43.359375 12.398438 43.199219 12.640625 43.039062 C 12.480469 42.800781 12.398438 42.640625 12.238281 42.398438 C 11.921875 42.558594 11.761719 42.640625 11.601562 42.640625 C 11.359375 42.640625 11.039062 42.238281 11.28125 41.921875 C 11.359375 41.761719 11.839844 41.601562 11.839844 41.601562 C 11.839844 41.359375 11.761719 41.039062 11.679688 40.800781 C 11.679688 40.800781 11.28125 40.878906 11.039062 40.800781 C 10.558594 40.71875 10.558594 40.078125 11.039062 39.921875 C 11.199219 39.921875 11.359375 39.921875 11.519531 39.921875 C 11.519531 39.679688 11.519531 39.359375 11.519531 39.121094 C 11.519531 39.121094 11.121094 39.121094 10.960938 39.121094 C 10.640625 39.039062 10.480469 38.398438 10.960938 38.238281 C 11.121094 38.160156 11.359375 38.238281 11.679688 38.238281 C 11.679688 37.921875 11.761719 37.761719 11.839844 37.441406 C 11.839844 37.441406 11.441406 37.359375 11.359375 37.28125 C 11.039062 37.039062 11.199219 36.480469 11.601562 36.398438 C 11.679688 36.398438 11.921875 36.480469 12.238281 36.640625 C 12.320312 36.398438 12.480469 36.160156 12.640625 35.921875 C 12.640625 35.921875 12.320312 35.679688 12.160156 35.601562 C 11.839844 35.28125 12.320312 34.640625 12.71875 34.878906 C 12.878906 34.960938 13.121094 35.199219 13.121094 35.199219 C 13.28125 35.039062 13.441406 34.878906 13.679688 34.640625 C 13.601562 34.480469 13.441406 34.398438 13.359375 34.238281 C 13.199219 33.839844 13.601562 33.359375 14 33.679688 C 14.160156 33.761719 14.398438 34.160156 14.398438 34.160156 C 14.558594 34 14.878906 33.921875 15.121094 33.679688 C 15.039062 33.441406 14.878906 33.199219 14.878906 33.121094 C 14.878906 32.71875 15.441406 32.398438 15.761719 32.878906 C 15.839844 32.960938 15.921875 33.359375 15.921875 33.359375 C 16.238281 33.28125 16.398438 33.199219 16.71875 33.121094 C 16.71875 33.121094 16.640625 32.640625 16.71875 32.480469 C 16.800781 32.160156 17.359375 32.078125 17.519531 32.398438 C 17.601562 32.480469 17.601562 33.039062 17.601562 33.039062 C 17.921875 33.039062 18.078125 33.039062 18.398438 33.039062 C 18.398438 33.039062 18.480469 32.558594 18.480469 32.480469 C 18.640625 32.078125 19.199219 32.160156 19.359375 32.558594 C 19.359375 32.640625 19.359375 32.960938 19.359375 33.121094 C 19.679688 33.199219 19.839844 33.28125 20.160156 33.359375 C 20.320312 32.960938 20.320312 32.878906 20.480469 32.71875 C 20.71875 32.480469 21.199219 32.640625 21.199219 33.039062 C 21.199219 33.199219 21.039062 33.601562 21.039062 33.601562 C 21.28125 33.761719 21.519531 33.921875 21.761719 34 C 21.761719 34 22 33.601562 22.078125 33.601562 C 22.558594 33.28125 22.960938 33.839844 22.800781 34.160156 C 22.71875 34.238281 22.480469 34.558594 22.480469 34.558594 C 22.71875 34.71875 22.800781 34.878906 23.039062 35.121094 C 23.039062 35.121094 23.441406 34.800781 23.519531 34.800781 C 23.921875 34.640625 24.238281 35.199219 24.078125 35.519531 C 24 35.679688 23.601562 35.921875 23.601562 35.921875 L 23.679688 36 C 24.640625 35.601562 25.519531 35.199219 26.480469 34.800781 C 26.558594 34.320312 26.398438 33.601562 26.558594 33.28125 C 26.640625 33.121094 26.800781 32.960938 27.039062 32.960938 C 27.359375 32.960938 27.601562 33.121094 27.679688 33.441406 C 27.679688 33.679688 27.679688 34 27.679688 34.320312 C 28.078125 34.160156 28.238281 34.078125 28.558594 34 C 28.558594 33.441406 28.558594 32.71875 28.558594 32.160156 C 28.558594 31.921875 28.878906 31.679688 29.199219 31.761719 C 29.359375 31.761719 29.601562 31.921875 29.679688 32.160156 C 29.679688 32.320312 29.679688 33.519531 29.679688 33.519531 C 30.160156 33.28125 30.320312 33.28125 30.640625 33.121094 C 30.640625 32.480469 30.71875 31.761719 30.640625 31.199219 C 30.558594 30.878906 30.160156 30.558594 29.761719 30.480469 C 29.601562 30.480469 29.359375 30.480469 29.199219 30.640625 C 27.359375 31.761719 25.761719 32.71875 24 33.839844 C 23.839844 33.921875 23.601562 33.921875 23.519531 33.839844 C 22.320312 32.878906 21.28125 32 20.160156 31.039062 C 19.519531 30.398438 20.71875 29.839844 21.039062 29.359375 C 20.160156 28.480469 18.480469 27.761719 16.878906 27.601562 C 16.160156 27.519531 15.601562 27.601562 14.878906 27.761719 C 14.558594 27.839844 14.238281 27.921875 13.921875 28.078125 C 13.601562 28.238281 13.28125 28.398438 12.878906 28.480469 C 12.558594 28.558594 12.160156 28.558594 11.921875 28.238281 C 11.601562 27.679688 11.601562 27.359375 11.839844 27.121094 Z M 11.839844 27.121094 "/>
<path style=" stroke:none;fill-rule:nonzero;fill:rgb(0%,44.313726%,23.529412%);fill-opacity:1;" d="M 47.679688 35.679688 C 47.121094 36 46.640625 36.480469 46.320312 37.121094 C 45.679688 38.160156 45.441406 39.519531 45.839844 40.71875 C 46.238281 41.921875 46.960938 42.800781 48.078125 43.359375 C 49.199219 43.921875 50.398438 44 51.601562 43.601562 C 53.679688 42.878906 54.960938 40.71875 54.480469 38.480469 C 54 36.320312 51.921875 34.800781 49.921875 34.960938 C 50.320312 36.398438 50.800781 37.679688 51.199219 39.121094 C 51.28125 39.359375 51.28125 39.679688 51.121094 39.921875 C 50.960938 40.238281 50.640625 40.480469 50.320312 40.558594 C 49.839844 40.640625 49.199219 40.398438 49.039062 40 C 48.558594 38.558594 48.160156 37.121094 47.679688 35.679688 Z M 47.679688 35.679688 "/>
<path style=" stroke:none;fill-rule:nonzero;fill:rgb(0%,44.313726%,23.529412%);fill-opacity:1;" d="M 22.398438 38.800781 C 21.039062 39.359375 19.761719 39.921875 18.398438 40.480469 C 17.679688 40.71875 16.960938 40.238281 16.878906 39.519531 C 16.800781 39.039062 17.039062 38.558594 17.519531 38.320312 C 18.878906 37.761719 20.160156 37.28125 21.519531 36.640625 C 20.960938 35.839844 20.078125 35.28125 19.121094 35.039062 C 17.761719 34.640625 16.480469 34.960938 15.359375 35.761719 C 14.320312 36.558594 13.761719 37.601562 13.601562 38.800781 C 13.441406 40.320312 14 41.679688 15.121094 42.71875 C 16.320312 43.761719 17.921875 44 19.441406 43.519531 C 21.441406 42.960938 22.71875 40.878906 22.398438 38.800781 Z M 22.398438 38.800781 "/>
<path style=" stroke:none;fill-rule:nonzero;fill:rgb(89.019608%,2.352941%,7.450981%);fill-opacity:1;" d="M 6.164062 8.429688 L 8.425781 6.167969 L 61.828125 59.570312 L 59.566406 61.832031 Z M 6.164062 8.429688 "/>
</g>
</svg>
