<?xml version="1.0" encoding="UTF-8"?>
<svg xmlns="http://www.w3.org/2000/svg" xmlns:xlink="http://www.w3.org/1999/xlink" width="68pt" height="68pt" viewBox="0 0 68 68" version="1.1">
<g id="surface6893">
<path style=" stroke:none;fill-rule:nonzero;fill:rgb(0%,43.137255%,20%);fill-opacity:1;" d="M 2.097656 1.722656 L 65.753906 1.722656 L 65.753906 65.378906 L 2.097656 65.378906 Z M 2.097656 1.722656 "/>
<path style=" stroke:none;fill-rule:nonzero;fill:rgb(100%,86.666667%,0%);fill-opacity:1;" d="M 0.828125 26.8125 C 6.144531 22.765625 13.40625 19.097656 18.5 17.148438 C 24.566406 14.828125 27.863281 13.628906 32.355469 11.382812 C 33.179688 10.933594 34.003906 10.484375 34.675781 9.734375 C 34.828125 9.585938 34.902344 9.359375 34.902344 9.210938 C 34.902344 8.011719 33.777344 7.414062 33.402344 6.214844 C 33.253906 5.765625 33.328125 5.242188 33.628906 4.792969 C 34.003906 4.269531 34.453125 3.96875 34.976562 3.667969 C 36.175781 2.921875 37.371094 2.394531 38.71875 1.945312 C 41.339844 1.046875 44.488281 0.300781 46.582031 0 C 46.582031 0 46.734375 0.0742188 46.734375 0.0742188 C 46.734375 0.0742188 46.734375 0.148438 46.734375 0.226562 C 46.808594 0.226562 46.882812 0.226562 46.957031 0.226562 C 46.957031 0.300781 47.035156 0.375 47.035156 0.375 C 45.160156 0.972656 43.363281 1.496094 41.492188 2.394531 C 41.042969 2.621094 39.46875 3.371094 38.71875 4.34375 C 38.570312 4.566406 38.496094 5.019531 38.496094 5.167969 C 38.496094 5.167969 38.347656 5.542969 38.796875 6.289062 C 39.695312 7.863281 40.59375 8.6875 41.117188 9.585938 C 41.566406 10.335938 41.640625 11.308594 41.265625 12.132812 C 40.816406 13.253906 39.695312 14.527344 37.972656 16.175781 C 36.023438 18.046875 33.554688 20.144531 31.53125 22.167969 C 28.085938 25.613281 24.714844 29.355469 21.71875 33.324219 C 19.324219 36.546875 16.777344 40.289062 14.53125 44.109375 C 13.933594 45.160156 13.40625 46.058594 12.808594 47.105469 C 12.210938 48.230469 11.386719 49.726562 11.011719 50.402344 C 11.011719 50.402344 11.3125 50.402344 11.3125 50.402344 C 12.433594 51.449219 13.484375 52.496094 14.53125 53.546875 C 13.035156 54.445312 10.636719 55.269531 8.839844 54.894531 C 7.417969 58.039062 6.292969 60.511719 5.09375 63.433594 C 4.570312 64.78125 4.046875 66.203125 3.671875 67.625 C 3.148438 67.625 2.625 67.550781 2.097656 67.625 C 1.949219 67.625 2.097656 67.851562 2.023438 68 L 1.949219 68 C 1.949219 67.851562 2.023438 67.625 1.949219 67.625 C 1.648438 67.625 0.976562 67.625 0.527344 67.625 C 0.527344 66.953125 0.601562 66.351562 0.527344 65.679688 C 0.375 65.679688 0.152344 65.679688 0.00390625 65.679688 L 0.00390625 65.605469 C 0.152344 65.605469 0.375 65.679688 0.601562 65.605469 C 0.828125 52.496094 0.675781 39.617188 0.828125 26.8125 Z M 0.828125 26.8125 "/>
<path style=" stroke:none;fill-rule:nonzero;fill:rgb(100%,86.666667%,0%);fill-opacity:1;" d="M 12.285156 49.953125 C 13.257812 49.578125 14.230469 49.277344 15.128906 48.605469 C 16.105469 47.929688 16.703125 47.105469 17.601562 46.355469 C 18.425781 45.757812 19.398438 45.308594 20.296875 45.082031 C 21.347656 44.859375 22.621094 44.933594 23.816406 45.082031 C 23.96875 45.082031 24.265625 45.160156 24.417969 45.234375 C 24.714844 45.382812 25.015625 45.609375 25.164062 45.90625 C 25.390625 46.355469 25.316406 46.882812 24.941406 47.332031 C 23.96875 48.828125 22.09375 50.550781 20.074219 51.523438 C 19.25 51.898438 18.125 52.199219 16.328125 52.496094 C 15.953125 52.574219 15.503906 52.648438 15.128906 52.796875 C 14.230469 51.898438 12.285156 49.953125 12.285156 49.953125 Z M 12.285156 49.953125 "/>
<path style=" stroke:none;fill-rule:nonzero;fill:rgb(100%,86.666667%,0%);fill-opacity:1;" d="M 29.882812 37.445312 C 28.535156 38.195312 27.335938 39.09375 25.765625 38.867188 C 25.390625 38.792969 24.640625 38.34375 24.792969 37.59375 C 25.015625 36.546875 26.511719 35.722656 27.335938 35.347656 C 28.160156 35.945312 28.984375 36.546875 29.882812 37.445312 Z M 29.882812 37.445312 "/>
<path style=" stroke:none;fill-rule:nonzero;fill:rgb(100%,86.666667%,0%);fill-opacity:1;" d="M 27.785156 35.125 C 29.058594 34.300781 29.808594 33.324219 31.007812 32.578125 C 31.90625 32.054688 32.804688 31.753906 33.851562 31.453125 C 34.601562 31.304688 35.800781 31.152344 36.699219 31.378906 C 37.222656 31.527344 37.523438 32.128906 37.222656 32.652344 C 36.546875 34.226562 35.125 35.496094 34.078125 35.945312 C 32.953125 36.472656 31.679688 36.320312 31.304688 36.394531 C 30.855469 36.394531 30.484375 36.695312 30.035156 36.921875 C 29.285156 36.320312 28.535156 35.796875 27.785156 35.125 Z M 27.785156 35.125 "/>
<path style=" stroke:none;fill-rule:nonzero;fill:rgb(100%,86.666667%,0%);fill-opacity:1;" d="M 45.609375 37.519531 C 44.863281 37.96875 44.039062 38.269531 43.140625 38.417969 C 42.390625 38.566406 41.566406 38.644531 40.96875 38.269531 C 40.519531 37.96875 40.519531 37.296875 40.59375 36.996094 C 40.667969 36.769531 40.96875 36.320312 41.492188 35.945312 C 42.015625 35.574219 42.539062 35.347656 43.214844 35.046875 C 43.214844 35.046875 44.488281 36.320312 45.609375 37.519531 Z M 45.609375 37.519531 "/>
<path style=" stroke:none;fill-rule:nonzero;fill:rgb(100%,86.666667%,0%);fill-opacity:1;" d="M 43.8125 35.046875 C 44.785156 34.597656 45.386719 34.523438 46.058594 33.925781 C 46.660156 33.402344 47.109375 32.875 47.78125 32.351562 C 49.28125 31.304688 51.453125 31.230469 52.726562 31.753906 C 53.324219 31.976562 53.472656 32.726562 53.097656 33.175781 C 52.574219 33.925781 51.976562 34.449219 51.375 35.046875 C 50.703125 35.574219 49.953125 36.097656 49.207031 36.394531 C 48.082031 36.769531 47.035156 36.921875 45.910156 37.144531 C 45.3125 36.472656 43.8125 35.046875 43.8125 35.046875 Z M 43.8125 35.046875 "/>
<path style=" stroke:none;fill-rule:nonzero;fill:rgb(100%,86.666667%,0%);fill-opacity:1;" d="M 51.828125 26.0625 C 50.628906 26.585938 49.578125 27.183594 48.382812 26.886719 C 47.933594 26.734375 47.484375 26.285156 47.632812 25.6875 C 47.855469 24.9375 49.054688 24.414062 49.804688 24.113281 C 50.476562 24.789062 51.152344 25.3125 51.828125 26.0625 Z M 51.828125 26.0625 "/>
<path style=" stroke:none;fill-rule:nonzero;fill:rgb(100%,86.666667%,0%);fill-opacity:1;" d="M 50.328125 24.113281 C 51.375 23.515625 52.125 22.765625 53.097656 22.242188 C 53.921875 21.867188 54.671875 21.71875 55.496094 21.566406 C 56.09375 21.492188 57.070312 21.492188 57.742188 21.71875 C 58.191406 21.941406 58.339844 22.46875 58.042969 22.917969 C 57.367188 24.113281 56.09375 25.011719 55.347656 25.238281 C 54.449219 25.539062 53.398438 25.386719 53.097656 25.386719 C 52.726562 25.386719 52.425781 25.539062 52.050781 25.6875 C 51.453125 25.164062 50.851562 24.640625 50.328125 24.113281 Z M 50.328125 24.113281 "/>
<path style=" stroke:none;fill-rule:nonzero;fill:rgb(0%,43.137255%,20%);fill-opacity:1;" d="M 11.160156 50.324219 C 10.710938 50.476562 9.0625 51.375 8.464844 52.199219 C 8.015625 52.796875 7.941406 53.472656 8.242188 53.921875 C 8.390625 54.21875 8.765625 54.445312 9.0625 54.59375 C 9.664062 53.171875 10.335938 51.75 11.160156 50.324219 Z M 11.160156 50.324219 "/>
<path style=" stroke:none;fill-rule:nonzero;fill:rgb(88.627452%,0%,10.196079%);fill-opacity:1;" d="M 7.878906 9.625 L 10 7.507812 L 59.988281 57.496094 L 57.871094 59.613281 Z M 7.878906 9.625 "/>
</g>
</svg>
