<?xml version="1.0" encoding="UTF-8"?>
<svg xmlns="http://www.w3.org/2000/svg" xmlns:xlink="http://www.w3.org/1999/xlink" width="68pt" height="68pt" viewBox="0 0 68 68" version="1.1">
<g id="surface6896">
<rect x="0" y="0" width="68" height="68" style="fill:rgb(0%,43.137255%,20%);fill-opacity:1;stroke:none;"/>
<path style=" stroke:none;fill-rule:nonzero;fill:rgb(100%,86.666667%,0%);fill-opacity:1;" d="M 11.359375 15.679688 C 14.160156 11.761719 17.921875 9.121094 22.398438 8 C 23.679688 7.679688 24.878906 7.519531 26.160156 7.441406 C 28.71875 7.359375 31.359375 7.359375 33.921875 7.679688 C 37.519531 8.078125 40.960938 8.800781 44.238281 10.078125 C 46.160156 10.878906 47.839844 11.761719 49.601562 13.039062 C 52.160156 14.878906 54.398438 16.640625 56 19.359375 C 57.359375 21.519531 58.160156 23.839844 58.398438 26.238281 C 58.480469 27.28125 58.558594 28.320312 58.480469 29.359375 C 58.398438 30.71875 57.921875 32.078125 57.039062 33.121094 C 55.761719 34.71875 53.839844 36 51.679688 36.640625 C 50.480469 37.039062 49.121094 36.960938 48 36.558594 C 47.039062 36.238281 46.160156 35.601562 45.519531 34.800781 C 44.640625 33.679688 44.160156 32.398438 43.761719 31.039062 C 43.359375 29.761719 43.359375 28.960938 42.878906 27.28125 C 42.480469 25.921875 41.921875 24.800781 41.28125 23.519531 C 40 21.121094 38.320312 19.121094 36.320312 17.199219 C 33.121094 14.238281 29.441406 12.160156 25.28125 10.878906 C 24.878906 10.71875 24.558594 11.121094 24.558594 11.28125 C 24.480469 11.441406 24.398438 11.921875 24.960938 12.160156 C 25.839844 12.480469 26.71875 12.800781 27.679688 13.199219 C 28.320312 13.441406 28.960938 13.761719 29.601562 14.078125 C 30.320312 14.398438 31.519531 15.121094 32.320312 15.761719 C 32.480469 15.921875 32.640625 16 32.640625 16 C 27.28125 15.761719 22.238281 18 18.160156 21.839844 C 17.921875 22.078125 16.480469 23.121094 15.28125 23.761719 C 14.238281 24.320312 12.398438 25.039062 11.039062 24.640625 C 10 24.320312 9.121094 23.359375 9.039062 22.160156 C 9.121094 20.238281 9.921875 17.679688 11.359375 15.679688 Z M 11.359375 15.679688 "/>
<path style=" stroke:none;fill-rule:nonzero;fill:rgb(100%,86.666667%,0%);fill-opacity:1;" d="M 26.160156 50.238281 C 26.238281 48.960938 26.238281 48 26.71875 46.960938 C 26.800781 46.71875 27.28125 46.398438 27.679688 46.320312 C 28.640625 46.160156 29.441406 46.71875 30.160156 47.359375 C 30.800781 48 31.199219 49.121094 31.28125 49.761719 C 31.359375 50.800781 30.878906 51.601562 30.800781 51.761719 C 30.71875 52 30.640625 52.238281 30.800781 52.398438 C 31.519531 53.359375 32.160156 54.078125 32.878906 54.878906 C 33.199219 55.28125 33.28125 55.679688 33.121094 56.078125 C 33.121094 56.238281 33.039062 56.398438 32.878906 56.558594 C 32.078125 57.359375 31.601562 57.679688 30.640625 58.398438 C 30.398438 58.558594 30.238281 58.878906 30.320312 59.28125 C 30.480469 59.839844 30.640625 60.320312 30.71875 60.640625 C 30.800781 61.121094 30.558594 61.28125 30.398438 61.359375 C 29.921875 61.601562 29.601562 61.359375 29.441406 61.039062 C 29.121094 60.238281 28.640625 58.878906 28.640625 58.640625 C 28.480469 57.761719 29.601562 57.039062 30.160156 56.238281 C 30.320312 55.921875 30.398438 55.601562 30.160156 55.28125 C 30.078125 55.199219 30 55.121094 29.921875 54.960938 C 29.519531 54.640625 29.199219 54.398438 28.800781 54.078125 C 28.398438 53.761719 28 53.519531 27.601562 53.28125 C 27.199219 53.039062 26.878906 52.640625 26.640625 52.238281 C 26.078125 51.601562 26.078125 50.878906 26.160156 50.238281 Z M 26.160156 50.238281 "/>
<path style=" stroke:none;fill-rule:nonzero;fill:rgb(100%,86.666667%,0%);fill-opacity:1;" d="M 29.679688 46.238281 C 30.480469 46.238281 31.199219 45.601562 31.199219 44.71875 C 31.199219 43.921875 30.558594 43.199219 29.679688 43.199219 C 28.800781 43.199219 28.160156 43.839844 28.160156 44.71875 C 28.160156 45.601562 28.800781 46.238281 29.679688 46.238281 Z M 29.679688 46.238281 "/>
<path style=" stroke:none;fill-rule:nonzero;fill:rgb(88.627452%,0%,10.196079%);fill-opacity:1;" d="M 6.164062 8.429688 L 8.425781 6.167969 L 61.828125 59.566406 L 59.566406 61.832031 Z M 6.164062 8.429688 "/>
</g>
</svg>
