<?xml version="1.0" encoding="UTF-8"?>
<svg xmlns="http://www.w3.org/2000/svg" xmlns:xlink="http://www.w3.org/1999/xlink" width="68pt" height="68pt" viewBox="0 0 68 68" version="1.1">
<g id="surface6995">
<rect x="0" y="0" width="68" height="68" style="fill:rgb(0%,44.313726%,23.529412%);fill-opacity:1;stroke:none;"/>
<path style=" stroke:none;fill-rule:nonzero;fill:rgb(100%,86.666667%,0%);fill-opacity:1;" d="M 49.121094 17.039062 C 46 13.921875 41.679688 12 36.878906 12 L 16.238281 12 L 16.238281 59.839844 L 28.398438 59.839844 L 28.398438 46.480469 L 36.878906 46.480469 C 41.601562 46.480469 46 44.558594 49.121094 41.441406 C 52.238281 38.320312 54.160156 34 54.160156 29.199219 C 54.160156 24.480469 52.238281 20.078125 49.121094 17.039062 Z M 41.359375 33.679688 C 40.238281 34.800781 38.640625 35.519531 36.878906 35.519531 L 28.398438 35.519531 L 28.398438 22.878906 L 36.878906 22.878906 C 38.640625 22.878906 40.160156 23.601562 41.359375 24.71875 C 42.480469 25.839844 43.199219 27.441406 43.199219 29.199219 C 43.199219 30.960938 42.558594 32.480469 41.359375 33.679688 Z M 41.359375 33.679688 "/>
<path style=" stroke:none;fill-rule:nonzero;fill:rgb(89.019608%,2.352941%,7.450981%);fill-opacity:1;" d="M 6.179688 8.425781 L 8.441406 6.164062 L 61.839844 59.5625 L 59.578125 61.824219 Z M 6.179688 8.425781 "/>
</g>
</svg>
