<?xml version="1.0" encoding="UTF-8"?>
<svg xmlns="http://www.w3.org/2000/svg" xmlns:xlink="http://www.w3.org/1999/xlink" width="68pt" height="68pt" viewBox="0 0 68 68" version="1.1">
<g id="surface6998">
<rect x="0" y="0" width="68" height="68" style="fill:rgb(0%,44.313726%,23.529412%);fill-opacity:1;stroke:none;"/>
<path style=" stroke:none;fill-rule:nonzero;fill:rgb(100%,86.666667%,0%);fill-opacity:1;" d="M 29.839844 5.761719 C 27.121094 5.761719 24.960938 7.921875 24.960938 10.640625 C 24.960938 12.800781 26.398438 14.640625 28.398438 15.28125 L 28.71875 17.601562 L 27.839844 18 C 27.199219 18.078125 26.558594 18.558594 26.238281 19.199219 L 22.238281 27.921875 L 14.320312 32.078125 C 13.839844 32.320312 13.519531 32.800781 13.359375 33.28125 C 13.199219 33.761719 13.28125 34.398438 13.519531 34.800781 C 13.761719 35.199219 14.238281 35.601562 14.71875 35.761719 C 15.199219 35.921875 15.839844 35.839844 16.238281 35.601562 L 22.960938 32.078125 C 24.078125 31.359375 24.960938 30.960938 25.359375 30.640625 C 25.679688 30.238281 25.921875 29.679688 26.480469 28.398438 L 27.199219 26.878906 C 27.199219 26.878906 27.761719 25.761719 28 25.839844 C 28.238281 25.839844 28.558594 29.601562 28.558594 29.601562 L 29.199219 33.761719 L 29.199219 33.839844 L 18.640625 56.71875 C 18.320312 56.558594 18 56.480469 17.679688 56.480469 C 16.558594 56.480469 15.679688 57.359375 15.679688 58.480469 C 15.679688 59.519531 16.878906 60.398438 17.441406 60.480469 L 22.320312 62.71875 L 23.519531 60.078125 L 32.71875 39.839844 C 32.878906 39.519531 33.839844 39.519531 34 39.839844 L 43.441406 58.71875 C 42.640625 58.960938 42.078125 59.761719 42.078125 60.640625 C 42.078125 61.761719 42.960938 62.640625 44.078125 62.640625 C 44.480469 62.640625 44.878906 62.558594 45.039062 62.480469 L 45.28125 62.398438 L 50.398438 59.839844 L 49.121094 57.28125 L 37.121094 33.28125 L 36.398438 28.480469 L 36.078125 26.078125 C 36.078125 26.078125 35.679688 24.078125 35.761719 24.078125 C 35.839844 24 37.839844 25.839844 37.839844 25.839844 L 39.921875 27.921875 L 43.121094 38.160156 C 43.28125 38.640625 43.679688 39.121094 44.160156 39.359375 C 44.640625 39.601562 45.199219 39.679688 45.679688 39.519531 C 46.160156 39.359375 46.640625 38.960938 46.878906 38.480469 C 47.121094 38 47.199219 37.441406 47.039062 36.960938 L 43.761719 26.480469 C 43.679688 26.238281 43.601562 26 43.441406 25.839844 C 43.28125 25.679688 43.199219 25.441406 43.039062 25.28125 L 35.921875 18.238281 C 35.839844 18.160156 35.679688 18.078125 35.601562 18 L 35.601562 17.921875 L 34.800781 17.359375 L 34.238281 17.039062 L 33.839844 16.960938 L 32.640625 16.878906 L 32.320312 14.800781 C 33.839844 14 34.800781 12.398438 34.800781 10.558594 C 34.71875 7.921875 32.558594 5.761719 29.839844 5.761719 Z M 29.839844 5.761719 "/>
<path style=" stroke:none;fill-rule:nonzero;fill:rgb(89.019608%,2.352941%,7.450981%);fill-opacity:1;" d="M 6.179688 8.425781 L 8.441406 6.164062 L 61.839844 59.5625 L 59.578125 61.824219 Z M 6.179688 8.425781 "/>
</g>
</svg>
