<?xml version="1.0" encoding="UTF-8"?>
<svg xmlns="http://www.w3.org/2000/svg" xmlns:xlink="http://www.w3.org/1999/xlink" width="68pt" height="68pt" viewBox="0 0 68 68" version="1.1">
<g id="surface6956">
<path style=" stroke:none;fill-rule:nonzero;fill:rgb(0%,44.313726%,23.529412%);fill-opacity:1;" d="M 0 0.0195312 L 68 0.0195312 L 68 67.980469 L 0 67.980469 Z M 0 0.0195312 "/>
<path style="fill:none;stroke-width:3.6311;stroke-linecap:butt;stroke-linejoin:round;stroke:rgb(100%,86.666667%,0%);stroke-opacity:1;stroke-miterlimit:4;" d="M 328.697837 372.202525 C 328.697837 372.202525 326.203432 382.503307 322.295194 385.795517 C 322.49717 388.602985 324.001892 395.399481 320.598595 401.398172 C 320.002765 402.397953 316.902432 405.498286 315.39771 402.700917 C 314.700892 401.297183 311.297595 385.896505 311.297595 385.896505 " transform="matrix(0.386803,0,0,0.386803,-85.715587,-126.078495)"/>
<path style="fill-rule:nonzero;fill:rgb(0%,44.313726%,23.529412%);fill-opacity:1;stroke-width:3.6311;stroke-linecap:butt;stroke-linejoin:round;stroke:rgb(100%,86.666667%,0%);stroke-opacity:1;stroke-miterlimit:4;" d="M 313.600123 374.595942 C 312.499353 387.502215 307.995286 389.299803 305.399893 392.19816 C 303.198353 406.39708 295.70504 409.699389 292.99856 409.497413 C 292.99856 409.497413 289.999215 409.10356 290.201191 407.103997 C 290.696032 402.498941 292.301742 393.702882 295.503063 383.4021 " transform="matrix(0.386803,0,0,0.386803,-85.715587,-126.078495)"/>
<path style="fill-rule:nonzero;fill:rgb(0%,44.313726%,23.529412%);fill-opacity:1;stroke-width:3.6078;stroke-linecap:butt;stroke-linejoin:round;stroke:rgb(100%,86.666667%,0%);stroke-opacity:1;stroke-miterlimit:4;" d="M 390.79539 371.000767 L 389.704719 376.504616 C 389.704719 376.504616 379.30295 394.096735 361.599744 402.498941 C 342.896757 411.295001 338.89763 419.899183 336.504213 420.898965 C 332.999928 422.302699 331.000364 421.595782 329.59663 419.404341 C 326.102444 414.304445 329.59663 401.903112 347.198848 392.19816 C 355.29809 387.795081 350.995999 375.898688 338.604765 373.202307 C 332.595975 371.899561 330.303547 371.697585 320.295631 372.202525 C 312.701329 372.495391 300.895825 376.696494 297.098675 381.998366 C 283.899536 400.095426 275.598318 408.295656 263.499949 402.397953 C 263.499949 402.397953 286.101076 370.202962 289.504373 364.295161 C 292.40273 359.296252 324.496734 347.096895 330.404535 345.602272 C 336.999055 343.895574 369.396022 346.995907 389.997585 349.298435 Z M 390.79539 371.000767 " transform="matrix(0.386803,0,0,0.386803,-85.715587,-126.078495)"/>
<path style=" stroke:none;fill-rule:nonzero;fill:rgb(0%,44.313726%,23.529412%);fill-opacity:1;" d="M 62.238281 4.195312 L 67.109375 4.195312 L 67.109375 30.886719 L 62.238281 30.886719 Z M 62.238281 4.195312 "/>
<path style=" stroke:none;fill-rule:nonzero;fill:rgb(89.019608%,2.352941%,7.450981%);fill-opacity:1;" d="M 6.226562 8.492188 L 8.496094 6.222656 L 61.722656 59.449219 L 59.453125 61.71875 Z M 6.226562 8.492188 "/>
<path style=" stroke:none;fill-rule:nonzero;fill:rgb(100%,86.666667%,0%);fill-opacity:1;" d="M 32.761719 47.519531 C 33.1875 47.324219 34.851562 46.511719 38.214844 49.335938 C 38.988281 50.070312 39.183594 50.148438 39.609375 50.457031 C 40.652344 51.195312 40.574219 51.117188 40.808594 51.617188 C 41.195312 52.316406 40.652344 52.585938 40.226562 52.855469 C 39.335938 53.4375 37.675781 54.132812 36.515625 54.328125 C 35.042969 54.558594 33.1875 54.828125 30.789062 54.210938 C 30.789062 54.210938 28.585938 53.746094 27.347656 52.855469 C 26.882812 52.507812 27.464844 51.078125 28.003906 50.769531 C 28.699219 50.34375 30.015625 49.183594 30.285156 48.988281 C 31.214844 48.332031 32.375 47.671875 32.761719 47.519531 Z M 32.761719 47.519531 "/>
<path style=" stroke:none;fill-rule:nonzero;fill:rgb(100%,86.666667%,0%);fill-opacity:1;" d="M 33.03125 55.140625 C 32.722656 56.6875 32.183594 58.195312 31.214844 58.851562 C 31.214844 58.851562 30.363281 59.433594 30.054688 60.128906 C 29.707031 60.824219 31.832031 63.03125 33.265625 61.171875 C 33.265625 61.171875 34.464844 60.246094 34.464844 58.503906 C 34.464844 57.265625 34.65625 56.300781 34.929688 55.0625 C 34.347656 55.175781 33.691406 55.175781 33.03125 55.140625 Z M 33.03125 55.140625 "/>
<path style=" stroke:none;fill-rule:nonzero;fill:rgb(100%,86.666667%,0%);fill-opacity:1;" d="M 29.359375 44.5 C 28.933594 43.726562 29.085938 43.84375 27.308594 42.683594 C 26.574219 42.179688 26.226562 42.066406 24.949219 40.90625 C 19.261719 36.378906 16.476562 37.695312 15.703125 38.003906 C 15.085938 38.273438 13.113281 39.320312 11.527344 40.363281 C 11.0625 40.671875 9.515625 41.832031 8.316406 42.527344 C 7.425781 43.03125 5.800781 45.972656 6.613281 46.511719 C 7.347656 47.015625 8.316406 47.441406 9.207031 47.789062 C 9.207031 47.558594 9.246094 47.246094 9.359375 46.746094 C 9.785156 44.734375 11.410156 43.496094 11.410156 43.496094 C 10.753906 44.539062 10.132812 46.707031 10.25 48.136719 C 11.449219 48.484375 12.417969 48.679688 12.417969 48.679688 C 16.4375 49.683594 19.765625 48.796875 22.320312 48.679688 C 24.058594 48.601562 26.921875 47.480469 28.429688 46.511719 C 29.125 46.050781 29.976562 45.664062 29.359375 44.5 Z M 29.359375 44.5 "/>
<path style=" stroke:none;fill-rule:nonzero;fill:rgb(100%,86.666667%,0%);fill-opacity:1;" d="M 24.136719 58.96875 C 23.671875 57.921875 22.472656 57.074219 22.472656 57.074219 C 20.769531 55.796875 19.996094 52.507812 19.648438 49.722656 C 18.796875 49.800781 17.910156 49.917969 16.941406 49.917969 C 17.484375 52.546875 17.910156 54.25 17.910156 56.570312 C 17.910156 59.160156 19.417969 61.058594 19.417969 61.058594 C 22.976562 63.03125 24.601562 60.050781 24.136719 58.96875 Z M 24.136719 58.96875 "/>
</g>
</svg>
