<?xml version="1.0" encoding="UTF-8"?>
<svg xmlns="http://www.w3.org/2000/svg" xmlns:xlink="http://www.w3.org/1999/xlink" width="68pt" height="68pt" viewBox="0 0 68 68" version="1.1">
<g id="surface6783">
<rect x="0" y="0" width="68" height="68" style="fill:rgb(0%,43.137255%,20%);fill-opacity:1;stroke:none;"/>
<path style=" stroke:none;fill-rule:nonzero;fill:rgb(100%,86.666667%,0%);fill-opacity:1;" d="M 6.71875 16.878906 C 7.519531 15.921875 8.640625 15.601562 10.238281 15.441406 C 12.160156 15.28125 14.800781 16.078125 16.398438 17.359375 C 16.398438 17.359375 16.480469 17.441406 16.480469 17.359375 C 16.160156 15.039062 16.078125 12.71875 16.71875 10.398438 C 16.960938 9.601562 17.359375 8.558594 17.839844 8.160156 C 18.078125 7.921875 18.398438 7.679688 18.800781 7.601562 C 19.199219 7.519531 19.519531 7.519531 19.921875 7.601562 C 21.519531 8.078125 22.558594 9.359375 23.601562 10.640625 C 24.320312 11.519531 24.878906 12.398438 25.441406 13.441406 C 25.839844 14.160156 26.238281 14.878906 26.558594 15.601562 C 26.800781 14.558594 26.800781 14.160156 27.359375 13.039062 C 27.601562 12.558594 27.839844 12.238281 28.078125 11.839844 C 28.480469 11.28125 28.878906 10.878906 29.441406 10.398438 C 30.71875 9.359375 32.320312 8.878906 34 8.878906 C 34.320312 8.878906 34.398438 9.199219 34.320312 9.441406 C 34.160156 9.839844 33.839844 9.921875 33.441406 10.398438 C 32.960938 11.121094 32.71875 11.839844 32.480469 12.480469 C 32.398438 12.71875 32.320312 13.601562 32.320312 14.160156 C 32.320312 15.039062 32.398438 15.679688 32.558594 16.800781 C 33.359375 16.640625 34.078125 16.398438 34.878906 16.238281 C 35.679688 16.160156 36.558594 16.320312 37.28125 16.640625 C 38.238281 16.960938 38.960938 17.519531 39.679688 18.238281 C 40.160156 18.800781 40.480469 19.359375 40.800781 20 C 40.878906 20.238281 41.121094 20.640625 40.960938 20.878906 C 40.878906 20.960938 40.640625 20.960938 40.480469 20.878906 C 40 20.398438 39.601562 20.320312 39.039062 20.160156 C 38.640625 20 38.398438 20 38 19.921875 C 37.679688 19.921875 37.441406 19.921875 37.039062 19.921875 C 36.71875 19.921875 36.480469 20.078125 36.238281 20.160156 C 35.839844 20.320312 35.519531 20.640625 35.121094 21.039062 C 34.480469 21.839844 34.078125 22.71875 33.441406 23.519531 C 32.71875 24.480469 31.839844 25.199219 30.878906 26 C 30.800781 26.078125 30.640625 26.398438 30.71875 26.640625 C 30.800781 26.800781 31.121094 26.960938 31.28125 27.121094 C 31.839844 27.761719 31.359375 28.640625 30.800781 28.960938 C 29.839844 29.601562 28.71875 30.878906 29.121094 32 C 29.761719 33.839844 30.960938 36.078125 31.679688 38.238281 C 31.679688 38.238281 31.679688 38.398438 31.761719 38.398438 C 34.558594 35.601562 37.519531 32.878906 40.160156 30.640625 C 41.519531 29.441406 43.519531 28.878906 45.199219 28.960938 C 46.71875 29.039062 48.238281 29.441406 49.761719 29.601562 C 50.800781 29.761719 51.839844 29.839844 52.878906 30 C 55.761719 30.320312 61.441406 30.71875 61.441406 30.71875 L 61.441406 32 C 61.441406 32 55.441406 31.679688 51.679688 31.199219 C 49.601562 30.960938 47.679688 30.640625 45.601562 30.320312 C 44.320312 30.160156 42.71875 30.558594 41.601562 31.28125 C 41.28125 31.441406 41.039062 31.679688 40.800781 31.921875 C 38.480469 33.921875 36.480469 35.761719 34.320312 37.839844 C 33.601562 38.558594 32.878906 39.199219 32.320312 40 C 32.640625 41.039062 32.878906 41.839844 33.199219 43.039062 C 36.160156 42.320312 39.359375 41.039062 41.761719 39.601562 C 41.679688 39.039062 41.601562 38.398438 41.601562 37.839844 C 41.441406 36.71875 41.359375 35.921875 41.359375 34.71875 C 41.359375 34.160156 41.839844 34.078125 42 34.078125 C 42.160156 34.078125 42.558594 34.238281 42.558594 34.640625 C 42.558594 35.839844 42.71875 36.640625 42.878906 38.800781 C 44.238281 37.921875 45.28125 36.800781 46.398438 35.601562 C 46.558594 35.441406 46.878906 35.441406 47.121094 35.601562 C 47.199219 35.679688 47.28125 35.761719 47.28125 35.839844 C 47.359375 36 47.28125 36.320312 47.199219 36.480469 C 46.480469 37.519531 45.519531 38.480469 44.480469 39.28125 C 42 41.28125 39.359375 42.480469 36 43.601562 C 35.519531 43.761719 34.960938 43.839844 34.480469 44 C 33.039062 44.398438 31.679688 44.640625 30.238281 45.039062 C 29.039062 45.359375 27.761719 45.839844 26.878906 46.878906 C 26.480469 47.359375 26.320312 48 26.480469 48.558594 C 26.878906 49.519531 28.160156 49.761719 28.71875 49.761719 C 31.679688 49.839844 34.71875 49.28125 37.519531 48.078125 C 40.558594 46.320312 44 44.71875 47.441406 44.320312 C 48.238281 44.71875 49.039062 45.121094 49.921875 45.359375 C 50.960938 45.601562 51.601562 45.761719 52.398438 45.839844 C 55.441406 46 58.558594 45.441406 61.519531 44.640625 L 61.519531 45.921875 C 58.960938 46.640625 56.800781 47.199219 53.601562 47.199219 C 53.601562 47.761719 53.359375 48.480469 53.121094 48.878906 C 52.398438 50.238281 51.839844 51.441406 50.640625 52.558594 C 49.359375 53.839844 47.28125 53.921875 46.480469 53.199219 C 45.839844 53.761719 44.960938 53.921875 44.160156 54 C 42.800781 54.078125 41.839844 53.921875 40.320312 53.359375 C 40.238281 53.359375 40.160156 53.359375 39.839844 53.519531 C 39.441406 53.761719 38.960938 53.839844 38.480469 53.839844 C 38.160156 53.839844 37.761719 53.761719 37.441406 53.679688 C 36.640625 53.28125 35.921875 53.039062 35.121094 52.558594 C 35.121094 52.558594 34.960938 52.480469 34.960938 52.558594 C 35.121094 54.800781 35.121094 56.320312 34.640625 59.359375 C 34.160156 59.761719 34 59.921875 33.679688 60.398438 C 33.121094 61.199219 32.960938 61.441406 32.878906 61.679688 L 32.800781 61.679688 L 32.800781 61.519531 C 33.679688 58.878906 34 55.199219 33.601562 51.921875 C 32.71875 53.441406 31.441406 55.441406 29.519531 56.160156 C 28.238281 56.558594 26.960938 56.398438 25.761719 55.441406 C 25.921875 53.761719 26.238281 52.238281 26.640625 50.640625 C 26.640625 50.558594 26.558594 50.558594 26.480469 50.480469 C 25.679688 50.078125 25.121094 49.199219 25.039062 48.320312 C 24.960938 47.519531 25.199219 46.878906 25.679688 46.160156 C 26 45.761719 26.238281 45.441406 26.640625 45.199219 C 26.960938 45.039062 27.199219 44.800781 27.519531 44.640625 C 28 44.398438 28.320312 44.320312 28.878906 44.160156 C 29.519531 42.71875 30 41.199219 30.640625 39.839844 C 29.761719 37.359375 28.71875 35.039062 27.679688 32.558594 C 27.519531 32.078125 26.800781 31.679688 26.078125 31.679688 C 25.519531 31.601562 24.960938 31.679688 24.398438 31.761719 C 24 31.839844 23.519531 31.761719 23.121094 31.601562 C 22.800781 31.441406 22.480469 31.199219 22.320312 30.800781 C 22.320312 30.558594 22.320312 30.320312 22.480469 30 C 22.480469 29.839844 22.320312 29.519531 22.160156 29.519531 C 20.960938 29.441406 20.878906 29.679688 19.839844 29.839844 C 18.800781 29.921875 17.761719 29.679688 16.800781 29.359375 C 15.761719 28.960938 14.800781 28.558594 13.679688 28.320312 C 12.878906 28.160156 12.078125 28.078125 11.28125 28.238281 C 11.039062 28.320312 10.800781 28.398438 10.558594 28.558594 C 10.238281 28.71875 10 28.960938 9.679688 29.199219 C 9.28125 29.601562 9.039062 30.078125 8.558594 30.398438 C 8 30.398438 7.761719 29.679688 7.679688 29.199219 C 7.519531 28.640625 7.679688 28.160156 7.839844 27.601562 C 8.238281 26.398438 8.800781 25.359375 9.761719 24.558594 C 10.078125 24.320312 10.320312 24.160156 10.71875 24 C 10.960938 23.921875 11.199219 23.839844 11.441406 23.761719 C 11.679688 23.679688 11.921875 23.679688 12.160156 23.679688 C 11.441406 22.320312 10.960938 20.878906 10.640625 20.238281 C 9.28125 17.839844 7.679688 17.359375 6.480469 17.601562 C 6.71875 17.519531 6.480469 17.121094 6.71875 16.878906 Z M 6.71875 16.878906 "/>
<path style=" stroke:none;fill-rule:nonzero;fill:rgb(0%,43.137255%,20%);fill-opacity:1;" d="M 32.160156 43.28125 L 31.679688 41.679688 L 30.800781 43.601562 Z M 32.160156 43.28125 "/>
<path style=" stroke:none;fill-rule:nonzero;fill:rgb(0%,43.137255%,20%);fill-opacity:1;" d="M 28.160156 50.878906 C 27.761719 52.640625 27.601562 53.359375 27.359375 54.640625 L 27.441406 54.71875 C 27.921875 54.960938 28.480469 55.121094 29.039062 54.878906 C 31.039062 54.238281 32.160156 52.238281 33.039062 50.640625 C 33.039062 50.640625 32.878906 50.640625 32.800781 50.640625 C 31.199219 50.960938 29.839844 50.960938 28.160156 50.878906 Z M 28.160156 50.878906 "/>
<path style=" stroke:none;fill-rule:nonzero;fill:rgb(0%,43.137255%,20%);fill-opacity:1;" d="M 38.320312 49.121094 C 37.839844 49.359375 37.359375 49.519531 36.878906 49.761719 C 36.238281 50 35.359375 50.238281 34.960938 50.320312 L 34.960938 50.878906 C 34.960938 50.878906 36.558594 51.839844 37.839844 52.398438 C 38.558594 52.71875 39.121094 52.640625 39.679688 52.320312 C 40.238281 52 43.441406 49.28125 43.839844 48.558594 C 44 48.238281 44 47.921875 43.839844 47.601562 C 43.519531 47.199219 42.960938 47.039062 42.640625 47.039062 C 42.398438 47.039062 40.71875 47.839844 39.679688 48.398438 C 39.28125 48.558594 38.800781 48.800781 38.320312 49.121094 Z M 38.320312 49.121094 "/>
<path style=" stroke:none;fill-rule:nonzero;fill:rgb(0%,43.137255%,20%);fill-opacity:1;" d="M 48.078125 49.039062 C 48.558594 48.238281 48.878906 47.761719 48.878906 46.480469 C 48.878906 46.398438 48.878906 46.238281 48.878906 46.238281 C 48.480469 46.160156 48.078125 46 47.359375 45.601562 C 46.558594 45.761719 46.078125 45.921875 44.960938 46.160156 C 44.71875 46.238281 44.320312 46.320312 44.320312 46.320312 C 44.878906 46.71875 45.199219 47.039062 45.359375 47.601562 C 45.441406 48.078125 45.28125 48.71875 45.039062 48.960938 C 44.078125 50.160156 42.878906 51.121094 41.679688 52.238281 C 43.519531 52.71875 44.800781 52.800781 45.679688 52.238281 C 46 52 47.359375 50.238281 48.078125 49.039062 Z M 48.078125 49.039062 "/>
<path style=" stroke:none;fill-rule:nonzero;fill:rgb(0%,43.137255%,20%);fill-opacity:1;" d="M 49.839844 48.558594 C 49.28125 49.921875 47.761719 51.761719 47.519531 52.078125 C 48 52.480469 48.800781 52.320312 49.359375 52 C 50.640625 51.28125 51.441406 49.839844 52.160156 48.480469 C 52.398438 48 52.480469 47.519531 52.558594 47.039062 C 52.160156 47.039062 50.480469 46.800781 50.238281 46.640625 C 50.160156 47.519531 50 48 49.839844 48.558594 Z M 49.839844 48.558594 "/>
<path style=" stroke:none;fill-rule:nonzero;fill:rgb(0%,43.137255%,20%);fill-opacity:1;" d="M 24.160156 20.800781 C 23.921875 21.039062 23.839844 21.441406 23.921875 21.839844 C 24 22.238281 24.320312 22.640625 24.640625 22.71875 C 24.960938 22.800781 25.28125 22.558594 25.359375 22.238281 C 25.441406 21.761719 25.359375 21.28125 24.878906 20.878906 C 24.71875 20.71875 24.480469 20.558594 24.160156 20.800781 Z M 24.160156 20.800781 "/>
<path style=" stroke:none;fill-rule:nonzero;fill:rgb(0%,43.137255%,20%);fill-opacity:1;" d="M 26.320312 21.839844 C 26.160156 22.078125 26.078125 22.480469 26.160156 22.800781 C 26.160156 22.960938 26.320312 23.359375 26.480469 23.441406 C 26.640625 23.519531 26.878906 23.601562 27.039062 23.519531 C 27.601562 23.28125 27.761719 22.398438 27.519531 21.921875 C 27.441406 21.761719 27.359375 21.519531 27.039062 21.441406 C 26.800781 21.359375 26.480469 21.519531 26.320312 21.839844 Z M 26.320312 21.839844 "/>
<path style=" stroke:none;fill-rule:nonzero;fill:rgb(0%,43.137255%,20%);fill-opacity:1;" d="M 23.121094 23.601562 C 22.878906 24.160156 23.441406 25.039062 24 25.199219 C 24.238281 25.28125 24.480469 25.121094 24.640625 24.878906 C 24.878906 24.398438 24.558594 23.761719 24.078125 23.359375 C 23.679688 23.039062 23.199219 23.28125 23.121094 23.601562 Z M 23.121094 23.601562 "/>
<path style=" stroke:none;fill-rule:nonzero;fill:rgb(0%,43.137255%,20%);fill-opacity:1;" d="M 20.480469 24.558594 C 20.71875 25.121094 21.359375 25.359375 21.839844 25.359375 C 22.238281 25.28125 22.320312 24.71875 22.078125 24.320312 C 21.679688 23.761719 21.121094 23.441406 20.558594 23.761719 C 20.320312 23.761719 20.320312 24.238281 20.480469 24.558594 Z M 20.480469 24.558594 "/>
<path style=" stroke:none;fill-rule:nonzero;fill:rgb(0%,43.137255%,20%);fill-opacity:1;" d="M 24.878906 28 C 24.398438 28.160156 24 28.640625 24.160156 29.039062 C 24.238281 29.28125 24.640625 29.519531 25.039062 29.441406 C 25.601562 29.359375 26.320312 28.800781 26.160156 28.238281 C 26 27.839844 25.28125 27.839844 24.878906 28 Z M 24.878906 28 "/>
<path style=" stroke:none;fill-rule:nonzero;fill:rgb(0%,43.137255%,20%);fill-opacity:1;" d="M 27.519531 27.359375 C 27.441406 27.601562 27.519531 27.921875 27.761719 28 C 28.398438 28.238281 29.121094 28 29.441406 27.359375 C 29.601562 27.039062 29.441406 26.71875 29.199219 26.640625 C 28.558594 26.238281 27.679688 26.71875 27.519531 27.359375 Z M 27.519531 27.359375 "/>
<path style=" stroke:none;fill-rule:nonzero;fill:rgb(88.627452%,0%,10.196079%);fill-opacity:1;" d="M 6.164062 8.429688 L 8.425781 6.167969 L 61.828125 59.566406 L 59.566406 61.832031 Z M 6.164062 8.429688 "/>
</g>
</svg>
