<?xml version="1.0" encoding="UTF-8"?>
<svg xmlns="http://www.w3.org/2000/svg" xmlns:xlink="http://www.w3.org/1999/xlink" width="68pt" height="68pt" viewBox="0 0 68 68" version="1.1">
<g id="surface6910">
<rect x="0" y="0" width="68" height="68" style="fill:rgb(0%,44.313726%,23.529412%);fill-opacity:1;stroke:none;"/>
<path style="fill:none;stroke-width:1.75;stroke-linecap:butt;stroke-linejoin:round;stroke:rgb(100%,86.666667%,0%);stroke-opacity:1;stroke-miterlimit:4;" d="M 53.900883 24.799855 C 53.900883 24.799855 52.699085 29.801671 50.801509 31.39758 C 50.898821 32.701556 51.599464 36.000418 49.998688 38.900303 C 49.701888 39.401458 48.198424 40.900056 47.497781 39.498769 C 47.200981 38.798126 45.498028 31.39758 45.498028 31.39758 " transform="matrix(0.802834,0,0,0.802834,0,0)"/>
<path style="fill-rule:nonzero;fill:rgb(0%,44.313726%,23.529412%);fill-opacity:1;stroke-width:1.75;stroke-linecap:butt;stroke-linejoin:round;stroke:rgb(100%,86.666667%,0%);stroke-opacity:1;stroke-miterlimit:4;" d="M 46.597649 26.001653 C 45.999183 32.200401 43.902118 33.100533 42.70032 34.50182 C 41.698011 41.299033 38.000171 42.899809 36.701061 42.797632 C 36.701061 42.797632 35.299775 42.598143 35.401952 41.600699 C 35.601441 39.401458 36.399396 35.100286 37.897994 30.200648 " transform="matrix(0.802834,0,0,0.802834,0,0)"/>
<path style="fill-rule:nonzero;fill:rgb(0%,44.313726%,23.529412%);fill-opacity:1;stroke-width:1.75;stroke-linecap:butt;stroke-linejoin:round;stroke:rgb(100%,86.666667%,0%);stroke-opacity:1;stroke-miterlimit:4;" d="M 79.201893 27.198586 C 79.201893 27.198586 78.399072 35.401952 69.801594 39.401458 C 60.800274 43.600452 58.897832 47.799447 57.7009 48.198424 C 55.997947 48.899068 55.097815 48.50009 54.402037 47.497781 C 52.699085 45.001739 54.402037 38.997615 62.902204 34.399643 C 66.799532 32.297713 64.697602 26.60012 58.698343 25.198833 C 55.798458 24.600367 54.698838 24.49819 49.901377 24.697678 C 46.198671 24.902033 40.59839 26.901786 38.700814 29.397828 C 32.297713 38.102348 27.398075 43.400964 21.598305 40.501079 C 21.598305 40.501079 31.601935 24.999344 33.402199 22.298948 C 35.401952 19.399063 51.90113 12.499672 54.698838 11.799029 C 57.900389 11.001074 68.901462 13.599293 78.501249 15.798535 Z M 79.201893 27.198586 " transform="matrix(0.802834,0,0,0.802834,0,0)"/>
<path style=" stroke:none;fill-rule:nonzero;fill:rgb(89.019608%,2.352941%,7.450981%);fill-opacity:1;" d="M 6.183594 8.421875 L 8.453125 6.148438 L 61.875 59.570312 L 59.601562 61.839844 Z M 6.183594 8.421875 "/>
<path style=" stroke:none;fill-rule:nonzero;fill:rgb(0%,44.313726%,23.529412%);fill-opacity:1;" d="M 62.140625 7.949219 L 67.035156 7.949219 L 67.035156 30.667969 L 62.140625 30.667969 Z M 62.140625 7.949219 "/>
<path style="fill-rule:nonzero;fill:rgb(100%,86.666667%,0%);fill-opacity:1;stroke-width:0.4;stroke-linecap:butt;stroke-linejoin:miter;stroke:rgb(100%,86.666667%,0%);stroke-opacity:1;stroke-miterlimit:4;" d="M 19.900218 59.900141 C 19.900218 59.900141 19.50124 59.598476 19.102263 60.002319 C 16.601355 62.498361 14.898402 63.199004 18.897908 67.101198 C 22.800103 70.998527 28.200895 72.900968 30.599626 70.599549 Z M 19.900218 59.900141 " transform="matrix(0.802834,0,0,0.802834,0,0)"/>
<path style="fill-rule:nonzero;fill:rgb(100%,86.666667%,0%);fill-opacity:1;stroke-width:0.4;stroke-linecap:butt;stroke-linejoin:miter;stroke:rgb(100%,86.666667%,0%);stroke-opacity:1;stroke-miterlimit:4;" d="M 21.199327 58.601032 C 21.199327 58.601032 20.897661 58.202054 21.301504 57.798211 C 23.802412 55.302169 24.400878 53.701394 28.400384 57.598723 C 32.297713 61.500917 34.302331 66.799532 31.898735 69.198263 Z M 21.199327 58.601032 " transform="matrix(0.802834,0,0,0.802834,0,0)"/>
<path style="fill-rule:nonzero;fill:rgb(100%,86.666667%,0%);fill-opacity:1;stroke-width:0.4;stroke-linecap:butt;stroke-linejoin:miter;stroke:rgb(100%,86.666667%,0%);stroke-opacity:1;stroke-miterlimit:4;" d="M 16.499178 60.600785 C 17.097644 59.301675 20.999838 55.59897 22.401125 54.898326 C 23.598058 54.29986 22.600614 53.701394 22.600614 53.701394 C 19.598552 52.300107 17.700976 53.200239 16.1002 54.801015 C 14.499425 56.40179 13.70147 58.099877 15.097891 61.101939 C 15.097891 61.101939 15.701223 62.099383 16.499178 60.600785 Z M 16.499178 60.600785 " transform="matrix(0.802834,0,0,0.802834,0,0)"/>
<path style="fill-rule:nonzero;fill:rgb(100%,87.450981%,0%);fill-opacity:1;stroke-width:0.4;stroke-linecap:butt;stroke-linejoin:miter;stroke:rgb(100%,86.666667%,0%);stroke-opacity:1;stroke-miterlimit:4;" d="M 15.00058 53.701394 C 14.100448 54.601526 13.501981 55.302169 14.601602 56.499102 C 15.501734 57.399234 16.401866 56.898079 17.301998 55.997947 C 18.202131 55.097815 18.69842 54.197683 17.798288 53.302417 C 16.698667 52.19793 15.900712 52.898573 15.00058 53.701394 Z M 15.00058 53.701394 " transform="matrix(0.802834,0,0,0.802834,0,0)"/>
<path style="fill-rule:nonzero;fill:rgb(100%,100%,100%);fill-opacity:1;stroke-width:0.7189;stroke-linecap:round;stroke-linejoin:round;stroke:rgb(100%,86.666667%,0%);stroke-opacity:1;stroke-miterlimit:4;" d="M 12.402361 54.898326 C 13.098138 55.798458 13.70147 55.997947 14.197759 55.59897 " transform="matrix(0.802834,0,0,0.802834,0,0)"/>
<path style="fill-rule:nonzero;fill:rgb(100%,100%,100%);fill-opacity:1;stroke-width:1.1802;stroke-linecap:round;stroke-linejoin:round;stroke:rgb(100%,86.666667%,0%);stroke-opacity:1;stroke-miterlimit:4;" d="M 25.30101 70.297883 C 25.30101 70.297883 25.101521 72.200325 25.398322 73.402123 C 25.802165 75.10021 26.60012 76.302008 26.60012 76.302008 " transform="matrix(0.802834,0,0,0.802834,0,0)"/>
<path style="fill:none;stroke-width:1.1802;stroke-linecap:round;stroke-linejoin:round;stroke:rgb(100%,86.666667%,0%);stroke-opacity:1;stroke-miterlimit:4;" d="M 19.399063 64.999268 C 19.399063 64.999268 17.598799 68.298131 17.997776 69.602106 C 18.601108 71.499681 20.80035 72.701479 20.299195 76.399319 " transform="matrix(0.802834,0,0,0.802834,0,0)"/>
<path style="fill-rule:nonzero;fill:rgb(100%,100%,100%);fill-opacity:1;stroke-width:1.1802;stroke-linecap:round;stroke-linejoin:round;stroke:rgb(100%,86.666667%,0%);stroke-opacity:1;stroke-miterlimit:4;" d="M 31.699246 64.001824 C 31.699246 64.001824 33.601688 63.802336 34.79862 64.099136 C 36.501573 64.498113 37.698505 65.300934 37.698505 65.300934 " transform="matrix(0.802834,0,0,0.802834,0,0)"/>
<path style="fill:none;stroke-width:1.1802;stroke-linecap:round;stroke-linejoin:round;stroke:rgb(100%,86.666667%,0%);stroke-opacity:1;stroke-miterlimit:4;" d="M 26.400631 58.099877 C 26.400631 58.099877 29.699493 56.299613 30.998603 56.698591 C 32.901044 57.301922 34.097977 59.501164 37.800682 59.000009 " transform="matrix(0.802834,0,0,0.802834,0,0)"/>
<path style="fill:none;stroke-width:1.1802;stroke-linecap:round;stroke-linejoin:round;stroke:rgb(100%,86.666667%,0%);stroke-opacity:1;stroke-miterlimit:4;" d="M 25.101521 58.099877 C 25.101521 58.099877 27.801918 54.29986 27.398075 53.098062 C 26.799608 51.000998 23.500746 49.901377 20.498684 47.200981 " transform="matrix(0.802834,0,0,0.802834,0,0)"/>
<path style="fill:none;stroke-width:1.1802;stroke-linecap:round;stroke-linejoin:round;stroke:rgb(100%,86.666667%,0%);stroke-opacity:1;stroke-miterlimit:4;" d="M 19.399063 63.597981 C 19.399063 63.597981 15.599046 66.298378 14.402113 65.8994 C 12.300183 65.300934 11.200563 62.002072 8.500166 59.000009 " transform="matrix(0.802834,0,0,0.802834,0,0)"/>
<path style="fill-rule:nonzero;fill:rgb(100%,100%,100%);fill-opacity:1;stroke-width:0.7189;stroke-linecap:round;stroke-linejoin:round;stroke:rgb(100%,86.666667%,0%);stroke-opacity:1;stroke-miterlimit:4;" d="M 16.401866 51.098309 C 17.501487 52.100619 17.39931 52.499596 17.000333 53.000751 " transform="matrix(0.802834,0,0,0.802834,0,0)"/>
</g>
</svg>
