<?xml version="1.0" encoding="UTF-8"?>
<svg xmlns="http://www.w3.org/2000/svg" xmlns:xlink="http://www.w3.org/1999/xlink" width="68pt" height="68pt" viewBox="0 0 68 68" version="1.1">
<g id="surface6827">
<rect x="0" y="0" width="68" height="68" style="fill:rgb(0%,44.313726%,23.529412%);fill-opacity:1;stroke:none;"/>
<path style=" stroke:none;fill-rule:nonzero;fill:rgb(100%,86.666667%,0%);fill-opacity:1;" d="M 45.679688 45.441406 C 46.960938 46.160156 47.761719 47.761719 47.761719 49.199219 C 47.761719 50.71875 46.960938 52.320312 45.761719 53.199219 C 35.039062 53.28125 24.398438 53.28125 13.679688 53.28125 C 12.71875 52.71875 12.078125 51.679688 11.761719 50.640625 C 11.199219 48.800781 12.078125 46.398438 13.679688 45.601562 C 24.320312 45.519531 34.960938 45.441406 45.679688 45.441406 Z M 45.679688 45.441406 "/>
<path style=" stroke:none;fill-rule:nonzero;fill:rgb(100%,86.666667%,0%);fill-opacity:1;" d="M 46.960938 45.441406 C 47.441406 45.441406 48.320312 45.441406 48.320312 45.441406 C 49.761719 46.238281 50.558594 48.160156 50.398438 49.839844 C 50.320312 50.398438 50.078125 51.039062 49.839844 51.601562 C 49.441406 52.238281 48.960938 52.71875 48.398438 53.199219 C 47.921875 53.199219 47.519531 53.199219 47.039062 53.199219 C 48.480469 52.160156 49.359375 50.320312 48.960938 48.480469 C 48.640625 47.121094 47.761719 46.078125 46.960938 45.441406 Z M 46.960938 45.441406 "/>
<path style=" stroke:none;fill-rule:nonzero;fill:rgb(100%,86.666667%,0%);fill-opacity:1;" d="M 49.519531 45.441406 C 49.921875 45.441406 50.398438 45.441406 50.878906 45.441406 C 52.160156 46.078125 52.878906 47.601562 52.960938 49.039062 C 53.039062 50.640625 52.238281 52.320312 50.960938 53.199219 C 50.480469 53.199219 50.078125 53.199219 49.601562 53.199219 C 50.480469 52.480469 51.199219 51.601562 51.441406 50.398438 C 51.839844 48.640625 51.28125 46.960938 49.921875 45.839844 C 49.761719 45.679688 49.519531 45.519531 49.519531 45.441406 Z M 49.519531 45.441406 "/>
<path style=" stroke:none;fill-rule:nonzero;fill:rgb(100%,86.666667%,0%);fill-opacity:1;" d="M 52.078125 45.441406 C 52.480469 45.441406 53.28125 45.441406 53.28125 45.441406 C 54.640625 46 55.441406 47.839844 55.441406 49.359375 C 55.441406 50.878906 54.878906 52.078125 53.441406 53.199219 C 53.441406 53.199219 52.480469 53.199219 52.078125 53.199219 C 53.28125 52.320312 54 51.039062 54.078125 49.679688 C 54.320312 47.921875 53.441406 46.320312 52.078125 45.441406 Z M 52.078125 45.441406 "/>
<path style=" stroke:none;fill-rule:nonzero;fill:rgb(100%,86.666667%,0%);fill-opacity:1;" d="M 40.078125 11.761719 C 40.398438 11.359375 40.800781 11.199219 41.28125 11.359375 C 41.679688 11.519531 41.921875 12.160156 41.679688 12.558594 C 40.398438 14.320312 38.878906 16.320312 38 18.558594 C 37.679688 19.359375 37.441406 20.078125 37.679688 20.960938 C 38 22.238281 39.601562 22.800781 40.71875 23.359375 C 43.359375 24.71875 44.398438 24.800781 46.800781 26.480469 C 49.121094 28.160156 50.878906 30.320312 51.761719 32.878906 C 52.480469 35.199219 52.398438 37.921875 51.601562 40.480469 C 51.441406 40.878906 50.800781 40.960938 50.398438 40.800781 C 50.078125 40.640625 49.921875 40.160156 50 39.839844 C 50.480469 38.238281 50.640625 36.800781 50.480469 35.121094 C 50.320312 33.121094 49.441406 31.441406 48.078125 29.921875 C 45.359375 26.878906 41.601562 26 38.238281 24.078125 C 37.039062 23.359375 36.078125 22.238281 35.921875 20.800781 C 35.839844 19.601562 36.558594 18 37.199219 16.558594 C 37.679688 15.28125 38.960938 13.28125 40.078125 11.761719 Z M 40.078125 11.761719 "/>
<path style=" stroke:none;fill-rule:nonzero;fill:rgb(100%,86.666667%,0%);fill-opacity:1;" d="M 54.398438 9.839844 C 54.71875 9.679688 55.039062 9.679688 55.359375 9.839844 C 55.839844 10.160156 55.921875 11.039062 55.359375 11.359375 C 53.121094 12.558594 51.359375 13.679688 49.519531 15.199219 C 48.320312 16.160156 47.199219 17.359375 46.320312 18.800781 C 46.160156 19.199219 46.078125 19.519531 46.160156 19.921875 C 46.238281 20.238281 46.480469 20.558594 46.71875 20.71875 C 49.28125 22.160156 51.441406 23.359375 53.28125 25.359375 C 54.398438 26.558594 55.28125 27.921875 55.921875 29.359375 C 57.199219 32.160156 57.28125 35.199219 56.558594 38.238281 C 56.078125 40.238281 55.199219 42 54 43.519531 C 53.839844 43.761719 53.441406 43.761719 53.121094 43.679688 C 52.558594 43.519531 52.320312 42.800781 52.71875 42.320312 C 54.558594 39.839844 55.28125 37.039062 55.28125 34 C 55.28125 32.480469 54.71875 30.800781 53.921875 29.28125 C 52.078125 26 48.640625 23.761719 46 22.398438 C 44.398438 21.601562 43.839844 19.28125 44.878906 17.921875 C 47.519531 14.320312 50.878906 11.761719 54.398438 9.839844 Z M 54.398438 9.839844 "/>
<path style=" stroke:none;fill-rule:nonzero;fill:rgb(89.019608%,2.352941%,7.450981%);fill-opacity:1;" d="M 6.164062 8.429688 L 8.425781 6.167969 L 61.828125 59.566406 L 59.566406 61.832031 Z M 6.164062 8.429688 "/>
</g>
</svg>
