<?xml version="1.0" encoding="UTF-8"?>
<svg xmlns="http://www.w3.org/2000/svg" xmlns:xlink="http://www.w3.org/1999/xlink" width="68pt" height="68pt" viewBox="0 0 68 68" version="1.1">
<g id="surface6907">
<rect x="0" y="0" width="68" height="68" style="fill:rgb(0%,44.313726%,23.529412%);fill-opacity:1;stroke:none;"/>
<path style=" stroke:none;fill-rule:nonzero;fill:rgb(100%,86.666667%,0%);fill-opacity:1;" d="M 28.566406 22.613281 C 31.421875 22.613281 32.613281 22.691406 33.960938 22.851562 C 34.59375 22.929688 34.914062 23.011719 35.152344 23.167969 C 38.324219 25.074219 40.863281 26.660156 44.039062 28.644531 C 44.433594 28.882812 44.832031 29.199219 45.308594 29.199219 C 49.828125 29.835938 53.796875 30.230469 58.398438 31.183594 C 58.875 31.261719 59.273438 31.660156 59.273438 32.054688 C 59.351562 33.246094 59.351562 34.753906 59.351562 36.101562 C 59.351562 36.421875 58.953125 36.894531 58.636719 36.976562 C 57.84375 37.132812 57.289062 37.292969 56.496094 37.371094 C 55.226562 37.609375 54.113281 37.691406 52.925781 37.847656 C 52.84375 39.59375 51.972656 40.863281 50.625 41.578125 C 48.957031 42.449219 46.894531 42.132812 45.625 40.785156 C 44.273438 39.355469 44.117188 36.976562 44.988281 35.785156 C 44.910156 35.785156 44.273438 35.707031 44.039062 35.785156 C 43.878906 35.785156 43.800781 35.863281 43.71875 36.101562 C 43.5625 36.65625 43.5625 36.816406 43.480469 37.53125 C 43.480469 37.769531 43.164062 37.925781 43.003906 37.925781 C 36.5 38.007812 30.308594 38.007812 23.804688 38.007812 C 23.566406 38.007812 23.328125 37.847656 23.25 37.609375 C 23.167969 36.976562 23.167969 36.183594 22.691406 35.863281 C 22.613281 35.785156 21.742188 35.863281 21.742188 35.863281 L 21.742188 36.023438 C 22.851562 38.007812 21.898438 40.863281 19.757812 41.816406 C 18.089844 42.609375 16.105469 42.292969 14.757812 40.863281 C 14.042969 40.148438 13.726562 39.195312 13.648438 38.246094 C 13.566406 37.691406 13.648438 37.292969 13.726562 36.894531 C 12.21875 36.894531 11.265625 36.894531 9.285156 36.816406 C 8.886719 36.816406 8.332031 36.339844 8.332031 35.863281 C 8.253906 34.039062 8.253906 31.976562 8.253906 30.308594 C 8.253906 29.515625 8.886719 29.121094 9.285156 29.121094 C 10.871094 29.121094 14.441406 29.199219 14.996094 29.039062 C 16.902344 27.453125 19.042969 25.074219 21.265625 23.167969 C 21.503906 22.929688 22.21875 22.773438 22.851562 22.691406 C 25.152344 22.691406 25.789062 22.613281 28.566406 22.613281 Z M 28.566406 22.613281 "/>
<path style=" stroke:none;fill-rule:nonzero;fill:rgb(0%,44.313726%,23.529412%);fill-opacity:1;" d="M 28.566406 23.882812 C 26.582031 23.882812 25.789062 23.960938 22.929688 24.199219 C 22.613281 24.199219 22.21875 24.4375 21.820312 24.835938 C 20.628906 26.265625 19.835938 27.296875 18.726562 28.566406 C 18.488281 28.804688 18.644531 29.199219 19.121094 29.199219 C 26.34375 29.277344 33.40625 29.121094 40.546875 29.121094 C 40.941406 29.121094 41.578125 29.121094 41.65625 29.121094 C 41.894531 29.121094 41.894531 28.722656 41.734375 28.566406 C 39.277344 27.058594 37.132812 25.707031 34.675781 24.199219 C 34.515625 24.121094 34.199219 24.042969 34.039062 24.042969 C 33.324219 24.042969 32.691406 23.960938 32.054688 23.882812 C 30.867188 23.882812 29.675781 23.882812 28.566406 23.882812 Z M 28.566406 23.882812 "/>
<path style="fill:none;stroke-width:1.5736;stroke-linecap:butt;stroke-linejoin:miter;stroke:rgb(100%,86.666667%,0%);stroke-opacity:1;stroke-miterlimit:4;" d="M 53.099734 56.600004 C 53.099734 54.300952 48.50163 52.400664 42.702308 52.400664 C 37.001446 52.400664 32.299959 54.300952 32.299959 56.600004 " transform="matrix(0.793466,0,0,0.793466,0,0)"/>
<path style="fill-rule:nonzero;fill:rgb(100%,86.666667%,0%);fill-opacity:1;stroke-width:1.5736;stroke-linecap:butt;stroke-linejoin:round;stroke:rgb(100%,86.666667%,0%);stroke-opacity:1;stroke-miterlimit:4;" d="M 53.099734 56.600004 L 49.29916 73.402284 C 48.201325 77.301318 37.099907 77.301318 36.198993 73.402284 L 32.398419 56.600004 C 32.398419 58.899056 37.001446 60.799343 42.800768 60.799343 C 48.50163 60.799343 53.099734 58.899056 53.099734 56.600004 Z M 53.099734 56.600004 " transform="matrix(0.793466,0,0,0.793466,0,0)"/>
<path style="fill:none;stroke-width:1.5736;stroke-linecap:round;stroke-linejoin:miter;stroke:rgb(0%,44.313726%,23.529412%);stroke-opacity:1;stroke-miterlimit:4;" d="M 54.699717 56.600004 C 54.699717 58.899056 51.499751 67.898343 42.800768 67.898343 C 34.101785 67.898343 30.90182 59.002439 30.90182 56.600004 " transform="matrix(0.793466,0,0,0.793466,0,0)"/>
<path style=" stroke:none;fill-rule:nonzero;fill:rgb(100%,86.666667%,0%);fill-opacity:1;" d="M 33.722656 20.234375 C 33.5625 19.441406 33.882812 19.121094 33.722656 17.851562 C 33.722656 17.375 34.277344 17.21875 34.4375 17.695312 C 34.59375 18.171875 35.070312 18.726562 35.386719 19.359375 C 36.183594 21.105469 33.882812 21.503906 33.722656 20.234375 Z M 33.722656 20.234375 "/>
<path style=" stroke:none;fill-rule:nonzero;fill:rgb(100%,86.666667%,0%);fill-opacity:1;" d="M 36.261719 26.738281 C 36.101562 25.945312 36.339844 25.628906 36.261719 24.359375 C 36.183594 23.882812 36.738281 23.726562 36.976562 24.199219 C 37.132812 24.675781 37.609375 25.230469 37.925781 25.867188 C 38.722656 27.535156 36.5 27.929688 36.261719 26.738281 Z M 36.261719 26.738281 "/>
<path style=" stroke:none;fill-rule:nonzero;fill:rgb(100%,86.666667%,0%);fill-opacity:1;" d="M 37.769531 22.691406 C 37.53125 21.980469 37.769531 21.582031 37.53125 20.3125 C 37.453125 19.835938 38.007812 19.679688 38.164062 20.074219 C 38.402344 20.550781 38.878906 21.027344 39.277344 21.660156 C 40.308594 23.25 38.164062 23.882812 37.769531 22.691406 Z M 37.769531 22.691406 "/>
<path style=" stroke:none;fill-rule:nonzero;fill:rgb(100%,86.666667%,0%);fill-opacity:1;" d="M 38.878906 18.089844 C 38.5625 17.375 38.722656 16.980469 38.324219 15.789062 C 38.164062 15.3125 38.722656 15.074219 38.960938 15.472656 C 39.277344 15.871094 39.832031 16.34375 40.230469 16.902344 C 41.5 18.25 39.433594 19.203125 38.878906 18.089844 Z M 38.878906 18.089844 "/>
<path style=" stroke:none;fill-rule:nonzero;fill:rgb(100%,86.666667%,0%);fill-opacity:1;" d="M 42.210938 25.46875 C 41.894531 24.757812 42.054688 24.359375 41.65625 23.167969 C 41.5 22.691406 42.054688 22.453125 42.292969 22.851562 C 42.609375 23.25 43.164062 23.726562 43.5625 24.28125 C 44.75 25.707031 42.6875 26.582031 42.210938 25.46875 Z M 42.210938 25.46875 "/>
<path style=" stroke:none;fill-rule:nonzero;fill:rgb(100%,86.666667%,0%);fill-opacity:1;" d="M 28.007812 14.28125 L 28.804688 16.34375 C 29.121094 17.21875 29.992188 17.613281 31.023438 17.21875 C 32.054688 16.820312 33.722656 15.394531 34.914062 14.996094 C 36.101562 14.519531 38.324219 14.519531 39.355469 14.125 C 40.386719 13.726562 40.785156 12.855469 40.464844 11.980469 L 39.039062 8.015625 C 38.722656 7.140625 37.847656 6.664062 36.816406 7.140625 C 35.707031 7.539062 34.914062 8.570312 32.847656 9.363281 C 30.707031 10.15625 29.4375 9.839844 28.40625 10.234375 C 27.453125 10.632812 26.976562 11.503906 27.296875 12.378906 L 28.007812 14.28125 "/>
<path style=" stroke:none;fill-rule:nonzero;fill:rgb(89.019608%,2.352941%,7.450981%);fill-opacity:1;" d="M 6.15625 8.445312 L 8.398438 6.199219 L 61.8125 59.613281 L 59.566406 61.859375 Z M 6.15625 8.445312 "/>
</g>
</svg>
