<?xml version="1.0" encoding="UTF-8"?>
<svg xmlns="http://www.w3.org/2000/svg" xmlns:xlink="http://www.w3.org/1999/xlink" width="68pt" height="68pt" viewBox="0 0 68 68" version="1.1">
<g id="surface6807">
<rect x="0" y="0" width="68" height="68" style="fill:rgb(0%,44.313726%,23.529412%);fill-opacity:1;stroke:none;"/>
<path style=" stroke:none;fill-rule:nonzero;fill:rgb(100%,86.666667%,0%);fill-opacity:1;" d="M 13.519531 38.480469 C 16.398438 36.160156 19.679688 34.398438 23.28125 34.398438 C 23.921875 34.398438 24.640625 34.558594 24.71875 35.121094 C 24.800781 35.761719 24.320312 36.640625 23.921875 37.199219 C 23.519531 37.839844 22.878906 38.398438 22.558594 38.71875 C 20.558594 40.398438 18.800781 41.839844 16.160156 44.320312 C 15.28125 45.121094 14 46 12.800781 46.640625 C 11.761719 47.199219 10.960938 47.601562 9.839844 47.839844 C 9.679688 47.921875 9.359375 47.921875 9.121094 47.839844 C 8.878906 47.839844 8.640625 47.519531 8.558594 47.28125 C 8.398438 46.71875 8.558594 46.160156 8.71875 45.601562 C 9.679688 42.800781 11.199219 40.320312 13.519531 38.480469 Z M 13.519531 38.480469 "/>
<path style=" stroke:none;fill-rule:nonzero;fill:rgb(100%,86.666667%,0%);fill-opacity:1;" d="M 10 48.800781 C 12.558594 48.160156 14.878906 46.71875 16.238281 45.519531 C 18.320312 43.761719 20.238281 41.921875 22.480469 40.160156 C 23.28125 39.601562 23.921875 38.878906 24.558594 38.078125 C 25.039062 37.441406 25.28125 36.960938 25.519531 36.398438 C 25.921875 36.800781 26.320312 37.039062 26.800781 37.199219 C 26.800781 37.199219 26.800781 37.359375 26.800781 37.359375 C 25.359375 39.28125 22.640625 43.28125 21.28125 46.238281 C 20.71875 47.519531 20.238281 48.558594 19.839844 49.761719 C 19.441406 51.121094 19.199219 51.761719 18.800781 53.761719 C 22.71875 53.199219 26.480469 52.238281 29.839844 49.839844 C 31.441406 48.71875 32.558594 47.441406 33.519531 45.839844 C 34.320312 44.558594 34.71875 43.28125 34.878906 41.839844 C 34.960938 40.71875 34.71875 39.601562 34.398438 38.558594 C 37.199219 40.238281 38.71875 43.28125 39.359375 46.480469 C 39.519531 47.199219 39.601562 47.921875 39.601562 48.640625 C 39.601562 49.839844 39.601562 51.039062 39.441406 52.238281 C 39.121094 54.640625 38.480469 57.359375 36.800781 58.878906 C 35.921875 59.679688 34.71875 59.601562 33.839844 59.28125 C 26.640625 56.398438 20.480469 54.320312 13.199219 52.398438 C 12.480469 52.238281 11.679688 51.519531 11.359375 50.960938 C 11.121094 50.398438 11.28125 50.160156 10 48.800781 Z M 10 48.800781 "/>
<path style=" stroke:none;fill-rule:nonzero;fill:rgb(100%,86.666667%,0%);fill-opacity:1;" d="M 20.238281 52.320312 C 21.199219 47.839844 23.839844 43.121094 26.800781 38.960938 C 26.960938 39.039062 27.039062 39.359375 27.359375 39.519531 C 25.921875 42.960938 24.878906 47.039062 25.359375 50.960938 C 24.160156 51.519531 22.238281 52 20.480469 52.320312 Z M 20.238281 52.320312 "/>
<path style=" stroke:none;fill-rule:nonzero;fill:rgb(100%,86.666667%,0%);fill-opacity:1;" d="M 26.640625 45.199219 C 30.960938 41.679688 33.519531 39.199219 33.519531 39.199219 C 34.558594 41.761719 33.359375 44.480469 31.761719 46.480469 C 30.320312 48.238281 28.480469 49.601562 26.480469 50.480469 C 26.160156 48.71875 26.320312 46.878906 26.640625 45.199219 Z M 26.640625 45.199219 "/>
<path style=" stroke:none;fill-rule:nonzero;fill:rgb(100%,86.666667%,0%);fill-opacity:1;" d="M 37.839844 40 C 38.160156 39.761719 38.800781 39.761719 39.039062 39.839844 C 39.921875 40.320312 40.878906 42.480469 41.199219 43.441406 C 41.679688 44.878906 42 46.480469 42.078125 48.320312 C 42.160156 51.441406 41.839844 54.558594 40.480469 57.601562 C 40.398438 57.679688 40.078125 58.238281 39.761719 58.398438 C 39.359375 58.640625 38.878906 58.558594 38.398438 58.398438 L 38.480469 58.320312 C 39.28125 57.441406 39.679688 56.398438 39.921875 55.359375 C 40.558594 52.960938 40.800781 50.480469 40.71875 48.078125 C 40.480469 45.121094 39.601562 42.320312 37.839844 40 Z M 37.839844 40 "/>
<path style=" stroke:none;fill-rule:nonzero;fill:rgb(100%,86.666667%,0%);fill-opacity:1;" d="M 61.679688 9.921875 C 61.679688 10.320312 61.679688 10.71875 61.679688 11.199219 C 56.160156 11.039062 51.28125 10.320312 45.761719 9.519531 C 45.359375 9.441406 44 9.441406 42.398438 10.160156 C 41.921875 10.398438 40.960938 11.039062 39.679688 12.238281 C 37.199219 14.480469 34.960938 16.398438 32.71875 18.800781 C 32.558594 18.960938 32.480469 19.199219 32.398438 19.359375 C 31.921875 20.480469 31.519531 21.519531 31.039062 22.640625 C 34.878906 21.839844 38.640625 20.71875 42 18.640625 C 41.921875 17.761719 41.761719 16.878906 41.679688 15.921875 C 41.679688 15.199219 41.519531 14.398438 41.601562 13.679688 C 41.601562 13.441406 41.761719 13.199219 42 13.121094 C 42.398438 12.960938 42.800781 13.28125 42.878906 13.679688 C 42.878906 14.480469 42.960938 15.761719 43.121094 16.960938 C 43.121094 17.28125 43.199219 17.601562 43.199219 17.921875 C 44.640625 16.960938 45.601562 15.921875 46.71875 14.71875 C 46.878906 14.558594 47.199219 14.558594 47.441406 14.71875 C 47.679688 14.878906 47.761719 15.199219 47.601562 15.441406 C 47.28125 16.078125 46.800781 16.480469 46.320312 17.039062 C 45.519531 17.921875 44.640625 18.640625 43.601562 19.28125 C 40.878906 21.039062 38.320312 22.078125 35.121094 23.039062 C 33.039062 23.601562 31.679688 23.761719 29.28125 24.558594 C 28.640625 24.800781 27.519531 25.519531 27.199219 26.078125 C 27.121094 26.160156 26.960938 26.398438 26.878906 26.71875 C 26.800781 26.960938 26.800781 27.441406 26.878906 27.601562 C 26.960938 27.839844 27.28125 28.160156 27.679688 28.398438 C 28.160156 28.640625 28.960938 28.800781 29.601562 28.800781 C 33.121094 28.878906 37.039062 27.679688 38.078125 27.039062 C 40.878906 25.359375 44.238281 23.839844 47.679688 23.519531 C 49.28125 24.398438 51.121094 24.960938 52.960938 25.039062 C 55.921875 25.121094 58.878906 24.640625 61.679688 23.839844 C 61.679688 24.238281 61.679688 24.71875 61.679688 25.121094 C 58.71875 26 55.519531 26.558594 52.480469 26.238281 C 52.558594 26.800781 52.640625 27.359375 52.480469 27.921875 C 51.519531 27.921875 50.558594 27.839844 49.519531 27.679688 C 48.238281 27.441406 47.601562 27.28125 46.238281 26.800781 C 46.398438 27.28125 46.71875 27.921875 46.960938 28.480469 C 46.960938 28.558594 47.039062 28.558594 47.121094 28.640625 C 47.441406 28.71875 48.320312 28.800781 48.960938 29.039062 C 49.839844 29.359375 50.71875 29.679688 51.441406 30.320312 C 51.921875 30.71875 52.238281 31.199219 52.398438 31.839844 C 52.558594 32.480469 52.480469 33.199219 52.238281 33.761719 C 49.601562 33.761719 45.921875 33.519531 44.078125 32.320312 C 43.199219 31.601562 42.480469 30.800781 41.839844 29.839844 C 41.921875 30.078125 42 30.398438 42 30.640625 C 43.039062 31.921875 44.480469 33.28125 44.878906 35.039062 C 45.121094 36 45.039062 37.039062 44.558594 37.839844 C 44.078125 38.558594 43.359375 38.878906 43.039062 39.039062 C 40.800781 37.28125 38.398438 34.878906 36.800781 33.199219 C 36.320312 32 35.921875 30.558594 35.601562 29.199219 C 35.28125 29.28125 34.960938 29.359375 34.640625 29.441406 C 34 30.800781 32.960938 32.800781 31.519531 34.078125 C 31.039062 34.480469 30.480469 34.878906 29.839844 35.039062 C 28.558594 35.519531 27.039062 35.199219 26.078125 34.320312 C 26.238281 32.640625 26.640625 31.039062 27.039062 29.441406 C 25.679688 28.800781 25.121094 27.28125 25.679688 26 C 26.320312 24.398438 28 23.441406 29.441406 23.121094 C 30.160156 21.519531 30.558594 20.078125 31.359375 18.480469 C 31.441406 18.320312 31.839844 17.839844 31.921875 17.761719 C 34.71875 14.960938 37.441406 12.480469 40.480469 9.761719 C 41.921875 8.480469 44 7.921875 45.761719 8.160156 C 47.121094 8.320312 48.878906 8.71875 50.558594 8.878906 C 52.238281 9.039062 53.839844 9.28125 55.519531 9.441406 C 57.679688 9.679688 59.679688 9.761719 61.679688 9.921875 Z M 61.679688 9.921875 "/>
<path style=" stroke:none;fill-rule:nonzero;fill:rgb(0%,44.313726%,23.529412%);fill-opacity:1;" d="M 28.320312 29.921875 C 27.921875 31.199219 27.679688 32.480469 27.441406 33.761719 C 28.71875 34.558594 30.078125 33.679688 30.878906 32.960938 C 31.839844 32 32.480469 30.878906 33.121094 29.761719 C 31.679688 29.921875 29.601562 30.160156 28.320312 29.921875 Z M 28.320312 29.921875 "/>
<path style=" stroke:none;fill-rule:nonzero;fill:rgb(0%,44.313726%,23.529412%);fill-opacity:1;" d="M 36.878906 28.800781 C 37.199219 30 37.519531 31.199219 37.921875 32.398438 C 39.601562 34.160156 41.359375 35.839844 43.199219 37.441406 C 43.601562 37.039062 43.679688 36.800781 43.761719 36.320312 C 43.839844 35.839844 43.679688 35.199219 43.441406 34.71875 C 42.878906 33.601562 41.921875 32.480469 40.960938 31.519531 C 40.558594 30.160156 40.320312 28.71875 40 27.359375 C 39.441406 27.679688 39.039062 27.921875 38.480469 28.160156 C 37.921875 28.398438 37.441406 28.640625 36.878906 28.800781 Z M 36.878906 28.800781 "/>
<path style=" stroke:none;fill-rule:nonzero;fill:rgb(0%,44.313726%,23.529412%);fill-opacity:1;" d="M 41.199219 26.800781 C 41.921875 27.839844 43.359375 29.921875 44.960938 31.121094 C 45.199219 31.359375 46.320312 31.761719 46.71875 31.839844 C 48.160156 32.160156 49.601562 32.238281 51.121094 32.320312 C 51.121094 32 51.039062 31.519531 50.71875 31.28125 C 49.28125 30.238281 47.761719 30.078125 46.078125 29.679688 C 45.519531 28.238281 44.800781 26.878906 44.238281 25.519531 C 44.238281 25.519531 43.839844 25.601562 43.679688 25.679688 C 43.199219 25.839844 42.71875 26.078125 42.238281 26.320312 C 41.679688 26.558594 41.359375 26.71875 41.199219 26.800781 Z M 41.199219 26.800781 "/>
<path style=" stroke:none;fill-rule:nonzero;fill:rgb(0%,44.313726%,23.529412%);fill-opacity:1;" d="M 45.519531 25.199219 C 47.28125 25.839844 49.199219 26.480469 51.039062 26.558594 C 50.960938 26.320312 50.960938 26.160156 50.878906 26 C 49.679688 25.761719 48.398438 25.359375 47.28125 24.800781 C 46.558594 24.878906 45.519531 25.121094 45.519531 25.199219 Z M 45.519531 25.199219 "/>
<path style=" stroke:none;fill-rule:nonzero;fill:rgb(0%,44.313726%,23.529412%);fill-opacity:1;" d="M 18.320312 37.359375 C 17.761719 37.761719 17.28125 38.160156 16.878906 38.640625 C 16.800781 38.71875 16.558594 38.960938 16.558594 38.960938 C 16.558594 38.960938 17.679688 39.519531 18.238281 39.921875 C 19.121094 39.121094 20.480469 38.398438 21.039062 37.761719 C 21.28125 37.519531 21.441406 37.28125 21.359375 36.960938 C 21.199219 36.480469 20.71875 36.480469 20.320312 36.480469 C 19.519531 36.480469 18.878906 36.878906 18.320312 37.359375 Z M 18.320312 37.359375 "/>
<path style=" stroke:none;fill-rule:nonzero;fill:rgb(89.019608%,2.352941%,7.450981%);fill-opacity:1;" d="M 6.164062 8.429688 L 8.425781 6.167969 L 61.828125 59.566406 L 59.566406 61.832031 Z M 6.164062 8.429688 "/>
</g>
</svg>
